<?xml version="1.0" encoding="UTF-8"?>
<svg xmlns="http://www.w3.org/2000/svg" xmlns:xlink="http://www.w3.org/1999/xlink" version="1.2" >
<font id="VolvoSansWebLight">
<font-face  font-family="Volvo Sans Web" units-per-em="1000" ascent="750" descent="-250" font-style="normal" font-weight="300" font-stretch="normal" cap-height="706" x-height="477" underline-position="-75" underline-thickness="50" />
<missing-glyph  horiz-adv-x="500" d="M12 950 L487 950 L487 -250 L12 -250 L12 950 Z " />
<glyph glyph-name=".null" d="" />
<glyph glyph-name="nonmarkingreturn" unicode="&#xd;" horiz-adv-x="271" d="" />
<glyph glyph-name="space" unicode="&#x20;" horiz-adv-x="271" d="" />
<glyph glyph-name="A" unicode="A" horiz-adv-x="625" d="M552 0 L471 213 L155 213 L74 0 L0 0 L288 706 L344 706 L625 0 L552 0 Z M315 628 L177 267 L451 267 L315 628 Z " />
<glyph glyph-name="B" unicode="B" horiz-adv-x="669" d="M623 201 Q623 156 611.5 126.5 Q600 97 587 79 Q566 50 540 34.5 Q514 19 487 11 Q460 3 432.5 1.5 Q405 0 381 0 L78 0 L78 706 L371 706 Q393 706 419 705 Q445 704 471.5 697 Q498 690 522.5 676 Q547 662 567 635 Q578 620 589 594 Q600 568 600 530 Q600 490 586.5 462 Q573 434 553 416.5 Q533 399 511 390.5 Q489 382 473 380 Q495 375 521.5 364.5 Q548 354 570.5 333.5 Q593 313 608 280.5 Q623 248 623 201 Z M530 531 Q530 557 522.5 574.5 Q515 592 506 603 Q493 619 477 627.5 Q461 636 443 640 Q425 644 405 645 Q385 646 365 646 L145 646 L145 407 L344 407 Q374 407 398.5 408.5 Q423 410 442.5 415 Q462 420 477.5 429.5 Q493 439 506 456 Q514 465 522 484.5 Q530 504 530 531 Z M556 194 Q556 222 548.5 245.5 Q541 269 523 291 Q505 312 483.5 324 Q462 336 439 341.5 Q416 347 393 348 Q370 349 350 349 L145 349 L145 61 L371 61 Q393 61 414.5 62 Q436 63 456 67.5 Q476 72 493.5 81.5 Q511 91 526 108 Q548 133 552 158.5 Q556 184 556 194 Z " />
<glyph glyph-name="C" unicode="C" horiz-adv-x="647" d="M557 507 Q550 539 538 561.5 Q526 584 517 595 Q494 626 456 645.5 Q418 665 357 665 Q316 665 288.5 657.5 Q261 650 244 640 Q188 608 154.5 539.5 Q121 471 120 369 L120 362 Q120 309 128.5 252 Q137 195 163.5 148.5 Q190 102 238 72 Q286 42 366 42 Q426 42 461.5 63 Q497 84 520 116 Q540 142 547.5 162.5 Q555 183 557 192 L620 154 Q610 132 597 111 Q584 90 565 68 Q549 50 530 34.5 Q511 19 486.5 7 Q462 -5 430 -11.5 Q398 -18 357 -18 Q284 -18 233.5 3 Q183 24 148.5 57.5 Q114 91 94.5 132 Q75 173 65 213.5 Q55 254 52.5 289 Q50 324 50 345 L50 365 Q50 375 52 405.5 Q54 436 63 476 Q72 516 90.5 560 Q109 604 142.5 640.5 Q176 677 227 700.5 Q278 724 352 724 Q404 724 442.5 714 Q481 704 510.5 686.5 Q540 669 560.5 645.5 Q581 622 597 596 Q606 582 612 569 Q618 556 625 541 L557 507 Z " />
<glyph glyph-name="D" unicode="D" horiz-adv-x="685" d="M635 356 Q635 290 620.5 234 Q606 178 580.5 135 Q555 92 521.5 62.5 Q488 33 450 19 Q431 12 408.5 8.5 Q386 5 362 3 Q338 1 315 0.5 Q292 0 272 0 L78 0 L78 706 L267 706 Q338 706 383 702 Q428 698 460 685 Q496 670 528 640.5 Q560 611 583.5 569 Q607 527 621 473 Q635 419 635 356 Z M567 350 Q567 380 561.5 420.5 Q556 461 541 501.5 Q526 542 499.5 576.5 Q473 611 430 629 Q416 635 400.5 638 Q385 641 366 642.5 Q347 644 323.5 644.5 Q300 645 270 645 L146 645 L146 60 L281 60 Q338 60 378 65 Q418 70 441 82 Q475 100 499 130 Q523 160 538 196.5 Q553 233 560 273 Q567 313 567 350 Z " />
<glyph glyph-name="E" unicode="E" horiz-adv-x="581" d="M78 0 L78 706 L539 706 L539 645 L145 645 L145 393 L502 393 L502 331 L145 331 L145 62 L564 62 L564 0 L78 0 Z " />
<glyph glyph-name="F" unicode="F" horiz-adv-x="540" d="M143 647 L143 408 L499 408 L499 350 L143 350 L143 0 L78 0 L78 706 L540 706 L540 647 L143 647 Z " />
<glyph glyph-name="G" unicode="G" horiz-adv-x="688" d="M564 511 Q558 532 546.5 559.5 Q535 587 513 611 Q491 635 457 651.5 Q423 668 371 668 Q342 668 313.5 661.5 Q285 655 257 639 Q193 602 157 529.5 Q121 457 121 349 Q121 253 147.5 189 Q174 125 218 88 Q240 70 272.5 56 Q305 42 355 42 Q414 42 454 66 Q494 90 518.5 127.5 Q543 165 553.5 211 Q564 257 564 301 L564 308 L304 308 L304 369 L622 369 L622 0 L564 0 L564 118 Q544 67 512.5 39.5 Q481 12 449.5 -0.5 Q418 -13 391 -15.5 Q364 -18 352 -18 Q286 -18 242.5 1.5 Q199 21 170 44 Q136 72 113 107.5 Q90 143 76 183 Q62 223 56 266 Q50 309 50 352 Q50 422 68 489 Q86 556 124.5 608 Q163 660 222.5 692 Q282 724 366 724 Q429 724 473 707 Q517 690 547 664 Q577 638 596 606.5 Q615 575 627 545 L564 511 Z " />
<glyph glyph-name="H" unicode="H" horiz-adv-x="723" d="M578 0 L578 331 L144 331 L144 0 L78 0 L78 706 L144 706 L144 391 L578 391 L578 706 L645 706 L645 0 L578 0 Z " />
<glyph glyph-name="I" unicode="I" horiz-adv-x="223" d="M78 0 L78 706 L145 706 L145 0 L78 0 Z " />
<glyph glyph-name="J" unicode="J" horiz-adv-x="489" d="M419 259 Q419 217 417.5 182 Q416 147 410 118 Q404 89 392 66 Q380 43 358 24 Q327 -2 291.5 -9 Q256 -16 224 -16 Q121 -16 67 36 Q13 88 13 194 L84 210 Q83 201 82.5 194 Q82 187 82 179 Q82 106 119 74.5 Q156 43 222 43 Q243 43 267 47 Q291 51 312 69 Q340 94 346.5 129.5 Q353 165 353 222 L353 706 L419 706 L419 259 Z " />
<glyph glyph-name="K" unicode="K" horiz-adv-x="634" d="M564 0 L300 382 L146 227 L146 0 L78 0 L78 706 L146 706 L146 312 L530 706 L622 706 L346 426 L646 0 L564 0 Z " />
<glyph glyph-name="L" unicode="L" horiz-adv-x="536" d="M78 0 L78 706 L146 706 L146 62 L536 62 L536 0 L78 0 Z " />
<glyph glyph-name="M" unicode="M" horiz-adv-x="786" d="M642 0 L647 600 L417 0 L371 0 L136 600 L144 0 L78 0 L78 706 L157 706 L396 107 L625 706 L708 706 L708 0 L642 0 Z " />
<glyph glyph-name="N" unicode="N" horiz-adv-x="702" d="M558 0 L144 610 L144 0 L78 0 L78 706 L144 706 L563 102 L558 706 L624 706 L624 0 L558 0 Z " />
<glyph glyph-name="O" unicode="O" horiz-adv-x="708" d="M658 365 Q658 272 632 192 Q607 117 569.5 75 Q532 33 492 12.5 Q452 -8 415 -13 Q378 -18 354 -18 Q267 -18 209 17.5 Q151 53 115.5 108 Q80 163 65 228.5 Q50 294 50 353 Q50 421 67 487.5 Q84 554 120.5 606.5 Q157 659 215.5 691.5 Q274 724 357 724 Q442 724 500 690.5 Q558 657 593 605 Q628 553 643 489 Q658 425 658 365 Z M587 357 Q587 388 583.5 418.5 Q580 449 572 479 Q567 498 554.5 529.5 Q542 561 517.5 591.5 Q493 622 454 644 Q415 666 357 666 Q287 666 241.5 635 Q196 604 169 557 Q142 510 131.5 455.5 Q121 401 121 354 Q121 311 130.5 257 Q140 203 165.5 155 Q191 107 236.5 74.5 Q282 42 354 42 Q400 42 435.5 57 Q471 72 497 97 Q523 122 540 154.5 Q557 187 567.5 222 Q578 257 582.5 292 Q587 327 587 357 Z " />
<glyph glyph-name="P" unicode="P" horiz-adv-x="630" d="M610 512 Q610 468 598 437 Q586 406 571 386 Q552 362 528.5 348 Q505 334 481 327.5 Q457 321 434.5 319.5 Q412 318 394 318 L142 318 L142 0 L78 0 L78 706 L352 706 Q392 706 424 704.5 Q456 703 482.5 697 Q509 691 530.5 678 Q552 665 570 643 Q585 624 593 604 Q601 584 605 565.5 Q609 547 609.5 533 Q610 519 610 512 Z M545 515 Q545 531 540.5 557.5 Q536 584 516 608 Q492 637 458 643.5 Q424 650 375 650 L142 650 L142 377 L393 377 Q408 377 425 378.5 Q442 380 459 385 Q476 390 492 400 Q508 410 521 428 Q532 442 538.5 462 Q545 482 545 508 L545 515 Z " />
<glyph glyph-name="Q" unicode="Q" horiz-adv-x="708" d="M653 -16 L564 66 Q514 16 461 -1 Q408 -18 356 -18 Q273 -18 214.5 14.5 Q156 47 119.5 99 Q83 151 66.5 216.5 Q50 282 50 347 Q50 414 67.5 481.5 Q85 549 122.5 603 Q160 657 218.5 690.5 Q277 724 360 724 Q446 724 504 689 Q562 654 596.5 600 Q631 546 645.5 481.5 Q660 417 660 358 Q660 273 640 213 Q620 153 600 117 L695 29 L653 -16 Z M592 351 Q592 383 588.5 412 Q585 441 577 473 Q575 480 569 501.5 Q563 523 549 549.5 Q535 576 512 602.5 Q489 629 453 647 Q426 661 398 663.5 Q370 666 359 666 Q290 666 244.5 635 Q199 604 171 557 Q143 510 131.5 454 Q120 398 120 349 Q120 324 123.5 289.5 Q127 255 137.5 219 Q148 183 167 148.5 Q186 114 216 88 Q251 58 287 48.5 Q323 39 355 39 Q403 39 446.5 57.5 Q490 76 522 114 Q554 152 573 211 Q592 270 592 351 Z " />
<glyph glyph-name="R" unicode="R" horiz-adv-x="643" d="M534 0 L311 313 L146 313 L146 0 L78 0 L78 706 L349 706 Q373 706 400 704.5 Q427 703 454 696.5 Q481 690 506.5 676 Q532 662 553 638 Q569 618 578.5 596.5 Q588 575 592 556 Q596 537 597 523 Q598 509 598 505 Q598 496 596 473.5 Q594 451 583 425 Q572 399 548.5 372.5 Q525 346 482 330 Q468 325 453 321.5 Q438 318 424.5 316 Q411 314 401.5 313.5 Q392 313 389 313 L618 0 L534 0 Z M532 507 Q532 537 524 558 Q516 579 508 591 Q486 623 453.5 634.5 Q421 646 366 646 L146 646 L146 371 L311 371 Q347 371 376.5 372 Q406 373 429.5 377.5 Q453 382 471 392.5 Q489 403 504 421 Q521 442 526.5 464 Q532 486 532 507 Z " />
<glyph glyph-name="S" unicode="S" horiz-adv-x="604" d="M560 195 Q560 159 549.5 132.5 Q539 106 531 93 Q502 46 444.5 14 Q387 -18 298 -18 Q245 -18 204 -7 Q163 4 133 23.5 Q103 43 83 69 Q63 95 50 125 Q42 144 39 157 Q36 170 34 178 L101 213 Q101 166 117.5 133.5 Q134 101 161 80.5 Q188 60 223 50.5 Q258 41 295 41 Q346 41 383.5 54 Q421 67 445 88.5 Q469 110 480.5 137 Q492 164 492 192 Q492 223 481 245 Q470 267 454 281.5 Q438 296 420 304.5 Q402 313 388 318 Q362 327 335 334 Q308 341 280.5 347.5 Q253 354 226 362.5 Q199 371 173 384 Q156 393 137.5 405.5 Q119 418 104 437 Q89 456 79.5 481 Q70 506 70 540 Q70 593 91.5 628.5 Q113 664 147 685 Q181 706 223 715 Q265 724 306 724 Q357 724 397.5 711.5 Q438 699 467.5 677.5 Q497 656 516.5 628 Q536 600 546 569 L484 535 Q476 558 468.5 574 Q461 590 453 600 Q438 620 419 633.5 Q400 647 380 655 Q360 663 340.5 666 Q321 669 305 669 Q270 669 239 661.5 Q208 654 185 638.5 Q162 623 148.5 599 Q135 575 135 543 Q135 499 160 471.5 Q185 444 232 427 Q260 417 286 410.5 Q312 404 337.5 398 Q363 392 388.5 384.5 Q414 377 442 364 Q484 344 508 319 Q532 294 543.5 269.5 Q555 245 557.5 225 Q560 205 560 195 Z " />
<glyph glyph-name="T" unicode="T" horiz-adv-x="522" d="M294 647 L294 0 L227 0 L227 647 L5 647 L5 706 L517 706 L517 647 L294 647 Z " />
<glyph glyph-name="U" unicode="U" horiz-adv-x="668" d="M598 308 Q598 258 595.5 216.5 Q593 175 583.5 140.5 Q574 106 555 78 Q536 50 503 27 Q477 10 436.5 -4 Q396 -18 336 -18 Q321 -18 299 -16.5 Q277 -15 252 -9 Q227 -3 201.5 8 Q176 19 152 39 Q123 63 107 90 Q91 117 82.5 149.5 Q74 182 72 221 Q70 260 70 308 L70 706 L136 706 L136 295 Q136 234 141 190 Q146 146 167 116 Q177 102 187.5 92.5 Q198 83 213 74 Q232 63 261 53.5 Q290 44 335 44 Q401 44 439.5 63.5 Q478 83 498.5 113.5 Q519 144 525 182 Q531 220 531 257 L531 706 L598 706 L598 308 Z " />
<glyph glyph-name="V" unicode="V" horiz-adv-x="584" d="M319 0 L259 0 L0 706 L74 706 L291 92 L513 706 L584 706 L319 0 Z " />
<glyph glyph-name="W" unicode="W" horiz-adv-x="870" d="M661 0 L607 0 L438 571 L270 0 L217 0 L8 706 L80 706 L246 120 L414 706 L460 706 L634 120 L795 706 L862 706 L661 0 Z " />
<glyph glyph-name="X" unicode="X" horiz-adv-x="625" d="M542 0 L314 338 L77 0 L0 0 L268 380 L37 706 L122 706 L314 421 L510 706 L591 706 L359 380 L625 0 L542 0 Z " />
<glyph glyph-name="Y" unicode="Y" horiz-adv-x="605" d="M329 292 L329 0 L263 0 L263 292 L0 706 L79 706 L297 355 L524 706 L605 706 L329 292 Z " />
<glyph glyph-name="Z" unicode="Z" horiz-adv-x="583" d="M124 60 L548 60 L548 0 L29 0 L29 44 L464 646 L55 646 L55 706 L554 706 L554 660 L124 60 Z " />
<glyph glyph-name="Agrave" unicode="&#xc0;" horiz-adv-x="625" d="M552 0 L471 213 L155 213 L74 0 L0 0 L288 706 L344 706 L625 0 L552 0 Z M315 628 L177 267 L451 267 L315 628 Z M332 770 L185 895 L291 895 L390 770 L332 770 Z " />
<glyph glyph-name="Aacute" unicode="&#xc1;" horiz-adv-x="625" d="M552 0 L471 213 L155 213 L74 0 L0 0 L288 706 L344 706 L625 0 L552 0 Z M315 628 L177 267 L451 267 L315 628 Z M306 770 L249 770 L348 895 L453 895 L306 770 Z " />
<glyph glyph-name="Acircumflex" unicode="&#xc2;" horiz-adv-x="625" d="M552 0 L471 213 L155 213 L74 0 L0 0 L288 706 L344 706 L625 0 L552 0 Z M315 628 L177 267 L451 267 L315 628 Z M395 772 L317 828 L240 772 L193 772 L298 895 L340 895 L444 772 L395 772 Z " />
<glyph glyph-name="Atilde" unicode="&#xc3;" horiz-adv-x="625" d="M552 0 L471 213 L155 213 L74 0 L0 0 L288 706 L344 706 L625 0 L552 0 Z M315 628 L177 267 L451 267 L315 628 Z M480 867 Q480 866 474 851.5 Q468 837 456.5 819.5 Q445 802 427 788 Q409 774 384 774 Q357 774 331.5 787 Q306 800 286 811 Q275 817 261.5 823 Q248 829 237 829 Q225 829 216.5 823.5 Q208 818 202 809.5 Q196 801 191.5 791.5 Q187 782 184 774 L144 787 Q144 788 150 804.5 Q156 821 168 840 Q180 859 198.5 874.5 Q217 890 244 890 Q267 890 290 878.5 Q313 867 336 853 Q340 851 354 842.5 Q368 834 382 834 Q399 834 412.5 846 Q426 858 437 886 L480 867 L480 867 Z " />
<glyph glyph-name="Adieresis" unicode="&#xc4;" horiz-adv-x="625" d="M552 0 L471 213 L155 213 L74 0 L0 0 L288 706 L344 706 L625 0 L552 0 Z M315 628 L177 267 L451 267 L315 628 Z M388 784 L388 881 L455 881 L455 784 L388 784 Z M169 784 L169 881 L236 881 L236 784 L169 784 Z " />
<glyph glyph-name="Amacron" unicode="&#x100;" horiz-adv-x="625" d="M552 0 L471 213 L155 213 L74 0 L0 0 L288 706 L344 706 L625 0 L552 0 Z M315 628 L177 267 L451 267 L315 628 Z M196 789 L196 851 L429 851 L429 789 L196 789 Z " />
<glyph glyph-name="Abreve" unicode="&#x102;" horiz-adv-x="625" d="M552 0 L471 213 L155 213 L74 0 L0 0 L288 706 L344 706 L625 0 L552 0 Z M315 628 L177 267 L451 267 L315 628 Z M455 892 Q451 868 441 849.5 Q431 831 418 817.5 Q405 804 391 795 Q377 786 367 782 Q359 779 343.5 775.5 Q328 772 308 772 Q283 772 260 780 Q237 788 218.5 803.5 Q200 819 188 841.5 Q176 864 174 892 L218 892 Q224 869 237 856 Q250 843 264.5 837 Q279 831 291.5 829.5 Q304 828 309 828 L311 828 Q323 828 338.5 831 Q354 834 369 841.5 Q384 849 396 861 Q408 873 411 892 L455 892 L455 892 Z " />
<glyph glyph-name="Aring" unicode="&#xc5;" horiz-adv-x="625" d="M552 0 L471 213 L155 213 L74 0 L0 0 L288 706 L344 706 L625 0 L552 0 Z M315 628 L177 267 L451 267 L315 628 Z M396 846 Q396 813 372.5 789.5 Q349 766 316 766 Q283 766 259.5 789.5 Q236 813 236 846 Q236 879 259.5 902.5 Q283 926 316 926 Q349 926 372.5 902.5 Q396 879 396 846 Z M358 846 Q358 864 345.5 876 Q333 888 316 888 Q299 888 286.5 875.5 Q274 863 274 846 Q274 829 286.5 816.5 Q299 804 316 804 Q333 804 345.5 816 Q358 828 358 846 Z " />
<glyph glyph-name="Aogonek" unicode="&#x104;" horiz-adv-x="625" d="M623 -163 Q616 -164 610.5 -164 Q605 -164 598 -164 Q549 -164 521 -146.5 Q493 -129 493 -97 Q493 -69 514.5 -44.5 Q536 -20 560 0 L552 0 L471 213 L155 213 L74 0 L0 0 L288 706 L344 706 L625 0 L606 0 Q600 -5 590.5 -12.5 Q581 -20 572 -30.5 Q563 -41 556.5 -52.5 Q550 -64 550 -76 Q550 -91 557 -99 Q564 -107 573.5 -111 Q583 -115 593.5 -116 Q604 -117 612 -117 L623 -117 L623 -163 Z M315 628 L177 267 L451 267 L315 628 Z " />
<glyph glyph-name="AE" unicode="&#xc6;" horiz-adv-x="977" d="M464 0 L464 204 L198 204 L69 0 L-10 0 L442 706 L941 706 L941 645 L530 645 L530 391 L900 391 L900 329 L530 329 L530 60 L960 60 L960 0 L464 0 Z M464 632 L238 267 L464 267 L464 632 Z " />
<glyph glyph-name="Cacute" unicode="&#x106;" horiz-adv-x="647" d="M557 507 Q550 539 538 561.5 Q526 584 517 595 Q494 626 456 645.5 Q418 665 357 665 Q316 665 288.5 657.5 Q261 650 244 640 Q188 608 154.5 539.5 Q121 471 120 369 L120 362 Q120 309 128.5 252 Q137 195 163.5 148.5 Q190 102 238 72 Q286 42 366 42 Q426 42 461.5 63 Q497 84 520 116 Q540 142 547.5 162.5 Q555 183 557 192 L620 154 Q610 132 597 111 Q584 90 565 68 Q549 50 530 34.5 Q511 19 486.5 7 Q462 -5 430 -11.5 Q398 -18 357 -18 Q284 -18 233.5 3 Q183 24 148.5 57.5 Q114 91 94.5 132 Q75 173 65 213.5 Q55 254 52.5 289 Q50 324 50 345 L50 365 Q50 375 52 405.5 Q54 436 63 476 Q72 516 90.5 560 Q109 604 142.5 640.5 Q176 677 227 700.5 Q278 724 352 724 Q404 724 442.5 714 Q481 704 510.5 686.5 Q540 669 560.5 645.5 Q581 622 597 596 Q606 582 612 569 Q618 556 625 541 L557 507 Z M347 770 L290 770 L389 895 L494 895 L347 770 Z " />
<glyph glyph-name="Ccaron" unicode="&#x10c;" horiz-adv-x="647" d="M557 507 Q550 539 538 561.5 Q526 584 517 595 Q494 626 456 645.5 Q418 665 357 665 Q316 665 288.5 657.5 Q261 650 244 640 Q188 608 154.5 539.5 Q121 471 120 369 L120 362 Q120 309 128.5 252 Q137 195 163.5 148.5 Q190 102 238 72 Q286 42 366 42 Q426 42 461.5 63 Q497 84 520 116 Q540 142 547.5 162.5 Q555 183 557 192 L620 154 Q610 132 597 111 Q584 90 565 68 Q549 50 530 34.5 Q511 19 486.5 7 Q462 -5 430 -11.5 Q398 -18 357 -18 Q284 -18 233.5 3 Q183 24 148.5 57.5 Q114 91 94.5 132 Q75 173 65 213.5 Q55 254 52.5 289 Q50 324 50 345 L50 365 Q50 375 52 405.5 Q54 436 63 476 Q72 516 90.5 560 Q109 604 142.5 640.5 Q176 677 227 700.5 Q278 724 352 724 Q404 724 442.5 714 Q481 704 510.5 686.5 Q540 669 560.5 645.5 Q581 622 597 596 Q606 582 612 569 Q618 556 625 541 L557 507 Z M376 772 L334 772 L230 895 L279 895 L357 839 L434 895 L481 895 L376 772 Z " />
<glyph glyph-name="Ccedilla" unicode="&#xc7;" horiz-adv-x="647" d="M557 507 Q550 539 538 561.5 Q526 584 517 595 Q494 626 456 645.5 Q418 665 357 665 Q316 665 288.5 657.5 Q261 650 244 640 Q188 608 154 539.5 Q120 471 120 369 L120 362 Q120 309 128.5 252 Q137 195 163 148.5 Q189 102 237.5 72 Q286 42 366 42 Q426 42 461.5 63 Q497 84 520 116 Q540 142 547.5 162.5 Q555 183 557 192 L620 154 Q610 132 597 111 Q584 90 565 68 Q549 50 530 34.5 Q511 19 486.5 7 Q462 -5 430 -11.5 Q398 -18 357 -18 L337 -18 L322 -47 Q330 -45 335 -44.5 Q340 -44 352 -44 Q379 -44 399.5 -60.5 Q420 -77 420 -109 Q420 -131 410 -146.5 Q400 -162 385 -171.5 Q370 -181 352 -185.5 Q334 -190 318 -190 Q308 -190 297 -189 Q286 -188 281 -187 L281 -160 Q288 -161 296.5 -161.5 Q305 -162 313 -162 Q340 -162 354.5 -150.5 Q369 -139 369 -122 Q369 -108 356.5 -96.5 Q344 -85 320 -85 Q306 -85 296 -89 Q286 -93 281 -95 L281 -70 L313 -16 Q251 -9 207.5 15 Q164 39 135 72.5 Q106 106 89 145 Q72 184 63.5 222 Q55 260 52.5 292.5 Q50 325 50 345 L50 365 Q50 375 52 405.5 Q54 436 63 476 Q72 516 90.5 560 Q109 604 142.5 640.5 Q176 677 227 700.5 Q278 724 352 724 Q404 724 442.5 714 Q481 704 510.5 686.5 Q540 669 560.5 645.5 Q581 622 597 596 Q606 582 612 569 Q618 556 625 541 L557 507 Z " />
<glyph glyph-name="Dcaron" unicode="&#x10e;" horiz-adv-x="685" d="M635 356 Q635 290 620.5 234 Q606 178 580.5 135 Q555 92 521.5 62.5 Q488 33 450 19 Q431 12 408.5 8.5 Q386 5 362 3 Q338 1 315 0.5 Q292 0 272 0 L78 0 L78 706 L267 706 Q338 706 383 702 Q428 698 460 685 Q496 670 528 640.5 Q560 611 583.5 569 Q607 527 621 473 Q635 419 635 356 Z M567 350 Q567 380 561.5 420.5 Q556 461 541 501.5 Q526 542 499.5 576.5 Q473 611 430 629 Q416 635 400.5 638 Q385 641 366 642.5 Q347 644 323.5 644.5 Q300 645 270 645 L146 645 L146 60 L281 60 Q338 60 378 65 Q418 70 441 82 Q475 100 499 130 Q523 160 538 196.5 Q553 233 560 273 Q567 313 567 350 Z M325 772 L283 772 L179 895 L228 895 L306 839 L383 895 L430 895 L325 772 Z " />
<glyph glyph-name="Dcroat" unicode="&#x110;" horiz-adv-x="688" d="M638 356 Q638 290 623.5 234 Q609 178 583.5 135 Q558 92 524.5 62.5 Q491 33 453 19 Q434 12 411.5 8.5 Q389 5 365 3 Q341 1 318 0.5 Q295 0 275 0 L265 0 L81 0 L81 352 L0 352 L0 406 L81 406 L81 706 L270 706 Q341 706 386 702 Q431 698 463 685 Q499 670 531 640.5 Q563 611 586.5 569 Q610 527 624 473 Q638 419 638 356 Z M570 350 Q570 380 564.5 420.5 Q559 461 544 501.5 Q529 542 502.5 576.5 Q476 611 433 629 Q419 635 403.5 638 Q388 641 369 642.5 Q350 644 326.5 644.5 Q303 645 273 645 L149 645 L149 406 L370 406 L370 352 L149 352 L149 60 L284 60 Q341 60 381 65.5 Q421 71 444 82 Q469 95 492 119.5 Q515 144 532 178 Q549 212 559.5 254.5 Q570 297 570 346 L570 350 Z " />
<glyph glyph-name="Egrave" unicode="&#xc8;" horiz-adv-x="581" d="M78 0 L78 706 L539 706 L539 645 L145 645 L145 393 L502 393 L502 331 L145 331 L145 62 L564 62 L564 0 L78 0 Z M342 770 L195 895 L301 895 L400 770 L342 770 Z " />
<glyph glyph-name="Eacute" unicode="&#xc9;" horiz-adv-x="581" d="M78 0 L78 706 L539 706 L539 645 L145 645 L145 393 L502 393 L502 331 L145 331 L145 62 L564 62 L564 0 L78 0 Z M305 770 L248 770 L347 895 L452 895 L305 770 Z " />
<glyph glyph-name="Ecircumflex" unicode="&#xca;" horiz-adv-x="581" d="M78 0 L78 706 L539 706 L539 645 L145 645 L145 393 L502 393 L502 331 L145 331 L145 62 L564 62 L564 0 L78 0 Z M397 772 L319 828 L242 772 L195 772 L300 895 L342 895 L446 772 L397 772 Z " />
<glyph glyph-name="Ecaron" unicode="&#x11a;" horiz-adv-x="581" d="M78 0 L78 706 L539 706 L539 645 L145 645 L145 393 L502 393 L502 331 L145 331 L145 62 L564 62 L564 0 L78 0 Z M325 772 L283 772 L179 895 L228 895 L306 839 L383 895 L430 895 L325 772 Z " />
<glyph glyph-name="Edieresis" unicode="&#xcb;" horiz-adv-x="581" d="M78 0 L78 706 L539 706 L539 645 L145 645 L145 393 L502 393 L502 331 L145 331 L145 62 L564 62 L564 0 L78 0 Z M394 784 L394 881 L461 881 L461 784 L394 784 Z M175 784 L175 881 L242 881 L242 784 L175 784 Z " />
<glyph glyph-name="Emacron" unicode="&#x112;" horiz-adv-x="581" d="M78 0 L78 706 L539 706 L539 645 L145 645 L145 393 L502 393 L502 331 L145 331 L145 62 L564 62 L564 0 L78 0 Z M174 789 L174 851 L407 851 L407 789 L174 789 Z " />
<glyph glyph-name="Edotaccent" unicode="&#x116;" horiz-adv-x="581" d="M78 0 L78 706 L539 706 L539 645 L145 645 L145 393 L502 393 L502 331 L145 331 L145 62 L564 62 L564 0 L78 0 Z M275 784 L275 876 L336 876 L336 784 L275 784 Z " />
<glyph glyph-name="Eogonek" unicode="&#x118;" horiz-adv-x="581" d="M541 -163 Q534 -164 528.5 -164 Q523 -164 516 -164 Q467 -164 439 -146.5 Q411 -129 411 -97 Q411 -69 432.5 -44.5 Q454 -20 478 0 L78 0 L78 706 L539 706 L539 645 L145 645 L145 393 L502 393 L502 331 L145 331 L145 62 L564 62 L564 0 L524 0 Q518 -5 508.5 -12.5 Q499 -20 490 -30.5 Q481 -41 474.5 -52.5 Q468 -64 468 -76 Q468 -91 475 -99 Q482 -107 491.5 -111 Q501 -115 511.5 -116 Q522 -117 530 -117 L541 -117 L541 -163 L541 -163 Z " />
<glyph glyph-name="Gbreve" unicode="&#x11e;" horiz-adv-x="688" d="M564 511 Q558 532 546.5 559.5 Q535 587 513 611 Q491 635 457 651.5 Q423 668 371 668 Q342 668 313.5 661.5 Q285 655 257 639 Q193 602 157 529.5 Q121 457 121 349 Q121 253 147.5 189 Q174 125 218 88 Q240 70 272.5 56 Q305 42 355 42 Q414 42 454 66 Q494 90 518.5 127.5 Q543 165 553.5 211 Q564 257 564 301 L564 308 L304 308 L304 369 L622 369 L622 0 L564 0 L564 118 Q544 67 512.5 39.5 Q481 12 449.5 -0.5 Q418 -13 391 -15.5 Q364 -18 352 -18 Q286 -18 242.5 1.5 Q199 21 170 44 Q136 72 113 107.5 Q90 143 76 183 Q62 223 56 266 Q50 309 50 352 Q50 422 68 489 Q86 556 124.5 608 Q163 660 222.5 692 Q282 724 366 724 Q429 724 473 707 Q517 690 547 664 Q577 638 596 606.5 Q615 575 627 545 L564 511 Z M507 892 Q503 868 493 849.5 Q483 831 470 817.5 Q457 804 443 795 Q429 786 419 782 Q411 779 395.5 775.5 Q380 772 360 772 Q335 772 312 780 Q289 788 270.5 803.5 Q252 819 240 841.5 Q228 864 226 892 L270 892 Q276 869 289 856 Q302 843 316.5 837 Q331 831 343.5 829.5 Q356 828 361 828 L363 828 Q375 828 390.5 831 Q406 834 421 841.5 Q436 849 448 861 Q460 873 463 892 L507 892 L507 892 Z " />
<glyph glyph-name="Gcommaaccent" unicode="&#x122;" horiz-adv-x="688" d="M564 511 Q558 532 546.5 559.5 Q535 587 513 611 Q491 635 457 651.5 Q423 668 371 668 Q342 668 313.5 661.5 Q285 655 257 639 Q193 602 157 529.5 Q121 457 121 349 Q121 253 147.5 189 Q174 125 218 88 Q240 70 272.5 56 Q305 42 355 42 Q414 42 454 66 Q494 90 518.5 127.5 Q543 165 553.5 211 Q564 257 564 301 L564 308 L304 308 L304 369 L622 369 L622 0 L564 0 L564 118 Q544 67 512.5 39.5 Q481 12 449.5 -0.5 Q418 -13 391 -15.5 Q364 -18 352 -18 Q286 -18 242.5 1.5 Q199 21 170 44 Q136 72 113 107.5 Q90 143 76 183 Q62 223 56 266 Q50 309 50 352 Q50 422 68 489 Q86 556 124.5 608 Q163 660 222.5 692 Q282 724 366 724 Q429 724 473 707 Q517 690 547 664 Q577 638 596 606.5 Q615 575 627 545 L564 511 Z M308 -189 Q328 -178 334 -163.5 Q340 -149 344 -130 L313 -130 L313 -59 L380 -59 L380 -106 Q380 -143 370 -174.5 Q360 -206 326 -223 L308 -189 Z " />
<glyph glyph-name="Igrave" unicode="&#xcc;" horiz-adv-x="223" d="M78 0 L78 706 L145 706 L145 0 L78 0 Z M122 770 L-25 895 L81 895 L180 770 L122 770 Z " />
<glyph glyph-name="Iacute" unicode="&#xcd;" horiz-adv-x="223" d="M78 0 L78 706 L145 706 L145 0 L78 0 Z M90 770 L33 770 L132 895 L237 895 L90 770 Z " />
<glyph glyph-name="Icircumflex" unicode="&#xce;" horiz-adv-x="223" d="M78 0 L78 706 L145 706 L145 0 L78 0 Z M189 772 L111 828 L34 772 L-13 772 L92 895 L134 895 L238 772 L189 772 Z " />
<glyph glyph-name="Idieresis" unicode="&#xcf;" horiz-adv-x="223" d="M78 0 L78 706 L145 706 L145 0 L78 0 Z M189 784 L189 881 L256 881 L256 784 L189 784 Z M-30 784 L-30 881 L37 881 L37 784 L-30 784 Z " />
<glyph glyph-name="Imacron" unicode="&#x12a;" horiz-adv-x="223" d="M78 0 L78 706 L145 706 L145 0 L78 0 Z M-4 789 L-4 851 L229 851 L229 789 L-4 789 Z " />
<glyph glyph-name="Idotaccent" unicode="&#x130;" horiz-adv-x="223" d="M78 0 L78 706 L145 706 L145 0 L78 0 Z M82 784 L82 876 L143 876 L143 784 L82 784 Z " />
<glyph glyph-name="Iogonek" unicode="&#x12e;" horiz-adv-x="223" d="M151 -163 Q144 -164 138.5 -164 Q133 -164 126 -164 Q77 -164 49 -146.5 Q21 -129 21 -97 Q21 -69 42.5 -44.5 Q64 -20 88 0 L78 0 L78 706 L145 706 L145 0 L134 0 Q128 -5 118.5 -12.5 Q109 -20 100 -30.5 Q91 -41 84.5 -52.5 Q78 -64 78 -76 Q78 -91 85 -99 Q92 -107 101.5 -111 Q111 -115 121.5 -116 Q132 -117 140 -117 L151 -117 L151 -163 L151 -163 Z " />
<glyph glyph-name="Kcommaaccent" unicode="&#x136;" horiz-adv-x="634" d="M564 0 L300 382 L146 227 L146 0 L78 0 L78 706 L146 706 L146 312 L530 706 L622 706 L346 426 L646 0 L564 0 Z M281 -189 Q301 -178 307 -163.5 Q313 -149 317 -130 L286 -130 L286 -59 L353 -59 L353 -106 Q353 -143 343 -174.5 Q333 -206 299 -223 L281 -189 Z " />
<glyph glyph-name="Lacute" unicode="&#x139;" horiz-adv-x="536" d="M78 0 L78 706 L146 706 L146 62 L536 62 L536 0 L78 0 Z M234 770 L177 770 L276 895 L381 895 L234 770 Z " />
<glyph glyph-name="Lcaron" unicode="&#x13d;" horiz-adv-x="536" d="M78 0 L78 706 L146 706 L146 62 L536 62 L536 0 L78 0 Z M270 616 L270 706 L337 706 L337 616 Q337 570 325 540.5 Q313 511 281 493 L264 527 Q286 540 294 560.5 Q302 581 303 616 L270 616 Z " />
<glyph glyph-name="Lcommaaccent" unicode="&#x13b;" horiz-adv-x="536" d="M78 0 L78 706 L146 706 L146 62 L536 62 L536 0 L78 0 Z M232 -189 Q252 -178 258 -163.5 Q264 -149 268 -130 L237 -130 L237 -59 L304 -59 L304 -106 Q304 -143 294 -174.5 Q284 -206 250 -223 L232 -189 Z " />
<glyph glyph-name="Lslash" unicode="&#x141;" horiz-adv-x="536" d="M78 0 L78 254 L-3 202 L-3 262 L78 314 L78 706 L146 706 L146 358 L362 498 L362 437 L146 298 L146 62 L536 62 L536 0 L78 0 Z " />
<glyph glyph-name="Nacute" unicode="&#x143;" horiz-adv-x="702" d="M558 0 L144 610 L144 0 L78 0 L78 706 L144 706 L563 102 L558 706 L624 706 L624 0 L558 0 Z M346 770 L289 770 L388 895 L493 895 L346 770 Z " />
<glyph glyph-name="Ncaron" unicode="&#x147;" horiz-adv-x="702" d="M558 0 L144 610 L144 0 L78 0 L78 706 L144 706 L563 102 L558 706 L624 706 L624 0 L558 0 Z M376 772 L334 772 L230 895 L279 895 L357 839 L434 895 L481 895 L376 772 Z " />
<glyph glyph-name="Ntilde" unicode="&#xd1;" horiz-adv-x="702" d="M558 0 L144 610 L144 0 L78 0 L78 706 L144 706 L563 102 L558 706 L624 706 L624 0 L558 0 Z M529 867 Q529 866 523 851.5 Q517 837 505.5 819.5 Q494 802 476 788 Q458 774 433 774 Q406 774 380.5 787 Q355 800 335 811 Q324 817 310.5 823 Q297 829 286 829 Q274 829 265.5 823.5 Q257 818 251 809.5 Q245 801 240.5 791.5 Q236 782 233 774 L193 787 Q193 788 199 804.5 Q205 821 217 840 Q229 859 247.5 874.5 Q266 890 293 890 Q316 890 339 878.5 Q362 867 385 853 Q389 851 403 842.5 Q417 834 431 834 Q448 834 461.5 846 Q475 858 486 886 L529 867 L529 867 Z " />
<glyph glyph-name="Ncommaaccent" unicode="&#x145;" horiz-adv-x="702" d="M558 0 L144 610 L144 0 L78 0 L78 706 L144 706 L563 102 L558 706 L624 706 L624 0 L558 0 Z M315 -189 Q335 -178 341 -163.5 Q347 -149 351 -130 L320 -130 L320 -59 L387 -59 L387 -106 Q387 -143 377 -174.5 Q367 -206 333 -223 L315 -189 Z " />
<glyph glyph-name="Ograve" unicode="&#xd2;" horiz-adv-x="708" d="M658 365 Q658 272 632 192 Q607 117 569.5 75 Q532 33 492 12.5 Q452 -8 415 -13 Q378 -18 354 -18 Q267 -18 209 17.5 Q151 53 115.5 108 Q80 163 65 228.5 Q50 294 50 353 Q50 421 67 487.5 Q84 554 120.5 606.5 Q157 659 215.5 691.5 Q274 724 357 724 Q442 724 500 690.5 Q558 657 593 605 Q628 553 643 489 Q658 425 658 365 Z M587 357 Q587 388 583.5 418.5 Q580 449 572 479 Q567 498 554.5 529.5 Q542 561 517.5 591.5 Q493 622 454 644 Q415 666 357 666 Q287 666 241.5 635 Q196 604 169 557 Q142 510 131.5 455.5 Q121 401 121 354 Q121 311 130.5 257 Q140 203 165.5 155 Q191 107 236.5 74.5 Q282 42 354 42 Q400 42 435.5 57 Q471 72 497 97 Q523 122 540 154.5 Q557 187 567.5 222 Q578 257 582.5 292 Q587 327 587 357 Z M381 770 L234 895 L340 895 L439 770 L381 770 Z " />
<glyph glyph-name="Oacute" unicode="&#xd3;" horiz-adv-x="708" d="M658 365 Q658 272 632 192 Q607 117 569.5 75 Q532 33 492 12.5 Q452 -8 415 -13 Q378 -18 354 -18 Q267 -18 209 17.5 Q151 53 115.5 108 Q80 163 65 228.5 Q50 294 50 353 Q50 421 67 487.5 Q84 554 120.5 606.5 Q157 659 215.5 691.5 Q274 724 357 724 Q442 724 500 690.5 Q558 657 593 605 Q628 553 643 489 Q658 425 658 365 Z M587 357 Q587 388 583.5 418.5 Q580 449 572 479 Q567 498 554.5 529.5 Q542 561 517.5 591.5 Q493 622 454 644 Q415 666 357 666 Q287 666 241.5 635 Q196 604 169 557 Q142 510 131.5 455.5 Q121 401 121 354 Q121 311 130.5 257 Q140 203 165.5 155 Q191 107 236.5 74.5 Q282 42 354 42 Q400 42 435.5 57 Q471 72 497 97 Q523 122 540 154.5 Q557 187 567.5 222 Q578 257 582.5 292 Q587 327 587 357 Z M339 770 L282 770 L381 895 L486 895 L339 770 Z " />
<glyph glyph-name="Ocircumflex" unicode="&#xd4;" horiz-adv-x="708" d="M658 365 Q658 272 632 192 Q607 117 569.5 75 Q532 33 492 12.5 Q452 -8 415 -13 Q378 -18 354 -18 Q267 -18 209 17.5 Q151 53 115.5 108 Q80 163 65 228.5 Q50 294 50 353 Q50 421 67 487.5 Q84 554 120.5 606.5 Q157 659 215.5 691.5 Q274 724 357 724 Q442 724 500 690.5 Q558 657 593 605 Q628 553 643 489 Q658 425 658 365 Z M587 357 Q587 388 583.5 418.5 Q580 449 572 479 Q567 498 554.5 529.5 Q542 561 517.5 591.5 Q493 622 454 644 Q415 666 357 666 Q287 666 241.5 635 Q196 604 169 557 Q142 510 131.5 455.5 Q121 401 121 354 Q121 311 130.5 257 Q140 203 165.5 155 Q191 107 236.5 74.5 Q282 42 354 42 Q400 42 435.5 57 Q471 72 497 97 Q523 122 540 154.5 Q557 187 567.5 222 Q578 257 582.5 292 Q587 327 587 357 Z M435 772 L357 828 L280 772 L233 772 L338 895 L380 895 L484 772 L435 772 Z " />
<glyph glyph-name="Otilde" unicode="&#xd5;" horiz-adv-x="708" d="M658 365 Q658 272 632 192 Q607 117 569.5 75 Q532 33 492 12.5 Q452 -8 415 -13 Q378 -18 354 -18 Q267 -18 209 17.5 Q151 53 115.5 108 Q80 163 65 228.5 Q50 294 50 353 Q50 421 67 487.5 Q84 554 120.5 606.5 Q157 659 215.5 691.5 Q274 724 357 724 Q442 724 500 690.5 Q558 657 593 605 Q628 553 643 489 Q658 425 658 365 Z M587 357 Q587 388 583.5 418.5 Q580 449 572 479 Q567 498 554.5 529.5 Q542 561 517.5 591.5 Q493 622 454 644 Q415 666 357 666 Q287 666 241.5 635 Q196 604 169 557 Q142 510 131.5 455.5 Q121 401 121 354 Q121 311 130.5 257 Q140 203 165.5 155 Q191 107 236.5 74.5 Q282 42 354 42 Q400 42 435.5 57 Q471 72 497 97 Q523 122 540 154.5 Q557 187 567.5 222 Q578 257 582.5 292 Q587 327 587 357 Z M532 867 Q532 866 526 851.5 Q520 837 508.5 819.5 Q497 802 479 788 Q461 774 436 774 Q409 774 383.5 787 Q358 800 338 811 Q327 817 313.5 823 Q300 829 289 829 Q277 829 268.5 823.5 Q260 818 254 809.5 Q248 801 243.5 791.5 Q239 782 236 774 L196 787 Q196 788 202 804.5 Q208 821 220 840 Q232 859 250.5 874.5 Q269 890 296 890 Q319 890 342 878.5 Q365 867 388 853 Q392 851 406 842.5 Q420 834 434 834 Q451 834 464.5 846 Q478 858 489 886 L532 867 L532 867 Z " />
<glyph glyph-name="Odieresis" unicode="&#xd6;" horiz-adv-x="708" d="M658 365 Q658 272 632 192 Q607 117 569.5 75 Q532 33 492 12.5 Q452 -8 415 -13 Q378 -18 354 -18 Q267 -18 209 17.5 Q151 53 115.5 108 Q80 163 65 228.5 Q50 294 50 353 Q50 421 67 487.5 Q84 554 120.5 606.5 Q157 659 215.5 691.5 Q274 724 357 724 Q442 724 500 690.5 Q558 657 593 605 Q628 553 643 489 Q658 425 658 365 Z M587 357 Q587 388 583.5 418.5 Q580 449 572 479 Q567 498 554.5 529.5 Q542 561 517.5 591.5 Q493 622 454 644 Q415 666 357 666 Q287 666 241.5 635 Q196 604 169 557 Q142 510 131.5 455.5 Q121 401 121 354 Q121 311 130.5 257 Q140 203 165.5 155 Q191 107 236.5 74.5 Q282 42 354 42 Q400 42 435.5 57 Q471 72 497 97 Q523 122 540 154.5 Q557 187 567.5 222 Q578 257 582.5 292 Q587 327 587 357 Z M429 784 L429 881 L496 881 L496 784 L429 784 Z M210 784 L210 881 L277 881 L277 784 L210 784 Z " />
<glyph glyph-name="Omacron" unicode="&#x14c;" horiz-adv-x="708" d="M658 365 Q658 272 632 192 Q607 117 569.5 75 Q532 33 492 12.5 Q452 -8 415 -13 Q378 -18 354 -18 Q267 -18 209 17.5 Q151 53 115.5 108 Q80 163 65 228.5 Q50 294 50 353 Q50 421 67 487.5 Q84 554 120.5 606.5 Q157 659 215.5 691.5 Q274 724 357 724 Q442 724 500 690.5 Q558 657 593 605 Q628 553 643 489 Q658 425 658 365 Z M587 357 Q587 388 583.5 418.5 Q580 449 572 479 Q567 498 554.5 529.5 Q542 561 517.5 591.5 Q493 622 454 644 Q415 666 357 666 Q287 666 241.5 635 Q196 604 169 557 Q142 510 131.5 455.5 Q121 401 121 354 Q121 311 130.5 257 Q140 203 165.5 155 Q191 107 236.5 74.5 Q282 42 354 42 Q400 42 435.5 57 Q471 72 497 97 Q523 122 540 154.5 Q557 187 567.5 222 Q578 257 582.5 292 Q587 327 587 357 Z M237 789 L237 851 L470 851 L470 789 L237 789 Z " />
<glyph glyph-name="Ohungarumlaut" unicode="&#x150;" horiz-adv-x="708" d="M658 365 Q658 272 632 192 Q607 117 569.5 75 Q532 33 492 12.5 Q452 -8 415 -13 Q378 -18 354 -18 Q267 -18 209 17.5 Q151 53 115.5 108 Q80 163 65 228.5 Q50 294 50 353 Q50 421 67 487.5 Q84 554 120.5 606.5 Q157 659 215.5 691.5 Q274 724 357 724 Q442 724 500 690.5 Q558 657 593 605 Q628 553 643 489 Q658 425 658 365 Z M587 357 Q587 388 583.5 418.5 Q580 449 572 479 Q567 498 554.5 529.5 Q542 561 517.5 591.5 Q493 622 454 644 Q415 666 357 666 Q287 666 241.5 635 Q196 604 169 557 Q142 510 131.5 455.5 Q121 401 121 354 Q121 311 130.5 257 Q140 203 165.5 155 Q191 107 236.5 74.5 Q282 42 354 42 Q400 42 435.5 57 Q471 72 497 97 Q523 122 540 154.5 Q557 187 567.5 222 Q578 257 582.5 292 Q587 327 587 357 Z M435 771 L378 771 L477 896 L582 896 L435 771 Z M277 770 L220 770 L319 895 L424 895 L277 770 Z " />
<glyph glyph-name="Oslash" unicode="&#xd8;" horiz-adv-x="708" d="M597 599 Q630 547 644 486 Q658 425 658 365 Q658 272 632 192 Q607 117 569.5 75 Q532 33 492 12.5 Q452 -8 415 -13 Q378 -18 354 -18 Q288 -18 238.5 3.5 Q189 25 153 61 L95 -10 L57 22 L121 99 Q83 154 66.5 222 Q50 290 50 353 Q50 421 67 487.5 Q84 554 120.5 606.5 Q157 659 215.5 691.5 Q274 724 357 724 Q428 724 479 700.5 Q530 677 566 639 L627 714 L666 683 L597 599 Z M522 586 Q497 618 457.5 642 Q418 666 357 666 Q287 666 241.5 635 Q196 604 169 557 Q142 510 131.5 455.5 Q121 401 121 354 Q121 311 130.5 257 Q140 203 166 154 L522 586 Z M587 357 Q587 388 583.5 418.5 Q580 449 572 479 Q569 490 563.5 506 Q558 522 549 541 L195 111 Q221 81 260 61.5 Q299 42 354 42 Q400 42 435.5 57 Q471 72 497 97 Q523 122 540 154.5 Q557 187 567.5 222 Q578 257 582.5 292 Q587 327 587 357 Z " />
<glyph glyph-name="OE" unicode="&#x152;" horiz-adv-x="1043" d="M535 0 Q515 -5 481 -11.5 Q447 -18 397 -18 Q313 -18 248.5 10 Q184 38 140 87.5 Q96 137 73 204 Q50 271 50 349 Q50 427 71.5 494.5 Q93 562 136.5 612.5 Q180 663 246 692 Q312 721 400 721 Q445 721 476 715.5 Q507 710 525 706 L1001 706 L1001 648 L593 648 L593 392 L963 392 L963 330 L593 330 L593 60 L1026 60 L1026 0 L535 0 Z M525 648 Q512 650 481 654.5 Q450 659 412 659 Q327 659 271 632 Q215 605 182 562 Q172 550 165 536.5 Q158 523 152.5 511.5 Q147 500 144 491.5 Q141 483 140 480 Q134 462 127 428 Q120 394 120 345 Q120 277 139 221 Q158 165 195.5 125.5 Q233 86 288 64 Q343 42 414 42 Q456 42 482 48.5 Q508 55 525 60 L525 648 Z " />
<glyph glyph-name="Racute" unicode="&#x154;" horiz-adv-x="643" d="M534 0 L311 313 L146 313 L146 0 L78 0 L78 706 L349 706 Q373 706 400 704.5 Q427 703 454 696.5 Q481 690 506.5 676 Q532 662 553 638 Q569 618 578.5 596.5 Q588 575 592 556 Q596 537 597 523 Q598 509 598 505 Q598 496 596 473.5 Q594 451 583 425 Q572 399 548.5 372.5 Q525 346 482 330 Q468 325 453 321.5 Q438 318 424.5 316 Q411 314 401.5 313.5 Q392 313 389 313 L618 0 L534 0 Z M532 507 Q532 537 524 558 Q516 579 508 591 Q486 623 453.5 634.5 Q421 646 366 646 L146 646 L146 371 L311 371 Q347 371 376.5 372 Q406 373 429.5 377.5 Q453 382 471 392.5 Q489 403 504 421 Q521 442 526.5 464 Q532 486 532 507 Z M300 770 L243 770 L342 895 L447 895 L300 770 Z " />
<glyph glyph-name="Rcaron" unicode="&#x158;" horiz-adv-x="643" d="M534 0 L311 313 L146 313 L146 0 L78 0 L78 706 L349 706 Q373 706 400 704.5 Q427 703 454 696.5 Q481 690 506.5 676 Q532 662 553 638 Q569 618 578.5 596.5 Q588 575 592 556 Q596 537 597 523 Q598 509 598 505 Q598 496 596 473.5 Q594 451 583 425 Q572 399 548.5 372.5 Q525 346 482 330 Q468 325 453 321.5 Q438 318 424.5 316 Q411 314 401.5 313.5 Q392 313 389 313 L618 0 L534 0 Z M532 507 Q532 537 524 558 Q516 579 508 591 Q486 623 453.5 634.5 Q421 646 366 646 L146 646 L146 371 L311 371 Q347 371 376.5 372 Q406 373 429.5 377.5 Q453 382 471 392.5 Q489 403 504 421 Q521 442 526.5 464 Q532 486 532 507 Z M309 772 L267 772 L163 895 L212 895 L290 839 L367 895 L414 895 L309 772 Z " />
<glyph glyph-name="Rcommaaccent" unicode="&#x156;" horiz-adv-x="643" d="M534 0 L311 313 L146 313 L146 0 L78 0 L78 706 L349 706 Q373 706 400 704.5 Q427 703 454 696.5 Q481 690 506.5 676 Q532 662 553 638 Q569 618 578.5 596.5 Q588 575 592 556 Q596 537 597 523 Q598 509 598 505 Q598 496 596 473.5 Q594 451 583 425 Q572 399 548.5 372.5 Q525 346 482 330 Q468 325 453 321.5 Q438 318 424.5 316 Q411 314 401.5 313.5 Q392 313 389 313 L618 0 L534 0 Z M532 507 Q532 537 524 558 Q516 579 508 591 Q486 623 453.5 634.5 Q421 646 366 646 L146 646 L146 371 L311 371 Q347 371 376.5 372 Q406 373 429.5 377.5 Q453 382 471 392.5 Q489 403 504 421 Q521 442 526.5 464 Q532 486 532 507 Z M285 -189 Q305 -178 311 -163.5 Q317 -149 321 -130 L290 -130 L290 -59 L357 -59 L357 -106 Q357 -143 347 -174.5 Q337 -206 303 -223 L285 -189 Z " />
<glyph glyph-name="Sacute" unicode="&#x15a;" horiz-adv-x="604" d="M560 195 Q560 159 549.5 132.5 Q539 106 531 93 Q502 46 444.5 14 Q387 -18 298 -18 Q245 -18 204 -7 Q163 4 133 23.5 Q103 43 83 69 Q63 95 50 125 Q42 144 39 157 Q36 170 34 178 L101 213 Q101 166 117.5 133.5 Q134 101 161 80.5 Q188 60 223 50.5 Q258 41 295 41 Q346 41 383.5 54 Q421 67 445 88.5 Q469 110 480.5 137 Q492 164 492 192 Q492 223 481 245 Q470 267 454 281.5 Q438 296 420 304.5 Q402 313 388 318 Q362 327 335 334 Q308 341 280.5 347.5 Q253 354 226 362.5 Q199 371 173 384 Q156 393 137.5 405.5 Q119 418 104 437 Q89 456 79.5 481 Q70 506 70 540 Q70 593 91.5 628.5 Q113 664 147 685 Q181 706 223 715 Q265 724 306 724 Q357 724 397.5 711.5 Q438 699 467.5 677.5 Q497 656 516.5 628 Q536 600 546 569 L484 535 Q476 558 468.5 574 Q461 590 453 600 Q438 620 419 633.5 Q400 647 380 655 Q360 663 340.5 666 Q321 669 305 669 Q270 669 239 661.5 Q208 654 185 638.5 Q162 623 148.5 599 Q135 575 135 543 Q135 499 160 471.5 Q185 444 232 427 Q260 417 286 410.5 Q312 404 337.5 398 Q363 392 388.5 384.5 Q414 377 442 364 Q484 344 508 319 Q532 294 543.5 269.5 Q555 245 557.5 225 Q560 205 560 195 Z M299 770 L242 770 L341 895 L446 895 L299 770 Z " />
<glyph glyph-name="Scaron" unicode="&#x160;" horiz-adv-x="604" d="M560 195 Q560 159 549.5 132.5 Q539 106 531 93 Q502 46 444.5 14 Q387 -18 298 -18 Q245 -18 204 -7 Q163 4 133 23.5 Q103 43 83 69 Q63 95 50 125 Q42 144 39 157 Q36 170 34 178 L101 213 Q101 166 117.5 133.5 Q134 101 161 80.5 Q188 60 223 50.5 Q258 41 295 41 Q346 41 383.5 54 Q421 67 445 88.5 Q469 110 480.5 137 Q492 164 492 192 Q492 223 481 245 Q470 267 454 281.5 Q438 296 420 304.5 Q402 313 388 318 Q362 327 335 334 Q308 341 280.5 347.5 Q253 354 226 362.5 Q199 371 173 384 Q156 393 137.5 405.5 Q119 418 104 437 Q89 456 79.5 481 Q70 506 70 540 Q70 593 91.5 628.5 Q113 664 147 685 Q181 706 223 715 Q265 724 306 724 Q357 724 397.5 711.5 Q438 699 467.5 677.5 Q497 656 516.5 628 Q536 600 546 569 L484 535 Q476 558 468.5 574 Q461 590 453 600 Q438 620 419 633.5 Q400 647 380 655 Q360 663 340.5 666 Q321 669 305 669 Q270 669 239 661.5 Q208 654 185 638.5 Q162 623 148.5 599 Q135 575 135 543 Q135 499 160 471.5 Q185 444 232 427 Q260 417 286 410.5 Q312 404 337.5 398 Q363 392 388.5 384.5 Q414 377 442 364 Q484 344 508 319 Q532 294 543.5 269.5 Q555 245 557.5 225 Q560 205 560 195 Z M334 772 L292 772 L188 895 L237 895 L315 839 L392 895 L439 895 L334 772 Z " />
<glyph glyph-name="Scedilla" unicode="&#x15e;" horiz-adv-x="604" d="M392 -109 Q392 -131 382 -146.5 Q372 -162 357 -171.5 Q342 -181 324 -185.5 Q306 -190 290 -190 Q280 -190 269 -189 Q258 -188 253 -187 L253 -160 Q260 -161 268.5 -161.5 Q277 -162 285 -162 Q312 -162 326.5 -150.5 Q341 -139 341 -122 Q341 -108 328.5 -96.5 Q316 -85 292 -85 Q278 -85 268 -89 Q258 -93 253 -95 L253 -70 L283 -18 Q233 -17 195.5 -5 Q158 7 129.5 26 Q101 45 81.5 70.5 Q62 96 50 125 Q42 144 39 157 Q36 170 34 178 L101 213 Q101 166 117.5 133.5 Q134 101 161 80.5 Q188 60 223 50.5 Q258 41 295 41 Q346 41 383.5 54 Q421 67 445 88.5 Q469 110 480.5 137 Q492 164 492 192 Q492 223 481 245 Q470 267 454 281.5 Q438 296 420 304.5 Q402 313 388 318 Q362 327 335 334 Q308 341 280.5 347.5 Q253 354 226 362.5 Q199 371 173 384 Q156 393 137.5 405.5 Q119 418 104 437 Q89 456 79.5 481 Q70 506 70 540 Q70 593 91.5 628.5 Q113 664 147 685 Q181 706 223 715 Q265 724 306 724 Q357 724 397.5 711.5 Q438 699 467.5 677.5 Q497 656 516.5 628 Q536 600 546 569 L484 535 Q476 558 468.5 574 Q461 590 453 600 Q438 620 419 633.5 Q400 647 380 655 Q360 663 340.5 666 Q321 669 305 669 Q270 669 239 661.5 Q208 654 185 638.5 Q162 623 148.5 599 Q135 575 135 543 Q135 499 160 471.5 Q185 444 232 427 Q260 417 286 410.5 Q312 404 337.5 398 Q363 392 388.5 384.5 Q414 377 442 364 Q484 344 508 319 Q532 294 543.5 269.5 Q555 245 557.5 225 Q560 205 560 195 Q560 159 549.5 132.5 Q539 106 531 93 Q502 48 447.5 16 Q393 -16 309 -18 L294 -47 Q302 -45 307 -44.5 Q312 -44 324 -44 Q351 -44 371.5 -60.5 Q392 -77 392 -109 Z " />
<glyph glyph-name="Scommaaccent" unicode="&#x218;" horiz-adv-x="604" d="M560 195 Q560 159 549.5 132.5 Q539 106 531 93 Q502 46 444.5 14 Q387 -18 298 -18 Q245 -18 204 -7 Q163 4 133 23.5 Q103 43 83 69 Q63 95 50 125 Q42 144 39 157 Q36 170 34 178 L101 213 Q101 166 117.5 133.5 Q134 101 161 80.5 Q188 60 223 50.5 Q258 41 295 41 Q346 41 383.5 54 Q421 67 445 88.5 Q469 110 480.5 137 Q492 164 492 192 Q492 223 481 245 Q470 267 454 281.5 Q438 296 420 304.5 Q402 313 388 318 Q362 327 335 334 Q308 341 280.5 347.5 Q253 354 226 362.5 Q199 371 173 384 Q156 393 137.5 405.5 Q119 418 104 437 Q89 456 79.5 481 Q70 506 70 540 Q70 593 91.5 628.5 Q113 664 147 685 Q181 706 223 715 Q265 724 306 724 Q357 724 397.5 711.5 Q438 699 467.5 677.5 Q497 656 516.5 628 Q536 600 546 569 L484 535 Q476 558 468.5 574 Q461 590 453 600 Q438 620 419 633.5 Q400 647 380 655 Q360 663 340.5 666 Q321 669 305 669 Q270 669 239 661.5 Q208 654 185 638.5 Q162 623 148.5 599 Q135 575 135 543 Q135 499 160 471.5 Q185 444 232 427 Q260 417 286 410.5 Q312 404 337.5 398 Q363 392 388.5 384.5 Q414 377 442 364 Q484 344 508 319 Q532 294 543.5 269.5 Q555 245 557.5 225 Q560 205 560 195 Z M261 -189 Q281 -178 287 -163.5 Q293 -149 297 -130 L266 -130 L266 -59 L333 -59 L333 -106 Q333 -143 323 -174.5 Q313 -206 279 -223 L261 -189 Z " />
<glyph glyph-name="Tcaron" unicode="&#x164;" horiz-adv-x="522" d="M294 647 L294 0 L227 0 L227 647 L5 647 L5 706 L517 706 L517 647 L294 647 Z M281 772 L239 772 L135 895 L184 895 L262 839 L339 895 L386 895 L281 772 Z " />
<glyph glyph-name="Tcommaaccent" unicode="&#x162;" horiz-adv-x="522" d="M346 -109 Q346 -131 336 -146.5 Q326 -162 311 -171.5 Q296 -181 278 -185.5 Q260 -190 244 -190 Q234 -190 223 -189 Q212 -188 207 -187 L207 -160 Q214 -161 222.5 -161.5 Q231 -162 239 -162 Q266 -162 280.5 -150.5 Q295 -139 295 -122 Q295 -108 282.5 -96.5 Q270 -85 246 -85 Q232 -85 222 -89 Q212 -93 207 -95 L207 -70 L248 0 L227 0 L227 647 L5 647 L5 706 L517 706 L517 647 L294 647 L294 0 L272 0 L248 -47 Q256 -45 261 -44.5 Q266 -44 278 -44 Q305 -44 325.5 -60.5 Q346 -77 346 -109 Z " />
<glyph glyph-name="uni021A" unicode="&#x21a;" horiz-adv-x="522" d="M294 647 L294 0 L227 0 L227 647 L5 647 L5 706 L517 706 L517 647 L294 647 Z M222 -189 Q242 -178 248 -163.5 Q254 -149 258 -130 L227 -130 L227 -59 L294 -59 L294 -106 Q294 -143 284 -174.5 Q274 -206 240 -223 L222 -189 Z " />
<glyph glyph-name="Ugrave" unicode="&#xd9;" horiz-adv-x="668" d="M598 308 Q598 258 595.5 216.5 Q593 175 583.5 140.5 Q574 106 555 78 Q536 50 503 27 Q477 10 436.5 -4 Q396 -18 336 -18 Q321 -18 299 -16.5 Q277 -15 252 -9 Q227 -3 201.5 8 Q176 19 152 39 Q123 63 107 90 Q91 117 82.5 149.5 Q74 182 72 221 Q70 260 70 308 L70 706 L136 706 L136 295 Q136 234 141 190 Q146 146 167 116 Q177 102 187.5 92.5 Q198 83 213 74 Q232 63 261 53.5 Q290 44 335 44 Q401 44 439.5 63.5 Q478 83 498.5 113.5 Q519 144 525 182 Q531 220 531 257 L531 706 L598 706 L598 308 Z M338 770 L191 895 L297 895 L396 770 L338 770 Z " />
<glyph glyph-name="Uacute" unicode="&#xda;" horiz-adv-x="668" d="M598 308 Q598 258 595.5 216.5 Q593 175 583.5 140.5 Q574 106 555 78 Q536 50 503 27 Q477 10 436.5 -4 Q396 -18 336 -18 Q321 -18 299 -16.5 Q277 -15 252 -9 Q227 -3 201.5 8 Q176 19 152 39 Q123 63 107 90 Q91 117 82.5 149.5 Q74 182 72 221 Q70 260 70 308 L70 706 L136 706 L136 295 Q136 234 141 190 Q146 146 167 116 Q177 102 187.5 92.5 Q198 83 213 74 Q232 63 261 53.5 Q290 44 335 44 Q401 44 439.5 63.5 Q478 83 498.5 113.5 Q519 144 525 182 Q531 220 531 257 L531 706 L598 706 L598 308 Z M319 770 L262 770 L361 895 L466 895 L319 770 Z " />
<glyph glyph-name="Ucircumflex" unicode="&#xdb;" horiz-adv-x="668" d="M598 308 Q598 258 595.5 216.5 Q593 175 583.5 140.5 Q574 106 555 78 Q536 50 503 27 Q477 10 436.5 -4 Q396 -18 336 -18 Q321 -18 299 -16.5 Q277 -15 252 -9 Q227 -3 201.5 8 Q176 19 152 39 Q123 63 107 90 Q91 117 82.5 149.5 Q74 182 72 221 Q70 260 70 308 L70 706 L136 706 L136 295 Q136 234 141 190 Q146 146 167 116 Q177 102 187.5 92.5 Q198 83 213 74 Q232 63 261 53.5 Q290 44 335 44 Q401 44 439.5 63.5 Q478 83 498.5 113.5 Q519 144 525 182 Q531 220 531 257 L531 706 L598 706 L598 308 Z M407 772 L329 828 L252 772 L205 772 L310 895 L352 895 L456 772 L407 772 Z " />
<glyph glyph-name="Udieresis" unicode="&#xdc;" horiz-adv-x="668" d="M598 308 Q598 258 595.5 216.5 Q593 175 583.5 140.5 Q574 106 555 78 Q536 50 503 27 Q477 10 436.5 -4 Q396 -18 336 -18 Q321 -18 299 -16.5 Q277 -15 252 -9 Q227 -3 201.5 8 Q176 19 152 39 Q123 63 107 90 Q91 117 82.5 149.5 Q74 182 72 221 Q70 260 70 308 L70 706 L136 706 L136 295 Q136 234 141 190 Q146 146 167 116 Q177 102 187.5 92.5 Q198 83 213 74 Q232 63 261 53.5 Q290 44 335 44 Q401 44 439.5 63.5 Q478 83 498.5 113.5 Q519 144 525 182 Q531 220 531 257 L531 706 L598 706 L598 308 Z M404 784 L404 881 L471 881 L471 784 L404 784 Z M185 784 L185 881 L252 881 L252 784 L185 784 Z " />
<glyph glyph-name="Umacron" unicode="&#x16a;" horiz-adv-x="668" d="M598 308 Q598 258 595.5 216.5 Q593 175 583.5 140.5 Q574 106 555 78 Q536 50 503 27 Q477 10 436.5 -4 Q396 -18 336 -18 Q321 -18 299 -16.5 Q277 -15 252 -9 Q227 -3 201.5 8 Q176 19 152 39 Q123 63 107 90 Q91 117 82.5 149.5 Q74 182 72 221 Q70 260 70 308 L70 706 L136 706 L136 295 Q136 234 141 190 Q146 146 167 116 Q177 102 187.5 92.5 Q198 83 213 74 Q232 63 261 53.5 Q290 44 335 44 Q401 44 439.5 63.5 Q478 83 498.5 113.5 Q519 144 525 182 Q531 220 531 257 L531 706 L598 706 L598 308 Z M217 789 L217 851 L450 851 L450 789 L217 789 Z " />
<glyph glyph-name="Uring" unicode="&#x16e;" horiz-adv-x="668" d="M598 308 Q598 258 595.5 216.5 Q593 175 583.5 140.5 Q574 106 555 78 Q536 50 503 27 Q477 10 436.5 -4 Q396 -18 336 -18 Q321 -18 299 -16.5 Q277 -15 252 -9 Q227 -3 201.5 8 Q176 19 152 39 Q123 63 107 90 Q91 117 82.5 149.5 Q74 182 72 221 Q70 260 70 308 L70 706 L136 706 L136 295 Q136 234 141 190 Q146 146 167 116 Q177 102 187.5 92.5 Q198 83 213 74 Q232 63 261 53.5 Q290 44 335 44 Q401 44 439.5 63.5 Q478 83 498.5 113.5 Q519 144 525 182 Q531 220 531 257 L531 706 L598 706 L598 308 Z M414 846 Q414 813 390.5 789.5 Q367 766 334 766 Q301 766 277.5 789.5 Q254 813 254 846 Q254 879 277.5 902.5 Q301 926 334 926 Q367 926 390.5 902.5 Q414 879 414 846 Z M376 846 Q376 864 363.5 876 Q351 888 334 888 Q317 888 304.5 875.5 Q292 863 292 846 Q292 829 304.5 816.5 Q317 804 334 804 Q351 804 363.5 816 Q376 828 376 846 Z " />
<glyph glyph-name="Uhungarumlaut" unicode="&#x170;" horiz-adv-x="668" d="M598 308 Q598 258 595.5 216.5 Q593 175 583.5 140.5 Q574 106 555 78 Q536 50 503 27 Q477 10 436.5 -4 Q396 -18 336 -18 Q321 -18 299 -16.5 Q277 -15 252 -9 Q227 -3 201.5 8 Q176 19 152 39 Q123 63 107 90 Q91 117 82.5 149.5 Q74 182 72 221 Q70 260 70 308 L70 706 L136 706 L136 295 Q136 234 141 190 Q146 146 167 116 Q177 102 187.5 92.5 Q198 83 213 74 Q232 63 261 53.5 Q290 44 335 44 Q401 44 439.5 63.5 Q478 83 498.5 113.5 Q519 144 525 182 Q531 220 531 257 L531 706 L598 706 L598 308 Z M408 771 L351 771 L450 896 L555 896 L408 771 Z M250 770 L193 770 L292 895 L397 895 L250 770 Z " />
<glyph glyph-name="Uogonek" unicode="&#x172;" horiz-adv-x="668" d="M405 -163 Q398 -164 392.5 -164 Q387 -164 380 -164 Q331 -164 303 -146.5 Q275 -129 275 -97 Q275 -75 288.5 -55 Q302 -35 321 -18 Q305 -17 284.5 -14.5 Q264 -12 241.5 -6 Q219 0 196 11 Q173 22 152 39 Q123 63 107 90 Q91 117 82.5 149.5 Q74 182 72 221 Q70 260 70 308 L70 706 L136 706 L136 295 Q136 234 141 190 Q146 146 167 116 Q177 102 187.5 92.5 Q198 83 213 74 Q232 63 261 53.5 Q290 44 335 44 Q401 44 439.5 63.5 Q478 83 498.5 113.5 Q519 144 525 182 Q531 220 531 257 L531 706 L598 706 L598 308 Q598 258 595.5 216.5 Q593 175 583.5 140.5 Q574 106 555 78 Q536 50 503 27 Q480 12 447.5 -0.5 Q415 -13 367 -17 Q354 -28 343 -43.5 Q332 -59 332 -76 Q332 -91 339 -99 Q346 -107 355.5 -111 Q365 -115 375.5 -116 Q386 -117 394 -117 L405 -117 L405 -163 L405 -163 Z " />
<glyph glyph-name="Yacute" unicode="&#xdd;" horiz-adv-x="605" d="M329 292 L329 0 L263 0 L263 292 L0 706 L79 706 L297 355 L524 706 L605 706 L329 292 Z M307 770 L250 770 L349 895 L454 895 L307 770 Z " />
<glyph glyph-name="Ydieresis" unicode="&#x178;" horiz-adv-x="605" d="M329 292 L329 0 L263 0 L263 292 L0 706 L79 706 L297 355 L524 706 L605 706 L329 292 Z M372 784 L372 881 L439 881 L439 784 L372 784 Z M153 784 L153 881 L220 881 L220 784 L153 784 Z " />
<glyph glyph-name="Zacute" unicode="&#x179;" horiz-adv-x="583" d="M124 60 L548 60 L548 0 L29 0 L29 44 L464 646 L55 646 L55 706 L554 706 L554 660 L124 60 Z M299 770 L242 770 L341 895 L446 895 L299 770 Z " />
<glyph glyph-name="Zcaron" unicode="&#x17d;" horiz-adv-x="583" d="M124 60 L548 60 L548 0 L29 0 L29 44 L464 646 L55 646 L55 706 L554 706 L554 660 L124 60 Z M336 772 L294 772 L190 895 L239 895 L317 839 L394 895 L441 895 L336 772 Z " />
<glyph glyph-name="Zdotaccent" unicode="&#x17b;" horiz-adv-x="583" d="M124 60 L548 60 L548 0 L29 0 L29 44 L464 646 L55 646 L55 706 L554 706 L554 660 L124 60 Z M261 784 L261 876 L322 876 L322 784 L261 784 Z " />
<glyph glyph-name="Eth" unicode="&#xd0;" horiz-adv-x="688" d="M638 356 Q638 290 623.5 234 Q609 178 583.5 135 Q558 92 524.5 62.5 Q491 33 453 19 Q434 12 411.5 8.5 Q389 5 365 3 Q341 1 318 0.5 Q295 0 275 0 L265 0 L81 0 L81 352 L0 352 L0 406 L81 406 L81 706 L270 706 Q341 706 386 702 Q431 698 463 685 Q499 670 531 640.5 Q563 611 586.5 569 Q610 527 624 473 Q638 419 638 356 Z M570 350 Q570 380 564.5 420.5 Q559 461 544 501.5 Q529 542 502.5 576.5 Q476 611 433 629 Q419 635 403.5 638 Q388 641 369 642.5 Q350 644 326.5 644.5 Q303 645 273 645 L149 645 L149 406 L370 406 L370 352 L149 352 L149 60 L284 60 Q341 60 381 65.5 Q421 71 444 82 Q469 95 492 119.5 Q515 144 532 178 Q549 212 559.5 254.5 Q570 297 570 346 L570 350 Z " />
<glyph glyph-name="Thorn" unicode="&#xde;" horiz-adv-x="630" d="M610 402 Q610 360 598 328.5 Q586 297 571 278 Q553 254 529.5 240 Q506 226 480.5 219.5 Q455 213 427.5 211 Q400 209 374 209 L142 209 L142 0 L78 0 L78 706 L142 706 L142 597 L352 597 Q392 597 424 595.5 Q456 594 482.5 588 Q509 582 530.5 569 Q552 556 570 534 Q585 515 593 494.5 Q601 474 605 456 Q609 438 609.5 423.5 Q610 409 610 402 Z M545 407 Q545 422 540.5 448.5 Q536 475 516 499 Q492 528 458 534.5 Q424 541 375 541 L142 541 L142 268 L360 268 Q385 268 408 269 Q431 270 451.5 274.5 Q472 279 489.5 289.5 Q507 300 521 319 Q532 333 538.5 353 Q545 373 545 400 L545 407 Z " />
<glyph glyph-name="a" unicode="a" horiz-adv-x="493" d="M477 0 Q455 0 433.5 2 Q412 4 395 12.5 Q378 21 367.5 38.5 Q357 56 357 87 Q354 81 347 66.5 Q340 52 321 35 Q302 18 268.5 4 Q235 -10 188 -10 Q145 -10 116 3 Q87 16 70 35.5 Q53 55 45.5 77.5 Q38 100 38 120 Q38 147 47 167 Q56 187 69.5 201 Q83 215 98 224.5 Q113 234 125 240 Q149 251 194 264 Q239 277 301 291 L357 303 L357 328 Q357 345 354 364.5 Q351 384 339 400 Q327 416 303.5 426.5 Q280 437 240 437 Q186 437 158 417.5 Q130 398 121 364 Q118 353 117.5 343 Q117 333 117 322 L52 333 Q57 362 64 381.5 Q71 401 79 414 Q95 438 115 452.5 Q135 467 157 475.5 Q179 484 200 486.5 Q221 489 239 489 Q290 489 327.5 475 Q365 461 384 440 Q395 428 400 414.5 Q405 401 406 399 Q411 385 412.5 369 Q414 353 414 325 L414 137 Q414 113 415 96 Q416 79 422 68 Q428 57 440 52 Q452 47 474 47 L485 47 L485 0 L477 0 Z M357 252 L250 225 Q204 213 174 202 Q144 191 126.5 178.5 Q109 166 102 152 Q95 138 95 121 Q95 109 100 95 Q105 81 116 69 Q127 57 145 49.5 Q163 42 189 42 Q208 42 231.5 47.5 Q255 53 277 65 Q299 77 317.5 94.5 Q336 112 346 136 Q354 155 355.5 176.5 Q357 198 357 216 L357 252 Z " />
<glyph glyph-name="b" unicode="b" horiz-adv-x="521" d="M477 230 Q477 189 467.5 146.5 Q458 104 435.5 69 Q413 34 375 11.5 Q337 -11 280 -11 Q274 -11 259.5 -10 Q245 -9 227.5 -3.5 Q210 2 190.5 14 Q171 26 154 48 Q144 60 139 70 Q134 80 132 85 L132 0 L75 0 L75 706 L132 706 L132 395 Q137 404 139.5 409 Q142 414 149 423 Q166 446 197 466.5 Q228 487 279 487 Q321 487 349 473.5 Q377 460 394 445 Q427 416 452 362.5 Q477 309 477 230 Z M414 234 Q414 254 411.5 275.5 Q409 297 403 319 Q393 357 375.5 380 Q358 403 339 415 Q320 427 301.5 430.5 Q283 434 270 434 Q228 434 201.5 417 Q175 400 159.5 372 Q144 344 138 308 Q132 272 132 235 Q132 137 171.5 89.5 Q211 42 273 42 Q339 42 376.5 89.5 Q414 137 414 234 Z " />
<glyph glyph-name="c" unicode="c" horiz-adv-x="474" d="M454 107 Q451 101 447 92 Q443 83 433 69 Q408 34 368 11 Q328 -12 264 -12 Q205 -12 163.5 9.5 Q122 31 95.5 66 Q69 101 56.5 145 Q44 189 44 235 Q44 261 48.5 290.5 Q53 320 64 349 Q75 378 95 405 Q115 432 146 453 Q166 466 197 477.5 Q228 489 275 489 Q338 489 377 463.5 Q416 438 438 403 Q447 389 449 383 Q451 377 454 369 L399 355 Q391 377 376 392.5 Q361 408 343.5 417.5 Q326 427 307 431.5 Q288 436 272 436 Q245 436 216 426.5 Q187 417 163 394 Q139 371 123.5 333 Q108 295 108 238 Q108 205 115.5 169.5 Q123 134 141 105.5 Q159 77 189 58.5 Q219 40 264 40 Q293 40 314.5 47.5 Q336 55 351 66.5 Q366 78 376 92 Q386 106 394 120 L454 107 L454 107 Z " />
<glyph glyph-name="d" unicode="d" horiz-adv-x="521" d="M388 0 L388 86 Q383 70 371.5 53 Q360 36 341.5 21.5 Q323 7 298.5 -2 Q274 -11 243 -11 Q208 -11 173 3 Q138 17 109 47.5 Q80 78 62 125.5 Q44 173 44 239 Q44 268 50 301.5 Q56 335 70.5 367 Q85 399 109.5 426.5 Q134 454 172 471 Q182 476 202 481.5 Q222 487 253 487 Q256 487 273.5 485.5 Q291 484 312.5 475.5 Q334 467 355.5 449.5 Q377 432 388 401 L388 706 L446 706 L446 0 L388 0 Z M389 243 Q389 307 376 347.5 Q363 388 328 411 Q310 424 289 428.5 Q268 433 253 433 Q224 433 197.5 421 Q171 409 151 385 Q131 361 119.5 324.5 Q108 288 108 239 Q108 209 114 175 Q120 141 135.5 112 Q151 83 178.5 64 Q206 45 250 45 Q296 45 324 64 Q352 83 366 111.5 Q380 140 384.5 173.5 Q389 207 389 235 L389 243 Z " />
<glyph glyph-name="e" unicode="e" horiz-adv-x="519" d="M479 126 Q468 101 451.5 76.5 Q435 52 410.5 32.5 Q386 13 351.5 0.5 Q317 -12 270 -12 Q211 -12 168.5 9 Q126 30 98 65.5 Q70 101 57 147 Q44 193 44 243 Q44 281 50 307 Q56 333 62 348 Q77 385 99 411.5 Q121 438 147.5 455.5 Q174 473 203.5 481 Q233 489 263 489 Q317 489 357.5 468 Q398 447 425 412.5 Q452 378 465.5 334 Q479 290 479 245 L479 239 L109 239 L109 229 Q109 193 117.5 159 Q126 125 145.5 99 Q165 73 196 57.5 Q227 42 273 42 Q320 42 357.5 63.5 Q395 85 424 142 L479 126 Z M411 287 Q405 333 389 362 Q373 391 352 407.5 Q331 424 307 430 Q283 436 261 436 Q244 436 220.5 430.5 Q197 425 175 408.5 Q153 392 135 363 Q117 334 110 287 L411 287 Z " />
<glyph glyph-name="f" unicode="f" horiz-adv-x="294" d="M174 427 L174 0 L115 0 L115 427 L10 427 L10 477 L115 477 L115 592 Q115 616 117.5 639 Q120 662 130.5 680 Q141 698 162 709 Q183 720 221 720 Q236 720 251.5 718 Q267 716 282 713 L282 655 Q263 665 247.5 666.5 Q232 668 226 668 Q208 668 198 661.5 Q188 655 182.5 645.5 Q177 636 175.5 624 Q174 612 174 600 L174 477 L282 477 L282 427 L174 427 Z " />
<glyph glyph-name="g" unicode="g" horiz-adv-x="541" d="M466 33 Q466 -16 464.5 -55.5 Q463 -95 454 -125.5 Q445 -156 426.5 -179 Q408 -202 375 -219 Q357 -228 328 -236 Q299 -244 255 -244 Q177 -244 131 -216 Q85 -188 64 -143 Q53 -120 51 -101 Q49 -82 48 -74 L110 -62 Q114 -111 133 -137.5 Q152 -164 175.5 -176.5 Q199 -189 222.5 -191 Q246 -193 260 -193 Q296 -193 321 -185.5 Q346 -178 362 -164.5 Q378 -151 386.5 -134 Q395 -117 400 -97 Q403 -86 404.5 -70.5 Q406 -55 407 -39 Q408 -23 408.5 -7.5 Q409 8 409 20 L409 92 Q406 81 403.5 75 Q401 69 398 64 Q381 34 344 12 Q307 -10 249 -10 Q193 -10 154 13 Q115 36 90.5 72.5 Q66 109 55 153.5 Q44 198 44 242 Q44 313 64.5 360 Q85 407 115.5 435.5 Q146 464 182.5 475.5 Q219 487 252 487 Q285 487 312 478 Q339 469 359 455 Q379 441 391.5 423.5 Q404 406 409 389 L409 477 L466 477 L466 33 Z M407 231 Q407 259 405 284.5 Q403 310 396 335 Q391 352 382 370 Q373 388 357 402.5 Q341 417 317.5 426.5 Q294 436 261 436 Q233 436 205 426.5 Q177 417 154.5 394.5 Q132 372 118 335 Q104 298 104 243 Q104 209 110.5 173.5 Q117 138 134 109 Q151 80 181.5 61.5 Q212 43 259 43 Q305 43 334 60.5 Q363 78 379.5 105 Q396 132 401.5 165.5 Q407 199 407 231 Z " />
<glyph glyph-name="h" unicode="h" horiz-adv-x="520" d="M387 0 L387 296 Q387 330 380.5 361 Q374 392 346 413 Q331 424 313 428.5 Q295 433 275 433 Q244 433 224 425 Q204 417 190 407 Q171 392 160 374 Q149 356 143.5 335.5 Q138 315 136.5 292 Q135 269 135 245 L135 0 L75 0 L75 706 L135 706 L135 401 Q151 433 173.5 450.5 Q196 468 218 476 Q240 484 258 485.5 Q276 487 282 487 Q302 487 324 482.5 Q346 478 367 467 Q388 456 405.5 437.5 Q423 419 433 392 Q438 380 441.5 362 Q445 344 445 316 L445 0 L387 0 Z " />
<glyph glyph-name="i" unicode="i" horiz-adv-x="208" d="M75 589 L75 680 L133 680 L133 589 L75 589 Z M75 0 L75 477 L133 477 L133 0 L75 0 Z " />
<glyph glyph-name="j" unicode="j" horiz-adv-x="208" d="M75 589 L75 680 L133 680 L133 589 L75 589 Z M133 -104 Q133 -118 132.5 -134 Q132 -150 130.5 -166.5 Q129 -183 125 -197.5 Q121 -212 114 -222 Q97 -245 76.5 -250.5 Q56 -256 31 -256 Q7 -256 -14 -249 Q-35 -242 -48 -236 L-48 -180 Q-20 -197 1 -200.5 Q22 -204 32 -204 Q44 -204 52.5 -200.5 Q61 -197 66 -188 Q71 -179 73 -163 Q75 -147 75 -121 L75 477 L133 477 L133 -104 Z " />
<glyph glyph-name="k" unicode="k" horiz-adv-x="475" d="M417 0 L235 247 L133 150 L133 0 L75 0 L75 706 L133 706 L133 226 L401 477 L475 477 L276 287 L489 0 L417 0 Z " />
<glyph glyph-name="l" unicode="l" horiz-adv-x="210" d="M75 0 L75 706 L135 706 L135 0 L75 0 Z " />
<glyph glyph-name="m" unicode="m" horiz-adv-x="771" d="M637 0 L637 314 Q637 329 635.5 349.5 Q634 370 625.5 388.5 Q617 407 598 420 Q579 433 545 433 Q515 433 494.5 422 Q474 411 460 397 Q444 380 435 360.5 Q426 341 421.5 320.5 Q417 300 415.5 278.5 Q414 257 414 238 L414 0 L356 0 L356 286 Q356 333 351 364.5 Q346 396 320 416 Q311 423 297 428 Q283 433 266 433 Q232 433 211.5 421.5 Q191 410 180 398 Q164 382 155 361.5 Q146 341 141.5 318.5 Q137 296 135.5 273.5 Q134 251 134 230 L134 0 L75 0 L75 477 L134 477 L134 378 Q144 418 164.5 440 Q185 462 207.5 472.5 Q230 483 249.5 485 Q269 487 277 487 Q291 487 311.5 483 Q332 479 352.5 466.5 Q373 454 388.5 430.5 Q404 407 407 368 Q408 371 412.5 387 Q417 403 426 417 Q439 439 455 452.5 Q471 466 488 473.5 Q505 481 522.5 484 Q540 487 555 487 Q601 487 629 471 Q657 455 672 431 Q687 407 691.5 378.5 Q696 350 696 325 L696 0 L637 0 Z " />
<glyph glyph-name="n" unicode="n" horiz-adv-x="522" d="M446 0 L387 0 L387 282 Q387 330 381 361.5 Q375 393 347 414 Q336 422 318.5 428 Q301 434 275 434 Q240 434 218 424 Q196 414 181 399 Q164 382 154.5 364.5 Q145 347 140.5 325.5 Q136 304 135 277.5 Q134 251 134 217 L134 0 L75 0 L75 477 L134 477 L134 392 Q147 427 169.5 446 Q192 465 214.5 474 Q237 483 256 485 Q275 487 281 487 L283 487 Q308 487 335.5 481.5 Q363 476 388 456 Q407 441 418.5 421.5 Q430 402 436 381 Q442 360 444 338.5 Q446 317 446 296 L446 0 Z " />
<glyph glyph-name="o" unicode="o" horiz-adv-x="521" d="M477 241 Q477 214 473 187 Q469 160 460 134 Q446 94 424 66.5 Q402 39 375 21.5 Q348 4 318.5 -4 Q289 -12 260 -12 Q204 -12 163 9 Q122 30 95.5 64.5 Q69 99 56.5 143 Q44 187 44 232 Q44 278 56 323.5 Q68 369 94 406 Q120 443 161.5 466 Q203 489 262 489 Q319 489 359.5 467.5 Q400 446 426 410.5 Q452 375 464.5 330.5 Q477 286 477 241 Z M414 240 Q414 257 412.5 276.5 Q411 296 406 316 Q396 356 378 380.5 Q360 405 339.5 418 Q319 431 298.5 435 Q278 439 263 439 Q229 439 205.5 428.5 Q182 418 168 406 Q138 380 122.5 337.5 Q107 295 107 232 Q107 180 119.5 143.5 Q132 107 153 84 Q174 61 201 50.5 Q228 40 257 40 Q287 40 315 50.5 Q343 61 365 84.5 Q387 108 400.5 146 Q414 184 414 240 Z " />
<glyph glyph-name="p" unicode="p" horiz-adv-x="521" d="M477 236 Q477 197 466 153.5 Q455 110 431.5 73.5 Q408 37 371 13 Q334 -11 282 -11 Q249 -11 224 -3 Q199 5 180.5 18 Q162 31 150.5 47.5 Q139 64 133 80 L133 -253 L75 -253 L75 477 L133 477 L133 399 Q148 432 169.5 449.5 Q191 467 212.5 475.5 Q234 484 251.5 485.5 Q269 487 277 487 Q331 487 366.5 466 Q402 445 423.5 416 Q445 387 455 357.5 Q465 328 469 311 Q471 303 474 283 Q477 263 477 236 Z M416 242 Q416 295 403 331.5 Q390 368 369 390.5 Q348 413 321.5 423 Q295 433 268 433 Q223 433 196.5 413.5 Q170 394 156 365.5 Q142 337 137.5 304.5 Q133 272 133 245 L133 224 Q133 207 134.5 186.5 Q136 166 142 145 Q148 124 159.5 104.5 Q171 85 192 69 Q203 61 221.5 53 Q240 45 267 45 Q313 45 342 66.5 Q371 88 387.5 118.5 Q404 149 410 183 Q416 217 416 242 Z " />
<glyph glyph-name="q" unicode="q" horiz-adv-x="520" d="M388 -253 L388 83 Q386 78 381 67.5 Q376 57 367 45 Q350 25 330.5 13.5 Q311 2 293 -3.5 Q275 -9 260 -10 Q245 -11 238 -11 Q185 -11 148 13.5 Q111 38 88 75.5 Q65 113 54.5 157.5 Q44 202 44 242 Q44 311 62.5 358 Q81 405 110 433.5 Q139 462 174 474.5 Q209 487 242 487 Q249 487 267.5 485.5 Q286 484 308.5 476 Q331 468 353 450.5 Q375 433 388 401 L388 477 L445 477 L445 -253 L388 -253 Z M389 250 Q389 263 387.5 283 Q386 303 381 324 Q372 361 355.5 382.5 Q339 404 319.5 415 Q300 426 281.5 429.5 Q263 433 250 433 Q223 433 197 422.5 Q171 412 150.5 389.5 Q130 367 117.5 331.5 Q105 296 105 247 Q105 217 112 181.5 Q119 146 136.5 115.5 Q154 85 182.5 64.5 Q211 44 254 44 Q257 44 264.5 44.5 Q272 45 282.5 47 Q293 49 305 54 Q317 59 329 68 Q350 84 362 106.5 Q374 129 380 153.5 Q386 178 387.5 203 Q389 228 389 250 Z " />
<glyph glyph-name="r" unicode="r" horiz-adv-x="311" d="M306 429 Q293 431 283 431.5 Q273 432 267 432 Q247 432 224.5 426.5 Q202 421 182 404 Q165 389 155 372 Q145 355 140.5 333.5 Q136 312 135 286.5 Q134 261 134 230 L134 0 L75 0 L75 477 L134 477 L134 401 Q148 431 167 448 Q186 465 205.5 473.5 Q225 482 241.5 483.5 Q258 485 267 485 Q277 485 287.5 484.5 Q298 484 306 482 L306 429 L306 429 Z " />
<glyph glyph-name="s" unicode="s" horiz-adv-x="458" d="M404 134 Q404 111 394.5 85 Q385 59 364 37.5 Q343 16 309 2 Q275 -12 226 -12 Q197 -12 169.5 -5.5 Q142 1 117 16 Q92 31 71 55.5 Q50 80 34 116 L92 137 Q93 134 95.5 126 Q98 118 103 109 Q117 83 147 62.5 Q177 42 226 42 Q289 42 318 70 Q347 98 347 135 Q347 157 337.5 172 Q328 187 313.5 196.5 Q299 206 282 211.5 Q265 217 249 220 Q224 225 188 232.5 Q152 240 127 253 Q116 259 104.5 267 Q93 275 84 287.5 Q75 300 69.5 317.5 Q64 335 64 358 Q64 383 73.5 406.5 Q83 430 103.5 448.5 Q124 467 156 478 Q188 489 232 489 Q311 489 352 458 Q393 427 404 381 L348 366 Q347 369 344.5 378.5 Q342 388 334 398 Q321 415 295.5 426 Q270 437 231 437 Q174 437 148 414.5 Q122 392 122 358 Q122 336 133 322 Q144 308 159.5 299.5 Q175 291 192 287 Q209 283 222 280 L271 270 Q279 268 301 262 Q323 256 346 241 Q369 226 386.5 200.5 Q404 175 404 134 Z " />
<glyph glyph-name="t" unicode="t" horiz-adv-x="292" d="M272 14 Q260 5 248 0.5 Q236 -4 225 -6 Q214 -8 206.5 -8.5 Q199 -9 196 -9 Q166 -9 148.5 -0.5 Q131 8 122.5 22.5 Q114 37 112 56.5 Q110 76 110 97 L110 427 L10 427 L10 477 L110 477 L110 680 L167 680 L167 477 L272 477 L272 427 L167 427 L167 98 Q167 43 205 43 Q216 43 231 48.5 Q246 54 272 73 L272 14 L272 14 Z " />
<glyph glyph-name="u" unicode="u" horiz-adv-x="521" d="M387 0 L387 86 Q385 82 380 71 Q375 60 367 49 Q339 12 304 0.5 Q269 -11 235 -11 L232 -11 Q226 -11 215.5 -10.5 Q205 -10 192 -7 Q179 -4 164 2.5 Q149 9 135 21 Q113 39 101 60.5 Q89 82 83 108.5 Q77 135 76 168 Q75 201 75 243 L75 477 L135 477 L135 197 Q135 171 137.5 143.5 Q140 116 150.5 94 Q161 72 183 58 Q205 44 244 44 Q267 44 292.5 50.5 Q318 57 340 79 Q373 111 380 150.5 Q387 190 387 235 L387 477 L446 477 L446 0 L387 0 Z " />
<glyph glyph-name="v" unicode="v" horiz-adv-x="396" d="M213 0 L165 0 L0 477 L59 477 L191 89 L338 477 L396 477 L213 0 Z " />
<glyph glyph-name="w" unicode="w" horiz-adv-x="662" d="M503 0 L454 0 L336 393 L219 0 L169 0 L8 477 L65 477 L193 92 L310 477 L360 477 L478 92 L597 477 L654 477 L503 0 Z " />
<glyph glyph-name="x" unicode="x" horiz-adv-x="415" d="M348 0 L208 203 L63 0 L0 0 L175 248 L14 477 L83 477 L208 295 L337 477 L400 477 L240 248 L415 0 L348 0 Z " />
<glyph glyph-name="y" unicode="y" horiz-adv-x="411" d="M196 -69 Q179 -111 166.5 -143 Q154 -175 140 -197 Q126 -219 107 -230.5 Q88 -242 58 -242 Q51 -242 33.5 -239.5 Q16 -237 -5 -223 L-5 -163 Q3 -168 19.5 -177 Q36 -186 58 -186 Q72 -186 84.5 -176.5 Q97 -167 108 -144 Q116 -126 124.5 -106.5 Q133 -87 141 -66 L165 0 L0 477 L57 477 L196 71 L351 477 L411 477 L196 -69 Z " />
<glyph glyph-name="z" unicode="z" horiz-adv-x="396" d="M28 0 L28 37 L286 426 L50 426 L50 477 L369 477 L369 442 L111 53 L376 53 L376 0 L28 0 Z " />
<glyph glyph-name="agrave" unicode="&#xe0;" horiz-adv-x="493" d="M477 0 Q455 0 433.5 2 Q412 4 395 12.5 Q378 21 367.5 38.5 Q357 56 357 87 Q354 81 347 66.5 Q340 52 321 35 Q302 18 268.5 4 Q235 -10 188 -10 Q145 -10 116 3 Q87 16 70 35.5 Q53 55 45.5 77.5 Q38 100 38 120 Q38 147 47 167 Q56 187 69.5 201 Q83 215 98 224.5 Q113 234 125 240 Q149 251 194 264 Q239 277 301 291 L357 303 L357 328 Q357 345 354 364.5 Q351 384 339 400 Q327 416 303.5 426.5 Q280 437 240 437 Q186 437 158 417.5 Q130 398 121 364 Q118 353 117.5 343 Q117 333 117 322 L52 333 Q57 362 64 381.5 Q71 401 79 414 Q95 438 115 452.5 Q135 467 157 475.5 Q179 484 200 486.5 Q221 489 239 489 Q290 489 327.5 475 Q365 461 384 440 Q395 428 400 414.5 Q405 401 406 399 Q411 385 412.5 369 Q414 353 414 325 L414 137 Q414 113 415 96 Q416 79 422 68 Q428 57 440 52 Q452 47 474 47 L485 47 L485 0 L477 0 Z M357 252 L250 225 Q204 213 174 202 Q144 191 126.5 178.5 Q109 166 102 152 Q95 138 95 121 Q95 109 100 95 Q105 81 116 69 Q127 57 145 49.5 Q163 42 189 42 Q208 42 231.5 47.5 Q255 53 277 65 Q299 77 317.5 94.5 Q336 112 346 136 Q354 155 355.5 176.5 Q357 198 357 216 L357 252 Z M274 558 L103 698 L215 698 L327 558 L274 558 Z " />
<glyph glyph-name="aacute" unicode="&#xe1;" horiz-adv-x="493" d="M477 0 Q455 0 433.5 2 Q412 4 395 12.5 Q378 21 367.5 38.5 Q357 56 357 87 Q354 81 347 66.5 Q340 52 321 35 Q302 18 268.5 4 Q235 -10 188 -10 Q145 -10 116 3 Q87 16 70 35.5 Q53 55 45.5 77.5 Q38 100 38 120 Q38 147 47 167 Q56 187 69.5 201 Q83 215 98 224.5 Q113 234 125 240 Q149 251 194 264 Q239 277 301 291 L357 303 L357 328 Q357 345 354 364.5 Q351 384 339 400 Q327 416 303.5 426.5 Q280 437 240 437 Q186 437 158 417.5 Q130 398 121 364 Q118 353 117.5 343 Q117 333 117 322 L52 333 Q57 362 64 381.5 Q71 401 79 414 Q95 438 115 452.5 Q135 467 157 475.5 Q179 484 200 486.5 Q221 489 239 489 Q290 489 327.5 475 Q365 461 384 440 Q395 428 400 414.5 Q405 401 406 399 Q411 385 412.5 369 Q414 353 414 325 L414 137 Q414 113 415 96 Q416 79 422 68 Q428 57 440 52 Q452 47 474 47 L485 47 L485 0 L477 0 Z M357 252 L250 225 Q204 213 174 202 Q144 191 126.5 178.5 Q109 166 102 152 Q95 138 95 121 Q95 109 100 95 Q105 81 116 69 Q127 57 145 49.5 Q163 42 189 42 Q208 42 231.5 47.5 Q255 53 277 65 Q299 77 317.5 94.5 Q336 112 346 136 Q354 155 355.5 176.5 Q357 198 357 216 L357 252 Z M212 558 L159 558 L271 698 L382 698 L212 558 Z " />
<glyph glyph-name="acircumflex" unicode="&#xe2;" horiz-adv-x="493" d="M477 0 Q455 0 433.5 2 Q412 4 395 12.5 Q378 21 367.5 38.5 Q357 56 357 87 Q354 81 347 66.5 Q340 52 321 35 Q302 18 268.5 4 Q235 -10 188 -10 Q145 -10 116 3 Q87 16 70 35.5 Q53 55 45.5 77.5 Q38 100 38 120 Q38 147 47 167 Q56 187 69.5 201 Q83 215 98 224.5 Q113 234 125 240 Q149 251 194 264 Q239 277 301 291 L357 303 L357 328 Q357 345 354 364.5 Q351 384 339 400 Q327 416 303.5 426.5 Q280 437 240 437 Q186 437 158 417.5 Q130 398 121 364 Q118 353 117.5 343 Q117 333 117 322 L52 333 Q57 362 64 381.5 Q71 401 79 414 Q95 438 115 452.5 Q135 467 157 475.5 Q179 484 200 486.5 Q221 489 239 489 Q290 489 327.5 475 Q365 461 384 440 Q395 428 400 414.5 Q405 401 406 399 Q411 385 412.5 369 Q414 353 414 325 L414 137 Q414 113 415 96 Q416 79 422 68 Q428 57 440 52 Q452 47 474 47 L485 47 L485 0 L477 0 Z M357 252 L250 225 Q204 213 174 202 Q144 191 126.5 178.5 Q109 166 102 152 Q95 138 95 121 Q95 109 100 95 Q105 81 116 69 Q127 57 145 49.5 Q163 42 189 42 Q208 42 231.5 47.5 Q255 53 277 65 Q299 77 317.5 94.5 Q336 112 346 136 Q354 155 355.5 176.5 Q357 198 357 216 L357 252 Z M342 558 L244 623 L155 558 L105 558 L233 696 L259 696 L393 558 L342 558 Z " />
<glyph glyph-name="atilde" unicode="&#xe3;" horiz-adv-x="493" d="M477 0 Q455 0 433.5 2 Q412 4 395 12.5 Q378 21 367.5 38.5 Q357 56 357 87 Q354 81 347 66.5 Q340 52 321 35 Q302 18 268.5 4 Q235 -10 188 -10 Q145 -10 116 3 Q87 16 70 35.5 Q53 55 45.5 77.5 Q38 100 38 120 Q38 147 47 167 Q56 187 69.5 201 Q83 215 98 224.5 Q113 234 125 240 Q149 251 194 264 Q239 277 301 291 L357 303 L357 328 Q357 345 354 364.5 Q351 384 339 400 Q327 416 303.5 426.5 Q280 437 240 437 Q186 437 158 417.5 Q130 398 121 364 Q118 353 117.5 343 Q117 333 117 322 L52 333 Q57 362 64 381.5 Q71 401 79 414 Q95 438 115 452.5 Q135 467 157 475.5 Q179 484 200 486.5 Q221 489 239 489 Q290 489 327.5 475 Q365 461 384 440 Q395 428 400 414.5 Q405 401 406 399 Q411 385 412.5 369 Q414 353 414 325 L414 137 Q414 113 415 96 Q416 79 422 68 Q428 57 440 52 Q452 47 474 47 L485 47 L485 0 L477 0 Z M357 252 L250 225 Q204 213 174 202 Q144 191 126.5 178.5 Q109 166 102 152 Q95 138 95 121 Q95 109 100 95 Q105 81 116 69 Q127 57 145 49.5 Q163 42 189 42 Q208 42 231.5 47.5 Q255 53 277 65 Q299 77 317.5 94.5 Q336 112 346 136 Q354 155 355.5 176.5 Q357 198 357 216 L357 252 Z M400 665 Q398 662 392 647.5 Q386 633 375 617 Q364 601 347 588 Q330 575 306 575 Q284 575 262 586 Q240 597 218 608 Q200 616 192.5 619.5 Q185 623 176 623 Q156 623 146.5 609.5 Q137 596 130 581 L88 590 Q90 594 95.5 608.5 Q101 623 112.5 638.5 Q124 654 141 666 Q158 678 184 678 Q196 678 208.5 674 Q221 670 232.5 664.5 Q244 659 252.5 654 Q261 649 265 648 Q266 648 271 645.5 Q276 643 282.5 640 Q289 637 297 634.5 Q305 632 311 632 Q323 632 332 637.5 Q341 643 346.5 650.5 Q352 658 355 665 Q358 672 360 675 L400 665 L400 665 Z " />
<glyph glyph-name="adieresis" unicode="&#xe4;" horiz-adv-x="493" d="M477 0 Q455 0 433.5 2 Q412 4 395 12.5 Q378 21 367.5 38.5 Q357 56 357 87 Q354 81 347 66.5 Q340 52 321 35 Q302 18 268.5 4 Q235 -10 188 -10 Q145 -10 116 3 Q87 16 70 35.5 Q53 55 45.5 77.5 Q38 100 38 120 Q38 147 47 167 Q56 187 69.5 201 Q83 215 98 224.5 Q113 234 125 240 Q149 251 194 264 Q239 277 301 291 L357 303 L357 328 Q357 345 354 364.5 Q351 384 339 400 Q327 416 303.5 426.5 Q280 437 240 437 Q186 437 158 417.5 Q130 398 121 364 Q118 353 117.5 343 Q117 333 117 322 L52 333 Q57 362 64 381.5 Q71 401 79 414 Q95 438 115 452.5 Q135 467 157 475.5 Q179 484 200 486.5 Q221 489 239 489 Q290 489 327.5 475 Q365 461 384 440 Q395 428 400 414.5 Q405 401 406 399 Q411 385 412.5 369 Q414 353 414 325 L414 137 Q414 113 415 96 Q416 79 422 68 Q428 57 440 52 Q452 47 474 47 L485 47 L485 0 L477 0 Z M357 252 L250 225 Q204 213 174 202 Q144 191 126.5 178.5 Q109 166 102 152 Q95 138 95 121 Q95 109 100 95 Q105 81 116 69 Q127 57 145 49.5 Q163 42 189 42 Q208 42 231.5 47.5 Q255 53 277 65 Q299 77 317.5 94.5 Q336 112 346 136 Q354 155 355.5 176.5 Q357 198 357 216 L357 252 Z M302 582 L302 674 L363 674 L363 582 L302 582 Z M130 582 L130 674 L191 674 L191 582 L130 582 Z " />
<glyph glyph-name="amacron" unicode="&#x101;" horiz-adv-x="493" d="M477 0 Q455 0 433.5 2 Q412 4 395 12.5 Q378 21 367.5 38.5 Q357 56 357 87 Q354 81 347 66.5 Q340 52 321 35 Q302 18 268.5 4 Q235 -10 188 -10 Q145 -10 116 3 Q87 16 70 35.5 Q53 55 45.5 77.5 Q38 100 38 120 Q38 147 47 167 Q56 187 69.5 201 Q83 215 98 224.5 Q113 234 125 240 Q149 251 194 264 Q239 277 301 291 L357 303 L357 328 Q357 345 354 364.5 Q351 384 339 400 Q327 416 303.5 426.5 Q280 437 240 437 Q186 437 158 417.5 Q130 398 121 364 Q118 353 117.5 343 Q117 333 117 322 L52 333 Q57 362 64 381.5 Q71 401 79 414 Q95 438 115 452.5 Q135 467 157 475.5 Q179 484 200 486.5 Q221 489 239 489 Q290 489 327.5 475 Q365 461 384 440 Q395 428 400 414.5 Q405 401 406 399 Q411 385 412.5 369 Q414 353 414 325 L414 137 Q414 113 415 96 Q416 79 422 68 Q428 57 440 52 Q452 47 474 47 L485 47 L485 0 L477 0 Z M357 252 L250 225 Q204 213 174 202 Q144 191 126.5 178.5 Q109 166 102 152 Q95 138 95 121 Q95 109 100 95 Q105 81 116 69 Q127 57 145 49.5 Q163 42 189 42 Q208 42 231.5 47.5 Q255 53 277 65 Q299 77 317.5 94.5 Q336 112 346 136 Q354 155 355.5 176.5 Q357 198 357 216 L357 252 Z M130 582 L130 644 L363 644 L363 582 L130 582 Z " />
<glyph glyph-name="abreve" unicode="&#x103;" horiz-adv-x="493" d="M477 0 Q455 0 433.5 2 Q412 4 395 12.5 Q378 21 367.5 38.5 Q357 56 357 87 Q354 81 347 66.5 Q340 52 321 35 Q302 18 268.5 4 Q235 -10 188 -10 Q145 -10 116 3 Q87 16 70 35.5 Q53 55 45.5 77.5 Q38 100 38 120 Q38 147 47 167 Q56 187 69.5 201 Q83 215 98 224.5 Q113 234 125 240 Q149 251 194 264 Q239 277 301 291 L357 303 L357 328 Q357 345 354 364.5 Q351 384 339 400 Q327 416 303.5 426.5 Q280 437 240 437 Q186 437 158 417.5 Q130 398 121 364 Q118 353 117.5 343 Q117 333 117 322 L52 333 Q57 362 64 381.5 Q71 401 79 414 Q95 438 115 452.5 Q135 467 157 475.5 Q179 484 200 486.5 Q221 489 239 489 Q290 489 327.5 475 Q365 461 384 440 Q395 428 400 414.5 Q405 401 406 399 Q411 385 412.5 369 Q414 353 414 325 L414 137 Q414 113 415 96 Q416 79 422 68 Q428 57 440 52 Q452 47 474 47 L485 47 L485 0 L477 0 Z M357 252 L250 225 Q204 213 174 202 Q144 191 126.5 178.5 Q109 166 102 152 Q95 138 95 121 Q95 109 100 95 Q105 81 116 69 Q127 57 145 49.5 Q163 42 189 42 Q208 42 231.5 47.5 Q255 53 277 65 Q299 77 317.5 94.5 Q336 112 346 136 Q354 155 355.5 176.5 Q357 198 357 216 L357 252 Z M387 684 Q383 660 373 641.5 Q363 623 350 609.5 Q337 596 323 587 Q309 578 299 574 Q291 571 275.5 567.5 Q260 564 240 564 Q215 564 192 572 Q169 580 150.5 595.5 Q132 611 120 633.5 Q108 656 106 684 L150 684 Q156 661 169 648 Q182 635 196.5 629 Q211 623 223.5 621.5 Q236 620 241 620 L243 620 Q255 620 270.5 623 Q286 626 301 633.5 Q316 641 328 653 Q340 665 343 684 L387 684 L387 684 Z " />
<glyph glyph-name="aring" unicode="&#xe5;" horiz-adv-x="493" d="M477 0 Q455 0 433.5 2 Q412 4 395 12.5 Q378 21 367.5 38.5 Q357 56 357 87 Q354 81 347 66.5 Q340 52 321 35 Q302 18 268.5 4 Q235 -10 188 -10 Q145 -10 116 3 Q87 16 70 35.5 Q53 55 45.5 77.5 Q38 100 38 120 Q38 147 47 167 Q56 187 69.5 201 Q83 215 98 224.5 Q113 234 125 240 Q149 251 194 264 Q239 277 301 291 L357 303 L357 328 Q357 345 354 364.5 Q351 384 339 400 Q327 416 303.5 426.5 Q280 437 240 437 Q186 437 158 417.5 Q130 398 121 364 Q118 353 117.5 343 Q117 333 117 322 L52 333 Q57 362 64 381.5 Q71 401 79 414 Q95 438 115 452.5 Q135 467 157 475.5 Q179 484 200 486.5 Q221 489 239 489 Q290 489 327.5 475 Q365 461 384 440 Q395 428 400 414.5 Q405 401 406 399 Q411 385 412.5 369 Q414 353 414 325 L414 137 Q414 113 415 96 Q416 79 422 68 Q428 57 440 52 Q452 47 474 47 L485 47 L485 0 L477 0 Z M357 252 L250 225 Q204 213 174 202 Q144 191 126.5 178.5 Q109 166 102 152 Q95 138 95 121 Q95 109 100 95 Q105 81 116 69 Q127 57 145 49.5 Q163 42 189 42 Q208 42 231.5 47.5 Q255 53 277 65 Q299 77 317.5 94.5 Q336 112 346 136 Q354 155 355.5 176.5 Q357 198 357 216 L357 252 Z M329 632 Q329 599 305.5 575.5 Q282 552 249 552 Q216 552 192.5 575.5 Q169 599 169 632 Q169 665 192.5 688.5 Q216 712 249 712 Q282 712 305.5 688.5 Q329 665 329 632 Z M291 632 Q291 650 278.5 662 Q266 674 249 674 Q232 674 219.5 661.5 Q207 649 207 632 Q207 615 219.5 602.5 Q232 590 249 590 Q266 590 278.5 602 Q291 614 291 632 Z " />
<glyph glyph-name="aogonek" unicode="&#x105;" horiz-adv-x="493" d="M481 -163 Q474 -164 468.5 -164 Q463 -164 456 -164 Q407 -164 379 -146.5 Q351 -129 351 -97 Q351 -82 357.5 -68.5 Q364 -55 374.5 -42 Q385 -29 397.5 -18 Q410 -7 423 3 Q395 8 376 26 Q357 44 357 87 Q354 81 347 66.5 Q340 52 321 35 Q302 18 268.5 4 Q235 -10 188 -10 Q145 -10 116 3 Q87 16 70 35.5 Q53 55 45.5 77.5 Q38 100 38 120 Q38 147 47 167 Q56 187 69.5 201 Q83 215 98 224.5 Q113 234 125 240 Q149 251 194 264 Q239 277 301 291 L357 303 L357 328 Q357 345 354 364.5 Q351 384 339 400 Q327 416 303.5 426.5 Q280 437 240 437 Q186 437 158 418 Q130 399 121 364 Q118 353 117.5 341 Q117 329 117 324 L117 322 L52 333 Q57 362 64 381.5 Q71 401 79 414 Q95 438 115 452.5 Q135 467 157 475.5 Q179 484 200 486.5 Q221 489 239 489 Q290 489 327.5 475 Q365 461 384 440 Q395 428 400 414.5 Q405 401 406 399 Q411 385 412.5 369 Q414 353 414 325 L414 137 Q414 113 415 96 Q416 79 422 68 Q428 57 440 52 Q452 47 474 47 L485 47 L485 0 L477 0 L464 0 Q458 -5 448.5 -12.5 Q439 -20 430 -30.5 Q421 -41 414.5 -52.5 Q408 -64 408 -76 Q408 -91 415 -99 Q422 -107 431.5 -111 Q441 -115 451.5 -116 Q462 -117 470 -117 L481 -117 L481 -163 Z M357 252 L250 225 Q204 213 174 202 Q144 191 126.5 178.5 Q109 166 102 152 Q95 138 95 121 Q95 109 100 95 Q105 81 116 69 Q127 57 145 49.5 Q163 42 189 42 Q208 42 231.5 47.5 Q255 53 277 65 Q299 77 317.5 94.5 Q336 112 346 136 Q354 155 355.5 176.5 Q357 198 357 216 L357 252 Z " />
<glyph glyph-name="ae" unicode="&#xe6;" horiz-adv-x="832" d="M792 137 Q789 128 779.5 108.5 Q770 89 751 66 Q739 51 724 37 Q709 23 688.5 12 Q668 1 642.5 -5.5 Q617 -12 584 -12 Q561 -12 532.5 -7 Q504 -2 476 11 Q448 24 425 46.5 Q402 69 389 104 Q372 69 348 47 Q324 25 297.5 12.5 Q271 0 244 -5 Q217 -10 193 -10 Q137 -10 104.5 7 Q72 24 54 54 Q49 64 43.5 79 Q38 94 38 116 Q38 157 55 180.5 Q72 204 91 218 Q107 230 135 241 Q163 252 192.5 260.5 Q222 269 249.5 275.5 Q277 282 294 286 L365 304 L365 328 Q365 348 363.5 367 Q362 386 351.5 401 Q341 416 319 425 Q297 434 257 434 Q224 434 198 428 Q172 422 160 414 Q145 404 137 391.5 Q129 379 125 367.5 Q121 356 120 346 Q119 336 119 332 L119 330 L119 322 L53 330 Q54 336 57.5 356 Q61 376 72 396 Q94 439 137.5 464 Q181 489 253 489 Q272 489 295 486 Q318 483 341 475 Q364 467 383.5 451 Q403 435 415 410 Q420 416 424 422 Q428 428 439 439 Q454 454 472.5 464 Q491 474 509.5 479.5 Q528 485 545.5 487 Q563 489 577 489 Q637 489 678 467 Q719 445 744.5 409 Q770 373 781 328 Q792 283 792 237 L424 237 L424 213 Q424 157 441.5 123.5 Q459 90 484 71 Q509 52 536 46 Q563 40 582 40 Q634 40 671 63.5 Q708 87 734 140 L738 148 L792 137 Z M722 286 Q721 291 718.5 312 Q716 333 708 353 Q698 378 683 394 Q668 410 650.5 419.5 Q633 429 613.5 432.5 Q594 436 576 436 Q558 436 534 430.5 Q510 425 486.5 409 Q463 393 445.5 363.5 Q428 334 424 286 L722 286 Z M365 251 Q326 241 288.5 231.5 Q251 222 218.5 213 Q186 204 162 195 Q138 186 126 177 Q114 168 105 155 Q96 142 96 121 Q96 89 117.5 66.5 Q139 44 192 44 Q209 44 231.5 48 Q254 52 276.5 62 Q299 72 319 88 Q339 104 352 127 Q362 145 363.5 165 Q365 185 365 205 L365 251 Z " />
<glyph glyph-name="cacute" unicode="&#x107;" horiz-adv-x="474" d="M454 107 Q451 101 447 92 Q443 83 433 69 Q408 34 368 11 Q328 -12 264 -12 Q205 -12 163.5 9.5 Q122 31 95.5 66 Q69 101 56.5 145 Q44 189 44 235 Q44 261 48.5 290.5 Q53 320 64 349 Q75 378 95 405 Q115 432 146 453 Q166 466 197 477.5 Q228 489 275 489 Q338 489 377 463.5 Q416 438 438 403 Q447 389 449 383 Q451 377 454 369 L399 355 Q391 377 376 392.5 Q361 408 343.5 417.5 Q326 427 307 431.5 Q288 436 272 436 Q245 436 216 426.5 Q187 417 163 394 Q139 371 123.5 333 Q108 295 108 238 Q108 205 115.5 169.5 Q123 134 141 105.5 Q159 77 189 58.5 Q219 40 264 40 Q293 40 314.5 47.5 Q336 55 351 66.5 Q366 78 376 92 Q386 106 394 120 L454 107 L454 107 Z M236 558 L183 558 L295 698 L406 698 L236 558 Z " />
<glyph glyph-name="ccaron" unicode="&#x10d;" horiz-adv-x="474" d="M454 107 Q451 101 447 92 Q443 83 433 69 Q408 34 368 11 Q328 -12 264 -12 Q205 -12 163.5 9.5 Q122 31 95.5 66 Q69 101 56.5 145 Q44 189 44 235 Q44 261 48.5 290.5 Q53 320 64 349 Q75 378 95 405 Q115 432 146 453 Q166 466 197 477.5 Q228 489 275 489 Q338 489 377 463.5 Q416 438 438 403 Q447 389 449 383 Q451 377 454 369 L399 355 Q391 377 376 392.5 Q361 408 343.5 417.5 Q326 427 307 431.5 Q288 436 272 436 Q245 436 216 426.5 Q187 417 163 394 Q139 371 123.5 333 Q108 295 108 238 Q108 205 115.5 169.5 Q123 134 141 105.5 Q159 77 189 58.5 Q219 40 264 40 Q293 40 314.5 47.5 Q336 55 351 66.5 Q366 78 376 92 Q386 106 394 120 L454 107 L454 107 Z M275 558 L248 558 L114 696 L165 696 L263 631 L353 696 L402 696 L275 558 Z " />
<glyph glyph-name="ccedilla" unicode="&#xe7;" horiz-adv-x="474" d="M454 107 Q451 101 447 92 Q443 83 433 69 Q408 34 368 11 Q328 -12 264 -12 L249 -12 L231 -47 Q239 -45 244 -44.5 Q249 -44 261 -44 Q288 -44 308.5 -60.5 Q329 -77 329 -109 Q329 -131 319 -146.5 Q309 -162 294 -171.5 Q279 -181 261 -185.5 Q243 -190 227 -190 Q217 -190 206 -189 Q195 -188 190 -187 L190 -160 Q197 -161 205.5 -161.5 Q214 -162 222 -162 Q249 -162 263.5 -150.5 Q278 -139 278 -122 Q278 -108 265.5 -96.5 Q253 -85 229 -85 Q215 -85 205 -89 Q195 -93 190 -95 L190 -70 L226 -9 Q178 -2 143.5 21.5 Q109 45 87 78.5 Q65 112 54.5 152.5 Q44 193 44 235 Q44 261 48.5 290.5 Q53 320 64 349 Q75 378 95 405 Q115 432 146 453 Q166 466 197 477.5 Q228 489 275 489 Q338 489 377 463.5 Q416 438 438 403 Q447 389 449 383 Q451 377 454 369 L399 355 Q391 377 376 392.5 Q361 408 343.5 417.5 Q326 427 307 431.5 Q288 436 272 436 Q245 436 216 426.5 Q187 417 163 394 Q139 371 123.5 333 Q108 295 108 238 Q108 205 115.5 169.5 Q123 134 141 105.5 Q159 77 189 58.5 Q219 40 264 40 Q293 40 314.5 47.5 Q336 55 351 66.5 Q366 78 376 92 Q386 106 394 120 L454 107 L454 107 Z " />
<glyph glyph-name="dcaron" unicode="&#x10f;" horiz-adv-x="521" d="M388 0 L388 86 Q383 70 371.5 53 Q360 36 341.5 21.5 Q323 7 298.5 -2 Q274 -11 243 -11 Q208 -11 173 3 Q138 17 109 47.5 Q80 78 62 125.5 Q44 173 44 239 Q44 268 50 301.5 Q56 335 70.5 367 Q85 399 109.5 426.5 Q134 454 172 471 Q182 476 202 481.5 Q222 487 253 487 Q256 487 273.5 485.5 Q291 484 312.5 475.5 Q334 467 355.5 449.5 Q377 432 388 401 L388 706 L446 706 L446 0 L388 0 Z M389 243 Q389 307 376 347.5 Q363 388 328 411 Q310 424 289 428.5 Q268 433 253 433 Q224 433 197.5 421 Q171 409 151 385 Q131 361 119.5 324.5 Q108 288 108 239 Q108 209 114 175 Q120 141 135.5 112 Q151 83 178.5 64 Q206 45 250 45 Q296 45 324 64 Q352 83 366 111.5 Q380 140 384.5 173.5 Q389 207 389 235 L389 243 Z M498 616 L498 706 L565 706 L565 616 Q565 570 553 540.5 Q541 511 509 493 L492 527 Q514 540 522 560.5 Q530 581 531 616 L498 616 Z " />
<glyph glyph-name="dcroat" unicode="&#x111;" horiz-adv-x="521" d="M388 0 L388 86 Q383 70 371.5 53 Q360 36 341.5 21.5 Q323 7 298.5 -2 Q274 -11 243 -11 Q208 -11 173 3 Q138 17 109 47.5 Q80 78 62 125.5 Q44 173 44 239 Q44 268 50 301.5 Q56 335 70.5 367 Q85 399 109.5 426.5 Q134 454 172 471 Q182 476 202 481.5 Q222 487 253 487 Q256 487 273.5 485.5 Q291 484 312.5 475.5 Q334 467 355.5 449.5 Q377 432 388 401 L388 563 L235 563 L235 617 L388 617 L388 706 L446 706 L446 617 L506 617 L506 563 L446 563 L446 0 L388 0 Z M389 243 Q389 307 376 347.5 Q363 388 328 411 Q310 424 289 428.5 Q268 433 253 433 Q224 433 197.5 421 Q171 409 151 385 Q131 361 119.5 324.5 Q108 288 108 239 Q108 209 114 175 Q120 141 135.5 112 Q151 83 178.5 64 Q206 45 250 45 Q296 45 324 64 Q352 83 366 111.5 Q380 140 384.5 173.5 Q389 207 389 235 L389 243 Z " />
<glyph glyph-name="egrave" unicode="&#xe8;" horiz-adv-x="519" d="M479 126 Q468 101 451.5 76.5 Q435 52 410.5 32.5 Q386 13 351.5 0.5 Q317 -12 270 -12 Q211 -12 168.5 9 Q126 30 98 65.5 Q70 101 57 147 Q44 193 44 243 Q44 281 50 307 Q56 333 62 348 Q77 385 99 411.5 Q121 438 147.5 455.5 Q174 473 203.5 481 Q233 489 263 489 Q317 489 357.5 468 Q398 447 425 412.5 Q452 378 465.5 334 Q479 290 479 245 L479 239 L109 239 L109 229 Q109 193 117.5 159 Q126 125 145.5 99 Q165 73 196 57.5 Q227 42 273 42 Q320 42 357.5 63.5 Q395 85 424 142 L479 126 Z M411 287 Q405 333 389 362 Q373 391 352 407.5 Q331 424 307 430 Q283 436 261 436 Q244 436 220.5 430.5 Q197 425 175 408.5 Q153 392 135 363 Q117 334 110 287 L411 287 Z M293 558 L122 698 L234 698 L346 558 L293 558 Z " />
<glyph glyph-name="eacute" unicode="&#xe9;" horiz-adv-x="519" d="M479 126 Q468 101 451.5 76.5 Q435 52 410.5 32.5 Q386 13 351.5 0.5 Q317 -12 270 -12 Q211 -12 168.5 9 Q126 30 98 65.5 Q70 101 57 147 Q44 193 44 243 Q44 281 50 307 Q56 333 62 348 Q77 385 99 411.5 Q121 438 147.5 455.5 Q174 473 203.5 481 Q233 489 263 489 Q317 489 357.5 468 Q398 447 425 412.5 Q452 378 465.5 334 Q479 290 479 245 L479 239 L109 239 L109 229 Q109 193 117.5 159 Q126 125 145.5 99 Q165 73 196 57.5 Q227 42 273 42 Q320 42 357.5 63.5 Q395 85 424 142 L479 126 Z M411 287 Q405 333 389 362 Q373 391 352 407.5 Q331 424 307 430 Q283 436 261 436 Q244 436 220.5 430.5 Q197 425 175 408.5 Q153 392 135 363 Q117 334 110 287 L411 287 Z M247 558 L194 558 L306 698 L417 698 L247 558 Z " />
<glyph glyph-name="ecircumflex" unicode="&#xea;" horiz-adv-x="519" d="M479 126 Q468 101 451.5 76.5 Q435 52 410.5 32.5 Q386 13 351.5 0.5 Q317 -12 270 -12 Q211 -12 168.5 9 Q126 30 98 65.5 Q70 101 57 147 Q44 193 44 243 Q44 281 50 307 Q56 333 62 348 Q77 385 99 411.5 Q121 438 147.5 455.5 Q174 473 203.5 481 Q233 489 263 489 Q317 489 357.5 468 Q398 447 425 412.5 Q452 378 465.5 334 Q479 290 479 245 L479 239 L109 239 L109 229 Q109 193 117.5 159 Q126 125 145.5 99 Q165 73 196 57.5 Q227 42 273 42 Q320 42 357.5 63.5 Q395 85 424 142 L479 126 Z M411 287 Q405 333 389 362 Q373 391 352 407.5 Q331 424 307 430 Q283 436 261 436 Q244 436 220.5 430.5 Q197 425 175 408.5 Q153 392 135 363 Q117 334 110 287 L411 287 Z M367 558 L269 623 L180 558 L130 558 L258 696 L284 696 L418 558 L367 558 Z " />
<glyph glyph-name="ecaron" unicode="&#x11b;" horiz-adv-x="519" d="M479 126 Q468 101 451.5 76.5 Q435 52 410.5 32.5 Q386 13 351.5 0.5 Q317 -12 270 -12 Q211 -12 168.5 9 Q126 30 98 65.5 Q70 101 57 147 Q44 193 44 243 Q44 281 50 307 Q56 333 62 348 Q77 385 99 411.5 Q121 438 147.5 455.5 Q174 473 203.5 481 Q233 489 263 489 Q317 489 357.5 468 Q398 447 425 412.5 Q452 378 465.5 334 Q479 290 479 245 L479 239 L109 239 L109 229 Q109 193 117.5 159 Q126 125 145.5 99 Q165 73 196 57.5 Q227 42 273 42 Q320 42 357.5 63.5 Q395 85 424 142 L479 126 Z M411 287 Q405 333 389 362 Q373 391 352 407.5 Q331 424 307 430 Q283 436 261 436 Q244 436 220.5 430.5 Q197 425 175 408.5 Q153 392 135 363 Q117 334 110 287 L411 287 Z M276 558 L249 558 L115 696 L166 696 L264 631 L354 696 L403 696 L276 558 Z " />
<glyph glyph-name="edieresis" unicode="&#xeb;" horiz-adv-x="519" d="M479 126 Q468 101 451.5 76.5 Q435 52 410.5 32.5 Q386 13 351.5 0.5 Q317 -12 270 -12 Q211 -12 168.5 9 Q126 30 98 65.5 Q70 101 57 147 Q44 193 44 243 Q44 281 50 307 Q56 333 62 348 Q77 385 99 411.5 Q121 438 147.5 455.5 Q174 473 203.5 481 Q233 489 263 489 Q317 489 357.5 468 Q398 447 425 412.5 Q452 378 465.5 334 Q479 290 479 245 L479 239 L109 239 L109 229 Q109 193 117.5 159 Q126 125 145.5 99 Q165 73 196 57.5 Q227 42 273 42 Q320 42 357.5 63.5 Q395 85 424 142 L479 126 Z M411 287 Q405 333 389 362 Q373 391 352 407.5 Q331 424 307 430 Q283 436 261 436 Q244 436 220.5 430.5 Q197 425 175 408.5 Q153 392 135 363 Q117 334 110 287 L411 287 Z M330 582 L330 674 L391 674 L391 582 L330 582 Z M158 582 L158 674 L219 674 L219 582 L158 582 Z " />
<glyph glyph-name="emacron" unicode="&#x113;" horiz-adv-x="519" d="M479 126 Q468 101 451.5 76.5 Q435 52 410.5 32.5 Q386 13 351.5 0.5 Q317 -12 270 -12 Q211 -12 168.5 9 Q126 30 98 65.5 Q70 101 57 147 Q44 193 44 243 Q44 281 50 307 Q56 333 62 348 Q77 385 99 411.5 Q121 438 147.5 455.5 Q174 473 203.5 481 Q233 489 263 489 Q317 489 357.5 468 Q398 447 425 412.5 Q452 378 465.5 334 Q479 290 479 245 L479 239 L109 239 L109 229 Q109 193 117.5 159 Q126 125 145.5 99 Q165 73 196 57.5 Q227 42 273 42 Q320 42 357.5 63.5 Q395 85 424 142 L479 126 Z M411 287 Q405 333 389 362 Q373 391 352 407.5 Q331 424 307 430 Q283 436 261 436 Q244 436 220.5 430.5 Q197 425 175 408.5 Q153 392 135 363 Q117 334 110 287 L411 287 Z M143 582 L143 644 L376 644 L376 582 L143 582 Z " />
<glyph glyph-name="edotaccent" unicode="&#x117;" horiz-adv-x="519" d="M479 126 Q468 101 451.5 76.5 Q435 52 410.5 32.5 Q386 13 351.5 0.5 Q317 -12 270 -12 Q211 -12 168.5 9 Q126 30 98 65.5 Q70 101 57 147 Q44 193 44 243 Q44 281 50 307 Q56 333 62 348 Q77 385 99 411.5 Q121 438 147.5 455.5 Q174 473 203.5 481 Q233 489 263 489 Q317 489 357.5 468 Q398 447 425 412.5 Q452 378 465.5 334 Q479 290 479 245 L479 239 L109 239 L109 229 Q109 193 117.5 159 Q126 125 145.5 99 Q165 73 196 57.5 Q227 42 273 42 Q320 42 357.5 63.5 Q395 85 424 142 L479 126 Z M411 287 Q405 333 389 362 Q373 391 352 407.5 Q331 424 307 430 Q283 436 261 436 Q244 436 220.5 430.5 Q197 425 175 408.5 Q153 392 135 363 Q117 334 110 287 L411 287 Z M229 582 L229 674 L290 674 L290 582 L229 582 Z " />
<glyph glyph-name="eogonek" unicode="&#x119;" horiz-adv-x="519" d="M374 -163 Q367 -164 361.5 -164 Q356 -164 349 -164 Q300 -164 272 -146.5 Q244 -129 244 -97 Q244 -73 260.5 -51 Q277 -29 298 -11 Q291 -12 284.5 -12 Q278 -12 270 -12 Q211 -12 168.5 9 Q126 30 98 65.5 Q70 101 57 147 Q44 193 44 243 Q44 281 50 307 Q56 333 62 348 Q77 385 99 411.5 Q121 438 147.5 455.5 Q174 473 203.5 481 Q233 489 263 489 Q317 489 357.5 468 Q398 447 425 412.5 Q452 378 465.5 334 Q479 290 479 245 L479 239 L109 239 L109 229 Q109 193 117.5 159 Q126 125 145.5 99 Q165 73 196 57.5 Q227 42 273 42 Q320 42 357.5 63.5 Q395 85 424 142 L479 126 Q463 91 436.5 57.5 Q410 24 364 5 L365 5 Q363 4 353 -3.5 Q343 -11 331.5 -22 Q320 -33 310.5 -47 Q301 -61 301 -76 Q301 -91 308 -99 Q315 -107 324.5 -111 Q334 -115 344.5 -116 Q355 -117 363 -117 L374 -117 L374 -163 Z M411 287 Q405 333 389 362 Q373 391 352 407.5 Q331 424 307 430 Q283 436 261 436 Q244 436 220.5 430.5 Q197 425 175 408.5 Q153 392 135 363 Q117 334 110 287 L411 287 Z " />
<glyph glyph-name="gbreve" unicode="&#x11f;" horiz-adv-x="541" d="M466 33 Q466 -16 464.5 -55.5 Q463 -95 454 -125.5 Q445 -156 426.5 -179 Q408 -202 375 -219 Q357 -228 328 -236 Q299 -244 255 -244 Q177 -244 131 -216 Q85 -188 64 -143 Q53 -120 51 -101 Q49 -82 48 -74 L110 -62 Q114 -111 133 -137.5 Q152 -164 175.5 -176.5 Q199 -189 222.5 -191 Q246 -193 260 -193 Q296 -193 321 -185.5 Q346 -178 362 -164.5 Q378 -151 386.5 -134 Q395 -117 400 -97 Q403 -86 404.5 -70.5 Q406 -55 407 -39 Q408 -23 408.5 -7.5 Q409 8 409 20 L409 92 Q406 81 403.5 75 Q401 69 398 64 Q381 34 344 12 Q307 -10 249 -10 Q193 -10 154 13 Q115 36 90.5 72.5 Q66 109 55 153.5 Q44 198 44 242 Q44 313 64.5 360 Q85 407 115.5 435.5 Q146 464 182.5 475.5 Q219 487 252 487 Q285 487 312 478 Q339 469 359 455 Q379 441 391.5 423.5 Q404 406 409 389 L409 477 L466 477 L466 33 Z M407 231 Q407 259 405 284.5 Q403 310 396 335 Q391 352 382 370 Q373 388 357 402.5 Q341 417 317.5 426.5 Q294 436 261 436 Q233 436 205 426.5 Q177 417 154.5 394.5 Q132 372 118 335 Q104 298 104 243 Q104 209 110.5 173.5 Q117 138 134 109 Q151 80 181.5 61.5 Q212 43 259 43 Q305 43 334 60.5 Q363 78 379.5 105 Q396 132 401.5 165.5 Q407 199 407 231 Z M421 684 Q417 660 407 641.5 Q397 623 384 609.5 Q371 596 357 587 Q343 578 333 574 Q325 571 309.5 567.5 Q294 564 274 564 Q249 564 226 572 Q203 580 184.5 595.5 Q166 611 154 633.5 Q142 656 140 684 L184 684 Q190 661 203 648 Q216 635 230.5 629 Q245 623 257.5 621.5 Q270 620 275 620 L277 620 Q289 620 304.5 623 Q320 626 335 633.5 Q350 641 362 653 Q374 665 377 684 L421 684 L421 684 Z " />
<glyph glyph-name="gcommaaccent" unicode="&#x123;" horiz-adv-x="541" d="M466 33 Q466 -16 464.5 -55.5 Q463 -95 454 -125.5 Q445 -156 426.5 -179 Q408 -202 375 -219 Q357 -228 328 -236 Q299 -244 255 -244 Q177 -244 131 -216 Q85 -188 64 -143 Q53 -120 51 -101 Q49 -82 48 -74 L110 -62 Q114 -111 133 -137.5 Q152 -164 175.5 -176.5 Q199 -189 222.5 -191 Q246 -193 260 -193 Q296 -193 321 -185.5 Q346 -178 362 -164.5 Q378 -151 386.5 -134 Q395 -117 400 -97 Q403 -86 404.5 -70.5 Q406 -55 407 -39 Q408 -23 408.5 -7.5 Q409 8 409 20 L409 92 Q406 81 403.5 75 Q401 69 398 64 Q381 34 344 12 Q307 -10 249 -10 Q193 -10 154 13 Q115 36 90.5 72.5 Q66 109 55 153.5 Q44 198 44 242 Q44 313 64.5 360 Q85 407 115.5 435.5 Q146 464 182.5 475.5 Q219 487 252 487 Q285 487 312 478 Q339 469 359 455 Q379 441 391.5 423.5 Q404 406 409 389 L409 477 L466 477 L466 33 Z M407 231 Q407 259 405 284.5 Q403 310 396 335 Q391 352 382 370 Q373 388 357 402.5 Q341 417 317.5 426.5 Q294 436 261 436 Q233 436 205 426.5 Q177 417 154.5 394.5 Q132 372 118 335 Q104 298 104 243 Q104 209 110.5 173.5 Q117 138 134 109 Q151 80 181.5 61.5 Q212 43 259 43 Q305 43 334 60.5 Q363 78 379.5 105 Q396 132 401.5 165.5 Q407 199 407 231 Z M293 675 Q273 664 267 649.5 Q261 635 257 616 L288 616 L288 545 L221 545 L221 592 Q221 610 223 627.5 Q225 645 231 660 Q237 675 247.5 687.5 Q258 700 275 709 L293 675 Z " />
<glyph glyph-name="igrave" unicode="&#xec;" horiz-adv-x="208" d="M75 0 L75 477 L133 477 L133 0 L75 0 Z M126 558 L-45 698 L67 698 L179 558 L126 558 Z " />
<glyph glyph-name="iacute" unicode="&#xed;" horiz-adv-x="208" d="M75 0 L75 477 L133 477 L133 0 L75 0 Z M77 558 L24 558 L136 698 L247 698 L77 558 Z " />
<glyph glyph-name="icircumflex" unicode="&#xee;" horiz-adv-x="208" d="M75 0 L75 477 L133 477 L133 0 L75 0 Z M198 558 L100 623 L11 558 L-39 558 L89 696 L115 696 L249 558 L198 558 Z " />
<glyph glyph-name="idieresis" unicode="&#xef;" horiz-adv-x="208" d="M75 0 L75 477 L133 477 L133 0 L75 0 Z M161 582 L161 674 L222 674 L222 582 L161 582 Z M-11 582 L-11 674 L50 674 L50 582 L-11 582 Z " />
<glyph glyph-name="imacron" unicode="&#x12b;" horiz-adv-x="208" d="M75 0 L75 477 L133 477 L133 0 L75 0 Z M-11 582 L-11 644 L222 644 L222 582 L-11 582 Z " />
<glyph glyph-name="iogonek" unicode="&#x12f;" horiz-adv-x="208" d="M141 -163 Q134 -164 128.5 -164 Q123 -164 116 -164 Q67 -164 39 -146.5 Q11 -129 11 -97 Q11 -69 32.5 -44.5 Q54 -20 78 0 L75 0 L75 477 L133 477 L133 0 L124 0 Q118 -5 108.5 -12.5 Q99 -20 90 -30.5 Q81 -41 74.5 -52.5 Q68 -64 68 -76 Q68 -91 75 -99 Q82 -107 91.5 -111 Q101 -115 111.5 -116 Q122 -117 130 -117 L141 -117 L141 -163 Z M75 589 L75 680 L133 680 L133 589 L75 589 Z " />
<glyph glyph-name="dotlessi" unicode="&#x131;" horiz-adv-x="208" d="M75 0 L75 477 L133 477 L133 0 L75 0 Z " />
<glyph glyph-name="kcommaaccent" unicode="&#x137;" horiz-adv-x="475" d="M417 0 L235 247 L133 150 L133 0 L75 0 L75 706 L133 706 L133 226 L401 477 L475 477 L276 287 L489 0 L417 0 Z M201 -189 Q221 -178 227 -163.5 Q233 -149 237 -130 L206 -130 L206 -59 L273 -59 L273 -106 Q273 -143 263 -174.5 Q253 -206 219 -223 L201 -189 Z " />
<glyph glyph-name="lacute" unicode="&#x13a;" horiz-adv-x="210" d="M75 0 L75 706 L135 706 L135 0 L75 0 Z M107 770 L50 770 L149 895 L254 895 L107 770 Z " />
<glyph glyph-name="lcaron" unicode="&#x13e;" horiz-adv-x="210" d="M75 0 L75 706 L135 706 L135 0 L75 0 Z M187 616 L187 706 L254 706 L254 616 Q254 570 242 540.5 Q230 511 198 493 L181 527 Q203 540 211 560.5 Q219 581 220 616 L187 616 Z " />
<glyph glyph-name="lcommaaccent" unicode="&#x13c;" horiz-adv-x="210" d="M75 0 L75 706 L135 706 L135 0 L75 0 Z M70 -189 Q90 -178 96 -163.5 Q102 -149 106 -130 L75 -130 L75 -59 L142 -59 L142 -106 Q142 -143 132 -174.5 Q122 -206 88 -223 L70 -189 Z " />
<glyph glyph-name="lslash" unicode="&#x142;" horiz-adv-x="210" d="M135 378 L135 0 L75 0 L75 338 L1 290 L1 350 L75 398 L75 706 L135 706 L135 437 L209 485 L209 426 L135 378 Z " />
<glyph glyph-name="nacute" unicode="&#x144;" horiz-adv-x="522" d="M446 0 L387 0 L387 282 Q387 330 381 361.5 Q375 393 347 414 Q336 422 318.5 428 Q301 434 275 434 Q240 434 218 424 Q196 414 181 399 Q164 382 154.5 364.5 Q145 347 140.5 325.5 Q136 304 135 277.5 Q134 251 134 217 L134 0 L75 0 L75 477 L134 477 L134 392 Q147 427 169.5 446 Q192 465 214.5 474 Q237 483 256 485 Q275 487 281 487 L283 487 Q308 487 335.5 481.5 Q363 476 388 456 Q407 441 418.5 421.5 Q430 402 436 381 Q442 360 444 338.5 Q446 317 446 296 L446 0 Z M239 558 L186 558 L298 698 L409 698 L239 558 Z " />
<glyph glyph-name="ncaron" unicode="&#x148;" horiz-adv-x="522" d="M446 0 L387 0 L387 282 Q387 330 381 361.5 Q375 393 347 414 Q336 422 318.5 428 Q301 434 275 434 Q240 434 218 424 Q196 414 181 399 Q164 382 154.5 364.5 Q145 347 140.5 325.5 Q136 304 135 277.5 Q134 251 134 217 L134 0 L75 0 L75 477 L134 477 L134 392 Q147 427 169.5 446 Q192 465 214.5 474 Q237 483 256 485 Q275 487 281 487 L283 487 Q308 487 335.5 481.5 Q363 476 388 456 Q407 441 418.5 421.5 Q430 402 436 381 Q442 360 444 338.5 Q446 317 446 296 L446 0 Z M278 558 L251 558 L117 696 L168 696 L266 631 L356 696 L405 696 L278 558 Z " />
<glyph glyph-name="ntilde" unicode="&#xf1;" horiz-adv-x="522" d="M446 0 L387 0 L387 282 Q387 330 381 361.5 Q375 393 347 414 Q336 422 318.5 428 Q301 434 275 434 Q240 434 218 424 Q196 414 181 399 Q164 382 154.5 364.5 Q145 347 140.5 325.5 Q136 304 135 277.5 Q134 251 134 217 L134 0 L75 0 L75 477 L134 477 L134 392 Q147 427 169.5 446 Q192 465 214.5 474 Q237 483 256 485 Q275 487 281 487 L283 487 Q308 487 335.5 481.5 Q363 476 388 456 Q407 441 418.5 421.5 Q430 402 436 381 Q442 360 444 338.5 Q446 317 446 296 L446 0 Z M421 665 Q419 662 413 647.5 Q407 633 396 617 Q385 601 368 588 Q351 575 327 575 Q305 575 283 586 Q261 597 239 608 Q221 616 213.5 619.5 Q206 623 197 623 Q177 623 167.5 609.5 Q158 596 151 581 L109 590 Q111 594 116.5 608.5 Q122 623 133.5 638.5 Q145 654 162 666 Q179 678 205 678 Q217 678 229.5 674 Q242 670 253.5 664.5 Q265 659 273.5 654 Q282 649 286 648 Q287 648 292 645.5 Q297 643 303.5 640 Q310 637 318 634.5 Q326 632 332 632 Q344 632 353 637.5 Q362 643 367.5 650.5 Q373 658 376 665 Q379 672 381 675 L421 665 L421 665 Z " />
<glyph glyph-name="ncommaaccent" unicode="&#x146;" horiz-adv-x="522" d="M446 0 L387 0 L387 282 Q387 330 381 361.5 Q375 393 347 414 Q336 422 318.5 428 Q301 434 275 434 Q240 434 218 424 Q196 414 181 399 Q164 382 154.5 364.5 Q145 347 140.5 325.5 Q136 304 135 277.5 Q134 251 134 217 L134 0 L75 0 L75 477 L134 477 L134 392 Q147 427 169.5 446 Q192 465 214.5 474 Q237 483 256 485 Q275 487 281 487 L283 487 Q308 487 335.5 481.5 Q363 476 388 456 Q407 441 418.5 421.5 Q430 402 436 381 Q442 360 444 338.5 Q446 317 446 296 L446 0 Z M226 -189 Q246 -178 252 -163.5 Q258 -149 262 -130 L231 -130 L231 -59 L298 -59 L298 -106 Q298 -143 288 -174.5 Q278 -206 244 -223 L226 -189 Z " />
<glyph glyph-name="ograve" unicode="&#xf2;" horiz-adv-x="521" d="M477 241 Q477 214 473 187 Q469 160 460 134 Q446 94 424 66.5 Q402 39 375 21.5 Q348 4 318.5 -4 Q289 -12 260 -12 Q204 -12 163 9 Q122 30 95.5 64.5 Q69 99 56.5 143 Q44 187 44 232 Q44 278 56 323.5 Q68 369 94 406 Q120 443 161.5 466 Q203 489 262 489 Q319 489 359.5 467.5 Q400 446 426 410.5 Q452 375 464.5 330.5 Q477 286 477 241 Z M414 240 Q414 257 412.5 276.5 Q411 296 406 316 Q396 356 378 380.5 Q360 405 339.5 418 Q319 431 298.5 435 Q278 439 263 439 Q229 439 205.5 428.5 Q182 418 168 406 Q138 380 122.5 337.5 Q107 295 107 232 Q107 180 119.5 143.5 Q132 107 153 84 Q174 61 201 50.5 Q228 40 257 40 Q287 40 315 50.5 Q343 61 365 84.5 Q387 108 400.5 146 Q414 184 414 240 Z M290 558 L119 698 L231 698 L343 558 L290 558 Z " />
<glyph glyph-name="oacute" unicode="&#xf3;" horiz-adv-x="521" d="M477 241 Q477 214 473 187 Q469 160 460 134 Q446 94 424 66.5 Q402 39 375 21.5 Q348 4 318.5 -4 Q289 -12 260 -12 Q204 -12 163 9 Q122 30 95.5 64.5 Q69 99 56.5 143 Q44 187 44 232 Q44 278 56 323.5 Q68 369 94 406 Q120 443 161.5 466 Q203 489 262 489 Q319 489 359.5 467.5 Q400 446 426 410.5 Q452 375 464.5 330.5 Q477 286 477 241 Z M414 240 Q414 257 412.5 276.5 Q411 296 406 316 Q396 356 378 380.5 Q360 405 339.5 418 Q319 431 298.5 435 Q278 439 263 439 Q229 439 205.5 428.5 Q182 418 168 406 Q138 380 122.5 337.5 Q107 295 107 232 Q107 180 119.5 143.5 Q132 107 153 84 Q174 61 201 50.5 Q228 40 257 40 Q287 40 315 50.5 Q343 61 365 84.5 Q387 108 400.5 146 Q414 184 414 240 Z M224 558 L171 558 L283 698 L394 698 L224 558 Z " />
<glyph glyph-name="ocircumflex" unicode="&#xf4;" horiz-adv-x="521" d="M477 241 Q477 214 473 187 Q469 160 460 134 Q446 94 424 66.5 Q402 39 375 21.5 Q348 4 318.5 -4 Q289 -12 260 -12 Q204 -12 163 9 Q122 30 95.5 64.5 Q69 99 56.5 143 Q44 187 44 232 Q44 278 56 323.5 Q68 369 94 406 Q120 443 161.5 466 Q203 489 262 489 Q319 489 359.5 467.5 Q400 446 426 410.5 Q452 375 464.5 330.5 Q477 286 477 241 Z M414 240 Q414 257 412.5 276.5 Q411 296 406 316 Q396 356 378 380.5 Q360 405 339.5 418 Q319 431 298.5 435 Q278 439 263 439 Q229 439 205.5 428.5 Q182 418 168 406 Q138 380 122.5 337.5 Q107 295 107 232 Q107 180 119.5 143.5 Q132 107 153 84 Q174 61 201 50.5 Q228 40 257 40 Q287 40 315 50.5 Q343 61 365 84.5 Q387 108 400.5 146 Q414 184 414 240 Z M350 558 L252 623 L163 558 L113 558 L241 696 L267 696 L401 558 L350 558 Z " />
<glyph glyph-name="otilde" unicode="&#xf5;" horiz-adv-x="521" d="M477 241 Q477 214 473 187 Q469 160 460 134 Q446 94 424 66.5 Q402 39 375 21.5 Q348 4 318.5 -4 Q289 -12 260 -12 Q204 -12 163 9 Q122 30 95.5 64.5 Q69 99 56.5 143 Q44 187 44 232 Q44 278 56 323.5 Q68 369 94 406 Q120 443 161.5 466 Q203 489 262 489 Q319 489 359.5 467.5 Q400 446 426 410.5 Q452 375 464.5 330.5 Q477 286 477 241 Z M414 240 Q414 257 412.5 276.5 Q411 296 406 316 Q396 356 378 380.5 Q360 405 339.5 418 Q319 431 298.5 435 Q278 439 263 439 Q229 439 205.5 428.5 Q182 418 168 406 Q138 380 122.5 337.5 Q107 295 107 232 Q107 180 119.5 143.5 Q132 107 153 84 Q174 61 201 50.5 Q228 40 257 40 Q287 40 315 50.5 Q343 61 365 84.5 Q387 108 400.5 146 Q414 184 414 240 Z M416 665 Q414 662 408 647.5 Q402 633 391 617 Q380 601 363 588 Q346 575 322 575 Q300 575 278 586 Q256 597 234 608 Q216 616 208.5 619.5 Q201 623 192 623 Q172 623 162.5 609.5 Q153 596 146 581 L104 590 Q106 594 111.5 608.5 Q117 623 128.5 638.5 Q140 654 157 666 Q174 678 200 678 Q212 678 224.5 674 Q237 670 248.5 664.5 Q260 659 268.5 654 Q277 649 281 648 Q282 648 287 645.5 Q292 643 298.5 640 Q305 637 313 634.5 Q321 632 327 632 Q339 632 348 637.5 Q357 643 362.5 650.5 Q368 658 371 665 Q374 672 376 675 L416 665 L416 665 Z " />
<glyph glyph-name="odieresis" unicode="&#xf6;" horiz-adv-x="521" d="M477 241 Q477 214 473 187 Q469 160 460 134 Q446 94 424 66.5 Q402 39 375 21.5 Q348 4 318.5 -4 Q289 -12 260 -12 Q204 -12 163 9 Q122 30 95.5 64.5 Q69 99 56.5 143 Q44 187 44 232 Q44 278 56 323.5 Q68 369 94 406 Q120 443 161.5 466 Q203 489 262 489 Q319 489 359.5 467.5 Q400 446 426 410.5 Q452 375 464.5 330.5 Q477 286 477 241 Z M414 240 Q414 257 412.5 276.5 Q411 296 406 316 Q396 356 378 380.5 Q360 405 339.5 418 Q319 431 298.5 435 Q278 439 263 439 Q229 439 205.5 428.5 Q182 418 168 406 Q138 380 122.5 337.5 Q107 295 107 232 Q107 180 119.5 143.5 Q132 107 153 84 Q174 61 201 50.5 Q228 40 257 40 Q287 40 315 50.5 Q343 61 365 84.5 Q387 108 400.5 146 Q414 184 414 240 Z M316 582 L316 674 L377 674 L377 582 L316 582 Z M144 582 L144 674 L205 674 L205 582 L144 582 Z " />
<glyph glyph-name="omacron" unicode="&#x14d;" horiz-adv-x="521" d="M477 241 Q477 214 473 187 Q469 160 460 134 Q446 94 424 66.5 Q402 39 375 21.5 Q348 4 318.5 -4 Q289 -12 260 -12 Q204 -12 163 9 Q122 30 95.5 64.5 Q69 99 56.5 143 Q44 187 44 232 Q44 278 56 323.5 Q68 369 94 406 Q120 443 161.5 466 Q203 489 262 489 Q319 489 359.5 467.5 Q400 446 426 410.5 Q452 375 464.5 330.5 Q477 286 477 241 Z M414 240 Q414 257 412.5 276.5 Q411 296 406 316 Q396 356 378 380.5 Q360 405 339.5 418 Q319 431 298.5 435 Q278 439 263 439 Q229 439 205.5 428.5 Q182 418 168 406 Q138 380 122.5 337.5 Q107 295 107 232 Q107 180 119.5 143.5 Q132 107 153 84 Q174 61 201 50.5 Q228 40 257 40 Q287 40 315 50.5 Q343 61 365 84.5 Q387 108 400.5 146 Q414 184 414 240 Z M144 582 L144 644 L377 644 L377 582 L144 582 Z " />
<glyph glyph-name="ohungarumlaut" unicode="&#x151;" horiz-adv-x="521" d="M477 241 Q477 214 473 187 Q469 160 460 134 Q446 94 424 66.5 Q402 39 375 21.5 Q348 4 318.5 -4 Q289 -12 260 -12 Q204 -12 163 9 Q122 30 95.5 64.5 Q69 99 56.5 143 Q44 187 44 232 Q44 278 56 323.5 Q68 369 94 406 Q120 443 161.5 466 Q203 489 262 489 Q319 489 359.5 467.5 Q400 446 426 410.5 Q452 375 464.5 330.5 Q477 286 477 241 Z M414 240 Q414 257 412.5 276.5 Q411 296 406 316 Q396 356 378 380.5 Q360 405 339.5 418 Q319 431 298.5 435 Q278 439 263 439 Q229 439 205.5 428.5 Q182 418 168 406 Q138 380 122.5 337.5 Q107 295 107 232 Q107 180 119.5 143.5 Q132 107 153 84 Q174 61 201 50.5 Q228 40 257 40 Q287 40 315 50.5 Q343 61 365 84.5 Q387 108 400.5 146 Q414 184 414 240 Z M312 558 L259 558 L370 698 L482 698 L312 558 Z M164 558 L111 558 L223 698 L335 698 L164 558 Z " />
<glyph glyph-name="oslash" unicode="&#xf8;" horiz-adv-x="521" d="M477 241 Q477 214 473 187 Q469 160 460 134 Q446 94 424 66.5 Q402 39 375 21.5 Q348 4 318.5 -4 Q289 -12 260 -12 Q201 -12 156 13 L136 -22 L98 0 L120 39 Q81 74 62.5 125.5 Q44 177 44 232 Q44 278 56 323.5 Q68 369 94 406 Q120 443 161.5 466 Q203 489 262 489 Q291 489 316 483 Q341 477 363 466 L385 504 L423 481 L399 440 Q440 404 458.5 351 Q477 298 477 241 Z M414 240 Q414 257 412.5 276.5 Q411 296 406 316 Q395 362 371 390 L183 59 Q217 40 257 40 Q287 40 315 50.5 Q343 61 365 84.5 Q387 108 400.5 146 Q414 184 414 240 Z M337 420 Q317 432 297 435.5 Q277 439 263 439 Q229 439 205.5 428.5 Q182 418 168 406 Q138 380 122.5 337.5 Q107 295 107 232 Q107 183 118 147.5 Q129 112 149 89 L337 420 Z " />
<glyph glyph-name="oe" unicode="&#x153;" horiz-adv-x="894" d="M854 128 Q851 122 846.5 112 Q842 102 832 87 Q812 57 789 38 Q766 19 741 7.5 Q716 -4 689.5 -8 Q663 -12 638 -12 Q576 -12 537.5 8.5 Q499 29 475 59 Q462 75 457 86 Q452 97 448 103 Q431 60 402.5 36.5 Q374 13 345 2.5 Q316 -8 292.5 -10 Q269 -12 261 -12 Q207 -12 166.5 8.5 Q126 29 98.5 63.5 Q71 98 57.5 142.5 Q44 187 44 235 Q44 284 57.5 330 Q71 376 98 411.5 Q125 447 166.5 468 Q208 489 265 489 Q319 489 352.5 473 Q386 457 408 436 Q428 416 436.5 400 Q445 384 448 376 Q459 396 469 409 Q479 422 488 431 Q510 453 534 464.5 Q558 476 579 481.5 Q600 487 615.5 488 Q631 489 636 489 Q693 489 731 469.5 Q769 450 793 422.5 Q817 395 829 364 Q841 333 846 311 Q851 285 852 267 Q853 249 854 239 L483 239 Q482 232 482 226.5 Q482 221 482 214 Q482 179 492 147.5 Q502 116 521.5 92 Q541 68 570 54 Q599 40 637 40 Q673 40 699 49.5 Q725 59 744 74 Q763 89 775.5 107.5 Q788 126 797 143 L854 128 Z M786 288 Q783 318 773 345 Q763 372 744.5 392.5 Q726 413 699.5 424.5 Q673 436 637 436 Q604 436 579 425.5 Q554 415 537 399 Q520 383 509 364 Q498 345 492 328 Q487 312 486 304 Q485 296 483 288 L786 288 Z M420 235 Q420 259 417.5 283.5 Q415 308 407 331 Q402 346 392 364.5 Q382 383 365.5 399 Q349 415 324.5 426 Q300 437 267 437 Q237 437 208.5 426.5 Q180 416 157.5 392.5 Q135 369 121.5 331.5 Q108 294 108 241 Q108 187 121 148.5 Q134 110 155 86 Q176 62 203.5 51 Q231 40 261 40 Q308 40 339 58.5 Q370 77 388 105.5 Q406 134 413 168.5 Q420 203 420 235 Z " />
<glyph glyph-name="racute" unicode="&#x155;" horiz-adv-x="311" d="M306 429 Q293 431 283 431.5 Q273 432 267 432 Q247 432 224.5 426.5 Q202 421 182 404 Q165 389 155 372 Q145 355 140.5 333.5 Q136 312 135 286.5 Q134 261 134 230 L134 0 L75 0 L75 477 L134 477 L134 401 Q148 431 167 448 Q186 465 205.5 473.5 Q225 482 241.5 483.5 Q258 485 267 485 Q277 485 287.5 484.5 Q298 484 306 482 L306 429 L306 429 Z M131 558 L78 558 L190 698 L301 698 L131 558 Z " />
<glyph glyph-name="rcaron" unicode="&#x159;" horiz-adv-x="311" d="M306 429 Q293 431 283 431.5 Q273 432 267 432 Q247 432 224.5 426.5 Q202 421 182 404 Q165 389 155 372 Q145 355 140.5 333.5 Q136 312 135 286.5 Q134 261 134 230 L134 0 L75 0 L75 477 L134 477 L134 401 Q148 431 167 448 Q186 465 205.5 473.5 Q225 482 241.5 483.5 Q258 485 267 485 Q277 485 287.5 484.5 Q298 484 306 482 L306 429 L306 429 Z M192 558 L165 558 L31 696 L82 696 L180 631 L270 696 L319 696 L192 558 Z " />
<glyph glyph-name="rcommaaccent" unicode="&#x157;" horiz-adv-x="311" d="M306 429 Q293 431 283 431.5 Q273 432 267 432 Q247 432 224.5 426.5 Q202 421 182 404 Q165 389 155 372 Q145 355 140.5 333.5 Q136 312 135 286.5 Q134 261 134 230 L134 0 L75 0 L75 477 L134 477 L134 401 Q148 431 167 448 Q186 465 205.5 473.5 Q225 482 241.5 483.5 Q258 485 267 485 Q277 485 287.5 484.5 Q298 484 306 482 L306 429 L306 429 Z M67 -189 Q87 -178 93 -163.5 Q99 -149 103 -130 L72 -130 L72 -59 L139 -59 L139 -106 Q139 -143 129 -174.5 Q119 -206 85 -223 L67 -189 Z " />
<glyph glyph-name="sacute" unicode="&#x15b;" horiz-adv-x="458" d="M404 134 Q404 111 394.5 85 Q385 59 364 37.5 Q343 16 309 2 Q275 -12 226 -12 Q197 -12 169.5 -5.5 Q142 1 117 16 Q92 31 71 55.5 Q50 80 34 116 L92 137 Q93 134 95.5 126 Q98 118 103 109 Q117 83 147 62.5 Q177 42 226 42 Q289 42 318 70 Q347 98 347 135 Q347 157 337.5 172 Q328 187 313.5 196.5 Q299 206 282 211.5 Q265 217 249 220 Q224 225 188 232.5 Q152 240 127 253 Q116 259 104.5 267 Q93 275 84 287.5 Q75 300 69.5 317.5 Q64 335 64 358 Q64 383 73.5 406.5 Q83 430 103.5 448.5 Q124 467 156 478 Q188 489 232 489 Q311 489 352 458 Q393 427 404 381 L348 366 Q347 369 344.5 378.5 Q342 388 334 398 Q321 415 295.5 426 Q270 437 231 437 Q174 437 148 414.5 Q122 392 122 358 Q122 336 133 322 Q144 308 159.5 299.5 Q175 291 192 287 Q209 283 222 280 L271 270 Q279 268 301 262 Q323 256 346 241 Q369 226 386.5 200.5 Q404 175 404 134 Z M207 558 L154 558 L266 698 L377 698 L207 558 Z " />
<glyph glyph-name="scaron" unicode="&#x161;" horiz-adv-x="458" d="M404 134 Q404 111 394.5 85 Q385 59 364 37.5 Q343 16 309 2 Q275 -12 226 -12 Q197 -12 169.5 -5.5 Q142 1 117 16 Q92 31 71 55.5 Q50 80 34 116 L92 137 Q93 134 95.5 126 Q98 118 103 109 Q117 83 147 62.5 Q177 42 226 42 Q289 42 318 70 Q347 98 347 135 Q347 157 337.5 172 Q328 187 313.5 196.5 Q299 206 282 211.5 Q265 217 249 220 Q224 225 188 232.5 Q152 240 127 253 Q116 259 104.5 267 Q93 275 84 287.5 Q75 300 69.5 317.5 Q64 335 64 358 Q64 383 73.5 406.5 Q83 430 103.5 448.5 Q124 467 156 478 Q188 489 232 489 Q311 489 352 458 Q393 427 404 381 L348 366 Q347 369 344.5 378.5 Q342 388 334 398 Q321 415 295.5 426 Q270 437 231 437 Q174 437 148 414.5 Q122 392 122 358 Q122 336 133 322 Q144 308 159.5 299.5 Q175 291 192 287 Q209 283 222 280 L271 270 Q279 268 301 262 Q323 256 346 241 Q369 226 386.5 200.5 Q404 175 404 134 Z M246 558 L219 558 L85 696 L136 696 L234 631 L324 696 L373 696 L246 558 Z " />
<glyph glyph-name="scedilla" unicode="&#x15f;" horiz-adv-x="458" d="M319 -109 Q319 -131 309 -146.5 Q299 -162 284 -171.5 Q269 -181 251 -185.5 Q233 -190 217 -190 Q207 -190 196 -189 Q185 -188 180 -187 L180 -160 Q187 -161 195.5 -161.5 Q204 -162 212 -162 Q239 -162 253.5 -150.5 Q268 -139 268 -122 Q268 -108 255.5 -96.5 Q243 -85 219 -85 Q205 -85 195 -89 Q185 -93 180 -95 L180 -70 L214 -12 Q160 -10 112 18.5 Q64 47 34 116 L92 137 Q93 134 95.5 126 Q98 118 103 109 Q117 83 147 62.5 Q177 42 226 42 Q289 42 318 70 Q347 98 347 135 Q347 157 337.5 172 Q328 187 313.5 196.5 Q299 206 282 211.5 Q265 217 249 220 Q224 225 188 232.5 Q152 240 127 253 Q116 259 104.5 267 Q93 275 84 287.5 Q75 300 69.5 317.5 Q64 335 64 358 Q64 383 73.5 406.5 Q83 430 103.5 448.5 Q124 467 156 478 Q188 489 232 489 Q311 489 352 458 Q393 427 404 381 L348 366 Q347 369 344.5 378.5 Q342 388 334 398 Q321 415 295.5 426 Q270 437 231 437 Q174 437 148 414.5 Q122 392 122 358 Q122 336 133 322 Q144 308 159.5 299.5 Q175 291 192 287 Q209 283 222 280 L271 270 Q279 268 301 262 Q323 256 346 241 Q369 226 386.5 200.5 Q404 175 404 134 Q404 111 395 86.5 Q386 62 366.5 41 Q347 20 315.5 5 Q284 -10 239 -12 L221 -47 Q229 -45 234 -44.5 Q239 -44 251 -44 Q278 -44 298.5 -60.5 Q319 -77 319 -109 Z " />
<glyph glyph-name="scommaaccent" unicode="&#x219;" horiz-adv-x="458" d="M404 134 Q404 111 394.5 85 Q385 59 364 37.5 Q343 16 309 2 Q275 -12 226 -12 Q197 -12 169.5 -5.5 Q142 1 117 16 Q92 31 71 55.5 Q50 80 34 116 L92 137 Q93 134 95.5 126 Q98 118 103 109 Q117 83 147 62.5 Q177 42 226 42 Q289 42 318 70 Q347 98 347 135 Q347 157 337.5 172 Q328 187 313.5 196.5 Q299 206 282 211.5 Q265 217 249 220 Q224 225 188 232.5 Q152 240 127 253 Q116 259 104.5 267 Q93 275 84 287.5 Q75 300 69.5 317.5 Q64 335 64 358 Q64 383 73.5 406.5 Q83 430 103.5 448.5 Q124 467 156 478 Q188 489 232 489 Q311 489 352 458 Q393 427 404 381 L348 366 Q347 369 344.5 378.5 Q342 388 334 398 Q321 415 295.5 426 Q270 437 231 437 Q174 437 148 414.5 Q122 392 122 358 Q122 336 133 322 Q144 308 159.5 299.5 Q175 291 192 287 Q209 283 222 280 L271 270 Q279 268 301 262 Q323 256 346 241 Q369 226 386.5 200.5 Q404 175 404 134 Z M193 -189 Q213 -178 219 -163.5 Q225 -149 229 -130 L198 -130 L198 -59 L265 -59 L265 -106 Q265 -143 255 -174.5 Q245 -206 211 -223 L193 -189 Z " />
<glyph glyph-name="germandbls" unicode="&#xdf;" horiz-adv-x="505" d="M461 188 Q461 152 452 115.5 Q443 79 423.5 50 Q404 21 373.5 3 Q343 -15 300 -15 Q264 -15 234 -3.5 Q204 8 191 16 L191 84 Q215 67 241 53 Q267 39 301 39 Q346 39 371.5 78.5 Q397 118 397 187 Q397 212 391 243.5 Q385 275 365.5 303 Q346 331 308.5 350 Q271 369 209 369 L178 369 L178 427 L203 427 Q217 427 233.5 428.5 Q250 430 257 432 Q292 440 309 452.5 Q326 465 339 485 Q345 494 351 511.5 Q357 529 357 555 Q357 603 329 635 Q301 667 250 667 Q208 667 184 650 Q160 633 148.5 608 Q137 583 134.5 555 Q132 527 132 505 L132 0 L75 0 L75 498 Q75 525 76.5 551 Q78 577 84.5 601 Q91 625 103 646.5 Q115 668 136 686 Q153 700 181.5 712 Q210 724 252 724 Q289 724 316.5 714 Q344 704 363 688 Q382 672 393.5 652 Q405 632 411 613 Q418 593 419 577.5 Q420 562 420 555 Q420 517 408.5 489.5 Q397 462 379.5 444 Q362 426 341.5 416.5 Q321 407 302 405 Q322 402 343 395.5 Q364 389 384 374 Q411 353 426.5 324.5 Q442 296 449.5 269 Q457 242 459 219.5 Q461 197 461 188 Z " />
<glyph glyph-name="tcaron" unicode="&#x165;" horiz-adv-x="292" d="M272 14 Q260 5 248 0.5 Q236 -4 225 -6 Q214 -8 206.5 -8.5 Q199 -9 196 -9 Q166 -9 148.5 -0.5 Q131 8 122.5 22.5 Q114 37 112 56.5 Q110 76 110 97 L110 427 L10 427 L10 477 L110 477 L110 680 L167 680 L167 477 L272 477 L272 427 L167 427 L167 98 Q167 43 205 43 Q216 43 231 48.5 Q246 54 272 73 L272 14 L272 14 Z M235 634 L235 724 L302 724 L302 634 Q302 588 290 558.5 Q278 529 246 511 L229 545 Q251 558 259 578.5 Q267 599 268 634 L235 634 Z " />
<glyph glyph-name="tcommaaccent" unicode="&#x163;" horiz-adv-x="292" d="M265 -109 Q265 -131 255 -146.5 Q245 -162 230 -171.5 Q215 -181 197 -185.5 Q179 -190 163 -190 Q153 -190 142 -189 Q131 -188 126 -187 L126 -160 Q133 -161 141.5 -161.5 Q150 -162 158 -162 Q185 -162 199.5 -150.5 Q214 -139 214 -122 Q214 -108 201.5 -96.5 Q189 -85 165 -85 Q151 -85 141 -89 Q131 -93 126 -95 L126 -70 L163 -5 Q144 -1 133.5 9 Q123 19 117.5 32.5 Q112 46 111 62.5 Q110 79 110 97 L110 427 L10 427 L10 477 L110 477 L110 680 L167 680 L167 477 L272 477 L272 427 L167 427 L167 98 Q167 43 205 43 Q216 43 231 48.5 Q246 54 272 73 L272 14 Q260 5 248 0.5 Q236 -4 225 -6 Q214 -8 206.5 -8.5 Q199 -9 196 -9 Q193 -9 190.5 -8.5 Q188 -8 186 -8 L167 -47 Q175 -45 180 -44.5 Q185 -44 197 -44 Q224 -44 244.5 -60.5 Q265 -77 265 -109 Z " />
<glyph glyph-name="uni021B" unicode="&#x21b;" horiz-adv-x="292" d="M133 -189 Q153 -178 159 -163.5 Q165 -149 169 -130 L138 -130 L138 -59 L205 -59 L205 -106 Q205 -143 195 -174.5 Q185 -206 151 -223 L133 -189 Z M272 14 Q260 5 248 0.5 Q236 -4 225 -6 Q214 -8 206.5 -8.5 Q199 -9 196 -9 Q166 -9 148.5 -0.5 Q131 8 122.5 22.5 Q114 37 112 56.5 Q110 76 110 97 L110 427 L10 427 L10 477 L110 477 L110 680 L167 680 L167 477 L272 477 L272 427 L167 427 L167 98 Q167 43 205 43 Q216 43 231 48.5 Q246 54 272 73 L272 14 L272 14 Z " />
<glyph glyph-name="ugrave" unicode="&#xf9;" horiz-adv-x="521" d="M387 0 L387 86 Q385 82 380 71 Q375 60 367 49 Q339 12 304 0.5 Q269 -11 235 -11 L232 -11 Q226 -11 215.5 -10.5 Q205 -10 192 -7 Q179 -4 164 2.5 Q149 9 135 21 Q113 39 101 60.5 Q89 82 83 108.5 Q77 135 76 168 Q75 201 75 243 L75 477 L135 477 L135 197 Q135 171 137.5 143.5 Q140 116 150.5 94 Q161 72 183 58 Q205 44 244 44 Q267 44 292.5 50.5 Q318 57 340 79 Q373 111 380 150.5 Q387 190 387 235 L387 477 L446 477 L446 0 L387 0 Z M269 558 L98 698 L210 698 L322 558 L269 558 Z " />
<glyph glyph-name="uacute" unicode="&#xfa;" horiz-adv-x="521" d="M387 0 L387 86 Q385 82 380 71 Q375 60 367 49 Q339 12 304 0.5 Q269 -11 235 -11 L232 -11 Q226 -11 215.5 -10.5 Q205 -10 192 -7 Q179 -4 164 2.5 Q149 9 135 21 Q113 39 101 60.5 Q89 82 83 108.5 Q77 135 76 168 Q75 201 75 243 L75 477 L135 477 L135 197 Q135 171 137.5 143.5 Q140 116 150.5 94 Q161 72 183 58 Q205 44 244 44 Q267 44 292.5 50.5 Q318 57 340 79 Q373 111 380 150.5 Q387 190 387 235 L387 477 L446 477 L446 0 L387 0 Z M249 558 L196 558 L308 698 L419 698 L249 558 Z " />
<glyph glyph-name="ucircumflex" unicode="&#xfb;" horiz-adv-x="521" d="M387 0 L387 86 Q385 82 380 71 Q375 60 367 49 Q339 12 304 0.5 Q269 -11 235 -11 L232 -11 Q226 -11 215.5 -10.5 Q205 -10 192 -7 Q179 -4 164 2.5 Q149 9 135 21 Q113 39 101 60.5 Q89 82 83 108.5 Q77 135 76 168 Q75 201 75 243 L75 477 L135 477 L135 197 Q135 171 137.5 143.5 Q140 116 150.5 94 Q161 72 183 58 Q205 44 244 44 Q267 44 292.5 50.5 Q318 57 340 79 Q373 111 380 150.5 Q387 190 387 235 L387 477 L446 477 L446 0 L387 0 Z M351 558 L253 623 L164 558 L114 558 L242 696 L268 696 L402 558 L351 558 Z " />
<glyph glyph-name="udieresis" unicode="&#xfc;" horiz-adv-x="521" d="M387 0 L387 86 Q385 82 380 71 Q375 60 367 49 Q339 12 304 0.5 Q269 -11 235 -11 L232 -11 Q226 -11 215.5 -10.5 Q205 -10 192 -7 Q179 -4 164 2.5 Q149 9 135 21 Q113 39 101 60.5 Q89 82 83 108.5 Q77 135 76 168 Q75 201 75 243 L75 477 L135 477 L135 197 Q135 171 137.5 143.5 Q140 116 150.5 94 Q161 72 183 58 Q205 44 244 44 Q267 44 292.5 50.5 Q318 57 340 79 Q373 111 380 150.5 Q387 190 387 235 L387 477 L446 477 L446 0 L387 0 Z M312 582 L312 674 L373 674 L373 582 L312 582 Z M140 582 L140 674 L201 674 L201 582 L140 582 Z " />
<glyph glyph-name="umacron" unicode="&#x16b;" horiz-adv-x="521" d="M387 0 L387 86 Q385 82 380 71 Q375 60 367 49 Q339 12 304 0.5 Q269 -11 235 -11 L232 -11 Q226 -11 215.5 -10.5 Q205 -10 192 -7 Q179 -4 164 2.5 Q149 9 135 21 Q113 39 101 60.5 Q89 82 83 108.5 Q77 135 76 168 Q75 201 75 243 L75 477 L135 477 L135 197 Q135 171 137.5 143.5 Q140 116 150.5 94 Q161 72 183 58 Q205 44 244 44 Q267 44 292.5 50.5 Q318 57 340 79 Q373 111 380 150.5 Q387 190 387 235 L387 477 L446 477 L446 0 L387 0 Z M144 582 L144 644 L377 644 L377 582 L144 582 Z " />
<glyph glyph-name="uring" unicode="&#x16f;" horiz-adv-x="521" d="M387 0 L387 86 Q385 82 380 71 Q375 60 367 49 Q339 12 304 0.5 Q269 -11 235 -11 L232 -11 Q226 -11 215.5 -10.5 Q205 -10 192 -7 Q179 -4 164 2.5 Q149 9 135 21 Q113 39 101 60.5 Q89 82 83 108.5 Q77 135 76 168 Q75 201 75 243 L75 477 L135 477 L135 197 Q135 171 137.5 143.5 Q140 116 150.5 94 Q161 72 183 58 Q205 44 244 44 Q267 44 292.5 50.5 Q318 57 340 79 Q373 111 380 150.5 Q387 190 387 235 L387 477 L446 477 L446 0 L387 0 Z M341 632 Q341 599 317.5 575.5 Q294 552 261 552 Q228 552 204.5 575.5 Q181 599 181 632 Q181 665 204.5 688.5 Q228 712 261 712 Q294 712 317.5 688.5 Q341 665 341 632 Z M303 632 Q303 650 290.5 662 Q278 674 261 674 Q244 674 231.5 661.5 Q219 649 219 632 Q219 615 231.5 602.5 Q244 590 261 590 Q278 590 290.5 602 Q303 614 303 632 Z " />
<glyph glyph-name="uhungarumlaut" unicode="&#x171;" horiz-adv-x="521" d="M387 0 L387 86 Q385 82 380 71 Q375 60 367 49 Q339 12 304 0.5 Q269 -11 235 -11 L232 -11 Q226 -11 215.5 -10.5 Q205 -10 192 -7 Q179 -4 164 2.5 Q149 9 135 21 Q113 39 101 60.5 Q89 82 83 108.5 Q77 135 76 168 Q75 201 75 243 L75 477 L135 477 L135 197 Q135 171 137.5 143.5 Q140 116 150.5 94 Q161 72 183 58 Q205 44 244 44 Q267 44 292.5 50.5 Q318 57 340 79 Q373 111 380 150.5 Q387 190 387 235 L387 477 L446 477 L446 0 L387 0 Z M310 558 L257 558 L368 698 L480 698 L310 558 Z M162 558 L109 558 L221 698 L333 698 L162 558 Z " />
<glyph glyph-name="uogonek" unicode="&#x173;" horiz-adv-x="521" d="M450 -163 Q443 -164 437.5 -164 Q432 -164 425 -164 Q376 -164 348 -146.5 Q320 -129 320 -97 Q320 -69 341.5 -44.5 Q363 -20 387 0 L387 85 Q385 81 380 70.5 Q375 60 367 49 Q339 12 304 0.5 Q269 -11 235 -11 L232 -11 Q226 -11 215.5 -10.5 Q205 -10 192 -7 Q179 -4 164 2.5 Q149 9 135 21 Q113 39 101 60.5 Q89 82 83 108.5 Q77 135 76 168 Q75 201 75 243 L75 477 L135 477 L135 197 Q135 171 137.5 143.5 Q140 116 150.5 94 Q161 72 183 58 Q205 44 244 44 Q267 44 292.5 50.5 Q318 57 340 79 Q373 111 380 150.5 Q387 190 387 235 L387 477 L446 477 L446 0 L433 0 Q427 -5 417.5 -12.5 Q408 -20 399 -30.5 Q390 -41 383.5 -52.5 Q377 -64 377 -76 Q377 -91 384 -99 Q391 -107 400.5 -111 Q410 -115 420.5 -116 Q431 -117 439 -117 L450 -117 L450 -163 L450 -163 Z " />
<glyph glyph-name="yacute" unicode="&#xfd;" horiz-adv-x="411" d="M196 -69 Q179 -111 166.5 -143 Q154 -175 140 -197 Q126 -219 107 -230.5 Q88 -242 58 -242 Q51 -242 33.5 -239.5 Q16 -237 -5 -223 L-5 -163 Q3 -168 19.5 -177 Q36 -186 58 -186 Q72 -186 84.5 -176.5 Q97 -167 108 -144 Q116 -126 124.5 -106.5 Q133 -87 141 -66 L165 0 L0 477 L57 477 L196 71 L351 477 L411 477 L196 -69 Z M215 558 L162 558 L274 698 L385 698 L215 558 Z " />
<glyph glyph-name="ydieresis" unicode="&#xff;" horiz-adv-x="411" d="M196 -69 Q179 -111 166.5 -143 Q154 -175 140 -197 Q126 -219 107 -230.5 Q88 -242 58 -242 Q51 -242 33.5 -239.5 Q16 -237 -5 -223 L-5 -163 Q3 -168 19.5 -177 Q36 -186 58 -186 Q72 -186 84.5 -176.5 Q97 -167 108 -144 Q116 -126 124.5 -106.5 Q133 -87 141 -66 L165 0 L0 477 L57 477 L196 71 L351 477 L411 477 L196 -69 Z M254 582 L254 674 L315 674 L315 582 L254 582 Z M82 582 L82 674 L143 674 L143 582 L82 582 Z " />
<glyph glyph-name="zacute" unicode="&#x17a;" horiz-adv-x="396" d="M28 0 L28 37 L286 426 L50 426 L50 477 L369 477 L369 442 L111 53 L376 53 L376 0 L28 0 Z M189 558 L136 558 L248 698 L359 698 L189 558 Z " />
<glyph glyph-name="zcaron" unicode="&#x17e;" horiz-adv-x="396" d="M28 0 L28 37 L286 426 L50 426 L50 477 L369 477 L369 442 L111 53 L376 53 L376 0 L28 0 Z M226 558 L199 558 L65 696 L116 696 L214 631 L304 696 L353 696 L226 558 Z " />
<glyph glyph-name="zdotaccent" unicode="&#x17c;" horiz-adv-x="396" d="M28 0 L28 37 L286 426 L50 426 L50 477 L369 477 L369 442 L111 53 L376 53 L376 0 L28 0 Z M167 582 L167 674 L228 674 L228 582 L167 582 Z " />
<glyph glyph-name="eth" unicode="&#xf0;" horiz-adv-x="521" d="M477 266 Q477 223 472 192 Q467 161 462 144 Q454 120 439.5 93.5 Q425 67 400.5 44 Q376 21 341 6 Q306 -9 259 -9 Q202 -9 161.5 12 Q121 33 94.5 67.5 Q68 102 56 146.5 Q44 191 44 237 Q44 260 48 289.5 Q52 319 63 349 Q74 379 93 407.5 Q112 436 143 457 Q161 470 190.5 481 Q220 492 259 492 Q288 492 310 485.5 Q332 479 348.5 468.5 Q365 458 377 445 Q389 432 400 419 Q395 441 381.5 480.5 Q368 520 333 575 L174 524 L158 561 L310 609 Q285 642 267.5 660 Q250 678 233 695 L276 721 Q300 695 318.5 674 Q337 653 358 625 L449 654 L464 616 L383 590 Q426 515 451.5 435 Q477 355 477 266 Z M414 240 Q414 294 402 332 Q390 370 370 394.5 Q350 419 322 430.5 Q294 442 263 442 Q229 442 205.5 431.5 Q182 421 168 409 Q138 383 122.5 340.5 Q107 298 107 235 Q107 182 119.5 145.5 Q132 109 153 86.5 Q174 64 201 53.5 Q228 43 257 43 Q286 43 314 53 Q342 63 364.5 86.5 Q387 110 400.5 147.5 Q414 185 414 240 Z " />
<glyph glyph-name="thorn" unicode="&#xfe;" horiz-adv-x="521" d="M477 241 Q477 200 466.5 155.5 Q456 111 432.5 74 Q409 37 371.5 13 Q334 -11 280 -11 Q248 -11 223 -3 Q198 5 180 18 Q162 31 150.5 47.5 Q139 64 133 80 L133 -253 L75 -253 L75 706 L133 706 L133 399 Q148 432 169.5 449.5 Q191 467 212.5 475.5 Q234 484 251.5 485.5 Q269 487 277 487 Q331 487 366.5 466 Q402 445 423.5 416 Q445 387 455 357.5 Q465 328 469 311 Q471 303 474 283.5 Q477 264 477 241 Z M416 241 Q416 295 403 331.5 Q390 368 369 390.5 Q348 413 321.5 423 Q295 433 268 433 Q224 433 197 413.5 Q170 394 156 365.5 Q142 337 137.5 304.5 Q133 272 133 245 L133 224 Q133 207 134.5 186.5 Q136 166 142 145 Q148 124 159.5 104.5 Q171 85 192 69 Q203 61 221.5 53 Q240 45 267 45 Q313 45 342 66.5 Q371 88 387.5 118.5 Q404 149 410 182.5 Q416 216 416 241 Z " />
<glyph glyph-name="fi" unicode="&#xfb01;" horiz-adv-x="508" d="M174 427 L174 0 L115 0 L115 427 L10 427 L10 477 L115 477 L115 592 Q115 616 117.5 639 Q120 662 130.5 680 Q141 698 162 709 Q183 720 221 720 Q236 720 251.5 718 Q267 716 282 713 L282 655 Q263 665 247.5 666.5 Q232 668 226 668 Q208 668 198 661.5 Q188 655 182.5 645.5 Q177 636 175.5 624 Q174 612 174 600 L174 477 L282 477 L282 427 L174 427 Z M375 589 L375 680 L433 680 L433 589 L375 589 Z M375 0 L375 477 L433 477 L433 0 L375 0 Z " />
<glyph glyph-name="fl" unicode="&#xfb02;" horiz-adv-x="508" d="M174 427 L174 0 L115 0 L115 427 L10 427 L10 477 L115 477 L115 592 Q115 616 117.5 639 Q120 662 130.5 680 Q141 698 162 709 Q183 720 221 720 Q236 720 251.5 718 Q267 716 282 713 L282 655 Q263 665 247.5 666.5 Q232 668 226 668 Q208 668 198 661.5 Q188 655 182.5 645.5 Q177 636 175.5 624 Q174 612 174 600 L174 477 L282 477 L282 427 L174 427 Z M374 0 L374 706 L434 706 L434 0 L374 0 Z " />
<glyph glyph-name="ampersand" unicode="&#x26;" horiz-adv-x="646" d="M620 -9 Q590 -9 567 0.5 Q544 10 526 24 Q508 38 494.5 54 Q481 70 469 83 Q449 56 424.5 38.5 Q400 21 374 10.5 Q348 0 322 -4 Q296 -8 274 -8 Q239 -8 215 -2 Q191 4 177 10 Q145 23 122 43 Q99 63 84 87 Q69 111 62 137 Q55 163 55 189 Q55 242 76.5 282.5 Q98 323 127.5 352 Q157 381 186.5 400 Q216 419 232 430 Q224 441 214.5 456 Q205 471 196 490 Q187 509 181 532 Q175 555 175 582 Q175 646 215 682.5 Q255 719 316 719 Q342 719 367 711.5 Q392 704 411 689 Q430 674 441.5 650.5 Q453 627 453 596 Q453 555 432 516.5 Q411 478 367 444 Q353 433 341.5 426.5 Q330 420 316 410 Q320 403 331.5 385.5 Q343 368 358 345.5 Q373 323 390 298 Q407 273 422.5 250.5 Q438 228 450.5 211 Q463 194 469 187 Q474 204 484 237.5 Q494 271 494 316 L557 316 Q557 302 554 282 Q551 262 546.5 241.5 Q542 221 536 201 Q530 181 523 167 Q518 159 515 152 Q512 145 507 137 Q512 129 517.5 122.5 Q523 116 530 108 Q546 88 558.5 77 Q571 66 581 61 Q591 56 600 54.5 Q609 53 620 52 L620 -9 Z M391 591 Q391 601 388 613.5 Q385 626 376.5 637 Q368 648 353.5 655.5 Q339 663 316 663 Q290 663 274.5 654 Q259 645 250.5 632 Q242 619 239 604.5 Q236 590 236 579 Q236 553 250 524 Q264 495 284 462 Q317 477 337.5 494.5 Q358 512 370 529.5 Q382 547 386.5 563 Q391 579 391 591 Z M435 128 Q421 150 405.5 170 Q390 190 376 211 Q354 242 338 266.5 Q322 291 302 323 Q292 339 284 351 Q276 363 266 378 Q205 342 164.5 297.5 Q124 253 124 192 Q124 158 137 131.5 Q150 105 171.5 87 Q193 69 220.5 59.5 Q248 50 277 50 Q315 50 357.5 68 Q400 86 435 128 Z " />
<glyph glyph-name="grave" unicode="&#x60;" horiz-adv-x="271" d="M194 558 L23 698 L135 698 L247 558 L194 558 Z " />
<glyph glyph-name="grave.cap" unicode="&#xf6ce;" horiz-adv-x="271" d="M180 770 L33 895 L139 895 L238 770 L180 770 Z " />
<glyph glyph-name="acute" unicode="&#xb4;" horiz-adv-x="271" d="M77 558 L24 558 L136 698 L247 698 L77 558 Z " />
<glyph glyph-name="acute.cap" unicode="&#xf6c9;" horiz-adv-x="271" d="M90 770 L33 770 L132 895 L237 895 L90 770 Z " />
<glyph glyph-name="circumflex" unicode="&#x2c6;" horiz-adv-x="271" d="M229 558 L131 623 L42 558 L-8 558 L120 696 L146 696 L280 558 L229 558 Z " />
<glyph glyph-name="circumflex.cap" unicode="&#xeff7;" horiz-adv-x="271" d="M212 772 L134 828 L57 772 L10 772 L115 895 L157 895 L261 772 L212 772 Z " />
<glyph glyph-name="caron" unicode="&#x2c7;" horiz-adv-x="271" d="M152 558 L125 558 L-9 696 L42 696 L140 631 L230 696 L279 696 L152 558 Z " />
<glyph glyph-name="caron.cap" unicode="&#xf6ca;" horiz-adv-x="271" d="M156 772 L114 772 L10 895 L59 895 L137 839 L214 895 L261 895 L156 772 Z " />
<glyph glyph-name="commaaccent" unicode="&#xf6c3;" horiz-adv-x="270" d="M103 -189 Q123 -178 129 -163.5 Q135 -149 139 -130 L108 -130 L108 -59 L175 -59 L175 -106 Q175 -143 165 -174.5 Q155 -206 121 -223 L103 -189 Z " />
<glyph glyph-name="tilde" unicode="&#x2dc;" horiz-adv-x="271" d="M292 665 Q290 662 284 647.5 Q278 633 267 617 Q256 601 239 588 Q222 575 198 575 Q176 575 154 586 Q132 597 110 608 Q92 616 84.5 619.5 Q77 623 68 623 Q48 623 38.5 609.5 Q29 596 22 581 L-20 590 Q-18 594 -12.5 608.5 Q-7 623 4.5 638.5 Q16 654 33 666 Q50 678 76 678 Q88 678 100.5 674 Q113 670 124.5 664.5 Q136 659 144.5 654 Q153 649 157 648 Q158 648 163 645.5 Q168 643 174.5 640 Q181 637 189 634.5 Q197 632 203 632 Q215 632 224 637.5 Q233 643 238.5 650.5 Q244 658 247 665 Q250 672 252 675 L292 665 L292 665 Z " />
<glyph glyph-name="tilde.cap" unicode="&#xeff5;" horiz-adv-x="271" d="M303 867 Q303 866 297 851.5 Q291 837 279.5 819.5 Q268 802 250 788 Q232 774 207 774 Q180 774 154.5 787 Q129 800 109 811 Q98 817 84.5 823 Q71 829 60 829 Q48 829 39.5 823.5 Q31 818 25 809.5 Q19 801 14.5 791.5 Q10 782 7 774 L-33 787 Q-33 788 -27 804.5 Q-21 821 -9 840 Q3 859 21.5 874.5 Q40 890 67 890 Q90 890 113 878.5 Q136 867 159 853 Q163 851 177 842.5 Q191 834 205 834 Q222 834 235.5 846 Q249 858 260 886 L303 867 L303 867 Z " />
<glyph glyph-name="dieresis" unicode="&#xa8;" horiz-adv-x="271" d="M191 582 L191 674 L252 674 L252 582 L191 582 Z M19 582 L19 674 L80 674 L80 582 L19 582 Z " />
<glyph glyph-name="dieresis.cap" unicode="&#xf6cb;" horiz-adv-x="271" d="M212 784 L212 881 L279 881 L279 784 L212 784 Z M-7 784 L-7 881 L60 881 L60 784 L-7 784 Z " />
<glyph glyph-name="macron" unicode="&#xaf;" horiz-adv-x="271" d="M19 582 L19 644 L252 644 L252 582 L19 582 Z " />
<glyph glyph-name="breve" unicode="&#x2d8;" horiz-adv-x="271" d="M276 684 Q272 660 262 641.5 Q252 623 239 609.5 Q226 596 212 587 Q198 578 188 574 Q180 571 164.5 567.5 Q149 564 129 564 Q104 564 81 572 Q58 580 39.5 595.5 Q21 611 9 633.5 Q-3 656 -5 684 L39 684 Q45 661 58 648 Q71 635 85.5 629 Q100 623 112.5 621.5 Q125 620 130 620 L132 620 Q144 620 159.5 623 Q175 626 190 633.5 Q205 641 217 653 Q229 665 232 684 L276 684 L276 684 Z " />
<glyph glyph-name="ring" unicode="&#x2da;" horiz-adv-x="271" d="M215 632 Q215 599 191.5 575.5 Q168 552 135 552 Q102 552 78.5 575.5 Q55 599 55 632 Q55 665 78.5 688.5 Q102 712 135 712 Q168 712 191.5 688.5 Q215 665 215 632 Z M177 632 Q177 650 164.5 662 Q152 674 135 674 Q118 674 105.5 661.5 Q93 649 93 632 Q93 615 105.5 602.5 Q118 590 135 590 Q152 590 164.5 602 Q177 614 177 632 Z " />
<glyph glyph-name="hungarumlaut" unicode="&#x2dd;" horiz-adv-x="271" d="M151 558 L98 558 L209 698 L321 698 L151 558 Z M3 558 L-50 558 L62 698 L174 698 L3 558 Z " />
<glyph glyph-name="dotaccent" unicode="&#x2d9;" horiz-adv-x="271" d="M105 582 L105 674 L166 674 L166 582 L105 582 Z " />
<glyph glyph-name="cedilla" unicode="&#xb8;" horiz-adv-x="271" d="M205 -109 Q205 -131 195 -146.5 Q185 -162 170 -171.5 Q155 -181 137 -185.5 Q119 -190 103 -190 Q93 -190 82 -189 Q71 -188 66 -187 L66 -160 Q73 -161 81.5 -161.5 Q90 -162 98 -162 Q125 -162 139.5 -150.5 Q154 -139 154 -122 Q154 -108 141.5 -96.5 Q129 -85 105 -85 Q91 -85 81 -89 Q71 -93 66 -95 L66 -70 L107 0 L131 0 L107 -47 Q115 -45 120 -44.5 Q125 -44 137 -44 Q164 -44 184.5 -60.5 Q205 -77 205 -109 Z " />
<glyph glyph-name="ogonek" unicode="&#x2db;" horiz-adv-x="271" d="M201 -163 Q194 -164 188.5 -164 Q183 -164 176 -164 Q127 -164 99 -146.5 Q71 -129 71 -97 Q71 -82 78 -68 Q85 -54 96 -41 Q107 -28 120 -16 Q133 -4 146 6 L192 5 Q190 4 180 -3.5 Q170 -11 158.5 -22 Q147 -33 137.5 -47 Q128 -61 128 -76 Q128 -91 135 -99 Q142 -107 151.5 -111 Q161 -115 171.5 -116 Q182 -117 190 -117 L201 -117 L201 -163 L201 -163 Z " />
<glyph glyph-name="comma" unicode="&#x2c;" horiz-adv-x="167" d="M123 36 Q123 -4 121.5 -30.5 Q120 -57 115 -78 Q110 -99 101 -117.5 Q92 -136 77 -158 L44 -135 Q52 -122 59 -109.5 Q66 -97 71 -82.5 Q76 -68 79 -50 Q82 -32 82 -6 L82 0 L44 0 L44 116 L123 116 L123 36 L123 36 Z " />
<glyph glyph-name="semicolon" unicode="&#x3b;" horiz-adv-x="208" d="M64 352 L64 468 L143 468 L143 352 L64 352 Z M143 1 Q143 -20 142 -38.5 Q141 -57 136 -75.5 Q131 -94 121.5 -114 Q112 -134 96 -158 L64 -135 Q72 -122 79 -109.5 Q86 -97 91 -82.5 Q96 -68 99 -50 Q102 -32 102 -6 L102 0 L64 0 L64 116 L143 116 L143 36 L143 1 Z " />
<glyph glyph-name="colon" unicode="&#x3a;" horiz-adv-x="208" d="M64 352 L64 468 L143 468 L143 352 L64 352 Z M64 0 L64 116 L143 116 L143 0 L64 0 Z " />
<glyph glyph-name="period" unicode="&#x2e;" horiz-adv-x="167" d="M44 0 L44 116 L123 116 L123 0 L44 0 Z " />
<glyph glyph-name="ellipsis" unicode="&#x2026;" horiz-adv-x="1000" d="M880 41 Q880 22 866.5 8 Q853 -6 834 -6 Q815 -6 801 8 Q787 22 787 41 Q787 60 801 73.5 Q815 87 834 87 Q853 87 866.5 73.5 Q880 60 880 41 Z M547 41 Q547 22 533.5 8 Q520 -6 501 -6 Q482 -6 468 8 Q454 22 454 41 Q454 60 468 73.5 Q482 87 501 87 Q520 87 533.5 73.5 Q547 60 547 41 Z M213 41 Q213 22 199.5 8 Q186 -6 167 -6 Q148 -6 134 8 Q120 22 120 41 Q120 60 134 73.5 Q148 87 167 87 Q186 87 199.5 73.5 Q213 60 213 41 Z " />
<glyph glyph-name="hyphen" unicode="&#x2d;" horiz-adv-x="354" d="M38 293 L38 358 L317 358 L317 293 L38 293 Z " />
<glyph glyph-name="exclam" unicode="&#x21;" horiz-adv-x="208" d="M127 176 L80 176 L72 307 L72 712 L136 712 L136 307 L127 176 Z M66 0 L66 116 L142 116 L142 0 L66 0 Z " />
<glyph glyph-name="exclamdown" unicode="&#xa1;" horiz-adv-x="208" d="M67 596 L67 712 L142 712 L142 596 L67 596 Z M72 0 L72 405 L81 536 L128 536 L137 405 L137 0 L72 0 Z " />
<glyph glyph-name="question" unicode="&#x3f;" horiz-adv-x="454" d="M422 525 Q422 491 415 465 Q408 439 393.5 415.5 Q379 392 357 369.5 Q335 347 305 319 Q280 296 266 282 Q252 268 245 255.5 Q238 243 236.5 228.5 Q235 214 235 189 L235 169 L173 169 L173 204 Q173 230 175.5 247.5 Q178 265 186 280 Q194 295 209 311.5 Q224 328 249 351 Q273 374 293.5 394 Q314 414 328 434 Q342 454 350 475.5 Q358 497 358 524 Q358 537 352.5 560 Q347 583 332 605 Q317 627 290 643 Q263 659 220 659 Q157 659 122.5 622 Q88 585 88 524 Q88 491 97 464.5 Q106 438 113 427 L38 449 Q36 462 31.5 481 Q27 500 27 529 Q27 574 41.5 609.5 Q56 645 82 669 Q108 693 144 705.5 Q180 718 222 718 Q250 718 271 713.5 Q292 709 303 704 Q322 696 343 682 Q364 668 381.5 646 Q399 624 410.5 594 Q422 564 422 525 Z M166 0 L166 116 L244 116 L244 0 L166 0 Z " />
<glyph glyph-name="questiondown" unicode="&#xbf;" horiz-adv-x="454" d="M210 590 L210 706 L288 706 L288 590 L210 590 Z M427 177 Q427 132 412.5 96.5 Q398 61 372 37 Q346 13 310 0.5 Q274 -12 232 -12 Q204 -12 183 -7.5 Q162 -3 151 2 Q132 9 111 23.5 Q90 38 72.5 60 Q55 82 43.5 112 Q32 142 32 181 Q32 215 39 241 Q46 267 60.5 290.5 Q75 314 97 336.5 Q119 359 149 387 Q174 410 188 424 Q202 438 209 450.5 Q216 463 217.5 477.5 Q219 492 219 517 L219 537 L281 537 L281 502 Q281 476 278.5 458.5 Q276 441 268 426 Q260 411 245 394.5 Q230 378 205 355 Q181 332 160.5 312 Q140 292 126 272 Q112 252 104 230.5 Q96 209 96 182 Q96 168 101 145.5 Q106 123 121 101 Q136 79 163 63 Q190 47 234 47 Q297 47 331.5 84 Q366 121 366 182 Q366 215 357 241.5 Q348 268 341 279 L416 257 Q418 244 422.5 225 Q427 206 427 177 Z " />
<glyph glyph-name="quoteleft" unicode="&#x2018;" horiz-adv-x="167" d="M44 432 L44 512 Q44 552 45.5 579 Q47 606 52 627 Q57 648 66 666 Q75 684 90 706 L122 684 Q114 670 107 658 Q100 646 95 631.5 Q90 617 87 598.5 Q84 580 84 555 L84 549 L122 549 L122 432 L44 432 Z " />
<glyph glyph-name="quoteright" unicode="&#x2019;" horiz-adv-x="167" d="M123 627 Q123 587 121.5 560 Q120 533 115 512 Q110 491 101 473 Q92 455 77 432 L44 455 Q52 468 59 480.5 Q66 493 71 507.5 Q76 522 79 540 Q82 558 82 584 L82 590 L44 590 L44 706 L123 706 L123 627 L123 627 Z " />
<glyph glyph-name="quotedblleft" unicode="&#x201c;" horiz-adv-x="302" d="M179 432 L179 512 L179 535 Q179 558 180 578.5 Q181 599 185.5 619.5 Q190 640 199 661 Q208 682 225 706 L258 684 Q250 670 243 658 Q236 646 231 631.5 Q226 617 223 598.5 Q220 580 220 555 L220 549 L258 549 L258 432 L179 432 Z M44 432 L44 512 Q44 552 45.5 579 Q47 606 52 627 Q57 648 66 666 Q75 684 90 706 L123 684 Q118 679 114 670.5 Q110 662 107 657 Q98 639 91 616 Q84 593 84 555 L84 549 L123 549 L123 432 L44 432 Z " />
<glyph glyph-name="quotedblright" unicode="&#x201d;" horiz-adv-x="302" d="M258 586 Q258 566 256.5 548 Q255 530 250.5 512 Q246 494 237 475 Q228 456 212 432 L179 455 Q183 460 186.5 466 Q190 472 195 482 Q204 500 210.5 523 Q217 546 217 584 L217 590 L179 590 L179 706 L258 706 L258 627 L258 586 Z M123 627 Q123 595 122 572 Q121 549 118 531 Q115 513 110 498 Q105 483 97 466 Q92 456 87 449 Q82 442 77 432 L44 455 Q52 468 59 480.5 Q66 493 71 507.5 Q76 522 79 540 Q82 558 82 584 L82 590 L44 590 L44 706 L123 706 L123 627 Z " />
<glyph glyph-name="quotesinglbase" unicode="&#x201a;" horiz-adv-x="167" d="M123 36 Q123 -4 121.5 -30.5 Q120 -57 115 -78 Q110 -99 101 -117.5 Q92 -136 77 -158 L44 -135 Q52 -122 59 -109.5 Q66 -97 71 -82.5 Q76 -68 79 -50 Q82 -32 82 -6 L82 0 L44 0 L44 116 L123 116 L123 36 L123 36 Z " />
<glyph glyph-name="quotedblbase" unicode="&#x201e;" horiz-adv-x="302" d="M258 -4 Q258 -24 256.5 -42 Q255 -60 250.5 -78 Q246 -96 237 -115 Q228 -134 212 -158 L179 -135 Q183 -131 186.5 -125 Q190 -119 195 -108 Q204 -90 210.5 -67 Q217 -44 217 -6 L217 0 L179 0 L179 116 L258 116 L258 36 L258 -4 Z M123 36 Q123 4 122 -18.5 Q121 -41 118 -59 Q115 -77 110 -92 Q105 -107 97 -124 Q92 -134 87 -141 Q82 -148 77 -158 L44 -135 Q52 -122 59 -109.5 Q66 -97 71 -82.5 Q76 -68 79 -50 Q82 -32 82 -6 L82 0 L44 0 L44 116 L123 116 L123 36 Z " />
<glyph glyph-name="guilsinglleft" unicode="&#x2039;" horiz-adv-x="250" d="M161 137 L42 309 L161 494 L208 464 L109 309 L208 168 L161 137 Z " />
<glyph glyph-name="guilsinglright" unicode="&#x203a;" horiz-adv-x="250" d="M89 137 L42 167 L141 322 L42 463 L89 494 L208 322 L89 137 Z " />
<glyph glyph-name="guillemotleft" unicode="&#xab;" horiz-adv-x="385" d="M296 137 L177 309 L296 494 L343 464 L244 309 L343 168 L296 137 Z M160 137 L42 309 L160 494 L208 464 L108 309 L208 168 L160 137 Z " />
<glyph glyph-name="guillemotright" unicode="&#xbb;" horiz-adv-x="385" d="M225 137 L177 167 L276 322 L177 463 L225 494 L343 322 L225 137 Z M89 137 L42 167 L141 322 L42 463 L89 494 L208 322 L89 137 Z " />
<glyph glyph-name="slash" unicode="&#x2f;" horiz-adv-x="479" d="M86 0 L10 0 L395 706 L469 706 L86 0 Z " />
<glyph glyph-name="bar" unicode="&#x7c;" horiz-adv-x="229" d="M85 -250 L85 748 L144 748 L144 -250 L85 -250 Z " />
<glyph glyph-name="endash" unicode="&#x2013;" horiz-adv-x="500" d="M38 293 L38 358 L462 358 L462 293 L38 293 Z " />
<glyph glyph-name="emdash" unicode="&#x2014;" horiz-adv-x="1000" d="M38 293 L38 358 L962 358 L962 293 L38 293 Z " />
<glyph glyph-name="bullet" unicode="&#x2022;" horiz-adv-x="333" d="M286 353 Q286 328 276.5 306.5 Q267 285 251 269 Q235 253 213.5 243.5 Q192 234 167 234 Q142 234 120.5 243.5 Q99 253 83 269 Q67 285 57.5 306.5 Q48 328 48 353 Q48 378 57.5 399.5 Q67 421 83 437 Q99 453 120.5 462.5 Q142 472 167 472 Q192 472 213.5 462.5 Q235 453 251 437 Q267 421 276.5 399.5 Q286 378 286 353 Z " />
<glyph glyph-name="periodcentered" unicode="&#xb7;" horiz-adv-x="167" d="M44 268 L44 384 L123 384 L123 268 L44 268 Z " />
<glyph glyph-name="parenleft" unicode="&#x28;" horiz-adv-x="313" d="M295 -150 Q273 -136 244.5 -114 Q216 -92 181 -49 Q133 9 105.5 70 Q78 131 64 184.5 Q50 238 46.5 279.5 Q43 321 43 340 Q43 389 54 451.5 Q65 514 92.5 577 Q120 640 165.5 697.5 Q211 755 280 793 L289 798 L289 748 Q286 745 278 738 Q270 731 259.5 720.5 Q249 710 237.5 697.5 Q226 685 216 672 Q187 635 168 591 Q149 547 137.5 501.5 Q126 456 121 412.5 Q116 369 116 332 Q116 264 129.5 202.5 Q143 141 164 89.5 Q185 38 210.5 -2 Q236 -42 260 -67 Q269 -76 277 -83 Q285 -90 295 -98 L295 -150 L295 -150 Z " />
<glyph glyph-name="parenright" unicode="&#x29;" horiz-adv-x="313" d="M269 310 Q269 257 257 195 Q245 133 217 71.5 Q189 10 144 -46.5 Q99 -103 32 -145 L24 -150 L24 -101 Q36 -89 55.5 -71 Q75 -53 98 -23 Q126 14 145.5 57 Q165 100 176 144 Q187 188 192 231 Q197 274 197 311 Q197 379 183 441 Q169 503 147.5 555 Q126 607 100.5 647.5 Q75 688 52 714 Q43 724 35.5 730.5 Q28 737 18 746 L18 798 Q31 789 43.5 781 Q56 773 79 752 Q109 725 142 682.5 Q175 640 203.5 583.5 Q232 527 250.5 458 Q269 389 269 310 Z " />
<glyph glyph-name="bracketleft" unicode="&#x5b;" horiz-adv-x="271" d="M74 -144 L74 792 L244 792 L244 738 L135 738 L135 -92 L244 -92 L244 -144 L74 -144 Z " />
<glyph glyph-name="bracketright" unicode="&#x5d;" horiz-adv-x="271" d="M27 -144 L27 -91 L136 -91 L136 739 L27 739 L27 792 L197 792 L197 -144 L27 -144 Z " />
<glyph glyph-name="braceleft" unicode="&#x7b;" horiz-adv-x="338" d="M303 -218 Q280 -217 255.5 -214.5 Q231 -212 209 -203 Q186 -194 168.5 -174 Q151 -154 143 -117 Q140 -104 139.5 -83.5 Q139 -63 139 -30 L139 95 Q139 130 136.5 157.5 Q134 185 126 204.5 Q118 224 101.5 236 Q85 248 57 251 L57 296 Q85 299 101.5 311 Q118 323 126 342.5 Q134 362 136.5 389.5 Q139 417 139 452 L139 577 Q139 610 139.5 630.5 Q140 651 143 664 Q151 701 168.5 721 Q186 741 209 750 Q231 759 255.5 761.5 Q280 764 303 765 L303 723 Q266 722 246 709.5 Q226 697 216.5 677 Q207 657 205.5 631.5 Q204 606 204 579 L204 469 Q204 422 201.5 389 Q199 356 190.5 334.5 Q182 313 165.5 300.5 Q149 288 121 282 L121 265 Q149 259 165.5 246.5 Q182 234 190.5 212.5 Q199 191 201.5 158 Q204 125 204 78 L204 -32 Q204 -59 205.5 -84.5 Q207 -110 216.5 -130 Q226 -150 246 -162.5 Q266 -175 303 -176 L303 -218 L303 -218 Z " />
<glyph glyph-name="braceright" unicode="&#x7d;" horiz-adv-x="338" d="M281 251 Q253 248 236.5 236 Q220 224 212 204.5 Q204 185 201.5 157.5 Q199 130 199 95 L199 -30 Q199 -63 198.5 -83.5 Q198 -104 195 -117 Q187 -154 169.5 -174 Q152 -194 129 -203 Q107 -212 82.5 -214.5 Q58 -217 35 -218 L35 -176 Q72 -175 92 -162.5 Q112 -150 121.5 -130 Q131 -110 132.5 -84.5 Q134 -59 134 -32 L134 78 Q134 125 136.5 158 Q139 191 147.5 212.5 Q156 234 172.5 246.5 Q189 259 217 265 L217 282 Q189 288 172.5 300.5 Q156 313 147.5 334.5 Q139 356 136.5 389 Q134 422 134 469 L134 579 Q134 606 132.5 631.5 Q131 657 121.5 677 Q112 697 92 709.5 Q72 722 35 723 L35 765 Q58 764 82.5 761.5 Q107 759 129 750 Q152 741 169.5 721 Q187 701 195 664 Q198 651 198.5 630.5 Q199 610 199 577 L199 452 Q199 417 201.5 389.5 Q204 362 212 342.5 Q220 323 236.5 311 Q253 299 281 296 L281 251 L281 251 Z " />
<glyph glyph-name="asterisk" unicode="&#x2a;" horiz-adv-x="297" d="M183 574 L234 506 L197 477 L150 550 L102 477 L62 506 L115 574 L30 597 L45 641 L127 615 L127 706 L173 706 L173 615 L252 645 L267 602 L183 574 Z " />
<glyph glyph-name="dagger" unicode="&#x2020;" horiz-adv-x="437" d="M250 445 L250 0 L190 0 L190 445 L30 445 L30 497 L190 497 L190 706 L250 706 L250 497 L407 497 L407 445 L250 445 Z " />
<glyph glyph-name="daggerdbl" unicode="&#x2021;" horiz-adv-x="437" d="M250 215 L250 0 L190 0 L190 215 L30 215 L30 267 L190 267 L190 457 L30 457 L30 509 L190 509 L190 706 L250 706 L250 509 L407 509 L407 457 L250 457 L250 267 L407 267 L407 215 L250 215 Z " />
<glyph glyph-name="section" unicode="&#xa7;" horiz-adv-x="506" d="M462 354 Q462 335 457 314 Q452 293 440 273 Q428 253 407.5 233.5 Q387 214 355 198 Q369 190 384 180 Q399 170 411 155.5 Q423 141 431 120.5 Q439 100 439 72 Q439 33 422.5 4 Q406 -25 380 -44 Q354 -63 321 -72.5 Q288 -82 255 -82 Q216 -82 182.5 -73 Q149 -64 121 -50 Q93 -36 71 -19 Q49 -2 34 14 L73 52 Q84 40 103.5 26 Q123 12 147 0 Q171 -12 199.5 -20.5 Q228 -29 257 -29 Q290 -29 313 -20 Q336 -11 350.5 3.5 Q365 18 371.5 36 Q378 54 378 71 Q378 109 345 133 Q329 146 307 156 Q295 162 282 167.5 Q269 173 255 180 Q202 204 162 224.5 Q122 245 96 267 Q70 289 57 315 Q44 341 44 377 Q44 398 51 421 Q58 444 73 465 Q88 486 110 503 Q132 520 162 530 Q149 539 136 549.5 Q123 560 112.5 573.5 Q102 587 95.5 604.5 Q89 622 89 645 Q89 663 97 687 Q105 711 123 732.5 Q141 754 170.5 768.5 Q200 783 243 783 Q290 783 327.5 766.5 Q365 750 399 724 Q407 717 414.5 711 Q422 705 428 699 L387 658 Q379 666 364.5 678.5 Q350 691 330.5 702.5 Q311 714 288 722 Q265 730 240 730 Q204 730 176.5 707.5 Q149 685 149 647 Q149 634 151.5 625 Q154 616 162 605 Q174 589 194.5 577 Q215 565 241 554 Q267 542 298.5 528 Q330 514 364 496 Q380 487 397 476 Q414 465 428.5 449 Q443 433 452.5 410 Q462 387 462 354 Z M404 350 Q404 373 396 390 Q388 407 376 419 Q360 435 319 456.5 Q278 478 227 496 L207 503 Q190 497 171.5 485.5 Q153 474 138 457.5 Q123 441 113 420.5 Q103 400 103 376 Q103 357 109 345 Q115 333 126 322 Q134 312 150.5 301.5 Q167 291 188 280 Q198 274 214 266.5 Q230 259 247 250.5 Q264 242 281 234.5 Q298 227 311 221 Q316 224 331.5 235.5 Q347 247 363 264 Q379 281 391.5 303.5 Q404 326 404 350 Z " />
<glyph glyph-name="paragraph" unicode="&#xb6;" horiz-adv-x="512" d="M433 662 L433 -167 L387 -167 L387 662 L230 662 L230 -167 L184 -167 L184 331 Q179 331 163.5 333.5 Q148 336 131 343 Q113 350 94 363.5 Q75 377 60 397 Q45 417 35 445 Q25 473 25 510 Q25 554 38 586 Q51 618 71 640.5 Q91 663 114.5 676.5 Q138 690 158 696 Q179 702 201 704 Q223 706 245 706 L466 706 L466 662 L433 662 Z " />
<glyph glyph-name="asciicircum" unicode="&#x5e;" horiz-adv-x="477" d="M371 350 L240 624 L106 350 L30 350 L210 706 L273 706 L447 350 L371 350 Z " />
<glyph glyph-name="asciitilde" unicode="&#x7e;" horiz-adv-x="521" d="M491 301 Q484 292 472.5 279 Q461 266 445 253.5 Q429 241 408.5 232.5 Q388 224 363 224 Q340 224 316 233 Q292 242 266 255 L237 269 Q215 280 195.5 287 Q176 294 154 294 Q124 294 105 276.5 Q86 259 63 229 L30 283 Q37 293 47 307 Q57 321 72.5 333.5 Q88 346 108.5 354.5 Q129 363 157 363 Q182 363 209 352.5 Q236 342 266 328 L298 313 Q324 300 336 296.5 Q348 293 363 293 Q394 293 416 311 Q438 329 460 356 L491 301 L491 301 Z " />
<glyph glyph-name="brokenbar" unicode="&#xa6;" horiz-adv-x="229" d="M85 308 L85 689 L144 689 L144 308 L85 308 Z M85 -191 L85 190 L144 190 L144 -191 L85 -191 Z " />
<glyph glyph-name="backslash" unicode="&#x5c;" horiz-adv-x="479" d="M395 0 L10 706 L86 706 L469 0 L395 0 Z " />
<glyph glyph-name="underscore" unicode="&#x5f;" horiz-adv-x="500" d="M-10 -206 L-10 -147 L510 -147 L510 -206 L-10 -206 Z " />
<glyph glyph-name="quotesingle" unicode="&#x27;" horiz-adv-x="208" d="M130 419 L79 419 L62 706 L146 706 L130 419 Z " />
<glyph glyph-name="quotedbl" unicode="&#x22;" horiz-adv-x="396" d="M307 419 L256 419 L239 706 L324 706 L307 419 Z M140 419 L89 419 L72 706 L156 706 L140 419 Z " />
<glyph glyph-name="at" unicode="&#x40;" horiz-adv-x="896" d="M827 426 Q827 353 806.5 288.5 Q786 224 753.5 176 Q721 128 680.5 100 Q640 72 599 72 Q561 72 540 94 Q519 116 519 153 L519 165 Q487 119 448.5 96 Q410 73 369 73 Q345 73 322 82 Q299 91 281 110 Q263 129 252 159 Q241 189 241 231 Q241 276 251 315 Q261 354 277.5 386 Q294 418 314 442 Q334 466 355 481 Q361 485 370.5 491 Q380 497 392 502 Q404 507 419 511 Q434 515 450 515 Q480 515 500.5 504.5 Q521 494 534.5 479 Q548 464 556 448 Q564 432 569 420 L585 492 L644 492 L612 346 Q598 280 590 239 Q582 198 582 169 Q582 169 582.5 161 Q583 153 586.5 144 Q590 135 597.5 127.5 Q605 120 619 120 Q628 120 637 124 Q646 128 654 133 Q662 138 667.5 143 Q673 148 675 150 Q693 166 711.5 193 Q730 220 745.5 255.5 Q761 291 771 333.5 Q781 376 781 423 Q781 484 761.5 530 Q742 576 707.5 606.5 Q673 637 626 652.5 Q579 668 523 668 Q434 668 359.5 630.5 Q285 593 230 532 Q175 471 144.5 393 Q114 315 114 234 Q114 159 140 100.5 Q166 42 211.5 2.5 Q257 -37 318.5 -58 Q380 -79 451 -79 Q511 -79 563 -65 Q615 -51 657.5 -29.5 Q700 -8 733.5 17.5 Q767 43 790 66 L817 34 Q809 27 794 13 Q779 -1 758 -17 Q737 -33 706.5 -52 Q676 -71 637 -87 Q598 -103 551.5 -113.5 Q505 -124 452 -124 Q395 -124 354.5 -113 Q314 -102 292 -94 Q232 -71 189.5 -36 Q147 -1 120 42 Q93 85 81 134 Q69 183 69 233 Q69 324 103 410.5 Q137 497 198 564 Q259 631 343.5 671.5 Q428 712 529 712 Q591 712 645 694 Q699 676 739.5 640 Q780 604 803.5 550.5 Q827 497 827 426 Z M548 352 Q548 383 539 404 Q530 425 516.5 438 Q503 451 487 456.5 Q471 462 456 462 Q428 462 408.5 449 Q389 436 378 425 Q367 414 354.5 394.5 Q342 375 332 350 Q322 325 315.5 296.5 Q309 268 309 238 Q309 178 335.5 152.5 Q362 127 396 127 Q416 127 437 136.5 Q458 146 477.5 164.5 Q497 183 513 211.5 Q529 240 538 279 Q543 296 545.5 313 Q548 330 548 347 L548 352 Z " />
<glyph glyph-name="copyright" unicode="&#xa9;" horiz-adv-x="833" d="M788 354 Q788 277 759 209.5 Q730 142 679.5 91.5 Q629 41 561.5 12 Q494 -17 417 -17 Q340 -17 272.5 12 Q205 41 154.5 91.5 Q104 142 75 209.5 Q46 277 46 354 Q46 431 75 498.5 Q104 566 154.5 616.5 Q205 667 272.5 696 Q340 725 417 725 Q494 725 561.5 696 Q629 667 679.5 616.5 Q730 566 759 498.5 Q788 431 788 354 Z M743 354 Q743 421 717.5 480.5 Q692 540 647.5 584.5 Q603 629 543.5 654.5 Q484 680 417 680 Q349 680 290 654.5 Q231 629 186.5 584.5 Q142 540 116.5 480.5 Q91 421 91 354 Q91 286 116.5 227 Q142 168 186.5 123.5 Q231 79 290 53.5 Q349 28 417 28 Q484 28 543.5 53.5 Q603 79 647.5 123.5 Q692 168 717.5 227 Q743 286 743 354 Z M533 436 L533 442 Q533 459 524 475.5 Q515 492 508 500 Q497 514 476.5 525.5 Q456 537 422 537 Q396 537 380 532.5 Q364 528 355 523 Q323 505 303 464 Q283 423 283 360 Q283 327 288.5 293.5 Q294 260 309.5 232.5 Q325 205 353 188 Q381 171 426 171 Q458 171 478 183.5 Q498 196 512 214 Q523 229 528 242 Q533 255 535 267 L588 235 Q563 180 524.5 150 Q486 120 420 120 Q364 120 327 140 Q290 160 267.5 193 Q245 226 235.5 267 Q226 308 226 350 Q226 398 236.5 441 Q247 484 270 517 Q293 550 329 569 Q365 588 416 588 Q481 588 516 564 Q551 540 571 506 Q582 488 591 466 L533 436 Z " />
<glyph glyph-name="registered" unicode="&#xae;" horiz-adv-x="833" d="M788 354 Q788 277 759 209.5 Q730 142 679.5 91.5 Q629 41 561.5 12 Q494 -17 417 -17 Q340 -17 272.5 12 Q205 41 154.5 91.5 Q104 142 75 209.5 Q46 277 46 354 Q46 431 75 498.5 Q104 566 154.5 616.5 Q205 667 272.5 696 Q340 725 417 725 Q494 725 561.5 696 Q629 667 679.5 616.5 Q730 566 759 498.5 Q788 431 788 354 Z M743 354 Q743 421 717.5 480.5 Q692 540 647.5 584.5 Q603 629 543.5 654.5 Q484 680 417 680 Q349 680 290 654.5 Q231 629 186.5 584.5 Q142 540 116.5 480.5 Q91 421 91 354 Q91 286 116.5 227 Q142 168 186.5 123.5 Q231 79 290 53.5 Q349 28 417 28 Q484 28 543.5 53.5 Q603 79 647.5 123.5 Q692 168 717.5 227 Q743 286 743 354 Z M553 132 L418 323 L329 323 L329 132 L274 132 L274 577 L401 577 L440 577 Q477 577 512.5 570 Q548 563 573 533 Q584 520 590 506 Q596 492 598.5 480 Q601 468 601.5 459 Q602 450 602 447 Q602 441 601 427 Q600 413 593 395.5 Q586 378 571 361 Q556 344 528 334 Q516 329 503.5 327 Q491 325 482 324 L621 132 L553 132 Z M548 448 Q548 465 544 477 Q540 489 535 495 Q523 512 505 519 Q487 526 455 526 L329 526 L329 373 L422 373 Q467 373 492 376.5 Q517 380 533 400 Q543 412 545.5 424 Q548 436 548 448 Z " />
<glyph glyph-name="trademark" unicode="&#x2122;" horiz-adv-x="687" d="M574 374 L574 592 Q574 611 574.5 626 Q575 641 576 659 Q571 643 567.5 630.5 Q564 618 559 602 L487 374 L445 374 L373 602 Q368 618 364.5 630.5 Q361 643 356 659 Q358 640 358 625.5 Q358 611 358 592 L360 374 L314 374 L314 706 L381 706 L467 434 L552 706 L620 706 L620 374 L574 374 Z M180 665 L180 374 L132 374 L132 665 L24 665 L24 706 L286 706 L286 665 L180 665 Z " />
<glyph glyph-name="currency" unicode="&#xa4;" horiz-adv-x="556" d="M86 193 Q60 225 45.5 263.5 Q31 302 31 346 Q31 390 45 429 Q59 468 85 500 L29 556 L67 594 L123 538 Q154 564 194 579 Q234 594 279 594 Q323 594 361.5 579.5 Q400 565 432 539 L487 594 L525 556 L471 502 Q497 470 512 430.5 Q527 391 527 346 Q527 301 512 261.5 Q497 222 471 190 L525 136 L487 98 L432 153 Q401 127 362.5 112.5 Q324 98 279 98 Q234 98 194.5 113 Q155 128 123 154 L67 98 L29 136 L86 193 Z M94 346 Q94 306 108.5 271 Q123 236 148 210.5 Q173 185 207 170.5 Q241 156 279 156 Q317 156 351 170.5 Q385 185 410 210.5 Q435 236 449.5 271 Q464 306 464 346 Q464 386 449.5 421 Q435 456 410 481.5 Q385 507 351 521.5 Q317 536 279 536 Q241 536 207 521.5 Q173 507 148 481.5 Q123 456 108.5 421 Q94 386 94 346 Z " />
<glyph glyph-name="Euro" unicode="&#x20ac;" horiz-adv-x="589" d="M565 643 Q546 652 512 658.5 Q478 665 440 665 Q394 665 351 652 Q308 639 273 612.5 Q238 586 212 545.5 Q186 505 173 450 L489 450 L467 398 L166 398 Q165 388 164.5 377 Q164 366 164 353 Q164 340 164.5 327.5 Q165 315 166 303 L429 303 L407 251 L173 251 Q194 149 258.5 95 Q323 41 429 41 Q459 41 498 46.5 Q537 52 578 75 L578 9 Q551 -3 514 -10.5 Q477 -18 429 -18 Q404 -18 373 -14 Q342 -10 309 0.5 Q276 11 243.5 30 Q211 49 183 78.5 Q155 108 133.5 150.5 Q112 193 101 251 L17 251 L39 303 L94 303 Q93 315 92.5 327 Q92 339 92 353 Q92 364 92.5 375.5 Q93 387 94 398 L17 398 L39 450 L101 450 Q117 529 155.5 582 Q194 635 243 666.5 Q292 698 345.5 711 Q399 724 444 724 Q490 724 527.5 715.5 Q565 707 589 696 L565 643 Z " />
<glyph glyph-name="dollar" unicode="&#x24;" horiz-adv-x="604" d="M552 207 Q552 193 548.5 168 Q545 143 530.5 115.5 Q516 88 488 61 Q460 34 412 17 Q380 6 357.5 3 Q335 0 323 0 L323 -92 L265 -92 L265 0 Q253 1 223.5 6.5 Q194 12 159 30 Q124 48 88 82.5 Q52 117 26 178 L97 185 Q107 166 120.5 146.5 Q134 127 154 110 Q174 93 201 80 Q228 67 265 62 L265 346 Q260 348 245.5 352 Q231 356 215 362 Q169 378 140 399 Q111 420 95 442.5 Q79 465 73.5 487.5 Q68 510 68 531 Q68 560 75.5 582 Q83 604 90 615 Q113 653 154.5 675.5 Q196 698 265 706 L265 768 L323 768 L323 706 Q371 702 404.5 686 Q438 670 457 653 Q481 630 498 597.5 Q515 565 520 543 L453 536 Q448 549 439 566 Q430 583 415 599 Q400 615 377.5 627.5 Q355 640 323 643 L323 396 Q356 387 395.5 374.5 Q435 362 470 341 Q505 320 528.5 287.5 Q552 255 552 207 Z M265 645 Q259 645 238 641.5 Q217 638 194 627 Q171 616 152.5 593.5 Q134 571 134 534 Q134 514 138 503 Q142 492 147 485 Q155 471 170.5 459 Q186 447 203 437 Q220 427 237 421 Q254 415 265 414 L265 645 Z M484 197 Q484 230 466.5 252.5 Q449 275 424.5 289.5 Q400 304 372 312.5 Q344 321 323 327 L323 60 Q367 60 397.5 73 Q428 86 447.5 106.5 Q467 127 475.5 151 Q484 175 484 197 Z " />
<glyph glyph-name="cent" unicode="&#xa2;" horiz-adv-x="479" d="M454 107 Q451 100 447 91.5 Q443 83 433 69 Q413 40 379 17 Q345 -6 290 -11 L290 -113 L240 -113 L240 -11 Q186 -5 148.5 18.5 Q111 42 88 76.5 Q65 111 54.5 152.5 Q44 194 44 235 Q44 300 62.5 346 Q81 392 109.5 422 Q138 452 173 467.5 Q208 483 240 487 L240 580 L290 580 L290 488 Q295 488 312 486 Q329 484 351 476 Q373 468 397 450 Q421 432 440 401 Q446 390 449 381.5 Q452 373 454 369 L399 355 Q390 381 373 396.5 Q356 412 339 420 Q322 428 308 431 Q294 434 290 435 L290 42 Q313 46 329.5 54.5 Q346 63 358 73.5 Q370 84 378.5 96 Q387 108 394 120 L454 107 Z M240 433 Q201 425 175.5 404 Q150 383 135 355.5 Q120 328 114 297.5 Q108 267 108 239 Q108 193 122.5 146 Q137 99 172 71 Q193 54 213.5 49 Q234 44 240 42 L240 433 Z " />
<glyph glyph-name="sterling" unicode="&#xa3;" horiz-adv-x="604" d="M570 181 Q570 87 536 42 Q502 -3 437 -3 Q422 -3 407 -1 Q392 1 374 7 Q356 13 334 23 Q312 33 282 50 Q261 29 232 12 Q203 -5 153 -5 Q98 -5 72.5 18.5 Q47 42 47 74 Q47 103 70.5 127 Q94 151 145 151 Q168 151 200 144 Q232 137 255 123 Q259 132 266.5 151.5 Q274 171 274 198 Q274 218 265 239.5 Q256 261 234 282 L102 282 L102 334 L195 334 Q183 342 168 357.5 Q153 373 143 384 Q108 425 92 457 Q76 489 76 526 Q76 561 86.5 584 Q97 607 107 620 Q132 655 180 680.5 Q228 706 297 706 Q317 706 353 701.5 Q389 697 425.5 678 Q462 659 491 621.5 Q520 584 527 517 L461 503 Q461 507 459 527 Q457 547 448 565 Q436 589 418 605 Q400 621 379 630 Q358 639 336.5 642.5 Q315 646 296 646 Q276 646 249.5 640.5 Q223 635 200 621 Q177 607 161 584 Q145 561 145 527 Q145 504 153 484.5 Q161 465 175.5 446.5 Q190 428 209 409 Q228 390 250 368 Q259 359 266 351 Q273 343 282 334 L434 334 L434 282 L313 282 Q321 269 330.5 247 Q340 225 340 186 Q340 163 331.5 139 Q323 115 313 104 Q357 81 391 68.5 Q425 56 441 56 Q462 56 474.5 66 Q487 76 493.5 93.5 Q500 111 502 135 Q504 159 504 188 L570 181 Z M234 74 Q220 83 205.5 88.5 Q191 94 178 96 Q165 98 154.5 98.5 Q144 99 140 99 Q122 99 110.5 92 Q99 85 99 73 Q99 59 112.5 51.5 Q126 44 146 44 Q177 44 200 53 Q223 62 234 74 Z " />
<glyph glyph-name="florin" unicode="&#x192;" horiz-adv-x="333" d="M327 647 Q322 648 311.5 650.5 Q301 653 296 653 Q278 653 267.5 645 Q257 637 251 625 Q245 613 242.5 599.5 Q240 586 237 575 L212 471 L297 471 L286 426 L202 426 L62 -147 Q60 -153 55 -168.5 Q50 -184 38.5 -201 Q27 -218 8 -231 Q-11 -244 -39 -244 Q-57 -244 -71.5 -239.5 Q-86 -235 -92 -232 L-77 -177 Q-72 -179 -63.5 -182 Q-55 -185 -44 -185 Q-29 -185 -19.5 -177.5 Q-10 -170 -4.5 -159 Q1 -148 3.5 -136 Q6 -124 8 -116 L140 426 L67 426 L78 471 L150 471 L183 603 Q188 624 195.5 644 Q203 664 215 679.5 Q227 695 244.5 704.5 Q262 714 289 714 Q302 714 315.5 711 Q329 708 341 704 L327 647 Z " />
<glyph glyph-name="yen" unicode="&#xa5;" horiz-adv-x="605" d="M400 399 L557 399 L557 343 L363 343 L329 290 L557 290 L557 234 L329 234 L329 0 L263 0 L263 234 L48 234 L48 290 L263 290 L231 343 L48 343 L48 399 L195 399 L0 706 L79 706 L297 358 L524 706 L605 706 L400 399 Z " />
<glyph glyph-name="ordfeminine" unicode="&#xaa;" horiz-adv-x="313" d="M296 406 Q264 406 244 414 Q224 422 220 447 Q215 439 211.5 435 Q208 431 203 427 Q183 411 161.5 405.5 Q140 400 120 400 Q91 400 72.5 408.5 Q54 417 43 429.5 Q32 442 27.5 456.5 Q23 471 23 484 Q23 502 28.5 514 Q34 526 40 533 Q58 556 96 569.5 Q134 583 187 594 L218 600 L218 611 Q218 621 216 632 Q214 643 207 652 Q200 661 187.5 667 Q175 673 153 673 Q126 673 111.5 666 Q97 659 90.5 648.5 Q84 638 82.5 625.5 Q81 613 81 601 L31 610 Q33 627 36 637.5 Q39 648 44 656 Q54 677 68.5 688.5 Q83 700 97.5 705.5 Q112 711 125 712.5 Q138 714 146 714 L152 714 Q166 714 182 712 Q198 710 213 703 Q228 696 240.5 684 Q253 672 259 653 Q261 646 261.5 638.5 Q262 631 262 623 L262 607 L262 503 Q262 472 266 458.5 Q270 445 294 445 L306 445 L306 406 L296 406 Z M218 558 L206 555 Q188 550 168.5 545 Q149 540 132.5 535 Q116 530 103.5 525.5 Q91 521 86 517 Q81 514 75 506.5 Q69 499 69 486 Q69 471 80.5 456.5 Q92 442 122 442 Q124 442 134.5 443 Q145 444 159 449.5 Q173 455 187 465.5 Q201 476 210 494 Q215 505 216.5 518.5 Q218 532 218 543 L218 558 Z " />
<glyph glyph-name="ordmasculine" unicode="&#xba;" horiz-adv-x="333" d="M304 558 Q304 541 301.5 524 Q299 507 293 491 Q275 441 239 420 Q203 399 165 399 Q129 399 103 412.5 Q77 426 60.5 448 Q44 470 36.5 497.5 Q29 525 29 554 Q29 582 36.5 610.5 Q44 639 60.5 662 Q77 685 103.5 699.5 Q130 714 167 714 Q204 714 230 699.5 Q256 685 272.5 662.5 Q289 640 296.5 612.5 Q304 585 304 558 Z M255 554 Q255 566 254 578.5 Q253 591 250 603 Q245 626 234.5 640 Q224 654 212 661.5 Q200 669 188 671 Q176 673 168 673 Q130 673 104 644.5 Q78 616 78 553 Q78 522 85 501 Q92 480 104 466.5 Q116 453 132 447 Q148 441 166 441 Q182 441 198 447 Q214 453 227 466.5 Q240 480 247.5 501.5 Q255 523 255 554 Z " />
<glyph glyph-name="numbersign" unicode="&#x23;" horiz-adv-x="667" d="M449 410 L436 313 L604 313 L604 259 L429 259 L394 0 L332 0 L370 259 L269 259 L231 0 L173 0 L209 259 L42 259 L42 313 L217 313 L230 410 L63 410 L63 467 L237 467 L269 708 L332 708 L298 467 L398 467 L429 708 L489 708 L456 467 L624 467 L624 410 L449 410 Z M290 410 L276 313 L377 313 L390 410 L290 410 Z " />
<glyph glyph-name="zero" unicode="0" horiz-adv-x="600" d="M549 355 Q549 273 532.5 204.5 Q516 136 483.5 86.5 Q451 37 404.5 9.5 Q358 -18 298 -18 Q241 -18 204.5 2.5 Q168 23 142 51 Q114 82 96.5 121 Q79 160 69.5 201.5 Q60 243 56.5 282 Q53 321 53 352 Q53 439 70.5 508 Q88 577 120.5 625 Q153 673 199 698.5 Q245 724 302 724 Q356 724 395 705 Q434 686 461.5 655.5 Q489 625 506 585.5 Q523 546 532.5 505 Q542 464 545.5 424.5 Q549 385 549 355 Z M482 345 Q482 361 481 391.5 Q480 422 474.5 458 Q469 494 457.5 531.5 Q446 569 426 599.5 Q406 630 376 649.5 Q346 669 302 669 Q257 669 223 645 Q189 621 166 579.5 Q143 538 131.5 481.5 Q120 425 120 359 Q120 336 121.5 303 Q123 270 129 234.5 Q135 199 147 163.5 Q159 128 179 100.5 Q199 73 229 55.5 Q259 38 302 38 Q348 38 382 61 Q416 84 438 125 Q460 166 471 222 Q482 278 482 345 Z " />
<glyph glyph-name="one" unicode="1" horiz-adv-x="600" d="M283 0 L283 574 Q270 561 238.5 553 Q207 545 169 545 L154 545 L154 599 Q193 599 222 609.5 Q251 620 266 640 Q274 651 278.5 664.5 Q283 678 283 701 L283 706 L344 706 L344 0 L283 0 Z " />
<glyph glyph-name="two" unicode="2" horiz-adv-x="600" d="M536 499 Q536 448 515.5 400 Q495 352 462 308.5 Q429 265 387.5 226 Q346 187 304 155 Q262 123 223.5 97.5 Q185 72 158 55 L512 55 L512 0 L66 0 L66 55 Q103 79 147.5 109 Q192 139 236.5 173.5 Q281 208 323.5 246 Q366 284 398.5 325.5 Q431 367 450.5 411.5 Q470 456 470 502 Q470 542 457 573.5 Q444 605 421 627 Q398 649 366 660 Q334 671 296 671 Q245 671 212 653.5 Q179 636 159 611.5 Q139 587 131 559.5 Q123 532 123 512 Q123 478 132 457 Q141 436 149 423 Q149 423 137.5 424.5 Q126 426 113 428 Q100 430 89 432 Q78 434 78 434 Q73 451 69 472.5 Q65 494 65 519 Q65 572 85 611 Q105 650 137.5 675 Q170 700 211.5 712 Q253 724 297 724 Q347 724 390.5 709.5 Q434 695 466.5 666.5 Q499 638 517.5 596 Q536 554 536 499 Z " />
<glyph glyph-name="three" unicode="3" horiz-adv-x="600" d="M533 193 Q533 142 514.5 102.5 Q496 63 464 36 Q432 9 390 -4.5 Q348 -18 300 -18 Q253 -18 211.5 -6 Q170 6 137 31 Q104 56 82 95.5 Q60 135 53 189 L52 197 L119 220 L119 213 Q119 124 169 81.5 Q219 39 300 39 Q348 39 380 53 Q412 67 431 89 Q450 111 458 137 Q466 163 466 186 Q466 239 446.5 269.5 Q427 300 398 315.5 Q369 331 336.5 335 Q304 339 277 339 Q273 339 260.5 339 Q248 339 233.5 338.5 Q219 338 205.5 337.5 Q192 337 186 336 L186 397 Q191 395 205.5 394.5 Q220 394 236 394 L275 394 Q291 394 321 397.5 Q351 401 381 415.5 Q411 430 433 458.5 Q455 487 455 538 Q455 574 441.5 599 Q428 624 406 640 Q384 656 356 663.5 Q328 671 299 671 Q252 671 220.5 655 Q189 639 170 615.5 Q151 592 143 566.5 Q135 541 135 523 L135 514 L65 533 Q72 562 86 595.5 Q100 629 126 657.5 Q152 686 194.5 705 Q237 724 301 724 Q345 724 384.5 713 Q424 702 453.5 679 Q483 656 500.5 620.5 Q518 585 518 536 Q518 499 502 469.5 Q486 440 461.5 419 Q437 398 406.5 385 Q376 372 347 369 Q380 367 413.5 356 Q447 345 473.5 323.5 Q500 302 516.5 270 Q533 238 533 193 Z " />
<glyph glyph-name="four" unicode="4" horiz-adv-x="600" d="M431 177 L431 0 L370 0 L370 177 L55 177 L55 228 L365 706 L431 706 L431 232 L541 232 L541 177 L431 177 Z M370 607 L124 232 L370 232 L370 607 Z " />
<glyph glyph-name="five" unicode="5" horiz-adv-x="600" d="M533 241 Q533 190 518 143 Q503 96 473 60 Q443 24 398.5 3 Q354 -18 296 -18 Q230 -18 186.5 2.5 Q143 23 116.5 53 Q90 83 77.5 117.5 Q65 152 62 181 L127 200 Q127 184 132.5 156.5 Q138 129 155 102.5 Q172 76 205 56.5 Q238 37 292 37 Q337 37 370 53.5 Q403 70 424.5 98 Q446 126 456.5 163 Q467 200 467 241 Q467 297 450.5 334.5 Q434 372 409.5 394.5 Q385 417 355.5 426.5 Q326 436 300 436 Q275 436 250 427 Q225 418 204 400.5 Q183 383 167.5 358 Q152 333 147 301 L96 307 L109 706 L481 706 L481 647 L166 647 L152 404 Q175 451 219 470 Q263 489 311 489 Q366 489 408 468.5 Q450 448 477.5 413.5 Q505 379 519 334 Q533 289 533 241 Z " />
<glyph glyph-name="six" unicode="6" horiz-adv-x="600" d="M551 223 Q551 169 534 124.5 Q517 80 486 48.5 Q455 17 411.5 -0.5 Q368 -18 314 -18 Q243 -18 195.5 8.5 Q148 35 119 82 Q90 129 78 193 Q66 257 66 333 Q66 526 135.5 625 Q205 724 332 724 Q372 724 402.5 715 Q433 706 456.5 691 Q480 676 496.5 656.5 Q513 637 525 615 Q533 600 538 586 Q543 572 544 568 L478 544 Q474 578 461.5 601.5 Q449 625 430 640 Q411 655 386.5 661.5 Q362 668 334 668 Q298 668 266.5 658 Q235 648 210 623 Q185 598 166.5 557 Q148 516 138 453 Q137 447 136 436.5 Q135 426 133.5 414 Q132 402 131 391.5 Q130 381 130 376 Q154 408 178.5 427.5 Q203 447 227.5 457 Q252 467 276 470 Q300 473 322 473 Q379 473 421.5 453 Q464 433 493 399 Q522 365 536.5 319.5 Q551 274 551 223 Z M485 230 Q485 265 477 299 Q469 333 449 359.5 Q429 386 396 402.5 Q363 419 313 419 Q278 419 245.5 406 Q213 393 188 370 Q163 347 148 315 Q133 283 133 245 Q133 237 135 218.5 Q137 200 143.5 176.5 Q150 153 162 128.5 Q174 104 194.5 83.5 Q215 63 244.5 50 Q274 37 316 37 Q394 37 439.5 85.5 Q485 134 485 230 Z " />
<glyph glyph-name="seven" unicode="7" horiz-adv-x="600" d="M508 647 Q464 594 423.5 525 Q383 456 349.5 373 Q316 290 292.5 196 Q269 102 261 0 L194 0 Q200 108 229.5 210 Q259 312 298 398 Q337 484 378.5 548.5 Q420 613 451 647 L83 647 L83 706 L508 706 L508 647 L508 647 Z " />
<glyph glyph-name="eight" unicode="8" horiz-adv-x="600" d="M547 189 Q547 156 534 119.5 Q521 83 492 52.5 Q463 22 417 2 Q371 -18 304 -18 Q235 -18 187.5 2 Q140 22 110 53 Q80 84 67 121.5 Q54 159 54 194 Q54 235 70 267 Q86 299 109 322 Q132 345 156.5 358.5 Q181 372 199 376 Q181 382 160.5 394.5 Q140 407 122 426.5 Q104 446 92.5 472.5 Q81 499 81 534 Q81 584 101 620 Q121 656 153 679 Q185 702 224.5 713 Q264 724 303 724 Q365 724 408 706.5 Q451 689 477.5 661.5 Q504 634 515.5 601 Q527 568 527 538 Q527 503 516 475 Q505 447 487.5 426.5 Q470 406 448.5 393 Q427 380 405 376 Q423 372 447 358 Q471 344 493.5 320.5 Q516 297 531.5 264 Q547 231 547 189 Z M463 535 Q463 597 421.5 633 Q380 669 306 669 Q261 669 230 656.5 Q199 644 180 624 Q161 604 152.5 579.5 Q144 555 144 531 Q144 501 156 477 Q168 453 189.5 436 Q211 419 240 410 Q269 401 302 401 Q381 401 422 439.5 Q463 478 463 535 Z M481 188 Q481 233 461.5 263.5 Q442 294 414 312.5 Q386 331 354.5 338.5 Q323 346 298 346 Q268 346 236.5 336.5 Q205 327 179.5 308 Q154 289 137.5 260 Q121 231 121 191 Q121 149 138 120 Q155 91 181.5 73 Q208 55 240 47 Q272 39 302 39 Q351 39 385 53.5 Q419 68 440.5 90 Q462 112 471.5 138 Q481 164 481 188 Z " />
<glyph glyph-name="nine" unicode="9" horiz-adv-x="600" d="M536 369 Q536 174 467.5 78 Q399 -18 269 -18 Q219 -18 183.5 -5 Q148 8 123.5 29.5 Q99 51 84 79 Q69 107 59 138 L128 164 Q132 122 147.5 97 Q163 72 184 58.5 Q205 45 229 41 Q253 37 274 37 Q337 37 375 65 Q413 93 434 137 Q455 181 462.5 235.5 Q470 290 472 344 Q461 322 444.5 302 Q428 282 404 267 Q380 252 349 243 Q318 234 279 234 Q243 234 203 245.5 Q163 257 128.5 285 Q94 313 71.5 361 Q49 409 49 481 Q49 535 66 579.5 Q83 624 114 656 Q145 688 188 706 Q231 724 283 724 Q340 724 381.5 707.5 Q423 691 451 663 Q479 635 496 598.5 Q513 562 521.5 522.5 Q530 483 533 443.5 Q536 404 536 369 Z M467 467 Q467 519 452.5 558 Q438 597 413 622 Q388 647 356 659.5 Q324 672 290 672 Q264 672 233.5 664 Q203 656 177 634.5 Q151 613 133.5 576 Q116 539 116 481 Q116 421 133 383.5 Q150 346 176 325 Q202 304 232 297 Q262 290 289 290 Q328 290 360.5 302.5 Q393 315 417 338.5 Q441 362 454 394.5 Q467 427 467 467 Z " />
<glyph glyph-name="one.superior" unicode="&#xb9;" horiz-adv-x="375" d="M166 265 L166 601 Q154 596 140.5 593.5 Q127 591 103 591 L88 591 L88 642 Q134 642 150 655.5 Q166 669 166 694 L166 706 L222 706 L222 265 L166 265 Z " />
<glyph glyph-name="two.superior" unicode="&#xb2;" horiz-adv-x="375" d="M342 571 Q342 540 330.5 510.5 Q319 481 294 450 Q269 419 229.5 386 Q190 353 135 316 L328 316 L328 265 L37 265 L37 312 Q75 335 109.5 359.5 Q144 384 172.5 406.5 Q201 429 221.5 448.5 Q242 468 252 482 Q275 513 279 538 Q283 563 283 573 Q283 615 257 640 Q231 665 187 665 Q158 665 139.5 655.5 Q121 646 110 632.5 Q99 619 94.5 604 Q90 589 90 579 Q90 552 103 533 Q116 514 133 495 L54 504 Q46 526 41 543 Q36 560 36 582 Q36 617 49.5 642 Q63 667 84.5 683 Q106 699 132.5 706.5 Q159 714 186 714 Q220 714 248.5 704.5 Q277 695 298 677 Q319 659 330.5 632 Q342 605 342 571 Z " />
<glyph glyph-name="three.superior" unicode="&#xb3;" horiz-adv-x="375" d="M339 391 Q339 367 330 343 Q321 319 302 300 Q283 281 254.5 269 Q226 257 186 257 Q139 257 98 277.5 Q57 298 38 346 Q30 364 28 378.5 Q26 393 25 401 L86 421 L86 404 Q86 371 97.5 352.5 Q109 334 125 324 Q141 314 158 311.5 Q175 309 187 309 Q215 309 232.5 317 Q250 325 260.5 337 Q271 349 275 363 Q279 377 279 390 Q279 404 275.5 416 Q272 428 269 433 Q255 455 235 461.5 Q215 468 176 468 L116 468 L116 519 L167 519 Q184 519 202.5 520.5 Q221 522 236.5 529 Q252 536 262 550 Q272 564 272 588 Q272 627 246.5 646 Q221 665 186 665 Q159 665 141 655.5 Q123 646 113 633 Q103 620 99 605.5 Q95 591 95 582 Q95 580 95 576.5 Q95 573 96 568 L32 584 Q37 604 46 627 Q55 650 72 669.5 Q89 689 116.5 701.5 Q144 714 186 714 Q214 714 240 707 Q266 700 286 684.5 Q306 669 318 645.5 Q330 622 330 589 Q330 563 317 538 Q304 513 262 496 Q304 482 321.5 454 Q339 426 339 391 Z " />
<glyph glyph-name="uni00A0" unicode="&#xa0;" horiz-adv-x="271" d="" />
<glyph glyph-name="fraction" unicode="&#x2044;" horiz-adv-x="125" d="M-92 -40 L-139 -19 L215 750 L264 728 L-92 -40 Z " />
<glyph glyph-name="onequarter" unicode="&#xbc;" horiz-adv-x="875" d="M738 106 L738 0 L682 0 L682 106 L490 106 L490 148 L683 442 L738 442 L738 157 L804 157 L804 106 L738 106 Z M242 -40 L195 -19 L549 750 L598 728 L242 -40 Z M131 265 L131 601 Q119 596 105.5 593.5 Q92 591 68 591 L53 591 L53 642 Q99 642 115 655.5 Q131 669 131 694 L131 706 L187 706 L187 265 L131 265 Z M682 357 L548 157 L682 157 L682 357 Z " />
<glyph glyph-name="onehalf" unicode="&#xbd;" horiz-adv-x="875" d="M792 306 Q792 275 780.5 245.5 Q769 216 744 185 Q719 154 679.5 121 Q640 88 585 51 L778 51 L778 0 L487 0 L487 47 Q525 70 559.5 94.5 Q594 119 622.5 141.5 Q651 164 671.5 183.5 Q692 203 702 217 Q725 248 729 273 Q733 298 733 308 Q733 350 707 375 Q681 400 637 400 Q608 400 589.5 390.5 Q571 381 560 367.5 Q549 354 544.5 339 Q540 324 540 314 Q540 287 553 268 Q566 249 583 230 L504 239 Q496 261 491 278 Q486 295 486 317 Q486 352 499.5 377 Q513 402 534.5 418 Q556 434 582.5 441.5 Q609 449 636 449 Q670 449 698.5 439.5 Q727 430 748 412 Q769 394 780.5 367 Q792 340 792 306 Z M213 -40 L166 -19 L521 750 L569 728 L213 -40 Z M126 265 L126 601 Q114 596 100.5 593.5 Q87 591 63 591 L48 591 L48 642 Q94 642 110 655.5 Q126 669 126 694 L126 706 L182 706 L182 265 L126 265 Z " />
<glyph glyph-name="threequarters" unicode="&#xbe;" horiz-adv-x="875" d="M793 106 L793 0 L737 0 L737 106 L545 106 L545 148 L738 442 L793 442 L793 157 L859 157 L859 106 L793 106 Z M332 -40 L285 -19 L640 750 L688 728 L332 -40 Z M349 391 Q349 367 340 343 Q331 319 312 300 Q293 281 264.5 269 Q236 257 196 257 Q149 257 108 277.5 Q67 298 48 346 Q40 364 38 378.5 Q36 393 35 401 L96 421 L96 404 Q96 371 107.5 352.5 Q119 334 135 324 Q151 314 168 311.5 Q185 309 197 309 Q225 309 242.5 317 Q260 325 270.5 337 Q281 349 285 363 Q289 377 289 390 Q289 404 285.5 416 Q282 428 279 433 Q265 455 245 461.5 Q225 468 186 468 L126 468 L126 519 L177 519 Q194 519 212.5 520.5 Q231 522 246.5 529 Q262 536 272 550 Q282 564 282 588 Q282 627 256.5 646 Q231 665 196 665 Q169 665 151 655.5 Q133 646 123 633 Q113 620 109 605.5 Q105 591 105 582 Q105 580 105 576.5 Q105 573 106 568 L42 584 Q47 604 56 627 Q65 650 82 669.5 Q99 689 126.5 701.5 Q154 714 196 714 Q224 714 250 707 Q276 700 296 684.5 Q316 669 328 645.5 Q340 622 340 589 Q340 563 327 538 Q314 513 272 496 Q314 482 331.5 454 Q349 426 349 391 Z M737 357 L603 157 L737 157 L737 357 Z " />
<glyph glyph-name="percent" unicode="&#x25;" horiz-adv-x="875" d="M848 222 Q848 173 838 131 Q828 89 807.5 58 Q787 27 756.5 9.5 Q726 -8 685 -8 Q635 -8 604 17 Q573 42 556 78 Q539 114 533 153 Q527 192 527 219 Q527 330 571.5 389.5 Q616 449 689 449 Q740 449 771.5 424.5 Q803 400 820 364.5 Q837 329 842.5 290 Q848 251 848 222 Z M287 -40 L240 -19 L594 750 L643 728 L287 -40 Z M348 487 Q348 438 338 396 Q328 354 307.5 323 Q287 292 256.5 274.5 Q226 257 185 257 Q135 257 104 282 Q73 307 56 343 Q39 379 33 418 Q27 457 27 484 Q27 595 71.5 654.5 Q116 714 189 714 Q240 714 271.5 689.5 Q303 665 320 629.5 Q337 594 342.5 555 Q348 516 348 487 Z M789 217 Q789 302 762 350 Q735 398 690 398 Q664 398 644.5 384.5 Q625 371 612 347.5 Q599 324 592.5 291.5 Q586 259 586 221 Q586 201 589 170.5 Q592 140 602.5 112 Q613 84 633.5 64 Q654 44 689 44 Q723 44 742.5 63.5 Q762 83 772.5 111 Q783 139 786 168 Q789 197 789 217 Z M289 482 Q289 567 262 615 Q235 663 190 663 Q164 663 144.5 649.5 Q125 636 112 612.5 Q99 589 92.5 556.5 Q86 524 86 486 Q86 466 89 435.5 Q92 405 102.5 377 Q113 349 133.5 329 Q154 309 189 309 Q223 309 242.5 328.5 Q262 348 272.5 376 Q283 404 286 433 Q289 462 289 482 Z " />
<glyph glyph-name="perthousand" unicode="&#x2030;" horiz-adv-x="1257" d="M1230 222 Q1230 173 1220 131 Q1210 89 1189.5 58 Q1169 27 1138.5 9.5 Q1108 -8 1067 -8 Q1017 -8 986 17 Q955 42 938 78 Q921 114 915 153 Q909 192 909 219 Q909 330 953.5 389.5 Q998 449 1071 449 Q1122 449 1153.5 424.5 Q1185 400 1202 364.5 Q1219 329 1224.5 290 Q1230 251 1230 222 Z M848 222 Q848 173 838 131 Q828 89 807.5 58 Q787 27 756.5 9.5 Q726 -8 685 -8 Q635 -8 604 17 Q573 42 556 78 Q539 114 533 153 Q527 192 527 219 Q527 330 571.5 389.5 Q616 449 689 449 Q740 449 771.5 424.5 Q803 400 820 364.5 Q837 329 842.5 290 Q848 251 848 222 Z M287 -40 L240 -19 L594 750 L643 728 L287 -40 Z M348 487 Q348 438 338 396 Q328 354 307.5 323 Q287 292 256.5 274.5 Q226 257 185 257 Q135 257 104 282 Q73 307 56 343 Q39 379 33 418 Q27 457 27 484 Q27 595 71.5 654.5 Q116 714 189 714 Q240 714 271.5 689.5 Q303 665 320 629.5 Q337 594 342.5 555 Q348 516 348 487 Z M1171 217 Q1171 302 1144 350 Q1117 398 1072 398 Q1046 398 1026.5 384.5 Q1007 371 994 347.5 Q981 324 974.5 291.5 Q968 259 968 221 Q968 201 971 170.5 Q974 140 984.5 112 Q995 84 1015.5 64 Q1036 44 1071 44 Q1105 44 1124.5 63.5 Q1144 83 1154.5 111 Q1165 139 1168 168 Q1171 197 1171 217 Z M789 217 Q789 302 762 350 Q735 398 690 398 Q664 398 644.5 384.5 Q625 371 612 347.5 Q599 324 592.5 291.5 Q586 259 586 221 Q586 201 589 170.5 Q592 140 602.5 112 Q613 84 633.5 64 Q654 44 689 44 Q723 44 742.5 63.5 Q762 83 772.5 111 Q783 139 786 168 Q789 197 789 217 Z M289 482 Q289 567 262 615 Q235 663 190 663 Q164 663 144.5 649.5 Q125 636 112 612.5 Q99 589 92.5 556.5 Q86 524 86 486 Q86 466 89 435.5 Q92 405 102.5 377 Q113 349 133.5 329 Q154 309 189 309 Q223 309 242.5 328.5 Q262 348 272.5 376 Q283 404 286 433 Q289 462 289 482 Z " />
<glyph glyph-name="plus" unicode="&#x2b;" horiz-adv-x="583" d="M322 256 L322 0 L262 0 L262 256 L5 256 L5 316 L262 316 L262 571 L322 571 L322 316 L578 316 L578 256 L322 256 Z " />
<glyph glyph-name="minus" unicode="&#x2212;" horiz-adv-x="583" d="M5 256 L5 316 L578 316 L578 256 L5 256 Z " />
<glyph glyph-name="plusminus" unicode="&#xb1;" horiz-adv-x="583" d="M322 379 L322 123 L263 123 L263 379 L5 379 L5 438 L263 438 L263 694 L322 694 L322 438 L578 438 L578 379 L322 379 Z M5 0 L5 59 L578 59 L578 0 L5 0 Z " />
<glyph glyph-name="multiply" unicode="&#xd7;" horiz-adv-x="583" d="M500 42 L292 249 L85 42 L42 83 L250 291 L42 497 L84 539 L291 332 L499 539 L541 497 L333 291 L541 83 L500 42 Z " />
<glyph glyph-name="divide" unicode="&#xf7;" horiz-adv-x="583" d="M338 417 Q338 398 324.5 384.5 Q311 371 292 371 Q273 371 259.5 384.5 Q246 398 246 417 Q246 436 259.5 449.5 Q273 463 292 463 Q311 463 324.5 449.5 Q338 436 338 417 Z M5 256 L5 316 L578 316 L578 256 L5 256 Z M338 155 Q338 136 324.5 122.5 Q311 109 292 109 Q273 109 259.5 122.5 Q246 136 246 155 Q246 174 259.5 187.5 Q273 201 292 201 Q311 201 324.5 187.5 Q338 174 338 155 Z " />
<glyph glyph-name="equal" unicode="&#x3d;" horiz-adv-x="583" d="M5 349 L5 408 L578 408 L578 349 L5 349 Z M5 173 L5 231 L578 231 L578 173 L5 173 Z " />
<glyph glyph-name="notequal" unicode="&#x2260;" horiz-adv-x="561" d="M355 406 L510 406 L510 355 L335 355 L268 210 L510 210 L510 159 L248 159 L194 42 L154 60 L199 159 L51 159 L51 210 L220 210 L286 355 L51 355 L51 406 L306 406 L359 521 L399 503 L355 406 Z " />
<glyph glyph-name="approxequal" unicode="&#x2248;" horiz-adv-x="561" d="M515 403 Q494 362 462.5 334.5 Q431 307 386 307 Q355 307 330 318 Q305 329 269 349 Q246 363 224 373 Q202 383 176 383 Q159 383 145 377 Q131 371 119 360.5 Q107 350 97 336.5 Q87 323 78 309 L45 336 Q68 381 103.5 406.5 Q139 432 183 432 Q220 432 247 417.5 Q274 403 294 392 Q321 377 341 367 Q361 357 388 357 Q419 357 440.5 376 Q462 395 483 431 L515 403 Z M515 231 Q494 191 463 163.5 Q432 136 386 136 Q355 136 330 147 Q305 158 269 178 Q246 192 224 202 Q202 212 177 212 Q159 212 145 206 Q131 200 119 189.5 Q107 179 97 165.5 Q87 152 78 137 L45 165 Q68 209 103.5 235 Q139 261 183 261 Q220 261 247 246.5 Q274 232 294 221 Q319 207 340 196.5 Q361 186 388 186 Q419 186 440 204.5 Q461 223 483 259 L515 231 Z " />
<glyph glyph-name="less" unicode="&#x3c;" horiz-adv-x="583" d="M5 256 L5 316 L578 571 L578 506 L84 286 L578 65 L578 0 L5 256 Z " />
<glyph glyph-name="greater" unicode="&#x3e;" horiz-adv-x="583" d="M5 0 L5 65 L499 286 L5 506 L5 571 L578 316 L578 256 L5 0 Z " />
<glyph glyph-name="lessequal" unicode="&#x2264;" horiz-adv-x="561" d="M56 320 L56 374 L507 598 L507 537 L110 349 L110 347 L507 156 L507 96 L56 320 Z M51 3 L51 55 L510 55 L510 3 L51 3 Z " />
<glyph glyph-name="greaterequal" unicode="&#x2265;" horiz-adv-x="561" d="M508 374 L508 320 L57 96 L57 156 L453 346 L453 348 L57 537 L57 598 L508 374 Z M52 3 L52 55 L509 55 L509 3 L52 3 Z " />
<glyph glyph-name="logicalnot" unicode="&#xac;" horiz-adv-x="583" d="M518 173 L518 349 L5 349 L5 408 L578 408 L578 173 L518 173 Z " />
<glyph glyph-name="uni00AD" unicode="&#xad;" horiz-adv-x="354" d="M38 293 L38 358 L317 358 L317 293 L38 293 Z " />
<glyph glyph-name="Delta" unicode="&#x2206;" horiz-adv-x="647" d="M31 53 L279 713 L372 713 L617 54 L617 0 L31 0 L31 53 Z M531 65 L389 437 Q383 457 373.5 482 Q364 507 355 532.5 Q346 558 337.5 581.5 Q329 605 324 622 L320 622 Q317 608 309.5 587.5 Q302 567 293.5 544 Q285 521 276.5 497 Q268 473 261 453 L112 65 L531 65 Z " />
<glyph glyph-name="uni0394" unicode="&#x394;" horiz-adv-x="647" d="M31 53 L279 713 L372 713 L617 54 L617 0 L31 0 L31 53 Z M531 65 L389 437 Q383 457 373.5 482 Q364 507 355 532.5 Q346 558 337.5 581.5 Q329 605 324 622 L320 622 Q317 608 309.5 587.5 Q302 567 293.5 544 Q285 521 276.5 497 Q268 473 261 453 L112 65 L531 65 Z " />
<glyph glyph-name="Omega" unicode="&#x2126;" horiz-adv-x="719" d="M196 68 Q170 91 145.5 122.5 Q121 154 102.5 192.5 Q84 231 73 277 Q62 323 62 375 Q62 447 85 508 Q108 569 148 613 Q188 657 243 681.5 Q298 706 362 706 Q430 706 484.5 679 Q539 652 577 606.5 Q615 561 635.5 502 Q656 443 656 379 Q656 325 644 278 Q632 231 613 191.5 Q594 152 569.5 120.5 Q545 89 520 68 L520 66 L669 66 L669 0 L427 0 L427 48 Q455 66 481.5 95.5 Q508 125 529 164.5 Q550 204 562.5 254 Q575 304 575 364 Q575 413 561.5 462 Q548 511 521 550.5 Q494 590 454 614.5 Q414 639 361 639 Q311 639 271 617.5 Q231 596 202.5 558.5 Q174 521 158.5 470 Q143 419 143 361 Q143 305 155.5 256 Q168 207 188.5 166.5 Q209 126 235.5 96 Q262 66 290 48 L290 0 L48 0 L48 66 L196 66 L196 68 Z " />
<glyph glyph-name="uni03A9" unicode="&#x3a9;" horiz-adv-x="647" d="M196 68 Q170 91 145.5 122.5 Q121 154 102.5 192.5 Q84 231 73 277 Q62 323 62 375 Q62 447 85 508 Q108 569 148 613 Q188 657 243 681.5 Q298 706 362 706 Q430 706 484.5 679 Q539 652 577 606.5 Q615 561 635.5 502 Q656 443 656 379 Q656 325 644 278 Q632 231 613 191.5 Q594 152 569.5 120.5 Q545 89 520 68 L520 66 L669 66 L669 0 L427 0 L427 48 Q455 66 481.5 95.5 Q508 125 529 164.5 Q550 204 562.5 254 Q575 304 575 364 Q575 413 561.5 462 Q548 511 521 550.5 Q494 590 454 614.5 Q414 639 361 639 Q311 639 271 617.5 Q231 596 202.5 558.5 Q174 521 158.5 470 Q143 419 143 361 Q143 305 155.5 256 Q168 207 188.5 166.5 Q209 126 235.5 96 Q262 66 290 48 L290 0 L48 0 L48 66 L196 66 L196 68 Z " />
<glyph glyph-name="mu" unicode="&#xb5;" horiz-adv-x="521" d="M387 0 L387 86 Q381 74 371 57.5 Q361 41 345 26 Q329 11 306.5 0.5 Q284 -10 253 -10 Q206 -10 180 9.5 Q154 29 135 54 L135 -241 L75 -241 L75 477 L135 477 L135 225 L135 209 Q135 189 136 169 Q137 149 141.5 131 Q146 113 154.5 97 Q163 81 179 68 Q190 60 208.5 52 Q227 44 254 44 Q287 44 308.5 55.5 Q330 67 344 82 Q373 113 380 151 Q387 189 387 224 L387 256 L387 477 L446 477 L446 0 L387 0 Z " />
<glyph glyph-name="uni03BC" unicode="&#x3bc;" horiz-adv-x="521" d="M387 0 L387 86 Q381 74 371 57.5 Q361 41 345 26 Q329 11 306.5 0.5 Q284 -10 253 -10 Q206 -10 180 9.5 Q154 29 135 54 L135 -241 L75 -241 L75 477 L135 477 L135 225 L135 209 Q135 189 136 169 Q137 149 141.5 131 Q146 113 154.5 97 Q163 81 179 68 Q190 60 208.5 52 Q227 44 254 44 Q287 44 308.5 55.5 Q330 67 344 82 Q373 113 380 151 Q387 189 387 224 L387 256 L387 477 L446 477 L446 0 L387 0 Z " />
<glyph glyph-name="pi" unicode="&#x3c0;" horiz-adv-x="690" d="M247 0 L159 0 L159 447 L22 447 L22 519 L668 519 L668 447 L550 447 L550 0 L462 0 L462 447 L247 447 L247 0 Z " />
<glyph glyph-name="degree" unicode="&#xb0;" horiz-adv-x="354" d="M324 559 Q324 529 312.5 502 Q301 475 281 455 Q261 435 234 423.5 Q207 412 177 412 Q147 412 120 423.5 Q93 435 73 455 Q53 475 41.5 502 Q30 529 30 559 Q30 589 41.5 616 Q53 643 73 663 Q93 683 120 694.5 Q147 706 177 706 Q207 706 234 694.5 Q261 683 281 663 Q301 643 312.5 616 Q324 589 324 559 Z M271 559 Q271 578 263.5 595.5 Q256 613 243.5 625.5 Q231 638 213.5 645.5 Q196 653 177 653 Q157 653 140 645.5 Q123 638 110.5 625.5 Q98 613 90.5 595.5 Q83 578 83 559 Q83 539 90.5 522 Q98 505 110.5 492.5 Q123 480 140 472.5 Q157 465 177 465 Q196 465 213.5 472.5 Q231 480 243.5 492.5 Q256 505 263.5 522 Q271 539 271 559 Z " />
<glyph glyph-name="infinity" unicode="&#x221e;" horiz-adv-x="774" d="M724 288 Q724 251 711 221.5 Q698 192 677 171 Q656 150 628.5 139 Q601 128 571 128 Q524 128 482.5 157 Q441 186 388 246 Q368 223 348 202 Q328 181 305 164.5 Q282 148 256 138 Q230 128 200 128 Q170 128 142.5 140 Q115 152 94.5 173 Q74 194 62 222.5 Q50 251 50 284 Q50 318 62 347.5 Q74 377 95 398 Q116 419 144.5 431 Q173 443 207 443 Q235 443 260 433.5 Q285 424 307.5 407.5 Q330 391 351 370 Q372 349 392 325 Q411 346 430.5 367 Q450 388 472 405 Q494 422 520 432.5 Q546 443 578 443 Q644 443 684 400.5 Q724 358 724 289 L724 288 Z M208 177 Q232 177 253 187 Q274 197 293 213 Q312 229 329 247 Q346 265 361 282 Q344 303 327 323 Q310 343 291 359.5 Q272 376 250 386 Q228 396 201 396 Q177 396 159 387 Q141 378 128 362 Q115 346 108.5 325.5 Q102 305 102 283 Q102 239 131 208 Q160 177 207 177 L208 177 Z M571 396 Q546 396 524 384 Q502 372 482.5 355 Q463 338 447 319 Q431 300 418 287 Q442 260 462 239 Q482 218 500.5 204.5 Q519 191 536.5 184 Q554 177 574 177 Q598 177 616 186.5 Q634 196 646.5 211.5 Q659 227 665.5 246 Q672 265 672 284 Q672 337 644 366.5 Q616 396 573 396 L571 396 Z " />
<glyph glyph-name="partialdiff" unicode="&#x2202;" horiz-adv-x="548" d="M75 724 Q87 734 103 744 Q119 754 140 762 Q161 770 186.5 775 Q212 780 243 780 Q292 780 338.5 757 Q385 734 420 687 Q455 640 476.5 569.5 Q498 499 498 403 Q498 316 481 240.5 Q464 165 431 110 Q398 55 348.5 23.5 Q299 -8 235 -8 Q186 -8 149.5 12.5 Q113 33 89 65.5 Q65 98 53.5 139.5 Q42 181 42 223 Q42 281 59.5 328 Q77 375 106 408 Q135 441 173.5 459 Q212 477 254 477 Q288 477 316 466.5 Q344 456 364.5 441 Q385 426 398.5 410 Q412 394 418 383 L419 383 Q420 391 420 404 Q420 417 420 425 Q420 489 405.5 542 Q391 595 366 633.5 Q341 672 307 693 Q273 714 235 714 Q188 714 155 698.5 Q122 683 102 666 L75 724 Z M243 59 Q278 59 306.5 79.5 Q335 100 356 134.5 Q377 169 391 213.5 Q405 258 410 306 Q404 322 392 340.5 Q380 359 362 375 Q344 391 320 401.5 Q296 412 268 412 Q238 412 211 397 Q184 382 164 356 Q144 330 132.5 296 Q121 262 121 223 Q121 187 129.5 157 Q138 127 154 105.5 Q170 84 192.5 71.5 Q215 59 242 59 L243 59 Z " />
<glyph glyph-name="integral" unicode="&#x222b;" horiz-adv-x="361" d="M330 781 Q324 785 314 788 Q304 791 294 791 Q281 791 267.5 785.5 Q254 780 244 767 Q225 745 217.5 703 Q210 661 210 591 Q210 532 212 470 Q214 408 217 344.5 Q220 281 222 217.5 Q224 154 224 93 Q224 13 211.5 -34.5 Q199 -82 182 -108 Q165 -135 137.5 -148 Q110 -161 80 -161 Q60 -161 41.5 -155.5 Q23 -150 14 -145 L27 -87 Q34 -90 46 -94.5 Q58 -99 72 -99 Q85 -99 97.5 -93.5 Q110 -88 118 -77 Q133 -58 142.5 -20 Q152 18 152 93 Q152 155 150 219.5 Q148 284 145 348.5 Q142 413 140 476 Q138 539 138 598 Q138 681 150.5 730 Q163 779 192 810 Q211 830 236.5 840 Q262 850 288 850 Q304 850 319.5 845.5 Q335 841 343 836 L330 781 Z " />
<glyph glyph-name="radical" unicode="&#x221a;" horiz-adv-x="573" d="M352 -148 L282 -148 L124 311 L49 283 L34 331 L173 385 L298 19 Q303 1 308 -19 Q313 -39 316 -53 L317 -54 Q319 -40 323 -19.5 Q327 1 331 20 L515 826 L574 826 L352 -148 Z " />
<glyph glyph-name="summation" unicode="&#x2211;" horiz-adv-x="554" d="M23 -96 L23 -43 L289 298 L34 639 L34 694 L515 694 L515 626 L144 626 L144 622 L380 310 L125 -18 L125 -21 L531 -21 L531 -96 L23 -96 Z " />
<glyph glyph-name="product" unicode="&#x220f;" horiz-adv-x="701" d="M565 622 L565 -96 L487 -96 L487 622 L213 622 L213 -96 L134 -96 L134 622 L26 622 L26 694 L674 694 L674 622 L565 622 Z " />
<glyph glyph-name="lozenge" unicode="&#x25ca;" horiz-adv-x="573" d="M317 -46 L253 -46 L54 347 L255 740 L320 740 L519 347 L317 -46 Z M306 620 Q301 633 295.5 647.5 Q290 662 287 673 L285 673 Q281 661 276.5 647.5 Q272 634 265 620 L126 349 L267 71 Q274 56 278.5 42.5 Q283 29 285 20 L288 20 Q290 30 295.5 45 Q301 60 306 70 L446 345 L306 620 Z " />
<glyph glyph-name="caronalt" unicode="&#xe000;" horiz-adv-x="121" d="M30 616 L30 706 L97 706 L97 616 Q97 570 85 540.5 Q73 511 41 493 L24 527 Q46 540 54 560.5 Q62 581 63 616 L30 616 Z " />
<glyph glyph-name="commaaccentalt" unicode="&#xe001;" horiz-adv-x="270" d="M180 675 Q160 664 154 649.5 Q148 635 144 616 L175 616 L175 545 L108 545 L108 592 Q108 610 110 627.5 Q112 645 118 660 Q124 675 134.5 687.5 Q145 700 162 709 L180 675 Z " />
<glyph glyph-name="uni2113" unicode="&#x2113;" horiz-adv-x="475" d="M450 111 Q419 52 374 21 Q329 -10 271 -10 Q229 -10 199 5.5 Q169 21 149.5 47.5 Q130 74 120.5 108.5 Q111 143 110 181 L110 194 Q96 183 81 170.5 Q66 158 51 145 L31 181 Q52 198 72 215 Q92 232 110 249 L110 529 Q110 598 123 643 Q136 688 157 714.5 Q178 741 204 752 Q230 763 255 763 Q285 763 307 751 Q329 739 344 718 Q359 697 366 668.5 Q373 640 373 607 Q373 559 358 512 Q343 465 315.5 418.5 Q288 372 249 326.5 Q210 281 163 235 L163 205 Q163 159 173 126.5 Q183 94 199.5 74 Q216 54 237 44.5 Q258 35 281 35 Q306 35 327.5 44 Q349 53 366.5 67.5 Q384 82 397.5 99.5 Q411 117 420 134 L450 111 Z M163 293 Q198 331 229 369 Q260 407 282.5 446 Q305 485 318 524 Q331 563 331 604 Q331 655 313.5 687 Q296 719 253 719 Q238 719 222 709.5 Q206 700 193 678.5 Q180 657 171.5 622 Q163 587 163 536 L163 293 Z " />
<glyph glyph-name="estimated" unicode="&#x212e;" horiz-adv-x="869" d="M186 338 Q181 338 181 334 L181 138 Q181 126 189 115 Q237 66 300 37.5 Q363 9 435 9 Q513 9 579 41.5 Q645 74 693 128 L750 128 Q696 65 613.5 27 Q531 -11 434 -11 Q351 -11 278 17 Q205 45 151 94 Q97 143 65.5 208.5 Q34 274 34 348 Q34 423 65.5 488.5 Q97 554 151 603 Q205 652 278 680.5 Q351 709 434 709 Q517 709 590 680.5 Q663 652 717.5 603 Q772 554 803.5 488.5 Q835 423 835 348 L835 338 L186 338 Z M687 561 Q687 574 678 585 Q630 632 568.5 659.5 Q507 687 435 687 Q363 687 300.5 658.5 Q238 630 190 582 Q181 571 181 557 L181 364 Q181 362 182.5 360 Q184 358 186 358 L683 358 Q685 358 686 360 Q687 362 687 364 L687 561 Z " />
<glyph glyph-name="uni2219" unicode="&#x2219;" horiz-adv-x="167" d="M44 268 L44 384 L123 384 L123 268 L44 268 Z " />
<glyph glyph-name="uni02C9" unicode="&#x2c9;" horiz-adv-x="271" d="M19 582 L19 644 L252 644 L252 582 L19 582 Z " />
<glyph glyph-name="uni2215" unicode="&#x2215;" horiz-adv-x="125" d="M-92 -40 L-139 -19 L215 750 L264 728 L-92 -40 Z " />
<glyph glyph-name="one.fitted" unicode="&#xf6dc;" horiz-adv-x="354" d="M169 0 L169 574 Q157 561 125.5 553 Q94 545 56 545 L41 545 L41 599 Q45 599 65.5 600 Q86 601 109 610 Q132 619 150.5 639.5 Q169 660 169 701 L169 706 L230 706 L230 0 L169 0 Z " />
</font>
</svg>
