<?xml version="1.0" standalone="no"?> <!DOCTYPE svg PUBLIC "-//W3C//DTD SVG 1.0//EN" "http://www.w3.org/TR/2001/REC-SVG-20010904/DTD/svg10.dtd" > <svg xmlns="http://www.w3.org/2000/svg" width="100%" height="100%">
<defs >
<font id="Volvo-Novum-BoldItalic" horiz-adv-x="611" ><font-face
    font-family="Volvo Novum"
    units-per-em="1000"
    panose-1="2 11 8 3 4 5 2 13 2 4"
    ascent="980"
    descent="-220"
    alphabetic="0" />
<missing-glyph horiz-adv-x="1095" d="M225 -55H870V778H225V-55ZM76 -194Q64 -194 64 -183Q64 -181 64 -157T64 -92T64 1T65 112T65 231T65 346Q65 401 65 463T65 587T65 706T64 806T64 877T64 906Q64 917 76 917H1019Q1031 917 1031 906Q1031 904 1031 877T1031
807T1031 706T1030 588T1030 464T1030 346Q1030 291 1030 231T1030 113T1030 2T1031 -91T1031 -156T1031 -183Q1031 -194 1019 -194H76ZM432 273Q437 302 450 326T485 370T559 420T627 468T649 508Q653 523 650 536T637 559T612 574T577 579Q551 579 529 568T490
537T467 490Q461 467 457 439H287Q287 464 295 496Q313 566 355 615T461 690T603 716Q686 716 743 689T824 613T832 504Q823 468 806 439T761 386T680 334T610 289T588 254L577 216H422L432 273ZM354 0L395 164H575L534 0H354Z" />
<glyph unicode="&#x0;" glyph-name="null" horiz-adv-x="0" />
<glyph unicode="&#xd;" glyph-name="CR" horiz-adv-x="262" />
<glyph unicode=" " glyph-name="space" horiz-adv-x="254" />
<glyph unicode="!" glyph-name="exclam" horiz-adv-x="372" d="M103 216L206 702H396L257 216H103ZM36 0L77 164H257L216 0H36Z" />
<glyph unicode="&quot;" glyph-name="quotedbl" horiz-adv-x="514" d="M351 449L411 730H571L491 449H351ZM127 449L187 730H347L267 449H127Z" />
<glyph unicode="#" glyph-name="numbersign" horiz-adv-x="700" d="M320 682H462L394 529H523L591 682H733L665 529H748L716 402H608L554 280H637L605 153H498L430 0H288L356 153H227L159 0H17L85 153H3L33 280H141L195 402H114L145 529H252L320 682ZM283 280H412L467
402H338L283 280Z" />
<glyph unicode="$" glyph-name="dollar" horiz-adv-x="685" d="M175 -107L205 10Q148 20 101 40T18 88L96 221Q167 174 218 157T325 139Q357 139 382 147T424 170T445 204Q449 222 441 234T410 254T303 276T175 316T120 384T122 485Q135 538 168 578T254 644T372
676L400 793H553L522 672Q561 665 598 652T669 618L592 480Q541 512 494 528T403 544Q376 544 355 538T321 519T303 490Q299 473 307 461T337 442T444 420T573 380T629 311T627 207Q613 153 577 110T483 40T355 5L328 -107H175Z" />
<glyph unicode="%" glyph-name="percent" horiz-adv-x="1138" d="M1059 778L298 -96H129L889 778H1059ZM1063 118Q1036 9 964 -49T783 -108Q676 -108 630 -44T612 130Q639 240 710 298T891 356Q999 356 1044 292T1063 118V118ZM909 124Q922 177 911 204T864 232Q829
232 804 205T765 124Q752 71 763 44T810 16Q845 16 870 43T909 124V124ZM577 552Q550 443 478 385T297 326Q190 326 144 390T126 564Q153 674 224 732T405 790Q513 790 558 726T577 552V552ZM423 558Q436 611 425 638T378 666Q343 666 318 639T279 558Q266 505
277 478T324 450Q359 450 384 477T423 558V558Z" />
<glyph unicode="&amp;" glyph-name="ampersand" horiz-adv-x="809" d="M643 -26Q633 -18 597 11T537 61Q476 22 409 2T271 -18Q180 -18 119 10T33 90T27 215Q42 273 84 316T203 391Q174 434 165 469T165 541Q179 597 216 636T313 695T451 716Q525 716 577 693T649
627T657 530Q648 493 624 463T561 407T457 357Q483 333 508 311T558 266Q575 292 587 321T608 380H768Q755 325 729 273T665 174Q687 155 721 127T764 91L643 -26ZM285 292Q248 273 227 251T199 202Q188 159 215 136T307 112Q339 112 372 121T435 149Q390 189 353
224T285 292V292ZM488 532Q494 557 476 571T421 586Q385 586 362 572T333 534Q328 514 336 495T368 448Q407 461 431 473T469 500T488 532V532Z" />
<glyph unicode="&apos;" glyph-name="quotesingle" horiz-adv-x="296" d="M128 449L186 730H353L273 449H128Z" />
<glyph unicode="(" glyph-name="parenleft" horiz-adv-x="364" d="M92 -180Q51 -57 48 78T77 345Q101 440 134 518T214 671T328 824H509Q439 741 386 658T297 491T239 323Q206 190 211 64T259 -180H92Z" />
<glyph unicode=")" glyph-name="parenright" horiz-adv-x="364" d="M312 824Q353 701 356 566T327 299Q303 203 270 124T189 -29T76 -180H-105Q-36 -98 17 -15T107 152T165 321Q198 454 193 580T145 824H312Z" />
<glyph unicode="*" glyph-name="asterisk" horiz-adv-x="514" d="M393 592L542 655L555 524L402 494L476 385L350 311L310 439L207 311L112 391L239 500L102 530L174 655L292 592L314 740H451L393 592Z" />
<glyph unicode="+" glyph-name="plus" horiz-adv-x="650" d="M198 43L251 256H49L82 388H284L336 599H492L440 388H641L608 256H407L354 43H198Z" />
<glyph unicode="," glyph-name="comma" horiz-adv-x="320" d="M239 184L200 30Q183 -38 157 -78T89 -146T-22 -195L-39 -107Q-4 -91 17 -76T51 -43T70 0H5L51 184H239Z" />
<glyph unicode="-" glyph-name="hyphen" horiz-adv-x="376" d="M31 207L69 360H366L328 207H31Z" />
<glyph unicode="." glyph-name="period" horiz-adv-x="320" d="M6 0L53 184H241L194 0H6Z" />
<glyph unicode="/" glyph-name="slash" horiz-adv-x="465" d="M-148 -142L457 778H633L27 -142H-148Z" />
<glyph unicode="0" glyph-name="zero" horiz-adv-x="712" d="M690 332Q662 219 608 141T475 23T298 -18Q201 -18 140 27T62 155T72 350Q100 463 154 541T287 659T464 700Q561 700 622 655T700 527T690 332V332ZM508 340Q535 449 518 501T435 553Q370 553 326 501T254
342Q227 233 244 181T327 129Q392 129 436 181T508 340V340Z" />
<glyph unicode="1" glyph-name="one" horiz-adv-x="462" d="M264 489Q224 470 184 462T90 453L124 591Q179 591 218 600T286 628T338 682H495L325 0H141L264 489Z" />
<glyph unicode="2" glyph-name="two" horiz-adv-x="626" d="M530 0H-31L7 151Q91 199 155 237T266 305T347 360T401 404T433 442T450 479Q457 506 451 525T428 553T383 563Q356 563 333 552T295 520T273 475Q269 461 268 445T266 406H95Q93 423 95 444T101 482Q118
550 160 599T267 674T414 700Q495 700 550 671T627 591T633 475Q626 449 616 426T589 379T545 331T479 280T387 221T261 152L260 147Q332 151 432 151H569L530 0Z" />
<glyph unicode="3" glyph-name="three" horiz-adv-x="646" d="M197 226Q191 167 213 141T290 114Q334 114 364 135T404 198Q415 242 390 261T300 281H246L279 411H333Q366 411 390 418T433 439Q446 450 454 464T467 495Q476 529 457 548T397 568Q349 568 314 540T257
453L98 490Q137 592 220 646T421 700Q504 700 561 675T641 604T650 501Q636 445 597 407T498 351V348Q554 333 579 292T591 192Q573 121 531 75T424 5T268 -18Q130 -18 66 41T19 212L197 226Z" />
<glyph unicode="4" glyph-name="four" horiz-adv-x="662" d="M298 0L336 153H8L44 296L377 682H642L544 290H644L610 153H510L472 0H298ZM406 433Q415 467 424 499T441 555H435L205 287Q278 289 309 289T363 290H370L406 433Z" />
<glyph unicode="5" glyph-name="five" horiz-adv-x="634" d="M885 544H564L515 417H518Q552 442 587 453T669 464Q740 464 787 433T851 348T849 222Q830 145 785 91T670 10T514 -18Q397 -18 332 34T273 175L442 206Q445 162 468 139T533 115Q564 115 591 128T637
166T666 226Q678 273 656 303T588 334Q557 334 531 320T476 276H320L462 682H920L885 544Z" />
<glyph unicode="6" glyph-name="six" horiz-adv-x="658" d="M518 497Q511 526 501 541T475 562T430 568Q373 568 332 520T255 363Q323 434 419 434Q499 434 547 408T612 333T611 214Q594 144 549 92T434 11T281 -18Q187 -18 130 25T57 148T68 338Q114 522 209
611T456 700Q565 700 620 661T686 536L518 497ZM306 113Q338 113 362 124T402 158T427 215Q438 259 421 283T361 307Q316 307 284 282T241 212Q229 167 247 140T306 113V113Z" />
<glyph unicode="7" glyph-name="seven" horiz-adv-x="630" d="M91 0Q114 71 148 139T229 273T334 405T467 541H116L151 682H701L666 541Q583 465 521 396T413 262T337 132T289 0H91Z" />
<glyph unicode="8" glyph-name="eight" horiz-adv-x="670" d="M494 490Q503 525 482 546T416 568Q371 568 340 547T299 490Q290 455 310 433T376 411Q421 411 453 433T494 490V490ZM433 198Q443 236 420 258T344 281Q293 281 259 259T215 198Q205 159 228 137T303
114Q355 114 389 136T433 198V198ZM613 182Q597 116 554 72T441 5T278 -18Q186 -18 124 8T38 84T31 199Q45 256 85 297T190 358L191 361Q149 378 131 420T125 513Q139 571 181 613T289 677T440 700Q525 700 584 674T666 599T674 489Q662 441 626 404T536 348L535
345Q586 326 606 284T613 182V182Z" />
<glyph unicode="9" glyph-name="nine" horiz-adv-x="658" d="M184 186Q190 159 200 144T228 121T277 114Q335 114 376 162T452 316Q394 248 288 248Q208 248 160 274T95 349T96 468Q114 540 160 592T275 672T426 700Q520 700 577 657T650 534T639 344Q593 160
498 71T251 -18Q140 -18 82 23T16 149L184 186ZM401 569Q369 569 345 558T305 524T280 467Q269 424 286 400T346 375Q391 375 423 400T467 470Q479 515 460 542T401 569V569Z" />
<glyph unicode=":" glyph-name="colon" horiz-adv-x="346" d="M102 318L147 500H329L284 318H102ZM22 0L67 182H249L204 0H22Z" />
<glyph unicode=";" glyph-name="semicolon" horiz-adv-x="346" d="M101 318L146 500H328L283 318H101ZM249 182L211 30Q194 -36 169 -77T101 -146T-13 -195L-29 -107Q11 -88 31 -73T63 -41T80 0H21L67 182H249Z" />
<glyph unicode="&lt;" glyph-name="less" horiz-adv-x="650" d="M546 47L57 248L94 396L683 596L642 430L409 356Q372 344 325 332T257 316L256 314Q277 310 319 297T389 274L585 199L546 47Z" />
<glyph unicode="=" glyph-name="equal" horiz-adv-x="650" d="M572 152H32L66 283H606L572 152ZM625 361H85L119 492H659L625 361Z" />
<glyph unicode="&gt;" glyph-name="greater" horiz-adv-x="650" d="M144 596L633 395L596 247L7 47L48 213L281 287Q318 299 365 311T433 327L434 329Q413 333 371 346T301 369L105 444L144 596Z" />
<glyph unicode="?" glyph-name="question" horiz-adv-x="647" d="M259 273Q264 302 277 326T312 370T379 416T438 454T462 479T476 508Q480 523 477 536T464 559T439 574T404 579Q378 579 356 568T317 537T294 490Q288 467 284 439H114Q114 464 122 496Q140 566
182 615T288 690T430 716Q513 716 570 689T651 613T659 504Q650 467 633 438T588 386T514 337T452 302T428 280T415 254L404 216H249L259 273ZM181 0L222 164H402L361 0H181Z" />
<glyph unicode="@" glyph-name="at" horiz-adv-x="1044" d="M1022 340Q1015 251 977 183T876 77T732 39Q671 39 638 54T591 105Q565 75 525 57T444 39Q383 39 343 60T284 123T271 229Q276 300 308 362T394 457T515 490Q554 490 582 477T626 437H628L641 483H794L733
245Q724 208 724 190T730 165T755 157Q790 157 817 179T862 240T883 328Q890 413 858 475T757 569T590 602Q479 602 390 557T246 429T185 247Q178 152 213 79T322 -34T495 -74Q556 -74 617 -66T733 -44L739 -157Q685 -172 618 -180T479 -188Q373 -188 289 -158T148
-69T65 69T46 244Q55 377 130 485T329 655T602 716Q732 716 831 668T980 534T1022 340ZM589 298Q591 333 576 352T530 372Q503 372 482 356T447 309T430 242Q428 213 434 194T454 166T487 157Q515 157 536 175T572 227T589 298Z" />
<glyph unicode="A" glyph-name="A" horiz-adv-x="713" d="M576 682L644 0H451L444 126H213L145 0H-52L357 682H576ZM432 542H430Q395 467 383 442T361 399L282 254H438L430 399Q429 423 429 451T432 542V542Z" />
<glyph unicode="B" glyph-name="B" horiz-adv-x="729" d="M182 682Q241 683 322 683T468 684Q563 684 621 666T709 610Q725 588 729 560T726 500Q712 445 676 410T579 357Q638 342 663 299T674 194Q657 125 613 82T497 18T303 -2Q240 -2 168 -2T12 0L182 682ZM289
413H401Q445 413 470 418T512 436Q524 446 531 457T541 482Q548 511 536 527Q526 541 502 545T421 550Q401 550 374 550T323 548L289 413ZM219 134Q289 132 308 132T344 132Q391 132 421 140T469 164T493 206Q500 233 492 250T462 276T398 284H257L219 134Z" />
<glyph unicode="C" glyph-name="C" horiz-adv-x="715" d="M678 210Q627 98 537 40T324 -18Q222 -18 153 29T61 161T65 352Q91 459 149 537T291 657T474 700Q587 700 659 642T740 483L567 430Q562 489 534 518T454 547Q408 547 366 521T292 448T245 339Q230 278
238 233T276 162T355 137Q410 137 452 170T533 275L678 210Z" />
<glyph unicode="D" glyph-name="D" horiz-adv-x="755" d="M182 682Q245 683 313 683T433 684Q534 684 600 660T706 583Q741 536 750 471T742 332Q723 254 686 193T594 88Q536 42 461 20T285 -2Q236 -2 164 -2T12 0L182 682ZM220 141Q241 140 262 139T306 138Q363
138 399 148T466 184Q500 211 523 250T559 341Q571 391 568 432T545 499Q526 524 496 534T401 544Q373 544 358 544T320 543L220 141Z" />
<glyph unicode="E" glyph-name="E" horiz-adv-x="655" d="M182 682H706L673 550H324L288 411H592L559 283H256L219 133H586L553 0H12L182 682Z" />
<glyph unicode="F" glyph-name="F" horiz-adv-x="607" d="M182 682H683L649 548H323L282 387H566L533 257H250L186 0H12L182 682Z" />
<glyph unicode="G" glyph-name="G" horiz-adv-x="777" d="M508 0L524 60H523Q474 16 427 -1T317 -18Q219 -18 151 30T61 163T64 351Q91 459 153 538T304 658T498 700Q599 700 669 665T779 560L618 459Q599 503 563 525T473 547Q420 547 374 521T294 447T245 337Q229
274 238 228T280 156T369 131Q436 131 484 165T545 252V254H414L446 382H749L652 0H508Z" />
<glyph unicode="H" glyph-name="H" horiz-adv-x="770" d="M182 682H356L292 427H570L634 682H808L638 0H464L534 282H256L186 0H12L182 682Z" />
<glyph unicode="I" glyph-name="I" horiz-adv-x="318" d="M182 682H356L186 0H12L182 682Z" />
<glyph unicode="J" glyph-name="J" horiz-adv-x="577" d="M622 682L507 223Q493 166 469 121T408 45T322 -2T208 -18Q158 -18 115 -5T42 39T0 118T-1 237L176 265Q164 196 177 165T233 134Q273 134 298 159T335 231L448 682H622Z" />
<glyph unicode="K" glyph-name="K" horiz-adv-x="718" d="M824 682L531 442L664 0H475L383 321L236 201L186 0H12L182 682H356L291 424L594 682H824Z" />
<glyph unicode="L" glyph-name="L" horiz-adv-x="571" d="M182 682H356L222 147H527L491 0H12L182 682Z" />
<glyph unicode="M" glyph-name="M" horiz-adv-x="972" d="M182 682H465L484 399Q487 350 487 311T483 243H486Q497 275 517 315T561 399L722 682H1010L840 0H666L726 240Q750 339 770 413T810 548H804Q780 497 760 458T713 374L500 0H341L315 374Q312 426 311
467T312 548H306Q296 496 279 421T236 240L176 0H12L182 682Z" />
<glyph unicode="N" glyph-name="N" horiz-adv-x="762" d="M430 0L321 343Q313 370 304 411T290 484H286Q276 425 260 348T226 203L176 0H12L182 682H396L497 364Q505 338 514 296T528 223H532Q540 274 556 352T591 503L635 682H800L629 0H430Z" />
<glyph unicode="O" glyph-name="O" horiz-adv-x="794" d="M779 331Q753 226 691 147T537 25T340 -18Q234 -18 161 29T63 161T64 351Q90 457 153 536T308 658T504 700Q610 700 682 653T780 522T779 331V331ZM598 341Q613 402 604 448T561 520T473 546Q420 546 374
521T295 450T246 341Q231 280 240 234T283 162T371 136Q425 136 471 161T550 233T598 341V341Z" />
<glyph unicode="P" glyph-name="P" horiz-adv-x="689" d="M182 682Q232 682 321 683T460 684Q563 684 629 655T718 571T721 437Q702 361 657 311T537 237T355 212Q300 212 278 212T239 213L186 0H12L182 682ZM539 447Q548 481 540 502T504 533T430 544Q384 544
363 544T322 543L274 353Q293 352 314 352T381 352Q427 352 459 362T511 394T539 447V447Z" />
<glyph unicode="Q" glyph-name="Q" horiz-adv-x="794" d="M779 331Q761 260 728 203T649 101L695 41L583 -46L531 22Q442 -18 340 -18Q260 -18 199 9T102 84T54 201T64 351Q84 432 125 497T224 607T353 676T504 700Q584 700 644 673T742 598T789 481T779 331ZM498
300L549 232Q581 277 598 341Q609 387 607 424T588 489T543 531T473 546Q432 546 396 531T330 489T279 425T246 341Q234 295 237 258T256 193T301 151T371 136Q407 136 436 146L386 213L498 300Z" />
<glyph unicode="R" glyph-name="R" horiz-adv-x="713" d="M182 682Q235 682 333 683T469 684Q561 684 625 655T713 573T718 446Q706 397 682 360T622 296T539 255L641 0H447L366 231H243L186 0H12L182 682ZM278 370Q298 369 322 369T397 369Q435 369 463 379T510
409T537 461Q544 490 536 508T503 535T438 544Q386 544 321 543L278 370Z" />
<glyph unicode="S" glyph-name="S" horiz-adv-x="688" d="M85 203Q142 165 203 144T319 122Q355 122 383 129T428 151T451 186Q456 206 447 220T414 244T303 273T171 322T115 395T117 500Q133 563 175 608T285 676T439 700Q509 700 571 684T684 636L607 500Q561
529 512 545T417 561Q383 561 358 554T317 534T298 505Q293 487 302 474T333 452T445 423T578 375T636 299T634 190Q618 124 572 77T456 6T297 -18Q215 -18 141 4T6 69L85 203Z" />
<glyph unicode="T" glyph-name="T" horiz-adv-x="542" d="M257 542H72L107 682H655L620 542H435L300 0H122L257 542Z" />
<glyph unicode="U" glyph-name="U" horiz-adv-x="746" d="M250 286Q238 239 246 205T282 153T352 135Q398 135 433 152T492 204T528 286L627 682H791L686 264Q664 174 615 111T492 15T323 -18Q226 -18 162 20T76 127T75 284L175 682H349L250 286Z" />
<glyph unicode="V" glyph-name="V" horiz-adv-x="658" d="M162 0L104 682H291L309 352Q312 293 312 252T308 165H312Q331 209 353 254T404 354L579 682H773L374 0H162Z" />
<glyph unicode="W" glyph-name="W" horiz-adv-x="1077" d="M591 0L588 252Q587 348 587 383T591 447H587Q573 411 553 367T495 252L366 0H139L126 682H316L307 403Q305 361 303 312T296 166H300Q322 215 349 273T395 367L556 682H747L748 367Q748 244 747 216T745
166H749Q792 262 814 310T855 400L987 682H1171L818 0H591Z" />
<glyph unicode="X" glyph-name="X" horiz-adv-x="647" d="M394 0L326 237L136 0H-68L236 353L117 682H315L375 474L541 682H743L466 358L594 0H394Z" />
<glyph unicode="Y" glyph-name="Y" horiz-adv-x="658" d="M181 0L250 272L110 682H311L344 564Q355 523 360 506T377 447Q408 487 420 502T465 563L555 682H768L424 272L356 0H181Z" />
<glyph unicode="Z" glyph-name="Z" horiz-adv-x="628" d="M536 0H-28L7 142L419 544Q387 544 318 543T220 542H122L157 682H691L656 542L244 140Q279 140 360 141T473 142H571L536 0Z" />
<glyph unicode="[" glyph-name="bracketleft" horiz-adv-x="414" d="M277 -180H-33L217 824H529L496 694H340L154 -50H310L277 -180Z" />
<glyph unicode="\" glyph-name="backslash" horiz-adv-x="465" d="M250 -142L104 778H273L419 -142H250Z" />
<glyph unicode="]" glyph-name="bracketright" horiz-adv-x="414" d="M-75 -180L-42 -50H114L300 694H144L177 824H487L237 -180H-75Z" />
<glyph unicode="^" glyph-name="asciicircum" horiz-adv-x="650" d="M445 344L422 441Q418 459 412 491T400 556Q388 534 367 501T324 441L251 344H56L337 682H523L642 344H445Z" />
<glyph unicode="_" glyph-name="underscore" horiz-adv-x="650" d="M541 -193H-108L-74 -59H575L541 -193Z" />
<glyph unicode="`" glyph-name="grave" horiz-adv-x="382" d="M167 702H362L408 552H270L167 702Z" />
<glyph unicode="a" glyph-name="a" horiz-adv-x="555" d="M333 212Q289 212 259 208T209 197T180 178T166 151Q161 128 172 116T209 103Q235 103 261 116T305 152T330 201L333 212ZM498 233Q480 160 468 107T443 0H298L311 51H310Q274 17 234 1T144 -16Q60 -16
21 32T0 153Q10 195 36 225T106 276T213 306T359 316L362 328Q368 352 361 368T337 391T292 399Q255 399 214 384T129 341L83 441Q141 478 204 497T332 516Q405 516 453 493T519 426T521 320L498 233Z" />
<glyph unicode="b" glyph-name="b" horiz-adv-x="621" d="M222 242Q212 202 216 172T238 126T285 110Q316 110 343 127T391 177T421 250Q432 292 429 324T408 373T359 390Q329 390 302 373T256 326T226 257L222 242ZM180 702H341L300 543Q284 484 268 446H270Q304
481 344 498T430 516Q497 516 540 480T595 380T588 239Q569 161 528 104T428 15T299 -16Q248 -16 212 2T163 54H162L145 0H-3Q31 113 44 162T68 252L180 702Z" />
<glyph unicode="c" glyph-name="c" horiz-adv-x="547" d="M501 134Q454 58 390 21T241 -16Q161 -16 107 19T35 118T37 261Q57 340 100 397T208 485T348 516Q444 516 499 475T564 358L409 316Q405 353 387 370T334 387Q305 387 280 371T235 324T204 250Q194 209
198 178T219 130T267 113Q305 113 335 136T391 208L501 134Z" />
<glyph unicode="d" glyph-name="d" horiz-adv-x="621" d="M350 0L362 60H361Q327 23 285 4T195 -16Q128 -16 85 20T30 120T37 261Q57 340 98 398T198 486T326 516Q371 516 405 501T454 461H455Q463 512 471 543L511 702H671L558 250Q540 177 525 115T499 0H350ZM403
258Q413 296 410 326T388 373T340 390Q310 390 283 374T236 325T204 250Q193 208 196 176T217 127T266 110Q295 110 321 126T368 172T399 243L403 258Z" />
<glyph unicode="e" glyph-name="e" horiz-adv-x="591" d="M501 54Q447 20 384 2T258 -16Q170 -16 113 18T36 114T38 261Q58 342 103 399T215 486T362 516Q421 516 466 498T537 443T570 358T561 248Q553 214 544 200H193Q190 167 199 146T231 115T290 104Q330 104
375 118T458 158L501 54ZM406 304Q412 335 406 356T383 389T341 400Q315 400 293 389T252 357T220 304H406Z" />
<glyph unicode="f" glyph-name="f" horiz-adv-x="337" d="M15 0L109 376H47L78 500H139L157 574Q169 623 195 654T262 701T356 716Q384 716 412 713T461 705L424 580Q409 584 393 586T363 588Q349 588 339 584T322 570T311 546L299 500H391L359 376H269L175 0H15Z" />
<glyph unicode="g" glyph-name="g" horiz-adv-x="621" d="M629 500Q619 472 599 403T558 249Q548 212 530 134T502 15Q485 -53 445 -100T340 -170T190 -194Q125 -194 61 -182T-39 -150L31 -29Q64 -49 119 -62T222 -76Q251 -76 273 -68T311 -41T339 8L360 64H358Q325
30 285 13T198 -4Q132 -4 89 29T32 125T38 266Q57 342 98 398T198 485T326 516Q377 516 413 498T462 446H463L482 500H629ZM403 258Q413 297 409 327T388 373T340 390Q309 390 282 373T235 325T205 255Q195 214 199 183T222 136T269 120Q297 120 324 137T372 185T402
254L403 258Z" />
<glyph unicode="h" glyph-name="h" horiz-adv-x="614" d="M181 702H340L300 543Q287 491 268 446H270Q338 516 428 516Q489 516 528 489T579 412T574 296L498 0H338L401 250Q413 300 415 319T415 353Q410 372 396 381T357 390Q339 390 321 384T289 366Q267 349
253 322T227 251L165 0H4L181 702Z" />
<glyph unicode="i" glyph-name="i" horiz-adv-x="290" d="M141 552L180 702H341L304 552H141ZM5 0L130 500H290L165 0H5Z" />
<glyph unicode="j" glyph-name="j" horiz-adv-x="294" d="M294 500L168 1Q151 -68 123 -110T52 -171T-52 -191Q-87 -191 -113 -182L-82 -60H-51Q-31 -60 -21 -54T-2 -28T18 37L134 500H294ZM146 552L183 702H345L308 552H146Z" />
<glyph unicode="k" glyph-name="k" horiz-adv-x="574" d="M180 702H340L247 331L434 500H639L418 316L531 0H356L285 207L199 136L165 0H5L180 702Z" />
<glyph unicode="l" glyph-name="l" horiz-adv-x="290" d="M180 702H340L165 0H5L180 702Z" />
<glyph unicode="m" glyph-name="m" horiz-adv-x="940" d="M665 0L728 252Q741 304 743 321T742 353Q738 371 724 380T686 390Q669 390 652 384T619 366Q597 348 583 321T557 251L494 0H335L398 252Q411 304 413 321T412 353Q408 371 394 380T355 390Q338 390 321
384T289 366Q267 348 253 321T227 251L164 0H5L65 241Q84 316 98 377T126 500H275L263 440H264Q299 478 340 497T428 516Q481 516 515 495T562 436Q605 477 652 496T754 516Q814 516 852 489T903 413T898 297L824 0H665Z" />
<glyph unicode="n" glyph-name="n" horiz-adv-x="614" d="M339 0L401 250Q414 302 416 321T415 353Q410 372 396 381T357 390Q339 390 321 384T289 366Q267 348 253 322T227 251L164 0H5L65 241Q84 315 97 371T126 500H276L263 440H264Q299 478 340 497T428 516Q489
516 528 489T579 412T574 296L498 0H339Z" />
<glyph unicode="o" glyph-name="o" horiz-adv-x="604" d="M570 239Q550 158 506 101T395 14T247 -16Q164 -16 109 19T35 116T37 261Q57 341 101 398T212 486T360 516Q443 516 498 481T572 384T570 239V239ZM403 250Q413 291 409 321T387 368T336 385Q305 385 279
369T233 322T204 250Q194 209 198 179T220 132T271 115Q302 115 328 131T374 178T403 250V250Z" />
<glyph unicode="p" glyph-name="p" horiz-adv-x="621" d="M-41 -180L67 250Q79 298 92 354T126 500H277L263 440H264Q298 477 340 496T430 516Q497 516 540 480T595 380T588 239Q568 160 527 102T427 14T299 -16Q254 -16 220 -1T171 39H170Q166 3 154 -43L120
-180H-41ZM222 242Q212 202 216 172T238 126T285 110Q316 110 343 127T391 177T421 250Q432 294 428 326T407 374T359 390Q330 390 304 374T257 328T226 257L222 242Z" />
<glyph unicode="q" glyph-name="q" horiz-adv-x="621" d="M403 258Q413 296 410 326T388 373T340 390Q310 390 283 374T236 325T204 250Q193 208 196 176T217 127T266 110Q296 110 323 127T369 174T399 243L403 258ZM290 -180L325 -43Q338 8 357 54H355Q322 20
281 2T195 -16Q128 -16 85 20T30 120T37 261Q57 340 98 398T198 486T326 516Q377 516 413 498T462 446H463L481 500H628Q612 451 596 392T562 264L450 -180H290Z" />
<glyph unicode="r" glyph-name="r" horiz-adv-x="408" d="M5 0L65 240Q86 324 101 390T126 500H275L258 418H259Q296 469 338 492T434 516Q454 516 468 512L429 359Q408 360 392 360Q363 360 337 351T288 324Q258 300 241 267T205 161L165 0H5Z" />
<glyph unicode="s" glyph-name="s" horiz-adv-x="528" d="M57 164Q96 136 142 120T232 104Q255 104 271 108T298 120T311 139Q314 151 308 159T286 174T209 193T115 229T73 284T75 364Q88 414 121 448T206 499T327 516Q384 516 433 505T517 471L454 360Q422 380
385 390T312 401Q292 401 277 398T251 387T239 370Q236 358 242 350T264 336T341 317T436 281T479 225T477 144Q464 93 430 57T342 3T215 -16Q147 -16 88 0T-13 48L57 164Z" />
<glyph unicode="t" glyph-name="t" horiz-adv-x="376" d="M113 376H52L83 500H143L178 639L347 668L304 500H412L381 376H273L231 210Q223 178 220 162T218 138T224 124Q229 119 236 117T254 115Q265 115 281 117T308 121L296 1Q274 -7 245 -11T186 -16Q127 -16
94 4T52 65T58 165Q67 199 76 233T97 312L113 376Z" />
<glyph unicode="u" glyph-name="u" horiz-adv-x="610" d="M339 0L352 60H351Q315 21 276 3T190 -16Q130 -16 91 11T41 88T46 204L120 500H280L217 249Q204 198 202 180T202 147Q207 128 220 119T256 110Q274 110 293 117T325 135Q347 153 362 181T388 253L450
500H610L549 259Q529 181 512 109T488 0H339Z" />
<glyph unicode="v" glyph-name="v" horiz-adv-x="538" d="M112 0L62 500H232L241 304Q243 268 243 226T239 146H242Q258 182 277 221T319 304L418 500H606L306 0H112Z" />
<glyph unicode="w" glyph-name="w" horiz-adv-x="836" d="M428 0L429 169Q429 203 430 237T436 309H434Q422 278 408 247T371 169L287 0H97L71 500H236L240 296Q241 258 240 223T234 147H237Q267 218 279 245T303 297L404 500H561V296Q561 264 559 226T553 147H556Q570
180 586 217T623 296L721 500H895L619 0H428Z" />
<glyph unicode="x" glyph-name="x" horiz-adv-x="546" d="M253 500L303 366L407 500H597L384 253L494 0H306L248 151L130 0H-70L166 264L69 500H253Z" />
<glyph unicode="y" glyph-name="y" horiz-adv-x="538" d="M10 -180L114 -30V-30L62 500H231L240 305Q242 266 242 226T239 148H242Q260 188 278 225T318 305L418 500H606L199 -180H10Z" />
<glyph unicode="z" glyph-name="z" horiz-adv-x="535" d="M431 0H-16L15 128L301 377Q261 376 228 376T168 375H88L120 500H544L512 375L227 126Q251 126 306 127T380 128H463L431 0Z" />
<glyph unicode="{" glyph-name="braceleft" horiz-adv-x="474" d="M60 386H91Q129 386 145 394T171 422T192 483L227 622Q246 697 277 740T360 804T490 824H589L556 694H467Q440 694 424 686T398 660T380 614L347 483Q334 432 317 400T275 348T215 321L214 319Q246
311 261 292T277 240T266 157L234 31Q226 1 228 -16T243 -42T282 -50H370L337 -180H252Q174 -180 130 -157T74 -85T81 36L111 159Q121 201 120 221T107 250T57 258H28L60 386Z" />
<glyph unicode="|" glyph-name="bar" horiz-adv-x="341" d="M-15 -180L237 824H396L144 -180H-15Z" />
<glyph unicode="}" glyph-name="braceright" horiz-adv-x="474" d="M454 258H423Q385 258 369 250T343 222T322 161L287 22Q268 -53 237 -96T154 -160T24 -180H-75L-42 -50H47Q74 -50 90 -42T116 -16T134 30L167 161Q180 212 197 244T239 296T299 323L300 325Q268
333 253 351T237 402T248 487L280 613Q288 643 286 660T271 686T232 694H144L177 824H262Q340 824 384 801T440 729T433 608L403 485Q392 440 394 420T409 393T457 386H486L454 258Z" />
<glyph unicode="~" glyph-name="asciitilde" horiz-adv-x="650" d="M58 215Q58 282 81 333T150 411T260 439Q304 439 337 425T394 383T426 349T442 344Q453 344 462 354T476 383T481 429H624Q624 362 601 311T532 233T422 205Q378 205 345 219T288 261T256 295T240
300Q229 300 220 290T206 261T201 215H58Z" />
<glyph unicode="&#xa0;" glyph-name="space" horiz-adv-x="254" />
<glyph unicode="&#xa1;" glyph-name="exclamdown" horiz-adv-x="372" d="M300 390L197 -96H7L146 390H300ZM367 606L326 442H146L187 606H367Z" />
<glyph unicode="&#xa2;" glyph-name="cent" horiz-adv-x="566" d="M488 693L459 582Q511 567 542 530T579 439L433 395Q428 429 412 444T362 460Q319 460 287 429T242 344Q228 288 244 258T304 227Q338 227 367 246T424 306L531 239Q498 186 450 152T339 102L312
-10H170L200 104Q116 120 83 188T75 359Q98 450 162 509T320 586L346 693H488Z" />
<glyph unicode="&#xa3;" glyph-name="sterling" horiz-adv-x="650" d="M543 0H-5L27 132Q80 152 112 179T151 261L51 260L84 389H152Q148 532 222 616T454 700Q556 700 615 655T680 527L523 467Q516 513 495 535T436 557Q390 557 362 521T336 389H514L482 261H335Q329
219 315 194T263 148L262 143Q346 149 425 149H580L543 0Z" />
<glyph unicode="&#xa4;" glyph-name="currency" horiz-adv-x="668" d="M433 322Q443 361 427 385T373 410Q335 410 309 387T272 322Q262 282 278 258T332 234Q371 234 397 257T433 322V322ZM571 315Q558 260 525 218L596 130L480 42L410 144Q365 127 306 127Q250
127 212 143L92 42L18 146L130 233Q120 271 134 329Q148 386 180 425L110 514L225 603L295 500Q343 517 399 517Q455 517 493 501L612 603L687 498L574 411Q585 370 571 315V315Z" />
<glyph unicode="&#xa5;" glyph-name="yen" horiz-adv-x="650" d="M180 0L199 79H41L69 190H227L241 245H83L111 356H268L270 362L125 682H324L387 511L530 682H745L440 362L438 356H596L569 245H411L397 190H555L527 79H369L350 0H180Z" />
<glyph unicode="&#xa6;" glyph-name="brokenbar" horiz-adv-x="341" d="M-15 -180L91 240H250L144 -180H-15ZM132 405L237 824H396L291 405H132Z" />
<glyph unicode="&#xa7;" glyph-name="section" horiz-adv-x="651" d="M445 273Q451 297 434 311T363 339T288 358Q264 342 246 319T222 275Q218 257 225 245T252 223T317 204T380 188Q403 204 421 227T445 273V273ZM61 275Q72 319 105 357T188 420Q172 439 167
473T170 541Q184 598 220 637T312 696T445 716Q504 716 558 701T651 657L576 532Q539 558 500 573T427 588Q401 588 381 583T347 566T330 539Q326 523 334 511T361 490T452 462T560 417T607 356T606 272Q595 228 563 190T483 128Q500 107 507 73T506 6Q492 -51
455 -90T360 -149T230 -169Q197 -169 165 -164T103 -150T49 -127T10 -98L87 25Q123 -6 167 -23T248 -41Q276 -41 296 -36T329 -19T346 8Q350 25 342 37T313 58T219 86T108 130T61 191T61 275V275Z" />
<glyph unicode="&#xa8;" glyph-name="dieresis" horiz-adv-x="494" d="M360 552L397 702H547L510 552H360ZM140 552L177 702H327L290 552H140Z" />
<glyph unicode="&#xa9;" glyph-name="copyright" horiz-adv-x="980" d="M708 249Q667 182 605 148T464 113Q394 113 346 143T280 228T280 352Q297 422 336 471T433 546T563 571Q641 571 693 533T751 429L613 387Q604 421 588 434T542 448Q517 448 495 436T457
399T433 341Q425 308 429 284T449 248T490 236Q523 236 549 254T600 313L708 249ZM808 340Q815 428 782 499T683 611T528 651Q438 651 366 612T252 501T202 340Q195 251 228 180T327 69T480 30Q569 30 641 69T757 180T808 340V340ZM949 344Q940 222 875 121T703
-36T470 -93Q344 -93 247 -38T101 116T60 338Q69 459 133 559T304 717T538 774Q665 774 762 719T909 564T949 344V344Z" />
<glyph unicode="&#xaa;" glyph-name="ordfeminine" horiz-adv-x="524" d="M38 146L67 260H463L434 146H38ZM390 525Q341 525 311 520T266 503T246 473Q241 452 250 441T283 430Q317 430 347 454T387 514L390 525ZM534 543Q520 487 507 431T489 340H364L378 388H377Q354
357 317 342T230 326Q157 326 121 367T100 472Q114 525 150 555T250 601T413 616L415 625Q422 658 408 673T358 688Q330 688 297 677T214 638L167 720Q217 753 275 771T389 790Q485 790 528 744T551 613L534 543Z" />
<glyph unicode="&#xab;" glyph-name="guillemotleft" horiz-adv-x="684" d="M431 47L348 292L545 522L664 452L536 277L576 101L431 47ZM160 31L68 292L281 538L399 467L256 277L305 85L160 31Z" />
<glyph unicode="&#xac;" glyph-name="logicalnot" horiz-adv-x="650" d="M385 67L434 256H49L82 388H623L542 67H385Z" />
<glyph unicode="&#xad;" glyph-name="hyphen" horiz-adv-x="376" d="M31 207L69 360H366L328 207H31Z" />
<glyph unicode="&#xae;" glyph-name="registered" horiz-adv-x="736" d="M735 529Q729 448 685 379T570 271T416 232Q333 232 269 270T171 375T143 525Q149 606 193 675T308 783T462 822Q546 822 611 783T708 677T735 529V529ZM648 527Q653 590 630 641T562 720T456
748Q395 748 345 719T264 640T230 527Q225 463 248 412T317 334T422 306Q483 306 533 335T614 414T648 527V527ZM346 681Q438 682 478 682Q551 682 584 654T605 573Q598 546 579 526T528 494L563 385L454 384L432 480H396L372 385H272L346 681ZM413 550Q425 550
454 550Q475 550 487 557T502 579Q506 595 499 602T468 610H428L413 550Z" />
<glyph unicode="&#xaf;" glyph-name="overscore" horiz-adv-x="470" d="M487 559H141L173 687H519L487 559Z" />
<glyph unicode="&#xb0;" glyph-name="degree" horiz-adv-x="455" d="M521 616Q516 539 458 493T306 447Q212 447 163 491T120 614Q125 691 183 736T334 782Q427 782 476 738T521 616V616ZM386 615Q388 645 373 662T325 679Q293 679 275 662T255 615Q253 583 269
567T317 550Q349 550 366 567T386 615V615Z" />
<glyph unicode="&#xb1;" glyph-name="plusminus" horiz-adv-x="650" d="M535 0H-5L28 132H568L535 0ZM232 184L279 368H86L120 500H312L356 682H513L468 500H660L626 368H435L388 184H232Z" />
<glyph unicode="&#xb2;" glyph-name="twosuperior" horiz-adv-x="543" d="M504 338H86L121 477Q210 514 264 538T349 580T390 610T406 638Q411 657 402 668T370 679Q348 679 334 669T315 640Q312 629 311 619T310 599H161Q160 606 161 618T165 644Q183 716 242
753T397 790Q499 790 546 749T575 632Q568 604 550 581T501 537T425 497T319 460L318 455Q399 458 457 458H534L504 338Z" />
<glyph unicode="&#xb3;" glyph-name="threesuperior" horiz-adv-x="543" d="M256 486Q254 456 267 442T309 428Q331 428 346 439T366 469Q372 492 358 503T309 514H262L285 606H326Q351 606 366 610T391 624T406 650Q411 667 402 678T372 689Q345 689 327 675T295
630L157 657Q184 722 245 756T395 790Q493 790 542 754T577 656Q568 622 540 599T470 566L469 563Q513 552 530 525T537 454Q521 392 458 359T290 326Q190 326 142 364T106 474L256 486Z" />
<glyph unicode="&#xb4;" glyph-name="acute" horiz-adv-x="394" d="M129 552L249 702H459L280 552H129Z" />
<glyph unicode="&#xb5;" glyph-name="mu" horiz-adv-x="620" d="M-41 -180Q-26 -121 -11 -62T22 69L130 500H290L227 249Q214 198 212 180T212 147Q216 129 230 120T267 110Q284 110 302 117T335 136Q357 154 372 181T398 253L460 500H620L559 259Q538 176 522
107T498 0H349L362 60H361Q325 21 293 5T224 -12Q208 -12 191 -7T164 7H163Q148 -57 138 -104T122 -180H-41Z" />
<glyph unicode="&#xb6;" glyph-name="paragraph" horiz-adv-x="793" d="M461 -180L641 539H548L368 -180H214L309 196H291Q169 196 115 261T90 442Q109 519 156 573T273 654T431 682H831L615 -180H461Z" />
<glyph unicode="&#xb7;" glyph-name="middot" horiz-adv-x="320" d="M63 231L109 413H296L251 231H63Z" />
<glyph unicode="&#xb8;" glyph-name="cedilla" horiz-adv-x="322" d="M-48 -180Q-24 -163 -7 -145T14 -114Q17 -103 12 -93T-10 -71L56 8H183L146 -36Q166 -54 172 -70T173 -107Q168 -127 151 -145T109 -180H-48Z" />
<glyph unicode="&#xb9;" glyph-name="onesuperior" horiz-adv-x="390" d="M179 338L248 617Q230 604 197 597T124 589L154 711Q204 711 244 729T304 778H449L341 338H179Z" />
<glyph unicode="&#xba;" glyph-name="ordmasculine" horiz-adv-x="555" d="M38 146L67 260H498L469 146H38ZM589 550Q562 443 487 385T306 326Q197 326 147 391T124 566Q151 673 226 731T407 790Q516 790 566 725T589 550V550ZM444 558Q458 613 443 644T386 676Q345
676 314 645T269 558Q256 503 271 472T327 440Q369 440 400 471T444 558V558Z" />
<glyph unicode="&#xbb;" glyph-name="guillemotright" horiz-adv-x="684" d="M274 521L357 276L160 46L41 116L169 291L129 467L274 521ZM545 537L637 276L424 30L306 101L449 291L400 483L545 537Z" />
<glyph unicode="&#xbc;" glyph-name="onequarter" horiz-adv-x="995" d="M941 778L180 -96H11L771 778H941ZM179 338L248 617Q230 604 197 597T124 589L154 711Q204 711 244 729T304 778H449L341 338H179ZM647 -96L667 -18H422L454 111L679 344H916L855 100H924L895
-18H826L807 -96H647ZM594 97Q621 99 645 99T696 100L715 176Q723 206 731 235H727L594 97Z" />
<glyph unicode="&#xbd;" glyph-name="onehalf" horiz-adv-x="1024" d="M941 778L180 -96H11L771 778H941ZM179 338L248 617Q230 604 197 597T124 589L154 711Q204 711 244 729T304 778H449L341 338H179ZM877 -96H459L494 43Q583 80 637 104T722 146T763 176T779
204Q784 223 775 234T743 245Q721 245 707 235T688 206Q685 195 684 185T683 165H534Q533 172 534 184T538 210Q556 282 615 319T770 356Q872 356 919 315T948 198Q941 170 923 147T874 103T798 63T692 26L691 21Q772 24 830 24H907L877 -96Z" />
<glyph unicode="&#xbe;" glyph-name="threequarters" horiz-adv-x="1127" d="M1073 778L312 -96H143L903 778H1073ZM778 -96L798 -18H553L585 111L810 344H1047L986 100H1055L1026 -18H957L938 -96H778ZM725 97Q752 99 776 99T827 100L846 176Q854 206 862 235H858L725
97ZM256 486Q254 456 267 442T309 428Q331 428 346 439T366 469Q372 492 358 503T309 514H262L285 606H326Q351 606 366 610T391 624T406 650Q411 667 402 678T372 689Q345 689 327 675T295 630L157 657Q184 722 245 756T395 790Q493 790 542 754T577 656Q568 622
540 599T470 566L469 563Q513 552 530 525T537 454Q521 392 458 359T290 326Q190 326 142 364T106 474L256 486Z" />
<glyph unicode="&#xbf;" glyph-name="questiondown" horiz-adv-x="647" d="M419 333Q414 304 401 280T366 236T299 190T240 152T216 127T202 98Q198 83 201 70T214 47T239 32T274 27Q300 27 322 38T361 69T384 116Q390 139 394 167H564Q564 142 556 110Q538 40
496 -9T390 -84T248 -110Q165 -110 108 -83T27 -7T19 102Q28 139 45 168T90 220T164 269T226 304T250 326T263 352L274 390H429L419 333ZM497 606L456 442H276L317 606H497Z" />
<glyph unicode="&#xc0;" glyph-name="Agrave" horiz-adv-x="713" d="M576 682L644 0H451L444 126H213L145 0H-52L357 682H576ZM432 542H430Q395 467 383 442T361 399L282 254H438L430 399Q429 423 429 451T432 542V542ZM432 734L327 884H535L579 734H432Z" />
<glyph unicode="&#xc1;" glyph-name="Aacute" horiz-adv-x="713" d="M576 682L644 0H451L444 126H213L145 0H-52L357 682H576ZM432 542H430Q395 467 383 442T361 399L282 254H438L430 399Q429 423 429 451T432 542V542ZM374 734L495 884H716L536 734H374Z" />
<glyph unicode="&#xc2;" glyph-name="Acircumflex" horiz-adv-x="713" d="M576 682L644 0H451L444 126H213L145 0H-52L357 682H576ZM432 542H430Q395 467 383 442T361 399L282 254H438L430 399Q429 423 429 451T432 542V542ZM411 887H623L694 737H546L502 803L426
737H267L411 887Z" />
<glyph unicode="&#xc3;" glyph-name="Atilde" horiz-adv-x="713" d="M576 682L644 0H451L444 126H213L145 0H-52L357 682H576ZM432 542H430Q395 467 383 442T361 399L282 254H438L430 399Q429 423 429 451T432 542V542ZM414 769Q402 769 395 761T382 734H256Q273
815 318 854T440 893Q469 893 493 887T541 867T570 852T582 849Q594 849 601 857T614 884H740Q723 803 678 764T556 725Q527 725 503 731T456 751T427 766T414 769V769Z" />
<glyph unicode="&#xc4;" glyph-name="Adieresis" horiz-adv-x="713" d="M576 682L644 0H451L444 126H213L145 0H-52L357 682H576ZM432 542H430Q395 467 383 442T361 399L282 254H438L430 399Q429 423 429 451T432 542V542ZM524 734L562 884H722L684 734H524ZM274
734L312 884H472L434 734H274Z" />
<glyph unicode="&#xc5;" glyph-name="Aring" horiz-adv-x="713" d="M576 682L644 0H451L444 126H213L145 0H-52L357 682H576ZM432 542H430Q395 467 383 442T361 399L282 254H438L430 399Q429 423 429 451T432 542V542ZM536 834Q540 851 535 861T514 872Q498 872
487 862T472 834Q468 817 473 807T495 796Q511 796 521 806T536 834ZM655 827Q643 779 599 749T482 718Q407 718 374 752T353 841Q365 889 409 919T526 950Q601 950 635 916T655 827Z" />
<glyph unicode="&#xc6;" glyph-name="AE" horiz-adv-x="996" d="M277 236H440L518 550H481L277 236ZM1047 682L1014 550H692L657 411H932L901 283H625L588 133H927L894 0H381L408 109H193L126 0H-73L389 682H1047Z" />
<glyph unicode="&#xc7;" glyph-name="Ccedilla" horiz-adv-x="715" d="M678 210Q627 98 537 40T324 -18Q222 -18 153 29T61 161T65 352Q91 459 149 537T291 657T474 700Q587 700 659 642T740 483L567 430Q562 489 534 518T454 547Q408 547 366 521T292 448T245
339Q230 278 238 233T276 162T355 137Q410 137 452 170T533 275L678 210ZM216 -115Q219 -101 212 -91T192 -71L258 8H396L359 -36Q377 -52 384 -69T386 -107Q381 -126 364 -145T322 -180H154Q184 -158 199 -141T216 -115Z" />
<glyph unicode="&#xc8;" glyph-name="Egrave" horiz-adv-x="655" d="M182 682H706L673 550H324L288 411H592L559 283H256L219 133H586L553 0H12L182 682ZM421 734L316 884H524L568 734H421Z" />
<glyph unicode="&#xc9;" glyph-name="Eacute" horiz-adv-x="655" d="M182 682H706L673 550H324L288 411H592L559 283H256L219 133H586L553 0H12L182 682ZM363 734L484 884H705L525 734H363Z" />
<glyph unicode="&#xca;" glyph-name="Ecircumflex" horiz-adv-x="655" d="M182 682H706L673 550H324L288 411H592L559 283H256L219 133H586L553 0H12L182 682ZM400 887H612L683 737H535L491 803L415 737H256L400 887Z" />
<glyph unicode="&#xcb;" glyph-name="Edieresis" horiz-adv-x="655" d="M182 682H706L673 550H324L288 411H592L559 283H256L219 133H586L553 0H12L182 682ZM513 734L551 884H711L673 734H513ZM263 734L301 884H461L423 734H263Z" />
<glyph unicode="&#xcc;" glyph-name="Igrave" horiz-adv-x="318" d="M182 682H356L186 0H12L182 682ZM491 734L386 884H594L638 734H491Z" />
<glyph unicode="&#xcd;" glyph-name="Iacute" horiz-adv-x="318" d="M182 682H356L186 0H12L182 682ZM179 734L300 884H521L341 734H179Z" />
<glyph unicode="&#xce;" glyph-name="Icircumflex" horiz-adv-x="318" d="M182 682H356L186 0H12L182 682ZM470 887H682L753 737H605L561 803L485 737H326L470 887Z" />
<glyph unicode="&#xcf;" glyph-name="Idieresis" horiz-adv-x="318" d="M182 682H356L186 0H12L182 682ZM583 734L621 884H781L743 734H583ZM333 734L371 884H531L493 734H333Z" />
<glyph unicode="&#xd0;" glyph-name="Eth" horiz-adv-x="765" d="M92 282H12L45 412H125L192 682Q255 683 323 683T443 684Q544 684 610 660T716 583Q751 536 760 471T752 332Q733 254 696 193T604 88Q546 42 471 20T295 -2Q246 -2 174 -2T22 0L92 282ZM230 141Q251
140 272 139T316 138Q373 138 409 148T476 184Q510 211 533 250T569 341Q581 391 578 432T555 499Q536 524 506 534T411 544Q387 544 371 544T330 543L298 412H464L431 282H265L230 141Z" />
<glyph unicode="&#xd1;" glyph-name="Ntilde" horiz-adv-x="762" d="M430 0L321 343Q313 370 304 411T290 484H286Q276 425 260 348T226 203L176 0H12L182 682H396L497 364Q505 338 514 296T528 223H532Q540 274 556 352T591 503L635 682H800L629 0H430ZM450 769Q438
769 431 761T418 734H292Q309 815 354 854T476 893Q505 893 529 887T577 867T606 852T618 849Q630 849 637 857T650 884H776Q759 803 714 764T592 725Q563 725 539 731T492 751T463 766T450 769V769Z" />
<glyph unicode="&#xd2;" glyph-name="Ograve" horiz-adv-x="794" d="M779 331Q753 226 691 147T537 25T340 -18Q234 -18 161 29T63 161T64 351Q90 457 153 536T308 658T504 700Q610 700 682 653T780 522T779 331V331ZM598 341Q613 402 604 448T561 520T473 546Q420
546 374 521T295 450T246 341Q231 280 240 234T283 162T371 136Q425 136 471 161T550 233T598 341V341ZM472 734L367 884H575L619 734H472Z" />
<glyph unicode="&#xd3;" glyph-name="Oacute" horiz-adv-x="794" d="M779 331Q753 226 691 147T537 25T340 -18Q234 -18 161 29T63 161T64 351Q90 457 153 536T308 658T504 700Q610 700 682 653T780 522T779 331V331ZM598 341Q613 402 604 448T561 520T473 546Q420
546 374 521T295 450T246 341Q231 280 240 234T283 162T371 136Q425 136 471 161T550 233T598 341V341ZM414 734L535 884H756L576 734H414Z" />
<glyph unicode="&#xd4;" glyph-name="Ocircumflex" horiz-adv-x="794" d="M779 331Q753 226 691 147T537 25T340 -18Q234 -18 161 29T63 161T64 351Q90 457 153 536T308 658T504 700Q610 700 682 653T780 522T779 331V331ZM598 341Q613 402 604 448T561 520T473
546Q420 546 374 521T295 450T246 341Q231 280 240 234T283 162T371 136Q425 136 471 161T550 233T598 341V341ZM452 887H664L735 737H587L543 803L467 737H308L452 887Z" />
<glyph unicode="&#xd5;" glyph-name="Otilde" horiz-adv-x="794" d="M779 331Q753 226 691 147T537 25T340 -18Q234 -18 161 29T63 161T64 351Q90 457 153 536T308 658T504 700Q610 700 682 653T780 522T779 331V331ZM598 341Q613 402 604 448T561 520T473 546Q420
546 374 521T295 450T246 341Q231 280 240 234T283 162T371 136Q425 136 471 161T550 233T598 341V341ZM455 769Q443 769 436 761T423 734H297Q314 815 359 854T481 893Q510 893 534 887T582 867T611 852T623 849Q635 849 642 857T655 884H781Q764 803 719 764T597
725Q568 725 544 731T497 751T468 766T455 769V769Z" />
<glyph unicode="&#xd6;" glyph-name="Odieresis" horiz-adv-x="794" d="M779 331Q753 226 691 147T537 25T340 -18Q234 -18 161 29T63 161T64 351Q90 457 153 536T308 658T504 700Q610 700 682 653T780 522T779 331V331ZM598 341Q613 402 604 448T561 520T473
546Q420 546 374 521T295 450T246 341Q231 280 240 234T283 162T371 136Q425 136 471 161T550 233T598 341V341ZM565 734L603 884H763L725 734H565ZM315 734L353 884H513L475 734H315Z" />
<glyph unicode="&#xd7;" glyph-name="multiply" horiz-adv-x="650" d="M450 53L327 222L120 53L36 164L246 330L120 496L243 591L365 422L572 591L656 480L446 314L572 148L450 53Z" />
<glyph unicode="&#xd8;" glyph-name="Oslash" horiz-adv-x="794" d="M242 341Q237 322 235 302T231 261L550 537Q536 544 517 548T475 552Q421 552 374 527T293 454T242 341V341ZM602 341Q607 361 609 382T612 423L293 145Q308 138 328 134T369 130Q423 130 470
155T551 228T602 341V341ZM-15 48L75 129Q54 173 52 230T64 351Q91 457 154 536T308 658T504 700Q555 700 600 688T680 654L768 729L858 631L768 553Q789 509 792 452T779 331Q753 225 690 146T536 24T340 -18Q289 -18 244 -6T163 28L71 -49L-15 48Z" />
<glyph unicode="&#xd9;" glyph-name="Ugrave" horiz-adv-x="746" d="M250 286Q238 239 246 205T282 153T352 135Q398 135 433 152T492 204T528 286L627 682H791L686 264Q664 174 615 111T492 15T323 -18Q226 -18 162 20T76 127T75 284L175 682H349L250 286ZM448
734L343 884H551L595 734H448Z" />
<glyph unicode="&#xda;" glyph-name="Uacute" horiz-adv-x="746" d="M250 286Q238 239 246 205T282 153T352 135Q398 135 433 152T492 204T528 286L627 682H791L686 264Q664 174 615 111T492 15T323 -18Q226 -18 162 20T76 127T75 284L175 682H349L250 286ZM390
734L511 884H732L552 734H390Z" />
<glyph unicode="&#xdb;" glyph-name="Ucircumflex" horiz-adv-x="746" d="M250 286Q238 239 246 205T282 153T352 135Q398 135 433 152T492 204T528 286L627 682H791L686 264Q664 174 615 111T492 15T323 -18Q226 -18 162 20T76 127T75 284L175 682H349L250 286ZM428
887H640L711 737H563L519 803L443 737H284L428 887Z" />
<glyph unicode="&#xdc;" glyph-name="Udieresis" horiz-adv-x="746" d="M250 286Q238 239 246 205T282 153T352 135Q398 135 433 152T492 204T528 286L627 682H791L686 264Q664 174 615 111T492 15T323 -18Q226 -18 162 20T76 127T75 284L175 682H349L250 286ZM541
734L579 884H739L701 734H541ZM291 734L329 884H489L451 734H291Z" />
<glyph unicode="&#xdd;" glyph-name="Yacute" horiz-adv-x="658" d="M181 0L250 272L110 682H311L344 564Q355 523 360 506T377 447Q408 487 420 502T465 563L555 682H768L424 272L356 0H181ZM346 734L467 884H688L508 734H346Z" />
<glyph unicode="&#xde;" glyph-name="Thorn" horiz-adv-x="689" d="M251 262Q270 261 291 261T359 261Q405 261 437 271T489 303T517 356Q526 390 518 411T482 442T408 453Q362 453 340 453T299 452L251 262ZM12 0L182 682H356L334 592Q346 592 381 592T438 593Q541
593 607 564T696 480T699 346Q680 270 635 220T515 146T333 121Q287 121 216 122L186 0H12Z" />
<glyph unicode="&#xdf;" glyph-name="germandbls" horiz-adv-x="678" d="M125 481Q145 563 188 614T297 691T457 716Q542 716 597 694T674 630T683 536Q675 503 658 478T615 433T550 397T501 375T486 364T478 351Q476 342 480 335T493 322T543 299T605 259T631
207T626 139Q614 90 583 55T501 2T385 -16Q337 -16 297 -8T230 15L282 137Q311 122 345 113T408 103Q421 103 432 107T450 119T460 138Q462 148 458 155T445 169T395 192T335 232T309 285T314 355Q321 384 336 407T374 450T437 487T488 512T505 526T514 543Q518
559 511 571T484 591T433 598Q393 598 364 585T314 545T283 474L164 0H4L125 481Z" />
<glyph unicode="&#xe0;" glyph-name="agrave" horiz-adv-x="555" d="M333 212Q289 212 259 208T209 197T180 178T166 151Q161 128 172 116T209 103Q235 103 261 116T305 152T330 201L333 212ZM498 233Q480 160 468 107T443 0H298L311 51H310Q274 17 234 1T144
-16Q60 -16 21 32T0 153Q10 195 36 225T106 276T213 306T359 316L362 328Q368 352 361 368T337 391T292 399Q255 399 214 384T129 341L83 441Q141 478 204 497T332 516Q405 516 453 493T519 426T521 320L498 233ZM206 706H401L447 556H309L206 706Z" />
<glyph unicode="&#xe1;" glyph-name="aacute" horiz-adv-x="555" d="M333 212Q289 212 259 208T209 197T180 178T166 151Q161 128 172 116T209 103Q235 103 261 116T305 152T330 201L333 212ZM498 233Q480 160 468 107T443 0H298L311 51H310Q274 17 234 1T144
-16Q60 -16 21 32T0 153Q10 195 36 225T106 276T213 306T359 316L362 328Q368 352 361 368T337 391T292 399Q255 399 214 384T129 341L83 441Q141 478 204 497T332 516Q405 516 453 493T519 426T521 320L498 233ZM256 556L376 706H586L407 556H256Z" />
<glyph unicode="&#xe2;" glyph-name="acircumflex" horiz-adv-x="555" d="M333 212Q289 212 259 208T209 197T180 178T166 151Q161 128 172 116T209 103Q235 103 261 116T305 152T330 201L333 212ZM498 233Q480 160 468 107T443 0H298L311 51H310Q274 17 234 1T144
-16Q60 -16 21 32T0 153Q10 195 36 225T106 276T213 306T359 316L362 328Q368 352 361 368T337 391T292 399Q255 399 214 384T129 341L83 441Q141 478 204 497T332 516Q405 516 453 493T519 426T521 320L498 233ZM296 706H488L558 556H421L377 622L301 556H150L296
706Z" />
<glyph unicode="&#xe3;" glyph-name="atilde" horiz-adv-x="555" d="M333 212Q289 212 259 208T209 197T180 178T166 151Q161 128 172 116T209 103Q235 103 261 116T305 152T330 201L333 212ZM498 233Q480 160 468 107T443 0H298L311 51H310Q274 17 234 1T144
-16Q60 -16 21 32T0 153Q10 195 36 225T106 276T213 306T359 316L362 328Q368 352 361 368T337 391T292 399Q255 399 214 384T129 341L83 441Q141 478 204 497T332 516Q405 516 453 493T519 426T521 320L498 233ZM293 595Q280 595 273 587T260 560H147Q162 640
204 678T320 716Q347 716 370 710T415 692T443 678T456 675Q469 675 476 683T489 710H602Q587 630 545 592T429 554Q402 554 379 560T334 578T306 592T293 595V595Z" />
<glyph unicode="&#xe4;" glyph-name="adieresis" horiz-adv-x="555" d="M333 212Q289 212 259 208T209 197T180 178T166 151Q161 128 172 116T209 103Q235 103 261 116T305 152T330 201L333 212ZM498 233Q480 160 468 107T443 0H298L311 51H310Q274 17 234 1T144
-16Q60 -16 21 32T0 153Q10 195 36 225T106 276T213 306T359 316L362 328Q368 352 361 368T337 391T292 399Q255 399 214 384T129 341L83 441Q141 478 204 497T332 516Q405 516 453 493T519 426T521 320L498 233ZM391 556L428 706H578L541 556H391ZM171 556L208
706H358L321 556H171Z" />
<glyph unicode="&#xe5;" glyph-name="aring" horiz-adv-x="555" d="M333 212Q289 212 259 208T209 197T180 178T166 151Q161 128 172 116T209 103Q235 103 261 116T305 152T330 201L333 212ZM498 233Q480 160 468 107T443 0H298L311 51H310Q274 17 234 1T144 -16Q60
-16 21 32T0 153Q10 195 36 225T106 276T213 306T359 316L362 328Q368 352 361 368T337 391T292 399Q255 399 214 384T129 341L83 441Q141 478 204 497T332 516Q405 516 453 493T519 426T521 320L498 233ZM414 666Q418 683 413 693T392 704Q376 704 365 694T350
666Q346 649 351 639T373 628Q389 628 399 638T414 666ZM533 659Q521 611 477 581T360 550Q285 550 252 584T231 673Q243 721 287 751T404 782Q479 782 513 748T533 659Z" />
<glyph unicode="&#xe6;" glyph-name="ae" horiz-adv-x="890" d="M800 54Q746 20 683 2T557 -16Q479 -16 432 9T365 85Q325 35 269 10T144 -16Q60 -16 21 32T0 153Q10 195 36 225T106 276T213 306T359 316L362 328Q368 350 362 366T339 390T292 399Q255 399 214
384T129 341L83 441Q141 478 204 497T332 516Q388 516 427 502T485 462Q520 490 563 503T661 516Q722 516 767 497T838 442T869 357T860 248Q852 214 843 200H492Q489 167 498 146T530 115T589 104Q629 104 674 118T757 158L800 54ZM705 304Q711 335 705 356T682
389T640 400Q614 400 592 389T551 357T519 304H705ZM333 212Q289 212 259 208T209 197T180 178T166 151Q161 128 172 116T209 103Q227 103 246 110T283 130T313 162T330 201L333 212Z" />
<glyph unicode="&#xe7;" glyph-name="ccedilla" horiz-adv-x="547" d="M501 134Q454 58 390 21T241 -16Q161 -16 107 19T35 118T37 261Q57 340 100 397T208 485T348 516Q444 516 499 475T564 358L409 316Q405 353 387 370T334 387Q305 387 280 371T235 324T204
250Q194 209 198 178T219 130T267 113Q305 113 335 136T391 208L501 134ZM64 -180Q88 -163 105 -145T126 -114Q129 -103 124 -93T102 -71L168 8H295L258 -36Q278 -54 284 -70T285 -107Q280 -127 263 -145T221 -180H64Z" />
<glyph unicode="&#xe8;" glyph-name="egrave" horiz-adv-x="591" d="M501 54Q447 20 384 2T258 -16Q170 -16 113 18T36 114T38 261Q58 342 103 399T215 486T362 516Q421 516 466 498T537 443T570 358T561 248Q553 214 544 200H193Q190 167 199 146T231 115T290
104Q330 104 375 118T458 158L501 54ZM406 304Q412 335 406 356T383 389T341 400Q315 400 293 389T252 357T220 304H406ZM224 706H419L465 556H327L224 706Z" />
<glyph unicode="&#xe9;" glyph-name="eacute" horiz-adv-x="591" d="M501 54Q447 20 384 2T258 -16Q170 -16 113 18T36 114T38 261Q58 342 103 399T215 486T362 516Q421 516 466 498T537 443T570 358T561 248Q553 214 544 200H193Q190 167 199 146T231 115T290
104Q330 104 375 118T458 158L501 54ZM406 304Q412 335 406 356T383 389T341 400Q315 400 293 389T252 357T220 304H406ZM274 556L394 706H604L425 556H274Z" />
<glyph unicode="&#xea;" glyph-name="ecircumflex" horiz-adv-x="591" d="M501 54Q447 20 384 2T258 -16Q170 -16 113 18T36 114T38 261Q58 342 103 399T215 486T362 516Q421 516 466 498T537 443T570 358T561 248Q553 214 544 200H193Q190 167 199 146T231 115T290
104Q330 104 375 118T458 158L501 54ZM406 304Q412 335 406 356T383 389T341 400Q315 400 293 389T252 357T220 304H406ZM314 706H506L576 556H439L395 622L319 556H168L314 706Z" />
<glyph unicode="&#xeb;" glyph-name="edieresis" horiz-adv-x="591" d="M501 54Q447 20 384 2T258 -16Q170 -16 113 18T36 114T38 261Q58 342 103 399T215 486T362 516Q421 516 466 498T537 443T570 358T561 248Q553 214 544 200H193Q190 167 199 146T231 115T290
104Q330 104 375 118T458 158L501 54ZM406 304Q412 335 406 356T383 389T341 400Q315 400 293 389T252 357T220 304H406ZM408 556L445 706H595L558 556H408ZM188 556L225 706H375L338 556H188Z" />
<glyph unicode="&#xec;" glyph-name="igrave" horiz-adv-x="290" d="M5 0L130 500H290L165 0H5ZM330 702H525L571 552H433L330 702Z" />
<glyph unicode="&#xed;" glyph-name="iacute" horiz-adv-x="290" d="M5 0L130 500H290L165 0H5ZM380 552L500 702H710L531 552H380Z" />
<glyph unicode="&#xee;" glyph-name="icircumflex" horiz-adv-x="290" d="M5 0L130 500H290L165 0H5ZM420 702H612L682 552H545L501 618L425 552H274L420 702Z" />
<glyph unicode="&#xef;" glyph-name="idieresis" horiz-adv-x="290" d="M5 0L130 500H290L165 0H5ZM499 552L536 702H676L639 552H499ZM319 552L356 702H496L459 552H319Z" />
<glyph unicode="&#xf0;" glyph-name="eth" horiz-adv-x="606" d="M229 515L212 606L309 633Q282 660 244 686L411 728Q444 706 471 679L608 718L624 628L531 601Q575 528 588 445T580 279Q556 182 510 117T398 18T245 -16Q163 -16 108 18T35 114T36 256Q55 332
97 387T200 471T330 500Q356 500 379 495T414 480L417 481Q406 513 375 557L229 515ZM401 242Q411 281 407 309T384 353T333 369Q303 369 277 355T232 311T202 242Q192 203 196 175T219 131T270 115Q302 115 328 131T373 175T401 242Z" />
<glyph unicode="&#xf1;" glyph-name="ntilde" horiz-adv-x="614" d="M339 0L401 250Q414 302 416 321T415 353Q410 372 396 381T357 390Q339 390 321 384T289 366Q267 348 253 322T227 251L164 0H5L65 241Q84 315 97 371T126 500H276L263 440H264Q299 478 340
497T428 516Q489 516 528 489T579 412T574 296L498 0H339ZM323 595Q310 595 303 587T290 560H177Q192 640 234 678T350 716Q377 716 400 710T445 692T473 678T486 675Q499 675 506 683T519 710H632Q617 630 575 592T459 554Q432 554 409 560T364 578T336 592T323
595V595Z" />
<glyph unicode="&#xf2;" glyph-name="ograve" horiz-adv-x="604" d="M570 239Q550 158 506 101T395 14T247 -16Q164 -16 109 19T35 116T37 261Q57 341 101 398T212 486T360 516Q443 516 498 481T572 384T570 239V239ZM403 250Q413 291 409 321T387 368T336 385Q305
385 279 369T233 322T204 250Q194 209 198 179T220 132T271 115Q302 115 328 131T374 178T403 250V250ZM231 706H426L472 556H334L231 706Z" />
<glyph unicode="&#xf3;" glyph-name="oacute" horiz-adv-x="604" d="M570 239Q550 158 506 101T395 14T247 -16Q164 -16 109 19T35 116T37 261Q57 341 101 398T212 486T360 516Q443 516 498 481T572 384T570 239V239ZM403 250Q413 291 409 321T387 368T336 385Q305
385 279 369T233 322T204 250Q194 209 198 179T220 132T271 115Q302 115 328 131T374 178T403 250V250ZM281 556L401 706H611L432 556H281Z" />
<glyph unicode="&#xf4;" glyph-name="ocircumflex" horiz-adv-x="604" d="M570 239Q550 158 506 101T395 14T247 -16Q164 -16 109 19T35 116T37 261Q57 341 101 398T212 486T360 516Q443 516 498 481T572 384T570 239V239ZM403 250Q413 291 409 321T387 368T336
385Q305 385 279 369T233 322T204 250Q194 209 198 179T220 132T271 115Q302 115 328 131T374 178T403 250V250ZM321 706H513L583 556H446L402 622L326 556H175L321 706Z" />
<glyph unicode="&#xf5;" glyph-name="otilde" horiz-adv-x="604" d="M570 239Q550 158 506 101T395 14T247 -16Q164 -16 109 19T35 116T37 261Q57 341 101 398T212 486T360 516Q443 516 498 481T572 384T570 239V239ZM403 250Q413 291 409 321T387 368T336 385Q305
385 279 369T233 322T204 250Q194 209 198 179T220 132T271 115Q302 115 328 131T374 178T403 250V250ZM318 595Q305 595 298 587T285 560H172Q187 640 229 678T345 716Q372 716 395 710T440 692T468 678T481 675Q494 675 501 683T514 710H627Q612 630 570 592T454
554Q427 554 404 560T359 578T331 592T318 595V595Z" />
<glyph unicode="&#xf6;" glyph-name="odieresis" horiz-adv-x="604" d="M570 239Q550 158 506 101T395 14T247 -16Q164 -16 109 19T35 116T37 261Q57 341 101 398T212 486T360 516Q443 516 498 481T572 384T570 239V239ZM403 250Q413 291 409 321T387 368T336
385Q305 385 279 369T233 322T204 250Q194 209 198 179T220 132T271 115Q302 115 328 131T374 178T403 250V250ZM415 556L452 706H602L565 556H415ZM195 556L232 706H382L345 556H195Z" />
<glyph unicode="&#xf7;" glyph-name="divide" horiz-adv-x="650" d="M299 449L339 608H495L455 449H299ZM608 256H48L82 388H642L608 256ZM195 36L234 195H391L352 36H195Z" />
<glyph unicode="&#xf8;" glyph-name="oslash" horiz-adv-x="604" d="M412 248Q418 271 420 277T426 290L228 118Q235 114 247 111T272 108Q306 108 334 125T381 173T412 248V248ZM196 252Q192 235 190 226T183 210L380 382Q371 387 360 389T337 392Q303 392 275
375T227 327T196 252V252ZM-26 33L44 93Q28 126 27 169T37 261Q57 341 101 398T212 486T360 516Q398 516 432 508T491 484L565 549L634 467L563 406Q578 373 580 330T570 239Q550 158 506 101T395 14T247 -16Q208 -16 175 -8T116 15L43 -49L-26 33Z" />
<glyph unicode="&#xf9;" glyph-name="ugrave" horiz-adv-x="610" d="M339 0L352 60H351Q315 21 276 3T190 -16Q130 -16 91 11T41 88T46 204L120 500H280L217 249Q204 198 202 180T202 147Q207 128 220 119T256 110Q274 110 293 117T325 135Q347 153 362 181T388
253L450 500H610L549 259Q529 181 512 109T488 0H339ZM234 702H429L475 552H337L234 702Z" />
<glyph unicode="&#xfa;" glyph-name="uacute" horiz-adv-x="610" d="M339 0L352 60H351Q315 21 276 3T190 -16Q130 -16 91 11T41 88T46 204L120 500H280L217 249Q204 198 202 180T202 147Q207 128 220 119T256 110Q274 110 293 117T325 135Q347 153 362 181T388
253L450 500H610L549 259Q529 181 512 109T488 0H339ZM284 552L404 702H614L435 552H284Z" />
<glyph unicode="&#xfb;" glyph-name="ucircumflex" horiz-adv-x="610" d="M339 0L352 60H351Q315 21 276 3T190 -16Q130 -16 91 11T41 88T46 204L120 500H280L217 249Q204 198 202 180T202 147Q207 128 220 119T256 110Q274 110 293 117T325 135Q347 153 362 181T388
253L450 500H610L549 259Q529 181 512 109T488 0H339ZM324 702H516L586 552H449L405 618L329 552H178L324 702Z" />
<glyph unicode="&#xfc;" glyph-name="udieresis" horiz-adv-x="610" d="M339 0L352 60H351Q315 21 276 3T190 -16Q130 -16 91 11T41 88T46 204L120 500H280L217 249Q204 198 202 180T202 147Q207 128 220 119T256 110Q274 110 293 117T325 135Q347 153 362 181T388
253L450 500H610L549 259Q529 181 512 109T488 0H339ZM418 552L455 702H605L568 552H418ZM198 552L235 702H385L348 552H198Z" />
<glyph unicode="&#xfd;" glyph-name="yacute" horiz-adv-x="538" d="M10 -180L114 -30V-30L62 500H231L240 305Q242 266 242 226T239 148H242Q260 188 278 225T318 305L418 500H606L199 -180H10ZM248 552L368 702H578L399 552H248Z" />
<glyph unicode="&#xfe;" glyph-name="thorn" horiz-adv-x="621" d="M180 702H340L300 543Q284 483 268 446H270Q304 481 344 498T430 516Q497 516 540 480T595 380T588 239Q568 160 527 102T427 14T299 -16Q254 -16 220 -1T171 39H170Q165 -1 154 -43L119 -180H-41L180
702ZM222 242Q212 204 215 174T237 127T285 110Q315 110 342 126T389 175T421 250Q432 292 429 324T408 373T359 390Q330 390 304 374T257 328T226 257L222 242Z" />
<glyph unicode="&#xff;" glyph-name="ydieresis" horiz-adv-x="538" d="M10 -180L114 -30V-30L62 500H231L240 305Q242 266 242 226T239 148H242Q260 188 278 225T318 305L418 500H606L199 -180H10ZM382 552L419 702H569L532 552H382ZM162 552L199 702H349L312 552H162Z" />
<glyph unicode="&#x100;" glyph-name="Amacron" horiz-adv-x="713" d="M576 682L644 0H451L444 126H213L145 0H-52L357 682H576ZM432 542H430Q395 467 383 442T361 399L282 254H438L430 399Q429 423 429 451T432 542V542ZM664 741H298L331 873H697L664 741Z" />
<glyph unicode="&#x101;" glyph-name="amacron" horiz-adv-x="555" d="M333 212Q289 212 259 208T209 197T180 178T166 151Q161 128 172 116T209 103Q235 103 261 116T305 152T330 201L333 212ZM498 233Q480 160 468 107T443 0H298L311 51H310Q274 17 234 1T144
-16Q60 -16 21 32T0 153Q10 195 36 225T106 276T213 306T359 316L362 328Q368 352 361 368T337 391T292 399Q255 399 214 384T129 341L83 441Q141 478 204 497T332 516Q405 516 453 493T519 426T521 320L498 233ZM529 563H183L215 691H561L529 563Z" />
<glyph unicode="&#x102;" glyph-name="Abreve" horiz-adv-x="713" d="M576 682L644 0H451L444 126H213L145 0H-52L357 682H576ZM432 542H430Q395 467 383 442T361 399L282 254H438L430 399Q429 423 429 451T432 542V542ZM712 908Q698 848 669 809T595 751T486
731Q422 731 382 752T329 813T334 908H463Q452 879 464 864T508 849Q540 849 559 864T582 908H712Z" />
<glyph unicode="&#x103;" glyph-name="abreve" horiz-adv-x="555" d="M333 212Q289 212 259 208T209 197T180 178T166 151Q161 128 172 116T209 103Q235 103 261 116T305 152T330 201L333 212ZM498 233Q480 160 468 107T443 0H298L311 51H310Q274 17 234 1T144
-16Q60 -16 21 32T0 153Q10 195 36 225T106 276T213 306T359 316L362 328Q368 352 361 368T337 391T292 399Q255 399 214 384T129 341L83 441Q141 478 204 497T332 516Q405 516 453 493T519 426T521 320L498 233ZM572 724Q560 666 532 628T461 572T360 554Q302
554 265 574T216 632T221 724H340Q334 704 337 691T352 673T382 667Q403 667 417 673T440 693T453 724H572Z" />
<glyph unicode="&#x104;" glyph-name="Aogonek" horiz-adv-x="713" d="M282 254H437L430 399Q429 423 429 451T432 542H430Q395 467 383 442T361 399L282 254ZM592 -182Q582 -187 561 -190T518 -194Q472 -194 441 -187T395 -164T379 -124Q379 -93 401 -64T472
0H451L444 126H213L145 0H-52L357 682H578L643 1Q604 -16 579 -40T554 -84Q554 -92 560 -95T580 -99H613L592 -182Z" />
<glyph unicode="&#x105;" glyph-name="aogonek" horiz-adv-x="555" d="M333 212Q289 212 259 208T209 197T180 178T166 151Q161 128 172 116T209 103Q235 103 261 116T305 152T330 201L333 212ZM443 0Q401 -35 385 -54T369 -88Q369 -96 375 -99T395 -103H428L408
-182Q396 -187 375 -190T334 -194Q290 -194 262 -186T219 -163T205 -124Q205 -93 228 -63T300 2L311 51H310Q274 17 234 1T144 -16Q60 -16 21 32T0 153Q10 195 36 225T106 276T213 306T359 316L362 328Q368 350 362 366T339 390T292 399Q255 399 214 384T129 341L83
441Q141 478 204 497T332 516Q407 516 455 492T520 424T521 320L498 233Q477 154 465 102T443 0V0Z" />
<glyph unicode="&#x106;" glyph-name="Cacute" horiz-adv-x="715" d="M678 210Q627 98 537 40T324 -18Q222 -18 153 29T61 161T65 352Q91 459 149 537T291 657T474 700Q587 700 659 642T740 483L567 430Q562 489 534 518T454 547Q408 547 366 521T292 448T245
339Q230 278 238 233T276 162T355 137Q410 137 452 170T533 275L678 210ZM399 734L520 884H741L561 734H399Z" />
<glyph unicode="&#x107;" glyph-name="cacute" horiz-adv-x="547" d="M501 134Q454 58 390 21T241 -16Q161 -16 107 19T35 118T37 261Q57 340 100 397T208 485T348 516Q444 516 499 475T564 358L409 316Q405 353 387 370T334 387Q305 387 280 371T235 324T204
250Q194 209 198 178T219 130T267 113Q305 113 335 136T391 208L501 134ZM274 556L394 706H604L425 556H274Z" />
<glyph unicode="&#x108;" glyph-name="Ccircumflex" horiz-adv-x="715" d="M678 210Q627 98 537 40T324 -18Q222 -18 153 29T61 161T65 352Q91 459 149 537T291 657T474 700Q587 700 659 642T740 483L567 430Q562 489 534 518T454 547Q408 547 366 521T292 448T245
339Q230 278 238 233T276 162T355 137Q410 137 452 170T533 275L678 210ZM436 887H648L719 737H571L527 803L451 737H292L436 887Z" />
<glyph unicode="&#x109;" glyph-name="ccircumflex" horiz-adv-x="547" d="M501 134Q454 58 390 21T241 -16Q161 -16 107 19T35 118T37 261Q57 340 100 397T208 485T348 516Q444 516 499 475T564 358L409 316Q405 353 387 370T334 387Q305 387 280 371T235 324T204
250Q194 209 198 178T219 130T267 113Q305 113 335 136T391 208L501 134ZM314 706H506L576 556H439L395 622L319 556H168L314 706Z" />
<glyph unicode="&#x10a;" glyph-name="Cdotaccent" horiz-adv-x="715" d="M678 210Q627 98 537 40T324 -18Q222 -18 153 29T61 161T65 352Q91 459 149 537T291 657T474 700Q587 700 659 642T740 483L567 430Q562 489 534 518T454 547Q408 547 366 521T292 448T245
339Q230 278 238 233T276 162T355 137Q410 137 452 170T533 275L678 210ZM418 734L456 884H628L590 734H418Z" />
<glyph unicode="&#x10b;" glyph-name="cdotaccent" horiz-adv-x="547" d="M501 134Q454 58 390 21T241 -16Q161 -16 107 19T35 118T37 261Q57 340 100 397T208 485T348 516Q444 516 499 475T564 358L409 316Q405 353 387 370T334 387Q305 387 280 371T235 324T204
250Q194 209 198 178T219 130T267 113Q305 113 335 136T391 208L501 134ZM293 556L330 706H492L455 556H293Z" />
<glyph unicode="&#x10c;" glyph-name="Ccaron" horiz-adv-x="715" d="M678 210Q627 98 537 40T324 -18Q222 -18 153 29T61 161T65 352Q91 459 149 537T291 657T474 700Q587 700 659 642T740 483L567 430Q562 489 534 518T454 547Q408 547 366 521T292 448T245
339Q230 278 238 233T276 162T355 137Q410 137 452 170T533 275L678 210ZM611 737H399L329 887H476L520 821L596 887H757L611 737Z" />
<glyph unicode="&#x10d;" glyph-name="ccaron" horiz-adv-x="547" d="M501 134Q454 58 390 21T241 -16Q161 -16 107 19T35 118T37 261Q57 340 100 397T208 485T348 516Q444 516 499 475T564 358L409 316Q405 353 387 370T334 387Q305 387 280 371T235 324T204
250Q194 209 198 178T219 130T267 113Q305 113 335 136T391 208L501 134ZM469 556H277L206 706H344L388 640L464 706H614L469 556Z" />
<glyph unicode="&#x10e;" glyph-name="Dcaron" horiz-adv-x="755" d="M182 682Q245 683 313 683T433 684Q534 684 600 660T706 583Q741 536 750 471T742 332Q723 254 686 193T594 88Q536 42 461 20T285 -2Q236 -2 164 -2T12 0L182 682ZM220 141Q241 140 262 139T306
138Q363 138 399 148T466 184Q500 211 523 250T559 341Q571 391 568 432T545 499Q526 524 496 534T401 544Q373 544 358 544T320 543L220 141ZM587 737H375L305 887H452L496 821L572 887H733L587 737Z" />
<glyph unicode="&#x10f;" glyph-name="dcaron" horiz-adv-x="706" d="M350 0L362 60H361Q327 23 285 4T195 -16Q128 -16 85 20T30 120T37 261Q57 340 98 398T198 486T326 516Q371 516 405 501T454 461H455Q463 512 471 543L511 702H671L558 250Q540 177 525 115T499
0H350ZM403 258Q413 296 410 326T388 373T340 390Q310 390 283 374T236 325T204 250Q193 208 196 176T217 127T266 110Q295 110 321 126T368 172T399 243L403 258ZM744 760H907L806 566H675L744 760Z" />
<glyph unicode="&#x110;" glyph-name="Dcroat" horiz-adv-x="765" d="M92 282H12L45 412H125L192 682Q255 683 323 683T443 684Q544 684 610 660T716 583Q751 536 760 471T752 332Q733 254 696 193T604 88Q546 42 471 20T295 -2Q246 -2 174 -2T22 0L92 282ZM230
141Q251 140 272 139T316 138Q373 138 409 148T476 184Q510 211 533 250T569 341Q581 391 578 432T555 499Q536 524 506 534T411 544Q387 544 371 544T330 543L298 412H464L431 282H265L230 141Z" />
<glyph unicode="&#x111;" glyph-name="" horiz-adv-x="621" d="M403 258Q413 296 410 326T388 373T340 390Q310 390 283 374T236 325T204 250Q193 208 196 176T217 127T266 110Q296 110 323 126T369 173T399 243L403 258ZM350 0L362 60H361Q327 23 285 4T195 -16Q128
-16 85 20T30 120T37 261Q57 340 98 398T198 486T326 516Q371 516 405 501T454 461H455Q461 505 469 534L473 549H377L407 670H503L515 720H675L663 670H724L694 549H633L558 250Q540 177 525 115T499 0H350Z" />
<glyph unicode="&#x112;" glyph-name="Emacron" horiz-adv-x="655" d="M182 682H706L673 550H324L288 411H592L559 283H256L219 133H586L553 0H12L182 682ZM653 741H287L320 873H686L653 741Z" />
<glyph unicode="&#x113;" glyph-name="emacron" horiz-adv-x="591" d="M501 54Q447 20 384 2T258 -16Q170 -16 113 18T36 114T38 261Q58 342 103 399T215 486T362 516Q421 516 466 498T537 443T570 358T561 248Q553 214 544 200H193Q190 167 199 146T231 115T290
104Q330 104 375 118T458 158L501 54ZM406 304Q412 335 406 356T383 389T341 400Q315 400 293 389T252 357T220 304H406ZM547 563H201L233 691H579L547 563Z" />
<glyph unicode="&#x114;" glyph-name="Ebreve" horiz-adv-x="655" d="M182 682H706L673 550H324L288 411H592L559 283H256L219 133H586L553 0H12L182 682ZM701 908Q687 848 658 809T584 751T475 731Q411 731 371 752T318 813T323 908H452Q441 879 453 864T497
849Q529 849 548 864T571 908H701Z" />
<glyph unicode="&#x115;" glyph-name="ebreve" horiz-adv-x="591" d="M501 54Q447 20 384 2T258 -16Q170 -16 113 18T36 114T38 261Q58 342 103 399T215 486T362 516Q421 516 466 498T537 443T570 358T561 248Q553 214 544 200H193Q190 167 199 146T231 115T290
104Q330 104 375 118T458 158L501 54ZM406 304Q412 335 406 356T383 389T341 400Q315 400 293 389T252 357T220 304H406ZM590 724Q578 666 550 628T479 572T378 554Q320 554 283 574T234 632T239 724H358Q352 704 355 691T370 673T400 667Q421 667 435 673T458
693T471 724H590Z" />
<glyph unicode="&#x116;" glyph-name="Edotaccent" horiz-adv-x="655" d="M182 682H706L673 550H324L288 411H592L559 283H256L219 133H586L553 0H12L182 682ZM382 734L420 884H592L554 734H382Z" />
<glyph unicode="&#x117;" glyph-name="edotaccent" horiz-adv-x="591" d="M501 54Q447 20 384 2T258 -16Q170 -16 113 18T36 114T38 261Q58 342 103 399T215 486T362 516Q421 516 466 498T537 443T570 358T561 248Q553 214 544 200H193Q190 167 199 146T231 115T290
104Q330 104 375 118T458 158L501 54ZM406 304Q412 335 406 356T383 389T341 400Q315 400 293 389T252 357T220 304H406ZM293 556L330 706H492L455 556H293Z" />
<glyph unicode="&#x118;" glyph-name="Eogonek" horiz-adv-x="655" d="M507 -182Q497 -187 476 -190T433 -194Q385 -194 354 -186T309 -163T294 -124Q294 -91 319 -61T397 0H12L182 682H706L673 550H324L288 411H592L559 283H256L219 133H586L552 0Q512 -23 491
-45T469 -84Q469 -92 475 -95T495 -99H528L507 -182Z" />
<glyph unicode="&#x119;" glyph-name="eogonek" horiz-adv-x="591" d="M410 -182Q397 -187 376 -190T336 -194Q293 -194 265 -187T222 -164T207 -124Q207 -95 226 -68T283 -14Q278 -15 271 -15T258 -16Q170 -16 113 18T36 114T38 261Q58 342 103 399T215 486T362
516Q421 516 466 498T537 443T570 358T561 248Q552 214 544 200H193Q190 167 199 146T231 115T290 104Q330 104 375 118T458 158L498 61Q490 51 480 41T455 17Q420 -16 403 -35T378 -66T371 -88Q371 -96 377 -99T397 -103H430L410 -182ZM341 400Q315 400 293 389T252
357T220 304H406Q412 335 406 356T383 389T341 400V400Z" />
<glyph unicode="&#x11a;" glyph-name="Ecaron" horiz-adv-x="655" d="M182 682H706L673 550H324L288 411H592L559 283H256L219 133H586L553 0H12L182 682ZM575 737H363L293 887H440L484 821L560 887H721L575 737Z" />
<glyph unicode="&#x11b;" glyph-name="ecaron" horiz-adv-x="591" d="M501 54Q447 20 384 2T258 -16Q170 -16 113 18T36 114T38 261Q58 342 103 399T215 486T362 516Q421 516 466 498T537 443T570 358T561 248Q553 214 544 200H193Q190 167 199 146T231 115T290
104Q330 104 375 118T458 158L501 54ZM406 304Q412 335 406 356T383 389T341 400Q315 400 293 389T252 357T220 304H406ZM469 556H277L206 706H344L388 640L464 706H614L469 556Z" />
<glyph unicode="&#x11c;" glyph-name="Gcircumflex" horiz-adv-x="777" d="M508 0L524 60H523Q474 16 427 -1T317 -18Q219 -18 151 30T61 163T64 351Q91 459 153 538T304 658T498 700Q599 700 669 665T779 560L618 459Q599 503 563 525T473 547Q420 547 374 521T294
447T245 337Q229 274 238 228T280 156T369 131Q436 131 484 165T545 252V254H414L446 382H749L652 0H508ZM455 887H667L738 737H590L546 803L470 737H311L455 887Z" />
<glyph unicode="&#x11d;" glyph-name="gcircumflex" horiz-adv-x="621" d="M629 500Q619 472 599 403T558 249Q548 212 530 134T502 15Q485 -53 445 -100T340 -170T190 -194Q125 -194 61 -182T-39 -150L31 -29Q64 -49 119 -62T222 -76Q251 -76 273 -68T311 -41T339
8L360 64H358Q325 30 285 13T198 -4Q132 -4 89 29T32 125T38 266Q57 342 98 398T198 485T326 516Q377 516 413 498T462 446H463L482 500H629ZM403 258Q413 297 409 327T388 373T340 390Q309 390 282 373T235 325T205 255Q195 214 199 183T222 136T269 120Q297 120
324 137T372 185T402 254L403 258ZM322 706H514L584 556H447L403 622L327 556H176L322 706Z" />
<glyph unicode="&#x11e;" glyph-name="Gbreve" horiz-adv-x="777" d="M508 0L524 60H523Q474 16 427 -1T317 -18Q219 -18 151 30T61 163T64 351Q91 459 153 538T304 658T498 700Q599 700 669 665T779 560L618 459Q599 503 563 525T473 547Q420 547 374 521T294
447T245 337Q229 274 238 228T280 156T369 131Q436 131 484 165T545 252V254H414L446 382H749L652 0H508ZM756 908Q742 848 713 809T639 751T530 731Q466 731 426 752T373 813T378 908H507Q496 879 508 864T552 849Q584 849 603 864T626 908H756Z" />
<glyph unicode="&#x11f;" glyph-name="gbreve" horiz-adv-x="621" d="M629 500Q619 472 599 403T558 249Q548 212 530 134T502 15Q485 -53 445 -100T340 -170T190 -194Q125 -194 61 -182T-39 -150L31 -29Q64 -49 119 -62T222 -76Q251 -76 273 -68T311 -41T339
8L360 64H358Q325 30 285 13T198 -4Q132 -4 89 29T32 125T38 266Q57 342 98 398T198 485T326 516Q377 516 413 498T462 446H463L482 500H629ZM403 258Q413 297 409 327T388 373T340 390Q309 390 282 373T235 325T205 255Q195 214 199 183T222 136T269 120Q297 120
324 137T372 185T402 254L403 258ZM598 724Q586 666 558 628T487 572T386 554Q328 554 291 574T242 632T247 724H366Q360 704 363 691T378 673T408 667Q429 667 443 673T466 693T479 724H598Z" />
<glyph unicode="&#x120;" glyph-name="Gdotaccent" horiz-adv-x="777" d="M508 0L524 60H523Q474 16 427 -1T317 -18Q219 -18 151 30T61 163T64 351Q91 459 153 538T304 658T498 700Q599 700 669 665T779 560L618 459Q599 503 563 525T473 547Q420 547 374 521T294
447T245 337Q229 274 238 228T280 156T369 131Q436 131 484 165T545 252V254H414L446 382H749L652 0H508ZM437 734L475 884H647L609 734H437Z" />
<glyph unicode="&#x121;" glyph-name="gdotaccent" horiz-adv-x="621" d="M629 500Q619 472 599 403T558 249Q548 212 530 134T502 15Q485 -53 445 -100T340 -170T190 -194Q125 -194 61 -182T-39 -150L31 -29Q64 -49 119 -62T222 -76Q251 -76 273 -68T311 -41T339
8L360 64H358Q325 30 285 13T198 -4Q132 -4 89 29T32 125T38 266Q57 342 98 398T198 485T326 516Q377 516 413 498T462 446H463L482 500H629ZM403 258Q413 297 409 327T388 373T340 390Q309 390 282 373T235 325T205 255Q195 214 199 183T222 136T269 120Q297 120
324 137T372 185T402 254L403 258ZM301 556L338 706H500L463 556H301Z" />
<glyph unicode="&#x122;" glyph-name="Gcommaaccent" horiz-adv-x="777" d="M508 0L524 60H523Q474 16 427 -1T317 -18Q219 -18 151 30T61 163T64 351Q91 459 153 538T304 658T498 700Q599 700 669 665T779 560L618 459Q599 503 563 525T473 547Q420 547 374 521T294
447T245 337Q229 274 238 228T280 156T369 131Q436 131 484 165T545 252V254H414L446 382H749L652 0H508ZM413 -42L395 -113Q384 -158 345 -176T221 -194H187L201 -140H217Q235 -140 244 -135T257 -116H226L245 -42H413Z" />
<glyph unicode="&#x123;" glyph-name="gcommaaccent" horiz-adv-x="621" d="M629 500Q619 472 599 403T558 249Q548 212 530 134T502 15Q485 -53 445 -100T340 -170T190 -194Q125 -194 61 -182T-39 -150L31 -29Q64 -49 119 -62T222 -76Q251 -76 273 -68T311 -41T339
8L360 64H358Q325 30 285 13T198 -4Q132 -4 89 29T32 125T38 266Q57 342 98 398T198 485T326 516Q377 516 413 498T462 446H463L482 500H629ZM403 258Q413 297 409 327T388 373T340 390Q309 390 282 373T235 325T205 255Q195 214 199 183T222 136T269 120Q297 120
324 137T372 185T402 254L403 258ZM291 556L311 633Q322 678 360 696T479 715H510L495 658H476Q459 658 451 653T438 634H469L449 556H291Z" />
<glyph unicode="&#x124;" glyph-name="Hcircumflex" horiz-adv-x="770" d="M182 682H356L292 427H570L634 682H808L638 0H464L534 282H256L186 0H12L182 682ZM440 887H652L723 737H575L531 803L455 737H296L440 887Z" />
<glyph unicode="&#x125;" glyph-name="hcircumflex" horiz-adv-x="614" d="M181 702H340L300 543Q287 491 268 446H270Q338 516 428 516Q489 516 528 489T579 412T574 296L498 0H338L401 250Q413 300 415 319T415 353Q410 372 396 381T357 390Q339 390 321 384T289
366Q267 349 253 322T227 251L165 0H4L181 702ZM366 905H558L628 755H491L447 821L371 755H220L366 905Z" />
<glyph unicode="&#x126;" glyph-name="Hbar" horiz-adv-x="790" d="M571 390L593 476H315L293 390H571ZM140 476H61L93 606H173L192 682H366L347 606H625L644 682H818L799 606H879L846 476H766L648 0H474L538 256H260L196 0H22L140 476Z" />
<glyph unicode="&#x127;" glyph-name="hbar" horiz-adv-x="614" d="M142 549H82L111 670H172L184 719H344L332 670H427L398 549H302L300 542Q283 483 268 446H270Q304 481 344 498T428 516Q489 516 528 489T579 412T574 296L498 0H338L401 250Q413 300 415 319T415
353Q410 372 396 381T357 390Q339 390 321 384T289 366Q267 349 253 322T227 251L165 0H5L142 549Z" />
<glyph unicode="&#x128;" glyph-name="Itilde" horiz-adv-x="318" d="M182 682H356L186 0H12L182 682ZM473 769Q461 769 454 761T441 734H315Q332 815 377 854T499 893Q528 893 552 887T600 867T629 852T641 849Q653 849 660 857T673 884H799Q782 803 737 764T615
725Q586 725 562 731T515 751T486 766T473 769V769Z" />
<glyph unicode="&#x129;" glyph-name="itilde" horiz-adv-x="290" d="M5 0L130 500H290L165 0H5ZM433 595Q423 595 415 586T401 556H301Q318 640 355 678T457 716Q481 716 499 709T533 687T554 670T564 667Q574 667 582 676T596 706H696Q679 622 642 584T540 546Q516
546 498 553T464 575T443 592T433 595V595Z" />
<glyph unicode="&#x12a;" glyph-name="Imacron" horiz-adv-x="318" d="M182 682H356L186 0H12L182 682ZM723 741H357L390 873H756L723 741Z" />
<glyph unicode="&#x12b;" glyph-name="imacron" horiz-adv-x="290" d="M5 0L130 500H290L165 0H5ZM653 559H307L339 687H685L653 559Z" />
<glyph unicode="&#x12c;" glyph-name="Ibreve" horiz-adv-x="318" d="M182 682H356L186 0H12L182 682ZM771 908Q757 848 728 809T654 751T545 731Q481 731 441 752T388 813T393 908H522Q511 879 523 864T567 849Q599 849 618 864T641 908H771Z" />
<glyph unicode="&#x12d;" glyph-name="ibreve" horiz-adv-x="290" d="M5 0L130 500H290L165 0H5ZM696 720Q684 662 656 624T585 568T484 550Q426 550 389 570T340 628T345 720H464Q458 700 461 687T476 669T506 663Q527 663 541 669T564 689T577 720H696Z" />
<glyph unicode="&#x12e;" glyph-name="Iogonek" horiz-adv-x="318" d="M156 -182Q146 -187 125 -190T82 -194Q35 -194 4 -187T-42 -164T-57 -124Q-57 -94 -36 -65T35 0H12L182 682H356L186 0Q151 -30 135 -50T118 -84Q118 -92 124 -95T144 -99H177L156 -182Z" />
<glyph unicode="&#x12f;" glyph-name="iogonek" horiz-adv-x="290" d="M133 -182Q124 -187 105 -190T62 -194Q19 -194 -9 -187T-52 -164T-67 -124Q-67 -94 -46 -65T25 0H5L130 500H289L164 0Q127 -36 112 -56T97 -88Q97 -96 103 -99T123 -103H144L133 -182ZM141
552L180 702H341L303 552H141Z" />
<glyph unicode="&#x130;" glyph-name="Idot" horiz-adv-x="318" d="M182 682H356L186 0H12L182 682ZM196 734L234 884H406L368 734H196Z" />
<glyph unicode="&#x131;" glyph-name="dotlessi" horiz-adv-x="290" d="M5 0L130 500H290L165 0H5Z" />
<glyph unicode="&#x132;" glyph-name="IJ" horiz-adv-x="895" d="M182 682H356L186 0H12L182 682ZM940 682L825 223Q811 166 787 121T726 45T640 -2T526 -18Q476 -18 433 -5T360 39T318 118T317 237L494 265Q482 196 495 165T551 134Q591 134 616 159T653 231L766
682H940Z" />
<glyph unicode="&#x133;" glyph-name="ij" horiz-adv-x="580" d="M141 552L180 702H341L304 552H141ZM5 0L130 500H290L165 0H5ZM592 500L466 1Q449 -68 421 -110T350 -171T246 -191Q211 -191 185 -182L216 -60H247Q267 -60 277 -54T296 -28T316 37L432 500H592ZM444
552L481 702H643L606 552H444Z" />
<glyph unicode="&#x134;" glyph-name="Jcircumflex" horiz-adv-x="577" d="M622 682L507 223Q493 166 469 121T408 45T322 -2T208 -18Q158 -18 115 -5T42 39T0 118T-1 237L176 265Q164 196 177 165T233 134Q273 134 298 159T335 231L448 682H622ZM476 887H688L759
737H611L567 803L491 737H332L476 887Z" />
<glyph unicode="&#x135;" glyph-name="jcircumflex" horiz-adv-x="294" d="M294 500L168 1Q151 -68 123 -110T52 -171T-52 -191Q-85 -191 -113 -182L-82 -60H-51Q-31 -60 -21 -53T-2 -28T18 37L134 500H294ZM422 702H614L684 552H547L503 618L427 552H276L422 702Z" />
<glyph unicode="&#x136;" glyph-name="Kcommaaccent" horiz-adv-x="718" d="M824 682L531 442L664 0H475L383 321L236 201L186 0H12L182 682H356L291 424L594 682H824ZM382 -42L364 -113Q353 -158 314 -176T190 -194H156L170 -140H186Q204 -140 213 -135T226 -116H195L214
-42H382Z" />
<glyph unicode="&#x137;" glyph-name="kcommaaccent" horiz-adv-x="574" d="M180 702H340L247 331L434 500H639L418 316L531 0H356L285 207L199 136L165 0H5L180 702ZM305 -42L287 -112Q276 -156 238 -174T120 -192H89L103 -139H122Q139 -139 147 -134T160 -115H128L147
-42H305Z" />
<glyph unicode="&#x138;" glyph-name="kgreenlandic" horiz-adv-x="573" d="M130 500H289L242 313L433 500H638L408 296L531 0H356L281 182L189 100L164 0H5L130 500Z" />
<glyph unicode="&#x139;" glyph-name="Lacute" horiz-adv-x="571" d="M182 682H356L222 147H527L491 0H12L182 682ZM183 734L304 884H525L345 734H183Z" />
<glyph unicode="&#x13a;" glyph-name="lacute" horiz-adv-x="290" d="M180 702H340L165 0H5L180 702ZM174 755L294 905H504L325 755H174Z" />
<glyph unicode="&#x13b;" glyph-name="Lcommaaccent" horiz-adv-x="571" d="M182 682H356L222 147H527L491 0H12L182 682ZM294 -42L276 -113Q265 -158 226 -176T102 -194H68L82 -140H98Q116 -140 125 -135T138 -116H107L126 -42H294Z" />
<glyph unicode="&#x13c;" glyph-name="lcommaaccent" horiz-adv-x="290" d="M180 702H340L165 0H5L180 702ZM409 -42L391 -112Q380 -156 342 -174T224 -192H193L207 -139H226Q243 -139 251 -134T264 -115H232L251 -42H409Z" />
<glyph unicode="&#x13d;" glyph-name="Lcaron" horiz-adv-x="571" d="M182 682H356L222 147H527L491 0H12L182 682ZM449 760H612L511 566H380L449 760Z" />
<glyph unicode="&#x13e;" glyph-name="lcaron" horiz-adv-x="375" d="M180 702H340L165 0H5L180 702ZM413 760H576L475 566H344L413 760Z" />
<glyph unicode="&#x13f;" glyph-name="Ldot" horiz-adv-x="571" d="M182 682H356L222 147H527L491 0H12L182 682ZM358 281L404 463H591L546 281H358Z" />
<glyph unicode="&#x140;" glyph-name="ldot" horiz-adv-x="448" d="M180 702H340L165 0H5L180 702ZM273 231L319 413H506L461 231H273Z" />
<glyph unicode="&#x141;" glyph-name="Lslash" horiz-adv-x="581" d="M468 376L271 302L232 147H537L501 0H22L79 231L-10 196L25 334L114 368L192 682H366L305 439L503 514L468 376Z" />
<glyph unicode="&#x142;" glyph-name="lslash" horiz-adv-x="320" d="M79 235L1 199L35 334L112 369L196 702H354L292 452L371 489L338 354L259 318L179 0H20L79 235Z" />
<glyph unicode="&#x143;" glyph-name="Nacute" horiz-adv-x="762" d="M430 0L321 343Q313 370 304 411T290 484H286Q276 425 260 348T226 203L176 0H12L182 682H396L497 364Q505 338 514 296T528 223H532Q540 274 556 352T591 503L635 682H800L629 0H430ZM406
734L527 884H748L568 734H406Z" />
<glyph unicode="&#x144;" glyph-name="nacute" horiz-adv-x="614" d="M339 0L401 250Q414 302 416 321T415 353Q410 372 396 381T357 390Q339 390 321 384T289 366Q267 348 253 322T227 251L164 0H5L65 241Q84 315 97 371T126 500H276L263 440H264Q299 478 340
497T428 516Q489 516 528 489T579 412T574 296L498 0H339ZM286 556L406 706H616L437 556H286Z" />
<glyph unicode="&#x145;" glyph-name="Ncommaaccent" horiz-adv-x="762" d="M430 0L321 343Q313 370 304 411T290 484H286Q276 425 260 348T226 203L176 0H12L182 682H396L497 364Q505 338 514 296T528 223H532Q540 274 556 352T591 503L635 682H800L629 0H430ZM412
-42L394 -113Q383 -158 344 -176T220 -194H186L200 -140H216Q234 -140 243 -135T256 -116H225L244 -42H412Z" />
<glyph unicode="&#x146;" glyph-name="ncommaaccent" horiz-adv-x="614" d="M339 0L401 250Q414 302 416 321T415 353Q410 372 396 381T357 390Q339 390 321 384T289 366Q267 348 253 322T227 251L164 0H5L65 241Q84 315 97 371T126 500H276L263 440H264Q299 478
340 497T428 516Q489 516 528 489T579 412T574 296L498 0H339ZM325 -42L307 -112Q296 -156 258 -174T140 -192H109L123 -139H142Q159 -139 167 -134T180 -115H148L167 -42H325Z" />
<glyph unicode="&#x147;" glyph-name="Ncaron" horiz-adv-x="762" d="M430 0L321 343Q313 370 304 411T290 484H286Q276 425 260 348T226 203L176 0H12L182 682H396L497 364Q505 338 514 296T528 223H532Q540 274 556 352T591 503L635 682H800L629 0H430ZM619
737H407L337 887H484L528 821L604 887H765L619 737Z" />
<glyph unicode="&#x148;" glyph-name="ncaron" horiz-adv-x="614" d="M339 0L401 250Q414 302 416 321T415 353Q410 372 396 381T357 390Q339 390 321 384T289 366Q267 348 253 322T227 251L164 0H5L65 241Q84 315 97 371T126 500H276L263 440H264Q299 478 340
497T428 516Q489 516 528 489T579 412T574 296L498 0H339ZM481 556H289L218 706H356L400 640L476 706H626L481 556Z" />
<glyph unicode="&#x14a;" glyph-name="Eng" horiz-adv-x="762" d="M411 -54Q426 -54 436 -50T452 -37T462 -11L468 15L333 340Q319 376 307 415T287 483H284Q276 430 260 354T225 203L176 0H11L182 682H379L489 420Q508 372 521 331T539 262H543Q547 301 559 361T591
503L635 682H800L628 -4Q613 -65 583 -106T508 -168T402 -189Q365 -189 345 -181L377 -54H411Z" />
<glyph unicode="&#x14b;" glyph-name="eng" horiz-adv-x="614" d="M401 250Q413 300 415 319T415 353Q410 372 396 381T357 390Q339 390 321 384T289 366Q267 348 252 321T227 251L164 0H5L65 241Q87 331 103 399T126 500H276L263 440H264Q299 478 340 497T428
516Q489 516 528 489T579 412T574 296L498 -4Q482 -68 454 -109T383 -170T280 -191Q244 -191 216 -182L247 -60H279Q301 -60 311 -53T329 -26T348 37L401 250Z" />
<glyph unicode="&#x14c;" glyph-name="Omacron" horiz-adv-x="794" d="M779 331Q753 226 691 147T537 25T340 -18Q234 -18 161 29T63 161T64 351Q90 457 153 536T308 658T504 700Q610 700 682 653T780 522T779 331V331ZM598 341Q613 402 604 448T561 520T473 546Q420
546 374 521T295 450T246 341Q231 280 240 234T283 162T371 136Q425 136 471 161T550 233T598 341V341ZM705 741H339L372 873H738L705 741Z" />
<glyph unicode="&#x14d;" glyph-name="omacron" horiz-adv-x="604" d="M570 239Q550 158 506 101T395 14T247 -16Q164 -16 109 19T35 116T37 261Q57 341 101 398T212 486T360 516Q443 516 498 481T572 384T570 239V239ZM403 250Q413 291 409 321T387 368T336 385Q305
385 279 369T233 322T204 250Q194 209 198 179T220 132T271 115Q302 115 328 131T374 178T403 250V250ZM554 563H208L240 691H586L554 563Z" />
<glyph unicode="&#x14e;" glyph-name="Obreve" horiz-adv-x="794" d="M779 331Q753 226 691 147T537 25T340 -18Q234 -18 161 29T63 161T64 351Q90 457 153 536T308 658T504 700Q610 700 682 653T780 522T779 331V331ZM598 341Q613 402 604 448T561 520T473 546Q420
546 374 521T295 450T246 341Q231 280 240 234T283 162T371 136Q425 136 471 161T550 233T598 341V341ZM753 908Q739 848 710 809T636 751T527 731Q463 731 423 752T370 813T375 908H504Q493 879 505 864T549 849Q581 849 600 864T623 908H753Z" />
<glyph unicode="&#x14f;" glyph-name="obreve" horiz-adv-x="604" d="M570 239Q550 158 506 101T395 14T247 -16Q164 -16 109 19T35 116T37 261Q57 341 101 398T212 486T360 516Q443 516 498 481T572 384T570 239V239ZM403 250Q413 291 409 321T387 368T336 385Q305
385 279 369T233 322T204 250Q194 209 198 179T220 132T271 115Q302 115 328 131T374 178T403 250V250ZM597 724Q585 666 557 628T486 572T385 554Q327 554 290 574T241 632T246 724H365Q359 704 362 691T377 673T407 667Q428 667 442 673T465 693T478 724H597Z"
/>
<glyph unicode="&#x150;" glyph-name="Ohungarumlaut" horiz-adv-x="794" d="M779 331Q753 226 691 147T537 25T340 -18Q234 -18 161 29T63 161T64 351Q90 457 153 536T308 658T504 700Q610 700 682 653T780 522T779 331V331ZM598 341Q613 402 604 448T561 520T473
546Q420 546 374 521T295 450T246 341Q231 280 240 234T283 162T371 136Q425 136 471 161T550 233T598 341V341ZM555 734L675 884H894L717 734H555ZM310 734L402 884H608L468 734H310Z" />
<glyph unicode="&#x151;" glyph-name="ohungarumlaut" horiz-adv-x="604" d="M570 239Q550 158 506 101T395 14T247 -16Q164 -16 109 19T35 116T37 261Q57 341 101 398T212 486T360 516Q443 516 498 481T572 384T570 239V239ZM403 250Q413 291 409 321T387 368T336
385Q305 385 279 369T233 322T204 250Q194 209 198 179T220 132T271 115Q302 115 328 131T374 178T403 250V250ZM400 556L521 706H731L553 556H400ZM175 556L268 706H469L324 556H175Z" />
<glyph unicode="&#x152;" glyph-name="OE" horiz-adv-x="1138" d="M598 341Q613 403 604 449T561 521T473 547Q419 547 373 522T294 450T246 341Q231 279 240 233T282 161T370 135Q423 135 469 160T548 231T598 341V341ZM487 696Q552 696 601 674T667 616H668L684
682H1189L1156 550H826L790 411H1074L1042 283H758L721 133H1069L1036 0H514L528 56H527Q494 21 445 4T331 -14Q228 -14 158 33T63 163T64 350Q90 453 151 531T299 653T487 696V696Z" />
<glyph unicode="&#x153;" glyph-name="oe" horiz-adv-x="953" d="M863 54Q809 20 746 2T620 -16Q555 -16 510 5T446 65Q409 27 357 6T247 -16Q164 -16 109 19T35 116T37 261Q57 341 101 398T212 486T360 516Q420 516 463 495T523 435Q560 474 613 495T724 516Q783
516 828 498T899 443T932 358T923 248Q915 215 906 200H555Q552 166 562 145T594 114T652 104Q692 104 737 118T820 158L863 54ZM403 250Q413 291 409 321T387 368T336 385Q305 385 279 369T233 322T204 250Q194 209 198 179T220 132T271 115Q302 115 328 131T374
178T403 250V250ZM768 304Q774 333 769 354T747 388T703 400Q677 400 655 389T614 357T582 304H768Z" />
<glyph unicode="&#x154;" glyph-name="Racute" horiz-adv-x="713" d="M182 682Q235 682 333 683T469 684Q561 684 625 655T713 573T718 446Q706 397 682 360T622 296T539 255L641 0H447L366 231H243L186 0H12L182 682ZM278 370Q298 369 322 369T397 369Q435 369
463 379T510 409T537 461Q544 490 536 508T503 535T438 544Q386 544 321 543L278 370ZM374 734L495 884H716L536 734H374Z" />
<glyph unicode="&#x155;" glyph-name="racute" horiz-adv-x="408" d="M5 0L65 240Q86 324 101 390T126 500H275L258 418H259Q296 469 338 492T434 516Q454 516 468 512L429 359Q408 360 392 360Q363 360 337 351T288 324Q258 300 241 267T205 161L165 0H5ZM215
552L335 702H545L366 552H215Z" />
<glyph unicode="&#x156;" glyph-name="Rcommaaccent" horiz-adv-x="713" d="M182 682Q235 682 333 683T469 684Q561 684 625 655T713 573T718 446Q706 397 682 360T622 296T539 255L641 0H447L366 231H243L186 0H12L182 682ZM278 370Q298 369 322 369T397 369Q435
369 463 379T510 409T537 461Q544 490 536 508T503 535T438 544Q386 544 321 543L278 370ZM379 -42L361 -113Q350 -158 311 -176T187 -194H153L167 -140H183Q201 -140 210 -135T223 -116H192L211 -42H379Z" />
<glyph unicode="&#x157;" glyph-name="rcommaaccent" horiz-adv-x="408" d="M5 0L65 240Q86 324 101 390T126 500H275L258 418H259Q296 469 338 492T434 516Q454 516 468 512L429 359Q408 360 392 360Q363 360 337 351T288 324Q258 300 241 267T205 161L165 0H5ZM409
-42L391 -112Q380 -156 342 -174T224 -192H193L207 -139H226Q243 -139 251 -134T264 -115H232L251 -42H409Z" />
<glyph unicode="&#x158;" glyph-name="Rcaron" horiz-adv-x="713" d="M182 682Q235 682 333 683T469 684Q561 684 625 655T713 573T718 446Q706 397 682 360T622 296T539 255L641 0H447L366 231H243L186 0H12L182 682ZM278 370Q298 369 322 369T397 369Q435 369
463 379T510 409T537 461Q544 490 536 508T503 535T438 544Q386 544 321 543L278 370ZM586 737H374L304 887H451L495 821L571 887H732L586 737Z" />
<glyph unicode="&#x159;" glyph-name="rcaron" horiz-adv-x="408" d="M5 0L65 240Q86 324 101 390T126 500H275L258 418H259Q296 469 338 492T434 516Q454 516 468 512L429 359Q408 360 392 360Q363 360 337 351T288 324Q258 300 241 267T205 161L165 0H5ZM656
552H464L393 702H531L575 636L651 702H801L656 552Z" />
<glyph unicode="&#x15a;" glyph-name="Sacute" horiz-adv-x="688" d="M85 203Q142 165 203 144T319 122Q355 122 383 129T428 151T451 186Q456 206 447 220T414 244T303 273T171 322T115 395T117 500Q133 563 175 608T285 676T439 700Q509 700 571 684T684 636L607
500Q561 529 512 545T417 561Q383 561 358 554T317 534T298 505Q293 487 302 474T333 452T445 423T578 375T636 299T634 190Q618 124 572 77T456 6T297 -18Q215 -18 141 4T6 69L85 203ZM361 734L482 884H703L523 734H361Z" />
<glyph unicode="&#x15b;" glyph-name="sacute" horiz-adv-x="528" d="M57 164Q96 136 142 120T232 104Q255 104 271 108T298 120T311 139Q314 151 308 159T286 174T209 193T115 229T73 284T75 364Q88 414 121 448T206 499T327 516Q384 516 433 505T517 471L454
360Q422 380 385 390T312 401Q292 401 277 398T251 387T239 370Q236 358 242 350T264 336T341 317T436 281T479 225T477 144Q464 93 430 57T342 3T215 -16Q147 -16 88 0T-13 48L57 164ZM247 556L367 706H577L398 556H247Z" />
<glyph unicode="&#x15c;" glyph-name="Scircumflex" horiz-adv-x="688" d="M85 203Q142 165 203 144T319 122Q355 122 383 129T428 151T451 186Q456 206 447 220T414 244T303 273T171 322T115 395T117 500Q133 563 175 608T285 676T439 700Q509 700 571 684T684
636L607 500Q561 529 512 545T417 561Q383 561 358 554T317 534T298 505Q293 487 302 474T333 452T445 423T578 375T636 299T634 190Q618 124 572 77T456 6T297 -18Q215 -18 141 4T6 69L85 203ZM399 887H611L682 737H534L490 803L414 737H255L399 887Z" />
<glyph unicode="&#x15d;" glyph-name="scircumflex" horiz-adv-x="528" d="M57 164Q96 136 142 120T232 104Q255 104 271 108T298 120T311 139Q314 151 308 159T286 174T209 193T115 229T73 284T75 364Q88 414 121 448T206 499T327 516Q384 516 433 505T517 471L454
360Q422 380 385 390T312 401Q292 401 277 398T251 387T239 370Q236 358 242 350T264 336T341 317T436 281T479 225T477 144Q464 93 430 57T342 3T215 -16Q147 -16 88 0T-13 48L57 164ZM285 706H477L547 556H410L366 622L290 556H139L285 706Z" />
<glyph unicode="&#x15e;" glyph-name="Scedilla" horiz-adv-x="688" d="M85 203Q142 165 203 144T319 122Q355 122 383 129T428 151T451 186Q456 206 447 220T414 244T303 273T171 322T115 395T117 500Q133 563 175 608T285 676T439 700Q509 700 571 684T684 636L607
500Q561 529 512 545T417 561Q383 561 358 554T317 534T298 505Q293 487 302 474T333 452T445 423T578 375T636 299T634 190Q618 124 572 77T456 6T297 -18Q215 -18 141 4T6 69L85 203ZM181 -115Q184 -101 177 -91T157 -71L223 8H361L324 -36Q342 -52 349 -69T351
-107Q346 -126 329 -145T287 -180H119Q149 -158 164 -141T181 -115Z" />
<glyph unicode="&#x15f;" glyph-name="scedilla" horiz-adv-x="528" d="M57 164Q96 136 142 120T232 104Q255 104 271 108T298 120T311 139Q314 151 308 159T286 174T209 193T115 229T73 284T75 364Q88 414 121 448T206 499T327 516Q384 516 433 505T517 471L454
360Q422 380 385 390T312 401Q292 401 277 398T251 387T239 370Q236 358 242 350T264 336T341 317T436 281T479 225T477 144Q464 93 430 57T342 3T215 -16Q147 -16 88 0T-13 48L57 164ZM49 -180Q73 -163 90 -145T111 -114Q114 -103 109 -93T87 -71L153 8H280L243
-36Q263 -54 269 -70T270 -107Q265 -127 248 -145T206 -180H49Z" />
<glyph unicode="&#x160;" glyph-name="Scaron" horiz-adv-x="688" d="M85 203Q142 165 203 144T319 122Q355 122 383 129T428 151T451 186Q456 206 447 220T414 244T303 273T171 322T115 395T117 500Q133 563 175 608T285 676T439 700Q509 700 571 684T684 636L607
500Q561 529 512 545T417 561Q383 561 358 554T317 534T298 505Q293 487 302 474T333 452T445 423T578 375T636 299T634 190Q618 124 572 77T456 6T297 -18Q215 -18 141 4T6 69L85 203ZM574 737H362L292 887H439L483 821L559 887H720L574 737Z" />
<glyph unicode="&#x161;" glyph-name="scaron" horiz-adv-x="528" d="M57 164Q96 136 142 120T232 104Q255 104 271 108T298 120T311 139Q314 151 308 159T286 174T209 193T115 229T73 284T75 364Q88 414 121 448T206 499T327 516Q384 516 433 505T517 471L454
360Q422 380 385 390T312 401Q292 401 277 398T251 387T239 370Q236 358 242 350T264 336T341 317T436 281T479 225T477 144Q464 93 430 57T342 3T215 -16Q147 -16 88 0T-13 48L57 164ZM440 556H248L177 706H315L359 640L435 706H585L440 556Z" />
<glyph unicode="&#x162;" glyph-name="Tcommaaccent" horiz-adv-x="542" d="M257 542H72L107 682H655L620 542H435L300 0H122L257 542ZM284 -42L266 -113Q255 -158 216 -176T92 -194H58L72 -140H88Q106 -140 115 -135T128 -116H97L116 -42H284Z" />
<glyph unicode="&#x163;" glyph-name="tcommaaccent" horiz-adv-x="376" d="M113 376H52L83 500H143L178 639L347 668L304 500H412L381 376H273L231 210Q223 178 220 162T218 138T224 124Q229 119 236 117T254 115Q265 115 281 117T308 121L296 1Q274 -7 245 -11T186
-16Q127 -16 94 4T52 65T58 165Q67 199 76 233T97 312L113 376ZM224 -42L206 -112Q195 -156 157 -174T39 -192H8L22 -139H41Q58 -139 66 -134T79 -115H47L66 -42H224Z" />
<glyph unicode="&#x164;" glyph-name="Tcaron" horiz-adv-x="542" d="M257 542H72L107 682H655L620 542H435L300 0H122L257 542ZM500 737H288L218 887H365L409 821L485 887H646L500 737Z" />
<glyph unicode="&#x165;" glyph-name="tcaron" horiz-adv-x="376" d="M113 376H52L83 500H143L178 639L347 668L304 500H412L381 376H273L231 210Q223 178 220 162T218 138T224 124Q229 119 236 117T254 115Q265 115 281 117T308 121L296 1Q274 -7 245 -11T186
-16Q127 -16 94 4T52 65T58 165Q67 199 76 233T97 312L113 376ZM422 760H585L484 566H353L422 760Z" />
<glyph unicode="&#x166;" glyph-name="Tbar" horiz-adv-x="542" d="M122 0L186 257H45L78 387H218L257 542H72L107 682H655L620 542H435L396 387H538L505 257H364L300 0H122Z" />
<glyph unicode="&#x167;" glyph-name="tbar" horiz-adv-x="376" d="M113 376H51L83 500H143L178 639L346 668L303 500H412L380 376H273L255 307H334L304 191H226Q220 166 219 154T218 135T224 124Q229 119 236 117T254 115Q265 115 281 117T308 121L296 1Q274
-7 245 -11T186 -16Q126 -16 93 5T52 66T59 165L66 191H18L48 307H95L113 376Z" />
<glyph unicode="&#x168;" glyph-name="Utilde" horiz-adv-x="746" d="M250 286Q238 239 246 205T282 153T352 135Q398 135 433 152T492 204T528 286L627 682H791L686 264Q664 174 615 111T492 15T323 -18Q226 -18 162 20T76 127T75 284L175 682H349L250 286ZM431
769Q419 769 412 761T399 734H273Q290 815 335 854T457 893Q486 893 510 887T558 867T587 852T599 849Q611 849 618 857T631 884H757Q740 803 695 764T573 725Q544 725 520 731T473 751T444 766T431 769V769Z" />
<glyph unicode="&#x169;" glyph-name="utilde" horiz-adv-x="610" d="M339 0L352 60H351Q315 21 276 3T190 -16Q130 -16 91 11T41 88T46 204L120 500H280L217 249Q204 198 202 180T202 147Q207 128 220 119T256 110Q274 110 293 117T325 135Q347 153 362 181T388
253L450 500H610L549 259Q529 181 512 109T488 0H339ZM321 591Q308 591 301 583T288 556H175Q190 636 232 674T348 712Q375 712 398 706T443 688T471 674T484 671Q497 671 504 679T517 706H630Q615 626 573 588T457 550Q430 550 407 556T362 574T334 588T321 591V591Z"
/>
<glyph unicode="&#x16a;" glyph-name="Umacron" horiz-adv-x="746" d="M250 286Q238 239 246 205T282 153T352 135Q398 135 433 152T492 204T528 286L627 682H791L686 264Q664 174 615 111T492 15T323 -18Q226 -18 162 20T76 127T75 284L175 682H349L250 286ZM681
741H315L348 873H714L681 741Z" />
<glyph unicode="&#x16b;" glyph-name="umacron" horiz-adv-x="610" d="M339 0L352 60H351Q315 21 276 3T190 -16Q130 -16 91 11T41 88T46 204L120 500H280L217 249Q204 198 202 180T202 147Q207 128 220 119T256 110Q274 110 293 117T325 135Q347 153 362 181T388
253L450 500H610L549 259Q529 181 512 109T488 0H339ZM557 559H211L243 687H589L557 559Z" />
<glyph unicode="&#x16c;" glyph-name="Ubreve" horiz-adv-x="746" d="M250 286Q238 239 246 205T282 153T352 135Q398 135 433 152T492 204T528 286L627 682H791L686 264Q664 174 615 111T492 15T323 -18Q226 -18 162 20T76 127T75 284L175 682H349L250 286ZM729
908Q715 848 686 809T612 751T503 731Q439 731 399 752T346 813T351 908H480Q469 879 481 864T525 849Q557 849 576 864T599 908H729Z" />
<glyph unicode="&#x16d;" glyph-name="ubreve" horiz-adv-x="610" d="M339 0L352 60H351Q315 21 276 3T190 -16Q130 -16 91 11T41 88T46 204L120 500H280L217 249Q204 198 202 180T202 147Q207 128 220 119T256 110Q274 110 293 117T325 135Q347 153 362 181T388
253L450 500H610L549 259Q529 181 512 109T488 0H339ZM600 720Q588 662 560 624T489 568T388 550Q330 550 293 570T244 628T249 720H368Q362 700 365 687T380 669T410 663Q431 663 445 669T468 689T481 720H600Z" />
<glyph unicode="&#x16e;" glyph-name="Uring" horiz-adv-x="746" d="M250 286Q238 239 246 205T282 153T352 135Q398 135 433 152T492 204T528 286L627 682H791L686 264Q664 174 615 111T492 15T323 -18Q226 -18 162 20T76 127T75 284L175 682H349L250 286ZM553
834Q557 851 552 861T531 872Q515 872 504 862T489 834Q485 817 490 807T512 796Q528 796 538 806T553 834ZM672 827Q660 779 616 749T499 718Q424 718 391 752T370 841Q382 889 426 919T543 950Q618 950 652 916T672 827Z" />
<glyph unicode="&#x16f;" glyph-name="uring" horiz-adv-x="610" d="M339 0L352 60H351Q315 21 276 3T190 -16Q130 -16 91 11T41 88T46 204L120 500H280L217 249Q204 198 202 180T202 147Q207 128 220 119T256 110Q274 110 293 117T325 135Q347 153 362 181T388
253L450 500H610L549 259Q529 181 512 109T488 0H339ZM442 662Q446 679 441 689T420 700Q404 700 393 690T378 662Q374 645 379 635T401 624Q417 624 427 634T442 662ZM561 655Q549 607 505 577T388 546Q313 546 280 580T259 669Q271 717 315 747T432 778Q507 778
541 744T561 655Z" />
<glyph unicode="&#x170;" glyph-name="Uhungarumlaut" horiz-adv-x="746" d="M250 286Q238 239 246 205T282 153T352 135Q398 135 433 152T492 204T528 286L627 682H791L686 264Q664 174 615 111T492 15T323 -18Q226 -18 162 20T76 127T75 284L175 682H349L250
286ZM541 734L661 884H880L703 734H541ZM296 734L388 884H594L454 734H296Z" />
<glyph unicode="&#x171;" glyph-name="uhungarumlaut" horiz-adv-x="610" d="M339 0L352 60H351Q315 21 276 3T190 -16Q130 -16 91 11T41 88T46 204L120 500H280L217 249Q204 198 202 180T202 147Q207 128 220 119T256 110Q274 110 293 117T325 135Q347 153 362
181T388 253L450 500H610L549 259Q529 181 512 109T488 0H339ZM401 552L522 702H732L554 552H401ZM176 552L269 702H470L325 552H176Z" />
<glyph unicode="&#x172;" glyph-name="Uogonek" horiz-adv-x="746" d="M470 -182Q460 -187 439 -190T396 -194Q348 -194 317 -186T272 -163T257 -124Q257 -97 275 -70T327 -18H323Q225 -18 162 20T76 127T75 284L176 682H349L250 286Q238 238 247 204T283 152T352
135Q398 135 433 152T492 204T528 286L627 682H790L688 264Q671 198 639 146T561 56Q553 50 536 38T510 20Q491 5 473 -15T444 -55T432 -84Q432 -92 438 -95T458 -99H491L470 -182Z" />
<glyph unicode="&#x173;" glyph-name="uogonek" horiz-adv-x="610" d="M352 60H351Q315 21 276 3T190 -16Q130 -16 91 11T40 88T45 204L120 500H280L217 249Q203 192 201 176T202 147Q206 129 219 120T256 110Q274 110 293 117T325 135Q347 153 362 181T388 253L450
500H610L549 259Q531 187 517 125T488 1Q449 -32 432 -52T414 -88Q414 -96 420 -99T440 -103H473L453 -182Q442 -187 420 -190T379 -194Q335 -194 307 -186T264 -163T250 -124Q250 -94 271 -65T338 -3L352 60Z" />
<glyph unicode="&#x174;" glyph-name="Wcircumflex" horiz-adv-x="1077" d="M591 0L588 252Q587 348 587 383T591 447H587Q573 411 553 367T495 252L366 0H139L126 682H316L307 403Q305 361 303 312T296 166H300Q322 215 349 273T395 367L556 682H747L748 367Q748
244 747 216T745 166H749Q792 262 814 310T855 400L987 682H1171L818 0H591ZM593 887H805L876 737H728L684 803L608 737H449L593 887Z" />
<glyph unicode="&#x175;" glyph-name="wcircumflex" horiz-adv-x="836" d="M428 0L429 169Q429 203 430 237T436 309H434Q422 278 408 247T371 169L287 0H97L71 500H236L240 296Q241 258 240 223T234 147H237Q267 218 279 245T303 297L404 500H561V296Q561 264
559 226T553 147H556Q570 180 586 217T623 296L721 500H895L619 0H428ZM437 702H629L699 552H562L518 618L442 552H291L437 702Z" />
<glyph unicode="&#x176;" glyph-name="Ycircumflex" horiz-adv-x="658" d="M181 0L250 272L110 682H311L344 564Q355 523 360 506T377 447Q408 487 420 502T465 563L555 682H768L424 272L356 0H181ZM384 887H596L667 737H519L475 803L399 737H240L384 887Z" />
<glyph unicode="&#x177;" glyph-name="ycircumflex" horiz-adv-x="538" d="M10 -180L114 -30V-30L62 500H231L240 305Q242 266 242 226T239 148H242Q260 188 278 225T318 305L418 500H606L199 -180H10ZM288 702H480L550 552H413L369 618L293 552H142L288 702Z" />
<glyph unicode="&#x178;" glyph-name="Ydieresis" horiz-adv-x="658" d="M181 0L250 272L110 682H311L344 564Q355 523 360 506T377 447Q408 487 420 502T465 563L555 682H768L424 272L356 0H181ZM497 734L535 884H695L657 734H497ZM247 734L285 884H445L407 734H247Z" />
<glyph unicode="&#x179;" glyph-name="Zacute" horiz-adv-x="628" d="M536 0H-28L7 142L419 544Q387 544 318 543T220 542H122L157 682H691L656 542L244 140Q279 140 360 141T473 142H571L536 0ZM331 734L452 884H673L493 734H331Z" />
<glyph unicode="&#x17a;" glyph-name="zacute" horiz-adv-x="535" d="M431 0H-16L15 128L301 377Q261 376 228 376T168 375H88L120 500H544L512 375L227 126Q251 126 306 127T380 128H463L431 0ZM246 552L366 702H576L397 552H246Z" />
<glyph unicode="&#x17b;" glyph-name="Zdotaccent" horiz-adv-x="628" d="M536 0H-28L7 142L419 544Q387 544 318 543T220 542H122L157 682H691L656 542L244 140Q279 140 360 141T473 142H571L536 0ZM351 734L389 884H561L523 734H351Z" />
<glyph unicode="&#x17c;" glyph-name="zdotaccent" horiz-adv-x="535" d="M431 0H-16L15 128L301 377Q261 376 228 376T168 375H88L120 500H544L512 375L227 126Q251 126 306 127T380 128H463L431 0ZM264 552L301 702H463L426 552H264Z" />
<glyph unicode="&#x17d;" glyph-name="Zcaron" horiz-adv-x="628" d="M536 0H-28L7 142L419 544Q387 544 318 543T220 542H122L157 682H691L656 542L244 140Q279 140 360 141T473 142H571L536 0ZM544 737H332L262 887H409L453 821L529 887H690L544 737Z" />
<glyph unicode="&#x17e;" glyph-name="zcaron" horiz-adv-x="535" d="M431 0H-16L15 128L301 377Q261 376 228 376T168 375H88L120 500H544L512 375L227 126Q251 126 306 127T380 128H463L431 0ZM441 552H249L178 702H316L360 636L436 702H586L441 552Z" />
<glyph unicode="&#x17f;" glyph-name="longs" horiz-adv-x="290" d="M5 0L139 536Q154 596 182 636T254 696T355 716Q377 716 399 714T441 706L404 581Q392 585 380 586T353 588Q339 588 329 584T312 570T301 546L165 0H5Z" />
<glyph unicode="&#x192;" glyph-name="florin" horiz-adv-x="543" d="M504 308H353L268 68Q244 2 218 -39T161 -105T86 -141T-18 -152Q-39 -152 -64 -149T-105 -142L-61 -11Q-46 -15 -28 -18T4 -21Q20 -21 33 -16T57 1T80 32T101 80L182 308H64L97 436H228L253
504Q279 574 306 618T366 688T440 725T542 736Q563 736 588 733T632 726L586 596Q572 600 556 602T525 605Q506 605 493 600T469 584T446 554T424 504L399 436H537L504 308Z" />
<glyph unicode="&#x1e6;" glyph-name="Gcaron" horiz-adv-x="777" d="M508 0L524 60H523Q474 16 427 -1T317 -18Q219 -18 151 30T61 163T64 351Q91 459 153 538T304 658T498 700Q599 700 669 665T779 560L618 459Q599 503 563 525T473 547Q420 547 374 521T294
447T245 337Q229 274 238 228T280 156T369 131Q436 131 484 165T545 252V254H414L446 382H749L652 0H508ZM630 737H418L348 887H495L539 821L615 887H776L630 737Z" />
<glyph unicode="&#x1e7;" glyph-name="gcaron" horiz-adv-x="621" d="M629 500Q619 472 599 403T558 249Q548 212 530 134T502 15Q485 -53 445 -100T340 -170T190 -194Q125 -194 61 -182T-39 -150L31 -29Q64 -49 119 -62T222 -76Q251 -76 273 -68T311 -41T339
8L360 64H358Q325 30 285 13T198 -4Q132 -4 89 29T32 125T38 266Q57 342 98 398T198 485T326 516Q377 516 413 498T462 446H463L482 500H629ZM403 258Q413 297 409 327T388 373T340 390Q309 390 282 373T235 325T205 255Q195 214 199 183T222 136T269 120Q297 120
324 137T372 185T402 254L403 258ZM477 556H285L214 706H352L396 640L472 706H622L477 556Z" />
<glyph unicode="&#x1fa;" glyph-name="Aringacute" horiz-adv-x="713" d="M576 682L644 0H451L444 126H213L145 0H-52L357 682H576ZM432 542H430Q395 467 383 442T361 399L282 254H438L430 399Q429 423 429 451T432 542V542ZM427 860L530 980H732L575 860H427ZM508
721Q512 738 507 748T485 759Q469 759 459 749T444 721Q440 704 445 694T466 683Q482 683 493 693T508 721ZM627 714Q615 666 571 636T453 605Q378 605 345 639T325 728Q337 776 381 806T499 837Q574 837 607 803T627 714Z" />
<glyph unicode="&#x1fb;" glyph-name="aringacute" horiz-adv-x="555" d="M333 212Q289 212 259 208T209 197T180 178T166 151Q161 128 172 116T209 103Q235 103 261 116T305 152T330 201L333 212ZM498 233Q480 160 468 107T443 0H298L311 51H310Q274 17 234 1T144
-16Q60 -16 21 32T0 153Q10 195 36 225T106 276T213 306T359 316L362 328Q368 352 361 368T337 391T292 399Q255 399 214 384T129 341L83 441Q141 478 204 497T332 516Q405 516 453 493T519 426T521 320L498 233ZM341 797L449 930H634L478 797H341ZM410 657Q414
672 409 682T389 692Q374 692 364 682T350 657Q346 642 351 632T371 622Q386 622 396 632T410 657ZM524 650Q514 607 472 579T360 550Q288 550 256 582T236 664Q246 707 288 735T400 764Q472 764 504 732T524 650Z" />
<glyph unicode="&#x1fc;" glyph-name="AEacute" horiz-adv-x="996" d="M277 236H440L518 550H481L277 236ZM1047 682L1014 550H692L657 411H932L901 283H625L588 133H927L894 0H381L408 109H193L126 0H-73L389 682H1047ZM629 734L750 884H971L791 734H629Z" />
<glyph unicode="&#x1fd;" glyph-name="aeacute" horiz-adv-x="890" d="M800 54Q746 20 683 2T557 -16Q479 -16 432 9T365 85Q325 35 269 10T144 -16Q60 -16 21 32T0 153Q10 195 36 225T106 276T213 306T359 316L362 328Q368 350 362 366T339 390T292 399Q255 399
214 384T129 341L83 441Q141 478 204 497T332 516Q388 516 427 502T485 462Q520 490 563 503T661 516Q722 516 767 497T838 442T869 357T860 248Q852 214 843 200H492Q489 167 498 146T530 115T589 104Q629 104 674 118T757 158L800 54ZM705 304Q711 335 705 356T682
389T640 400Q614 400 592 389T551 357T519 304H705ZM333 212Q289 212 259 208T209 197T180 178T166 151Q161 128 172 116T209 103Q227 103 246 110T283 130T313 162T330 201L333 212ZM437 552L557 702H767L588 552H437Z" />
<glyph unicode="&#x1fe;" glyph-name="Oslashacute" horiz-adv-x="794" d="M242 341Q237 322 235 302T231 261L550 537Q536 544 517 548T475 552Q421 552 374 527T293 454T242 341V341ZM602 341Q607 361 609 382T612 423L293 145Q308 138 328 134T369 130Q423
130 470 155T551 228T602 341V341ZM-15 48L75 129Q54 173 52 230T64 351Q91 457 154 536T308 658T504 700Q555 700 600 688T680 654L768 729L858 631L768 553Q789 509 792 452T779 331Q753 225 690 146T536 24T340 -18Q289 -18 244 -6T163 28L71 -49L-15 48ZM414
734L535 884H756L576 734H414Z" />
<glyph unicode="&#x1ff;" glyph-name="oslashacute" horiz-adv-x="604" d="M412 248Q418 271 420 277T426 290L228 118Q235 114 247 111T272 108Q306 108 334 125T381 173T412 248V248ZM196 252Q192 235 190 226T183 210L380 382Q371 387 360 389T337 392Q303
392 275 375T227 327T196 252V252ZM-26 33L44 93Q28 126 27 169T37 261Q57 341 101 398T212 486T360 516Q398 516 432 508T491 484L565 549L634 467L563 406Q578 373 580 330T570 239Q550 158 506 101T395 14T247 -16Q208 -16 175 -8T116 15L43 -49L-26 33ZM281
556L401 706H611L432 556H281Z" />
<glyph unicode="&#x218;" glyph-name="Scommaaccent" horiz-adv-x="688" d="M85 203Q142 165 203 144T319 122Q355 122 383 129T428 151T451 186Q456 206 447 220T414 244T303 273T171 322T115 395T117 500Q133 563 175 608T285 676T439 700Q509 700 571 684T684
636L607 500Q561 529 512 545T417 561Q383 561 358 554T317 534T298 505Q293 487 302 474T333 452T445 423T578 375T636 299T634 190Q618 124 572 77T456 6T297 -18Q215 -18 141 4T6 69L85 203ZM367 -42L349 -113Q338 -158 299 -176T175 -194H141L155 -140H171Q189
-140 198 -135T211 -116H180L199 -42H367Z" />
<glyph unicode="&#x219;" glyph-name="scommaaccent" horiz-adv-x="528" d="M57 164Q96 136 142 120T232 104Q255 104 271 108T298 120T311 139Q314 151 308 159T286 174T209 193T115 229T73 284T75 364Q88 414 121 448T206 499T327 516Q384 516 433 505T517 471L454
360Q422 380 385 390T312 401Q292 401 277 398T251 387T239 370Q236 358 242 350T264 336T341 317T436 281T479 225T477 144Q464 93 430 57T342 3T215 -16Q147 -16 88 0T-13 48L57 164ZM282 -42L264 -112Q253 -156 215 -174T97 -192H66L80 -139H99Q116 -139 124
-134T137 -115H105L124 -42H282Z" />
<glyph unicode="&#x21a;" glyph-name="uni021A" horiz-adv-x="542" d="M257 542H72L107 682H655L620 542H435L300 0H122L257 542ZM284 -42L266 -113Q255 -158 216 -176T92 -194H58L72 -140H88Q106 -140 115 -135T128 -116H97L116 -42H284Z" />
<glyph unicode="&#x21b;" glyph-name="uni021B" horiz-adv-x="376" d="M113 376H52L83 500H143L178 639L347 668L304 500H412L381 376H273L231 210Q223 178 220 162T218 138T224 124Q229 119 236 117T254 115Q265 115 281 117T308 121L296 1Q274 -7 245 -11T186
-16Q127 -16 94 4T52 65T58 165Q67 199 76 233T97 312L113 376ZM224 -42L206 -112Q195 -156 157 -174T39 -192H8L22 -139H41Q58 -139 66 -134T79 -115H47L66 -42H224Z" />
<glyph unicode="&#x237;" glyph-name="dotlessj" horiz-adv-x="294" d="M294 500L168 1Q151 -68 123 -110T52 -171T-52 -191Q-85 -191 -113 -182L-82 -60H-51Q-31 -60 -21 -53T-2 -28T18 37L134 500H294Z" />
<glyph unicode="&#x2c6;" glyph-name="circumflex" horiz-adv-x="512" d="M275 702H467L537 552H400L356 618L280 552H129L275 702Z" />
<glyph unicode="&#x2c7;" glyph-name="caron" horiz-adv-x="512" d="M430 552H238L167 702H305L349 636L425 702H575L430 552Z" />
<glyph unicode="&#x2c9;" glyph-name="overscore" horiz-adv-x="470" d="M487 559H141L173 687H519L487 559Z" />
<glyph unicode="&#x2d8;" glyph-name="breve" horiz-adv-x="476" d="M533 720Q521 662 493 624T422 568T321 550Q263 550 226 570T177 628T182 720H301Q295 700 298 687T313 669T343 663Q364 663 378 669T401 689T414 720H533Z" />
<glyph unicode="&#x2d9;" glyph-name="dotaccent" horiz-adv-x="286" d="M140 552L177 702H339L302 552H140Z" />
<glyph unicode="&#x2da;" glyph-name="ring" horiz-adv-x="450" d="M362 662Q366 679 361 689T340 700Q324 700 313 690T298 662Q294 645 299 635T321 624Q337 624 347 634T362 662ZM481 655Q469 607 425 577T308 546Q233 546 200 580T179 669Q191 717 235 747T352
778Q427 778 461 744T481 655Z" />
<glyph unicode="&#x2db;" glyph-name="ogonek" horiz-adv-x="344" d="M204 0Q167 -35 152 -54T137 -88Q137 -96 143 -99T163 -103H196L176 -182Q165 -187 143 -190T102 -194Q58 -194 29 -186T-13 -163T-27 -124Q-27 -94 -5 -65T65 0H204Z" />
<glyph unicode="&#x2dc;" glyph-name="tilde" horiz-adv-x="544" d="M288 591Q275 591 268 583T255 556H142Q157 636 199 674T315 712Q342 712 365 706T410 688T438 674T451 671Q464 671 471 679T484 706H597Q582 626 540 588T424 550Q397 550 374 556T329 574T301
588T288 591V591Z" />
<glyph unicode="&#x2dd;" glyph-name="hungarumlaut" horiz-adv-x="625" d="M356 552L477 702H687L509 552H356ZM131 552L224 702H425L280 552H131Z" />
<glyph unicode="&#x312;" glyph-name="uni0312" horiz-adv-x="302" d="M139 552L159 629Q170 674 208 692T327 711H358L343 654H324Q307 654 299 649T286 630H317L297 552H139Z" />
<glyph unicode="&#x315;" glyph-name="uni0315" horiz-adv-x="304" d="M211 760H374L273 566H142L211 760Z" />
<glyph unicode="&#x326;" glyph-name="uni0326" horiz-adv-x="302" d="M169 -42L151 -112Q140 -156 102 -174T-16 -192H-47L-33 -139H-14Q3 -139 11 -134T24 -115H-8L11 -42H169Z" />
<glyph unicode="&#x394;" glyph-name="increment" horiz-adv-x="697" d="M190 141H454L427 405Q424 432 423 462T420 529H418Q401 494 385 464T351 405L190 141ZM606 0H-28L3 127L349 682H570L636 131L606 0Z" />
<glyph unicode="&#x3a9;" glyph-name="Omega" horiz-adv-x="828" d="M-1 0L34 141H91Q122 141 184 139L185 141Q128 190 108 261T108 413Q130 500 187 565T330 665T515 700Q615 700 688 659T791 546T800 389Q780 310 733 251T603 141L602 139Q642 141 687 141H743L709
0H398L433 143Q515 194 558 245T619 364Q632 416 621 458T575 523T490 547Q440 547 395 525T317 460T271 364Q254 295 271 244T345 143L310 0H-1Z" />
<glyph unicode="&#x3bc;" glyph-name="mu" horiz-adv-x="620" d="M-41 -180Q-26 -121 -11 -62T22 69L130 500H290L227 249Q214 198 212 180T212 147Q216 129 230 120T267 110Q284 110 302 117T335 136Q357 154 372 181T398 253L460 500H620L559 259Q538 176 522
107T498 0H349L362 60H361Q325 21 293 5T224 -12Q208 -12 191 -7T164 7H163Q148 -57 138 -104T122 -180H-41Z" />
<glyph unicode="&#x3c0;" glyph-name="pi" horiz-adv-x="650" d="M631 361H547Q528 285 518 237T506 163T509 126T530 115Q548 115 581 120L570 2Q522 -16 470 -16Q412 -16 384 1T346 57T346 167T387 361H268Q231 234 200 141T148 0H-9Q44 150 64 215T108 361H37L73
500H667L631 361Z" />
<glyph unicode="&#x1e02;" glyph-name="uni1E02" horiz-adv-x="729" d="M182 682Q241 683 322 683T468 684Q563 684 621 666T709 610Q725 588 729 560T726 500Q712 445 676 410T579 357Q638 342 663 299T674 194Q657 125 613 82T497 18T303 -2Q240 -2 168 -2T12
0L182 682ZM289 413H401Q445 413 470 418T512 436Q524 446 531 457T541 482Q548 511 536 527Q526 541 502 545T421 550Q401 550 374 550T323 548L289 413ZM219 134Q289 132 308 132T344 132Q391 132 421 140T469 164T493 206Q500 233 492 250T462 276T398 284H257L219
134ZM401 734L439 884H611L573 734H401Z" />
<glyph unicode="&#x1e03;" glyph-name="uni1E03" horiz-adv-x="621" d="M222 242Q212 202 216 172T238 126T285 110Q316 110 343 127T391 177T421 250Q432 292 429 324T408 373T359 390Q329 390 302 373T256 326T226 257L222 242ZM180 702H341L300 543Q284 484
268 446H270Q304 481 344 498T430 516Q497 516 540 480T595 380T588 239Q569 161 528 104T428 15T299 -16Q248 -16 212 2T163 54H162L145 0H-3Q31 113 44 162T68 252L180 702ZM359 556L396 706H558L521 556H359Z" />
<glyph unicode="&#x1e0a;" glyph-name="uni1E0A" horiz-adv-x="755" d="M182 682Q245 683 313 683T433 684Q534 684 600 660T706 583Q741 536 750 471T742 332Q723 254 686 193T594 88Q536 42 461 20T285 -2Q236 -2 164 -2T12 0L182 682ZM220 141Q241 140 262
139T306 138Q363 138 399 148T466 184Q500 211 523 250T559 341Q571 391 568 432T545 499Q526 524 496 534T401 544Q373 544 358 544T320 543L220 141ZM394 734L432 884H604L566 734H394Z" />
<glyph unicode="&#x1e0b;" glyph-name="uni1E0B" horiz-adv-x="621" d="M350 0L362 60H361Q327 23 285 4T195 -16Q128 -16 85 20T30 120T37 261Q57 340 98 398T198 486T326 516Q371 516 405 501T454 461H455Q463 512 471 543L511 702H671L558 250Q540 177 525
115T499 0H350ZM403 258Q413 296 410 326T388 373T340 390Q310 390 283 374T236 325T204 250Q193 208 196 176T217 127T266 110Q295 110 321 126T368 172T399 243L403 258ZM258 556L295 706H457L420 556H258Z" />
<glyph unicode="&#x1e1e;" glyph-name="uni1E1E" horiz-adv-x="607" d="M182 682H683L649 548H323L282 387H566L533 257H250L186 0H12L182 682ZM353 734L391 884H563L525 734H353Z" />
<glyph unicode="&#x1e1f;" glyph-name="uni1E1F" horiz-adv-x="337" d="M15 0L109 376H47L78 500H139L157 574Q169 623 195 654T262 701T356 716Q384 716 412 713T461 705L424 580Q409 584 393 586T363 588Q349 588 339 584T322 570T311 546L299 500H391L359 376H269L175
0H15ZM285 754L322 904H484L447 754H285Z" />
<glyph unicode="&#x1e40;" glyph-name="uni1E40" horiz-adv-x="972" d="M182 682H465L484 399Q487 350 487 311T483 243H486Q497 275 517 315T561 399L722 682H1010L840 0H666L726 240Q750 339 770 413T810 548H804Q780 497 760 458T713 374L500 0H341L315 374Q312
426 311 467T312 548H306Q296 496 279 421T236 240L176 0H12L182 682ZM523 734L561 884H733L695 734H523Z" />
<glyph unicode="&#x1e41;" glyph-name="uni1E41" horiz-adv-x="940" d="M665 0L728 252Q741 304 743 321T742 353Q738 371 724 380T686 390Q669 390 652 384T619 366Q597 348 583 321T557 251L494 0H335L398 252Q411 304 413 321T412 353Q408 371 394 380T355
390Q338 390 321 384T289 366Q267 348 253 321T227 251L164 0H5L65 241Q84 316 98 377T126 500H275L263 440H264Q299 478 340 497T428 516Q481 516 515 495T562 436Q605 477 652 496T754 516Q814 516 852 489T903 413T898 297L824 0H665ZM467 552L504 702H666L629
552H467Z" />
<glyph unicode="&#x1e56;" glyph-name="uni1E56" horiz-adv-x="689" d="M182 682Q232 682 321 683T460 684Q563 684 629 655T718 571T721 437Q702 361 657 311T537 237T355 212Q300 212 278 212T239 213L186 0H12L182 682ZM539 447Q548 481 540 502T504 533T430
544Q384 544 363 544T322 543L274 353Q293 352 314 352T381 352Q427 352 459 362T511 394T539 447V447ZM390 734L428 884H600L562 734H390Z" />
<glyph unicode="&#x1e57;" glyph-name="uni1E57" horiz-adv-x="621" d="M-41 -180L67 250Q79 298 92 354T126 500H277L263 440H264Q298 477 340 496T430 516Q497 516 540 480T595 380T588 239Q568 160 527 102T427 14T299 -16Q254 -16 220 -1T171 39H170Q166 3
154 -43L120 -180H-41ZM222 242Q212 202 216 172T238 126T285 110Q316 110 343 127T391 177T421 250Q432 294 428 326T407 374T359 390Q330 390 304 374T257 328T226 257L222 242ZM317 556L354 706H516L479 556H317Z" />
<glyph unicode="&#x1e60;" glyph-name="uni1E60" horiz-adv-x="688" d="M85 203Q142 165 203 144T319 122Q355 122 383 129T428 151T451 186Q456 206 447 220T414 244T303 273T171 322T115 395T117 500Q133 563 175 608T285 676T439 700Q509 700 571 684T684 636L607
500Q561 529 512 545T417 561Q383 561 358 554T317 534T298 505Q293 487 302 474T333 452T445 423T578 375T636 299T634 190Q618 124 572 77T456 6T297 -18Q215 -18 141 4T6 69L85 203ZM381 734L419 884H591L553 734H381Z" />
<glyph unicode="&#x1e61;" glyph-name="uni1E61" horiz-adv-x="528" d="M57 164Q96 136 142 120T232 104Q255 104 271 108T298 120T311 139Q314 151 308 159T286 174T209 193T115 229T73 284T75 364Q88 414 121 448T206 499T327 516Q384 516 433 505T517 471L454
360Q422 380 385 390T312 401Q292 401 277 398T251 387T239 370Q236 358 242 350T264 336T341 317T436 281T479 225T477 144Q464 93 430 57T342 3T215 -16Q147 -16 88 0T-13 48L57 164ZM262 556L299 706H461L424 556H262Z" />
<glyph unicode="&#x1e6a;" glyph-name="uni1E6A" horiz-adv-x="542" d="M257 542H72L107 682H655L620 542H435L300 0H122L257 542ZM307 734L345 884H517L479 734H307Z" />
<glyph unicode="&#x1e6b;" glyph-name="uni1E6B" horiz-adv-x="376" d="M113 376H52L83 500H143L178 639L347 668L304 500H412L381 376H273L231 210Q223 178 220 162T218 138T224 124Q229 119 236 117T254 115Q265 115 281 117T308 121L296 1Q274 -7 245 -11T186
-16Q127 -16 94 4T52 65T58 165Q67 199 76 233T97 312L113 376ZM197 714L234 864H396L359 714H197Z" />
<glyph unicode="&#x1e80;" glyph-name="Wgrave" horiz-adv-x="1077" d="M591 0L588 252Q587 348 587 383T591 447H587Q573 411 553 367T495 252L366 0H139L126 682H316L307 403Q305 361 303 312T296 166H300Q322 215 349 273T395 367L556 682H747L748 367Q748
244 747 216T745 166H749Q792 262 814 310T855 400L987 682H1171L818 0H591ZM611 734L506 884H714L758 734H611Z" />
<glyph unicode="&#x1e81;" glyph-name="wgrave" horiz-adv-x="836" d="M428 0L429 169Q429 203 430 237T436 309H434Q422 278 408 247T371 169L287 0H97L71 500H236L240 296Q241 258 240 223T234 147H237Q267 218 279 245T303 297L404 500H561V296Q561 264 559
226T553 147H556Q570 180 586 217T623 296L721 500H895L619 0H428ZM347 702H542L588 552H450L347 702Z" />
<glyph unicode="&#x1e82;" glyph-name="Wacute" horiz-adv-x="1077" d="M591 0L588 252Q587 348 587 383T591 447H587Q573 411 553 367T495 252L366 0H139L126 682H316L307 403Q305 361 303 312T296 166H300Q322 215 349 273T395 367L556 682H747L748 367Q748
244 747 216T745 166H749Q792 262 814 310T855 400L987 682H1171L818 0H591ZM558 734L679 884H900L720 734H558Z" />
<glyph unicode="&#x1e83;" glyph-name="wacute" horiz-adv-x="836" d="M428 0L429 169Q429 203 430 237T436 309H434Q422 278 408 247T371 169L287 0H97L71 500H236L240 296Q241 258 240 223T234 147H237Q267 218 279 245T303 297L404 500H561V296Q561 264 559
226T553 147H556Q570 180 586 217T623 296L721 500H895L619 0H428ZM397 552L517 702H727L548 552H397Z" />
<glyph unicode="&#x1e84;" glyph-name="Wdieresis" horiz-adv-x="1077" d="M591 0L588 252Q587 348 587 383T591 447H587Q573 411 553 367T495 252L366 0H139L126 682H316L307 403Q305 361 303 312T296 166H300Q322 215 349 273T395 367L556 682H747L748 367Q748
244 747 216T745 166H749Q792 262 814 310T855 400L987 682H1171L818 0H591ZM706 734L744 884H904L866 734H706ZM456 734L494 884H654L616 734H456Z" />
<glyph unicode="&#x1e85;" glyph-name="wdieresis" horiz-adv-x="836" d="M428 0L429 169Q429 203 430 237T436 309H434Q422 278 408 247T371 169L287 0H97L71 500H236L240 296Q241 258 240 223T234 147H237Q267 218 279 245T303 297L404 500H561V296Q561 264
559 226T553 147H556Q570 180 586 217T623 296L721 500H895L619 0H428ZM531 552L568 702H718L681 552H531ZM311 552L348 702H498L461 552H311Z" />
<glyph unicode="&#x1e9e;" glyph-name="uni1E9E" horiz-adv-x="801" d="M121 443Q143 531 192 588T321 672T510 700Q558 700 613 696T720 683T811 664L777 534L609 391Q667 380 705 351T756 279T757 185Q740 118 698 73T588 5T428 -18Q386 -18 344 -12T272 5L318
141Q346 132 380 127T449 122Q485 122 511 130T553 154T574 191Q581 218 568 233T518 256T421 264H360L393 393L582 555Q532 561 488 561Q432 561 393 547T328 503T292 430L185 0H11L121 443Z" />
<glyph unicode="&#x1ef2;" glyph-name="Ygrave" horiz-adv-x="658" d="M181 0L250 272L110 682H311L344 564Q355 523 360 506T377 447Q408 487 420 502T465 563L555 682H768L424 272L356 0H181ZM405 734L300 884H508L552 734H405Z" />
<glyph unicode="&#x1ef3;" glyph-name="ygrave" horiz-adv-x="538" d="M10 -180L114 -30V-30L62 500H231L240 305Q242 266 242 226T239 148H242Q260 188 278 225T318 305L418 500H606L199 -180H10ZM198 702H393L439 552H301L198 702Z" />
<glyph unicode="&#x2010;" glyph-name="hyphen" horiz-adv-x="376" d="M31 207L69 360H366L328 207H31Z" />
<glyph unicode="&#x2013;" glyph-name="endash" horiz-adv-x="650" d="M597 213H38L73 355H633L597 213Z" />
<glyph unicode="&#x2014;" glyph-name="emdash" horiz-adv-x="984" d="M940 213H30L66 355H976L940 213Z" />
<glyph unicode="&#x2015;" glyph-name="emdash" horiz-adv-x="984" d="M940 213H30L66 355H976L940 213Z" />
<glyph unicode="&#x2018;" glyph-name="quoteleft" horiz-adv-x="320" d="M128 490L165 636Q180 697 205 736T271 802T382 850L399 762Q359 746 341 734T312 705T297 667H361L316 490H128Z" />
<glyph unicode="&#x2019;" glyph-name="quoteright" horiz-adv-x="320" d="M400 821L363 675Q347 613 322 574T255 508T144 462L128 549Q161 558 181 570T213 600T231 644H167L212 821H400Z" />
<glyph unicode="&#x201a;" glyph-name="quotesinglbase" horiz-adv-x="320" d="M239 177L202 31Q186 -31 161 -70T94 -136T-17 -182L-33 -95Q0 -86 20 -74T52 -44T70 0H6L51 177H239Z" />
<glyph unicode="&#x201c;" glyph-name="quotedblleft" horiz-adv-x="553" d="M128 490L165 636Q181 697 205 737T267 804T367 850L384 762Q349 748 329 735T298 705T282 667H346L301 490H128ZM376 490L413 636Q429 697 453 737T515 804T615 850L632 762Q597 748
577 735T546 705T530 667H594L549 490H376Z" />
<glyph unicode="&#x201d;" glyph-name="quotedblright" horiz-adv-x="553" d="M633 821L595 674Q579 612 554 572T490 505T393 460L376 549Q406 557 425 569T458 599T479 644H415L460 821H633ZM385 821L347 674Q331 612 306 572T242 505T145 460L128 549Q158 557
177 569T210 599T231 644H167L212 821H385Z" />
<glyph unicode="&#x201e;" glyph-name="quotedblbase" horiz-adv-x="553" d="M472 177L434 30Q418 -32 393 -72T329 -139T232 -184L215 -95Q245 -87 264 -75T297 -45T318 0H254L299 177H472ZM224 177L186 30Q170 -32 145 -72T81 -139T-16 -184L-33 -95Q-3 -87
16 -75T49 -45T70 0H6L51 177H224Z" />
<glyph unicode="&#x2020;" glyph-name="dagger" horiz-adv-x="556" d="M162 100L265 508H104L137 638H297L339 806H499L457 638H617L584 508H425L323 100H162Z" />
<glyph unicode="&#x2021;" glyph-name="daggerdbl" horiz-adv-x="556" d="M512 218H352L311 50H149L192 218H32L65 349H225L265 508H104L137 638H297L339 806H499L457 638H617L584 508H425L385 349H545L512 218Z" />
<glyph unicode="&#x2022;" glyph-name="bullet" horiz-adv-x="434" d="M398 337Q398 290 375 250T311 185T224 160Q183 160 149 179T95 232T75 307Q75 356 99 396T163 460T249 484Q290 484 324 465T378 412T398 337V337Z" />
<glyph unicode="&#x2026;" glyph-name="ellipsis" horiz-adv-x="992" d="M678 0L725 184H913L866 0H678ZM342 0L389 184H577L530 0H342ZM6 0L53 184H241L194 0H6Z" />
<glyph unicode="&#x2030;" glyph-name="perthousand" horiz-adv-x="1652" d="M1059 778L298 -96H129L889 778H1059ZM1063 118Q1036 9 964 -49T783 -108Q676 -108 630 -44T612 130Q639 240 710 298T891 356Q999 356 1044 292T1063 118V118ZM909 124Q922 177 911
204T864 232Q829 232 804 205T765 124Q752 71 763 44T810 16Q845 16 870 43T909 124V124ZM1577 118Q1550 9 1478 -49T1297 -108Q1190 -108 1144 -44T1126 130Q1153 240 1224 298T1405 356Q1513 356 1558 292T1577 118V118ZM1423 124Q1436 177 1425 204T1378 232Q1343
232 1318 205T1279 124Q1266 71 1277 44T1324 16Q1359 16 1384 43T1423 124V124ZM577 552Q550 443 478 385T297 326Q190 326 144 390T126 564Q153 674 224 732T405 790Q513 790 558 726T577 552V552ZM423 558Q436 611 425 638T378 666Q343 666 318 639T279 558Q266
505 277 478T324 450Q359 450 384 477T423 558V558Z" />
<glyph unicode="&#x2039;" glyph-name="guilsinglleft" horiz-adv-x="416" d="M162 30L68 292L279 538L401 472L256 277L305 90L162 30Z" />
<glyph unicode="&#x203a;" glyph-name="guilsinglright" horiz-adv-x="416" d="M275 538L369 276L158 30L36 96L181 291L132 478L275 538Z" />
<glyph unicode="&#x2044;" glyph-name="fraction" horiz-adv-x="416" d="M703 778L-58 -96H-227L533 778H703Z" />
<glyph unicode="&#x2070;" glyph-name="zero.superior" horiz-adv-x="544" d="M577 552Q550 443 478 385T297 326Q190 326 144 390T126 564Q153 674 224 732T405 790Q513 790 558 726T577 552V552ZM423 558Q436 611 425 638T378 666Q343 666 318 639T279 558Q266
505 277 478T324 450Q359 450 384 477T423 558V558Z" />
<glyph unicode="&#x2074;" glyph-name="four.superior" horiz-adv-x="545" d="M305 338L325 416H80L112 545L337 778H574L513 534H582L553 416H484L465 338H305ZM252 531Q279 533 303 533T354 534L373 610Q381 640 389 669H385L252 531Z" />
<glyph unicode="&#x2081;" glyph-name="uni2081" horiz-adv-x="390" d="M70 -96L139 183Q121 170 88 163T15 155L45 277Q95 277 135 295T195 344H340L232 -96H70Z" />
<glyph unicode="&#x2082;" glyph-name="uni2082" horiz-adv-x="543" d="M395 -96H-23L12 43Q101 80 155 104T240 146T281 176T297 204Q302 223 293 234T261 245Q239 245 225 235T206 206Q203 195 202 185T201 165H52Q51 172 52 184T56 210Q74 282 133 319T288
356Q390 356 437 315T466 198Q459 170 441 147T392 103T316 63T210 26L209 21Q290 24 348 24H425L395 -96Z" />
<glyph unicode="&#x2083;" glyph-name="uni2083" horiz-adv-x="543" d="M147 52Q145 22 158 8T200 -6Q222 -6 237 5T257 35Q263 58 249 69T200 80H153L176 172H217Q242 172 257 176T282 190T297 216Q302 233 293 244T263 255Q236 255 218 241T186 196L48 223Q75
288 136 322T286 356Q384 356 433 320T468 222Q459 188 431 165T361 132L360 129Q404 118 421 91T428 20Q412 -42 349 -75T181 -108Q81 -108 33 -70T-3 40L147 52Z" />
<glyph unicode="&#x2084;" glyph-name="uni2084" horiz-adv-x="545" d="M196 -96L216 -18H-29L3 111L228 344H465L404 100H473L444 -18H375L356 -96H196ZM143 97Q170 99 194 99T245 100L264 176Q272 206 280 235H276L143 97Z" />
<glyph unicode="&#x20ac;" glyph-name="Euro" horiz-adv-x="720" d="M462 202H288Q294 176 308 159T345 134T397 126Q437 126 481 145T558 194L631 80Q569 29 506 6T369 -18Q294 -18 237 8T146 83T105 202H12L40 312H110Q115 339 123 368H54L81 478H164Q200 551
252 600T374 675T528 700Q598 700 657 676T752 608L627 504Q608 530 576 544T505 558Q477 558 451 550T401 523T357 478H531L504 368H304Q296 341 290 312H490L462 202Z" />
<glyph unicode="&#x2113;" glyph-name="afii61289" horiz-adv-x="529" d="M222 -16Q153 -16 115 17T66 116L24 102L1 229L70 254Q79 311 94 370Q125 494 165 570T260 681T396 716Q460 716 498 689T546 611T540 493Q519 410 480 354T378 253T220 170Q221 141 232
129T269 117Q294 117 319 125T376 152L417 51Q373 20 321 2T222 -16V-16ZM379 501Q387 533 387 551T383 578T365 586Q344 586 327 563T292 490T255 365Q250 345 245 324Q282 345 308 369T350 424T379 501V501Z" />
<glyph unicode="&#x2122;" glyph-name="trademark" horiz-adv-x="1044" d="M518 682H727L737 522Q738 506 738 482T738 431H741Q754 456 767 481T790 522L881 682H1090L999 312H877L910 442Q929 519 935 543T948 588H944Q929 560 912 530T881 478L782 312H641L625
479Q620 536 619 554T616 588H612Q607 567 597 526T576 442L544 312H424L518 682ZM207 578H99L125 682H473L447 578H339L272 312H140L207 578Z" />
<glyph unicode="&#x2126;" glyph-name="Omega" horiz-adv-x="828" d="M-1 0L34 141H91Q122 141 184 139L185 141Q128 190 108 261T108 413Q130 500 187 565T330 665T515 700Q615 700 688 659T791 546T800 389Q780 310 733 251T603 141L602 139Q642 141 687 141H743L709
0H398L433 143Q515 194 558 245T619 364Q632 416 621 458T575 523T490 547Q440 547 395 525T317 460T271 364Q254 295 271 244T345 143L310 0H-1Z" />
<glyph unicode="&#x212e;" glyph-name="estimated" horiz-adv-x="946" d="M405 -18Q209 -18 115 79T61 339Q101 500 248 600T590 700Q734 700 824 647T937 499T915 284H308L287 202Q284 193 284 187T288 178Q312 153 352 140T447 127Q507 127 560 145T653 199H885Q816
100 686 41T405 -18V-18ZM691 411L709 480Q711 491 711 496T708 504Q685 528 645 541T551 555Q500 555 454 542T370 504Q366 501 364 497T357 480L339 411H691Z" />
<glyph unicode="&#x2202;" glyph-name="partialdiff" horiz-adv-x="635" d="M241 -16Q117 -16 61 58T36 256Q66 375 146 441T343 508Q390 508 426 493T479 449H480Q477 460 474 485T467 523T455 548Q440 568 419 576T364 585Q299 585 236 568L259 700Q320 715
397 715Q550 715 602 618T606 327Q563 153 474 69T241 -16V-16ZM270 115Q317 115 352 150T402 247Q418 308 400 343T335 378Q289 378 254 343T203 246Q188 184 205 150T270 115V115Z" />
<glyph unicode="&#x2206;" glyph-name="increment" horiz-adv-x="697" d="M190 141H454L427 405Q424 432 423 462T420 529H418Q401 494 385 464T351 405L190 141ZM606 0H-28L3 127L349 682H570L636 131L606 0Z" />
<glyph unicode="&#x220f;" glyph-name="product" horiz-adv-x="870" d="M468 -180L672 633H394L190 -180H16L220 633H100L137 780H1003L966 633H846L642 -180H468Z" />
<glyph unicode="&#x2211;" glyph-name="summation" horiz-adv-x="708" d="M-22 -34L311 315L159 650L191 778H765L730 638H569Q529 638 474 638T381 640L532 309L194 -40Q288 -39 332 -39T412 -38H584L548 -181H-59L-22 -34Z" />
<glyph unicode="&#x2212;" glyph-name="minus" horiz-adv-x="650" d="M608 256H48L82 388H642L608 256Z" />
<glyph unicode="&#x2219;" glyph-name="middot" horiz-adv-x="320" d="M63 231L109 413H296L251 231H63Z" />
<glyph unicode="&#x221a;" glyph-name="radical" horiz-adv-x="718" d="M138 -96L113 211H9L43 344H281L284 253Q286 196 286 156T284 69H288Q302 101 326 148T384 258L668 778H859L350 -96H138Z" />
<glyph unicode="&#x221e;" glyph-name="infinity" horiz-adv-x="1038" d="M248 96Q179 96 131 126T66 210T64 328Q81 397 121 447T221 522T353 548Q421 548 472 519T566 426Q641 490 704 519T831 548Q900 548 948 518T1013 435T1015 318Q998 249 958 199T859 123T724
96Q655 96 604 125T512 217Q438 153 375 125T248 96V96ZM741 226Q766 226 787 238T824 272T846 322Q858 367 844 392T794 418Q760 418 722 397T625 322Q655 268 681 247T741 226V226ZM284 226Q318 226 356 247T453 322Q423 376 397 397T337 418Q313 418 292 407T256
373T232 322Q225 293 228 272T245 238T284 226V226Z" />
<glyph unicode="&#x222b;" glyph-name="integral'" horiz-adv-x="390" d="M-1 -193Q-27 -193 -52 -190T-96 -181L-65 -57Q-46 -61 -31 -63T-1 -65Q21 -65 31 -56T49 -19L215 644Q232 715 285 752T421 790Q447 790 473 787T516 778L485 652Q471 657 454 659T421
662Q401 662 388 651T368 615L203 -43Q182 -120 133 -156T-1 -193V-193Z" />
<glyph unicode="&#x2248;" glyph-name="approxequal" horiz-adv-x="650" d="M467 335Q439 335 414 341T351 366T298 389T265 394Q241 394 217 382T164 342L85 429Q104 452 127 471T175 505T227 526T278 534Q306 534 331 528T394 503T447 480T480 475Q504 475 527
487T581 527L660 440Q618 391 568 363T467 335V335ZM411 110Q383 110 358 116T295 141T242 164T209 169Q185 169 161 157T108 117L29 204Q48 227 71 246T119 280T171 301T222 309Q250 309 275 303T338 278T391 255T424 250Q448 250 471 262T525 302L604 215Q562
166 512 138T411 110V110Z" />
<glyph unicode="&#x2260;" glyph-name="notequal" horiz-adv-x="650" d="M43 21L140 152H32L66 283H236L293 361H85L119 492H390L478 615H641L550 492H659L625 361H452L396 283H606L572 152H300L205 21H43Z" />
<glyph unicode="&#x2264;" glyph-name="lessequal" horiz-adv-x="650" d="M574 158L85 359L122 507L711 707L670 541L437 467Q402 456 357 444T285 427L284 425Q306 421 347 409T417 385L613 310L574 158ZM535 0H-5L28 132H567L535 0Z" />
<glyph unicode="&#x2265;" glyph-name="greaterequal" horiz-adv-x="650" d="M171 707L660 506L623 358L34 158L75 324L308 398Q340 408 388 421T460 438L461 440Q437 446 395 458T328 480L132 555L171 707ZM535 0H-5L27 132H567L535 0Z" />
<glyph unicode="&#x22c5;" glyph-name="middot" horiz-adv-x="320" d="M63 231L109 413H296L251 231H63Z" />
<glyph unicode="&#x25ca;" glyph-name="lozenge" horiz-adv-x="664" d="M305 150Q321 174 364 226T472 354Q438 447 427 478T411 532H409Q390 505 346 451T242 328Q277 233 287 202T303 150H305ZM171 0L44 340L341 682H542L670 342L372 0H171Z" />
<glyph unicode="&#xf8ff;" glyph-name="uniF8FF" horiz-adv-x="828" d="M528 304H376V380H528V456H376V532H604V152H528V304ZM224 532H300V228H452V152H224V532ZM72 684H756V0H72V684ZM148 76H680V608H148V76Z" />
<glyph unicode="&#xfb01;" glyph-name="fi" horiz-adv-x="635" d="M15 0L109 376H47L78 500H139L157 574Q169 623 195 654T262 701T356 716Q384 716 412 713T461 705L424 580Q409 584 393 586T363 588Q349 588 339 584T322 570T311 546L299 500H391L359 376H269L175
0H15ZM486 552L525 702H686L649 552H486ZM350 0L475 500H635L510 0H350Z" />
<glyph unicode="&#xfb02;" glyph-name="fl" horiz-adv-x="635" d="M15 0L109 376H47L78 500H139L157 574Q169 623 195 654T262 701T356 716Q384 716 412 713T461 705L424 580Q409 584 393 586T363 588Q349 588 339 584T322 570T311 546L299 500H391L359 376H269L175
0H15ZM525 702H685L510 0H350L525 702Z" />
</font>
</defs>
</svg>
