<?xml version="1.0" standalone="no"?> <!DOCTYPE svg PUBLIC "-//W3C//DTD SVG 1.0//EN" "http://www.w3.org/TR/2001/REC-SVG-20010904/DTD/svg10.dtd" > <svg xmlns="http://www.w3.org/2000/svg" width="100%" height="100%">
<defs >
<font id="Volvo-Novum-SemiLight" horiz-adv-x="574" ><font-face
    font-family="Volvo Novum"
    units-per-em="1000"
    panose-1="2 11 4 3 4 5 2 6 2 4"
    ascent="980"
    descent="-220"
    alphabetic="0" />
<missing-glyph horiz-adv-x="1079" d="M154 -145H925V863H154V-145ZM95 -208Q83 -208 83 -197Q83 -195 83 -171T83 -106T83 -14T84 95T84 210T84 323Q84 375 84 438T84 567T84 695T83 805T83 884T83 916Q83 927 95 927H984Q996 927 996 916Q996 914 996 884T996
806T996 695T995 568T995 439T995 323Q995 269 995 211T995 95T995 -14T996 -106T996 -170T996 -197Q996 -208 984 -208H95ZM501 276Q501 301 508 320T531 358T586 404T644 453T670 495T679 544Q679 577 660 604T606 646T528 662Q483 662 447 645T392 598T373 528Q373
510 374 496T378 472H306Q302 483 301 496T299 525Q299 584 327 629T409 700T531 725Q598 725 649 702T729 639T757 547Q757 515 749 488T723 438T679 394T624 351T585 311T573 272L572 210H502L501 276ZM492 0V129H582V0H492Z" />
<glyph unicode="&#x0;" glyph-name="null" horiz-adv-x="0" />
<glyph unicode="&#xd;" glyph-name="CR" horiz-adv-x="255" />
<glyph unicode=" " glyph-name="space" horiz-adv-x="254" />
<glyph unicode="!" glyph-name="exclam" horiz-adv-x="350" d="M140 210L130 711H221L210 210H140ZM130 0V129H220V0H130Z" />
<glyph unicode="&quot;" glyph-name="quotedbl" horiz-adv-x="436" d="M284 449L275 730H354L345 449H284ZM90 449L81 730H161L152 449H90Z" />
<glyph unicode="#" glyph-name="numbersign" horiz-adv-x="700" d="M432 233L474 449H268L225 233H432ZM113 0L148 174H34V233H159L201 449H87V508H213L247 682H313L280 508H485L520 682H586L552 508H666V449H541L498 233H613V174H486L453 0H386L420 174H214L180 0H113Z" />
<glyph unicode="$" glyph-name="dollar" horiz-adv-x="664" d="M294 -101V13Q228 22 174 51T75 133L122 185Q166 132 223 103T343 74Q412 74 454 106T496 190Q496 220 482 242T436 280T313 318T180 365T120 424T100 508Q100 580 153 625T294 676V788H361V674Q419
665 461 644T545 583L501 527Q460 571 413 592T313 613Q249 613 213 586T176 512Q176 482 190 461T236 424T359 386T492 340T553 279T573 193Q573 117 513 67T361 11V-101H294Z" />
<glyph unicode="%" glyph-name="percent" horiz-adv-x="1100" d="M442 559Q442 452 394 391T259 330Q172 330 125 389T78 557Q78 664 126 725T262 786Q349 786 395 727T442 559ZM374 558Q374 641 345 685T260 730Q205 730 176 686T147 558Q147 475 176 431T260
386Q316 386 345 430T374 558ZM860 778L315 -96H240L784 778H860ZM1022 125Q1022 18 974 -43T839 -104Q752 -104 705 -45T658 123Q658 230 706 291T842 352Q929 352 975 293T1022 125ZM954 124Q954 207 925 251T840 296Q785 296 756 252T727 124Q727 41 756 -3T840
-48Q896 -48 925 -4T954 124Z" />
<glyph unicode="&amp;" glyph-name="ampersand" horiz-adv-x="764" d="M184 559Q184 522 202 490T264 414Q325 441 351 457T393 489T417 523T425 563Q425 608 392 635T304 663Q248 663 216 635T184 559ZM299 48Q425 48 504 127Q418 191 353 243T242 338Q180 304
154 269T127 188Q127 123 173 86T299 48ZM50 182Q50 247 84 295T197 383Q150 432 130 472T109 553Q109 606 132 644T201 704T308 725Q366 725 409 705T476 649T500 569Q500 539 490 513T460 465T409 423T310 371Q351 335 409 289T548 183Q576 230 590 288T604 413H676Q676
335 657 267T602 144L753 36L709 -20Q659 15 623 41T556 89Q506 39 440 13T296 -14Q186 -14 118 39T50 182Z" />
<glyph unicode="&apos;" glyph-name="quotesingle" horiz-adv-x="243" d="M90 449L81 730H162L153 449H90Z" />
<glyph unicode="(" glyph-name="parenleft" horiz-adv-x="312" d="M224 -171Q156 -65 119 62T82 322Q82 454 119 582T224 815H296Q227 705 192 580T156 323Q156 191 190 68T295 -171H224Z" />
<glyph unicode=")" glyph-name="parenright" horiz-adv-x="312" d="M88 815Q156 709 192 582T229 322Q229 234 212 147T164 -21T88 -171H16Q84 -61 120 64T156 321Q156 453 121 576T17 815H88Z" />
<glyph unicode="*" glyph-name="asterisk" horiz-adv-x="498" d="M274 558L437 621L458 556L289 510L399 375L344 335L249 481L153 335L98 375L208 510L40 556L61 621L223 558L215 733H283L274 558Z" />
<glyph unicode="+" glyph-name="plus" horiz-adv-x="650" d="M291 60V292H63V352H291V582H359V352H587V292H359V60H291Z" />
<glyph unicode="," glyph-name="comma" horiz-adv-x="256" d="M177 142V24Q177 -63 170 -99T143 -159T80 -208L53 -166Q86 -142 98 -126T114 -85T119 0H79V142H177Z" />
<glyph unicode="-" glyph-name="hyphen" horiz-adv-x="360" d="M39 237V309H321V237H39Z" />
<glyph unicode="." glyph-name="period" horiz-adv-x="256" d="M79 0V142H177V0H79Z" />
<glyph unicode="/" glyph-name="slash" horiz-adv-x="392" d="M-46 -164L339 778H411L26 -164H-46Z" />
<glyph unicode="0" glyph-name="zero" horiz-adv-x="678" d="M600 342Q600 229 568 149T477 27T338 -14Q253 -14 195 27T108 148T78 340Q78 453 110 533T200 655T340 696Q425 696 483 655T570 534T600 342ZM521 341Q521 486 476 559T339 632Q248 632 203 559T157
341Q157 196 202 124T339 51Q430 51 475 123T521 341Z" />
<glyph unicode="1" glyph-name="one" horiz-adv-x="437" d="M242 564Q211 535 166 522T58 508V570Q114 570 153 583T216 621T250 686H317V0H242V564Z" />
<glyph unicode="2" glyph-name="two" horiz-adv-x="621" d="M552 0H64V68Q147 136 207 186T311 275T380 343T422 396T443 443T449 493Q449 535 431 567T380 615T300 632Q257 632 225 615T175 568T157 501Q157 479 161 457T170 420H94Q87 435 84 455T80 498Q80
554 108 599T188 670T304 696Q373 696 423 672T501 602T528 497Q528 464 522 437T502 382T461 326T395 259T297 176T163 68V67Q271 68 381 68H552V0Z" />
<glyph unicode="3" glyph-name="three" horiz-adv-x="639" d="M123 209Q137 131 185 90T313 49Q388 49 430 86T473 185Q473 249 429 283T307 318H207V379H275Q334 379 368 390T426 424Q443 440 449 460T456 510Q456 566 415 599T308 633Q243 633 203 599T148 493L75
509Q98 604 156 650T311 696Q377 696 428 673T507 608T534 514Q534 456 503 416T411 354V353Q479 341 516 299T553 190Q553 132 522 85T437 12T311 -14Q201 -14 135 37T49 186L123 209Z" />
<glyph unicode="4" glyph-name="four" horiz-adv-x="633" d="M640 0V175H299V235L610 682H713V238H836V175H713V0H640ZM375 235Q420 236 483 237T640 238V367Q640 445 640 501T643 618H642L375 235V235Z" />
<glyph unicode="5" glyph-name="five" horiz-adv-x="612" d="M763 617H443L425 394H426Q447 423 488 439T578 456Q648 456 700 427T780 344T808 224Q808 154 777 100T690 16T563 -14Q477 -14 414 24T311 137L377 174Q408 112 454 81T564 50Q613 50 650 70T708
130T729 221Q729 273 709 312T652 372T568 393Q515 393 475 369T420 306H353L383 682H763V617Z" />
<glyph unicode="6" glyph-name="six" horiz-adv-x="636" d="M597 364Q522 364 480 322T437 209Q437 139 480 94T591 49Q663 49 705 95T747 214Q747 285 707 324T597 364ZM744 527Q719 582 682 607T589 633Q496 633 453 554T411 304Q431 361 482 393T603 426Q708
426 767 370T826 216Q826 117 760 52T590 -14Q468 -14 401 73T334 324Q334 503 401 599T592 696Q671 696 723 664T811 560L744 527Z" />
<glyph unicode="7" glyph-name="seven" horiz-adv-x="585" d="M180 0Q189 108 220 209T306 411T445 617H56V682H530V624Q446 521 390 419T301 214T260 0H180Z" />
<glyph unicode="8" glyph-name="eight" horiz-adv-x="656" d="M489 509Q489 566 446 599T328 633Q254 633 211 600T167 509Q167 450 210 417T328 384Q403 384 446 417T489 509ZM511 186Q511 250 462 286T327 323Q243 323 194 287T145 186Q145 122 194 86T328 49Q412
49 461 86T511 186ZM589 189Q589 129 556 83T464 11T326 -14Q248 -14 190 9T99 78T67 183Q67 245 102 289T203 356V357Q149 375 120 414T90 509Q90 562 119 605T204 672T330 696Q402 696 455 673T537 607T566 511Q566 459 537 419T453 359V357Q519 338 554 295T589
189Z" />
<glyph unicode="9" glyph-name="nine" horiz-adv-x="636" d="M552 318Q627 318 669 360T712 473Q712 543 669 588T558 633Q486 633 444 587T402 468Q402 396 441 357T552 318ZM396 159Q421 101 461 75T560 49Q653 49 696 128T738 377Q718 321 667 289T546 256Q440
256 382 312T323 466Q323 565 389 630T559 696Q681 696 748 609T815 358Q815 179 748 83T557 -14Q473 -14 418 20T328 126L396 159Z" />
<glyph unicode=":" glyph-name="colon" horiz-adv-x="294" d="M99 345V478H195V345H99ZM99 0V133H195V0H99Z" />
<glyph unicode=";" glyph-name="semicolon" horiz-adv-x="294" d="M99 345V478H195V345H99ZM195 133V24Q195 -65 188 -100T160 -159T97 -208L70 -165Q103 -142 115 -127T131 -85T136 0H99V133H195Z" />
<glyph unicode="&lt;" glyph-name="less" horiz-adv-x="650" d="M577 86L73 285V359L577 558V485Q383 408 296 375T153 324V322Q208 304 295 271T577 161V86Z" />
<glyph unicode="=" glyph-name="equal" horiz-adv-x="650" d="M577 385H73V445H577V385ZM577 199H73V259H577V199Z" />
<glyph unicode="&gt;" glyph-name="greater" horiz-adv-x="650" d="M73 558L577 359V285L73 86V159Q266 236 354 269T497 320V322Q442 340 355 373T73 483V558Z" />
<glyph unicode="?" glyph-name="question" horiz-adv-x="612" d="M279 276Q279 300 286 320T309 358T366 405T424 454T449 496T457 544Q457 577 438 604T384 647T306 662Q261 662 225 645T170 598T151 528Q151 510 152 496T156 472H84Q80 483 79 496T77 525Q77
584 105 629T187 700T309 725Q375 725 427 702T507 639T535 547Q535 513 526 484T496 430T433 375T378 331T358 303T351 272L350 210H280L279 276ZM270 0V129H360V0H270Z" />
<glyph unicode="@" glyph-name="at" horiz-adv-x="1033" d="M625 303Q625 369 598 399T513 430Q465 430 431 404T377 330T358 228Q358 162 384 131T464 100Q515 100 550 126T605 200T625 303ZM967 333Q967 247 940 180T861 77T740 41Q687 41 658 62T623 125H622Q594
84 552 63T456 41Q374 41 330 89T285 224Q285 297 313 359T394 454T515 488Q563 488 596 472T650 424H651L661 477H731L689 250Q678 195 680 162T697 115T745 100Q793 100 827 128T880 209T899 330Q899 427 856 503T732 621T546 663Q429 663 336 609T189 457T135
247Q135 136 181 49T312 -85T509 -133Q569 -133 629 -123T746 -93L757 -151Q697 -170 634 -180T506 -190Q378 -190 277 -135T121 18T66 241Q66 372 129 483T304 657T551 720Q672 720 767 670T914 532T967 333Z" />
<glyph unicode="A" glyph-name="A" horiz-adv-x="643" d="M317 609Q305 564 222 338L190 249H448L416 336Q330 568 318 609H317ZM361 682L625 0H540L470 189H168L100 0H18L282 682H361Z" />
<glyph unicode="B" glyph-name="B" horiz-adv-x="706" d="M110 682Q142 682 210 682T328 683Q440 683 493 669T581 621Q625 577 625 512Q625 454 597 414T509 352Q576 338 611 296T646 188Q646 121 615 80T520 19T350 -1Q224 -1 110 0V682ZM185 377H352Q426 377
460 386T517 419Q532 434 540 455T548 504Q548 549 518 578Q495 601 453 610T324 619Q231 619 185 618V377ZM185 64Q244 63 357 63Q437 63 481 75T546 115T568 186Q568 231 548 260T486 302T349 315H185V64Z" />
<glyph unicode="C" glyph-name="C" horiz-adv-x="690" d="M654 170Q621 80 551 33T381 -14Q289 -14 217 29T106 153T66 340Q66 446 106 526T220 651T380 696Q470 696 540 651T644 525L578 495Q552 559 499 594T378 630Q311 630 258 595T175 494T145 341Q145 253
175 188T259 88T383 53Q459 53 511 88T588 191L654 170Z" />
<glyph unicode="D" glyph-name="D" horiz-adv-x="726" d="M110 681Q178 682 306 682Q403 682 463 662T569 596Q614 551 637 488T660 343Q660 262 636 196T568 85Q523 40 463 20T306 0Q208 1 110 1V681ZM185 69Q244 66 308 66Q393 66 434 79T508 125Q545 161 563
215T581 340Q581 407 562 463T506 554Q471 589 428 603T303 617Q219 617 185 616V69Z" />
<glyph unicode="E" glyph-name="E" horiz-adv-x="645" d="M110 682H563V618H185V380H516V318H185V65H580V0H110V682Z" />
<glyph unicode="F" glyph-name="F" horiz-adv-x="598" d="M110 682H550V617H185V377H504V315H185V0H110V682Z" />
<glyph unicode="G" glyph-name="G" horiz-adv-x="755" d="M588 0V110H587Q557 52 501 19T373 -14Q284 -14 214 30T105 154T66 340Q66 442 105 523T217 650T381 696Q474 696 540 658T651 539L590 498Q554 566 502 598T374 631Q306 631 254 594T174 491T145 341Q145
253 174 187T257 86T378 51Q437 51 483 81T555 165T581 281V303H381V364H657V0H588Z" />
<glyph unicode="H" glyph-name="H" horiz-adv-x="754" d="M110 682H185V387H569V682H644V0H569V320H185V0H110V682Z" />
<glyph unicode="I" glyph-name="I" horiz-adv-x="295" d="M110 682H185V0H110V682Z" />
<glyph unicode="J" glyph-name="J" horiz-adv-x="530" d="M426 682V207Q426 101 371 44T224 -14Q184 -14 148 -3T84 33T38 99T14 203L89 218Q96 131 127 92T226 52Q287 52 319 90T351 208V682H426Z" />
<glyph unicode="K" glyph-name="K" horiz-adv-x="673" d="M652 682L385 422L671 0H579L332 370L185 227V0H110V682H185V319L552 682H652Z" />
<glyph unicode="L" glyph-name="L" horiz-adv-x="548" d="M110 682H185V65H537V0H110V682Z" />
<glyph unicode="M" glyph-name="M" horiz-adv-x="942" d="M110 682H231L377 338Q420 237 439 189T471 105H472Q484 141 503 189T566 338L712 682H832V0H757V240Q757 351 758 457T760 619H758Q740 574 719 524T666 399L499 0H439L270 400Q218 522 204 557T180 619H178Q179
563 179 457T180 240V0H110V682Z" />
<glyph unicode="N" glyph-name="N" horiz-adv-x="762" d="M559 0L307 393Q272 448 236 504T178 597H176Q178 539 179 431T180 236V0H110V682H209L456 301Q484 257 511 215T584 96H585Q584 154 583 262T582 457V682H652V0H559Z" />
<glyph unicode="O" glyph-name="O" horiz-adv-x="778" d="M712 342Q712 237 671 156T556 30T388 -14Q292 -14 219 30T106 154T66 340Q66 445 107 526T222 652T390 696Q486 696 559 652T672 528T712 342ZM632 341Q632 428 603 494T518 595T389 630Q316 630 261
596T175 495T145 341Q145 254 175 189T260 88T389 52Q463 52 518 87T602 188T632 341Z" />
<glyph unicode="P" glyph-name="P" horiz-adv-x="637" d="M110 682Q237 683 363 683Q452 683 510 660T596 592T625 479Q625 413 595 367T505 297T356 273Q250 273 185 274V0H110V682ZM546 478Q546 526 527 557T467 602T362 617Q239 617 185 616V339Q240 338 360
338Q424 338 465 353T526 399T546 478Z" />
<glyph unicode="Q" glyph-name="Q" horiz-adv-x="778" d="M712 342Q712 268 692 206T632 96L709 20L662 -27L585 50Q545 19 495 3T388 -14Q293 -14 220 29T106 153T66 340Q66 445 107 526T222 652T390 696Q485 696 558 653T672 529T712 342ZM482 247L580 148Q606
186 619 234T632 341Q632 428 603 493T518 594T389 630Q315 630 260 595T175 493T145 341Q145 255 174 189T259 88T389 52Q475 52 535 100L435 200L482 247Z" />
<glyph unicode="R" glyph-name="R" horiz-adv-x="691" d="M185 346Q212 345 249 345T353 344Q417 344 458 358T520 403T541 482Q541 528 522 558T462 602T360 617Q283 617 249 617T185 616V346ZM557 0L336 279H185V0H110V682Q128 682 222 682T363 683Q446 683
503 661T590 594T620 483Q620 402 570 351T425 286L654 0H557Z" />
<glyph unicode="S" glyph-name="S" horiz-adv-x="655" d="M106 168Q157 110 217 80T344 50Q394 50 432 65T490 109T510 174Q510 208 494 232T444 274T312 316T171 366T107 429T86 518Q86 571 114 611T195 674T313 696Q383 696 442 672T557 598L511 543Q467 589
418 610T311 632Q265 632 231 619T180 580T163 522Q163 490 178 467T227 426T358 384T500 334T566 270T587 178Q587 123 556 80T469 11T343 -14Q260 -14 190 18T60 114L106 168Z" />
<glyph unicode="T" glyph-name="T" horiz-adv-x="533" d="M229 616H-8V682H540V616H304V0H229V616Z" />
<glyph unicode="U" glyph-name="U" horiz-adv-x="730" d="M178 258Q178 190 200 144T263 75T366 52Q427 52 469 75T533 145T555 258V682H626V255Q626 171 596 110T507 18T364 -14Q279 -14 221 17T133 107T103 249V682H178V258Z" />
<glyph unicode="V" glyph-name="V" horiz-adv-x="631" d="M278 0L16 682H101L222 353Q283 187 297 149T318 86H319Q326 110 338 147T413 351L534 682H615L353 0H278Z" />
<glyph unicode="W" glyph-name="W" horiz-adv-x="1032" d="M249 0L35 682H119L213 362Q222 332 252 233T296 87H297Q307 121 325 179T382 362L483 682H550L655 362Q691 252 711 188T743 87H744Q755 126 783 223T823 361L917 682H997L783 0H698L550 448Q540 481
533 505T516 570H514Q509 551 502 525T478 448L334 0H249Z" />
<glyph unicode="X" glyph-name="X" horiz-adv-x="591" d="M250 359L32 682H124L297 419L473 682H559L342 364L587 0H496L295 304L91 0H4L250 359Z" />
<glyph unicode="Y" glyph-name="Y" horiz-adv-x="604" d="M264 0V292L0 682H91L304 362L517 682H604L340 292V0H264Z" />
<glyph unicode="Z" glyph-name="Z" horiz-adv-x="628" d="M582 0H46V68L479 617Q431 616 348 616T223 615H61V682H567V615L135 67Q185 67 264 67T380 68H582V0Z" />
<glyph unicode="[" glyph-name="bracketleft" horiz-adv-x="365" d="M333 -171H110V815H333V755H179V-111H333V-171Z" />
<glyph unicode="\" glyph-name="backslash" horiz-adv-x="392" d="M366 -164L-19 778H52L438 -164H366Z" />
<glyph unicode="]" glyph-name="bracketright" horiz-adv-x="365" d="M32 -171V-111H186V755H32V815H256V-171H32Z" />
<glyph unicode="^" glyph-name="asciicircum" horiz-adv-x="650" d="M478 351Q439 416 400 486T325 625H324Q291 561 251 490T169 351H83L286 682H364L567 351H478Z" />
<glyph unicode="_" glyph-name="underscore" horiz-adv-x="650" d="M650 -217H0V-157H650V-217Z" />
<glyph unicode="`" glyph-name="grave" horiz-adv-x="324" d="M254 551H187L70 692H169L254 551Z" />
<glyph unicode="a" glyph-name="a" horiz-adv-x="516" d="M50 129Q50 170 68 199T124 248T223 277T369 287V323Q369 376 340 404T256 432Q209 432 172 411T105 346L58 387Q96 438 146 464T259 491Q347 491 393 449T439 326V236Q439 178 439 134T442 0H374L372
71H371Q344 31 302 10T212 -12Q139 -12 95 26T50 129ZM369 232Q300 232 254 226T179 208T137 178T124 131Q124 90 151 68T227 46Q267 46 299 66T350 121T369 197V232V232Z" />
<glyph unicode="b" glyph-name="b" horiz-adv-x="580" d="M152 229Q152 176 171 135T224 70T305 47Q352 47 386 70T438 137T456 240Q456 297 437 341T382 408T301 431Q257 431 223 410T170 347T152 250V229ZM84 711H154V501Q154 441 150 407H151Q175 447 216 469T313
491Q378 491 427 461T503 373T530 242Q530 166 504 108T427 19T310 -12Q258 -12 218 9T151 69H150L146 0H77Q80 58 82 111T84 238V711Z" />
<glyph unicode="c" glyph-name="c" horiz-adv-x="515" d="M473 122Q441 52 391 20T269 -12Q201 -12 151 19T75 106T49 237Q49 314 75 371T152 459T267 491Q337 491 386 460T466 364L403 331Q382 382 348 406T266 431Q223 431 191 408T141 342T124 239Q124 182
141 139T192 72T271 48Q322 48 356 72T414 148L473 122Z" />
<glyph unicode="d" glyph-name="d" horiz-adv-x="580" d="M431 0L429 72H428Q405 30 364 9T267 -12Q200 -12 151 18T76 106T49 236Q49 313 76 370T153 459T270 491Q321 491 361 471T427 412H428Q426 446 426 501V711H496V237Q496 148 496 99T499 0H431ZM428 249Q428
303 409 345T354 409T275 431Q228 431 194 408T142 341T124 238Q124 182 142 139T196 71T279 47Q324 47 358 69T410 133T428 229V249Z" />
<glyph unicode="e" glyph-name="e" horiz-adv-x="529" d="M407 281Q407 323 390 358T341 412T269 432Q230 432 199 415T150 363T126 281H407ZM279 -12Q209 -12 157 18T77 105T49 238Q49 314 76 371T154 459T272 491Q336 491 383 463T456 384T482 276Q482 245 478
225H124Q124 171 144 131T201 69T282 47Q333 47 370 66T436 129L483 90Q445 36 396 12T279 -12Z" />
<glyph unicode="f" glyph-name="f" horiz-adv-x="312" d="M111 421H8V478H111V576Q111 623 125 653T169 700T239 716Q260 716 284 712T323 701V640Q307 647 283 651T242 656Q220 656 207 649T188 624T181 576V478H309V421H181V0H111V421Z" />
<glyph unicode="g" glyph-name="g" horiz-adv-x="581" d="M429 249Q429 302 410 344T356 408T276 431Q228 431 194 408T143 342T125 239Q125 183 143 140T197 72T280 48Q325 48 359 70T411 134T429 230V249ZM505 478Q501 442 500 383T498 241V-16Q498 -114 445
-165T288 -217Q215 -217 161 -189T67 -100L121 -59Q152 -109 194 -133T290 -157Q357 -157 392 -122T428 -21Q428 -6 428 24T430 71H428Q405 32 364 11T268 -11Q201 -11 152 19T77 106T50 237Q50 313 77 370T154 459T271 491Q322 491 362 470T430 409H431L435 478H505Z"
/>
<glyph unicode="h" glyph-name="h" horiz-adv-x="560" d="M84 711H154V501Q154 443 151 407H152Q176 447 216 469T308 491Q364 491 403 470T462 406T482 300V0H412V272Q412 316 409 337T396 376Q383 403 357 417T295 431Q268 431 244 422T203 396Q177 370 166
332T154 228V0H84V711Z" />
<glyph unicode="i" glyph-name="i" horiz-adv-x="238" d="M83 563V684H155V563H83V563ZM84 0V478H154V0H84Z" />
<glyph unicode="j" glyph-name="j" horiz-adv-x="248" d="M93 563V684H165V563H93ZM164 478V-31Q164 -99 152 -138T114 -196T38 -215Q25 -215 11 -214T-12 -210V-155H34Q58 -155 71 -143T89 -105T94 -31V478H164Z" />
<glyph unicode="k" glyph-name="k" horiz-adv-x="517" d="M84 711H154V255L397 478H495L307 311L512 0H423L254 265L154 176V0H84V711Z" />
<glyph unicode="l" glyph-name="l" horiz-adv-x="238" d="M84 711H154V0H84V711Z" />
<glyph unicode="m" glyph-name="m" horiz-adv-x="881" d="M733 0V272Q733 316 729 337T717 376Q703 403 678 417T617 431Q591 431 567 422T528 396Q502 370 490 332T478 228V0H408V272Q408 316 405 337T392 376Q379 403 354 417T293 431Q267 431 243 422T203 396Q177
370 166 332T154 228V0H84V241Q84 282 84 316T84 378T83 430T81 478H149L151 407H152Q175 447 215 469T306 491Q364 491 404 467T463 394Q492 443 534 467T631 491Q715 491 759 443T803 300V0H733Z" />
<glyph unicode="n" glyph-name="n" horiz-adv-x="560" d="M412 0V272Q412 316 409 337T396 376Q383 403 357 417T295 431Q268 431 244 422T203 396Q177 370 166 332T154 228V0H84V241Q84 282 84 316T84 378T83 430T81 478H149L151 407H152Q175 447 215 469T308
491Q394 491 438 443T482 300V0H412Z" />
<glyph unicode="o" glyph-name="o" horiz-adv-x="559" d="M510 240Q510 166 482 108T401 19T278 -12Q207 -12 156 18T77 106T49 238Q49 313 77 370T158 459T281 491Q352 491 403 460T482 372T510 240ZM435 239Q435 295 416 339T362 407T279 431Q232 431 197 407T143
338T124 239Q124 184 143 140T197 72T279 48Q327 48 362 72T416 140T435 239Z" />
<glyph unicode="p" glyph-name="p" horiz-adv-x="580" d="M84 -207V241Q84 300 84 359T81 478H149L151 407H152Q175 448 216 469T313 491Q378 491 427 461T503 373T530 242Q530 166 504 108T427 19T310 -12Q259 -12 219 8T153 67H152Q154 32 154 -22V-207H84ZM152
229Q152 175 171 134T225 70T305 47Q352 47 386 70T438 137T456 240Q456 297 437 341T382 408T301 431Q257 431 223 410T170 347T152 250V229Z" />
<glyph unicode="q" glyph-name="q" horiz-adv-x="580" d="M428 249Q428 302 409 344T355 408T275 431Q228 431 194 408T142 341T124 238Q124 182 142 139T196 71T279 47Q324 47 358 69T410 133T428 229V249ZM426 -207V-22Q426 38 429 71H428Q404 31 363 10T267
-12Q200 -12 151 18T76 106T49 236Q49 313 76 370T153 459T270 491Q321 491 361 470T429 409H430L433 478H503Q499 407 498 350T496 242V-207H426Z" />
<glyph unicode="r" glyph-name="r" horiz-adv-x="343" d="M84 0V241Q84 298 84 342T81 478H149L151 382H152Q181 434 223 462T312 490Q321 490 327 489V412H311Q280 412 254 402T208 371Q179 342 167 300T154 173V0H84Z" />
<glyph unicode="s" glyph-name="s" horiz-adv-x="487" d="M87 123Q123 86 166 67T254 47Q304 47 332 67T361 125Q361 146 351 161T318 188T227 215T128 249T81 295T66 361Q66 400 87 429T146 475T233 491Q284 491 330 474T415 423L374 374Q344 403 308 417T232
432Q203 432 182 424T149 401T137 364Q137 343 148 328T181 302T270 275T370 241T417 194T433 127Q433 86 411 55T347 6T253 -12Q194 -12 142 9T47 72L87 123Z" />
<glyph unicode="t" glyph-name="t" horiz-adv-x="346" d="M9 421V478H109V645L179 664V478H322V421H179V188Q179 137 180 116T185 83T198 63Q206 55 216 52T243 49Q264 49 286 53T322 65V5Q306 -3 281 -7T232 -12Q187 -12 160 4T121 52T109 136V421H9Z" />
<glyph unicode="u" glyph-name="u" horiz-adv-x="554" d="M405 0L403 72H402Q379 31 339 10T249 -12Q193 -12 155 10T97 74T77 178V478H147V206Q147 162 151 142T164 102Q177 76 202 62T260 47Q287 47 311 56T351 82Q377 108 388 146T400 250V478H470V236Q470
174 470 127T473 0H405Z" />
<glyph unicode="v" glyph-name="v" horiz-adv-x="487" d="M210 0L13 478H94L175 276Q190 236 209 183T246 79H247Q257 113 278 172T317 276L397 478H474L277 0H210Z" />
<glyph unicode="w" glyph-name="w" horiz-adv-x="818" d="M548 0L437 288Q428 313 420 336T405 382H403Q398 359 391 336T374 287L269 0H206L22 478H103L194 224Q205 194 217 159T240 90H241Q252 126 263 161T285 224L377 478H437L533 224Q546 189 559 154T582
90H583Q592 117 604 152T628 224L716 478H795L611 0H548Z" />
<glyph unicode="x" glyph-name="x" horiz-adv-x="465" d="M10 0L190 252L30 478H117L235 303L353 478H434L274 253L455 0H367L230 203L92 0H10Z" />
<glyph unicode="y" glyph-name="y" horiz-adv-x="487" d="M115 -207L211 -3L13 478H94L175 276Q190 236 209 183T246 79H247Q257 112 279 172T317 276L397 478H474L192 -207H115Z" />
<glyph unicode="z" glyph-name="z" horiz-adv-x="489" d="M442 0H47V61L346 420Q322 420 273 420T197 419H58V478H428V419L128 60Q155 60 211 60T301 61H442V0Z" />
<glyph unicode="{" glyph-name="braceleft" horiz-adv-x="398" d="M37 352H68Q99 352 114 362T136 398T143 478V636Q143 698 159 737T209 795T300 815H366V755H299Q263 755 245 744T220 708T212 635V481Q212 429 207 398T188 351T150 323V322Q175 311 188 295T206
248T212 167V10Q212 -39 220 -64T248 -100T301 -111H366V-171H298Q242 -171 209 -153T159 -95T143 6V164Q143 218 136 245T114 282T67 292H37V352Z" />
<glyph unicode="|" glyph-name="bar" horiz-adv-x="314" d="M122 -171V815H191V-171H122Z" />
<glyph unicode="}" glyph-name="braceright" horiz-adv-x="398" d="M32 -171V-111H99Q133 -111 151 -101T177 -66T186 8V163Q186 215 192 246T210 293T248 321V322Q223 333 211 349T192 396T186 477V634Q186 683 178 708T150 744T97 755H32V815H101Q156 815 189
797T239 740T256 638V480Q256 426 262 399T285 362T331 352H361V292H331Q299 292 284 282T262 246T256 166V8Q256 -56 239 -95T187 -152T99 -171H32Z" />
<glyph unicode="~" glyph-name="asciitilde" horiz-adv-x="650" d="M68 236Q68 299 83 341T128 403T203 424Q239 424 271 408T346 348T409 293T449 281Q475 281 489 294T509 335T516 408H582Q582 345 567 303T522 241T447 220Q411 220 379 236T303 296T241 352T201
363Q175 363 161 350T141 309T134 236H68Z" />
<glyph unicode="&#xa0;" glyph-name="space" horiz-adv-x="254" />
<glyph unicode="&#xa1;" glyph-name="exclamdown" horiz-adv-x="350" d="M211 405L221 -96H130L141 405H211ZM221 615V486H131V615H221Z" />
<glyph unicode="&#xa2;" glyph-name="cent" horiz-adv-x="566" d="M326 692V579Q379 571 419 542T488 461L425 427Q399 476 366 499T288 522Q223 522 185 474T147 341Q147 259 186 210T294 161Q347 161 380 184T436 259L494 230Q471 175 430 144T326 103V-10H261V102Q173
112 123 175T72 339Q72 441 123 505T261 580V692H326Z" />
<glyph unicode="&#xa3;" glyph-name="sterling" horiz-adv-x="650" d="M576 0H80V55Q144 102 169 137T194 216Q194 250 182 293H71V352H165Q148 404 142 438T135 501Q135 587 194 641T344 696Q421 696 474 659T559 548L494 514Q472 573 434 602T342 631Q282 631
247 597T212 503Q212 482 216 456T245 352H430V293H261Q271 248 271 220Q271 175 250 137T187 68V66Q329 68 413 68H576V0Z" />
<glyph unicode="&#xa4;" glyph-name="currency" horiz-adv-x="654" d="M454 322Q454 388 420 427T327 466Q266 466 233 427T199 322Q199 256 233 217T327 177Q387 177 420 217T454 322ZM523 325Q523 254 490 204L592 106L545 59L447 161Q396 122 325 122Q252 122
203 159L108 59L61 106L163 201Q130 248 130 319Q130 390 164 440L61 539L108 586L206 483Q259 521 329 521Q400 521 449 485L545 586L591 539L490 443Q523 395 523 325Z" />
<glyph unicode="&#xa5;" glyph-name="yen" horiz-adv-x="650" d="M289 0V91H121V148H289V237H121V294H289V332L26 682H121L232 527Q252 500 278 466T329 397Q348 422 370 452T424 527L533 682H624L361 332V294H529V236L361 237V148H529V91H361V0H289Z" />
<glyph unicode="&#xa6;" glyph-name="brokenbar" horiz-adv-x="314" d="M122 -171V218H191V-171H122ZM122 426V815H191V426H122Z" />
<glyph unicode="&#xa7;" glyph-name="section" horiz-adv-x="610" d="M484 255Q484 286 468 309T420 349T318 386T220 416Q181 395 162 368T143 305Q143 274 159 251T207 211T310 174T407 144Q446 167 465 194T484 255ZM70 298Q70 341 95 380T166 447Q139 467
125 496T110 561Q110 631 163 673T302 716Q360 716 409 698T500 644L457 588Q423 621 384 637T300 653Q246 653 216 630T185 567Q185 541 198 521T241 486T355 445T480 396T538 340T557 263Q557 220 532 181T462 114Q488 94 502 64T517 -1Q517 -70 463 -113T321
-156Q259 -156 202 -133T102 -68L146 -9Q181 -48 227 -69T323 -91Q381 -91 412 -69T443 -6Q443 20 430 40T387 75T272 116T147 165T89 221T70 298Z" />
<glyph unicode="&#xa8;" glyph-name="dieresis" horiz-adv-x="417" d="M265 567V680H336V567H265ZM81 567V680H152V567H81Z" />
<glyph unicode="&#xa9;" glyph-name="copyright" horiz-adv-x="879" d="M625 242Q599 187 551 157T443 126Q383 126 338 152T268 227T244 340Q244 405 268 454T337 530T443 557Q503 557 549 530T620 452L567 420Q549 458 516 478T441 499Q402 499 374 481T330
427T314 342Q314 296 330 260T375 204T444 184Q489 184 519 204T570 269L625 242ZM746 341Q746 433 708 507T601 621T441 662Q349 662 279 622T171 508T133 341Q133 248 171 175T278 60T439 19Q530 19 600 59T708 173T746 341ZM814 344Q814 235 766 148T632 11T438
-39Q329 -39 244 9T112 144T65 338Q65 446 113 534T247 671T442 721Q551 721 636 673T767 538T814 344Z" />
<glyph unicode="&#xaa;" glyph-name="ordfeminine" horiz-adv-x="498" d="M77 181V237H402V181H77ZM348 551Q285 551 242 546T174 529T136 502T124 459Q124 423 148 403T218 383Q255 383 284 401T331 451T348 519V551ZM410 454Q410 432 411 395T413 342H351L350
406Q325 370 287 351T205 331Q162 331 128 346T76 389T57 458Q57 495 73 521T125 565T215 592T348 602V634Q347 683 321 708T245 733Q204 733 171 714T109 654L65 692Q103 741 147 763T247 786Q327 786 368 748T410 637V454Z" />
<glyph unicode="&#xab;" glyph-name="guillemotleft" horiz-adv-x="644" d="M501 59L330 272L501 486L556 456L425 274L556 90L501 59ZM257 43L77 272L257 502L312 472L172 274L311 74L257 43Z" />
<glyph unicode="&#xac;" glyph-name="logicalnot" horiz-adv-x="650" d="M497 89V292H63V352H565V89H497Z" />
<glyph unicode="&#xad;" glyph-name="hyphen" horiz-adv-x="360" d="M39 237V309H321V237H39Z" />
<glyph unicode="&#xae;" glyph-name="registered" horiz-adv-x="709" d="M297 543Q319 542 360 542Q395 542 410 553T425 588Q425 605 419 613T399 626T362 630H297V543ZM426 389L354 497H297V389H244V675Q311 675 368 675Q406 675 431 665T468 636T481 591Q481
559 462 537T409 504L491 389H426ZM575 527Q575 590 547 642T468 725T354 755Q292 755 241 725T162 643T134 527Q134 462 163 410T242 328T354 299Q417 299 468 329T547 411T575 527ZM632 528Q632 452 596 388T495 287T353 250Q276 250 213 285T114 384T77 526Q77
602 113 666T214 767T356 804Q434 804 497 768T596 668T632 528Z" />
<glyph unicode="&#xaf;" glyph-name="overscore" horiz-adv-x="430" d="M349 588H81V647H349V588Z" />
<glyph unicode="&#xb0;" glyph-name="degree" horiz-adv-x="413" d="M357 602Q357 561 339 528T285 476T205 457Q163 457 129 474T76 525T56 600Q56 640 74 673T127 725T207 744Q251 744 285 726T338 675T357 602ZM292 601Q292 640 269 664T206 689Q166 689 144
665T121 601Q121 561 144 537T206 512Q246 512 269 536T292 601Z" />
<glyph unicode="&#xb1;" glyph-name="plusminus" horiz-adv-x="650" d="M577 0H73V60H577V0ZM291 184V404H73V464H291V682H359V464H577V404H359V184H291Z" />
<glyph unicode="&#xb2;" glyph-name="twosuperior" horiz-adv-x="502" d="M427 338H84V401Q161 449 210 483T289 545T330 596T341 647Q341 687 317 709T248 732Q204 732 180 712T156 654Q156 627 165 603H97Q87 621 87 653Q87 716 131 751T252 786Q327 786 370
749T413 649Q413 615 400 585T357 526T284 465T175 396V395Q224 396 298 396H427V338Z" />
<glyph unicode="&#xb3;" glyph-name="threesuperior" horiz-adv-x="499" d="M136 472Q152 384 256 384Q303 384 329 405T356 463Q356 501 331 518T254 536H188V588H236Q273 588 291 593T323 611Q341 629 341 664Q341 696 317 714T250 733Q207 733 182 714T149
654L84 668Q96 728 138 757T253 786Q326 786 369 754T412 668Q412 629 395 605T341 568V567Q428 546 428 460Q428 403 380 367T255 330Q175 330 129 361T70 457L136 472Z" />
<glyph unicode="&#xb4;" glyph-name="acute" horiz-adv-x="332" d="M159 692H257L141 551H75L159 692Z" />
<glyph unicode="&#xb5;" glyph-name="mu" horiz-adv-x="561" d="M84 -207V478H154V206Q154 162 157 142T170 102Q184 76 208 62T267 47Q293 47 317 56T358 82Q384 108 395 146T407 250V478H477V236Q477 174 477 127T480 0H411L410 72H409Q386 31 347 10T258 -12Q182
-12 151 34H150L154 -207H84Z" />
<glyph unicode="&#xb6;" glyph-name="paragraph" horiz-adv-x="700" d="M523 -207V620H412V-207H344V237H309Q229 237 172 264T84 342T53 462Q53 532 85 581T178 656T318 682Q348 682 383 682T445 681H590V-207H523Z" />
<glyph unicode="&#xb7;" glyph-name="middot" horiz-adv-x="255" d="M80 263V381H175V263H80Z" />
<glyph unicode="&#xb8;" glyph-name="cedilla" horiz-adv-x="286" d="M80 -207Q103 -188 118 -167T134 -129Q134 -115 124 -104T84 -78L129 1H193L162 -53Q184 -68 194 -85T205 -125Q205 -145 191 -167T154 -207H80Z" />
<glyph unicode="&#xb9;" glyph-name="onesuperior" horiz-adv-x="354" d="M189 338V678Q168 661 136 653T58 644V702Q122 702 156 721T198 780H257V338H189Z" />
<glyph unicode="&#xba;" glyph-name="ordmasculine" horiz-adv-x="532" d="M77 181V237H455V181H77ZM475 559Q475 492 450 440T377 359T265 330Q200 330 154 358T82 437T57 557Q57 624 82 676T156 757T267 786Q331 786 378 759T450 680T475 559ZM407 558Q407 609
390 649T340 710T266 732Q223 732 192 710T143 648T125 558Q125 508 142 468T192 406T266 384Q309 384 341 406T390 468T407 558Z" />
<glyph unicode="&#xbb;" glyph-name="guillemotright" horiz-adv-x="644" d="M143 486L314 273L143 59L88 89L219 271L88 455L143 486ZM388 503L567 273L387 44L333 73L472 271L333 471L388 503Z" />
<glyph unicode="&#xbc;" glyph-name="onequarter" horiz-adv-x="936" d="M189 338V678Q168 661 136 653T58 644V702Q122 702 156 721T198 780H257V338H189ZM744 778L199 -96H124L668 778H744ZM572 54Q609 55 660 56T736 57V175Q736 261 738 290H736L572 54V54ZM736
-96V0H505V60L703 344H803V57H883V0H803V-96H736Z" />
<glyph unicode="&#xbd;" glyph-name="onehalf" horiz-adv-x="980" d="M189 338V678Q168 661 136 653T58 644V702Q122 702 156 721T198 780H257V338H189ZM744 778L199 -96H124L668 778H744ZM905 -96H562V-33Q639 15 688 49T767 111T808 162T819 213Q819 253 795
275T726 298Q682 298 658 278T634 220Q634 193 643 169H575Q565 187 565 219Q565 282 609 317T730 352Q805 352 848 315T891 215Q891 181 878 151T835 92T762 31T653 -38V-39Q702 -38 776 -38H905V-96Z" />
<glyph unicode="&#xbe;" glyph-name="threequarters" horiz-adv-x="1060" d="M136 472Q152 384 256 384Q303 384 329 405T356 463Q356 501 331 518T254 536H188V588H236Q273 588 291 593T323 611Q341 629 341 664Q341 696 317 714T250 733Q207 733 182 714T149
654L84 668Q96 728 138 757T253 786Q326 786 369 754T412 668Q412 629 395 605T341 568V567Q428 546 428 460Q428 403 380 367T255 330Q175 330 129 361T70 457L136 472ZM869 778L324 -96H249L793 778H869ZM697 54Q734 55 785 56T861 57V175Q861 261 863 290H861L697
54V54ZM861 -96V0H630V60L828 344H928V57H1008V0H928V-96H861Z" />
<glyph unicode="&#xbf;" glyph-name="questiondown" horiz-adv-x="612" d="M333 339Q333 315 326 295T303 257T246 210T188 161T163 119T155 71Q155 38 174 11T228 -32T306 -47Q351 -47 387 -30T442 17T461 87Q461 105 460 119T456 143H528Q532 132 533 119T535
90Q535 31 507 -14T425 -85T303 -110Q237 -110 185 -87T105 -24T77 68Q77 102 86 131T116 185T179 240T234 284T254 312T261 343L262 405H332L333 339ZM342 615V486H252V615H342Z" />
<glyph unicode="&#xc0;" glyph-name="Agrave" horiz-adv-x="643" d="M317 609Q305 564 222 338L190 249H448L416 336Q330 568 318 609H317ZM361 682L625 0H540L470 189H168L100 0H18L282 682H361ZM369 749H296L170 881H276L369 749Z" />
<glyph unicode="&#xc1;" glyph-name="Aacute" horiz-adv-x="643" d="M317 609Q305 564 222 338L190 249H448L416 336Q330 568 318 609H317ZM361 682L625 0H540L470 189H168L100 0H18L282 682H361ZM365 881H471L344 749H272L365 881Z" />
<glyph unicode="&#xc2;" glyph-name="Acircumflex" horiz-adv-x="643" d="M317 609Q305 564 222 338L190 249H448L416 336Q330 568 318 609H317ZM361 682L625 0H540L470 189H168L100 0H18L282 682H361ZM284 882H357L475 750H400L320 825L240 750H166L284 882Z" />
<glyph unicode="&#xc3;" glyph-name="Atilde" horiz-adv-x="643" d="M317 609Q305 564 222 338L190 249H448L416 336Q330 568 318 609H317ZM361 682L625 0H540L470 189H168L100 0H18L282 682H361ZM250 817Q232 817 222 800T211 755H152Q152 793 164 821T198 863T253
878Q274 878 294 870T339 841T374 816T392 811Q410 811 420 828T431 873H490Q490 836 478 808T444 765T389 750Q368 750 348 758T302 787T267 812T250 817Z" />
<glyph unicode="&#xc4;" glyph-name="Adieresis" horiz-adv-x="643" d="M317 609Q305 564 222 338L190 249H448L416 336Q330 568 318 609H317ZM361 682L625 0H540L470 189H168L100 0H18L282 682H361ZM395 761V873H470V761H395ZM172 761V873H247V761H172Z" />
<glyph unicode="&#xc5;" glyph-name="Aring" horiz-adv-x="643" d="M317 609Q305 564 222 338L190 249H448L416 336Q330 568 318 609H317ZM361 682L625 0H540L470 189H168L100 0H18L282 682H361ZM367 834Q367 854 355 868T321 882Q299 882 288 869T276 834Q276
814 287 801T321 787Q343 787 355 800T367 834ZM424 835Q424 795 396 768T320 740Q272 740 246 766T219 834Q219 873 246 900T322 928Q371 928 397 902T424 835Z" />
<glyph unicode="&#xc6;" glyph-name="AE" horiz-adv-x="969" d="M190 248H456V618H375L190 248ZM887 682V618H531V380H840V318H531V65H904V0H456V186H160L67 0H-17L331 682H887Z" />
<glyph unicode="&#xc7;" glyph-name="Ccedilla" horiz-adv-x="690" d="M654 170Q621 80 551 33T381 -14Q289 -14 217 29T106 153T66 340Q66 446 106 526T220 651T380 696Q470 696 540 651T644 525L578 495Q552 559 499 594T378 630Q311 630 258 595T175 494T145
341Q145 253 175 188T259 88T383 53Q459 53 511 88T588 191L654 170ZM295 -207Q351 -158 351 -129Q351 -115 338 -102T300 -79L345 1H412L381 -53Q404 -69 414 -86T425 -125Q425 -144 409 -168T373 -207H295Z" />
<glyph unicode="&#xc8;" glyph-name="Egrave" horiz-adv-x="645" d="M110 682H563V618H185V380H516V318H185V65H580V0H110V682ZM385 749H312L186 881H292L385 749Z" />
<glyph unicode="&#xc9;" glyph-name="Eacute" horiz-adv-x="645" d="M110 682H563V618H185V380H516V318H185V65H580V0H110V682ZM375 881H481L354 749H282L375 881Z" />
<glyph unicode="&#xca;" glyph-name="Ecircumflex" horiz-adv-x="645" d="M110 682H563V618H185V380H516V318H185V65H580V0H110V682ZM300 882H373L491 750H416L336 825L256 750H182L300 882Z" />
<glyph unicode="&#xcb;" glyph-name="Edieresis" horiz-adv-x="645" d="M110 682H563V618H185V380H516V318H185V65H580V0H110V682ZM411 761V873H486V761H411ZM188 761V873H263V761H188Z" />
<glyph unicode="&#xcc;" glyph-name="Igrave" horiz-adv-x="295" d="M110 682H185V0H110V682ZM452 749H379L253 881H359L452 749Z" />
<glyph unicode="&#xcd;" glyph-name="Iacute" horiz-adv-x="295" d="M110 682H185V0H110V682ZM192 881H298L171 749H99L192 881Z" />
<glyph unicode="&#xce;" glyph-name="Icircumflex" horiz-adv-x="295" d="M110 682H185V0H110V682ZM367 882H440L558 750H483L403 825L323 750H249L367 882Z" />
<glyph unicode="&#xcf;" glyph-name="Idieresis" horiz-adv-x="295" d="M110 682H185V0H110V682ZM477 761V873H552V761H477ZM254 761V873H329V761H254Z" />
<glyph unicode="&#xd0;" glyph-name="Eth" horiz-adv-x="741" d="M124 319H11V380H124V681Q193 682 321 682Q417 682 477 662T584 596Q629 551 652 488T675 343Q675 262 651 196T583 85Q537 40 477 20T320 0Q222 1 124 1V319ZM199 69Q259 66 322 66Q406 66 448
79T522 124Q559 161 577 215T595 340Q595 407 576 463T520 555Q486 590 443 604T318 618Q233 618 199 617V380H403V319H199V69Z" />
<glyph unicode="&#xd1;" glyph-name="Ntilde" horiz-adv-x="762" d="M559 0L307 393Q272 448 236 504T178 597H176Q178 539 179 431T180 236V0H110V682H209L456 301Q484 257 511 215T584 96H585Q584 154 583 262T582 457V682H652V0H559ZM310 817Q292 817 282 800T271
755H212Q212 793 224 821T258 863T313 878Q334 878 354 870T399 841T434 816T452 811Q470 811 480 828T491 873H550Q550 836 538 808T504 765T449 750Q428 750 408 758T362 787T327 812T310 817Z" />
<glyph unicode="&#xd2;" glyph-name="Ograve" horiz-adv-x="778" d="M712 342Q712 237 671 156T556 30T388 -14Q292 -14 219 30T106 154T66 340Q66 445 107 526T222 652T390 696Q486 696 559 652T672 528T712 342ZM632 341Q632 428 603 494T518 595T389 630Q316
630 261 596T175 495T145 341Q145 254 175 189T260 88T389 52Q463 52 518 87T602 188T632 341ZM437 749H364L238 881H344L437 749Z" />
<glyph unicode="&#xd3;" glyph-name="Oacute" horiz-adv-x="778" d="M712 342Q712 237 671 156T556 30T388 -14Q292 -14 219 30T106 154T66 340Q66 445 107 526T222 652T390 696Q486 696 559 652T672 528T712 342ZM632 341Q632 428 603 494T518 595T389 630Q316
630 261 596T175 495T145 341Q145 254 175 189T260 88T389 52Q463 52 518 87T602 188T632 341ZM433 881H539L412 749H340L433 881Z" />
<glyph unicode="&#xd4;" glyph-name="Ocircumflex" horiz-adv-x="778" d="M712 342Q712 237 671 156T556 30T388 -14Q292 -14 219 30T106 154T66 340Q66 445 107 526T222 652T390 696Q486 696 559 652T672 528T712 342ZM632 341Q632 428 603 494T518 595T389 630Q316
630 261 596T175 495T145 341Q145 254 175 189T260 88T389 52Q463 52 518 87T602 188T632 341ZM352 882H425L543 750H468L388 825L308 750H234L352 882Z" />
<glyph unicode="&#xd5;" glyph-name="Otilde" horiz-adv-x="778" d="M712 342Q712 237 671 156T556 30T388 -14Q292 -14 219 30T106 154T66 340Q66 445 107 526T222 652T390 696Q486 696 559 652T672 528T712 342ZM632 341Q632 428 603 494T518 595T389 630Q316
630 261 596T175 495T145 341Q145 254 175 189T260 88T389 52Q463 52 518 87T602 188T632 341ZM318 817Q300 817 290 800T279 755H220Q220 793 232 821T266 863T321 878Q342 878 362 870T407 841T442 816T460 811Q478 811 488 828T499 873H558Q558 836 546 808T512
765T457 750Q436 750 416 758T370 787T335 812T318 817Z" />
<glyph unicode="&#xd6;" glyph-name="Odieresis" horiz-adv-x="778" d="M712 342Q712 237 671 156T556 30T388 -14Q292 -14 219 30T106 154T66 340Q66 445 107 526T222 652T390 696Q486 696 559 652T672 528T712 342ZM632 341Q632 428 603 494T518 595T389 630Q316
630 261 596T175 495T145 341Q145 254 175 189T260 88T389 52Q463 52 518 87T602 188T632 341ZM463 761V873H538V761H463ZM240 761V873H315V761H240Z" />
<glyph unicode="&#xd7;" glyph-name="multiply" horiz-adv-x="650" d="M512 89L325 278L137 89L92 135L281 322L92 509L137 555L325 366L512 555L558 509L369 322L558 135L512 89Z" />
<glyph unicode="&#xd8;" glyph-name="Oslash" horiz-adv-x="778" d="M145 341Q145 290 155 245T187 164L551 568Q520 599 479 615T389 631Q314 631 259 595T174 493T145 341ZM633 341Q633 392 622 436T590 518L227 114Q257 83 298 68T389 52Q464 52 519 88T603
189T633 341ZM62 26L134 106Q101 152 84 211T66 340Q66 444 106 525T221 651T390 696Q452 696 504 677T599 622L668 699L715 656L643 575Q676 530 694 471T712 342Q712 238 672 157T557 31T388 -14Q326 -14 273 4T179 59L110 -17L62 26Z" />
<glyph unicode="&#xd9;" glyph-name="Ugrave" horiz-adv-x="730" d="M178 258Q178 190 200 144T263 75T366 52Q427 52 469 75T533 145T555 258V682H626V255Q626 171 596 110T507 18T364 -14Q279 -14 221 17T133 107T103 249V682H178V258ZM413 749H340L214 881H320L413
749Z" />
<glyph unicode="&#xda;" glyph-name="Uacute" horiz-adv-x="730" d="M178 258Q178 190 200 144T263 75T366 52Q427 52 469 75T533 145T555 258V682H626V255Q626 171 596 110T507 18T364 -14Q279 -14 221 17T133 107T103 249V682H178V258ZM409 881H515L388 749H316L409
881Z" />
<glyph unicode="&#xdb;" glyph-name="Ucircumflex" horiz-adv-x="730" d="M178 258Q178 190 200 144T263 75T366 52Q427 52 469 75T533 145T555 258V682H626V255Q626 171 596 110T507 18T364 -14Q279 -14 221 17T133 107T103 249V682H178V258ZM328 882H401L519
750H444L364 825L284 750H210L328 882Z" />
<glyph unicode="&#xdc;" glyph-name="Udieresis" horiz-adv-x="730" d="M178 258Q178 190 200 144T263 75T366 52Q427 52 469 75T533 145T555 258V682H626V255Q626 171 596 110T507 18T364 -14Q279 -14 221 17T133 107T103 249V682H178V258ZM439 761V873H514V761H439ZM216
761V873H291V761H216Z" />
<glyph unicode="&#xdd;" glyph-name="Yacute" horiz-adv-x="604" d="M264 0V292L0 682H91L304 362L517 682H604L340 292V0H264ZM346 881H452L325 749H253L346 881Z" />
<glyph unicode="&#xde;" glyph-name="Thorn" horiz-adv-x="637" d="M185 222Q240 221 360 221Q424 221 465 236T526 282T546 361Q546 409 527 440T467 486T362 501Q240 501 185 499V222ZM110 0V682H185V565Q191 565 251 565T363 566Q452 566 510 543T596 474T625
362Q625 296 595 250T505 180T356 156Q250 156 185 157V0H110Z" />
<glyph unicode="&#xdf;" glyph-name="germandbls" horiz-adv-x="569" d="M84 509Q84 577 108 623T178 692T289 716Q352 716 395 698T462 646T485 568Q485 541 477 520T453 482T402 444T356 413T340 391T334 365Q334 352 340 341T359 318T418 283T485 237T519 189T530
130Q530 87 511 55T455 6T372 -12Q340 -12 307 -3T248 23L275 80Q296 64 322 56T375 47Q402 47 420 56T448 83T457 127Q457 144 450 159T427 188T366 228T300 273T271 315T262 363Q262 387 269 406T292 442T343 479T390 513T407 538T413 566Q413 593 398 614T355
646T288 657Q243 657 213 641T169 592T154 508V0H84V509Z" />
<glyph unicode="&#xe0;" glyph-name="agrave" horiz-adv-x="516" d="M50 129Q50 170 68 199T124 248T223 277T369 287V323Q369 376 340 404T256 432Q209 432 172 411T105 346L58 387Q96 438 146 464T259 491Q347 491 393 449T439 326V236Q439 178 439 134T442
0H374L372 71H371Q344 31 302 10T212 -12Q139 -12 95 26T50 129ZM369 232Q300 232 254 226T179 208T137 178T124 131Q124 90 151 68T227 46Q267 46 299 66T350 121T369 197V232V232ZM306 551H239L122 692H221L306 551Z" />
<glyph unicode="&#xe1;" glyph-name="aacute" horiz-adv-x="516" d="M50 129Q50 170 68 199T124 248T223 277T369 287V323Q369 376 340 404T256 432Q209 432 172 411T105 346L58 387Q96 438 146 464T259 491Q347 491 393 449T439 326V236Q439 178 439 134T442
0H374L372 71H371Q344 31 302 10T212 -12Q139 -12 95 26T50 129ZM369 232Q300 232 254 226T179 208T137 178T124 131Q124 90 151 68T227 46Q267 46 299 66T350 121T369 197V232V232ZM302 692H400L284 551H218L302 692Z" />
<glyph unicode="&#xe2;" glyph-name="acircumflex" horiz-adv-x="516" d="M50 129Q50 170 68 199T124 248T223 277T369 287V323Q369 376 340 404T256 432Q209 432 172 411T105 346L58 387Q96 438 146 464T259 491Q347 491 393 449T439 326V236Q439 178 439 134T442
0H374L372 71H371Q344 31 302 10T212 -12Q139 -12 95 26T50 129ZM369 232Q300 232 254 226T179 208T137 178T124 131Q124 90 151 68T227 46Q267 46 299 66T350 121T369 197V232V232ZM219 692H305L404 551H335L260 641L186 551H119L219 692Z" />
<glyph unicode="&#xe3;" glyph-name="atilde" horiz-adv-x="516" d="M50 129Q50 170 68 199T124 248T223 277T369 287V323Q369 376 340 404T256 432Q209 432 172 411T105 346L58 387Q96 438 146 464T259 491Q347 491 393 449T439 326V236Q439 178 439 134T442
0H374L372 71H371Q344 31 302 10T212 -12Q139 -12 95 26T50 129ZM369 232Q300 232 254 226T179 208T137 178T124 131Q124 90 151 68T227 46Q267 46 299 66T350 121T369 197V232V232ZM200 624Q181 624 172 608T162 563H106Q106 600 117 627T149 668T202 682Q222
682 240 674T279 646T309 622T324 617Q342 617 351 633T361 678H418Q418 642 407 615T375 574T322 559Q302 559 284 567T244 595T215 619T200 624Z" />
<glyph unicode="&#xe4;" glyph-name="adieresis" horiz-adv-x="516" d="M50 129Q50 170 68 199T124 248T223 277T369 287V323Q369 376 340 404T256 432Q209 432 172 411T105 346L58 387Q96 438 146 464T259 491Q347 491 393 449T439 326V236Q439 178 439 134T442
0H374L372 71H371Q344 31 302 10T212 -12Q139 -12 95 26T50 129ZM369 232Q300 232 254 226T179 208T137 178T124 131Q124 90 151 68T227 46Q267 46 299 66T350 121T369 197V232V232ZM318 567V680H389V567H318ZM134 567V680H205V567H134Z" />
<glyph unicode="&#xe5;" glyph-name="aring" horiz-adv-x="516" d="M50 129Q50 170 68 199T124 248T223 277T369 287V323Q369 376 340 404T256 432Q209 432 172 411T105 346L58 387Q96 438 146 464T259 491Q347 491 393 449T439 326V236Q439 178 439 134T442 0H374L372
71H371Q344 31 302 10T212 -12Q139 -12 95 26T50 129ZM369 232Q300 232 254 226T179 208T137 178T124 131Q124 90 151 68T227 46Q267 46 299 66T350 121T369 197V232V232ZM307 641Q307 662 295 675T261 689Q239 689 228 676T216 641Q216 621 228 608T261 594Q283
594 295 607T307 641ZM364 642Q364 603 336 576T260 548Q211 548 185 574T159 641Q159 681 186 708T262 736Q311 736 337 710T364 642Z" />
<glyph unicode="&#xe6;" glyph-name="ae" horiz-adv-x="844" d="M227 46Q267 46 299 65T350 120T369 197V232Q300 232 254 226T179 208T137 178T124 131Q124 90 151 68T227 46ZM722 281Q722 324 704 359T655 413T585 432Q545 432 515 415T465 363T441 281H722ZM213
-12Q140 -12 95 26T50 129Q50 170 68 199T124 248T223 277T369 287V323Q368 377 340 404T256 432Q209 432 172 411T105 346L58 387Q96 438 146 464T259 491Q321 491 360 470T418 408Q446 448 489 469T588 491Q651 491 697 464T771 385T798 276Q798 245 794 225H439Q441
145 484 96T597 47Q648 47 685 66T751 129L799 90Q760 36 711 12T594 -12Q526 -12 478 16T400 102Q371 43 325 16T213 -12Z" />
<glyph unicode="&#xe7;" glyph-name="ccedilla" horiz-adv-x="515" d="M473 122Q441 52 391 20T269 -12Q201 -12 151 19T75 106T49 237Q49 314 75 371T152 459T267 491Q337 491 386 460T466 364L403 331Q382 382 348 406T266 431Q223 431 191 408T141 342T124
239Q124 182 141 139T192 72T271 48Q322 48 356 72T414 148L473 122ZM192 -207Q215 -188 230 -167T246 -129Q246 -115 236 -104T196 -78L241 1H305L274 -53Q296 -68 306 -85T317 -125Q317 -145 303 -167T266 -207H192Z" />
<glyph unicode="&#xe8;" glyph-name="egrave" horiz-adv-x="529" d="M407 281Q407 323 390 358T341 412T269 432Q230 432 199 415T150 363T126 281H407ZM279 -12Q209 -12 157 18T77 105T49 238Q49 314 76 371T154 459T272 491Q336 491 383 463T456 384T482 276Q482
245 478 225H124Q124 171 144 131T201 69T282 47Q333 47 370 66T436 129L483 90Q445 36 396 12T279 -12ZM308 551H241L124 692H223L308 551Z" />
<glyph unicode="&#xe9;" glyph-name="eacute" horiz-adv-x="529" d="M407 281Q407 323 390 358T341 412T269 432Q230 432 199 415T150 363T126 281H407ZM279 -12Q209 -12 157 18T77 105T49 238Q49 314 76 371T154 459T272 491Q336 491 383 463T456 384T482 276Q482
245 478 225H124Q124 171 144 131T201 69T282 47Q333 47 370 66T436 129L483 90Q445 36 396 12T279 -12ZM305 692H403L287 551H221L305 692Z" />
<glyph unicode="&#xea;" glyph-name="ecircumflex" horiz-adv-x="529" d="M407 281Q407 323 390 358T341 412T269 432Q230 432 199 415T150 363T126 281H407ZM279 -12Q209 -12 157 18T77 105T49 238Q49 314 76 371T154 459T272 491Q336 491 383 463T456 384T482
276Q482 245 478 225H124Q124 171 144 131T201 69T282 47Q333 47 370 66T436 129L483 90Q445 36 396 12T279 -12ZM222 692H308L407 551H338L263 641L189 551H122L222 692Z" />
<glyph unicode="&#xeb;" glyph-name="edieresis" horiz-adv-x="529" d="M407 281Q407 323 390 358T341 412T269 432Q230 432 199 415T150 363T126 281H407ZM279 -12Q209 -12 157 18T77 105T49 238Q49 314 76 371T154 459T272 491Q336 491 383 463T456 384T482
276Q482 245 478 225H124Q124 171 144 131T201 69T282 47Q333 47 370 66T436 129L483 90Q445 36 396 12T279 -12ZM321 567V680H392V567H321ZM137 567V680H208V567H137Z" />
<glyph unicode="&#xec;" glyph-name="igrave" horiz-adv-x="238" d="M84 0V478H154V0H84ZM419 551H352L235 692H334L419 551Z" />
<glyph unicode="&#xed;" glyph-name="iacute" horiz-adv-x="238" d="M84 0V478H154V0H84ZM159 692H257L141 551H75L159 692Z" />
<glyph unicode="&#xee;" glyph-name="icircumflex" horiz-adv-x="238" d="M84 0V478H154V0H84ZM332 692H418L517 551H448L373 641L299 551H232L332 692Z" />
<glyph unicode="&#xef;" glyph-name="idieresis" horiz-adv-x="238" d="M84 0V478H154V0H84ZM421 567V680H491V567H421ZM259 567V680H329V567H259Z" />
<glyph unicode="&#xf0;" glyph-name="eth" horiz-adv-x="563" d="M171 526L146 574L253 628Q210 661 154 692L226 725Q280 692 318 661L438 721L464 673L362 622Q411 572 444 516T495 398T512 268Q512 182 484 119T404 22T278 -12Q208 -12 157 18T77 105T49 238Q49
311 77 369T155 458T269 489Q321 489 362 468T426 408L428 409Q390 503 298 590L171 526ZM435 238Q435 294 416 337T361 405T279 429Q232 429 197 405T143 337T124 238Q124 182 143 139T198 72T279 48Q327 48 362 72T416 139T435 238Z" />
<glyph unicode="&#xf1;" glyph-name="ntilde" horiz-adv-x="560" d="M412 0V272Q412 316 409 337T396 376Q383 403 357 417T295 431Q268 431 244 422T203 396Q177 370 166 332T154 228V0H84V241Q84 282 84 316T84 378T83 430T81 478H149L151 407H152Q175 447 215
469T308 491Q394 491 438 443T482 300V0H412ZM218 624Q199 624 190 608T180 563H124Q124 600 135 627T167 668T220 682Q240 682 258 674T297 646T327 622T342 617Q360 617 369 633T379 678H436Q436 642 425 615T393 574T340 559Q320 559 302 567T262 595T233 619T218
624Z" />
<glyph unicode="&#xf2;" glyph-name="ograve" horiz-adv-x="559" d="M510 240Q510 166 482 108T401 19T278 -12Q207 -12 156 18T77 106T49 238Q49 313 77 370T158 459T281 491Q352 491 403 460T482 372T510 240ZM435 239Q435 295 416 339T362 407T279 431Q232
431 197 407T143 338T124 239Q124 184 143 140T197 72T279 48Q327 48 362 72T416 140T435 239ZM323 551H256L139 692H238L323 551Z" />
<glyph unicode="&#xf3;" glyph-name="oacute" horiz-adv-x="559" d="M510 240Q510 166 482 108T401 19T278 -12Q207 -12 156 18T77 106T49 238Q49 313 77 370T158 459T281 491Q352 491 403 460T482 372T510 240ZM435 239Q435 295 416 339T362 407T279 431Q232
431 197 407T143 338T124 239Q124 184 143 140T197 72T279 48Q327 48 362 72T416 140T435 239ZM320 692H418L302 551H236L320 692Z" />
<glyph unicode="&#xf4;" glyph-name="ocircumflex" horiz-adv-x="559" d="M510 240Q510 166 482 108T401 19T278 -12Q207 -12 156 18T77 106T49 238Q49 313 77 370T158 459T281 491Q352 491 403 460T482 372T510 240ZM435 239Q435 295 416 339T362 407T279 431Q232
431 197 407T143 338T124 239Q124 184 143 140T197 72T279 48Q327 48 362 72T416 140T435 239ZM237 692H323L422 551H353L278 641L204 551H137L237 692Z" />
<glyph unicode="&#xf5;" glyph-name="otilde" horiz-adv-x="559" d="M510 240Q510 166 482 108T401 19T278 -12Q207 -12 156 18T77 106T49 238Q49 313 77 370T158 459T281 491Q352 491 403 460T482 372T510 240ZM435 239Q435 295 416 339T362 407T279 431Q232
431 197 407T143 338T124 239Q124 184 143 140T197 72T279 48Q327 48 362 72T416 140T435 239ZM218 624Q199 624 190 608T180 563H124Q124 600 135 627T167 668T220 682Q240 682 258 674T297 646T327 622T342 617Q360 617 369 633T379 678H436Q436 642 425 615T393
574T340 559Q320 559 302 567T262 595T233 619T218 624Z" />
<glyph unicode="&#xf6;" glyph-name="odieresis" horiz-adv-x="559" d="M510 240Q510 166 482 108T401 19T278 -12Q207 -12 156 18T77 106T49 238Q49 313 77 370T158 459T281 491Q352 491 403 460T482 372T510 240ZM435 239Q435 295 416 339T362 407T279 431Q232
431 197 407T143 338T124 239Q124 184 143 140T197 72T279 48Q327 48 362 72T416 140T435 239ZM336 567V680H407V567H336ZM152 567V680H223V567H152Z" />
<glyph unicode="&#xf7;" glyph-name="divide" horiz-adv-x="650" d="M279 463V589H371V463H279ZM587 292H63V352H587V292ZM279 55V181H371V55H279Z" />
<glyph unicode="&#xf8;" glyph-name="oslash" horiz-adv-x="559" d="M436 239Q436 270 431 296T413 345L180 86Q198 66 223 57T279 47Q327 47 362 71T417 139T436 239ZM123 239Q123 208 128 182T145 132L379 393Q360 411 335 421T279 431Q232 431 196 407T142
339T123 239ZM30 5L93 76Q71 107 60 148T49 238Q49 313 77 370T158 459T281 491Q324 491 360 479T425 444L487 512L529 473L465 402Q487 369 498 328T510 240Q510 166 482 108T401 19T278 -12Q234 -12 198 0T133 33L72 -34L30 5Z" />
<glyph unicode="&#xf9;" glyph-name="ugrave" horiz-adv-x="554" d="M405 0L403 72H402Q379 31 339 10T249 -12Q193 -12 155 10T97 74T77 178V478H147V206Q147 162 151 142T164 102Q177 76 202 62T260 47Q287 47 311 56T351 82Q377 108 388 146T400 250V478H470V236Q470
174 470 127T473 0H405ZM321 551H254L137 692H236L321 551Z" />
<glyph unicode="&#xfa;" glyph-name="uacute" horiz-adv-x="554" d="M405 0L403 72H402Q379 31 339 10T249 -12Q193 -12 155 10T97 74T77 178V478H147V206Q147 162 151 142T164 102Q177 76 202 62T260 47Q287 47 311 56T351 82Q377 108 388 146T400 250V478H470V236Q470
174 470 127T473 0H405ZM318 692H416L300 551H234L318 692Z" />
<glyph unicode="&#xfb;" glyph-name="ucircumflex" horiz-adv-x="554" d="M405 0L403 72H402Q379 31 339 10T249 -12Q193 -12 155 10T97 74T77 178V478H147V206Q147 162 151 142T164 102Q177 76 202 62T260 47Q287 47 311 56T351 82Q377 108 388 146T400 250V478H470V236Q470
174 470 127T473 0H405ZM235 692H321L420 551H351L276 641L202 551H135L235 692Z" />
<glyph unicode="&#xfc;" glyph-name="udieresis" horiz-adv-x="554" d="M405 0L403 72H402Q379 31 339 10T249 -12Q193 -12 155 10T97 74T77 178V478H147V206Q147 162 151 142T164 102Q177 76 202 62T260 47Q287 47 311 56T351 82Q377 108 388 146T400 250V478H470V236Q470
174 470 127T473 0H405ZM334 567V680H405V567H334ZM150 567V680H221V567H150Z" />
<glyph unicode="&#xfd;" glyph-name="yacute" horiz-adv-x="487" d="M115 -207L211 -3L13 478H94L175 276Q190 236 209 183T246 79H247Q257 112 279 172T317 276L397 478H474L192 -207H115ZM284 692H382L266 551H200L284 692Z" />
<glyph unicode="&#xfe;" glyph-name="thorn" horiz-adv-x="580" d="M84 711H154V501Q154 441 150 407H151Q175 447 216 469T313 491Q379 491 428 460T504 372T530 242Q530 166 504 108T427 19T310 -12Q259 -12 219 8T153 67H152Q154 32 154 -22V-207H84V711ZM152
229Q152 176 171 135T224 70T305 47Q352 47 386 70T438 137T456 240Q456 296 437 340T383 407T301 431Q257 431 223 410T170 347T152 250V229Z" />
<glyph unicode="&#xff;" glyph-name="ydieresis" horiz-adv-x="487" d="M115 -207L211 -3L13 478H94L175 276Q190 236 209 183T246 79H247Q257 112 279 172T317 276L397 478H474L192 -207H115ZM300 567V680H371V567H300ZM116 567V680H187V567H116Z" />
<glyph unicode="&#x100;" glyph-name="Amacron" horiz-adv-x="643" d="M317 609Q305 564 222 338L190 249H448L416 336Q330 568 318 609H317ZM361 682L625 0H540L470 189H168L100 0H18L282 682H361ZM469 781H172V843H469V781Z" />
<glyph unicode="&#x101;" glyph-name="amacron" horiz-adv-x="516" d="M50 129Q50 170 68 199T124 248T223 277T369 287V323Q369 376 340 404T256 432Q209 432 172 411T105 346L58 387Q96 438 146 464T259 491Q347 491 393 449T439 326V236Q439 178 439 134T442
0H374L372 71H371Q344 31 302 10T212 -12Q139 -12 95 26T50 129ZM369 232Q300 232 254 226T179 208T137 178T124 131Q124 90 151 68T227 46Q267 46 299 66T350 121T369 197V232V232ZM396 588H128V647H396V588Z" />
<glyph unicode="&#x102;" glyph-name="Abreve" horiz-adv-x="643" d="M317 609Q305 564 222 338L190 249H448L416 336Q330 568 318 609H317ZM361 682L625 0H540L470 189H168L100 0H18L282 682H361ZM467 884Q467 839 450 808T399 761T320 745Q274 745 242 760T192
807T175 884H237Q237 858 246 841T274 816T321 807Q349 807 368 816T395 842T404 884H467Z" />
<glyph unicode="&#x103;" glyph-name="abreve" horiz-adv-x="516" d="M50 129Q50 170 68 199T124 248T223 277T369 287V323Q369 376 340 404T256 432Q209 432 172 411T105 346L58 387Q96 438 146 464T259 491Q347 491 393 449T439 326V236Q439 178 439 134T442
0H374L372 71H371Q344 31 302 10T212 -12Q139 -12 95 26T50 129ZM369 232Q300 232 254 226T179 208T137 178T124 131Q124 90 151 68T227 46Q267 46 299 66T350 121T369 197V232V232ZM398 689Q398 646 383 616T338 570T260 554Q215 554 185 569T140 615T125 689H183Q183
665 191 648T217 621T261 612Q289 612 306 621T332 648T340 689H398Z" />
<glyph unicode="&#x104;" glyph-name="Aogonek" horiz-adv-x="643" d="M189 249H448L416 336Q330 568 318 609H317Q305 564 222 338L189 249ZM630 -206Q618 -210 602 -212T567 -214Q531 -214 509 -206T476 -181T466 -140Q466 -108 487 -72T549 0H540L470 189H168L100
0H18L282 682H361L625 0Q583 -40 562 -73T540 -131Q540 -145 548 -151T576 -157H630V-206Z" />
<glyph unicode="&#x105;" glyph-name="aogonek" horiz-adv-x="516" d="M373 71H372Q344 31 302 10T212 -12Q139 -12 95 26T50 129Q50 170 68 199T124 248T223 277T369 287V323Q369 376 340 404T256 432Q209 432 172 411T105 346L58 387Q96 438 146 464T259 491Q347
491 393 449T439 326V236Q439 110 439 72T442 0Q400 -44 381 -74T362 -133Q362 -148 371 -154T399 -160H450V-207Q438 -211 423 -212T393 -214Q357 -214 335 -206T303 -182T292 -140Q292 -109 310 -77T375 4L373 71ZM369 232Q300 232 254 226T179 208T137 178T124
131Q124 90 151 68T227 46Q267 46 299 65T350 120T369 197V232V232Z" />
<glyph unicode="&#x106;" glyph-name="Cacute" horiz-adv-x="690" d="M654 170Q621 80 551 33T381 -14Q289 -14 217 29T106 153T66 340Q66 446 106 526T220 651T380 696Q470 696 540 651T644 525L578 495Q552 559 499 594T378 630Q311 630 258 595T175 494T145
341Q145 253 175 188T259 88T383 53Q459 53 511 88T588 191L654 170ZM425 881H531L404 749H332L425 881Z" />
<glyph unicode="&#x107;" glyph-name="cacute" horiz-adv-x="515" d="M473 122Q441 52 391 20T269 -12Q201 -12 151 19T75 106T49 237Q49 314 75 371T152 459T267 491Q337 491 386 460T466 364L403 331Q382 382 348 406T266 431Q223 431 191 408T141 342T124 239Q124
182 141 139T192 72T271 48Q322 48 356 72T414 148L473 122ZM308 692H406L290 551H224L308 692Z" />
<glyph unicode="&#x108;" glyph-name="Ccircumflex" horiz-adv-x="690" d="M654 170Q621 80 551 33T381 -14Q289 -14 217 29T106 153T66 340Q66 446 106 526T220 651T380 696Q470 696 540 651T644 525L578 495Q552 559 499 594T378 630Q311 630 258 595T175 494T145
341Q145 253 175 188T259 88T383 53Q459 53 511 88T588 191L654 170ZM345 882H418L536 750H461L381 825L301 750H227L345 882Z" />
<glyph unicode="&#x109;" glyph-name="ccircumflex" horiz-adv-x="515" d="M473 122Q441 52 391 20T269 -12Q201 -12 151 19T75 106T49 237Q49 314 75 371T152 459T267 491Q337 491 386 460T466 364L403 331Q382 382 348 406T266 431Q223 431 191 408T141 342T124
239Q124 182 141 139T192 72T271 48Q322 48 356 72T414 148L473 122ZM225 692H311L410 551H341L266 641L192 551H125L225 692Z" />
<glyph unicode="&#x10a;" glyph-name="Cdotaccent" horiz-adv-x="690" d="M654 170Q621 80 551 33T381 -14Q289 -14 217 29T106 153T66 340Q66 446 106 526T220 651T380 696Q470 696 540 651T644 525L578 495Q552 559 499 594T378 630Q311 630 258 595T175 494T145
341Q145 253 175 188T259 88T383 53Q459 53 511 88T588 191L654 170ZM343 761V873H419V761H343Z" />
<glyph unicode="&#x10b;" glyph-name="cdotaccent" horiz-adv-x="515" d="M473 122Q441 52 391 20T269 -12Q201 -12 151 19T75 106T49 237Q49 314 75 371T152 459T267 491Q337 491 386 460T466 364L403 331Q382 382 348 406T266 431Q223 431 191 408T141 342T124
239Q124 182 141 139T192 72T271 48Q322 48 356 72T414 148L473 122ZM231 567V680H303V567H231Z" />
<glyph unicode="&#x10c;" glyph-name="Ccaron" horiz-adv-x="690" d="M654 170Q621 80 551 33T381 -14Q289 -14 217 29T106 153T66 340Q66 446 106 526T220 651T380 696Q470 696 540 651T644 525L578 495Q552 559 499 594T378 630Q311 630 258 595T175 494T145
341Q145 253 175 188T259 88T383 53Q459 53 511 88T588 191L654 170ZM419 750H344L227 882H301L382 807L462 882H536L419 750Z" />
<glyph unicode="&#x10d;" glyph-name="ccaron" horiz-adv-x="515" d="M473 122Q441 52 391 20T269 -12Q201 -12 151 19T75 106T49 237Q49 314 75 371T152 459T267 491Q337 491 386 460T466 364L403 331Q382 382 348 406T266 431Q223 431 191 408T141 342T124 239Q124
182 141 139T192 72T271 48Q322 48 356 72T414 148L473 122ZM310 551H224L125 692H194L269 602L343 692H410L310 551Z" />
<glyph unicode="&#x10e;" glyph-name="Dcaron" horiz-adv-x="726" d="M110 681Q178 682 306 682Q403 682 463 662T569 596Q614 551 637 488T660 343Q660 262 636 196T568 85Q523 40 463 20T306 0Q208 1 110 1V681ZM185 69Q244 66 308 66Q393 66 434 79T508 125Q545
161 563 215T581 340Q581 407 562 463T506 554Q471 589 428 603T303 617Q219 617 185 616V69ZM380 750H305L188 882H262L343 807L423 882H497L380 750Z" />
<glyph unicode="&#x10f;" glyph-name="dcaron" horiz-adv-x="597" d="M431 0L429 72H428Q405 30 364 9T267 -12Q200 -12 151 18T76 106T49 236Q49 313 76 370T153 459T270 491Q321 491 361 471T427 412H428Q426 446 426 501V711H496V237Q496 148 496 99T499 0H431ZM428
249Q428 303 409 345T354 409T275 431Q228 431 194 408T142 341T124 238Q124 182 142 139T196 71T279 47Q324 47 358 69T410 133T428 229V249ZM581 756H657L604 569H546L581 756Z" />
<glyph unicode="&#x110;" glyph-name="Dcroat" horiz-adv-x="741" d="M124 319H11V380H124V681Q193 682 321 682Q417 682 477 662T584 596Q629 551 652 488T675 343Q675 262 651 196T583 85Q537 40 477 20T320 0Q222 1 124 1V319ZM199 69Q259 66 322 66Q406 66
448 79T522 124Q559 161 577 215T595 340Q595 407 576 463T520 555Q486 590 443 604T318 618Q233 618 199 617V380H403V319H199V69Z" />
<glyph unicode="&#x111;" glyph-name="" horiz-adv-x="580" d="M428 249Q428 302 409 344T355 408T275 431Q228 431 194 408T142 341T124 238Q124 182 142 139T196 71T279 47Q324 47 358 69T410 133T428 229V249ZM431 0L429 72H428Q405 30 364 9T267 -12Q200 -12
151 18T76 106T49 236Q49 313 76 370T153 459T270 491Q321 491 361 471T427 412H428Q426 446 426 501V561H284V619H426V713H496V619H595V561H496V237Q496 148 496 99T499 0H431Z" />
<glyph unicode="&#x112;" glyph-name="Emacron" horiz-adv-x="645" d="M110 682H563V618H185V380H516V318H185V65H580V0H110V682ZM483 781H186V843H483V781Z" />
<glyph unicode="&#x113;" glyph-name="emacron" horiz-adv-x="529" d="M407 281Q407 323 390 358T341 412T269 432Q230 432 199 415T150 363T126 281H407ZM279 -12Q209 -12 157 18T77 105T49 238Q49 314 76 371T154 459T272 491Q336 491 383 463T456 384T482 276Q482
245 478 225H124Q124 171 144 131T201 69T282 47Q333 47 370 66T436 129L483 90Q445 36 396 12T279 -12ZM398 588H130V647H398V588Z" />
<glyph unicode="&#x114;" glyph-name="Ebreve" horiz-adv-x="645" d="M110 682H563V618H185V380H516V318H185V65H580V0H110V682ZM483 884Q483 839 466 808T415 761T336 745Q290 745 258 760T208 807T191 884H253Q253 858 262 841T290 816T337 807Q365 807 384
816T411 842T420 884H483Z" />
<glyph unicode="&#x115;" glyph-name="ebreve" horiz-adv-x="529" d="M407 281Q407 323 390 358T341 412T269 432Q230 432 199 415T150 363T126 281H407ZM279 -12Q209 -12 157 18T77 105T49 238Q49 314 76 371T154 459T272 491Q336 491 383 463T456 384T482 276Q482
245 478 225H124Q124 171 144 131T201 69T282 47Q333 47 370 66T436 129L483 90Q445 36 396 12T279 -12ZM401 689Q401 646 386 616T341 570T263 554Q218 554 188 569T143 615T128 689H186Q186 665 194 648T220 621T264 612Q292 612 309 621T335 648T343 689H401Z"
/>
<glyph unicode="&#x116;" glyph-name="Edotaccent" horiz-adv-x="645" d="M110 682H563V618H185V380H516V318H185V65H580V0H110V682ZM297 761V873H373V761H297Z" />
<glyph unicode="&#x117;" glyph-name="edotaccent" horiz-adv-x="529" d="M407 281Q407 323 390 358T341 412T269 432Q230 432 199 415T150 363T126 281H407ZM279 -12Q209 -12 157 18T77 105T49 238Q49 314 76 371T154 459T272 491Q336 491 383 463T456 384T482
276Q482 245 478 225H124Q124 171 144 131T201 69T282 47Q333 47 370 66T436 129L483 90Q445 36 396 12T279 -12ZM228 567V680H300V567H228Z" />
<glyph unicode="&#x118;" glyph-name="Eogonek" horiz-adv-x="645" d="M580 -206Q568 -210 552 -212T517 -214Q483 -214 461 -207T427 -183T416 -140Q416 -110 437 -74T499 0H110V682H563V618H185V380H516V318H185V65H580V3Q534 -42 512 -75T490 -131Q490 -145
498 -151T526 -157H580V-206Z" />
<glyph unicode="&#x119;" glyph-name="eogonek" horiz-adv-x="529" d="M269 432Q230 432 199 415T150 363T126 281H407Q407 322 390 357T341 412T269 432ZM451 -207Q439 -210 424 -212T394 -214Q358 -214 336 -206T304 -182T293 -140Q293 -108 311 -70T362 4Q324
-12 279 -12Q210 -12 158 18T78 105T49 238Q49 315 76 372T155 460T272 491Q336 491 383 463T456 384T482 276Q482 245 478 225H124Q124 171 145 131T202 69T282 47Q329 47 365 64T444 121L480 73Q442 28 416 -11T376 -80T363 -133Q363 -148 372 -154T400 -160H451V-207Z"
/>
<glyph unicode="&#x11a;" glyph-name="Ecaron" horiz-adv-x="645" d="M110 682H563V618H185V380H516V318H185V65H580V0H110V682ZM375 750H300L183 882H257L338 807L418 882H492L375 750Z" />
<glyph unicode="&#x11b;" glyph-name="ecaron" horiz-adv-x="529" d="M407 281Q407 323 390 358T341 412T269 432Q230 432 199 415T150 363T126 281H407ZM279 -12Q209 -12 157 18T77 105T49 238Q49 314 76 371T154 459T272 491Q336 491 383 463T456 384T482 276Q482
245 478 225H124Q124 171 144 131T201 69T282 47Q333 47 370 66T436 129L483 90Q445 36 396 12T279 -12ZM307 551H221L122 692H191L266 602L340 692H407L307 551Z" />
<glyph unicode="&#x11c;" glyph-name="Gcircumflex" horiz-adv-x="755" d="M588 0V110H587Q557 52 501 19T373 -14Q284 -14 214 30T105 154T66 340Q66 442 105 523T217 650T381 696Q474 696 540 658T651 539L590 498Q554 566 502 598T374 631Q306 631 254 594T174
491T145 341Q145 253 174 187T257 86T378 51Q437 51 483 81T555 165T581 281V303H381V364H657V0H588ZM344 882H417L535 750H460L380 825L300 750H226L344 882Z" />
<glyph unicode="&#x11d;" glyph-name="gcircumflex" horiz-adv-x="581" d="M429 249Q429 302 410 344T356 408T276 431Q228 431 194 408T143 342T125 239Q125 183 143 140T197 72T280 48Q325 48 359 70T411 134T429 230V249ZM505 478Q501 442 500 383T498 241V-16Q498
-114 445 -165T288 -217Q215 -217 161 -189T67 -100L121 -59Q152 -109 194 -133T290 -157Q357 -157 392 -122T428 -21Q428 -6 428 24T430 71H428Q405 32 364 11T268 -11Q201 -11 152 19T77 106T50 237Q50 313 77 370T154 459T271 491Q322 491 362 470T430 409H431L435
478H505ZM234 692H320L419 551H350L275 641L201 551H134L234 692Z" />
<glyph unicode="&#x11e;" glyph-name="Gbreve" horiz-adv-x="755" d="M588 0V110H587Q557 52 501 19T373 -14Q284 -14 214 30T105 154T66 340Q66 442 105 523T217 650T381 696Q474 696 540 658T651 539L590 498Q554 566 502 598T374 631Q306 631 254 594T174 491T145
341Q145 253 174 187T257 86T378 51Q437 51 483 81T555 165T581 281V303H381V364H657V0H588ZM526 884Q526 839 509 808T458 761T379 745Q333 745 301 760T251 807T234 884H296Q296 858 305 841T333 816T380 807Q408 807 427 816T454 842T463 884H526Z" />
<glyph unicode="&#x11f;" glyph-name="gbreve" horiz-adv-x="581" d="M429 249Q429 302 410 344T356 408T276 431Q228 431 194 408T143 342T125 239Q125 183 143 140T197 72T280 48Q325 48 359 70T411 134T429 230V249ZM505 478Q501 442 500 383T498 241V-16Q498
-114 445 -165T288 -217Q215 -217 161 -189T67 -100L121 -59Q152 -109 194 -133T290 -157Q357 -157 392 -122T428 -21Q428 -6 428 24T430 71H428Q405 32 364 11T268 -11Q201 -11 152 19T77 106T50 237Q50 313 77 370T154 459T271 491Q322 491 362 470T430 409H431L435
478H505ZM413 689Q413 646 398 616T353 570T275 554Q230 554 200 569T155 615T140 689H198Q198 665 206 648T232 621T276 612Q304 612 321 621T347 648T355 689H413Z" />
<glyph unicode="&#x120;" glyph-name="Gdotaccent" horiz-adv-x="755" d="M588 0V110H587Q557 52 501 19T373 -14Q284 -14 214 30T105 154T66 340Q66 442 105 523T217 650T381 696Q474 696 540 658T651 539L590 498Q554 566 502 598T374 631Q306 631 254 594T174
491T145 341Q145 253 174 187T257 86T378 51Q437 51 483 81T555 165T581 281V303H381V364H657V0H588ZM342 761V873H418V761H342Z" />
<glyph unicode="&#x121;" glyph-name="gdotaccent" horiz-adv-x="581" d="M429 249Q429 302 410 344T356 408T276 431Q228 431 194 408T143 342T125 239Q125 183 143 140T197 72T280 48Q325 48 359 70T411 134T429 230V249ZM505 478Q501 442 500 383T498 241V-16Q498
-114 445 -165T288 -217Q215 -217 161 -189T67 -100L121 -59Q152 -109 194 -133T290 -157Q357 -157 392 -122T428 -21Q428 -6 428 24T430 71H428Q405 32 364 11T268 -11Q201 -11 152 19T77 106T50 237Q50 313 77 370T154 459T271 491Q322 491 362 470T430 409H431L435
478H505ZM240 567V680H312V567H240Z" />
<glyph unicode="&#x122;" glyph-name="Gcommaaccent" horiz-adv-x="755" d="M588 0V110H587Q557 52 501 19T373 -14Q284 -14 214 30T105 154T66 340Q66 442 105 523T217 650T381 696Q474 696 540 658T651 539L590 498Q554 566 502 598T374 631Q306 631 254 594T174
491T145 341Q145 253 174 187T257 86T378 51Q437 51 483 81T555 165T581 281V303H381V364H657V0H588ZM415 -54V-128Q415 -167 393 -188T327 -210H309V-172H326Q344 -172 352 -163T360 -134H339V-54H415Z" />
<glyph unicode="&#x123;" glyph-name="gcommaaccent" horiz-adv-x="581" d="M429 249Q429 302 410 344T356 408T276 431Q228 431 194 408T143 342T125 239Q125 183 143 140T197 72T280 48Q325 48 359 70T411 134T429 230V249ZM505 478Q501 442 500 383T498 241V-16Q498
-114 445 -165T288 -217Q215 -217 161 -189T67 -100L121 -59Q152 -109 194 -133T290 -157Q357 -157 392 -122T428 -21Q428 -6 428 24T430 71H428Q405 32 364 11T268 -11Q201 -11 152 19T77 106T50 237Q50 313 77 370T154 459T271 491Q322 491 362 470T430 409H431L435
478H505ZM234 567V646Q234 682 253 705T319 729H337V691H318Q297 691 291 680T284 651H305V567H234Z" />
<glyph unicode="&#x124;" glyph-name="Hcircumflex" horiz-adv-x="754" d="M110 682H185V387H569V682H644V0H569V320H185V0H110V682ZM340 882H413L531 750H456L376 825L296 750H222L340 882Z" />
<glyph unicode="&#x125;" glyph-name="hcircumflex" horiz-adv-x="560" d="M84 711H154V501Q154 443 151 407H152Q176 447 216 469T308 491Q364 491 403 470T462 406T482 300V0H412V272Q412 316 409 337T396 376Q383 403 357 417T295 431Q268 431 244 422T203
396Q177 370 166 332T154 228V0H84V711ZM236 925H322L421 784H352L277 874L203 784H136L236 925Z" />
<glyph unicode="&#x126;" glyph-name="Hbar" horiz-adv-x="774" d="M579 374V502H195V374H579ZM120 502H11V565H120V682H195V565H579V682H654V565H763V502H654V0H579V308H195V0H120V502Z" />
<glyph unicode="&#x127;" glyph-name="hbar" horiz-adv-x="560" d="M84 561H-15V619H84V713H154V619H296V561H154V501Q154 443 151 407H152Q176 447 216 469T308 491Q364 491 403 470T462 406T482 300V0H412V272Q412 316 409 337T396 376Q383 403 357 417T295
431Q268 431 244 422T203 396Q177 370 166 332T154 228V0H84V561Z" />
<glyph unicode="&#x128;" glyph-name="Itilde" horiz-adv-x="295" d="M110 682H185V0H110V682ZM332 817Q314 817 304 800T293 755H234Q234 793 246 821T280 863T335 878Q356 878 376 870T421 841T456 816T474 811Q492 811 502 828T513 873H572Q572 836 560 808T526
765T471 750Q450 750 430 758T384 787T349 812T332 817Z" />
<glyph unicode="&#x129;" glyph-name="itilde" horiz-adv-x="238" d="M84 0V478H154V0H84ZM319 625Q306 625 299 609T292 563H237Q237 603 247 630T275 670T321 683Q340 683 357 675T392 646T417 621T430 617Q443 617 450 633T457 678H512Q512 638 502 612T474
572T428 559Q409 559 392 567T357 596T332 620T319 625Z" />
<glyph unicode="&#x12a;" glyph-name="Imacron" horiz-adv-x="295" d="M110 682H185V0H110V682ZM552 781H255V843H552V781Z" />
<glyph unicode="&#x12b;" glyph-name="imacron" horiz-adv-x="238" d="M84 0V478H154V0H84ZM509 588H241V647H509V588Z" />
<glyph unicode="&#x12c;" glyph-name="Ibreve" horiz-adv-x="295" d="M110 682H185V0H110V682ZM549 884Q549 839 532 808T481 761T402 745Q356 745 324 760T274 807T257 884H319Q319 858 328 841T356 816T403 807Q431 807 450 816T477 842T486 884H549Z" />
<glyph unicode="&#x12d;" glyph-name="ibreve" horiz-adv-x="238" d="M84 0V478H154V0H84ZM511 689Q511 646 496 616T451 570T373 554Q328 554 298 569T253 615T238 689H296Q296 665 304 648T330 621T374 612Q402 612 419 621T445 648T453 689H511Z" />
<glyph unicode="&#x12e;" glyph-name="Iogonek" horiz-adv-x="295" d="M208 -206Q196 -210 179 -212T147 -214Q110 -214 88 -206T55 -181T45 -140Q45 -113 61 -80T113 0H110V682H185V-1Q146 -58 132 -85T118 -131Q118 -146 126 -151T153 -157H208V-206Z" />
<glyph unicode="&#x12f;" glyph-name="iogonek" horiz-adv-x="238" d="M178 -207Q167 -210 151 -212T121 -214Q85 -214 63 -206T31 -182T20 -140Q20 -114 36 -81T88 0H84V478H154V0Q118 -56 104 -84T90 -133Q90 -148 99 -154T127 -160H178V-207ZM83 563V684H155V563H83Z" />
<glyph unicode="&#x130;" glyph-name="Idot" horiz-adv-x="295" d="M110 682H185V0H110V682ZM109 761V873H185V761H109Z" />
<glyph unicode="&#x131;" glyph-name="dotlessi" horiz-adv-x="238" d="M84 0V478H154V0H84Z" />
<glyph unicode="&#x132;" glyph-name="IJ" horiz-adv-x="825" d="M110 682H185V0H110V682ZM721 682V207Q721 101 666 44T519 -14Q479 -14 443 -3T379 33T333 99T309 203L384 218Q391 131 422 92T521 52Q582 52 614 90T646 208V682H721Z" />
<glyph unicode="&#x133;" glyph-name="ij" horiz-adv-x="502" d="M83 563V684H155V563H83V563ZM84 0V478H154V0H84ZM348 563V684H420V563H348ZM419 478V-31Q419 -99 407 -138T369 -196T293 -215Q280 -215 266 -214T243 -210V-155H289Q313 -155 326 -143T344 -105T349
-31V478H419Z" />
<glyph unicode="&#x134;" glyph-name="Jcircumflex" horiz-adv-x="530" d="M426 682V207Q426 101 371 44T224 -14Q184 -14 148 -3T84 33T38 99T14 203L89 218Q96 131 127 92T226 52Q287 52 319 90T351 208V682H426ZM345 882H418L536 750H461L381 825L301 750H227L345
882Z" />
<glyph unicode="&#x135;" glyph-name="jcircumflex" horiz-adv-x="248" d="M164 478V-31Q164 -99 152 -138T114 -196T38 -215Q25 -215 11 -214T-12 -210V-155H34Q58 -155 71 -143T89 -105T94 -31V478H164ZM342 692H428L527 551H458L383 641L309 551H242L342 692Z" />
<glyph unicode="&#x136;" glyph-name="Kcommaaccent" horiz-adv-x="673" d="M652 682L385 422L671 0H579L332 370L185 227V0H110V682H185V319L552 682H652ZM400 -54V-128Q400 -167 378 -188T312 -210H294V-172H311Q329 -172 337 -163T345 -134H324V-54H400Z" />
<glyph unicode="&#x137;" glyph-name="kcommaaccent" horiz-adv-x="517" d="M84 711H154V255L397 478H495L307 311L512 0H423L254 265L154 176V0H84V711ZM312 -54V-127Q312 -163 293 -186T227 -210H209V-172H229Q249 -172 255 -161T262 -132H241V-54H312Z" />
<glyph unicode="&#x138;" glyph-name="kgreenlandic" horiz-adv-x="517" d="M84 478H154V236L405 478H495L306 299L512 0H423L255 252L154 156V0H84V478Z" />
<glyph unicode="&#x139;" glyph-name="Lacute" horiz-adv-x="548" d="M110 682H185V65H537V0H110V682ZM196 881H302L175 749H103L196 881Z" />
<glyph unicode="&#x13a;" glyph-name="lacute" horiz-adv-x="238" d="M84 711H154V0H84V711ZM159 925H257L141 784H75L159 925Z" />
<glyph unicode="&#x13b;" glyph-name="Lcommaaccent" horiz-adv-x="548" d="M110 682H185V65H537V0H110V682ZM356 -54V-128Q356 -167 334 -188T268 -210H250V-172H267Q285 -172 293 -163T301 -134H280V-54H356Z" />
<glyph unicode="&#x13c;" glyph-name="lcommaaccent" horiz-adv-x="238" d="M84 711H154V0H84V711ZM410 -54V-127Q410 -163 391 -186T325 -210H307V-172H327Q347 -172 353 -161T360 -132H339V-54H410Z" />
<glyph unicode="&#x13d;" glyph-name="Lcaron" horiz-adv-x="548" d="M110 682H185V65H537V0H110V682ZM299 756H375L322 569H264L299 756Z" />
<glyph unicode="&#x13e;" glyph-name="lcaron" horiz-adv-x="255" d="M84 711H154V0H84V711ZM240 756H316L263 569H205L240 756Z" />
<glyph unicode="&#x13f;" glyph-name="Ldot" horiz-adv-x="548" d="M110 682H185V65H537V0H110V682ZM371 313V431H466V313H371Z" />
<glyph unicode="&#x140;" glyph-name="ldot" horiz-adv-x="340" d="M84 711H154V0H84V711ZM241 263V381H336V263H241Z" />
<glyph unicode="&#x141;" glyph-name="Lslash" horiz-adv-x="558" d="M390 382L195 296V65H547V0H120V263L11 215V280L120 328V682H195V361L390 448V382Z" />
<glyph unicode="&#x142;" glyph-name="lslash" horiz-adv-x="258" d="M94 0V313L10 259V328L94 380V711H164V423L247 477V409L164 356V0H94Z" />
<glyph unicode="&#x143;" glyph-name="Nacute" horiz-adv-x="762" d="M559 0L307 393Q272 448 236 504T178 597H176Q178 539 179 431T180 236V0H110V682H209L456 301Q484 257 511 215T584 96H585Q584 154 583 262T582 457V682H652V0H559ZM425 881H531L404 749H332L425
881Z" />
<glyph unicode="&#x144;" glyph-name="nacute" horiz-adv-x="560" d="M412 0V272Q412 316 409 337T396 376Q383 403 357 417T295 431Q268 431 244 422T203 396Q177 370 166 332T154 228V0H84V241Q84 282 84 316T84 378T83 430T81 478H149L151 407H152Q175 447
215 469T308 491Q394 491 438 443T482 300V0H412ZM320 692H418L302 551H236L320 692Z" />
<glyph unicode="&#x145;" glyph-name="Ncommaaccent" horiz-adv-x="762" d="M559 0L307 393Q272 448 236 504T178 597H176Q178 539 179 431T180 236V0H110V682H209L456 301Q484 257 511 215T584 96H585Q584 154 583 262T582 457V682H652V0H559ZM408 -54V-128Q408
-167 386 -188T320 -210H302V-172H319Q337 -172 345 -163T353 -134H332V-54H408Z" />
<glyph unicode="&#x146;" glyph-name="ncommaaccent" horiz-adv-x="560" d="M412 0V272Q412 316 409 337T396 376Q383 403 357 417T295 431Q268 431 244 422T203 396Q177 370 166 332T154 228V0H84V241Q84 282 84 316T84 378T83 430T81 478H149L151 407H152Q175
447 215 469T308 491Q394 491 438 443T482 300V0H412ZM317 -54V-127Q317 -163 298 -186T232 -210H214V-172H234Q254 -172 260 -161T267 -132H246V-54H317Z" />
<glyph unicode="&#x147;" glyph-name="Ncaron" horiz-adv-x="762" d="M559 0L307 393Q272 448 236 504T178 597H176Q178 539 179 431T180 236V0H110V682H209L456 301Q484 257 511 215T584 96H585Q584 154 583 262T582 457V682H652V0H559ZM419 750H344L227 882H301L382
807L462 882H536L419 750Z" />
<glyph unicode="&#x148;" glyph-name="ncaron" horiz-adv-x="560" d="M412 0V272Q412 316 409 337T396 376Q383 403 357 417T295 431Q268 431 244 422T203 396Q177 370 166 332T154 228V0H84V241Q84 282 84 316T84 378T83 430T81 478H149L151 407H152Q175 447
215 469T308 491Q394 491 438 443T482 300V0H412ZM332 551H246L147 692H216L291 602L365 692H432L332 551Z" />
<glyph unicode="&#x14a;" glyph-name="Eng" horiz-adv-x="762" d="M514 -94Q538 -94 552 -84T574 -52T581 2V4L315 392Q233 512 214 541T178 597H176Q178 539 179 431T180 236V0H110V682H207L448 330Q486 275 518 226T584 124H586Q584 205 583 293T582 457V682H652V0Q652
-58 638 -92T592 -143T512 -159Q486 -159 472 -154V-94H514Z" />
<glyph unicode="&#x14b;" glyph-name="eng" horiz-adv-x="560" d="M412 272Q412 316 409 337T396 376Q383 403 357 417T295 431Q268 431 244 422T203 396Q177 370 166 332T154 228V0H84V241Q84 298 84 342T81 478H149L151 407H152Q175 447 215 469T308 491Q394
491 438 443T482 300V-25Q482 -101 468 -139T422 -196T343 -215Q320 -215 306 -209V-155H339Q366 -155 382 -142T405 -103T412 -29V272Z" />
<glyph unicode="&#x14c;" glyph-name="Omacron" horiz-adv-x="778" d="M712 342Q712 237 671 156T556 30T388 -14Q292 -14 219 30T106 154T66 340Q66 445 107 526T222 652T390 696Q486 696 559 652T672 528T712 342ZM632 341Q632 428 603 494T518 595T389 630Q316
630 261 596T175 495T145 341Q145 254 175 189T260 88T389 52Q463 52 518 87T602 188T632 341ZM537 781H240V843H537V781Z" />
<glyph unicode="&#x14d;" glyph-name="omacron" horiz-adv-x="559" d="M510 240Q510 166 482 108T401 19T278 -12Q207 -12 156 18T77 106T49 238Q49 313 77 370T158 459T281 491Q352 491 403 460T482 372T510 240ZM435 239Q435 295 416 339T362 407T279 431Q232
431 197 407T143 338T124 239Q124 184 143 140T197 72T279 48Q327 48 362 72T416 140T435 239ZM413 588H145V647H413V588Z" />
<glyph unicode="&#x14e;" glyph-name="Obreve" horiz-adv-x="778" d="M712 342Q712 237 671 156T556 30T388 -14Q292 -14 219 30T106 154T66 340Q66 445 107 526T222 652T390 696Q486 696 559 652T672 528T712 342ZM632 341Q632 428 603 494T518 595T389 630Q316
630 261 596T175 495T145 341Q145 254 175 189T260 88T389 52Q463 52 518 87T602 188T632 341ZM535 884Q535 839 518 808T467 761T388 745Q342 745 310 760T260 807T243 884H305Q305 858 314 841T342 816T389 807Q417 807 436 816T463 842T472 884H535Z" />
<glyph unicode="&#x14f;" glyph-name="obreve" horiz-adv-x="559" d="M510 240Q510 166 482 108T401 19T278 -12Q207 -12 156 18T77 106T49 238Q49 313 77 370T158 459T281 491Q352 491 403 460T482 372T510 240ZM435 239Q435 295 416 339T362 407T279 431Q232
431 197 407T143 338T124 239Q124 184 143 140T197 72T279 48Q327 48 362 72T416 140T435 239ZM416 689Q416 646 401 616T356 570T278 554Q233 554 203 569T158 615T143 689H201Q201 665 209 648T235 621T279 612Q307 612 324 621T350 648T358 689H416Z" />
<glyph unicode="&#x150;" glyph-name="Ohungarumlaut" horiz-adv-x="778" d="M712 342Q712 237 671 156T556 30T388 -14Q292 -14 219 30T106 154T66 340Q66 445 107 526T222 652T390 696Q486 696 559 652T672 528T712 342ZM632 341Q632 428 603 494T518 595T389
630Q316 630 261 596T175 495T145 341Q145 254 175 189T260 88T389 52Q463 52 518 87T602 188T632 341ZM537 881H644L518 749H444L537 881ZM317 881H418L311 749H242L317 881Z" />
<glyph unicode="&#x151;" glyph-name="ohungarumlaut" horiz-adv-x="559" d="M510 240Q510 166 482 108T401 19T278 -12Q207 -12 156 18T77 106T49 238Q49 313 77 370T158 459T281 491Q352 491 403 460T482 372T510 240ZM435 239Q435 295 416 339T362 407T279
431Q232 431 197 407T143 338T124 239Q124 184 143 140T197 72T279 48Q327 48 362 72T416 140T435 239ZM411 692H510L393 551H326L411 692ZM220 692H312L217 551H153L220 692Z" />
<glyph unicode="&#x152;" glyph-name="OE" horiz-adv-x="1128" d="M614 341Q614 427 586 493T505 594T380 630Q308 630 255 595T174 493T145 341Q145 253 174 187T257 87T380 52Q452 52 505 87T586 189T614 341ZM380 696Q459 696 519 665T613 575H614V682H1046V617H689V380H999V318H689V66H1063V0H614V116H613Q579
54 518 20T378 -14Q286 -14 215 29T105 153T66 340Q66 444 105 525T216 651T380 696Z" />
<glyph unicode="&#x153;" glyph-name="oe" horiz-adv-x="912" d="M790 281Q790 323 773 358T724 412T652 432Q613 432 582 415T532 363T508 281H790ZM279 48Q326 48 361 71T415 138T435 239Q435 295 416 339T362 407T279 431Q232 431 197 407T143 338T124 239Q124
183 143 139T198 72T279 48ZM278 -12Q208 -12 157 17T77 104T49 238Q49 313 77 370T158 459T280 491Q349 491 397 461T471 372Q496 429 543 460T655 491Q719 491 766 463T839 384T865 276Q865 245 861 225H507Q507 173 526 133T582 70T665 47Q716 47 753 66T818
129L866 90Q828 36 779 12T661 -12Q592 -12 544 18T470 108Q444 50 395 19T278 -12Z" />
<glyph unicode="&#x154;" glyph-name="Racute" horiz-adv-x="691" d="M185 346Q212 345 249 345T353 344Q417 344 458 358T520 403T541 482Q541 528 522 558T462 602T360 617Q283 617 249 617T185 616V346ZM557 0L336 279H185V0H110V682Q128 682 222 682T363 683Q446
683 503 661T590 594T620 483Q620 402 570 351T425 286L654 0H557ZM391 881H497L370 749H298L391 881Z" />
<glyph unicode="&#x155;" glyph-name="racute" horiz-adv-x="343" d="M84 0V241Q84 298 84 342T81 478H149L151 382H152Q181 434 223 462T312 490Q321 490 327 489V412H311Q280 412 254 402T208 371Q179 342 167 300T154 173V0H84ZM240 692H338L222 551H156L240 692Z" />
<glyph unicode="&#x156;" glyph-name="Rcommaaccent" horiz-adv-x="691" d="M185 346Q212 345 249 345T353 344Q417 344 458 358T520 403T541 482Q541 528 522 558T462 602T360 617Q283 617 249 617T185 616V346ZM557 0L336 279H185V0H110V682Q128 682 222 682T363
683Q446 683 503 661T590 594T620 483Q620 402 570 351T425 286L654 0H557ZM400 -54V-128Q400 -167 378 -188T312 -210H294V-172H311Q329 -172 337 -163T345 -134H324V-54H400Z" />
<glyph unicode="&#x157;" glyph-name="rcommaaccent" horiz-adv-x="343" d="M84 0V241Q84 298 84 342T81 478H149L151 382H152Q181 434 223 462T312 490Q321 490 327 489V412H311Q280 412 254 402T208 371Q179 342 167 300T154 173V0H84ZM410 -54V-127Q410 -163
391 -186T325 -210H307V-172H327Q347 -172 353 -161T360 -132H339V-54H410Z" />
<glyph unicode="&#x158;" glyph-name="Rcaron" horiz-adv-x="691" d="M185 346Q212 345 249 345T353 344Q417 344 458 358T520 403T541 482Q541 528 522 558T462 602T360 617Q283 617 249 617T185 616V346ZM557 0L336 279H185V0H110V682Q128 682 222 682T363 683Q446
683 503 661T590 594T620 483Q620 402 570 351T425 286L654 0H557ZM385 750H310L193 882H267L348 807L428 882H502L385 750Z" />
<glyph unicode="&#x159;" glyph-name="rcaron" horiz-adv-x="343" d="M84 0V241Q84 298 84 342T81 478H149L151 382H152Q181 434 223 462T312 490Q321 490 327 489V412H311Q280 412 254 402T208 371Q179 342 167 300T154 173V0H84ZM500 551H414L315 692H384L459
602L533 692H600L500 551Z" />
<glyph unicode="&#x15a;" glyph-name="Sacute" horiz-adv-x="655" d="M106 168Q157 110 217 80T344 50Q394 50 432 65T490 109T510 174Q510 208 494 232T444 274T312 316T171 366T107 429T86 518Q86 571 114 611T195 674T313 696Q383 696 442 672T557 598L511
543Q467 589 418 610T311 632Q265 632 231 619T180 580T163 522Q163 490 178 467T227 426T358 384T500 334T566 270T587 178Q587 123 556 80T469 11T343 -14Q260 -14 190 18T60 114L106 168ZM362 881H468L341 749H269L362 881Z" />
<glyph unicode="&#x15b;" glyph-name="sacute" horiz-adv-x="487" d="M87 123Q123 86 166 67T254 47Q304 47 332 67T361 125Q361 146 351 161T318 188T227 215T128 249T81 295T66 361Q66 400 87 429T146 475T233 491Q284 491 330 474T415 423L374 374Q344 403
308 417T232 432Q203 432 182 424T149 401T137 364Q137 343 148 328T181 302T270 275T370 241T417 194T433 127Q433 86 411 55T347 6T253 -12Q194 -12 142 9T47 72L87 123ZM276 692H374L258 551H192L276 692Z" />
<glyph unicode="&#x15c;" glyph-name="Scircumflex" horiz-adv-x="655" d="M106 168Q157 110 217 80T344 50Q394 50 432 65T490 109T510 174Q510 208 494 232T444 274T312 316T171 366T107 429T86 518Q86 571 114 611T195 674T313 696Q383 696 442 672T557 598L511
543Q467 589 418 610T311 632Q265 632 231 619T180 580T163 522Q163 490 178 467T227 426T358 384T500 334T566 270T587 178Q587 123 556 80T469 11T343 -14Q260 -14 190 18T60 114L106 168ZM279 882H352L470 750H395L315 825L235 750H161L279 882Z" />
<glyph unicode="&#x15d;" glyph-name="scircumflex" horiz-adv-x="487" d="M87 123Q123 86 166 67T254 47Q304 47 332 67T361 125Q361 146 351 161T318 188T227 215T128 249T81 295T66 361Q66 400 87 429T146 475T233 491Q284 491 330 474T415 423L374 374Q344
403 308 417T232 432Q203 432 182 424T149 401T137 364Q137 343 148 328T181 302T270 275T370 241T417 194T433 127Q433 86 411 55T347 6T253 -12Q194 -12 142 9T47 72L87 123ZM193 692H279L378 551H309L234 641L160 551H93L193 692Z" />
<glyph unicode="&#x15e;" glyph-name="Scedilla" horiz-adv-x="655" d="M106 168Q157 110 217 80T344 50Q394 50 432 65T490 109T510 174Q510 208 494 232T444 274T312 316T171 366T107 429T86 518Q86 571 114 611T195 674T313 696Q383 696 442 672T557 598L511
543Q467 589 418 610T311 632Q265 632 231 619T180 580T163 522Q163 490 178 467T227 426T358 384T500 334T566 270T587 178Q587 123 556 80T469 11T343 -14Q260 -14 190 18T60 114L106 168ZM262 -207Q318 -158 318 -129Q318 -115 305 -102T267 -79L312 1H379L348
-53Q371 -69 381 -86T392 -125Q392 -144 376 -168T340 -207H262Z" />
<glyph unicode="&#x15f;" glyph-name="scedilla" horiz-adv-x="487" d="M87 123Q123 86 166 67T254 47Q304 47 332 67T361 125Q361 146 351 161T318 188T227 215T128 249T81 295T66 361Q66 400 87 429T146 475T233 491Q284 491 330 474T415 423L374 374Q344 403
308 417T232 432Q203 432 182 424T149 401T137 364Q137 343 148 328T181 302T270 275T370 241T417 194T433 127Q433 86 411 55T347 6T253 -12Q194 -12 142 9T47 72L87 123ZM176 -207Q199 -188 214 -167T230 -129Q230 -115 220 -104T180 -78L225 1H289L258 -53Q280
-68 290 -85T301 -125Q301 -145 287 -167T250 -207H176Z" />
<glyph unicode="&#x160;" glyph-name="Scaron" horiz-adv-x="655" d="M106 168Q157 110 217 80T344 50Q394 50 432 65T490 109T510 174Q510 208 494 232T444 274T312 316T171 366T107 429T86 518Q86 571 114 611T195 674T313 696Q383 696 442 672T557 598L511
543Q467 589 418 610T311 632Q265 632 231 619T180 580T163 522Q163 490 178 467T227 426T358 384T500 334T566 270T587 178Q587 123 556 80T469 11T343 -14Q260 -14 190 18T60 114L106 168ZM353 750H278L161 882H235L316 807L396 882H470L353 750Z" />
<glyph unicode="&#x161;" glyph-name="scaron" horiz-adv-x="487" d="M87 123Q123 86 166 67T254 47Q304 47 332 67T361 125Q361 146 351 161T318 188T227 215T128 249T81 295T66 361Q66 400 87 429T146 475T233 491Q284 491 330 474T415 423L374 374Q344 403
308 417T232 432Q203 432 182 424T149 401T137 364Q137 343 148 328T181 302T270 275T370 241T417 194T433 127Q433 86 411 55T347 6T253 -12Q194 -12 142 9T47 72L87 123ZM276 551H190L91 692H160L235 602L309 692H376L276 551Z" />
<glyph unicode="&#x162;" glyph-name="Tcommaaccent" horiz-adv-x="533" d="M229 616H-8V682H540V616H304V0H229V616ZM300 -54V-128Q300 -167 278 -188T212 -210H194V-172H211Q229 -172 237 -163T245 -134H224V-54H300Z" />
<glyph unicode="&#x163;" glyph-name="tcommaaccent" horiz-adv-x="346" d="M9 421V478H109V645L179 664V478H322V421H179V188Q179 137 180 116T185 83T198 63Q206 55 216 52T243 49Q264 49 286 53T322 65V5Q306 -3 281 -7T232 -12Q187 -12 160 4T121 52T109 136V421H9ZM250
-54V-127Q250 -163 231 -186T165 -210H147V-172H167Q187 -172 193 -161T200 -132H179V-54H250Z" />
<glyph unicode="&#x164;" glyph-name="Tcaron" horiz-adv-x="533" d="M229 616H-8V682H540V616H304V0H229V616ZM300 750H225L108 882H182L263 807L343 882H417L300 750Z" />
<glyph unicode="&#x165;" glyph-name="tcaron" horiz-adv-x="346" d="M9 421V478H109V645L179 664V478H322V421H179V188Q179 137 180 116T185 83T198 63Q206 55 216 52T243 49Q264 49 286 53T322 65V5Q306 -3 281 -7T232 -12Q187 -12 160 4T121 52T109 136V421H9ZM275
756H351L298 569H240L275 756Z" />
<glyph unicode="&#x166;" glyph-name="Tbar" horiz-adv-x="533" d="M229 0V316H39V377H229V616H-8V682H540V616H304V377H494V316H304V0H229Z" />
<glyph unicode="&#x167;" glyph-name="tbar" horiz-adv-x="346" d="M109 421H9V478H109V645L179 664V478H322V421H179V272H295V216H179V185Q179 120 182 98T198 63Q212 49 243 49Q264 49 286 53T322 65V5Q306 -3 281 -7T232 -12Q187 -12 160 4T121 52T109 136V216H18V272H109V421Z"
/>
<glyph unicode="&#x168;" glyph-name="Utilde" horiz-adv-x="730" d="M178 258Q178 190 200 144T263 75T366 52Q427 52 469 75T533 145T555 258V682H626V255Q626 171 596 110T507 18T364 -14Q279 -14 221 17T133 107T103 249V682H178V258ZM294 817Q276 817 266
800T255 755H196Q196 793 208 821T242 863T297 878Q318 878 338 870T383 841T418 816T436 811Q454 811 464 828T475 873H534Q534 836 522 808T488 765T433 750Q412 750 392 758T346 787T311 812T294 817Z" />
<glyph unicode="&#x169;" glyph-name="utilde" horiz-adv-x="554" d="M405 0L403 72H402Q379 31 339 10T249 -12Q193 -12 155 10T97 74T77 178V478H147V206Q147 162 151 142T164 102Q177 76 202 62T260 47Q287 47 311 56T351 82Q377 108 388 146T400 250V478H470V236Q470
174 470 127T473 0H405ZM215 624Q196 624 187 608T177 563H121Q121 600 132 627T164 668T217 682Q237 682 255 674T294 646T324 622T339 617Q357 617 366 633T376 678H433Q433 642 422 615T390 574T337 559Q317 559 299 567T259 595T230 619T215 624Z" />
<glyph unicode="&#x16a;" glyph-name="Umacron" horiz-adv-x="730" d="M178 258Q178 190 200 144T263 75T366 52Q427 52 469 75T533 145T555 258V682H626V255Q626 171 596 110T507 18T364 -14Q279 -14 221 17T133 107T103 249V682H178V258ZM513 781H216V843H513V781Z" />
<glyph unicode="&#x16b;" glyph-name="umacron" horiz-adv-x="554" d="M405 0L403 72H402Q379 31 339 10T249 -12Q193 -12 155 10T97 74T77 178V478H147V206Q147 162 151 142T164 102Q177 76 202 62T260 47Q287 47 311 56T351 82Q377 108 388 146T400 250V478H470V236Q470
174 470 127T473 0H405ZM411 588H143V647H411V588Z" />
<glyph unicode="&#x16c;" glyph-name="Ubreve" horiz-adv-x="730" d="M178 258Q178 190 200 144T263 75T366 52Q427 52 469 75T533 145T555 258V682H626V255Q626 171 596 110T507 18T364 -14Q279 -14 221 17T133 107T103 249V682H178V258ZM511 884Q511 839 494
808T443 761T364 745Q318 745 286 760T236 807T219 884H281Q281 858 290 841T318 816T365 807Q393 807 412 816T439 842T448 884H511Z" />
<glyph unicode="&#x16d;" glyph-name="ubreve" horiz-adv-x="554" d="M405 0L403 72H402Q379 31 339 10T249 -12Q193 -12 155 10T97 74T77 178V478H147V206Q147 162 151 142T164 102Q177 76 202 62T260 47Q287 47 311 56T351 82Q377 108 388 146T400 250V478H470V236Q470
174 470 127T473 0H405ZM414 689Q414 646 399 616T354 570T276 554Q231 554 201 569T156 615T141 689H199Q199 665 207 648T233 621T277 612Q305 612 322 621T348 648T356 689H414Z" />
<glyph unicode="&#x16e;" glyph-name="Uring" horiz-adv-x="730" d="M178 258Q178 190 200 144T263 75T366 52Q427 52 469 75T533 145T555 258V682H626V255Q626 171 596 110T507 18T364 -14Q279 -14 221 17T133 107T103 249V682H178V258ZM411 834Q411 854 399
868T365 882Q343 882 332 869T320 834Q320 814 331 801T365 787Q387 787 399 800T411 834ZM468 835Q468 795 440 768T364 740Q316 740 290 766T263 834Q263 873 290 900T366 928Q415 928 441 902T468 835Z" />
<glyph unicode="&#x16f;" glyph-name="uring" horiz-adv-x="554" d="M405 0L403 72H402Q379 31 339 10T249 -12Q193 -12 155 10T97 74T77 178V478H147V206Q147 162 151 142T164 102Q177 76 202 62T260 47Q287 47 311 56T351 82Q377 108 388 146T400 250V478H470V236Q470
174 470 127T473 0H405ZM323 641Q323 662 311 675T277 689Q255 689 244 676T232 641Q232 621 244 608T277 594Q299 594 311 607T323 641ZM380 642Q380 603 352 576T276 548Q227 548 201 574T175 641Q175 681 202 708T278 736Q327 736 353 710T380 642Z" />
<glyph unicode="&#x170;" glyph-name="Uhungarumlaut" horiz-adv-x="730" d="M178 258Q178 190 200 144T263 75T366 52Q427 52 469 75T533 145T555 258V682H626V255Q626 171 596 110T507 18T364 -14Q279 -14 221 17T133 107T103 249V682H178V258ZM511 881H618L492
749H418L511 881ZM291 881H392L285 749H216L291 881Z" />
<glyph unicode="&#x171;" glyph-name="uhungarumlaut" horiz-adv-x="554" d="M405 0L403 72H402Q379 31 339 10T249 -12Q193 -12 155 10T97 74T77 178V478H147V206Q147 162 151 142T164 102Q177 76 202 62T260 47Q287 47 311 56T351 82Q377 108 388 146T400 250V478H470V236Q470
174 470 127T473 0H405ZM401 692H500L383 551H316L401 692ZM210 692H302L207 551H143L210 692Z" />
<glyph unicode="&#x172;" glyph-name="Uogonek" horiz-adv-x="730" d="M516 -206Q504 -210 488 -212T454 -214Q417 -214 395 -206T362 -181T352 -140Q352 -110 369 -77T421 -7Q395 -14 364 -14Q279 -14 221 17T133 107T103 249V682H178V258Q178 190 200 144T263
75T366 52Q427 52 469 75T533 145T555 258V682H626V255Q626 191 609 140T557 55Q548 46 530 30T503 4Q465 -34 446 -69T426 -131Q426 -145 434 -151T462 -157H516V-206Z" />
<glyph unicode="&#x173;" glyph-name="uogonek" horiz-adv-x="554" d="M404 72H403Q379 31 339 10T249 -12Q194 -12 156 9T97 73T77 178V478H147V206Q147 162 151 142T164 102Q177 76 202 62T260 47Q287 47 311 56T351 82Q377 108 388 146T400 250V478H470V238Q470
148 470 97T473 0Q432 -43 413 -74T393 -133Q393 -148 402 -154T431 -160H482V-207Q469 -211 454 -212T424 -214Q391 -214 369 -207T335 -183T324 -140Q324 -110 342 -78T406 3L404 72Z" />
<glyph unicode="&#x174;" glyph-name="Wcircumflex" horiz-adv-x="1032" d="M249 0L35 682H119L213 362Q222 332 252 233T296 87H297Q307 121 325 179T382 362L483 682H550L655 362Q691 252 711 188T743 87H744Q755 126 783 223T823 361L917 682H997L783 0H698L550
448Q540 481 533 505T516 570H514Q509 551 502 525T478 448L334 0H249ZM479 882H552L670 750H595L515 825L435 750H361L479 882Z" />
<glyph unicode="&#x175;" glyph-name="wcircumflex" horiz-adv-x="818" d="M548 0L437 288Q428 313 420 336T405 382H403Q398 359 391 336T374 287L269 0H206L22 478H103L194 224Q205 194 217 159T240 90H241Q252 126 263 161T285 224L377 478H437L533 224Q546
189 559 154T582 90H583Q592 117 604 152T628 224L716 478H795L611 0H548ZM366 692H452L551 551H482L407 641L333 551H266L366 692Z" />
<glyph unicode="&#x176;" glyph-name="Ycircumflex" horiz-adv-x="604" d="M264 0V292L0 682H91L304 362L517 682H604L340 292V0H264ZM266 882H339L457 750H382L302 825L222 750H148L266 882Z" />
<glyph unicode="&#x177;" glyph-name="ycircumflex" horiz-adv-x="487" d="M115 -207L211 -3L13 478H94L175 276Q190 236 209 183T246 79H247Q257 112 279 172T317 276L397 478H474L192 -207H115ZM201 692H287L386 551H317L242 641L168 551H101L201 692Z" />
<glyph unicode="&#x178;" glyph-name="Ydieresis" horiz-adv-x="604" d="M264 0V292L0 682H91L304 362L517 682H604L340 292V0H264ZM376 761V873H451V761H376ZM153 761V873H228V761H153Z" />
<glyph unicode="&#x179;" glyph-name="Zacute" horiz-adv-x="628" d="M582 0H46V68L479 617Q431 616 348 616T223 615H61V682H567V615L135 67Q185 67 264 67T380 68H582V0ZM346 881H452L325 749H253L346 881Z" />
<glyph unicode="&#x17a;" glyph-name="zacute" horiz-adv-x="489" d="M442 0H47V61L346 420Q322 420 273 420T197 419H58V478H428V419L128 60Q155 60 211 60T301 61H442V0ZM279 692H377L261 551H195L279 692Z" />
<glyph unicode="&#x17b;" glyph-name="Zdotaccent" horiz-adv-x="628" d="M582 0H46V68L479 617Q431 616 348 616T223 615H61V682H567V615L135 67Q185 67 264 67T380 68H582V0ZM278 761V873H354V761H278Z" />
<glyph unicode="&#x17c;" glyph-name="zdotaccent" horiz-adv-x="489" d="M442 0H47V61L346 420Q322 420 273 420T197 419H58V478H428V419L128 60Q155 60 211 60T301 61H442V0ZM201 567V680H273V567H201Z" />
<glyph unicode="&#x17d;" glyph-name="Zcaron" horiz-adv-x="628" d="M582 0H46V68L479 617Q431 616 348 616T223 615H61V682H567V615L135 67Q185 67 264 67T380 68H582V0ZM353 750H278L161 882H235L316 807L396 882H470L353 750Z" />
<glyph unicode="&#x17e;" glyph-name="zcaron" horiz-adv-x="489" d="M442 0H47V61L346 420Q322 420 273 420T197 419H58V478H428V419L128 60Q155 60 211 60T301 61H442V0ZM287 551H201L102 692H171L246 602L320 692H387L287 551Z" />
<glyph unicode="&#x17f;" glyph-name="longs" horiz-adv-x="257" d="M84 0V574Q84 620 98 651T142 699T217 716Q235 716 256 713T295 703V641Q276 649 256 652T218 656Q195 656 181 648T161 622T154 569V0H84Z" />
<glyph unicode="&#x192;" glyph-name="florin" horiz-adv-x="524" d="M442 322H270L244 111Q230 11 219 -24T188 -82T139 -116T68 -128Q44 -128 19 -123T-24 -110L-6 -49Q11 -56 33 -61T72 -66Q95 -66 110 -58T136 -32T153 15T170 111L196 322H55V381H204L218
482Q231 583 242 618T273 676T322 710T393 721Q415 721 441 716T485 703L467 642Q450 649 428 654T389 659Q366 659 351 651T325 624T307 575T291 482L278 381H442V322Z" />
<glyph unicode="&#x1e6;" glyph-name="Gcaron" horiz-adv-x="755" d="M588 0V110H587Q557 52 501 19T373 -14Q284 -14 214 30T105 154T66 340Q66 442 105 523T217 650T381 696Q474 696 540 658T651 539L590 498Q554 566 502 598T374 631Q306 631 254 594T174 491T145
341Q145 253 174 187T257 86T378 51Q437 51 483 81T555 165T581 281V303H381V364H657V0H588ZM418 750H343L226 882H300L381 807L461 882H535L418 750Z" />
<glyph unicode="&#x1e7;" glyph-name="gcaron" horiz-adv-x="581" d="M429 249Q429 302 410 344T356 408T276 431Q228 431 194 408T143 342T125 239Q125 183 143 140T197 72T280 48Q325 48 359 70T411 134T429 230V249ZM505 478Q501 442 500 383T498 241V-16Q498
-114 445 -165T288 -217Q215 -217 161 -189T67 -100L121 -59Q152 -109 194 -133T290 -157Q357 -157 392 -122T428 -21Q428 -6 428 24T430 71H428Q405 32 364 11T268 -11Q201 -11 152 19T77 106T50 237Q50 313 77 370T154 459T271 491Q322 491 362 470T430 409H431L435
478H505ZM319 551H233L134 692H203L278 602L352 692H419L319 551Z" />
<glyph unicode="&#x1fa;" glyph-name="Aringacute" horiz-adv-x="643" d="M317 609Q305 564 222 338L190 249H448L416 336Q330 568 318 609H317ZM361 682L625 0H540L470 189H168L100 0H18L282 682H361ZM360 980H467L350 875H278L360 980ZM364 743Q364 764 353
777T320 790Q299 790 288 777T277 744Q277 724 288 711T320 698Q341 698 352 711T364 743ZM422 745Q422 706 395 680T319 653Q270 653 245 678T219 743Q219 782 246 808T321 835Q370 835 396 810T422 745Z" />
<glyph unicode="&#x1fb;" glyph-name="aringacute" horiz-adv-x="516" d="M50 129Q50 170 68 199T124 248T223 277T369 287V323Q369 376 340 404T256 432Q209 432 172 411T105 346L58 387Q96 438 146 464T259 491Q347 491 393 449T439 326V236Q439 178 439 134T442
0H374L372 71H371Q344 31 302 10T212 -12Q139 -12 95 26T50 129ZM369 232Q300 232 254 226T179 208T137 178T124 131Q124 90 151 68T227 46Q267 46 299 66T350 121T369 197V232V232ZM312 884H413L296 767H230L312 884ZM308 628Q308 649 297 662T263 675Q241 675
230 662T218 628Q218 608 229 595T263 581Q285 581 296 594T308 628ZM365 629Q365 590 338 563T262 535Q213 535 187 561T161 628Q161 667 188 694T264 721Q313 721 339 696T365 629Z" />
<glyph unicode="&#x1fc;" glyph-name="AEacute" horiz-adv-x="969" d="M190 248H456V618H375L190 248ZM887 682V618H531V380H840V318H531V65H904V0H456V186H160L67 0H-17L331 682H887ZM648 881H754L627 749H555L648 881Z" />
<glyph unicode="&#x1fd;" glyph-name="aeacute" horiz-adv-x="844" d="M227 46Q267 46 299 65T350 120T369 197V232Q300 232 254 226T179 208T137 178T124 131Q124 90 151 68T227 46ZM722 281Q722 324 704 359T655 413T585 432Q545 432 515 415T465 363T441 281H722ZM213
-12Q140 -12 95 26T50 129Q50 170 68 199T124 248T223 277T369 287V323Q368 377 340 404T256 432Q209 432 172 411T105 346L58 387Q96 438 146 464T259 491Q321 491 360 470T418 408Q446 448 489 469T588 491Q651 491 697 464T771 385T798 276Q798 245 794 225H439Q441
145 484 96T597 47Q648 47 685 66T751 129L799 90Q760 36 711 12T594 -12Q526 -12 478 16T400 102Q371 43 325 16T213 -12ZM475 692H573L457 551H391L475 692Z" />
<glyph unicode="&#x1fe;" glyph-name="Oslashacute" horiz-adv-x="778" d="M145 341Q145 290 155 245T187 164L551 568Q520 599 479 615T389 631Q314 631 259 595T174 493T145 341ZM633 341Q633 392 622 436T590 518L227 114Q257 83 298 68T389 52Q464 52 519
88T603 189T633 341ZM62 26L134 106Q101 152 84 211T66 340Q66 444 106 525T221 651T390 696Q452 696 504 677T599 622L668 699L715 656L643 575Q676 530 694 471T712 342Q712 238 672 157T557 31T388 -14Q326 -14 273 4T179 59L110 -17L62 26ZM433 881H539L412
749H340L433 881Z" />
<glyph unicode="&#x1ff;" glyph-name="oslashacute" horiz-adv-x="559" d="M436 239Q436 270 431 296T413 345L180 86Q198 66 223 57T279 47Q327 47 362 71T417 139T436 239ZM123 239Q123 208 128 182T145 132L379 393Q360 411 335 421T279 431Q232 431 196 407T142
339T123 239ZM30 5L93 76Q71 107 60 148T49 238Q49 313 77 370T158 459T281 491Q324 491 360 479T425 444L487 512L529 473L465 402Q487 369 498 328T510 240Q510 166 482 108T401 19T278 -12Q234 -12 198 0T133 33L72 -34L30 5ZM320 692H418L302 551H236L320 692Z"
/>
<glyph unicode="&#x218;" glyph-name="Scommaaccent" horiz-adv-x="655" d="M106 168Q157 110 217 80T344 50Q394 50 432 65T490 109T510 174Q510 208 494 232T444 274T312 316T171 366T107 429T86 518Q86 571 114 611T195 674T313 696Q383 696 442 672T557 598L511
543Q467 589 418 610T311 632Q265 632 231 619T180 580T163 522Q163 490 178 467T227 426T358 384T500 334T566 270T587 178Q587 123 556 80T469 11T343 -14Q260 -14 190 18T60 114L106 168ZM380 -54V-128Q380 -167 358 -188T292 -210H274V-172H291Q309 -172 317
-163T325 -134H304V-54H380Z" />
<glyph unicode="&#x219;" glyph-name="scommaaccent" horiz-adv-x="487" d="M87 123Q123 86 166 67T254 47Q304 47 332 67T361 125Q361 146 351 161T318 188T227 215T128 249T81 295T66 361Q66 400 87 429T146 475T233 491Q284 491 330 474T415 423L374 374Q344
403 308 417T232 432Q203 432 182 424T149 401T137 364Q137 343 148 328T181 302T270 275T370 241T417 194T433 127Q433 86 411 55T347 6T253 -12Q194 -12 142 9T47 72L87 123ZM290 -54V-127Q290 -163 271 -186T205 -210H187V-172H207Q227 -172 233 -161T240 -132H219V-54H290Z"
/>
<glyph unicode="&#x21a;" glyph-name="uni021A" horiz-adv-x="533" d="M229 616H-8V682H540V616H304V0H229V616ZM300 -54V-128Q300 -167 278 -188T212 -210H194V-172H211Q229 -172 237 -163T245 -134H224V-54H300Z" />
<glyph unicode="&#x21b;" glyph-name="uni021B" horiz-adv-x="346" d="M9 421V478H109V645L179 664V478H322V421H179V188Q179 137 180 116T185 83T198 63Q206 55 216 52T243 49Q264 49 286 53T322 65V5Q306 -3 281 -7T232 -12Q187 -12 160 4T121 52T109 136V421H9ZM250
-54V-127Q250 -163 231 -186T165 -210H147V-172H167Q187 -172 193 -161T200 -132H179V-54H250Z" />
<glyph unicode="&#x237;" glyph-name="dotlessj" horiz-adv-x="248" d="M164 478V-31Q164 -99 152 -138T114 -196T38 -215Q25 -215 11 -214T-12 -210V-155H34Q58 -155 71 -143T89 -105T94 -31V478H164Z" />
<glyph unicode="&#x2c6;" glyph-name="circumflex" horiz-adv-x="431" d="M173 692H259L358 551H289L214 641L140 551H73L173 692Z" />
<glyph unicode="&#x2c7;" glyph-name="caron" horiz-adv-x="431" d="M258 551H172L73 692H142L217 602L291 692H358L258 551Z" />
<glyph unicode="&#x2c9;" glyph-name="overscore" horiz-adv-x="430" d="M349 588H81V647H349V588Z" />
<glyph unicode="&#x2d8;" glyph-name="breve" horiz-adv-x="433" d="M353 689Q353 646 338 616T293 570T215 554Q170 554 140 569T95 615T80 689H138Q138 665 146 648T172 621T216 612Q244 612 261 621T287 648T295 689H353Z" />
<glyph unicode="&#x2d9;" glyph-name="dotaccent" horiz-adv-x="234" d="M81 567V680H153V567H81Z" />
<glyph unicode="&#x2da;" glyph-name="ring" horiz-adv-x="391" d="M241 641Q241 662 229 675T195 689Q173 689 162 676T150 641Q150 621 162 608T195 594Q217 594 229 607T241 641ZM298 642Q298 603 270 576T194 548Q145 548 119 574T93 641Q93 681 120 708T196
736Q245 736 271 710T298 642Z" />
<glyph unicode="&#x2db;" glyph-name="ogonek" horiz-adv-x="320" d="M217 0Q180 -55 166 -84T151 -133Q151 -148 160 -154T188 -160H239V-207Q227 -210 211 -212T181 -214Q146 -214 124 -206T92 -182T81 -140Q81 -114 97 -81T148 0H217Z" />
<glyph unicode="&#x2dc;" glyph-name="tilde" horiz-adv-x="474" d="M175 624Q156 624 147 608T137 563H81Q81 600 92 627T124 668T177 682Q197 682 215 674T254 646T284 622T299 617Q317 617 326 633T336 678H393Q393 642 382 615T350 574T297 559Q277 559 259
567T219 595T190 619T175 624Z" />
<glyph unicode="&#x2dd;" glyph-name="hungarumlaut" horiz-adv-x="511" d="M335 692H434L317 551H250L335 692ZM144 692H236L141 551H77L144 692Z" />
<glyph unicode="&#x312;" glyph-name="uni0312" horiz-adv-x="252" d="M81 567V646Q81 682 100 705T166 729H184V691H165Q144 691 138 680T131 651H152V567H81Z" />
<glyph unicode="&#x315;" glyph-name="uni0315" horiz-adv-x="270" d="M115 756H191L138 569H80L115 756Z" />
<glyph unicode="&#x326;" glyph-name="uni0326" horiz-adv-x="265" d="M184 -54V-127Q184 -163 165 -186T99 -210H81V-172H101Q121 -172 127 -161T134 -132H113V-54H184Z" />
<glyph unicode="&#x394;" glyph-name="increment" horiz-adv-x="630" d="M114 66H514L411 337Q355 486 338 534T313 609H312Q304 578 284 522T217 339L114 66ZM598 0H32V59L277 682H355L598 62V0Z" />
<glyph unicode="&#x3a9;" glyph-name="Omega" horiz-adv-x="781" d="M68 0V65H257V67Q163 119 118 196T73 380Q73 470 115 543T230 656T392 696Q484 696 556 656T668 544T708 380Q708 280 662 201T524 67V65H713V0H458V82Q549 138 589 206T629 371Q629 448 600
507T517 598T391 630Q317 630 263 598T180 508T152 371Q152 274 192 207T323 82V0H68Z" />
<glyph unicode="&#x3bc;" glyph-name="mu" horiz-adv-x="561" d="M84 -207V478H154V206Q154 162 157 142T170 102Q184 76 208 62T267 47Q293 47 317 56T358 82Q384 108 395 146T407 250V478H477V236Q477 174 477 127T480 0H411L410 72H409Q386 31 347 10T258 -12Q182
-12 151 34H150L154 -207H84Z" />
<glyph unicode="&#x3c0;" glyph-name="pi" horiz-adv-x="650" d="M589 415H467Q467 252 472 179T491 78T538 50Q555 50 573 53T604 64L613 6Q598 -1 575 -6T532 -11Q471 -11 445 18T409 125T398 415H193Q186 257 178 155T161 0H90Q102 95 109 192T122 415H24V478H589V415Z"
/>
<glyph unicode="&#x1e02;" glyph-name="uni1E02" horiz-adv-x="706" d="M110 682Q142 682 210 682T328 683Q440 683 493 669T581 621Q625 577 625 512Q625 454 597 414T509 352Q576 338 611 296T646 188Q646 121 615 80T520 19T350 -1Q224 -1 110 0V682ZM185 377H352Q426
377 460 386T517 419Q532 434 540 455T548 504Q548 549 518 578Q495 601 453 610T324 619Q231 619 185 618V377ZM185 64Q244 63 357 63Q437 63 481 75T546 115T568 186Q568 231 548 260T486 302T349 315H185V64ZM315 761V873H391V761H315Z" />
<glyph unicode="&#x1e03;" glyph-name="uni1E03" horiz-adv-x="580" d="M152 229Q152 176 171 135T224 70T305 47Q352 47 386 70T438 137T456 240Q456 297 437 341T382 408T301 431Q257 431 223 410T170 347T152 250V229ZM84 711H154V501Q154 441 150 407H151Q175
447 216 469T313 491Q378 491 427 461T503 373T530 242Q530 166 504 108T427 19T310 -12Q258 -12 218 9T151 69H150L146 0H77Q80 58 82 111T84 238V711ZM272 567V680H344V567H272Z" />
<glyph unicode="&#x1e0a;" glyph-name="uni1E0A" horiz-adv-x="726" d="M110 681Q178 682 306 682Q403 682 463 662T569 596Q614 551 637 488T660 343Q660 262 636 196T568 85Q523 40 463 20T306 0Q208 1 110 1V681ZM185 69Q244 66 308 66Q393 66 434 79T508 125Q545
161 563 215T581 340Q581 407 562 463T506 554Q471 589 428 603T303 617Q219 617 185 616V69ZM304 761V873H380V761H304Z" />
<glyph unicode="&#x1e0b;" glyph-name="uni1E0B" horiz-adv-x="580" d="M431 0L429 72H428Q405 30 364 9T267 -12Q200 -12 151 18T76 106T49 236Q49 313 76 370T153 459T270 491Q321 491 361 471T427 412H428Q426 446 426 501V711H496V237Q496 148 496 99T499
0H431ZM428 249Q428 303 409 345T354 409T275 431Q228 431 194 408T142 341T124 238Q124 182 142 139T196 71T279 47Q324 47 358 69T410 133T428 229V249ZM233 567V680H305V567H233Z" />
<glyph unicode="&#x1e1e;" glyph-name="uni1E1E" horiz-adv-x="598" d="M110 682H550V617H185V377H504V315H185V0H110V682ZM289 761V873H365V761H289Z" />
<glyph unicode="&#x1e1f;" glyph-name="uni1E1F" horiz-adv-x="312" d="M111 421H8V478H111V576Q111 623 125 653T169 700T239 716Q260 716 284 712T323 701V640Q307 647 283 651T242 656Q220 656 207 649T188 624T181 576V478H309V421H181V0H111V421ZM198 800V913H270V800H198Z"
/>
<glyph unicode="&#x1e40;" glyph-name="uni1E40" horiz-adv-x="942" d="M110 682H231L377 338Q420 237 439 189T471 105H472Q484 141 503 189T566 338L712 682H832V0H757V240Q757 351 758 457T760 619H758Q740 574 719 524T666 399L499 0H439L270 400Q218 522
204 557T180 619H178Q179 563 179 457T180 240V0H110V682ZM432 761V873H508V761H432Z" />
<glyph unicode="&#x1e41;" glyph-name="uni1E41" horiz-adv-x="881" d="M733 0V272Q733 316 729 337T717 376Q703 403 678 417T617 431Q591 431 567 422T528 396Q502 370 490 332T478 228V0H408V272Q408 316 405 337T392 376Q379 403 354 417T293 431Q267 431
243 422T203 396Q177 370 166 332T154 228V0H84V241Q84 282 84 316T84 378T83 430T81 478H149L151 407H152Q175 447 215 469T306 491Q364 491 404 467T463 394Q492 443 534 467T631 491Q715 491 759 443T803 300V0H733ZM408 567V680H480V567H408Z" />
<glyph unicode="&#x1e56;" glyph-name="uni1E56" horiz-adv-x="637" d="M110 682Q237 683 363 683Q452 683 510 660T596 592T625 479Q625 413 595 367T505 297T356 273Q250 273 185 274V0H110V682ZM546 478Q546 526 527 557T467 602T362 617Q239 617 185 616V339Q240
338 360 338Q424 338 465 353T526 399T546 478ZM313 761V873H389V761H313Z" />
<glyph unicode="&#x1e57;" glyph-name="uni1E57" horiz-adv-x="580" d="M84 -207V241Q84 300 84 359T81 478H149L151 407H152Q175 448 216 469T313 491Q378 491 427 461T503 373T530 242Q530 166 504 108T427 19T310 -12Q259 -12 219 8T153 67H152Q154 32 154
-22V-207H84ZM152 229Q152 175 171 134T225 70T305 47Q352 47 386 70T438 137T456 240Q456 297 437 341T382 408T301 431Q257 431 223 410T170 347T152 250V229ZM268 567V680H340V567H268Z" />
<glyph unicode="&#x1e60;" glyph-name="uni1E60" horiz-adv-x="655" d="M106 168Q157 110 217 80T344 50Q394 50 432 65T490 109T510 174Q510 208 494 232T444 274T312 316T171 366T107 429T86 518Q86 571 114 611T195 674T313 696Q383 696 442 672T557 598L511
543Q467 589 418 610T311 632Q265 632 231 619T180 580T163 522Q163 490 178 467T227 426T358 384T500 334T566 270T587 178Q587 123 556 80T469 11T343 -14Q260 -14 190 18T60 114L106 168ZM278 761V873H354V761H278Z" />
<glyph unicode="&#x1e61;" glyph-name="uni1E61" horiz-adv-x="487" d="M87 123Q123 86 166 67T254 47Q304 47 332 67T361 125Q361 146 351 161T318 188T227 215T128 249T81 295T66 361Q66 400 87 429T146 475T233 491Q284 491 330 474T415 423L374 374Q344 403
308 417T232 432Q203 432 182 424T149 401T137 364Q137 343 148 328T181 302T270 275T370 241T417 194T433 127Q433 86 411 55T347 6T253 -12Q194 -12 142 9T47 72L87 123ZM197 567V680H269V567H197Z" />
<glyph unicode="&#x1e6a;" glyph-name="uni1E6A" horiz-adv-x="533" d="M229 616H-8V682H540V616H304V0H229V616ZM228 761V873H304V761H228Z" />
<glyph unicode="&#x1e6b;" glyph-name="uni1E6B" horiz-adv-x="346" d="M9 421V478H109V645L179 664V478H322V421H179V188Q179 137 180 116T185 83T198 63Q206 55 216 52T243 49Q264 49 286 53T322 65V5Q306 -3 281 -7T232 -12Q187 -12 160 4T121 52T109 136V421H9ZM109
723V836H181V723H109Z" />
<glyph unicode="&#x1e80;" glyph-name="Wgrave" horiz-adv-x="1032" d="M249 0L35 682H119L213 362Q222 332 252 233T296 87H297Q307 121 325 179T382 362L483 682H550L655 362Q691 252 711 188T743 87H744Q755 126 783 223T823 361L917 682H997L783 0H698L550
448Q540 481 533 505T516 570H514Q509 551 502 525T478 448L334 0H249ZM557 749H484L358 881H464L557 749Z" />
<glyph unicode="&#x1e81;" glyph-name="wgrave" horiz-adv-x="818" d="M548 0L437 288Q428 313 420 336T405 382H403Q398 359 391 336T374 287L269 0H206L22 478H103L194 224Q205 194 217 159T240 90H241Q252 126 263 161T285 224L377 478H437L533 224Q546 189
559 154T582 90H583Q592 117 604 152T628 224L716 478H795L611 0H548ZM446 551H379L262 692H361L446 551Z" />
<glyph unicode="&#x1e82;" glyph-name="Wacute" horiz-adv-x="1032" d="M249 0L35 682H119L213 362Q222 332 252 233T296 87H297Q307 121 325 179T382 362L483 682H550L655 362Q691 252 711 188T743 87H744Q755 126 783 223T823 361L917 682H997L783 0H698L550
448Q540 481 533 505T516 570H514Q509 551 502 525T478 448L334 0H249ZM568 881H674L547 749H475L568 881Z" />
<glyph unicode="&#x1e83;" glyph-name="wacute" horiz-adv-x="818" d="M548 0L437 288Q428 313 420 336T405 382H403Q398 359 391 336T374 287L269 0H206L22 478H103L194 224Q205 194 217 159T240 90H241Q252 126 263 161T285 224L377 478H437L533 224Q546 189
559 154T582 90H583Q592 117 604 152T628 224L716 478H795L611 0H548ZM448 692H546L430 551H364L448 692Z" />
<glyph unicode="&#x1e84;" glyph-name="Wdieresis" horiz-adv-x="1032" d="M249 0L35 682H119L213 362Q222 332 252 233T296 87H297Q307 121 325 179T382 362L483 682H550L655 362Q691 252 711 188T743 87H744Q755 126 783 223T823 361L917 682H997L783 0H698L550
448Q540 481 533 505T516 570H514Q509 551 502 525T478 448L334 0H249ZM589 761V873H664V761H589ZM366 761V873H441V761H366Z" />
<glyph unicode="&#x1e85;" glyph-name="wdieresis" horiz-adv-x="818" d="M548 0L437 288Q428 313 420 336T405 382H403Q398 359 391 336T374 287L269 0H206L22 478H103L194 224Q205 194 217 159T240 90H241Q252 126 263 161T285 224L377 478H437L533 224Q546
189 559 154T582 90H583Q592 117 604 152T628 224L716 478H795L611 0H548ZM463 567V680H534V567H463ZM279 567V680H350V567H279Z" />
<glyph unicode="&#x1e9e;" glyph-name="uni1E9E" horiz-adv-x="758" d="M110 442Q110 526 142 582T239 667T399 695Q457 695 520 687T638 664V609L435 387Q518 386 575 363T661 295T690 187Q690 129 661 83T578 12T450 -14Q417 -14 379 -8T310 8L327 74Q355 63
389 57T453 50Q502 50 537 66T592 113T611 185Q611 230 590 261T525 308T418 324H349V387L557 613Q521 622 479 626T396 630Q320 630 274 610T206 550T185 444V0H110V442Z" />
<glyph unicode="&#x1ef2;" glyph-name="Ygrave" horiz-adv-x="604" d="M264 0V292L0 682H91L304 362L517 682H604L340 292V0H264ZM349 749H276L150 881H256L349 749Z" />
<glyph unicode="&#x1ef3;" glyph-name="ygrave" horiz-adv-x="487" d="M115 -207L211 -3L13 478H94L175 276Q190 236 209 183T246 79H247Q257 112 279 172T317 276L397 478H474L192 -207H115ZM288 551H221L104 692H203L288 551Z" />
<glyph unicode="&#x2010;" glyph-name="hyphen" horiz-adv-x="360" d="M39 237V309H321V237H39Z" />
<glyph unicode="&#x2013;" glyph-name="endash" horiz-adv-x="650" d="M587 242H63V305H587V242Z" />
<glyph unicode="&#x2014;" glyph-name="emdash" horiz-adv-x="968" d="M921 242H47V305H921V242Z" />
<glyph unicode="&#x2015;" glyph-name="emdash" horiz-adv-x="968" d="M921 242H47V305H921V242Z" />
<glyph unicode="&#x2018;" glyph-name="quoteleft" horiz-adv-x="256" d="M79 475V588Q79 654 86 688T112 748T175 801L202 758Q173 737 160 719T142 677T137 611H177V475H79Z" />
<glyph unicode="&#x2019;" glyph-name="quoteright" horiz-adv-x="256" d="M177 780V668Q177 596 169 561T141 503T80 455L53 497Q85 519 97 536T114 576T119 644H79V780H177Z" />
<glyph unicode="&#x201a;" glyph-name="quotesinglbase" horiz-adv-x="256" d="M177 136V24Q177 -48 169 -83T141 -141T80 -189L53 -147Q85 -125 97 -108T114 -68T119 0H79V136H177Z" />
<glyph unicode="&#x201c;" glyph-name="quotedblleft" horiz-adv-x="438" d="M79 475V588Q79 655 86 689T112 749T170 801L197 758Q165 733 155 716T140 676T135 611H172V475H79ZM265 475V588Q265 657 273 691T299 751T357 801L384 758Q352 733 342 716T327 676T322
611H359V475H265Z" />
<glyph unicode="&#x201d;" glyph-name="quotedblright" horiz-adv-x="438" d="M359 780V668Q359 597 352 563T326 505T268 455L240 497Q268 517 280 534T297 575T302 644H265V780H359ZM172 780V668Q172 597 165 563T140 505T81 455L53 497Q81 517 93 534T111 575T116
644H79V780H172Z" />
<glyph unicode="&#x201e;" glyph-name="quotedblbase" horiz-adv-x="438" d="M359 136V24Q359 -47 352 -81T326 -139T268 -189L240 -147Q268 -127 280 -110T297 -69T302 0H265V136H359ZM172 136V24Q172 -47 165 -81T140 -139T81 -189L53 -147Q81 -127 93 -110T111
-69T116 0H79V136H172Z" />
<glyph unicode="&#x2020;" glyph-name="dagger" horiz-adv-x="489" d="M210 96V521H45V581H210V757H280V581H444V521H280V96H210Z" />
<glyph unicode="&#x2021;" glyph-name="daggerdbl" horiz-adv-x="489" d="M444 267H280V82H210V267H45V327H210V521H45V581H210V757H280V581H444V521H280V327H444V267Z" />
<glyph unicode="&#x2022;" glyph-name="bullet" horiz-adv-x="418" d="M338 323Q338 287 320 257T272 209T208 192Q172 192 142 209T96 257T79 321Q79 357 97 387T145 435T210 452Q246 452 275 435T321 387T338 323Z" />
<glyph unicode="&#x2026;" glyph-name="ellipsis" horiz-adv-x="833" d="M655 0V142H754V0H655ZM367 0V142H466V0H367ZM79 0V142H177V0H79Z" />
<glyph unicode="&#x2030;" glyph-name="perthousand" horiz-adv-x="1582" d="M442 559Q442 452 394 391T259 330Q172 330 125 389T78 557Q78 664 126 725T262 786Q349 786 395 727T442 559ZM374 558Q374 641 345 685T260 730Q205 730 176 686T147 558Q147 475
176 431T260 386Q316 386 345 430T374 558ZM860 778L315 -96H240L784 778H860ZM1022 125Q1022 18 974 -43T839 -104Q752 -104 705 -45T658 123Q658 230 706 291T842 352Q929 352 975 293T1022 125ZM954 124Q954 207 925 251T840 296Q785 296 756 252T727 124Q727
41 756 -3T840 -48Q896 -48 925 -4T954 124ZM1503 125Q1503 18 1455 -43T1320 -104Q1233 -104 1186 -45T1139 123Q1139 230 1187 291T1323 352Q1410 352 1456 293T1503 125ZM1435 124Q1435 207 1406 251T1321 296Q1266 296 1237 252T1208 124Q1208 41 1237 -3T1321
-48Q1377 -48 1406 -4T1435 124Z" />
<glyph unicode="&#x2039;" glyph-name="guilsinglleft" horiz-adv-x="400" d="M257 43L77 272L257 502L312 472L172 274L311 74L257 43Z" />
<glyph unicode="&#x203a;" glyph-name="guilsinglright" horiz-adv-x="400" d="M143 503L322 273L143 43L88 73L227 271L88 471L143 503Z" />
<glyph unicode="&#x2044;" glyph-name="fraction" horiz-adv-x="391" d="M506 778L-39 -96H-114L430 778H506Z" />
<glyph unicode="&#x2070;" glyph-name="zero.superior" horiz-adv-x="521" d="M442 559Q442 452 394 391T259 330Q172 330 125 389T78 557Q78 664 126 725T262 786Q349 786 395 727T442 559ZM374 558Q374 641 345 685T260 730Q205 730 176 686T147 558Q147 475
176 431T260 386Q316 386 345 430T374 558Z" />
<glyph unicode="&#x2074;" glyph-name="four.superior" horiz-adv-x="484" d="M120 488Q157 489 208 490T284 491V609Q284 695 286 724H284L120 488V488ZM284 338V434H53V494L251 778H351V491H431V434H351V338H284Z" />
<glyph unicode="&#x2081;" glyph-name="uni2081" horiz-adv-x="354" d="M189 -96V244Q168 227 136 219T58 210V268Q122 268 156 287T198 346H257V-96H189Z" />
<glyph unicode="&#x2082;" glyph-name="uni2082" horiz-adv-x="502" d="M427 -96H84V-33Q161 15 210 49T289 111T330 162T341 213Q341 253 317 275T248 298Q204 298 180 278T156 220Q156 193 165 169H97Q87 187 87 219Q87 282 131 317T252 352Q327 352 370 315T413
215Q413 181 400 151T357 92T284 31T175 -38V-39Q224 -38 298 -38H427V-96Z" />
<glyph unicode="&#x2083;" glyph-name="uni2083" horiz-adv-x="499" d="M136 38Q152 -50 256 -50Q303 -50 329 -29T356 29Q356 67 331 84T254 102H188V154H236Q273 154 291 159T323 177Q341 195 341 230Q341 262 317 280T250 299Q207 299 182 280T149 220L84 234Q96
294 138 323T253 352Q326 352 369 320T412 234Q412 195 395 171T341 134V133Q428 112 428 26Q428 -31 380 -67T255 -104Q175 -104 129 -73T70 23L136 38Z" />
<glyph unicode="&#x2084;" glyph-name="uni2084" horiz-adv-x="484" d="M120 54Q157 55 208 56T284 57V175Q284 261 286 290H284L120 54V54ZM284 -96V0H53V60L251 344H351V57H431V0H351V-96H284Z" />
<glyph unicode="&#x20ac;" glyph-name="Euro" horiz-adv-x="720" d="M440 236H211Q231 147 285 99T420 50Q477 50 521 73T602 147L652 107Q606 45 549 16T418 -14Q306 -14 231 52T132 236H34V293H124Q122 316 122 340Q122 365 124 390H34V447H132Q157 564 235
630T421 696Q490 696 547 669T647 585L591 540Q558 587 515 610T420 633Q341 633 287 585T211 447H440V390H202Q200 368 200 341Q200 316 202 293H440V236Z" />
<glyph unicode="&#x2113;" glyph-name="afii61289" horiz-adv-x="452" d="M255 -12Q191 -12 154 29T102 157L52 131L23 185L94 223Q90 275 90 352Q90 481 106 561T155 678T246 716Q288 716 315 694T356 629T370 522Q370 413 320 331T168 193Q176 117 198 84T262
50Q283 50 304 59T346 88L376 40Q349 15 318 2T255 -12V-12ZM297 519Q297 591 283 623T239 656Q210 656 194 624T170 524T162 352Q162 287 163 259Q228 297 262 363T297 519Z" />
<glyph unicode="&#x2122;" glyph-name="trademark" horiz-adv-x="895" d="M399 682H488L579 465Q585 451 591 432T605 389H606Q612 410 618 429T632 465L725 682H814V314H756V443Q756 509 756 554T758 634H757Q753 616 746 598T730 559L625 314H582L478 559Q469
579 463 597T451 634H449Q451 600 451 555T452 443V314H399V682ZM153 631H28V682H334V631H212V314H153V631Z" />
<glyph unicode="&#x2126;" glyph-name="Omega" horiz-adv-x="781" d="M68 0V65H257V67Q163 119 118 196T73 380Q73 470 115 543T230 656T392 696Q484 696 556 656T668 544T708 380Q708 280 662 201T524 67V65H713V0H458V82Q549 138 589 206T629 371Q629 448 600
507T517 598T391 630Q317 630 263 598T180 508T152 371Q152 274 192 207T323 82V0H68Z" />
<glyph unicode="&#x212e;" glyph-name="estimated" horiz-adv-x="930" d="M466 -14Q377 -14 303 11T176 82T95 193T66 340Q66 421 95 486T178 598T305 670T467 696Q555 696 628 671T753 601T835 490T864 345Q864 341 864 337T863 328H223V154Q223 130 229 119T252
95Q288 68 342 52T469 35Q555 35 631 62T759 141H835Q806 104 768 76T682 27T580 -3T466 -14ZM706 373V537Q706 557 701 566T685 584Q641 617 586 632T465 648Q400 648 344 633T244 583Q234 575 229 564T223 531V373H706Z" />
<glyph unicode="&#x2202;" glyph-name="partialdiff" horiz-adv-x="562" d="M270 -12Q202 -12 153 19T77 107T50 236Q50 313 77 370T154 459T272 490Q332 490 379 460T447 382H448Q443 415 438 448T425 507T403 555T372 595Q351 615 322 626T257 638Q189 638 123
615V679Q182 698 260 698Q344 698 400 659T484 540T512 336Q512 222 485 145T404 28T270 -12ZM273 48Q318 48 353 71T408 139T428 240Q428 297 409 340T355 407T276 430Q230 430 196 408T143 342T125 238Q125 183 143 139T195 72T273 48Z" />
<glyph unicode="&#x2206;" glyph-name="increment" horiz-adv-x="630" d="M114 66H514L411 337Q355 486 338 534T313 609H312Q304 578 284 522T217 339L114 66ZM598 0H32V59L277 682H355L598 62V0Z" />
<glyph unicode="&#x220f;" glyph-name="product" horiz-adv-x="803" d="M587 -207V713H217V-207H142V713H11V780H792V713H662V-207H587Z" />
<glyph unicode="&#x2211;" glyph-name="summation" horiz-adv-x="654" d="M40 -142L347 298L56 717V780H600V714Q503 714 359 715T150 719L438 304L126 -144Q189 -142 338 -141T615 -139V-206H40V-142Z" />
<glyph unicode="&#x2212;" glyph-name="minus" horiz-adv-x="650" d="M587 292H63V352H587V292Z" />
<glyph unicode="&#x2219;" glyph-name="middot" horiz-adv-x="255" d="M80 263V381H175V263H80Z" />
<glyph unicode="&#x221a;" glyph-name="radical" horiz-adv-x="702" d="M264 -96L117 284H13V344H174L238 174Q272 87 284 51T303 -12H305Q312 17 330 68T398 253L593 778H674L337 -96H264Z" />
<glyph unicode="&#x221e;" glyph-name="infinity" horiz-adv-x="973" d="M253 180Q284 180 312 193T371 234T446 320Q400 380 371 408T313 450T253 464Q192 464 156 425T119 322Q119 258 155 219T253 180ZM720 464Q689 464 660 451T601 410T527 324Q574 262 603
235T660 194T720 180Q781 180 817 219T854 322Q854 386 818 425T720 464ZM249 120Q160 120 103 175T45 319Q45 410 104 467T256 524Q316 524 369 491T489 373Q556 458 610 491T724 524Q813 524 870 469T928 325Q928 233 869 177T717 120Q656 120 603 153T484 270Q417
186 363 153T249 120Z" />
<glyph unicode="&#x222b;" glyph-name="integral'" horiz-adv-x="338" d="M82 -217Q59 -217 35 -212T-6 -198L3 -137Q19 -145 39 -150T75 -156Q105 -156 118 -138T132 -82V651Q132 718 163 752T255 786Q277 786 300 782T344 768L335 706Q316 714 297 719T263 725Q233
725 220 707T206 651V-82Q206 -149 175 -183T82 -217Z" />
<glyph unicode="&#x2248;" glyph-name="approxequal" horiz-adv-x="650" d="M433 160Q403 160 377 167T313 198T255 227T214 233Q186 233 159 220T97 175L60 220Q97 257 136 276T217 296Q247 296 273 289T337 258T395 229T436 223Q464 223 491 236T553 280L590
236Q551 198 512 179T433 160ZM433 348Q403 348 377 355T313 386T255 415T214 421Q186 421 159 408T97 364L60 408Q98 446 137 465T217 484Q247 484 273 477T337 446T395 417T436 411Q464 411 491 424T553 469L590 424Q551 386 512 367T433 348Z" />
<glyph unicode="&#x2260;" glyph-name="notequal" horiz-adv-x="650" d="M142 27L228 199H73V259H258L320 385H73V445H350L431 610H503L420 445H577V385H390L327 259H577V199H297L214 27H142Z" />
<glyph unicode="&#x2264;" glyph-name="lessequal" horiz-adv-x="650" d="M577 197L73 396V470L577 669V596Q383 519 296 486T153 435V433Q208 415 295 382T577 272V197ZM577 0H73V60H577V0Z" />
<glyph unicode="&#x2265;" glyph-name="greaterequal" horiz-adv-x="650" d="M73 669L577 470V396L73 197V270Q267 347 354 380T497 431V433Q442 451 355 484T73 594V669ZM577 0H73V60H577V0Z" />
<glyph unicode="&#x22c5;" glyph-name="middot" horiz-adv-x="255" d="M80 263V381H175V263H80Z" />
<glyph unicode="&#x25ca;" glyph-name="lozenge" horiz-adv-x="648" d="M326 63Q336 84 366 133T498 340Q400 492 367 544T324 619H322Q312 598 281 549T150 342Q248 190 281 138T324 63H326ZM286 0L68 341L285 682H362L580 341L363 0H286Z" />
<glyph unicode="&#xf8ff;" glyph-name="uniF8FF" horiz-adv-x="821" d="M524 304H372V380H524V456H372V532H600V152H524V304ZM220 532H296V228H448V152H220V532ZM68 684H752V0H68V684ZM144 76H676V608H144V76Z" />
<glyph unicode="&#xfb01;" glyph-name="fi" horiz-adv-x="567" d="M111 421H8V478H111V576Q111 623 125 653T169 700T239 716Q260 716 284 712T323 701V640Q307 647 283 651T242 656Q220 656 207 649T188 624T181 576V478H309V421H181V0H111V421ZM412 563V684H484V563H412V563ZM413
0V478H483V0H413Z" />
<glyph unicode="&#xfb02;" glyph-name="fl" horiz-adv-x="567" d="M413 711H483V0H413V711ZM111 421H8V478H111V576Q111 623 125 653T169 700T239 716Q260 716 284 712T323 701V640Q307 647 283 651T242 656Q220 656 207 649T188 624T181 576V478H309V421H181V0H111V421Z" />
</font>
</defs>
</svg>
