<?xml version="1.0" encoding="UTF-8"?>
<svg xmlns="http://www.w3.org/2000/svg" xmlns:xlink="http://www.w3.org/1999/xlink" version="1.2" >
<font id="VolvoSansWebSuper">
<font-face  font-family="Volvo Sans Web" units-per-em="1000" ascent="750" descent="-250" font-style="normal" font-weight="800" font-stretch="normal" cap-height="706" x-height="518" underline-position="-75" underline-thickness="50" />
<missing-glyph  horiz-adv-x="500" d="M12 950 L487 950 L487 -250 L12 -250 L12 950 Z " />
<glyph glyph-name=".null" d="" />
<glyph glyph-name="nonmarkingreturn" unicode="&#xd;" horiz-adv-x="313" d="" />
<glyph glyph-name="space" unicode="&#x20;" horiz-adv-x="313" d="" />
<glyph glyph-name="A" unicode="A" horiz-adv-x="788" d="M270 706 L524 706 L788 0 L548 0 L517 99 L271 99 L240 0 L0 0 L270 706 Z M471 256 L396 505 L319 256 L471 256 Z " />
<glyph glyph-name="B" unicode="B" horiz-adv-x="736" d="M46 706 L464 706 Q549 706 600.5 680 Q652 654 676 603 Q680 594 686 574 Q692 554 692 529 Q692 497 678 459.5 Q664 422 629 393 Q616 383 604.5 377 Q593 371 581 366 Q582 366 600 360.5 Q618 355 632 347 Q664 328 687.5 294.5 Q711 261 711 204 Q711 169 704 143.5 Q697 118 690 104 Q673 68 647 47 Q621 26 592 15.5 Q563 5 533 2.5 Q503 0 478 0 L46 0 L46 706 Z M408 152 Q413 152 425.5 153 Q438 154 451 160.5 Q464 167 474 180.5 Q484 194 484 219 Q484 227 481.5 238.5 Q479 250 474 258 Q461 276 446.5 283 Q432 290 403 290 L268 290 L268 152 L408 152 Z M398 438 Q405 438 416 439.5 Q427 441 438 447 Q449 453 457 464.5 Q465 476 465 497 Q465 519 456.5 531.5 Q448 544 436.5 549.5 Q425 555 413.5 556 Q402 557 397 557 L269 557 L269 438 L398 438 Z " />
<glyph glyph-name="C" unicode="C" horiz-adv-x="740" d="M737 182 Q723 158 711 137.5 Q699 117 678 94 Q640 52 596.5 28.5 Q553 5 513.5 -6 Q474 -17 442.5 -19.5 Q411 -22 396 -22 L389 -22 Q334 -22 296 -12.5 Q258 -3 235 7 Q199 23 162 51.5 Q125 80 95 122.5 Q65 165 46 222 Q27 279 27 352 Q27 424 51.5 492.5 Q76 561 123 614.5 Q170 668 238.5 700 Q307 732 394 732 Q448 732 493.5 720.5 Q539 709 576.5 690.5 Q614 672 643 648 Q672 624 692 600 Q711 578 721 560.5 Q731 543 736 535 L549 442 Q543 456 532.5 476 Q522 496 505 514.5 Q488 533 463.5 546 Q439 559 403 559 Q373 559 345.5 547.5 Q318 536 298 512 Q278 488 266 451.5 Q254 415 254 365 Q254 261 295.5 209.5 Q337 158 401 158 Q407 158 422 159 Q437 160 455.5 167.5 Q474 175 494 190 Q514 205 530 234 Q537 246 539.5 254.5 Q542 263 546 274 L737 182 Z " />
<glyph glyph-name="D" unicode="D" horiz-adv-x="753" d="M46 706 L302 706 Q330 706 362 705.5 Q394 705 426.5 702 Q459 699 490 693 Q521 687 547 677 Q612 650 648 604.5 Q684 559 701.5 511.5 Q719 464 722.5 424.5 Q726 385 726 370 L726 349 Q726 335 724.5 309.5 Q723 284 716.5 252.5 Q710 221 697 186.5 Q684 152 662 120 Q640 88 607.5 61.5 Q575 35 529 19 Q490 5 446.5 2.5 Q403 0 364 0 L46 0 L46 706 Z M355 162 Q372 162 389 165 Q406 168 423 177 Q448 191 463.5 213.5 Q479 236 487.5 261 Q496 286 498.5 310.5 Q501 335 501 353 Q501 369 498.5 392 Q496 415 489 439 Q482 463 469 485.5 Q456 508 435 522 Q425 529 412.5 532.5 Q400 536 389 538 Q378 540 369 540.5 Q360 541 356 541 L270 541 L270 162 L355 162 Z " />
<glyph glyph-name="E" unicode="E" horiz-adv-x="648" d="M46 706 L605 706 L605 551 L270 551 L270 446 L583 446 L583 293 L269 293 L269 153 L635 153 L635 0 L46 0 L46 706 Z " />
<glyph glyph-name="F" unicode="F" horiz-adv-x="612" d="M46 706 L604 706 L604 551 L268 551 L268 424 L582 424 L582 271 L268 271 L268 0 L46 0 L46 706 Z " />
<glyph glyph-name="G" unicode="G" horiz-adv-x="792" d="M587 49 Q570 37 560.5 31 Q551 25 543 20 Q520 7 475.5 -6 Q431 -19 376 -19 Q305 -19 251.5 2 Q198 23 158.5 54.5 Q119 86 93.5 123.5 Q68 161 55 194 Q44 219 38.5 243.5 Q33 268 30.5 288.5 Q28 309 27.5 324.5 Q27 340 27 348 Q27 432 54 503 Q81 574 130 625.5 Q179 677 248.5 706 Q318 735 404 735 Q439 735 480.5 728.5 Q522 722 564 707 Q606 692 644.5 666.5 Q683 641 713 604 Q730 581 740 560.5 Q750 540 758 517 L558 460 Q558 461 556.5 466.5 Q555 472 553 479.5 Q551 487 548 495 Q545 503 541 510 Q530 527 515 538 Q500 549 483.5 555 Q467 561 450.5 563.5 Q434 566 420 566 Q389 566 359.5 556.5 Q330 547 306.5 523 Q283 499 268.5 459 Q254 419 254 358 Q254 299 269 259.5 Q284 220 308 195 Q332 170 363 159.5 Q394 149 426 149 L433 149 Q441 149 456 150.5 Q471 152 488 158 Q505 164 522 176.5 Q539 189 550 210 Q556 221 560 249 L429 249 L429 391 L753 391 L753 0 L587 0 L587 49 Z " />
<glyph glyph-name="H" unicode="H" horiz-adv-x="753" d="M46 706 L269 706 L269 449 L482 449 L482 706 L707 706 L707 0 L482 0 L482 272 L269 272 L269 0 L46 0 L46 706 Z " />
<glyph glyph-name="I" unicode="I" horiz-adv-x="316" d="M46 706 L270 706 L270 0 L46 0 L46 706 Z " />
<glyph glyph-name="J" unicode="J" horiz-adv-x="411" d="M0 174 Q12 171 22.5 169.5 Q33 168 56 168 Q87 168 105.5 174 Q124 180 133.5 191 Q143 202 145.5 216.5 Q148 231 148 249 L148 706 L371 706 L371 196 Q371 164 367 134 Q363 104 349.5 79 Q336 54 311 35.5 Q286 17 243 8 Q233 6 224 4.5 Q215 3 204.5 2 Q194 1 180.5 0.5 Q167 0 149 0 L0 0 L0 174 Z " />
<glyph glyph-name="K" unicode="K" horiz-adv-x="773" d="M46 706 L269 706 L269 439 L491 706 L763 706 L518 438 L781 0 L530 0 L374 282 L269 167 L269 0 L46 0 L46 706 Z " />
<glyph glyph-name="L" unicode="L" horiz-adv-x="544" d="M46 706 L269 706 L269 178 L542 178 L542 0 L46 0 L46 706 Z " />
<glyph glyph-name="M" unicode="M" horiz-adv-x="960" d="M46 706 L366 706 L452 380 Q462 339 468.5 305.5 Q475 272 481 230 Q485 254 488 275.5 Q491 297 495 317.5 Q499 338 503.5 358.5 Q508 379 514 403 L594 706 L914 706 L914 0 L701 0 L701 408 Q701 443 703 470.5 Q705 498 707 533 Q700 501 694 476 Q688 451 679 419 L562 0 L396 0 L287 397 Q277 434 270 463 Q263 492 254 529 Q256 503 257 481.5 Q258 460 258 434 L258 0 L46 0 L46 706 Z " />
<glyph glyph-name="N" unicode="N" horiz-adv-x="774" d="M46 706 L283 706 L441 439 Q455 416 466 395 Q477 374 487.5 353.5 Q498 333 507.5 311.5 Q517 290 528 266 Q523 311 521 347 Q519 383 519 429 L519 706 L728 706 L728 0 L487 0 L345 244 Q330 269 318 291.5 Q306 314 294.5 336 Q283 358 271.5 381 Q260 404 247 430 Q250 390 252 358 Q254 326 254 286 L254 0 L46 0 L46 706 Z " />
<glyph glyph-name="O" unicode="O" horiz-adv-x="812" d="M42 238 Q31 280 29 310.5 Q27 341 27 357 Q27 417 39 459 Q51 501 62 525 Q88 585 127.5 625 Q167 665 214.5 688.5 Q262 712 313.5 722 Q365 732 415 732 Q455 732 499 724.5 Q543 717 585 698 Q621 681 657 651.5 Q693 622 721.5 580 Q750 538 767.5 482.5 Q785 427 785 358 Q785 288 769 239.5 Q753 191 738 162 Q718 125 689 91.5 Q660 58 619 32.5 Q578 7 524.5 -8 Q471 -23 404 -23 Q315 -23 251.5 1 Q188 25 145.5 63 Q103 101 78.5 147.5 Q54 194 42 238 Z M407 156 Q454 156 484 177 Q514 198 531 228.5 Q548 259 554 293.5 Q560 328 560 356 Q560 425 541.5 467 Q523 509 488 532 Q477 540 456.5 547 Q436 554 407 554 Q380 554 358 547 Q323 535 302 512 Q281 489 269.5 461 Q258 433 254.5 404 Q251 375 251 352 Q251 296 263.5 258.5 Q276 221 297.5 198.5 Q319 176 347 166 Q375 156 407 156 Z " />
<glyph glyph-name="P" unicode="P" horiz-adv-x="730" d="M46 706 L449 706 Q480 706 518 702.5 Q556 699 587 685 Q631 665 656 635.5 Q681 606 693 575.5 Q705 545 707.5 519 Q710 493 710 481 L710 475 Q710 417 695.5 380 Q681 343 661 318 Q641 291 617 273.5 Q593 256 567 246 Q535 235 504 232.5 Q473 230 442 230 L270 230 L270 0 L46 0 L46 706 Z M397 378 Q414 378 423.5 380 Q433 382 441 386 Q458 394 467.5 406 Q477 418 481.5 430 Q486 442 487 452 Q488 462 488 467 L488 469 Q488 501 477 519 Q466 537 451 545.5 Q436 554 420.5 556 Q405 558 396 558 L270 558 L270 378 L397 378 Z " />
<glyph glyph-name="Q" unicode="Q" horiz-adv-x="812" d="M755 -83 Q731 -79 709 -73 Q687 -67 665.5 -56.5 Q644 -46 623 -30 Q602 -14 579 11 Q544 -5 500.5 -14 Q457 -23 404 -23 Q315 -23 251.5 1 Q188 25 145.5 63 Q103 101 78.5 147.5 Q54 194 42 238 Q31 280 29 310.5 Q27 341 27 357 Q27 417 39 459 Q51 501 62 525 Q88 585 127.5 625 Q167 665 214.5 688.5 Q262 712 313.5 722 Q365 732 415 732 Q455 732 499 724.5 Q543 717 585 698 Q621 681 657 651.5 Q693 622 721.5 580 Q750 538 767.5 482.5 Q785 427 785 358 Q785 288 769 239.5 Q753 191 738 162 Q729 143 712 120 Q734 105 749.5 96 Q765 87 777 82 Q789 77 800 75 Q811 73 823 72 L755 -83 Z M407 156 Q454 156 484 177 Q514 198 531 228.5 Q548 259 554 293.5 Q560 328 560 356 Q560 425 541.5 467 Q523 509 488 532 Q477 540 456.5 547 Q436 554 407 554 Q380 554 358 547 Q323 535 302 512 Q281 489 269.5 461 Q258 433 254.5 404 Q251 375 251 352 Q251 296 263.5 258.5 Q276 221 297.5 198.5 Q319 176 347 166 Q375 156 407 156 Z " />
<glyph glyph-name="R" unicode="R" horiz-adv-x="725" d="M46 706 L427 706 Q456 706 488.5 704 Q521 702 553.5 691.5 Q586 681 615 660 Q644 639 665 600 Q675 583 684.5 552.5 Q694 522 694 480 Q694 417 669 376.5 Q644 336 612 314 Q598 305 580.5 297.5 Q563 290 549 285 L722 0 L472 0 L335 249 L270 249 L270 0 L46 0 L46 706 Z M374 394 Q384 394 400.5 396 Q417 398 433 406.5 Q449 415 460 431.5 Q471 448 471 477 Q471 505 461 521 Q451 537 435 545 Q419 553 399.5 555.5 Q380 558 361 558 L270 558 L270 394 L374 394 Z " />
<glyph glyph-name="S" unicode="S" horiz-adv-x="723" d="M171 244 Q177 235 181.5 228.5 Q186 222 189.5 217.5 Q193 213 196.5 209 Q200 205 206 200 Q222 186 243 176.5 Q264 167 286.5 161.5 Q309 156 330.5 153.5 Q352 151 368 151 Q389 151 408.5 154 Q428 157 442.5 163.5 Q457 170 466 180.5 Q475 191 475 205 Q475 221 466.5 229 Q458 237 450 242 Q439 248 419.5 252.5 Q400 257 374.5 262 Q349 267 319 272.5 Q289 278 258 286 Q241 290 208 300 Q175 310 142 332.5 Q109 355 84 393.5 Q59 432 59 493 Q59 539 77 582 Q95 625 133.5 657.5 Q172 690 231 709.5 Q290 729 371 729 L374 729 Q384 729 412.5 727.5 Q441 726 478 719 Q515 712 556.5 696.5 Q598 681 636 653 Q656 638 669.5 624 Q683 610 689 604 L548 487 Q540 498 534.5 503.5 Q529 509 523 514 Q502 532 461.5 545.5 Q421 559 363 559 Q331 559 306.5 548.5 Q282 538 282 514 Q282 500 287.5 493 Q293 486 300 481 Q309 475 327 470.5 Q345 466 369.5 461.5 Q394 457 422 452 Q450 447 478 440 Q519 431 557.5 417 Q596 403 626 379 Q656 355 674.5 318.5 Q693 282 693 227 Q693 178 673.5 133.5 Q654 89 613 54.5 Q572 20 509 -0.5 Q446 -21 359 -21 Q323 -21 283.5 -17.5 Q244 -14 204.5 -3.5 Q165 7 127 26 Q89 45 55 75 Q35 92 24.5 105 Q14 118 0 135 L171 244 Z " />
<glyph glyph-name="T" unicode="T" horiz-adv-x="598" d="M188 532 L8 532 L8 706 L590 706 L590 532 L411 532 L411 0 L188 0 L188 532 Z " />
<glyph glyph-name="U" unicode="U" horiz-adv-x="724" d="M40 706 L264 706 L264 261 Q264 251 266 233 Q268 215 277 197.5 Q286 180 305 167 Q324 154 359 154 Q396 154 416.5 167 Q437 180 446.5 198 Q456 216 457.5 234 Q459 252 459 263 L459 706 L684 706 L684 283 Q684 254 680 224 Q676 194 665 165 Q645 111 610.5 75.5 Q576 40 534.5 19 Q493 -2 448.5 -10.5 Q404 -19 365 -19 Q329 -19 283.5 -12 Q238 -5 193.5 14 Q149 33 111.5 67.5 Q74 102 56 157 Q45 187 42.5 221.5 Q40 256 40 287 L40 706 Z " />
<glyph glyph-name="V" unicode="V" horiz-adv-x="708" d="M0 706 L228 706 L312 426 Q321 395 327 373.5 Q333 352 337.5 332 Q342 312 345.5 290.5 Q349 269 353 238 Q358 266 361 285 Q364 304 368 321 Q372 338 377 356.5 Q382 375 390 403 L479 706 L708 706 L469 0 L236 0 L0 706 Z " />
<glyph glyph-name="W" unicode="W" horiz-adv-x="1042" d="M0 706 L218 706 L287 398 Q294 368 298.5 346.5 Q303 325 306.5 305.5 Q310 286 312.5 264.5 Q315 243 318 213 Q325 265 333 306.5 Q341 348 353 399 L426 706 L615 706 L692 399 Q700 368 704.5 347 Q709 326 712.5 306.5 Q716 287 718.5 266 Q721 245 725 214 Q728 239 731 261 Q734 283 737.5 304 Q741 325 745 346.5 Q749 368 755 393 L825 706 L1042 706 L866 0 L627 0 L563 256 Q555 286 549.5 313 Q544 340 539 365.5 Q534 391 529 418 Q524 445 519 475 Q516 447 512.5 423 Q509 399 505 375.5 Q501 352 496 328 Q491 304 484 277 L416 0 L176 0 L0 706 Z " />
<glyph glyph-name="X" unicode="X" horiz-adv-x="835" d="M273 379 L44 706 L306 706 L418 512 L532 706 L787 706 L564 380 L835 0 L572 0 L418 254 L262 0 L0 0 L273 379 Z " />
<glyph glyph-name="Y" unicode="Y" horiz-adv-x="791" d="M283 297 L0 706 L258 706 L397 471 L533 706 L791 706 L507 297 L507 0 L283 0 L283 297 Z " />
<glyph glyph-name="Z" unicode="Z" horiz-adv-x="670" d="M5 141 L367 537 L26 537 L26 706 L657 706 L657 562 L301 172 L656 172 L656 0 L5 0 L5 141 Z " />
<glyph glyph-name="Agrave" unicode="&#xc0;" horiz-adv-x="788" d="M270 706 L524 706 L788 0 L548 0 L517 99 L271 99 L240 0 L0 0 L270 706 Z M471 256 L396 505 L319 256 L471 256 Z M422 874 L487 754 L355 754 L205 874 L422 874 Z " />
<glyph glyph-name="Aacute" unicode="&#xc1;" horiz-adv-x="788" d="M270 706 L524 706 L788 0 L548 0 L517 99 L271 99 L240 0 L0 0 L270 706 Z M471 256 L396 505 L319 256 L471 256 Z M373 874 L590 874 L440 754 L308 754 L373 874 Z " />
<glyph glyph-name="Acircumflex" unicode="&#xc2;" horiz-adv-x="788" d="M270 706 L524 706 L788 0 L548 0 L517 99 L271 99 L240 0 L0 0 L270 706 Z M471 256 L396 505 L319 256 L471 256 Z M312 874 L473 874 L569 751 L425 751 L391 804 L360 751 L219 751 L312 874 Z " />
<glyph glyph-name="Atilde" unicode="&#xc3;" horiz-adv-x="788" d="M270 706 L524 706 L788 0 L548 0 L517 99 L271 99 L240 0 L0 0 L270 706 Z M471 256 L396 505 L319 256 L471 256 Z M200 756 Q205 780 212 801.5 Q219 823 231.5 840 Q244 857 264 867 Q284 877 314 877 L318 877 Q343 877 365 872.5 Q387 868 412 863 Q442 857 453 857 Q467 857 473 863 Q479 869 481 877 L588 877 Q586 866 582 845.5 Q578 825 566 805 Q554 785 531.5 770 Q509 755 469 755 Q450 755 429 759 Q408 763 370 771 Q354 774 344 776.5 Q334 779 326 779 Q309 779 306 771 Q303 763 302 756 L200 756 Z " />
<glyph glyph-name="Adieresis" unicode="&#xc4;" horiz-adv-x="788" d="M270 706 L524 706 L788 0 L548 0 L517 99 L271 99 L240 0 L0 0 L270 706 Z M471 256 L396 505 L319 256 L471 256 Z M429 876 L595 876 L595 757 L429 757 L429 876 Z M200 876 L365 876 L365 757 L200 757 L200 876 Z " />
<glyph glyph-name="Amacron" unicode="&#x100;" horiz-adv-x="788" d="M270 706 L524 706 L788 0 L548 0 L517 99 L271 99 L240 0 L0 0 L270 706 Z M471 256 L396 505 L319 256 L471 256 Z M187 855 L597 855 L597 762 L187 762 L187 855 Z " />
<glyph glyph-name="Abreve" unicode="&#x102;" horiz-adv-x="788" d="M270 706 L524 706 L788 0 L548 0 L517 99 L271 99 L240 0 L0 0 L270 706 Z M471 256 L396 505 L319 256 L471 256 Z M353 903 L353 894 Q353 867 366 858 Q379 849 393 849 Q413 849 423 861.5 Q433 874 433 892 L433 903 L553 903 Q550 886 542.5 860 Q535 834 518 810 Q501 786 471.5 768.5 Q442 751 393 751 Q359 751 334.5 760 Q310 769 292.5 783 Q275 797 264.5 814.5 Q254 832 248 849 Q242 866 240.5 882 Q239 898 239 903 L353 903 Z " />
<glyph glyph-name="Aring" unicode="&#xc5;" horiz-adv-x="788" d="M270 706 L524 706 L788 0 L548 0 L517 99 L271 99 L240 0 L0 0 L270 706 Z M471 256 L396 505 L319 256 L471 256 Z M290 855 Q290 878 299 898 Q308 918 323 933 Q338 948 358 957 Q378 966 401 966 Q424 966 444 957 Q464 948 479 933 Q494 918 503 898 Q512 878 512 855 Q512 832 503 812 Q494 792 479 777 Q464 762 444 753 Q424 744 401 744 Q378 744 358 753 Q338 762 323 777 Q308 792 299 812 Q290 832 290 855 Z M401 819 Q416 819 426.5 829.5 Q437 840 437 855 Q437 870 426.5 880.5 Q416 891 401 891 Q386 891 375.5 880.5 Q365 870 365 855 Q365 840 375.5 829.5 Q386 819 401 819 Z " />
<glyph glyph-name="Aogonek" unicode="&#x104;" horiz-adv-x="788" d="M270 706 L524 706 L788 0 L692 0 Q686 -5 676.5 -12.5 Q667 -20 658 -30.5 Q649 -41 642.5 -54.5 Q636 -68 636 -84 Q636 -102 643.5 -113 Q651 -124 660.5 -130 Q670 -136 679.5 -137.5 Q689 -139 693 -139 Q704 -139 713 -135.5 Q722 -132 733 -127 L737 -175 Q720 -183 698.5 -189 Q677 -195 642 -195 Q613 -195 593 -187 Q573 -179 560.5 -166.5 Q548 -154 542 -138.5 Q536 -123 536 -109 Q536 -82 550 -62.5 Q564 -43 582 -29.5 Q600 -16 616.5 -9 Q633 -2 637 0 L548 0 L517 99 L271 99 L240 0 L0 0 L270 706 Z M471 256 L396 505 L319 256 L471 256 Z " />
<glyph glyph-name="AE" unicode="&#xc6;" horiz-adv-x="1102" d="M396 706 L1054 706 L1054 553 L729 553 L729 447 L1029 447 L1029 292 L729 292 L729 155 L1089 155 L1089 0 L513 0 L513 100 L286 100 L235 0 L-17 0 L396 706 Z M514 254 L514 385 Q514 436 515.5 477 Q517 518 520 569 Q507 538 497 513 Q487 488 472 459 L366 254 L514 254 Z " />
<glyph glyph-name="Cacute" unicode="&#x106;" horiz-adv-x="740" d="M737 182 Q723 158 711 137.5 Q699 117 678 94 Q640 52 596.5 28.5 Q553 5 513.5 -6 Q474 -17 442.5 -19.5 Q411 -22 396 -22 L389 -22 Q334 -22 296 -12.5 Q258 -3 235 7 Q199 23 162 51.5 Q125 80 95 122.5 Q65 165 46 222 Q27 279 27 352 Q27 424 51.5 492.5 Q76 561 123 614.5 Q170 668 238.5 700 Q307 732 394 732 Q448 732 493.5 720.5 Q539 709 576.5 690.5 Q614 672 643 648 Q672 624 692 600 Q711 578 721 560.5 Q731 543 736 535 L549 442 Q543 456 532.5 476 Q522 496 505 514.5 Q488 533 463.5 546 Q439 559 403 559 Q373 559 345.5 547.5 Q318 536 298 512 Q278 488 266 451.5 Q254 415 254 365 Q254 261 295.5 209.5 Q337 158 401 158 Q407 158 422 159 Q437 160 455.5 167.5 Q474 175 494 190 Q514 205 530 234 Q537 246 539.5 254.5 Q542 263 546 274 L737 182 Z M375 874 L592 874 L442 754 L310 754 L375 874 Z " />
<glyph glyph-name="Ccaron" unicode="&#x10c;" horiz-adv-x="740" d="M737 182 Q723 158 711 137.5 Q699 117 678 94 Q640 52 596.5 28.5 Q553 5 513.5 -6 Q474 -17 442.5 -19.5 Q411 -22 396 -22 L389 -22 Q334 -22 296 -12.5 Q258 -3 235 7 Q199 23 162 51.5 Q125 80 95 122.5 Q65 165 46 222 Q27 279 27 352 Q27 424 51.5 492.5 Q76 561 123 614.5 Q170 668 238.5 700 Q307 732 394 732 Q448 732 493.5 720.5 Q539 709 576.5 690.5 Q614 672 643 648 Q672 624 692 600 Q711 578 721 560.5 Q731 543 736 535 L549 442 Q543 456 532.5 476 Q522 496 505 514.5 Q488 533 463.5 546 Q439 559 403 559 Q373 559 345.5 547.5 Q318 536 298 512 Q278 488 266 451.5 Q254 415 254 365 Q254 261 295.5 209.5 Q337 158 401 158 Q407 158 422 159 Q437 160 455.5 167.5 Q474 175 494 190 Q514 205 530 234 Q537 246 539.5 254.5 Q542 263 546 274 L737 182 Z M219 874 L363 874 L397 822 L428 874 L569 874 L476 751 L315 751 L219 874 Z " />
<glyph glyph-name="Ccedilla" unicode="&#xc7;" horiz-adv-x="740" d="M273 -156 Q276 -157 281.5 -158.5 Q287 -160 295 -160 Q312 -160 325 -154.5 Q338 -149 338 -138 Q338 -126 328.5 -123.5 Q319 -121 313 -121 Q302 -121 289 -124 Q276 -127 275 -127 L278 -92 L327 -18 Q296 -13 273 -6.5 Q250 0 235 7 Q199 23 162 51.5 Q125 80 95 122.5 Q65 165 46 222 Q27 279 27 352 Q27 424 51.5 492.5 Q76 561 123 614.5 Q170 668 238.5 700 Q307 732 394 732 Q448 732 493.5 720.5 Q539 709 576.5 690.5 Q614 672 643 648 Q672 624 692 600 Q711 578 721 560.5 Q731 543 736 535 L549 442 Q543 456 532.5 476 Q522 496 505 514.5 Q488 533 463.5 546 Q439 559 403 559 Q373 559 345.5 547.5 Q318 536 298 512 Q278 488 266 451.5 Q254 415 254 365 Q254 261 295.5 209.5 Q337 158 401 158 Q407 158 422 159 Q437 160 455.5 167.5 Q474 175 494 190 Q514 205 530 234 Q537 246 539.5 254.5 Q542 263 546 274 L737 182 Q723 158 711 137.5 Q699 117 678 94 Q640 52 596.5 28.5 Q553 5 513.5 -6 Q474 -17 442.5 -19.5 Q411 -22 396 -22 L389 -22 L385 -22 L367 -59 Q374 -58 381 -57.5 Q388 -57 395 -57 Q418 -57 434 -64.5 Q450 -72 459.5 -82.5 Q469 -93 473 -106 Q477 -119 477 -129 Q477 -134 474.5 -147.5 Q472 -161 460 -176 Q437 -205 406.5 -211.5 Q376 -218 351 -218 Q320 -218 302.5 -215.5 Q285 -213 270 -211 L273 -156 Z " />
<glyph glyph-name="Dcaron" unicode="&#x10e;" horiz-adv-x="753" d="M46 706 L302 706 Q330 706 362 705.5 Q394 705 426.5 702 Q459 699 490 693 Q521 687 547 677 Q612 650 648 604.5 Q684 559 701.5 511.5 Q719 464 722.5 424.5 Q726 385 726 370 L726 349 Q726 335 724.5 309.5 Q723 284 716.5 252.5 Q710 221 697 186.5 Q684 152 662 120 Q640 88 607.5 61.5 Q575 35 529 19 Q490 5 446.5 2.5 Q403 0 364 0 L46 0 L46 706 Z M355 162 Q372 162 389 165 Q406 168 423 177 Q448 191 463.5 213.5 Q479 236 487.5 261 Q496 286 498.5 310.5 Q501 335 501 353 Q501 369 498.5 392 Q496 415 489 439 Q482 463 469 485.5 Q456 508 435 522 Q425 529 412.5 532.5 Q400 536 389 538 Q378 540 369 540.5 Q360 541 356 541 L270 541 L270 162 L355 162 Z M156 874 L300 874 L334 822 L365 874 L506 874 L413 751 L252 751 L156 874 Z " />
<glyph glyph-name="Dcroat" unicode="&#x110;" horiz-adv-x="753" d="M46 300 L2 300 L2 431 L46 431 L46 706 L302 706 Q330 706 362 705.5 Q394 705 426.5 702 Q459 699 490 693 Q521 687 547 677 Q590 659 620 632 Q650 605 670 573.5 Q690 542 701.5 508.5 Q713 475 718.5 444.5 Q724 414 725 389 Q726 364 726 349 Q726 335 724.5 309.5 Q723 284 716.5 252.5 Q710 221 697 186.5 Q684 152 662 120 Q640 88 607.5 61.5 Q575 35 529 19 Q490 5 446.5 2.5 Q403 0 364 0 L46 0 L46 300 Z M355 162 Q372 162 389 165 Q406 168 423 177 Q448 191 463.5 213.5 Q479 236 487.5 261 Q496 286 498.5 310.5 Q501 335 501 353 Q501 369 498.5 392 Q496 415 489 439 Q482 463 469 485.5 Q456 508 435 522 Q425 529 412.5 532.5 Q400 536 389 538 Q378 540 369 540.5 Q360 541 356 541 L270 541 L270 431 L414 431 L414 300 L270 300 L270 162 L355 162 Z " />
<glyph glyph-name="Egrave" unicode="&#xc8;" horiz-adv-x="648" d="M46 706 L605 706 L605 551 L270 551 L270 446 L583 446 L583 293 L269 293 L269 153 L635 153 L635 0 L46 0 L46 706 Z M372 874 L437 754 L305 754 L155 874 L372 874 Z " />
<glyph glyph-name="Eacute" unicode="&#xc9;" horiz-adv-x="648" d="M46 706 L605 706 L605 551 L270 551 L270 446 L583 446 L583 293 L269 293 L269 153 L635 153 L635 0 L46 0 L46 706 Z M311 874 L528 874 L378 754 L246 754 L311 874 Z " />
<glyph glyph-name="Ecircumflex" unicode="&#xca;" horiz-adv-x="648" d="M46 706 L605 706 L605 551 L270 551 L270 446 L583 446 L583 293 L269 293 L269 153 L635 153 L635 0 L46 0 L46 706 Z M244 874 L405 874 L501 751 L357 751 L323 804 L292 751 L151 751 L244 874 Z " />
<glyph glyph-name="Ecaron" unicode="&#x11a;" horiz-adv-x="648" d="M46 706 L605 706 L605 551 L270 551 L270 446 L583 446 L583 293 L269 293 L269 153 L635 153 L635 0 L46 0 L46 706 Z M160 874 L304 874 L338 822 L369 874 L510 874 L417 751 L256 751 L160 874 Z " />
<glyph glyph-name="Edieresis" unicode="&#xcb;" horiz-adv-x="648" d="M46 706 L605 706 L605 551 L270 551 L270 446 L583 446 L583 293 L269 293 L269 153 L635 153 L635 0 L46 0 L46 706 Z M354 876 L520 876 L520 757 L354 757 L354 876 Z M125 876 L290 876 L290 757 L125 757 L125 876 Z " />
<glyph glyph-name="Emacron" unicode="&#x112;" horiz-adv-x="648" d="M46 706 L605 706 L605 551 L270 551 L270 446 L583 446 L583 293 L269 293 L269 153 L635 153 L635 0 L46 0 L46 706 Z M119 855 L529 855 L529 762 L119 762 L119 855 Z " />
<glyph glyph-name="Edotaccent" unicode="&#x116;" horiz-adv-x="648" d="M46 706 L605 706 L605 551 L270 551 L270 446 L583 446 L583 293 L269 293 L269 153 L635 153 L635 0 L46 0 L46 706 Z M241 876 L407 876 L407 757 L241 757 L241 876 Z " />
<glyph glyph-name="Eogonek" unicode="&#x118;" horiz-adv-x="648" d="M46 706 L605 706 L605 551 L270 551 L270 446 L583 446 L583 293 L269 293 L269 153 L635 153 L635 0 L571 0 Q565 -5 555.5 -12.5 Q546 -20 537 -30.5 Q528 -41 521.5 -54.5 Q515 -68 515 -84 Q515 -102 522.5 -113 Q530 -124 539.5 -130 Q549 -136 558.5 -137.5 Q568 -139 572 -139 Q583 -139 592 -135.5 Q601 -132 612 -127 L616 -175 Q599 -183 577.5 -189 Q556 -195 521 -195 Q492 -195 472 -187 Q452 -179 439.5 -166.5 Q427 -154 421 -138.5 Q415 -123 415 -109 Q415 -82 429 -62.5 Q443 -43 461 -29.5 Q479 -16 495.5 -9 Q512 -2 516 0 L46 0 L46 706 Z " />
<glyph glyph-name="Gbreve" unicode="&#x11e;" horiz-adv-x="792" d="M587 49 Q570 37 560.5 31 Q551 25 543 20 Q520 7 475.5 -6 Q431 -19 376 -19 Q305 -19 251.5 2 Q198 23 158.5 54.5 Q119 86 93.5 123.5 Q68 161 55 194 Q44 219 38.5 243.5 Q33 268 30.5 288.5 Q28 309 27.5 324.5 Q27 340 27 348 Q27 432 54 503 Q81 574 130 625.5 Q179 677 248.5 706 Q318 735 404 735 Q439 735 480.5 728.5 Q522 722 564 707 Q606 692 644.5 666.5 Q683 641 713 604 Q730 581 740 560.5 Q750 540 758 517 L558 460 Q558 461 556.5 466.5 Q555 472 553 479.5 Q551 487 548 495 Q545 503 541 510 Q530 527 515 538 Q500 549 483.5 555 Q467 561 450.5 563.5 Q434 566 420 566 Q389 566 359.5 556.5 Q330 547 306.5 523 Q283 499 268.5 459 Q254 419 254 358 Q254 299 269 259.5 Q284 220 308 195 Q332 170 363 159.5 Q394 149 426 149 L433 149 Q441 149 456 150.5 Q471 152 488 158 Q505 164 522 176.5 Q539 189 550 210 Q556 221 560 249 L429 249 L429 391 L753 391 L753 0 L587 0 L587 49 Z M368 903 L368 894 Q368 867 381 858 Q394 849 408 849 Q428 849 438 861.5 Q448 874 448 892 L448 903 L568 903 Q565 886 557.5 860 Q550 834 533 810 Q516 786 486.5 768.5 Q457 751 408 751 Q374 751 349.5 760 Q325 769 307.5 783 Q290 797 279.5 814.5 Q269 832 263 849 Q257 866 255.5 882 Q254 898 254 903 L368 903 Z " />
<glyph glyph-name="Gcommaaccent" unicode="&#x122;" horiz-adv-x="792" d="M228 -138 Q279 -147 336 -147 Q378 -147 392.5 -136 Q407 -125 407 -107 Q407 -93 395 -82.5 Q383 -72 357 -72 Q322 -72 276 -81 L290 -23 Q299 -21 308 -19.5 Q317 -18 326 -16 Q267 -9 222 13.5 Q177 36 144 66 Q111 96 89 130 Q67 164 55 194 Q44 219 38.5 243.5 Q33 268 30.5 288.5 Q28 309 27.5 324.5 Q27 340 27 348 Q27 432 54 503 Q81 574 130 625.5 Q179 677 248.5 706 Q318 735 404 735 Q439 735 480.5 728.5 Q522 722 564 707 Q606 692 644.5 666.5 Q683 641 713 604 Q730 581 740 560.5 Q750 540 758 517 L558 460 Q558 461 556.5 466.5 Q555 472 553 479.5 Q551 487 548 495 Q545 503 541 510 Q530 527 515 538 Q500 549 483.5 555 Q467 561 450.5 563.5 Q434 566 420 566 Q389 566 359.5 556.5 Q330 547 306.5 523 Q283 499 268.5 459 Q254 419 254 358 Q254 299 269 259.5 Q284 220 308 195 Q332 170 363 159.5 Q394 149 426 149 L433 149 Q441 149 456 150.5 Q471 152 488 158 Q505 164 522 176.5 Q539 189 550 210 Q556 221 560 249 L429 249 L429 391 L753 391 L753 0 L587 0 L587 49 Q570 37 560.5 31 Q551 25 543 20 Q525 10 494.5 0 Q464 -10 426 -15 Q481 -23 502 -48.5 Q523 -74 523 -107 Q523 -125 515 -143.5 Q507 -162 488 -177 Q469 -192 437.5 -201 Q406 -210 359 -210 Q303 -210 228 -198 L228 -138 Z " />
<glyph glyph-name="Igrave" unicode="&#xcc;" horiz-adv-x="316" d="M46 706 L270 706 L270 0 L46 0 L46 706 Z M199 874 L264 754 L132 754 L-18 874 L199 874 Z " />
<glyph glyph-name="Iacute" unicode="&#xcd;" horiz-adv-x="316" d="M46 706 L270 706 L270 0 L46 0 L46 706 Z M112 874 L329 874 L179 754 L47 754 L112 874 Z " />
<glyph glyph-name="Icircumflex" unicode="&#xce;" horiz-adv-x="316" d="M46 706 L270 706 L270 0 L46 0 L46 706 Z M76 874 L237 874 L333 751 L189 751 L155 804 L124 751 L-17 751 L76 874 Z " />
<glyph glyph-name="Idieresis" unicode="&#xcf;" horiz-adv-x="316" d="M46 706 L270 706 L270 0 L46 0 L46 706 Z M189 876 L355 876 L355 757 L189 757 L189 876 Z M-40 876 L125 876 L125 757 L-40 757 L-40 876 Z " />
<glyph glyph-name="Imacron" unicode="&#x12a;" horiz-adv-x="316" d="M46 706 L270 706 L270 0 L46 0 L46 706 Z M-47 855 L363 855 L363 762 L-47 762 L-47 855 Z " />
<glyph glyph-name="Idotaccent" unicode="&#x130;" horiz-adv-x="316" d="M46 706 L270 706 L270 0 L46 0 L46 706 Z M75 876 L241 876 L241 757 L75 757 L75 876 Z " />
<glyph glyph-name="Iogonek" unicode="&#x12e;" horiz-adv-x="316" d="M46 706 L270 706 L270 0 L213 0 Q207 -5 197.5 -12.5 Q188 -20 179 -30.5 Q170 -41 163.5 -54.5 Q157 -68 157 -84 Q157 -102 164.5 -113 Q172 -124 181.5 -130 Q191 -136 200.5 -137.5 Q210 -139 214 -139 Q225 -139 234 -135.5 Q243 -132 254 -127 L258 -175 Q241 -183 219.5 -189 Q198 -195 163 -195 Q134 -195 114 -187 Q94 -179 81.5 -166.5 Q69 -154 63 -138.5 Q57 -123 57 -109 Q57 -82 71 -62.5 Q85 -43 103 -29.5 Q121 -16 137.5 -9 Q154 -2 158 0 L46 0 L46 706 Z " />
<glyph glyph-name="Kcommaaccent" unicode="&#x136;" horiz-adv-x="773" d="M46 706 L269 706 L269 439 L491 706 L763 706 L518 438 L781 0 L530 0 L374 282 L269 167 L269 0 L46 0 L46 706 Z M249 -138 Q300 -147 357 -147 Q399 -147 413.5 -136 Q428 -125 428 -107 Q428 -93 416 -82.5 Q404 -72 378 -72 Q343 -72 297 -81 L311 -23 Q334 -18 355.5 -15 Q377 -12 397 -12 Q439 -12 467 -19.5 Q495 -27 512.5 -40 Q530 -53 537 -70.5 Q544 -88 544 -107 Q544 -125 536 -143.5 Q528 -162 509 -177 Q490 -192 458.5 -201 Q427 -210 380 -210 Q324 -210 249 -198 L249 -138 Z " />
<glyph glyph-name="Lacute" unicode="&#x139;" horiz-adv-x="544" d="M46 706 L269 706 L269 178 L542 178 L542 0 L46 0 L46 706 Z M202 874 L419 874 L269 754 L137 754 L202 874 Z " />
<glyph glyph-name="Lcaron" unicode="&#x13d;" horiz-adv-x="544" d="M46 706 L269 706 L269 178 L542 178 L542 0 L46 0 L46 706 Z M340 524 Q399 550 399 591 L340 591 L340 706 L471 706 L471 610 Q471 557 449.5 526.5 Q428 496 374 473 L340 524 Z " />
<glyph glyph-name="Lcommaaccent" unicode="&#x13b;" horiz-adv-x="544" d="M46 706 L269 706 L269 178 L542 178 L542 0 L46 0 L46 706 Z M124 -138 Q175 -147 232 -147 Q274 -147 288.5 -136 Q303 -125 303 -107 Q303 -93 291 -82.5 Q279 -72 253 -72 Q218 -72 172 -81 L186 -23 Q209 -18 230.5 -15 Q252 -12 272 -12 Q314 -12 342 -19.5 Q370 -27 387.5 -40 Q405 -53 412 -70.5 Q419 -88 419 -107 Q419 -125 411 -143.5 Q403 -162 384 -177 Q365 -192 333.5 -201 Q302 -210 255 -210 Q199 -210 124 -198 L124 -138 Z " />
<glyph glyph-name="Lslash" unicode="&#x141;" horiz-adv-x="544" d="M46 186 L2 160 L2 289 L46 315 L46 706 L269 706 L269 449 L462 565 L462 437 L269 321 L269 178 L542 178 L542 0 L46 0 L46 186 Z " />
<glyph glyph-name="Nacute" unicode="&#x143;" horiz-adv-x="774" d="M46 706 L283 706 L441 439 Q455 416 466 395 Q477 374 487.5 353.5 Q498 333 507.5 311.5 Q517 290 528 266 Q523 311 521 347 Q519 383 519 429 L519 706 L728 706 L728 0 L487 0 L345 244 Q330 269 318 291.5 Q306 314 294.5 336 Q283 358 271.5 381 Q260 404 247 430 Q250 390 252 358 Q254 326 254 286 L254 0 L46 0 L46 706 Z M354 874 L571 874 L421 754 L289 754 L354 874 Z " />
<glyph glyph-name="Ncaron" unicode="&#x147;" horiz-adv-x="774" d="M46 706 L283 706 L441 439 Q455 416 466 395 Q477 374 487.5 353.5 Q498 333 507.5 311.5 Q517 290 528 266 Q523 311 521 347 Q519 383 519 429 L519 706 L728 706 L728 0 L487 0 L345 244 Q330 269 318 291.5 Q306 314 294.5 336 Q283 358 271.5 381 Q260 404 247 430 Q250 390 252 358 Q254 326 254 286 L254 0 L46 0 L46 706 Z M210 874 L354 874 L388 822 L419 874 L560 874 L467 751 L306 751 L210 874 Z " />
<glyph glyph-name="Ntilde" unicode="&#xd1;" horiz-adv-x="774" d="M46 706 L283 706 L441 439 Q455 416 466 395 Q477 374 487.5 353.5 Q498 333 507.5 311.5 Q517 290 528 266 Q523 311 521 347 Q519 383 519 429 L519 706 L728 706 L728 0 L487 0 L345 244 Q330 269 318 291.5 Q306 314 294.5 336 Q283 358 271.5 381 Q260 404 247 430 Q250 390 252 358 Q254 326 254 286 L254 0 L46 0 L46 706 Z M184 756 Q189 780 196 801.5 Q203 823 215.5 840 Q228 857 248 867 Q268 877 298 877 L302 877 Q327 877 349 872.5 Q371 868 396 863 Q426 857 437 857 Q451 857 457 863 Q463 869 465 877 L572 877 Q570 866 566 845.5 Q562 825 550 805 Q538 785 515.5 770 Q493 755 453 755 Q434 755 413 759 Q392 763 354 771 Q338 774 328 776.5 Q318 779 310 779 Q293 779 290 771 Q287 763 286 756 L184 756 Z " />
<glyph glyph-name="Ncommaaccent" unicode="&#x145;" horiz-adv-x="774" d="M46 706 L283 706 L441 439 Q455 416 466 395 Q477 374 487.5 353.5 Q498 333 507.5 311.5 Q517 290 528 266 Q523 311 521 347 Q519 383 519 429 L519 706 L728 706 L728 0 L487 0 L345 244 Q330 269 318 291.5 Q306 314 294.5 336 Q283 358 271.5 381 Q260 404 247 430 Q250 390 252 358 Q254 326 254 286 L254 0 L46 0 L46 706 Z M215 -138 Q266 -147 323 -147 Q365 -147 379.5 -136 Q394 -125 394 -107 Q394 -93 382 -82.5 Q370 -72 344 -72 Q309 -72 263 -81 L277 -23 Q300 -18 321.5 -15 Q343 -12 363 -12 Q405 -12 433 -19.5 Q461 -27 478.5 -40 Q496 -53 503 -70.5 Q510 -88 510 -107 Q510 -125 502 -143.5 Q494 -162 475 -177 Q456 -192 424.5 -201 Q393 -210 346 -210 Q290 -210 215 -198 L215 -138 Z " />
<glyph glyph-name="Ograve" unicode="&#xd2;" horiz-adv-x="812" d="M42 238 Q31 280 29 310.5 Q27 341 27 357 Q27 417 39 459 Q51 501 62 525 Q88 585 127.5 625 Q167 665 214.5 688.5 Q262 712 313.5 722 Q365 732 415 732 Q455 732 499 724.5 Q543 717 585 698 Q621 681 657 651.5 Q693 622 721.5 580 Q750 538 767.5 482.5 Q785 427 785 358 Q785 288 769 239.5 Q753 191 738 162 Q718 125 689 91.5 Q660 58 619 32.5 Q578 7 524.5 -8 Q471 -23 404 -23 Q315 -23 251.5 1 Q188 25 145.5 63 Q103 101 78.5 147.5 Q54 194 42 238 Z M407 156 Q454 156 484 177 Q514 198 531 228.5 Q548 259 554 293.5 Q560 328 560 356 Q560 425 541.5 467 Q523 509 488 532 Q477 540 456.5 547 Q436 554 407 554 Q380 554 358 547 Q323 535 302 512 Q281 489 269.5 461 Q258 433 254.5 404 Q251 375 251 352 Q251 296 263.5 258.5 Q276 221 297.5 198.5 Q319 176 347 166 Q375 156 407 156 Z M446 874 L511 754 L379 754 L229 874 L446 874 Z " />
<glyph glyph-name="Oacute" unicode="&#xd3;" horiz-adv-x="812" d="M42 238 Q31 280 29 310.5 Q27 341 27 357 Q27 417 39 459 Q51 501 62 525 Q88 585 127.5 625 Q167 665 214.5 688.5 Q262 712 313.5 722 Q365 732 415 732 Q455 732 499 724.5 Q543 717 585 698 Q621 681 657 651.5 Q693 622 721.5 580 Q750 538 767.5 482.5 Q785 427 785 358 Q785 288 769 239.5 Q753 191 738 162 Q718 125 689 91.5 Q660 58 619 32.5 Q578 7 524.5 -8 Q471 -23 404 -23 Q315 -23 251.5 1 Q188 25 145.5 63 Q103 101 78.5 147.5 Q54 194 42 238 Z M407 156 Q454 156 484 177 Q514 198 531 228.5 Q548 259 554 293.5 Q560 328 560 356 Q560 425 541.5 467 Q523 509 488 532 Q477 540 456.5 547 Q436 554 407 554 Q380 554 358 547 Q323 535 302 512 Q281 489 269.5 461 Q258 433 254.5 404 Q251 375 251 352 Q251 296 263.5 258.5 Q276 221 297.5 198.5 Q319 176 347 166 Q375 156 407 156 Z M372 874 L589 874 L439 754 L307 754 L372 874 Z " />
<glyph glyph-name="Ocircumflex" unicode="&#xd4;" horiz-adv-x="812" d="M42 238 Q31 280 29 310.5 Q27 341 27 357 Q27 417 39 459 Q51 501 62 525 Q88 585 127.5 625 Q167 665 214.5 688.5 Q262 712 313.5 722 Q365 732 415 732 Q455 732 499 724.5 Q543 717 585 698 Q621 681 657 651.5 Q693 622 721.5 580 Q750 538 767.5 482.5 Q785 427 785 358 Q785 288 769 239.5 Q753 191 738 162 Q718 125 689 91.5 Q660 58 619 32.5 Q578 7 524.5 -8 Q471 -23 404 -23 Q315 -23 251.5 1 Q188 25 145.5 63 Q103 101 78.5 147.5 Q54 194 42 238 Z M407 156 Q454 156 484 177 Q514 198 531 228.5 Q548 259 554 293.5 Q560 328 560 356 Q560 425 541.5 467 Q523 509 488 532 Q477 540 456.5 547 Q436 554 407 554 Q380 554 358 547 Q323 535 302 512 Q281 489 269.5 461 Q258 433 254.5 404 Q251 375 251 352 Q251 296 263.5 258.5 Q276 221 297.5 198.5 Q319 176 347 166 Q375 156 407 156 Z M329 874 L490 874 L586 751 L442 751 L408 804 L377 751 L236 751 L329 874 Z " />
<glyph glyph-name="Otilde" unicode="&#xd5;" horiz-adv-x="812" d="M42 238 Q31 280 29 310.5 Q27 341 27 357 Q27 417 39 459 Q51 501 62 525 Q88 585 127.5 625 Q167 665 214.5 688.5 Q262 712 313.5 722 Q365 732 415 732 Q455 732 499 724.5 Q543 717 585 698 Q621 681 657 651.5 Q693 622 721.5 580 Q750 538 767.5 482.5 Q785 427 785 358 Q785 288 769 239.5 Q753 191 738 162 Q718 125 689 91.5 Q660 58 619 32.5 Q578 7 524.5 -8 Q471 -23 404 -23 Q315 -23 251.5 1 Q188 25 145.5 63 Q103 101 78.5 147.5 Q54 194 42 238 Z M407 156 Q454 156 484 177 Q514 198 531 228.5 Q548 259 554 293.5 Q560 328 560 356 Q560 425 541.5 467 Q523 509 488 532 Q477 540 456.5 547 Q436 554 407 554 Q380 554 358 547 Q323 535 302 512 Q281 489 269.5 461 Q258 433 254.5 404 Q251 375 251 352 Q251 296 263.5 258.5 Q276 221 297.5 198.5 Q319 176 347 166 Q375 156 407 156 Z M222 756 Q227 780 234 801.5 Q241 823 253.5 840 Q266 857 286 867 Q306 877 336 877 L340 877 Q365 877 387 872.5 Q409 868 434 863 Q464 857 475 857 Q489 857 495 863 Q501 869 503 877 L610 877 Q608 866 604 845.5 Q600 825 588 805 Q576 785 553.5 770 Q531 755 491 755 Q472 755 451 759 Q430 763 392 771 Q376 774 366 776.5 Q356 779 348 779 Q331 779 328 771 Q325 763 324 756 L222 756 Z " />
<glyph glyph-name="Odieresis" unicode="&#xd6;" horiz-adv-x="812" d="M42 238 Q31 280 29 310.5 Q27 341 27 357 Q27 417 39 459 Q51 501 62 525 Q88 585 127.5 625 Q167 665 214.5 688.5 Q262 712 313.5 722 Q365 732 415 732 Q455 732 499 724.5 Q543 717 585 698 Q621 681 657 651.5 Q693 622 721.5 580 Q750 538 767.5 482.5 Q785 427 785 358 Q785 288 769 239.5 Q753 191 738 162 Q718 125 689 91.5 Q660 58 619 32.5 Q578 7 524.5 -8 Q471 -23 404 -23 Q315 -23 251.5 1 Q188 25 145.5 63 Q103 101 78.5 147.5 Q54 194 42 238 Z M407 156 Q454 156 484 177 Q514 198 531 228.5 Q548 259 554 293.5 Q560 328 560 356 Q560 425 541.5 467 Q523 509 488 532 Q477 540 456.5 547 Q436 554 407 554 Q380 554 358 547 Q323 535 302 512 Q281 489 269.5 461 Q258 433 254.5 404 Q251 375 251 352 Q251 296 263.5 258.5 Q276 221 297.5 198.5 Q319 176 347 166 Q375 156 407 156 Z M445 876 L611 876 L611 757 L445 757 L445 876 Z M216 876 L381 876 L381 757 L216 757 L216 876 Z " />
<glyph glyph-name="Omacron" unicode="&#x14c;" horiz-adv-x="812" d="M42 238 Q31 280 29 310.5 Q27 341 27 357 Q27 417 39 459 Q51 501 62 525 Q88 585 127.5 625 Q167 665 214.5 688.5 Q262 712 313.5 722 Q365 732 415 732 Q455 732 499 724.5 Q543 717 585 698 Q621 681 657 651.5 Q693 622 721.5 580 Q750 538 767.5 482.5 Q785 427 785 358 Q785 288 769 239.5 Q753 191 738 162 Q718 125 689 91.5 Q660 58 619 32.5 Q578 7 524.5 -8 Q471 -23 404 -23 Q315 -23 251.5 1 Q188 25 145.5 63 Q103 101 78.5 147.5 Q54 194 42 238 Z M407 156 Q454 156 484 177 Q514 198 531 228.5 Q548 259 554 293.5 Q560 328 560 356 Q560 425 541.5 467 Q523 509 488 532 Q477 540 456.5 547 Q436 554 407 554 Q380 554 358 547 Q323 535 302 512 Q281 489 269.5 461 Q258 433 254.5 404 Q251 375 251 352 Q251 296 263.5 258.5 Q276 221 297.5 198.5 Q319 176 347 166 Q375 156 407 156 Z M201 855 L611 855 L611 762 L201 762 L201 855 Z " />
<glyph glyph-name="Ohungarumlaut" unicode="&#x150;" horiz-adv-x="812" d="M42 238 Q31 280 29 310.5 Q27 341 27 357 Q27 417 39 459 Q51 501 62 525 Q88 585 127.5 625 Q167 665 214.5 688.5 Q262 712 313.5 722 Q365 732 415 732 Q455 732 499 724.5 Q543 717 585 698 Q621 681 657 651.5 Q693 622 721.5 580 Q750 538 767.5 482.5 Q785 427 785 358 Q785 288 769 239.5 Q753 191 738 162 Q718 125 689 91.5 Q660 58 619 32.5 Q578 7 524.5 -8 Q471 -23 404 -23 Q315 -23 251.5 1 Q188 25 145.5 63 Q103 101 78.5 147.5 Q54 194 42 238 Z M407 156 Q454 156 484 177 Q514 198 531 228.5 Q548 259 554 293.5 Q560 328 560 356 Q560 425 541.5 467 Q523 509 488 532 Q477 540 456.5 547 Q436 554 407 554 Q380 554 358 547 Q323 535 302 512 Q281 489 269.5 461 Q258 433 254.5 404 Q251 375 251 352 Q251 296 263.5 258.5 Q276 221 297.5 198.5 Q319 176 347 166 Q375 156 407 156 Z M524 873 L741 873 L591 753 L459 753 L524 873 Z M262 874 L479 874 L329 754 L197 754 L262 874 Z " />
<glyph glyph-name="Oslash" unicode="&#xd8;" horiz-adv-x="812" d="M15 50 L93 123 Q74 151 62 180 Q50 209 42 238 Q31 280 29 310.5 Q27 341 27 357 Q27 417 39 459 Q51 501 62 525 Q88 585 127.5 625 Q167 665 214.5 688.5 Q262 712 313.5 722 Q365 732 415 732 Q455 732 499 724.5 Q543 717 585 698 Q622 681 656 653 L736 729 L802 658 L720 582 Q749 539 767 483.5 Q785 428 785 358 Q785 288 769 239.5 Q753 191 738 162 Q718 125 689 91.5 Q660 58 619 32.5 Q578 7 524.5 -8 Q471 -23 404 -23 Q321 -23 260.5 -2 Q200 19 157 54 L80 -19 L15 50 Z M509 515 Q504 520 499 524 Q494 528 488 532 Q477 540 456.5 547 Q436 554 407 554 Q380 554 358 547 Q323 535 302 512 Q281 489 269.5 461 Q258 433 254.5 404 Q251 375 251 352 Q251 331 253 313 Q255 295 258 278 L509 515 Z M304 192 Q325 172 351.5 164 Q378 156 407 156 Q454 156 484 177 Q514 198 531 228.5 Q548 259 554 293.5 Q560 328 560 356 Q560 395 554 425 L304 192 Z " />
<glyph glyph-name="OE" unicode="&#x152;" horiz-adv-x="1097" d="M514 25 Q488 9 454 -3 Q420 -15 364 -15 Q298 -15 246.5 4 Q195 23 157.5 53 Q120 83 95 119.5 Q70 156 56 192 Q46 217 40 242 Q34 267 31 288.5 Q28 310 27.5 327 Q27 344 27 355 L27 361 Q27 401 36 445.5 Q45 490 65.5 532.5 Q86 575 120.5 613.5 Q155 652 207 679 Q258 706 298.5 712 Q339 718 365 718 Q404 718 444.5 708 Q485 698 514 677 L514 706 L1050 706 L1050 552 L728 552 L728 448 L1028 448 L1028 294 L728 294 L728 154 L1084 154 L1084 0 L514 0 L514 25 Z M514 511 Q485 533 461.5 539.5 Q438 546 407 546 Q368 546 341 534 Q314 522 296.5 503 Q279 484 269.5 461.5 Q260 439 255.5 418 Q251 397 250 379.5 Q249 362 249 355 L249 353 Q249 302 261 265 Q273 228 293 204 Q313 180 339.5 169 Q366 158 396 158 Q428 158 455.5 167.5 Q483 177 514 195 L514 511 Z " />
<glyph glyph-name="Racute" unicode="&#x154;" horiz-adv-x="725" d="M46 706 L427 706 Q456 706 488.5 704 Q521 702 553.5 691.5 Q586 681 615 660 Q644 639 665 600 Q675 583 684.5 552.5 Q694 522 694 480 Q694 417 669 376.5 Q644 336 612 314 Q598 305 580.5 297.5 Q563 290 549 285 L722 0 L472 0 L335 249 L270 249 L270 0 L46 0 L46 706 Z M374 394 Q384 394 400.5 396 Q417 398 433 406.5 Q449 415 460 431.5 Q471 448 471 477 Q471 505 461 521 Q451 537 435 545 Q419 553 399.5 555.5 Q380 558 361 558 L270 558 L270 394 L374 394 Z M297 874 L514 874 L364 754 L232 754 L297 874 Z " />
<glyph glyph-name="Rcaron" unicode="&#x158;" horiz-adv-x="725" d="M46 706 L427 706 Q456 706 488.5 704 Q521 702 553.5 691.5 Q586 681 615 660 Q644 639 665 600 Q675 583 684.5 552.5 Q694 522 694 480 Q694 417 669 376.5 Q644 336 612 314 Q598 305 580.5 297.5 Q563 290 549 285 L722 0 L472 0 L335 249 L270 249 L270 0 L46 0 L46 706 Z M374 394 Q384 394 400.5 396 Q417 398 433 406.5 Q449 415 460 431.5 Q471 448 471 477 Q471 505 461 521 Q451 537 435 545 Q419 553 399.5 555.5 Q380 558 361 558 L270 558 L270 394 L374 394 Z M167 874 L311 874 L345 822 L376 874 L517 874 L424 751 L263 751 L167 874 Z " />
<glyph glyph-name="Rcommaaccent" unicode="&#x156;" horiz-adv-x="725" d="M46 706 L427 706 Q456 706 488.5 704 Q521 702 553.5 691.5 Q586 681 615 660 Q644 639 665 600 Q675 583 684.5 552.5 Q694 522 694 480 Q694 417 669 376.5 Q644 336 612 314 Q598 305 580.5 297.5 Q563 290 549 285 L722 0 L472 0 L335 249 L270 249 L270 0 L46 0 L46 706 Z M374 394 Q384 394 400.5 396 Q417 398 433 406.5 Q449 415 460 431.5 Q471 448 471 477 Q471 505 461 521 Q451 537 435 545 Q419 553 399.5 555.5 Q380 558 361 558 L270 558 L270 394 L374 394 Z M223 -138 Q274 -147 331 -147 Q373 -147 387.5 -136 Q402 -125 402 -107 Q402 -93 390 -82.5 Q378 -72 352 -72 Q317 -72 271 -81 L285 -23 Q308 -18 329.5 -15 Q351 -12 371 -12 Q413 -12 441 -19.5 Q469 -27 486.5 -40 Q504 -53 511 -70.5 Q518 -88 518 -107 Q518 -125 510 -143.5 Q502 -162 483 -177 Q464 -192 432.5 -201 Q401 -210 354 -210 Q298 -210 223 -198 L223 -138 Z " />
<glyph glyph-name="Sacute" unicode="&#x15a;" horiz-adv-x="723" d="M171 244 Q177 235 181.5 228.5 Q186 222 189.5 217.5 Q193 213 196.5 209 Q200 205 206 200 Q222 186 243 176.5 Q264 167 286.5 161.5 Q309 156 330.5 153.5 Q352 151 368 151 Q389 151 408.5 154 Q428 157 442.5 163.5 Q457 170 466 180.5 Q475 191 475 205 Q475 221 466.5 229 Q458 237 450 242 Q439 248 419.5 252.5 Q400 257 374.5 262 Q349 267 319 272.5 Q289 278 258 286 Q241 290 208 300 Q175 310 142 332.5 Q109 355 84 393.5 Q59 432 59 493 Q59 539 77 582 Q95 625 133.5 657.5 Q172 690 231 709.5 Q290 729 371 729 L374 729 Q384 729 412.5 727.5 Q441 726 478 719 Q515 712 556.5 696.5 Q598 681 636 653 Q656 638 669.5 624 Q683 610 689 604 L548 487 Q540 498 534.5 503.5 Q529 509 523 514 Q502 532 461.5 545.5 Q421 559 363 559 Q331 559 306.5 548.5 Q282 538 282 514 Q282 500 287.5 493 Q293 486 300 481 Q309 475 327 470.5 Q345 466 369.5 461.5 Q394 457 422 452 Q450 447 478 440 Q519 431 557.5 417 Q596 403 626 379 Q656 355 674.5 318.5 Q693 282 693 227 Q693 178 673.5 133.5 Q654 89 613 54.5 Q572 20 509 -0.5 Q446 -21 359 -21 Q323 -21 283.5 -17.5 Q244 -14 204.5 -3.5 Q165 7 127 26 Q89 45 55 75 Q35 92 24.5 105 Q14 118 0 135 L171 244 Z M343 874 L560 874 L410 754 L278 754 L343 874 Z " />
<glyph glyph-name="Scaron" unicode="&#x160;" horiz-adv-x="723" d="M171 244 Q177 235 181.5 228.5 Q186 222 189.5 217.5 Q193 213 196.5 209 Q200 205 206 200 Q222 186 243 176.5 Q264 167 286.5 161.5 Q309 156 330.5 153.5 Q352 151 368 151 Q389 151 408.5 154 Q428 157 442.5 163.5 Q457 170 466 180.5 Q475 191 475 205 Q475 221 466.5 229 Q458 237 450 242 Q439 248 419.5 252.5 Q400 257 374.5 262 Q349 267 319 272.5 Q289 278 258 286 Q241 290 208 300 Q175 310 142 332.5 Q109 355 84 393.5 Q59 432 59 493 Q59 539 77 582 Q95 625 133.5 657.5 Q172 690 231 709.5 Q290 729 371 729 L374 729 Q384 729 412.5 727.5 Q441 726 478 719 Q515 712 556.5 696.5 Q598 681 636 653 Q656 638 669.5 624 Q683 610 689 604 L548 487 Q540 498 534.5 503.5 Q529 509 523 514 Q502 532 461.5 545.5 Q421 559 363 559 Q331 559 306.5 548.5 Q282 538 282 514 Q282 500 287.5 493 Q293 486 300 481 Q309 475 327 470.5 Q345 466 369.5 461.5 Q394 457 422 452 Q450 447 478 440 Q519 431 557.5 417 Q596 403 626 379 Q656 355 674.5 318.5 Q693 282 693 227 Q693 178 673.5 133.5 Q654 89 613 54.5 Q572 20 509 -0.5 Q446 -21 359 -21 Q323 -21 283.5 -17.5 Q244 -14 204.5 -3.5 Q165 7 127 26 Q89 45 55 75 Q35 92 24.5 105 Q14 118 0 135 L171 244 Z M188 874 L332 874 L366 822 L397 874 L538 874 L445 751 L284 751 L188 874 Z " />
<glyph glyph-name="Scedilla" unicode="&#x15e;" horiz-adv-x="723" d="M259 -156 Q262 -157 267.5 -158.5 Q273 -160 281 -160 Q298 -160 311 -154.5 Q324 -149 324 -138 Q324 -126 314.5 -123.5 Q305 -121 299 -121 Q288 -121 275 -124 Q262 -127 261 -127 L264 -92 L312 -20 Q247 -16 180 4 Q113 24 55 75 Q35 92 24.5 105 Q14 118 0 135 L171 244 Q177 235 181.5 228.5 Q186 222 189.5 217.5 Q193 213 196.5 209 Q200 205 206 200 Q222 186 243 176.5 Q264 167 286.5 161.5 Q309 156 330.5 153.5 Q352 151 368 151 Q389 151 408.5 154 Q428 157 442.5 163.5 Q457 170 466 180.5 Q475 191 475 205 Q475 221 466.5 229 Q458 237 450 242 Q439 248 419.5 252.5 Q400 257 374.5 262 Q349 267 319 272.5 Q289 278 258 286 Q241 290 208 300 Q175 310 142 332.5 Q109 355 84 393.5 Q59 432 59 493 Q59 539 77 582 Q95 625 133.5 657.5 Q172 690 231 709.5 Q290 729 371 729 L374 729 Q384 729 412.5 727.5 Q441 726 478 719 Q515 712 556.5 696.5 Q598 681 636 653 Q656 638 669.5 624 Q683 610 689 604 L548 487 Q540 498 534.5 503.5 Q529 509 523 514 Q502 532 461.5 545.5 Q421 559 363 559 Q331 559 306.5 548.5 Q282 538 282 514 Q282 500 287.5 493 Q293 486 300 481 Q309 475 327 470.5 Q345 466 369.5 461.5 Q394 457 422 452 Q450 447 478 440 Q519 431 557.5 417 Q596 403 626 379 Q656 355 674.5 318.5 Q693 282 693 227 Q693 179 674 135 Q655 91 615.5 56.5 Q576 22 515.5 1 Q455 -20 371 -21 L353 -59 Q360 -58 367 -57.5 Q374 -57 381 -57 Q404 -57 420 -64.5 Q436 -72 445.5 -82.5 Q455 -93 459 -106 Q463 -119 463 -129 Q463 -134 460.5 -147.5 Q458 -161 446 -176 Q423 -205 392.5 -211.5 Q362 -218 337 -218 Q306 -218 288.5 -215.5 Q271 -213 256 -211 L259 -156 Z " />
<glyph glyph-name="Scommaaccent" unicode="&#x218;" horiz-adv-x="723" d="M214 -138 Q265 -147 322 -147 Q364 -147 378.5 -136 Q393 -125 393 -107 Q393 -93 381 -82.5 Q369 -72 343 -72 Q308 -72 262 -81 L276 -23 L296 -18 Q235 -13 172 7 Q109 27 55 75 Q35 92 24.5 105 Q14 118 0 135 L171 244 Q177 235 181.5 228.5 Q186 222 189.5 217.5 Q193 213 196.5 209 Q200 205 206 200 Q222 186 243 176.5 Q264 167 286.5 161.5 Q309 156 330.5 153.5 Q352 151 368 151 Q389 151 408.5 154 Q428 157 442.5 163.5 Q457 170 466 180.5 Q475 191 475 205 Q475 221 466.5 229 Q458 237 450 242 Q439 248 419.5 252.5 Q400 257 374.5 262 Q349 267 319 272.5 Q289 278 258 286 Q241 290 208 300 Q175 310 142 332.5 Q109 355 84 393.5 Q59 432 59 493 Q59 539 77 582 Q95 625 133.5 657.5 Q172 690 231 709.5 Q290 729 371 729 L374 729 Q384 729 412.5 727.5 Q441 726 478 719 Q515 712 556.5 696.5 Q598 681 636 653 Q656 638 669.5 624 Q683 610 689 604 L548 487 Q540 498 534.5 503.5 Q529 509 523 514 Q502 532 461.5 545.5 Q421 559 363 559 Q331 559 306.5 548.5 Q282 538 282 514 Q282 500 287.5 493 Q293 486 300 481 Q309 475 327 470.5 Q345 466 369.5 461.5 Q394 457 422 452 Q450 447 478 440 Q519 431 557.5 417 Q596 403 626 379 Q656 355 674.5 318.5 Q693 282 693 227 Q693 183 677 142 Q661 101 628 68 Q595 35 544.5 12.5 Q494 -10 424 -17 Q472 -28 490.5 -52 Q509 -76 509 -107 Q509 -125 501 -143.5 Q493 -162 474 -177 Q455 -192 423.5 -201 Q392 -210 345 -210 Q289 -210 214 -198 L214 -138 Z " />
<glyph glyph-name="Tcaron" unicode="&#x164;" horiz-adv-x="598" d="M188 532 L8 532 L8 706 L590 706 L590 532 L411 532 L411 0 L188 0 L188 532 Z M124 874 L268 874 L302 822 L333 874 L474 874 L381 751 L220 751 L124 874 Z " />
<glyph glyph-name="Tcommaaccent" unicode="&#x162;" horiz-adv-x="598" d="M208 -136 Q211 -137 216.5 -138.5 Q222 -140 230 -140 Q247 -140 260 -134.5 Q273 -129 273 -118 Q273 -106 263.5 -103.5 Q254 -101 248 -101 Q237 -101 224 -104 Q211 -107 210 -107 L213 -72 L261 0 L188 0 L188 532 L8 532 L8 706 L590 706 L590 532 L411 532 L411 0 L320 0 L302 -39 Q309 -38 316 -37.5 Q323 -37 330 -37 Q353 -37 369 -44.5 Q385 -52 394.5 -62.5 Q404 -73 408 -86 Q412 -99 412 -109 Q412 -114 409.5 -127.5 Q407 -141 395 -156 Q372 -185 341.5 -191.5 Q311 -198 286 -198 Q255 -198 237.5 -195.5 Q220 -193 205 -191 L208 -136 Z " />
<glyph glyph-name="uni021A" unicode="&#x21a;" horiz-adv-x="598" d="M188 532 L8 532 L8 706 L590 706 L590 532 L411 532 L411 0 L188 0 L188 532 Z M146 -138 Q197 -147 254 -147 Q296 -147 310.5 -136 Q325 -125 325 -107 Q325 -93 313 -82.5 Q301 -72 275 -72 Q240 -72 194 -81 L208 -23 Q231 -18 252.5 -15 Q274 -12 294 -12 Q336 -12 364 -19.5 Q392 -27 409.5 -40 Q427 -53 434 -70.5 Q441 -88 441 -107 Q441 -125 433 -143.5 Q425 -162 406 -177 Q387 -192 355.5 -201 Q324 -210 277 -210 Q221 -210 146 -198 L146 -138 Z " />
<glyph glyph-name="Ugrave" unicode="&#xd9;" horiz-adv-x="724" d="M40 706 L264 706 L264 261 Q264 251 266 233 Q268 215 277 197.5 Q286 180 305 167 Q324 154 359 154 Q396 154 416.5 167 Q437 180 446.5 198 Q456 216 457.5 234 Q459 252 459 263 L459 706 L684 706 L684 283 Q684 254 680 224 Q676 194 665 165 Q645 111 610.5 75.5 Q576 40 534.5 19 Q493 -2 448.5 -10.5 Q404 -19 365 -19 Q329 -19 283.5 -12 Q238 -5 193.5 14 Q149 33 111.5 67.5 Q74 102 56 157 Q45 187 42.5 221.5 Q40 256 40 287 L40 706 Z M398 874 L463 754 L331 754 L181 874 L398 874 Z " />
<glyph glyph-name="Uacute" unicode="&#xda;" horiz-adv-x="724" d="M40 706 L264 706 L264 261 Q264 251 266 233 Q268 215 277 197.5 Q286 180 305 167 Q324 154 359 154 Q396 154 416.5 167 Q437 180 446.5 198 Q456 216 457.5 234 Q459 252 459 263 L459 706 L684 706 L684 283 Q684 254 680 224 Q676 194 665 165 Q645 111 610.5 75.5 Q576 40 534.5 19 Q493 -2 448.5 -10.5 Q404 -19 365 -19 Q329 -19 283.5 -12 Q238 -5 193.5 14 Q149 33 111.5 67.5 Q74 102 56 157 Q45 187 42.5 221.5 Q40 256 40 287 L40 706 Z M328 874 L545 874 L395 754 L263 754 L328 874 Z " />
<glyph glyph-name="Ucircumflex" unicode="&#xdb;" horiz-adv-x="724" d="M40 706 L264 706 L264 261 Q264 251 266 233 Q268 215 277 197.5 Q286 180 305 167 Q324 154 359 154 Q396 154 416.5 167 Q437 180 446.5 198 Q456 216 457.5 234 Q459 252 459 263 L459 706 L684 706 L684 283 Q684 254 680 224 Q676 194 665 165 Q645 111 610.5 75.5 Q576 40 534.5 19 Q493 -2 448.5 -10.5 Q404 -19 365 -19 Q329 -19 283.5 -12 Q238 -5 193.5 14 Q149 33 111.5 67.5 Q74 102 56 157 Q45 187 42.5 221.5 Q40 256 40 287 L40 706 Z M278 874 L439 874 L535 751 L391 751 L357 804 L326 751 L185 751 L278 874 Z " />
<glyph glyph-name="Udieresis" unicode="&#xdc;" horiz-adv-x="724" d="M40 706 L264 706 L264 261 Q264 251 266 233 Q268 215 277 197.5 Q286 180 305 167 Q324 154 359 154 Q396 154 416.5 167 Q437 180 446.5 198 Q456 216 457.5 234 Q459 252 459 263 L459 706 L684 706 L684 283 Q684 254 680 224 Q676 194 665 165 Q645 111 610.5 75.5 Q576 40 534.5 19 Q493 -2 448.5 -10.5 Q404 -19 365 -19 Q329 -19 283.5 -12 Q238 -5 193.5 14 Q149 33 111.5 67.5 Q74 102 56 157 Q45 187 42.5 221.5 Q40 256 40 287 L40 706 Z M388 876 L554 876 L554 757 L388 757 L388 876 Z M159 876 L324 876 L324 757 L159 757 L159 876 Z " />
<glyph glyph-name="Umacron" unicode="&#x16a;" horiz-adv-x="724" d="M40 706 L264 706 L264 261 Q264 251 266 233 Q268 215 277 197.5 Q286 180 305 167 Q324 154 359 154 Q396 154 416.5 167 Q437 180 446.5 198 Q456 216 457.5 234 Q459 252 459 263 L459 706 L684 706 L684 283 Q684 254 680 224 Q676 194 665 165 Q645 111 610.5 75.5 Q576 40 534.5 19 Q493 -2 448.5 -10.5 Q404 -19 365 -19 Q329 -19 283.5 -12 Q238 -5 193.5 14 Q149 33 111.5 67.5 Q74 102 56 157 Q45 187 42.5 221.5 Q40 256 40 287 L40 706 Z M156 855 L566 855 L566 762 L156 762 L156 855 Z " />
<glyph glyph-name="Uring" unicode="&#x16e;" horiz-adv-x="724" d="M40 706 L264 706 L264 261 Q264 251 266 233 Q268 215 277 197.5 Q286 180 305 167 Q324 154 359 154 Q396 154 416.5 167 Q437 180 446.5 198 Q456 216 457.5 234 Q459 252 459 263 L459 706 L684 706 L684 283 Q684 254 680 224 Q676 194 665 165 Q645 111 610.5 75.5 Q576 40 534.5 19 Q493 -2 448.5 -10.5 Q404 -19 365 -19 Q329 -19 283.5 -12 Q238 -5 193.5 14 Q149 33 111.5 67.5 Q74 102 56 157 Q45 187 42.5 221.5 Q40 256 40 287 L40 706 Z M252 855 Q252 878 261 898 Q270 918 285 933 Q300 948 320 957 Q340 966 363 966 Q386 966 406 957 Q426 948 441 933 Q456 918 465 898 Q474 878 474 855 Q474 832 465 812 Q456 792 441 777 Q426 762 406 753 Q386 744 363 744 Q340 744 320 753 Q300 762 285 777 Q270 792 261 812 Q252 832 252 855 Z M363 819 Q378 819 388.5 829.5 Q399 840 399 855 Q399 870 388.5 880.5 Q378 891 363 891 Q348 891 337.5 880.5 Q327 870 327 855 Q327 840 337.5 829.5 Q348 819 363 819 Z " />
<glyph glyph-name="Uhungarumlaut" unicode="&#x170;" horiz-adv-x="724" d="M40 706 L264 706 L264 261 Q264 251 266 233 Q268 215 277 197.5 Q286 180 305 167 Q324 154 359 154 Q396 154 416.5 167 Q437 180 446.5 198 Q456 216 457.5 234 Q459 252 459 263 L459 706 L684 706 L684 283 Q684 254 680 224 Q676 194 665 165 Q645 111 610.5 75.5 Q576 40 534.5 19 Q493 -2 448.5 -10.5 Q404 -19 365 -19 Q329 -19 283.5 -12 Q238 -5 193.5 14 Q149 33 111.5 67.5 Q74 102 56 157 Q45 187 42.5 221.5 Q40 256 40 287 L40 706 Z M467 873 L684 873 L534 753 L402 753 L467 873 Z M205 874 L422 874 L272 754 L140 754 L205 874 Z " />
<glyph glyph-name="Uogonek" unicode="&#x172;" horiz-adv-x="724" d="M40 706 L264 706 L264 261 Q264 251 266 233 Q268 215 277 197.5 Q286 180 305 167 Q324 154 359 154 Q396 154 416.5 167 Q437 180 446.5 198 Q456 216 457.5 234 Q459 252 459 263 L459 706 L684 706 L684 283 Q684 254 680 224 Q676 194 665 165 Q648 117 618.5 83.5 Q589 50 553 29 Q517 8 477.5 -3 Q438 -14 401 -17 Q389 -28 378 -45 Q367 -62 367 -84 Q367 -102 374.5 -113 Q382 -124 391.5 -130 Q401 -136 410.5 -137.5 Q420 -139 424 -139 Q435 -139 444 -135.5 Q453 -132 464 -127 L468 -175 Q451 -183 429.5 -189 Q408 -195 373 -195 Q344 -195 324 -187 Q304 -179 291.5 -166.5 Q279 -154 273 -138.5 Q267 -123 267 -109 Q267 -75 287.5 -53 Q308 -31 330 -18 Q294 -15 253 -6 Q212 3 173.5 23 Q135 43 103.5 75.5 Q72 108 56 157 Q45 187 42.5 221.5 Q40 256 40 287 L40 706 Z " />
<glyph glyph-name="Yacute" unicode="&#xdd;" horiz-adv-x="791" d="M283 297 L0 706 L258 706 L397 471 L533 706 L791 706 L507 297 L507 0 L283 0 L283 297 Z M389 874 L606 874 L456 754 L324 754 L389 874 Z " />
<glyph glyph-name="Ydieresis" unicode="&#x178;" horiz-adv-x="791" d="M283 297 L0 706 L258 706 L397 471 L533 706 L791 706 L507 297 L507 0 L283 0 L283 297 Z M427 876 L593 876 L593 757 L427 757 L427 876 Z M198 876 L363 876 L363 757 L198 757 L198 876 Z " />
<glyph glyph-name="Zacute" unicode="&#x179;" horiz-adv-x="670" d="M5 141 L367 537 L26 537 L26 706 L657 706 L657 562 L301 172 L656 172 L656 0 L5 0 L5 141 Z M298 874 L515 874 L365 754 L233 754 L298 874 Z " />
<glyph glyph-name="Zcaron" unicode="&#x17d;" horiz-adv-x="670" d="M5 141 L367 537 L26 537 L26 706 L657 706 L657 562 L301 172 L656 172 L656 0 L5 0 L5 141 Z M168 874 L312 874 L346 822 L377 874 L518 874 L425 751 L264 751 L168 874 Z " />
<glyph glyph-name="Zdotaccent" unicode="&#x17b;" horiz-adv-x="670" d="M5 141 L367 537 L26 537 L26 706 L657 706 L657 562 L301 172 L656 172 L656 0 L5 0 L5 141 Z M252 876 L418 876 L418 757 L252 757 L252 876 Z " />
<glyph glyph-name="Eth" unicode="&#xd0;" horiz-adv-x="753" d="M46 300 L2 300 L2 431 L46 431 L46 706 L302 706 Q330 706 362 705.5 Q394 705 426.5 702 Q459 699 490 693 Q521 687 547 677 Q590 659 620 632 Q650 605 670 573.5 Q690 542 701.5 508.5 Q713 475 718.5 444.5 Q724 414 725 389 Q726 364 726 349 Q726 335 724.5 309.5 Q723 284 716.5 252.5 Q710 221 697 186.5 Q684 152 662 120 Q640 88 607.5 61.5 Q575 35 529 19 Q490 5 446.5 2.5 Q403 0 364 0 L46 0 L46 300 Z M355 162 Q372 162 389 165 Q406 168 423 177 Q448 191 463.5 213.5 Q479 236 487.5 261 Q496 286 498.5 310.5 Q501 335 501 353 Q501 369 498.5 392 Q496 415 489 439 Q482 463 469 485.5 Q456 508 435 522 Q425 529 412.5 532.5 Q400 536 389 538 Q378 540 369 540.5 Q360 541 356 541 L270 541 L270 431 L414 431 L414 300 L270 300 L270 162 L355 162 Z " />
<glyph glyph-name="Thorn" unicode="&#xde;" horiz-adv-x="730" d="M46 706 L270 706 L270 606 L449 606 Q480 606 518 602.5 Q556 599 587 585 Q631 565 655.5 535.5 Q680 506 692 475 Q704 444 707 417 Q710 390 710 375 Q709 317 695 280 Q681 243 661 218 Q641 191 617 173.5 Q593 156 567 146 Q535 135 504 132.5 Q473 130 442 130 L270 130 L270 0 L46 0 L46 706 Z M397 278 Q414 278 423.5 280 Q433 282 441 286 Q458 294 467.5 306 Q477 318 481.5 330 Q486 342 487 352 Q488 362 488 367 Q488 400 477 418 Q466 436 451 445 Q436 454 420.5 456 Q405 458 396 458 L270 458 L270 278 L397 278 Z " />
<glyph glyph-name="a" unicode="a" horiz-adv-x="600" d="M375 40 Q349 20 308.5 4 Q268 -12 201 -12 Q148 -12 113 4 Q78 20 56.5 44 Q35 68 26 97 Q17 126 17 153 Q17 190 27.5 215 Q38 240 52 256 Q72 280 96 294 Q120 308 147.5 316 Q175 324 204.5 327.5 Q234 331 266 336 Q282 339 293.5 340.5 Q305 342 315.5 344 Q326 346 337 348.5 Q348 351 365 356 Q365 395 344 405.5 Q323 416 292 416 Q274 416 262.5 412.5 Q251 409 244 403 Q237 397 233.5 388 Q230 379 227 367 L34 362 Q39 380 43 399 Q47 418 58 436 Q79 471 112 491 Q145 511 181.5 520.5 Q218 530 253.5 532.5 Q289 535 316 535 Q407 535 468.5 509 Q530 483 551 424 Q558 405 559 385 Q560 365 560 346 L560 64 Q560 38 563.5 26 Q567 14 578 0 L375 0 L375 40 Z M364 241 Q347 235 334 231 Q321 227 304 222 Q287 217 270 213 Q253 209 239 202 Q229 197 218.5 187.5 Q208 178 208 161 Q208 148 218.5 134.5 Q229 121 259 121 Q277 121 291.5 127 Q306 133 312 137 Q346 157 355 182.5 Q364 208 364 235 L364 241 Z " />
<glyph glyph-name="b" unicode="b" horiz-adv-x="625" d="M40 706 L245 706 L245 482 Q268 504 298 518.5 Q328 533 377 533 Q415 533 441.5 524 Q468 515 484 507 Q526 484 550 450.5 Q574 417 586 383 Q598 349 600.5 319 Q603 289 603 271 Q603 221 590.5 170.5 Q578 120 550 79 Q522 38 477.5 12.5 Q433 -13 369 -13 Q330 -13 302.5 -3.5 Q275 6 261 17 Q256 22 252 25 Q248 28 239 38 L239 0 L40 0 L40 706 Z M281 147 Q286 144 296 140 Q306 136 319 136 Q350 136 372 158 Q387 175 394 201 Q399 217 399.5 232.5 Q400 248 400 264 Q400 303 392 328.5 Q384 354 364 371 Q359 375 347 380.5 Q335 386 321 386 Q306 386 295 381 Q284 376 278 371 Q256 354 248 327.5 Q240 301 240 259 Q240 217 249 190.5 Q258 164 281 147 Z " />
<glyph glyph-name="c" unicode="c" horiz-adv-x="566" d="M565 139 Q557 125 551 112.5 Q545 100 534 86 Q502 43 443 11.5 Q384 -20 299 -20 Q233 -20 181.5 1 Q130 22 94.5 59.5 Q59 97 40.5 149 Q22 201 22 262 Q22 285 26.5 314.5 Q31 344 42.5 375 Q54 406 74.5 436 Q95 466 127 489 Q159 512 204.5 526.5 Q250 541 311 541 Q372 541 432.5 520 Q493 499 538 445 Q547 434 554.5 421 Q562 408 564 406 L408 318 Q406 325 401 338 Q396 351 386.5 364 Q377 377 360.5 386.5 Q344 396 320 396 Q276 396 251 358.5 Q226 321 226 256 Q226 236 229.5 215 Q233 194 242.5 177 Q252 160 269.5 148.5 Q287 137 316 137 Q341 137 357.5 149 Q374 161 384.5 176.5 Q395 192 400 206 Q405 220 407 225 L565 139 Z " />
<glyph glyph-name="d" unicode="d" horiz-adv-x="625" d="M386 38 Q377 28 373.5 25 Q370 22 365 18 Q350 6 322.5 -3.5 Q295 -13 256 -13 Q191 -13 146.5 13 Q102 39 74.5 79.5 Q47 120 34.5 170.5 Q22 221 22 271 Q22 306 28 340 Q34 374 48 405 Q62 436 85 462 Q108 488 142 507 Q176 526 207 529.5 Q238 533 248 533 Q298 533 327.5 518.5 Q357 504 380 482 L380 706 L585 706 L585 0 L386 0 L386 38 Z M253 158 Q275 136 306 136 Q320 136 332 141.5 Q344 147 349 151 Q362 161 369.5 175 Q377 189 380.5 204 Q384 219 384.5 233.5 Q385 248 385 259 Q385 271 384.5 285 Q384 299 380.5 314 Q377 329 370 343.5 Q363 358 350 369 Q344 374 332 380 Q320 386 304 386 Q294 386 281.5 381.5 Q269 377 258 368 Q225 338 225 264 Q225 253 225.5 239.5 Q226 226 229 211 Q232 196 237.5 182 Q243 168 253 158 Z " />
<glyph glyph-name="e" unicode="e" horiz-adv-x="609" d="M582 121 Q574 108 569.5 101.5 Q565 95 554 82 Q522 45 485.5 24 Q449 3 416 -7 Q383 -17 356 -19 Q329 -21 316 -21 L308 -21 Q245 -21 192.5 -1 Q140 19 102 56 Q64 93 43 145 Q22 197 22 261 Q22 330 45 382 Q68 434 106.5 469 Q145 504 196.5 521.5 Q248 539 305 539 Q371 539 418.5 521.5 Q466 504 499 477 Q532 450 551.5 417 Q571 384 580 353 Q590 320 591 287.5 Q592 255 593 223 L232 223 Q232 216 234 199.5 Q236 183 244.5 166.5 Q253 150 270 137.5 Q287 125 319 125 Q351 125 373.5 141.5 Q396 158 413 192 L582 121 Z M384 331 Q384 332 383 343.5 Q382 355 379 363 Q372 380 362 389 Q352 398 341.5 402.5 Q331 407 322.5 408 Q314 409 311 409 Q287 409 272 399 Q257 389 249 375.5 Q241 362 238 349.5 Q235 337 234 331 L384 331 Z " />
<glyph glyph-name="f" unicode="f" horiz-adv-x="391" d="M87 394 L10 394 L10 506 L87 506 L87 557 Q87 574 89 592.5 Q91 611 98 628 Q116 672 160.5 695 Q205 718 277 718 Q309 718 331.5 714.5 Q354 711 386 704 L386 563 Q380 565 371.5 567.5 Q363 570 350 570 Q319 570 306 556.5 Q293 543 293 513 L293 506 L386 506 L386 394 L293 394 L293 0 L87 0 L87 394 Z " />
<glyph glyph-name="g" unicode="g" horiz-adv-x="626" d="M211 -7 Q211 -18 213 -30.5 Q215 -43 226 -54 Q234 -63 251.5 -68.5 Q269 -74 292 -74 Q325 -74 344 -66 Q363 -58 372.5 -45.5 Q382 -33 385 -17.5 Q388 -2 388 14 Q388 32 388.5 46 Q389 60 390 78 Q383 68 380 65 Q377 62 371 57 Q357 45 339 38.5 Q321 32 304.5 29 Q288 26 274 25.5 Q260 25 253 25 Q194 25 150.5 45 Q107 65 78.5 99.5 Q50 134 36 179 Q22 224 22 275 Q22 291 24.5 316 Q27 341 35 369.5 Q43 398 58.5 427 Q74 456 101 479.5 Q128 503 167 517.5 Q206 532 262 532 Q304 532 333.5 522.5 Q363 513 380 499 Q389 492 395.5 484.5 Q402 477 409 469 L408 518 L586 518 L586 29 Q586 8 584.5 -13.5 Q583 -35 576.5 -56 Q570 -77 557 -97.5 Q544 -118 522 -136 Q499 -155 468.5 -166.5 Q438 -178 405.5 -184.5 Q373 -191 342 -193 Q311 -195 288 -195 Q238 -195 195.5 -189.5 Q153 -184 120.5 -171 Q88 -158 65.5 -136.5 Q43 -115 33 -83 Q27 -65 26 -45 Q25 -25 24 -7 L211 -7 Z M300 161 Q328 161 345 172 Q362 183 370.5 200.5 Q379 218 381.5 238.5 Q384 259 384 278 L384 289 Q384 299 382 316 Q380 333 372 349.5 Q364 366 348 377.5 Q332 389 304 389 Q270 389 248 368 Q218 338 218 271 Q218 252 220.5 232.5 Q223 213 231.5 197 Q240 181 256.5 171 Q273 161 300 161 Z " />
<glyph glyph-name="h" unicode="h" horiz-adv-x="642" d="M40 706 L245 706 L245 466 Q252 474 258.5 481.5 Q265 489 273 496 Q293 513 327 526.5 Q361 540 410 540 Q445 540 470.5 533 Q496 526 510 519 Q541 504 559.5 482.5 Q578 461 587.5 437 Q597 413 599.5 387.5 Q602 362 602 338 L602 0 L396 0 L396 295 Q396 305 394.5 318 Q393 331 385.5 342.5 Q378 354 363 362 Q348 370 322 370 Q295 370 280 361.5 Q265 353 257.5 341 Q250 329 248 315.5 Q246 302 246 292 L246 0 L40 0 L40 706 Z " />
<glyph glyph-name="i" unicode="i" horiz-adv-x="286" d="M40 706 L246 706 L246 569 L40 569 L40 706 Z M40 518 L246 518 L246 0 L40 0 L40 518 Z " />
<glyph glyph-name="j" unicode="j" horiz-adv-x="284" d="M38 706 L244 706 L244 569 L38 569 L38 706 Z M-40 -43 L-24 -43 Q-4 -43 8 -38.5 Q20 -34 27 -26 Q34 -18 36 -8 Q38 2 38 13 L38 518 L244 518 L244 8 Q244 -32 242 -59.5 Q240 -87 234 -104 Q222 -135 199 -153 Q176 -171 146 -180 Q116 -189 82 -191.5 Q48 -194 15 -194 Q1 -194 -12.5 -193.5 Q-26 -193 -40 -193 L-40 -43 Z " />
<glyph glyph-name="k" unicode="k" horiz-adv-x="640" d="M40 706 L246 706 L246 370 L387 518 L638 518 L441 331 L647 0 L412 0 L300 197 L246 145 L246 0 L40 0 L40 706 Z " />
<glyph glyph-name="l" unicode="l" horiz-adv-x="287" d="M40 706 L247 706 L247 0 L40 0 L40 706 Z " />
<glyph glyph-name="m" unicode="m" horiz-adv-x="994" d="M40 518 L239 518 L239 444 Q246 455 251 463.5 Q256 472 267 483 Q284 499 303.5 508.5 Q323 518 342.5 523 Q362 528 379 529 Q396 530 408 530 Q462 530 499.5 512.5 Q537 495 557 472 Q564 464 570.5 453 Q577 442 582 434 Q587 444 594.5 455.5 Q602 467 621 484 Q653 513 690.5 521.5 Q728 530 763 530 Q771 530 795 528 Q819 526 847.5 515 Q876 504 903 481 Q930 458 944 416 Q952 394 953 371.5 Q954 349 954 327 L954 0 L748 0 L748 271 Q748 288 746 304.5 Q744 321 736.5 333.5 Q729 346 715 353.5 Q701 361 678 361 Q649 361 633.5 351 Q618 341 611 327.5 Q604 314 602.5 300 Q601 286 601 278 L601 0 L395 0 L395 280 Q395 286 394 299 Q393 312 386 326 Q379 340 365 350.5 Q351 361 324 361 Q312 361 298.5 358 Q285 355 273.5 346 Q262 337 254.5 321.5 Q247 306 247 281 L247 0 L40 0 L40 518 Z " />
<glyph glyph-name="n" unicode="n" horiz-adv-x="636" d="M40 518 L234 518 L234 449 Q242 460 245 464 Q248 468 254 475 Q277 501 313 516.5 Q349 532 403 532 Q433 532 462.5 525.5 Q492 519 517.5 503.5 Q543 488 562 462 Q581 436 590 397 Q594 380 595 362 Q596 344 596 327 L596 0 L390 0 L390 287 Q390 296 388.5 308.5 Q387 321 380.5 333 Q374 345 359.5 353 Q345 361 320 361 Q293 361 277.5 351 Q262 341 255 327.5 Q248 314 246.5 300.5 Q245 287 245 279 L245 0 L40 0 L40 518 Z " />
<glyph glyph-name="o" unicode="o" horiz-adv-x="648" d="M22 256 Q22 301 32 336.5 Q42 372 51 390 Q73 435 106 464 Q139 493 176.5 510 Q214 527 253.5 533.5 Q293 540 328 540 Q380 540 428 527 Q476 514 509.5 492 Q543 470 565 443 Q587 416 599 387 Q611 358 617 332.5 Q623 307 624.5 287 Q626 267 626 258 Q626 251 625 234 Q624 217 619 194 Q614 171 604 144.5 Q594 118 575 92 Q556 66 527 43 Q498 20 456 4 Q432 -5 409.5 -10 Q387 -15 368.5 -17 Q350 -19 336 -19.5 Q322 -20 316 -20 Q226 -20 169 9 Q112 38 79 80.5 Q46 123 34 170.5 Q22 218 22 256 Z M323 125 Q355 125 374 139.5 Q393 154 402.5 175 Q412 196 415 219.5 Q418 243 418 260 Q418 334 392.5 364.5 Q367 395 325 395 Q285 395 261 371 Q249 359 242 343.5 Q235 328 232 313 Q229 298 228 285.5 Q227 273 227 267 L227 263 Q227 244 230 220 Q233 196 243 175 Q253 154 272 139.5 Q291 125 323 125 Z " />
<glyph glyph-name="p" unicode="p" horiz-adv-x="626" d="M40 518 L241 518 L241 478 Q249 487 253.5 492 Q258 497 265 502 Q282 514 310.5 523 Q339 532 374 532 Q440 532 484 507.5 Q528 483 554.5 443.5 Q581 404 592.5 354 Q604 304 604 253 Q604 203 592 155 Q580 107 553 69.5 Q526 32 483 9.5 Q440 -13 379 -13 Q323 -13 293.5 0.5 Q264 14 242 35 L242 -188 L40 -188 L40 518 Z M280 143 Q285 140 296 136 Q307 132 321 132 Q335 132 345.5 136.5 Q356 141 361 145 Q387 164 394 192.5 Q401 221 401 253 Q401 268 399.5 290.5 Q398 313 390 333 Q382 353 365.5 367.5 Q349 382 320 382 Q308 382 294 377 Q280 372 269 361 Q258 351 252 337.5 Q246 324 243.5 310 Q241 296 240.5 282.5 Q240 269 240 259 Q240 242 241 225.5 Q242 209 246 194 Q250 179 258 166 Q266 153 280 143 Z " />
<glyph glyph-name="q" unicode="q" horiz-adv-x="627" d="M384 35 Q373 24 360.5 15.5 Q348 7 332 0.5 Q316 -6 295 -9.5 Q274 -13 246 -13 Q185 -13 142.5 10 Q100 33 73 70.5 Q46 108 34 156.5 Q22 205 22 256 Q22 306 33.5 355.5 Q45 405 71.5 444 Q98 483 142 507.5 Q186 532 251 532 Q289 532 319 522 Q349 512 366 498 Q371 494 376 488.5 Q381 483 386 478 L386 518 L587 518 L587 -188 L384 -188 L384 35 Z M265 145 Q270 141 280.5 136.5 Q291 132 305 132 Q319 132 330.5 136 Q342 140 347 144 Q375 163 381 194 Q387 225 387 259 Q387 270 386.5 284 Q386 298 382.5 312 Q379 326 372.5 339.5 Q366 353 354 364 Q343 374 328.5 378 Q314 382 305 382 Q276 382 256 364 Q239 348 232 320 Q225 292 225 253 Q225 213 234 186.5 Q243 160 265 145 Z " />
<glyph glyph-name="r" unicode="r" horiz-adv-x="418" d="M40 518 L238 518 L238 470 Q256 486 272.5 497 Q289 508 308 514.5 Q327 521 351.5 523.5 Q376 526 410 526 L410 352 Q400 353 390 353.5 Q380 354 369 354 Q318 354 289.5 336 Q261 318 250 286 Q247 277 246 263.5 Q245 250 245 241 L245 0 L40 0 L40 518 Z " />
<glyph glyph-name="s" unicode="s" horiz-adv-x="538" d="M111 190 Q122 179 137.5 167 Q153 155 173.5 144.5 Q194 134 219 127 Q244 120 275 120 Q282 120 290.5 121.5 Q299 123 306.5 127 Q314 131 319.5 137 Q325 143 325 152 Q325 164 317.5 170.5 Q310 177 299.5 180.5 Q289 184 279 185 Q269 186 263 187 Q247 190 221.5 195 Q196 200 168 208.5 Q140 217 114.5 227.5 Q89 238 73 251 Q50 270 36 298.5 Q22 327 22 362 Q22 394 32.5 417.5 Q43 441 53 455 Q81 493 130 516 Q179 539 260 539 Q323 539 375.5 525 Q428 511 454 497 Q466 491 475 485 Q484 479 504 464 L393 363 Q384 369 370.5 377.5 Q357 386 340 394 Q323 402 302.5 407.5 Q282 413 259 413 Q216 413 216 386 Q216 378 220.5 373 Q225 368 232.5 365 Q240 362 248 360 Q256 358 264 356 Q327 340 371.5 330 Q416 320 442 305 Q455 297 469 286 Q483 275 494 259 Q505 243 512 222 Q519 201 519 174 Q519 141 505.5 106.5 Q492 72 462.5 44 Q433 16 387 -2 Q341 -20 275 -20 Q237 -20 203.5 -14 Q170 -8 142 1 Q114 10 92 21 Q70 32 55 41 Q38 52 25.5 61 Q13 70 -5 84 L111 190 Z " />
<glyph glyph-name="t" unicode="t" horiz-adv-x="383" d="M71 394 L0 394 L0 506 L73 506 L73 669 L278 669 L278 506 L368 506 L368 394 L278 394 L278 192 Q278 184 279 175.5 Q280 167 285 159 Q290 151 301 146 Q312 141 332 141 Q340 141 349 142 Q358 143 369 145 L369 4 Q337 0 305.5 -3.5 Q274 -7 239 -7 Q187 -7 154.5 4.5 Q122 16 103 36 Q84 56 77.5 82.5 Q71 109 71 139 L71 394 Z " />
<glyph glyph-name="u" unicode="u" horiz-adv-x="643" d="M40 518 L247 518 L247 231 Q247 221 248.5 207.5 Q250 194 257.5 181.5 Q265 169 280 160.5 Q295 152 322 152 Q346 152 360.5 159.5 Q375 167 383 179.5 Q391 192 393.5 208.5 Q396 225 396 244 L396 518 L603 518 L603 0 L407 0 L407 76 Q396 52 378 35 Q360 18 337.5 7.5 Q315 -3 289 -8 Q263 -13 236 -13 Q196 -13 169 -4.5 Q142 4 125 14 Q95 31 78 54.5 Q61 78 52.5 103.5 Q44 129 42 154.5 Q40 180 40 203 L40 518 Z " />
<glyph glyph-name="v" unicode="v" horiz-adv-x="564" d="M0 518 L218 518 L259 326 Q268 283 272 248.5 Q276 214 281 171 Q286 217 290.5 253.5 Q295 290 306 335 L348 518 L564 518 L392 0 L173 0 L0 518 Z " />
<glyph glyph-name="w" unicode="w" horiz-adv-x="852" d="M0 518 L210 518 L250 323 Q259 278 264 241.5 Q269 205 274 160 Q277 186 279 206 Q281 226 284 245.5 Q287 265 290.5 285 Q294 305 299 331 L337 518 L514 518 L552 336 Q557 312 561 290.5 Q565 269 568 248.5 Q571 228 574 206.5 Q577 185 580 160 Q583 198 586 227.5 Q589 257 597 295 L641 518 L852 518 L697 0 L492 0 L446 207 Q442 225 439 239.5 Q436 254 433.5 270.5 Q431 287 429 308 Q427 329 425 361 Q424 339 423 324 Q422 309 420.5 295.5 Q419 282 416 267 Q413 252 409 230 L361 0 L156 0 L0 518 Z " />
<glyph glyph-name="x" unicode="x" horiz-adv-x="610" d="M174 272 L20 518 L241 518 L305 363 L373 518 L595 518 L438 273 L610 0 L390 0 L305 168 L221 0 L0 0 L174 272 Z " />
<glyph glyph-name="y" unicode="y" horiz-adv-x="581" d="M78 -33 Q92 -34 106 -35 Q120 -36 134 -36 Q154 -36 167 -31.5 Q180 -27 180 -11 Q180 -3 175.5 10 Q171 23 164 42 L0 518 L215 518 L266 295 Q276 254 280.5 220 Q285 186 290 143 Q293 165 295 184.5 Q297 204 300 222.5 Q303 241 306.5 260 Q310 279 315 301 L367 518 L581 518 L392 -30 Q385 -50 375 -75 Q365 -100 351 -120 Q334 -144 316 -158 Q298 -172 278.5 -178.5 Q259 -185 238.5 -187 Q218 -189 196 -189 Q170 -189 140.5 -187.5 Q111 -186 78 -181 L78 -33 Z " />
<glyph glyph-name="z" unicode="z" horiz-adv-x="542" d="M8 114 L254 364 L39 364 L39 518 L529 518 L529 400 L288 155 L527 155 L527 0 L8 0 L8 114 Z " />
<glyph glyph-name="agrave" unicode="&#xe0;" horiz-adv-x="600" d="M375 40 Q349 20 308.5 4 Q268 -12 201 -12 Q148 -12 113 4 Q78 20 56.5 44 Q35 68 26 97 Q17 126 17 153 Q17 190 27.5 215 Q38 240 52 256 Q72 280 96 294 Q120 308 147.5 316 Q175 324 204.5 327.5 Q234 331 266 336 Q282 339 293.5 340.5 Q305 342 315.5 344 Q326 346 337 348.5 Q348 351 365 356 Q365 395 344 405.5 Q323 416 292 416 Q274 416 262.5 412.5 Q251 409 244 403 Q237 397 233.5 388 Q230 379 227 367 L34 362 Q39 380 43 399 Q47 418 58 436 Q79 471 112 491 Q145 511 181.5 520.5 Q218 530 253.5 532.5 Q289 535 316 535 Q407 535 468.5 509 Q530 483 551 424 Q558 405 559 385 Q560 365 560 346 L560 64 Q560 38 563.5 26 Q567 14 578 0 L375 0 L375 40 Z M364 241 Q347 235 334 231 Q321 227 304 222 Q287 217 270 213 Q253 209 239 202 Q229 197 218.5 187.5 Q208 178 208 161 Q208 148 218.5 134.5 Q229 121 259 121 Q277 121 291.5 127 Q306 133 312 137 Q346 157 355 182.5 Q364 208 364 235 L364 241 Z M338 724 L414 587 L287 587 L125 724 L338 724 Z " />
<glyph glyph-name="aacute" unicode="&#xe1;" horiz-adv-x="600" d="M375 40 Q349 20 308.5 4 Q268 -12 201 -12 Q148 -12 113 4 Q78 20 56.5 44 Q35 68 26 97 Q17 126 17 153 Q17 190 27.5 215 Q38 240 52 256 Q72 280 96 294 Q120 308 147.5 316 Q175 324 204.5 327.5 Q234 331 266 336 Q282 339 293.5 340.5 Q305 342 315.5 344 Q326 346 337 348.5 Q348 351 365 356 Q365 395 344 405.5 Q323 416 292 416 Q274 416 262.5 412.5 Q251 409 244 403 Q237 397 233.5 388 Q230 379 227 367 L34 362 Q39 380 43 399 Q47 418 58 436 Q79 471 112 491 Q145 511 181.5 520.5 Q218 530 253.5 532.5 Q289 535 316 535 Q407 535 468.5 509 Q530 483 551 424 Q558 405 559 385 Q560 365 560 346 L560 64 Q560 38 563.5 26 Q567 14 578 0 L375 0 L375 40 Z M364 241 Q347 235 334 231 Q321 227 304 222 Q287 217 270 213 Q253 209 239 202 Q229 197 218.5 187.5 Q208 178 208 161 Q208 148 218.5 134.5 Q229 121 259 121 Q277 121 291.5 127 Q306 133 312 137 Q346 157 355 182.5 Q364 208 364 235 L364 241 Z M284 724 L496 724 L335 587 L207 587 L284 724 Z " />
<glyph glyph-name="acircumflex" unicode="&#xe2;" horiz-adv-x="600" d="M375 40 Q349 20 308.5 4 Q268 -12 201 -12 Q148 -12 113 4 Q78 20 56.5 44 Q35 68 26 97 Q17 126 17 153 Q17 190 27.5 215 Q38 240 52 256 Q72 280 96 294 Q120 308 147.5 316 Q175 324 204.5 327.5 Q234 331 266 336 Q282 339 293.5 340.5 Q305 342 315.5 344 Q326 346 337 348.5 Q348 351 365 356 Q365 395 344 405.5 Q323 416 292 416 Q274 416 262.5 412.5 Q251 409 244 403 Q237 397 233.5 388 Q230 379 227 367 L34 362 Q39 380 43 399 Q47 418 58 436 Q79 471 112 491 Q145 511 181.5 520.5 Q218 530 253.5 532.5 Q289 535 316 535 Q407 535 468.5 509 Q530 483 551 424 Q558 405 559 385 Q560 365 560 346 L560 64 Q560 38 563.5 26 Q567 14 578 0 L375 0 L375 40 Z M364 241 Q347 235 334 231 Q321 227 304 222 Q287 217 270 213 Q253 209 239 202 Q229 197 218.5 187.5 Q208 178 208 161 Q208 148 218.5 134.5 Q229 121 259 121 Q277 121 291.5 127 Q306 133 312 137 Q346 157 355 182.5 Q364 208 364 235 L364 241 Z M221 724 L377 724 L481 586 L338 586 L297 652 L257 586 L115 586 L221 724 Z " />
<glyph glyph-name="atilde" unicode="&#xe3;" horiz-adv-x="600" d="M375 40 Q349 20 308.5 4 Q268 -12 201 -12 Q148 -12 113 4 Q78 20 56.5 44 Q35 68 26 97 Q17 126 17 153 Q17 190 27.5 215 Q38 240 52 256 Q72 280 96 294 Q120 308 147.5 316 Q175 324 204.5 327.5 Q234 331 266 336 Q282 339 293.5 340.5 Q305 342 315.5 344 Q326 346 337 348.5 Q348 351 365 356 Q365 395 344 405.5 Q323 416 292 416 Q274 416 262.5 412.5 Q251 409 244 403 Q237 397 233.5 388 Q230 379 227 367 L34 362 Q39 380 43 399 Q47 418 58 436 Q79 471 112 491 Q145 511 181.5 520.5 Q218 530 253.5 532.5 Q289 535 316 535 Q407 535 468.5 509 Q530 483 551 424 Q558 405 559 385 Q560 365 560 346 L560 64 Q560 38 563.5 26 Q567 14 578 0 L375 0 L375 40 Z M364 241 Q347 235 334 231 Q321 227 304 222 Q287 217 270 213 Q253 209 239 202 Q229 197 218.5 187.5 Q208 178 208 161 Q208 148 218.5 134.5 Q229 121 259 121 Q277 121 291.5 127 Q306 133 312 137 Q346 157 355 182.5 Q364 208 364 235 L364 241 Z M117 587 Q119 606 123 630.5 Q127 655 137.5 676.5 Q148 698 166.5 712.5 Q185 727 216 727 Q246 727 316 708 Q320 707 327.5 705 Q335 703 343 700.5 Q351 698 358.5 696.5 Q366 695 370 695 Q372 695 376.5 695.5 Q381 696 386 698.5 Q391 701 395 706.5 Q399 712 399 721 L399 723 L489 723 Q487 705 483 681.5 Q479 658 469 636 Q459 614 441 599 Q423 584 392 584 Q377 584 358.5 587 Q340 590 324 594 Q308 598 296 601.5 Q284 605 283 605 Q264 610 251 612.5 Q238 615 230 615 Q220 615 213.5 609.5 Q207 604 205 587 L117 587 Z " />
<glyph glyph-name="adieresis" unicode="&#xe4;" horiz-adv-x="600" d="M375 40 Q349 20 308.5 4 Q268 -12 201 -12 Q148 -12 113 4 Q78 20 56.5 44 Q35 68 26 97 Q17 126 17 153 Q17 190 27.5 215 Q38 240 52 256 Q72 280 96 294 Q120 308 147.5 316 Q175 324 204.5 327.5 Q234 331 266 336 Q282 339 293.5 340.5 Q305 342 315.5 344 Q326 346 337 348.5 Q348 351 365 356 Q365 395 344 405.5 Q323 416 292 416 Q274 416 262.5 412.5 Q251 409 244 403 Q237 397 233.5 388 Q230 379 227 367 L34 362 Q39 380 43 399 Q47 418 58 436 Q79 471 112 491 Q145 511 181.5 520.5 Q218 530 253.5 532.5 Q289 535 316 535 Q407 535 468.5 509 Q530 483 551 424 Q558 405 559 385 Q560 365 560 346 L560 64 Q560 38 563.5 26 Q567 14 578 0 L375 0 L375 40 Z M364 241 Q347 235 334 231 Q321 227 304 222 Q287 217 270 213 Q253 209 239 202 Q229 197 218.5 187.5 Q208 178 208 161 Q208 148 218.5 134.5 Q229 121 259 121 Q277 121 291.5 127 Q306 133 312 137 Q346 157 355 182.5 Q364 208 364 235 L364 241 Z M347 724 L512 724 L512 605 L347 605 L347 724 Z M102 724 L268 724 L268 605 L102 605 L102 724 Z " />
<glyph glyph-name="amacron" unicode="&#x101;" horiz-adv-x="600" d="M375 40 Q349 20 308.5 4 Q268 -12 201 -12 Q148 -12 113 4 Q78 20 56.5 44 Q35 68 26 97 Q17 126 17 153 Q17 190 27.5 215 Q38 240 52 256 Q72 280 96 294 Q120 308 147.5 316 Q175 324 204.5 327.5 Q234 331 266 336 Q282 339 293.5 340.5 Q305 342 315.5 344 Q326 346 337 348.5 Q348 351 365 356 Q365 395 344 405.5 Q323 416 292 416 Q274 416 262.5 412.5 Q251 409 244 403 Q237 397 233.5 388 Q230 379 227 367 L34 362 Q39 380 43 399 Q47 418 58 436 Q79 471 112 491 Q145 511 181.5 520.5 Q218 530 253.5 532.5 Q289 535 316 535 Q407 535 468.5 509 Q530 483 551 424 Q558 405 559 385 Q560 365 560 346 L560 64 Q560 38 563.5 26 Q567 14 578 0 L375 0 L375 40 Z M364 241 Q347 235 334 231 Q321 227 304 222 Q287 217 270 213 Q253 209 239 202 Q229 197 218.5 187.5 Q208 178 208 161 Q208 148 218.5 134.5 Q229 121 259 121 Q277 121 291.5 127 Q306 133 312 137 Q346 157 355 182.5 Q364 208 364 235 L364 241 Z M98 698 L508 698 L508 605 L98 605 L98 698 Z " />
<glyph glyph-name="abreve" unicode="&#x103;" horiz-adv-x="600" d="M375 40 Q349 20 308.5 4 Q268 -12 201 -12 Q148 -12 113 4 Q78 20 56.5 44 Q35 68 26 97 Q17 126 17 153 Q17 190 27.5 215 Q38 240 52 256 Q72 280 96 294 Q120 308 147.5 316 Q175 324 204.5 327.5 Q234 331 266 336 Q282 339 293.5 340.5 Q305 342 315.5 344 Q326 346 337 348.5 Q348 351 365 356 Q365 395 344 405.5 Q323 416 292 416 Q274 416 262.5 412.5 Q251 409 244 403 Q237 397 233.5 388 Q230 379 227 367 L34 362 Q39 380 43 399 Q47 418 58 436 Q79 471 112 491 Q145 511 181.5 520.5 Q218 530 253.5 532.5 Q289 535 316 535 Q407 535 468.5 509 Q530 483 551 424 Q558 405 559 385 Q560 365 560 346 L560 64 Q560 38 563.5 26 Q567 14 578 0 L375 0 L375 40 Z M364 241 Q347 235 334 231 Q321 227 304 222 Q287 217 270 213 Q253 209 239 202 Q229 197 218.5 187.5 Q208 178 208 161 Q208 148 218.5 134.5 Q229 121 259 121 Q277 121 291.5 127 Q306 133 312 137 Q346 157 355 182.5 Q364 208 364 235 L364 241 Z M258 726 L258 717 Q258 690 271 681 Q284 672 298 672 Q318 672 328 684.5 Q338 697 338 715 L338 726 L458 726 Q455 709 447.5 683 Q440 657 423 633 Q406 609 376.5 591.5 Q347 574 298 574 Q264 574 239.5 583 Q215 592 197.5 606 Q180 620 169.5 637.5 Q159 655 153 672 Q147 689 145.5 705 Q144 721 144 726 L258 726 Z " />
<glyph glyph-name="aring" unicode="&#xe5;" horiz-adv-x="600" d="M375 40 Q349 20 308.5 4 Q268 -12 201 -12 Q148 -12 113 4 Q78 20 56.5 44 Q35 68 26 97 Q17 126 17 153 Q17 190 27.5 215 Q38 240 52 256 Q72 280 96 294 Q120 308 147.5 316 Q175 324 204.5 327.5 Q234 331 266 336 Q282 339 293.5 340.5 Q305 342 315.5 344 Q326 346 337 348.5 Q348 351 365 356 Q365 395 344 405.5 Q323 416 292 416 Q274 416 262.5 412.5 Q251 409 244 403 Q237 397 233.5 388 Q230 379 227 367 L34 362 Q39 380 43 399 Q47 418 58 436 Q79 471 112 491 Q145 511 181.5 520.5 Q218 530 253.5 532.5 Q289 535 316 535 Q407 535 468.5 509 Q530 483 551 424 Q558 405 559 385 Q560 365 560 346 L560 64 Q560 38 563.5 26 Q567 14 578 0 L375 0 L375 40 Z M364 241 Q347 235 334 231 Q321 227 304 222 Q287 217 270 213 Q253 209 239 202 Q229 197 218.5 187.5 Q208 178 208 161 Q208 148 218.5 134.5 Q229 121 259 121 Q277 121 291.5 127 Q306 133 312 137 Q346 157 355 182.5 Q364 208 364 235 L364 241 Z M200 691 Q200 714 209 734 Q218 754 233 769 Q248 784 268 793 Q288 802 311 802 Q334 802 354 793 Q374 784 389 769 Q404 754 413 734 Q422 714 422 691 Q422 668 413 648 Q404 628 389 613 Q374 598 354 589 Q334 580 311 580 Q288 580 268 589 Q248 598 233 613 Q218 628 209 648 Q200 668 200 691 Z M311 655 Q326 655 336.5 665.5 Q347 676 347 691 Q347 706 336.5 716.5 Q326 727 311 727 Q296 727 285.5 716.5 Q275 706 275 691 Q275 676 285.5 665.5 Q296 655 311 655 Z " />
<glyph glyph-name="aogonek" unicode="&#x105;" horiz-adv-x="600" d="M375 40 Q349 20 308.5 4 Q268 -12 201 -12 Q148 -12 113 4 Q78 20 56.5 44 Q35 68 26 97 Q17 126 17 153 Q17 190 27.5 215 Q38 240 52 256 Q72 280 96 294 Q120 308 147.5 316 Q175 324 204.5 327.5 Q234 331 266 336 Q282 339 293.5 340.5 Q305 342 315.5 344 Q326 346 337 348.5 Q348 351 365 356 Q365 395 344 405.5 Q323 416 292 416 Q274 416 262.5 412.5 Q251 409 244 403 Q237 397 233.5 388 Q230 379 227 367 L34 362 Q39 380 43 399 Q47 418 58 436 Q79 471 112 491 Q145 511 181.5 520.5 Q218 530 253.5 532.5 Q289 535 316 535 Q407 535 468.5 509 Q530 483 551 424 Q558 405 559 385 Q560 365 560 346 L560 64 Q560 38 563.5 26 Q567 14 578 0 L510 0 Q504 -5 494.5 -12.5 Q485 -20 476 -30.5 Q467 -41 460.5 -54.5 Q454 -68 454 -84 Q454 -102 461.5 -113 Q469 -124 478.5 -130 Q488 -136 497.5 -137.5 Q507 -139 511 -139 Q522 -139 531 -135.5 Q540 -132 551 -127 L555 -175 Q538 -183 516.5 -189 Q495 -195 460 -195 Q431 -195 411 -187 Q391 -179 378.5 -166.5 Q366 -154 360 -138.5 Q354 -123 354 -109 Q354 -82 368 -62.5 Q382 -43 400 -29.5 Q418 -16 434.5 -9 Q451 -2 455 0 L375 0 L375 40 Z M364 241 Q347 235 334 231 Q321 227 304 222 Q287 217 270 213 Q253 209 239 202 Q229 197 218.5 187.5 Q208 178 208 161 Q208 148 218.5 134.5 Q229 121 259 121 Q277 121 291.5 127 Q306 133 312 137 Q346 157 355 182.5 Q364 208 364 235 L364 241 Z " />
<glyph glyph-name="ae" unicode="&#xe6;" horiz-adv-x="940" d="M38 359 Q40 378 44 394.5 Q48 411 58 429 Q78 466 110 487.5 Q142 509 176.5 520 Q211 531 243.5 534.5 Q276 538 298 538 Q357 538 398 529.5 Q439 521 458 513 Q469 508 478 502.5 Q487 497 490 495 Q517 511 554 525 Q591 539 649 539 Q706 539 750.5 522 Q795 505 827 478.5 Q859 452 879.5 420.5 Q900 389 909 360 Q920 325 922 293 Q924 261 924 250 Q924 243 924 236.5 Q924 230 923 223 L563 223 L563 215 Q563 185 572.5 167 Q582 149 596 140 Q610 131 624.5 128 Q639 125 650 125 Q673 125 689.5 132 Q706 139 717 149.5 Q728 160 735 172 Q742 184 747 194 L915 124 Q897 97 873.5 70.5 Q850 44 817.5 24 Q785 4 742.5 -8.5 Q700 -21 646 -21 Q577 -21 532 -1.5 Q487 18 454 42 Q437 33 414.5 22 Q392 11 364 1.5 Q336 -8 302 -14.5 Q268 -21 229 -21 Q170 -21 129.5 -5.5 Q89 10 64.5 35 Q40 60 29.5 90 Q19 120 19 150 Q19 188 31 214 Q43 240 55 254 Q75 278 99 291 Q123 304 150 311 Q177 318 206 321.5 Q235 325 265 329 Q294 334 317.5 338 Q341 342 370 348 L370 358 Q370 377 364 388.5 Q358 400 348.5 406 Q339 412 326.5 414 Q314 416 302 416 Q281 416 268 412 Q255 408 247.5 401 Q240 394 236.5 384.5 Q233 375 232 363 L38 359 Z M713 331 Q713 338 711 350.5 Q709 363 702 375 Q695 387 681 396 Q667 405 643 405 Q618 405 603 396 Q588 387 580.5 375 Q573 363 570.5 350.5 Q568 338 567 331 L713 331 Z M375 236 Q362 232 350 228.5 Q338 225 325 222 Q303 216 282.5 212 Q262 208 246 202 Q230 196 220 186.5 Q210 177 210 161 Q210 145 222.5 132 Q235 119 265 119 Q277 119 290.5 123 Q304 127 317.5 135 Q331 143 343 155 Q355 167 363 183 Q366 190 368.5 199 Q371 208 372.5 216 Q374 224 374.5 230 Q375 236 375 236 Z " />
<glyph glyph-name="cacute" unicode="&#x107;" horiz-adv-x="566" d="M565 139 Q557 125 551 112.5 Q545 100 534 86 Q502 43 443 11.5 Q384 -20 299 -20 Q233 -20 181.5 1 Q130 22 94.5 59.5 Q59 97 40.5 149 Q22 201 22 262 Q22 285 26.5 314.5 Q31 344 42.5 375 Q54 406 74.5 436 Q95 466 127 489 Q159 512 204.5 526.5 Q250 541 311 541 Q372 541 432.5 520 Q493 499 538 445 Q547 434 554.5 421 Q562 408 564 406 L408 318 Q406 325 401 338 Q396 351 386.5 364 Q377 377 360.5 386.5 Q344 396 320 396 Q276 396 251 358.5 Q226 321 226 256 Q226 236 229.5 215 Q233 194 242.5 177 Q252 160 269.5 148.5 Q287 137 316 137 Q341 137 357.5 149 Q374 161 384.5 176.5 Q395 192 400 206 Q405 220 407 225 L565 139 Z M281 724 L493 724 L332 587 L204 587 L281 724 Z " />
<glyph glyph-name="ccaron" unicode="&#x10d;" horiz-adv-x="566" d="M565 139 Q557 125 551 112.5 Q545 100 534 86 Q502 43 443 11.5 Q384 -20 299 -20 Q233 -20 181.5 1 Q130 22 94.5 59.5 Q59 97 40.5 149 Q22 201 22 262 Q22 285 26.5 314.5 Q31 344 42.5 375 Q54 406 74.5 436 Q95 466 127 489 Q159 512 204.5 526.5 Q250 541 311 541 Q372 541 432.5 520 Q493 499 538 445 Q547 434 554.5 421 Q562 408 564 406 L408 318 Q406 325 401 338 Q396 351 386.5 364 Q377 377 360.5 386.5 Q344 396 320 396 Q276 396 251 358.5 Q226 321 226 256 Q226 236 229.5 215 Q233 194 242.5 177 Q252 160 269.5 148.5 Q287 137 316 137 Q341 137 357.5 149 Q374 161 384.5 176.5 Q395 192 400 206 Q405 220 407 225 L565 139 Z M123 724 L266 724 L307 658 L347 724 L489 724 L383 586 L227 586 L123 724 Z " />
<glyph glyph-name="ccedilla" unicode="&#xe7;" horiz-adv-x="566" d="M196 -156 Q199 -157 204.5 -158.5 Q210 -160 218 -160 Q235 -160 248 -154.5 Q261 -149 261 -138 Q261 -126 251.5 -123.5 Q242 -121 236 -121 Q225 -121 212 -124 Q199 -127 198 -127 L201 -92 L251 -17 Q196 -10 153.5 13.5 Q111 37 81.5 74 Q52 111 37 158.5 Q22 206 22 262 Q22 285 26.5 314.5 Q31 344 42.5 375 Q54 406 74.5 436 Q95 466 127 489 Q159 512 204.5 526.5 Q250 541 311 541 Q372 541 432.5 520 Q493 499 538 445 Q547 434 554.5 421 Q562 408 564 406 L408 318 Q406 325 401 338 Q396 351 386.5 364 Q377 377 360.5 386.5 Q344 396 320 396 Q276 396 251 358.5 Q226 321 226 256 Q226 236 229.5 215 Q233 194 242.5 177 Q252 160 269.5 148.5 Q287 137 316 137 Q341 137 357.5 149 Q374 161 384.5 176.5 Q395 192 400 206 Q405 220 407 225 L565 139 Q557 125 551 112.5 Q545 100 534 86 Q503 44 446.5 13 Q390 -18 309 -20 L290 -59 Q297 -58 304 -57.5 Q311 -57 318 -57 Q341 -57 357 -64.5 Q373 -72 382.5 -82.5 Q392 -93 396 -106 Q400 -119 400 -129 Q400 -134 397.5 -147.5 Q395 -161 383 -176 Q360 -205 329.5 -211.5 Q299 -218 274 -218 Q243 -218 225.5 -215.5 Q208 -213 193 -211 L196 -156 Z " />
<glyph glyph-name="dcaron" unicode="&#x10f;" horiz-adv-x="625" d="M386 38 Q377 28 373.5 25 Q370 22 365 18 Q350 6 322.5 -3.5 Q295 -13 256 -13 Q191 -13 146.5 13 Q102 39 74.5 79.5 Q47 120 34.5 170.5 Q22 221 22 271 Q22 306 28 340 Q34 374 48 405 Q62 436 85 462 Q108 488 142 507 Q176 526 207 529.5 Q238 533 248 533 Q298 533 327.5 518.5 Q357 504 380 482 L380 706 L585 706 L585 0 L386 0 L386 38 Z M253 158 Q275 136 306 136 Q320 136 332 141.5 Q344 147 349 151 Q362 161 369.5 175 Q377 189 380.5 204 Q384 219 384.5 233.5 Q385 248 385 259 Q385 271 384.5 285 Q384 299 380.5 314 Q377 329 370 343.5 Q363 358 350 369 Q344 374 332 380 Q320 386 304 386 Q294 386 281.5 381.5 Q269 377 258 368 Q225 338 225 264 Q225 253 225.5 239.5 Q226 226 229 211 Q232 196 237.5 182 Q243 168 253 158 Z M633 524 Q692 550 692 591 L633 591 L633 706 L764 706 L764 610 Q764 557 742.5 526.5 Q721 496 667 473 L633 524 Z " />
<glyph glyph-name="dcroat" unicode="&#x111;" horiz-adv-x="625" d="M386 38 Q377 28 373.5 25 Q370 22 365 18 Q350 6 322.5 -3.5 Q295 -13 256 -13 Q191 -13 146.5 13 Q102 39 74.5 79.5 Q47 120 34.5 170.5 Q22 221 22 271 Q22 289 24.5 319 Q27 349 39 383 Q51 417 75 450 Q99 483 142 507 Q176 526 207 529.5 Q238 533 248 533 Q298 533 327.5 518.5 Q357 504 380 482 L380 568 L249 568 L249 674 L380 674 L380 706 L585 706 L585 674 L616 674 L616 568 L585 568 L585 0 L386 0 L386 38 Z M253 158 Q275 136 306 136 Q320 136 332 141.5 Q344 147 349 151 Q362 161 369.5 175 Q377 189 380.5 204 Q384 219 384.5 233.5 Q385 248 385 259 Q385 271 384.5 285 Q384 299 380.5 314 Q377 329 370 343.5 Q363 358 350 369 Q344 374 332 380 Q320 386 304 386 Q294 386 281.5 381.5 Q269 377 258 368 Q225 338 225 264 Q225 253 225.5 239.5 Q226 226 229 211 Q232 196 237.5 182 Q243 168 253 158 Z " />
<glyph glyph-name="egrave" unicode="&#xe8;" horiz-adv-x="609" d="M582 121 Q574 108 569.5 101.5 Q565 95 554 82 Q522 45 485.5 24 Q449 3 416 -7 Q383 -17 356 -19 Q329 -21 316 -21 L308 -21 Q245 -21 192.5 -1 Q140 19 102 56 Q64 93 43 145 Q22 197 22 261 Q22 330 45 382 Q68 434 106.5 469 Q145 504 196.5 521.5 Q248 539 305 539 Q371 539 418.5 521.5 Q466 504 499 477 Q532 450 551.5 417 Q571 384 580 353 Q590 320 591 287.5 Q592 255 593 223 L232 223 Q232 216 234 199.5 Q236 183 244.5 166.5 Q253 150 270 137.5 Q287 125 319 125 Q351 125 373.5 141.5 Q396 158 413 192 L582 121 Z M384 331 Q384 332 383 343.5 Q382 355 379 363 Q372 380 362 389 Q352 398 341.5 402.5 Q331 407 322.5 408 Q314 409 311 409 Q287 409 272 399 Q257 389 249 375.5 Q241 362 238 349.5 Q235 337 234 331 L384 331 Z M335 724 L411 587 L284 587 L122 724 L335 724 Z " />
<glyph glyph-name="eacute" unicode="&#xe9;" horiz-adv-x="609" d="M582 121 Q574 108 569.5 101.5 Q565 95 554 82 Q522 45 485.5 24 Q449 3 416 -7 Q383 -17 356 -19 Q329 -21 316 -21 L308 -21 Q245 -21 192.5 -1 Q140 19 102 56 Q64 93 43 145 Q22 197 22 261 Q22 330 45 382 Q68 434 106.5 469 Q145 504 196.5 521.5 Q248 539 305 539 Q371 539 418.5 521.5 Q466 504 499 477 Q532 450 551.5 417 Q571 384 580 353 Q590 320 591 287.5 Q592 255 593 223 L232 223 Q232 216 234 199.5 Q236 183 244.5 166.5 Q253 150 270 137.5 Q287 125 319 125 Q351 125 373.5 141.5 Q396 158 413 192 L582 121 Z M384 331 Q384 332 383 343.5 Q382 355 379 363 Q372 380 362 389 Q352 398 341.5 402.5 Q331 407 322.5 408 Q314 409 311 409 Q287 409 272 399 Q257 389 249 375.5 Q241 362 238 349.5 Q235 337 234 331 L384 331 Z M283 724 L495 724 L334 587 L206 587 L283 724 Z " />
<glyph glyph-name="ecircumflex" unicode="&#xea;" horiz-adv-x="609" d="M582 121 Q574 108 569.5 101.5 Q565 95 554 82 Q522 45 485.5 24 Q449 3 416 -7 Q383 -17 356 -19 Q329 -21 316 -21 L308 -21 Q245 -21 192.5 -1 Q140 19 102 56 Q64 93 43 145 Q22 197 22 261 Q22 330 45 382 Q68 434 106.5 469 Q145 504 196.5 521.5 Q248 539 305 539 Q371 539 418.5 521.5 Q466 504 499 477 Q532 450 551.5 417 Q571 384 580 353 Q590 320 591 287.5 Q592 255 593 223 L232 223 Q232 216 234 199.5 Q236 183 244.5 166.5 Q253 150 270 137.5 Q287 125 319 125 Q351 125 373.5 141.5 Q396 158 413 192 L582 121 Z M384 331 Q384 332 383 343.5 Q382 355 379 363 Q372 380 362 389 Q352 398 341.5 402.5 Q331 407 322.5 408 Q314 409 311 409 Q287 409 272 399 Q257 389 249 375.5 Q241 362 238 349.5 Q235 337 234 331 L384 331 Z M232 724 L388 724 L492 586 L349 586 L308 652 L268 586 L126 586 L232 724 Z " />
<glyph glyph-name="ecaron" unicode="&#x11b;" horiz-adv-x="609" d="M582 121 Q574 108 569.5 101.5 Q565 95 554 82 Q522 45 485.5 24 Q449 3 416 -7 Q383 -17 356 -19 Q329 -21 316 -21 L308 -21 Q245 -21 192.5 -1 Q140 19 102 56 Q64 93 43 145 Q22 197 22 261 Q22 330 45 382 Q68 434 106.5 469 Q145 504 196.5 521.5 Q248 539 305 539 Q371 539 418.5 521.5 Q466 504 499 477 Q532 450 551.5 417 Q571 384 580 353 Q590 320 591 287.5 Q592 255 593 223 L232 223 Q232 216 234 199.5 Q236 183 244.5 166.5 Q253 150 270 137.5 Q287 125 319 125 Q351 125 373.5 141.5 Q396 158 413 192 L582 121 Z M384 331 Q384 332 383 343.5 Q382 355 379 363 Q372 380 362 389 Q352 398 341.5 402.5 Q331 407 322.5 408 Q314 409 311 409 Q287 409 272 399 Q257 389 249 375.5 Q241 362 238 349.5 Q235 337 234 331 L384 331 Z M122 724 L265 724 L306 658 L346 724 L488 724 L382 586 L226 586 L122 724 Z " />
<glyph glyph-name="edieresis" unicode="&#xeb;" horiz-adv-x="609" d="M582 121 Q574 108 569.5 101.5 Q565 95 554 82 Q522 45 485.5 24 Q449 3 416 -7 Q383 -17 356 -19 Q329 -21 316 -21 L308 -21 Q245 -21 192.5 -1 Q140 19 102 56 Q64 93 43 145 Q22 197 22 261 Q22 330 45 382 Q68 434 106.5 469 Q145 504 196.5 521.5 Q248 539 305 539 Q371 539 418.5 521.5 Q466 504 499 477 Q532 450 551.5 417 Q571 384 580 353 Q590 320 591 287.5 Q592 255 593 223 L232 223 Q232 216 234 199.5 Q236 183 244.5 166.5 Q253 150 270 137.5 Q287 125 319 125 Q351 125 373.5 141.5 Q396 158 413 192 L582 121 Z M384 331 Q384 332 383 343.5 Q382 355 379 363 Q372 380 362 389 Q352 398 341.5 402.5 Q331 407 322.5 408 Q314 409 311 409 Q287 409 272 399 Q257 389 249 375.5 Q241 362 238 349.5 Q235 337 234 331 L384 331 Z M349 724 L514 724 L514 605 L349 605 L349 724 Z M104 724 L270 724 L270 605 L104 605 L104 724 Z " />
<glyph glyph-name="emacron" unicode="&#x113;" horiz-adv-x="609" d="M582 121 Q574 108 569.5 101.5 Q565 95 554 82 Q522 45 485.5 24 Q449 3 416 -7 Q383 -17 356 -19 Q329 -21 316 -21 L308 -21 Q245 -21 192.5 -1 Q140 19 102 56 Q64 93 43 145 Q22 197 22 261 Q22 330 45 382 Q68 434 106.5 469 Q145 504 196.5 521.5 Q248 539 305 539 Q371 539 418.5 521.5 Q466 504 499 477 Q532 450 551.5 417 Q571 384 580 353 Q590 320 591 287.5 Q592 255 593 223 L232 223 Q232 216 234 199.5 Q236 183 244.5 166.5 Q253 150 270 137.5 Q287 125 319 125 Q351 125 373.5 141.5 Q396 158 413 192 L582 121 Z M384 331 Q384 332 383 343.5 Q382 355 379 363 Q372 380 362 389 Q352 398 341.5 402.5 Q331 407 322.5 408 Q314 409 311 409 Q287 409 272 399 Q257 389 249 375.5 Q241 362 238 349.5 Q235 337 234 331 L384 331 Z M100 698 L510 698 L510 605 L100 605 L100 698 Z " />
<glyph glyph-name="edotaccent" unicode="&#x117;" horiz-adv-x="609" d="M582 121 Q574 108 569.5 101.5 Q565 95 554 82 Q522 45 485.5 24 Q449 3 416 -7 Q383 -17 356 -19 Q329 -21 316 -21 L308 -21 Q245 -21 192.5 -1 Q140 19 102 56 Q64 93 43 145 Q22 197 22 261 Q22 330 45 382 Q68 434 106.5 469 Q145 504 196.5 521.5 Q248 539 305 539 Q371 539 418.5 521.5 Q466 504 499 477 Q532 450 551.5 417 Q571 384 580 353 Q590 320 591 287.5 Q592 255 593 223 L232 223 Q232 216 234 199.5 Q236 183 244.5 166.5 Q253 150 270 137.5 Q287 125 319 125 Q351 125 373.5 141.5 Q396 158 413 192 L582 121 Z M384 331 Q384 332 383 343.5 Q382 355 379 363 Q372 380 362 389 Q352 398 341.5 402.5 Q331 407 322.5 408 Q314 409 311 409 Q287 409 272 399 Q257 389 249 375.5 Q241 362 238 349.5 Q235 337 234 331 L384 331 Z M222 724 L388 724 L388 605 L222 605 L222 724 Z " />
<glyph glyph-name="eogonek" unicode="&#x119;" horiz-adv-x="609" d="M308 -21 Q245 -21 192.5 -1 Q140 19 102 56 Q64 93 43 145 Q22 197 22 261 Q22 330 45 382 Q68 434 106.5 469 Q145 504 196.5 521.5 Q248 539 305 539 Q371 539 418.5 521.5 Q466 504 499 477 Q532 450 551.5 417 Q571 384 580 353 Q590 320 591 287.5 Q592 255 593 223 L232 223 Q232 216 234 199.5 Q236 183 244.5 166.5 Q253 150 270 137.5 Q287 125 319 125 Q351 125 373.5 141.5 Q396 158 413 192 L582 121 Q574 108 569.5 101.5 Q565 95 554 82 Q524 47 490.5 27 Q457 7 425 -3 Q419 -8 410 -16 Q401 -24 393 -34 Q385 -44 379.5 -56.5 Q374 -69 374 -84 Q374 -102 381.5 -113 Q389 -124 398.5 -130 Q408 -136 417.5 -137.5 Q427 -139 431 -139 Q442 -139 451 -135.5 Q460 -132 471 -127 L475 -175 Q458 -183 436.5 -189 Q415 -195 380 -195 Q351 -195 331 -187 Q311 -179 298.5 -166.5 Q286 -154 280 -138.5 Q274 -123 274 -109 Q274 -77 293 -55.5 Q312 -34 333 -21 L308 -21 Z M384 331 Q384 332 383 343.5 Q382 355 379 363 Q372 380 362 389 Q352 398 341.5 402.5 Q331 407 322.5 408 Q314 409 311 409 Q287 409 272 399 Q257 389 249 375.5 Q241 362 238 349.5 Q235 337 234 331 L384 331 Z " />
<glyph glyph-name="gbreve" unicode="&#x11f;" horiz-adv-x="626" d="M211 -7 Q211 -18 213 -30.5 Q215 -43 226 -54 Q234 -63 251.5 -68.5 Q269 -74 292 -74 Q325 -74 344 -66 Q363 -58 372.5 -45.5 Q382 -33 385 -17.5 Q388 -2 388 14 Q388 32 388.5 46 Q389 60 390 78 Q383 68 380 65 Q377 62 371 57 Q357 45 339 38.5 Q321 32 304.5 29 Q288 26 274 25.5 Q260 25 253 25 Q194 25 150.5 45 Q107 65 78.5 99.5 Q50 134 36 179 Q22 224 22 275 Q22 291 24.5 316 Q27 341 35 369.5 Q43 398 58.5 427 Q74 456 101 479.5 Q128 503 167 517.5 Q206 532 262 532 Q304 532 333.5 522.5 Q363 513 380 499 Q389 492 395.5 484.5 Q402 477 409 469 L408 518 L586 518 L586 29 Q586 8 584.5 -13.5 Q583 -35 576.5 -56 Q570 -77 557 -97.5 Q544 -118 522 -136 Q499 -155 468.5 -166.5 Q438 -178 405.5 -184.5 Q373 -191 342 -193 Q311 -195 288 -195 Q238 -195 195.5 -189.5 Q153 -184 120.5 -171 Q88 -158 65.5 -136.5 Q43 -115 33 -83 Q27 -65 26 -45 Q25 -25 24 -7 L211 -7 Z M300 161 Q328 161 345 172 Q362 183 370.5 200.5 Q379 218 381.5 238.5 Q384 259 384 278 L384 289 Q384 299 382 316 Q380 333 372 349.5 Q364 366 348 377.5 Q332 389 304 389 Q270 389 248 368 Q218 338 218 271 Q218 252 220.5 232.5 Q223 213 231.5 197 Q240 181 256.5 171 Q273 161 300 161 Z M259 726 L259 717 Q259 690 272 681 Q285 672 299 672 Q319 672 329 684.5 Q339 697 339 715 L339 726 L459 726 Q456 709 448.5 683 Q441 657 424 633 Q407 609 377.5 591.5 Q348 574 299 574 Q265 574 240.5 583 Q216 592 198.5 606 Q181 620 170.5 637.5 Q160 655 154 672 Q148 689 146.5 705 Q145 721 145 726 L259 726 Z " />
<glyph glyph-name="gcommaaccent" unicode="&#x123;" horiz-adv-x="626" d="M211 -7 Q211 -18 213 -30.5 Q215 -43 226 -54 Q234 -63 251.5 -68.5 Q269 -74 292 -74 Q325 -74 344 -66 Q363 -58 372.5 -45.5 Q382 -33 385 -17.5 Q388 -2 388 14 Q388 32 388.5 46 Q389 60 390 78 Q383 68 380 65 Q377 62 371 57 Q357 45 339 38.5 Q321 32 304.5 29 Q288 26 274 25.5 Q260 25 253 25 Q194 25 150.5 45 Q107 65 78.5 99.5 Q50 134 36 179 Q22 224 22 275 Q22 291 24.5 316 Q27 341 35 369.5 Q43 398 58.5 427 Q74 456 101 479.5 Q128 503 167 517.5 Q206 532 262 532 Q304 532 333.5 522.5 Q363 513 380 499 Q389 492 395.5 484.5 Q402 477 409 469 L408 518 L586 518 L586 29 Q586 8 584.5 -13.5 Q583 -35 576.5 -56 Q570 -77 557 -97.5 Q544 -118 522 -136 Q499 -155 468.5 -166.5 Q438 -178 405.5 -184.5 Q373 -191 342 -193 Q311 -195 288 -195 Q238 -195 195.5 -189.5 Q153 -184 120.5 -171 Q88 -158 65.5 -136.5 Q43 -115 33 -83 Q27 -65 26 -45 Q25 -25 24 -7 L211 -7 Z M300 161 Q328 161 345 172 Q362 183 370.5 200.5 Q379 218 381.5 238.5 Q384 259 384 278 L384 289 Q384 299 382 316 Q380 333 372 349.5 Q364 366 348 377.5 Q332 389 304 389 Q270 389 248 368 Q218 338 218 271 Q218 252 220.5 232.5 Q223 213 231.5 197 Q240 181 256.5 171 Q273 161 300 161 Z M229 670 Q229 723 250.5 753.5 Q272 784 326 807 L360 756 Q301 730 301 689 L360 689 L360 574 L229 574 L229 670 Z " />
<glyph glyph-name="igrave" unicode="&#xec;" horiz-adv-x="286" d="M40 518 L246 518 L246 0 L40 0 L40 518 Z M166 724 L242 587 L115 587 L-47 724 L166 724 Z " />
<glyph glyph-name="iacute" unicode="&#xed;" horiz-adv-x="286" d="M40 518 L246 518 L246 0 L40 0 L40 518 Z M119 724 L331 724 L170 587 L42 587 L119 724 Z " />
<glyph glyph-name="icircumflex" unicode="&#xee;" horiz-adv-x="286" d="M40 518 L246 518 L246 0 L40 0 L40 518 Z M64 724 L220 724 L324 586 L181 586 L140 652 L100 586 L-42 586 L64 724 Z " />
<glyph glyph-name="idieresis" unicode="&#xef;" horiz-adv-x="286" d="M40 518 L246 518 L246 0 L40 0 L40 518 Z M180 724 L345 724 L345 605 L180 605 L180 724 Z M-65 724 L101 724 L101 605 L-65 605 L-65 724 Z " />
<glyph glyph-name="imacron" unicode="&#x12b;" horiz-adv-x="286" d="M40 518 L246 518 L246 0 L40 0 L40 518 Z M-61 698 L349 698 L349 605 L-61 605 L-61 698 Z " />
<glyph glyph-name="iogonek" unicode="&#x12f;" horiz-adv-x="286" d="M40 518 L246 518 L246 0 L198 0 Q192 -5 182.5 -12.5 Q173 -20 164 -30.5 Q155 -41 148.5 -54.5 Q142 -68 142 -84 Q142 -102 149.5 -113 Q157 -124 166.5 -130 Q176 -136 185.5 -137.5 Q195 -139 199 -139 Q210 -139 219 -135.5 Q228 -132 239 -127 L243 -175 Q226 -183 204.5 -189 Q183 -195 148 -195 Q119 -195 99 -187 Q79 -179 66.5 -166.5 Q54 -154 48 -138.5 Q42 -123 42 -109 Q42 -82 56 -62.5 Q70 -43 88 -29.5 Q106 -16 122.5 -9 Q139 -2 143 0 L40 0 L40 518 Z M40 706 L246 706 L246 569 L40 569 L40 706 Z " />
<glyph glyph-name="dotlessi" unicode="&#x131;" horiz-adv-x="286" d="M40 518 L246 518 L246 0 L40 0 L40 518 Z " />
<glyph glyph-name="kcommaaccent" unicode="&#x137;" horiz-adv-x="640" d="M40 706 L246 706 L246 370 L387 518 L638 518 L441 331 L647 0 L412 0 L300 197 L246 145 L246 0 L40 0 L40 706 Z M178 -138 Q229 -147 286 -147 Q328 -147 342.5 -136 Q357 -125 357 -107 Q357 -93 345 -82.5 Q333 -72 307 -72 Q272 -72 226 -81 L240 -23 Q263 -18 284.5 -15 Q306 -12 326 -12 Q368 -12 396 -19.5 Q424 -27 441.5 -40 Q459 -53 466 -70.5 Q473 -88 473 -107 Q473 -125 465 -143.5 Q457 -162 438 -177 Q419 -192 387.5 -201 Q356 -210 309 -210 Q253 -210 178 -198 L178 -138 Z " />
<glyph glyph-name="lacute" unicode="&#x13a;" horiz-adv-x="287" d="M40 706 L247 706 L247 0 L40 0 L40 706 Z M111 874 L328 874 L178 754 L46 754 L111 874 Z " />
<glyph glyph-name="lcaron" unicode="&#x13e;" horiz-adv-x="287" d="M40 706 L247 706 L247 0 L40 0 L40 706 Z M295 524 Q354 550 354 591 L295 591 L295 706 L426 706 L426 610 Q426 557 404.5 526.5 Q383 496 329 473 L295 524 Z " />
<glyph glyph-name="lcommaaccent" unicode="&#x13c;" horiz-adv-x="287" d="M40 706 L247 706 L247 0 L40 0 L40 706 Z M-16 -138 Q35 -147 92 -147 Q134 -147 148.5 -136 Q163 -125 163 -107 Q163 -93 151 -82.5 Q139 -72 113 -72 Q78 -72 32 -81 L46 -23 Q69 -18 90.5 -15 Q112 -12 132 -12 Q174 -12 202 -19.5 Q230 -27 247.5 -40 Q265 -53 272 -70.5 Q279 -88 279 -107 Q279 -125 271 -143.5 Q263 -162 244 -177 Q225 -192 193.5 -201 Q162 -210 115 -210 Q59 -210 -16 -198 L-16 -138 Z " />
<glyph glyph-name="lslash" unicode="&#x142;" horiz-adv-x="287" d="M40 245 L-1 217 L-1 328 L40 356 L40 706 L247 706 L247 497 L291 527 L291 414 L247 384 L247 0 L40 0 L40 245 Z " />
<glyph glyph-name="nacute" unicode="&#x144;" horiz-adv-x="636" d="M40 518 L234 518 L234 449 Q242 460 245 464 Q248 468 254 475 Q277 501 313 516.5 Q349 532 403 532 Q433 532 462.5 525.5 Q492 519 517.5 503.5 Q543 488 562 462 Q581 436 590 397 Q594 380 595 362 Q596 344 596 327 L596 0 L390 0 L390 287 Q390 296 388.5 308.5 Q387 321 380.5 333 Q374 345 359.5 353 Q345 361 320 361 Q293 361 277.5 351 Q262 341 255 327.5 Q248 314 246.5 300.5 Q245 287 245 279 L245 0 L40 0 L40 518 Z M286 724 L498 724 L337 587 L209 587 L286 724 Z " />
<glyph glyph-name="ncaron" unicode="&#x148;" horiz-adv-x="636" d="M40 518 L234 518 L234 449 Q242 460 245 464 Q248 468 254 475 Q277 501 313 516.5 Q349 532 403 532 Q433 532 462.5 525.5 Q492 519 517.5 503.5 Q543 488 562 462 Q581 436 590 397 Q594 380 595 362 Q596 344 596 327 L596 0 L390 0 L390 287 Q390 296 388.5 308.5 Q387 321 380.5 333 Q374 345 359.5 353 Q345 361 320 361 Q293 361 277.5 351 Q262 341 255 327.5 Q248 314 246.5 300.5 Q245 287 245 279 L245 0 L40 0 L40 518 Z M135 724 L278 724 L319 658 L359 724 L501 724 L395 586 L239 586 L135 724 Z " />
<glyph glyph-name="ntilde" unicode="&#xf1;" horiz-adv-x="636" d="M40 518 L234 518 L234 449 Q242 460 245 464 Q248 468 254 475 Q277 501 313 516.5 Q349 532 403 532 Q433 532 462.5 525.5 Q492 519 517.5 503.5 Q543 488 562 462 Q581 436 590 397 Q594 380 595 362 Q596 344 596 327 L596 0 L390 0 L390 287 Q390 296 388.5 308.5 Q387 321 380.5 333 Q374 345 359.5 353 Q345 361 320 361 Q293 361 277.5 351 Q262 341 255 327.5 Q248 314 246.5 300.5 Q245 287 245 279 L245 0 L40 0 L40 518 Z M132 587 Q134 606 138 630.5 Q142 655 152.5 676.5 Q163 698 181.5 712.5 Q200 727 231 727 Q261 727 331 708 Q335 707 342.5 705 Q350 703 358 700.5 Q366 698 373.5 696.5 Q381 695 385 695 Q387 695 391.5 695.5 Q396 696 401 698.5 Q406 701 410 706.5 Q414 712 414 721 L414 723 L504 723 Q502 705 498 681.5 Q494 658 484 636 Q474 614 456 599 Q438 584 407 584 Q392 584 373.5 587 Q355 590 339 594 Q323 598 311 601.5 Q299 605 298 605 Q279 610 266 612.5 Q253 615 245 615 Q235 615 228.5 609.5 Q222 604 220 587 L132 587 Z " />
<glyph glyph-name="ncommaaccent" unicode="&#x146;" horiz-adv-x="636" d="M40 518 L234 518 L234 449 Q242 460 245 464 Q248 468 254 475 Q277 501 313 516.5 Q349 532 403 532 Q433 532 462.5 525.5 Q492 519 517.5 503.5 Q543 488 562 462 Q581 436 590 397 Q594 380 595 362 Q596 344 596 327 L596 0 L390 0 L390 287 Q390 296 388.5 308.5 Q387 321 380.5 333 Q374 345 359.5 353 Q345 361 320 361 Q293 361 277.5 351 Q262 341 255 327.5 Q248 314 246.5 300.5 Q245 287 245 279 L245 0 L40 0 L40 518 Z M174 -138 Q225 -147 282 -147 Q324 -147 338.5 -136 Q353 -125 353 -107 Q353 -93 341 -82.5 Q329 -72 303 -72 Q268 -72 222 -81 L236 -23 Q259 -18 280.5 -15 Q302 -12 322 -12 Q364 -12 392 -19.5 Q420 -27 437.5 -40 Q455 -53 462 -70.5 Q469 -88 469 -107 Q469 -125 461 -143.5 Q453 -162 434 -177 Q415 -192 383.5 -201 Q352 -210 305 -210 Q249 -210 174 -198 L174 -138 Z " />
<glyph glyph-name="ograve" unicode="&#xf2;" horiz-adv-x="648" d="M22 256 Q22 301 32 336.5 Q42 372 51 390 Q73 435 106 464 Q139 493 176.5 510 Q214 527 253.5 533.5 Q293 540 328 540 Q380 540 428 527 Q476 514 509.5 492 Q543 470 565 443 Q587 416 599 387 Q611 358 617 332.5 Q623 307 624.5 287 Q626 267 626 258 Q626 251 625 234 Q624 217 619 194 Q614 171 604 144.5 Q594 118 575 92 Q556 66 527 43 Q498 20 456 4 Q432 -5 409.5 -10 Q387 -15 368.5 -17 Q350 -19 336 -19.5 Q322 -20 316 -20 Q226 -20 169 9 Q112 38 79 80.5 Q46 123 34 170.5 Q22 218 22 256 Z M323 125 Q355 125 374 139.5 Q393 154 402.5 175 Q412 196 415 219.5 Q418 243 418 260 Q418 334 392.5 364.5 Q367 395 325 395 Q285 395 261 371 Q249 359 242 343.5 Q235 328 232 313 Q229 298 228 285.5 Q227 273 227 267 L227 263 Q227 244 230 220 Q233 196 243 175 Q253 154 272 139.5 Q291 125 323 125 Z M342 724 L418 587 L291 587 L129 724 L342 724 Z " />
<glyph glyph-name="oacute" unicode="&#xf3;" horiz-adv-x="648" d="M22 256 Q22 301 32 336.5 Q42 372 51 390 Q73 435 106 464 Q139 493 176.5 510 Q214 527 253.5 533.5 Q293 540 328 540 Q380 540 428 527 Q476 514 509.5 492 Q543 470 565 443 Q587 416 599 387 Q611 358 617 332.5 Q623 307 624.5 287 Q626 267 626 258 Q626 251 625 234 Q624 217 619 194 Q614 171 604 144.5 Q594 118 575 92 Q556 66 527 43 Q498 20 456 4 Q432 -5 409.5 -10 Q387 -15 368.5 -17 Q350 -19 336 -19.5 Q322 -20 316 -20 Q226 -20 169 9 Q112 38 79 80.5 Q46 123 34 170.5 Q22 218 22 256 Z M323 125 Q355 125 374 139.5 Q393 154 402.5 175 Q412 196 415 219.5 Q418 243 418 260 Q418 334 392.5 364.5 Q367 395 325 395 Q285 395 261 371 Q249 359 242 343.5 Q235 328 232 313 Q229 298 228 285.5 Q227 273 227 267 L227 263 Q227 244 230 220 Q233 196 243 175 Q253 154 272 139.5 Q291 125 323 125 Z M301 724 L513 724 L352 587 L224 587 L301 724 Z " />
<glyph glyph-name="ocircumflex" unicode="&#xf4;" horiz-adv-x="648" d="M22 256 Q22 301 32 336.5 Q42 372 51 390 Q73 435 106 464 Q139 493 176.5 510 Q214 527 253.5 533.5 Q293 540 328 540 Q380 540 428 527 Q476 514 509.5 492 Q543 470 565 443 Q587 416 599 387 Q611 358 617 332.5 Q623 307 624.5 287 Q626 267 626 258 Q626 251 625 234 Q624 217 619 194 Q614 171 604 144.5 Q594 118 575 92 Q556 66 527 43 Q498 20 456 4 Q432 -5 409.5 -10 Q387 -15 368.5 -17 Q350 -19 336 -19.5 Q322 -20 316 -20 Q226 -20 169 9 Q112 38 79 80.5 Q46 123 34 170.5 Q22 218 22 256 Z M323 125 Q355 125 374 139.5 Q393 154 402.5 175 Q412 196 415 219.5 Q418 243 418 260 Q418 334 392.5 364.5 Q367 395 325 395 Q285 395 261 371 Q249 359 242 343.5 Q235 328 232 313 Q229 298 228 285.5 Q227 273 227 267 L227 263 Q227 244 230 220 Q233 196 243 175 Q253 154 272 139.5 Q291 125 323 125 Z M251 724 L407 724 L511 586 L368 586 L327 652 L287 586 L145 586 L251 724 Z " />
<glyph glyph-name="otilde" unicode="&#xf5;" horiz-adv-x="648" d="M22 256 Q22 301 32 336.5 Q42 372 51 390 Q73 435 106 464 Q139 493 176.5 510 Q214 527 253.5 533.5 Q293 540 328 540 Q380 540 428 527 Q476 514 509.5 492 Q543 470 565 443 Q587 416 599 387 Q611 358 617 332.5 Q623 307 624.5 287 Q626 267 626 258 Q626 251 625 234 Q624 217 619 194 Q614 171 604 144.5 Q594 118 575 92 Q556 66 527 43 Q498 20 456 4 Q432 -5 409.5 -10 Q387 -15 368.5 -17 Q350 -19 336 -19.5 Q322 -20 316 -20 Q226 -20 169 9 Q112 38 79 80.5 Q46 123 34 170.5 Q22 218 22 256 Z M323 125 Q355 125 374 139.5 Q393 154 402.5 175 Q412 196 415 219.5 Q418 243 418 260 Q418 334 392.5 364.5 Q367 395 325 395 Q285 395 261 371 Q249 359 242 343.5 Q235 328 232 313 Q229 298 228 285.5 Q227 273 227 267 L227 263 Q227 244 230 220 Q233 196 243 175 Q253 154 272 139.5 Q291 125 323 125 Z M142 587 Q144 606 148 630.5 Q152 655 162.5 676.5 Q173 698 191.5 712.5 Q210 727 241 727 Q271 727 341 708 Q345 707 352.5 705 Q360 703 368 700.5 Q376 698 383.5 696.5 Q391 695 395 695 Q397 695 401.5 695.5 Q406 696 411 698.5 Q416 701 420 706.5 Q424 712 424 721 L424 723 L514 723 Q512 705 508 681.5 Q504 658 494 636 Q484 614 466 599 Q448 584 417 584 Q402 584 383.5 587 Q365 590 349 594 Q333 598 321 601.5 Q309 605 308 605 Q289 610 276 612.5 Q263 615 255 615 Q245 615 238.5 609.5 Q232 604 230 587 L142 587 Z " />
<glyph glyph-name="odieresis" unicode="&#xf6;" horiz-adv-x="648" d="M22 256 Q22 301 32 336.5 Q42 372 51 390 Q73 435 106 464 Q139 493 176.5 510 Q214 527 253.5 533.5 Q293 540 328 540 Q380 540 428 527 Q476 514 509.5 492 Q543 470 565 443 Q587 416 599 387 Q611 358 617 332.5 Q623 307 624.5 287 Q626 267 626 258 Q626 251 625 234 Q624 217 619 194 Q614 171 604 144.5 Q594 118 575 92 Q556 66 527 43 Q498 20 456 4 Q432 -5 409.5 -10 Q387 -15 368.5 -17 Q350 -19 336 -19.5 Q322 -20 316 -20 Q226 -20 169 9 Q112 38 79 80.5 Q46 123 34 170.5 Q22 218 22 256 Z M323 125 Q355 125 374 139.5 Q393 154 402.5 175 Q412 196 415 219.5 Q418 243 418 260 Q418 334 392.5 364.5 Q367 395 325 395 Q285 395 261 371 Q249 359 242 343.5 Q235 328 232 313 Q229 298 228 285.5 Q227 273 227 267 L227 263 Q227 244 230 220 Q233 196 243 175 Q253 154 272 139.5 Q291 125 323 125 Z M368 724 L533 724 L533 605 L368 605 L368 724 Z M123 724 L289 724 L289 605 L123 605 L123 724 Z " />
<glyph glyph-name="omacron" unicode="&#x14d;" horiz-adv-x="648" d="M22 256 Q22 301 32 336.5 Q42 372 51 390 Q73 435 106 464 Q139 493 176.5 510 Q214 527 253.5 533.5 Q293 540 328 540 Q380 540 428 527 Q476 514 509.5 492 Q543 470 565 443 Q587 416 599 387 Q611 358 617 332.5 Q623 307 624.5 287 Q626 267 626 258 Q626 251 625 234 Q624 217 619 194 Q614 171 604 144.5 Q594 118 575 92 Q556 66 527 43 Q498 20 456 4 Q432 -5 409.5 -10 Q387 -15 368.5 -17 Q350 -19 336 -19.5 Q322 -20 316 -20 Q226 -20 169 9 Q112 38 79 80.5 Q46 123 34 170.5 Q22 218 22 256 Z M323 125 Q355 125 374 139.5 Q393 154 402.5 175 Q412 196 415 219.5 Q418 243 418 260 Q418 334 392.5 364.5 Q367 395 325 395 Q285 395 261 371 Q249 359 242 343.5 Q235 328 232 313 Q229 298 228 285.5 Q227 273 227 267 L227 263 Q227 244 230 220 Q233 196 243 175 Q253 154 272 139.5 Q291 125 323 125 Z M121 698 L531 698 L531 605 L121 605 L121 698 Z " />
<glyph glyph-name="ohungarumlaut" unicode="&#x151;" horiz-adv-x="648" d="M22 256 Q22 301 32 336.5 Q42 372 51 390 Q73 435 106 464 Q139 493 176.5 510 Q214 527 253.5 533.5 Q293 540 328 540 Q380 540 428 527 Q476 514 509.5 492 Q543 470 565 443 Q587 416 599 387 Q611 358 617 332.5 Q623 307 624.5 287 Q626 267 626 258 Q626 251 625 234 Q624 217 619 194 Q614 171 604 144.5 Q594 118 575 92 Q556 66 527 43 Q498 20 456 4 Q432 -5 409.5 -10 Q387 -15 368.5 -17 Q350 -19 336 -19.5 Q322 -20 316 -20 Q226 -20 169 9 Q112 38 79 80.5 Q46 123 34 170.5 Q22 218 22 256 Z M323 125 Q355 125 374 139.5 Q393 154 402.5 175 Q412 196 415 219.5 Q418 243 418 260 Q418 334 392.5 364.5 Q367 395 325 395 Q285 395 261 371 Q249 359 242 343.5 Q235 328 232 313 Q229 298 228 285.5 Q227 273 227 267 L227 263 Q227 244 230 220 Q233 196 243 175 Q253 154 272 139.5 Q291 125 323 125 Z M411 724 L624 724 L462 587 L335 587 L411 724 Z M170 724 L383 724 L221 587 L94 587 L170 724 Z " />
<glyph glyph-name="oslash" unicode="&#xf8;" horiz-adv-x="646" d="M7 41 L67 93 Q59 108 50.5 123 Q42 138 35.5 156.5 Q29 175 25 198.5 Q21 222 21 254 Q21 323 43.5 376.5 Q66 430 106.5 466.5 Q147 503 202 522 Q257 541 323 541 Q375 541 427.5 529 Q480 517 523 485 L577 532 L622 481 L569 435 Q578 422 587.5 404 Q597 386 605 364 Q613 342 618.5 316 Q624 290 624 261 Q624 201 609.5 162 Q595 123 581 103 Q555 64 521.5 39.5 Q488 15 451.5 1.5 Q415 -12 379 -17 Q343 -22 313 -22 Q275 -22 245.5 -17 Q216 -12 193 -3.5 Q170 5 150.5 16.5 Q131 28 112 42 L51 -11 L7 41 Z M248 158 Q257 138 277 127.5 Q297 117 322 117 Q352 117 371.5 131 Q391 145 402 166 Q413 187 417 210.5 Q421 234 421 254 Q421 268 420 281 Q419 294 417 307 L248 158 Z M391 371 Q369 401 325 401 Q277 401 250.5 370 Q224 339 224 269 Q224 258 224 248.5 Q224 239 225 228 L391 371 Z " />
<glyph glyph-name="oe" unicode="&#x153;" horiz-adv-x="1009" d="M984 122 Q972 106 960.5 92 Q949 78 935 64 Q910 40 881 24 Q852 8 821.5 -1.5 Q791 -11 760.5 -15.5 Q730 -20 703 -20 Q638 -20 594.5 -1.5 Q551 17 519 37 Q485 15 439.5 -2 Q394 -19 322 -19 Q263 -19 217 -5.5 Q171 8 137 31 Q103 54 79.5 84.5 Q56 115 42 149 Q31 176 26.5 203.5 Q22 231 22 258 Q22 272 26 308 Q30 344 50 386 Q72 433 105.5 463 Q139 493 176.5 510 Q214 527 252 533.5 Q290 540 322 540 Q384 540 430 528 Q476 516 496 507 Q506 502 513 498 Q520 494 529 489 Q557 506 600 523 Q643 540 708 540 Q745 540 785 531.5 Q825 523 861.5 502.5 Q898 482 927.5 449.5 Q957 417 974 369 Q986 334 988.5 296.5 Q991 259 993 224 L629 224 Q629 218 631 202 Q633 186 641.5 169 Q650 152 667 139 Q684 126 715 126 Q737 126 753.5 133 Q770 140 782 150.5 Q794 161 801.5 172.5 Q809 184 814 193 L984 122 Z M781 333 Q780 357 773 371.5 Q766 386 755.5 394.5 Q745 403 732.5 406 Q720 409 710 409 Q685 409 670.5 399.5 Q656 390 648 377 Q640 364 637 351.5 Q634 339 633 333 L781 333 Z M323 128 Q368 128 394 162.5 Q420 197 420 269 Q420 289 416.5 311.5 Q413 334 403 352.5 Q393 371 375 383.5 Q357 396 327 396 Q287 396 263 372 Q239 349 233.5 316.5 Q228 284 228 261 Q228 241 231 218 Q234 195 243.5 175 Q253 155 272 141.5 Q291 128 323 128 Z " />
<glyph glyph-name="racute" unicode="&#x155;" horiz-adv-x="418" d="M40 518 L238 518 L238 470 Q256 486 272.5 497 Q289 508 308 514.5 Q327 521 351.5 523.5 Q376 526 410 526 L410 352 Q400 353 390 353.5 Q380 354 369 354 Q318 354 289.5 336 Q261 318 250 286 Q247 277 246 263.5 Q245 250 245 241 L245 0 L40 0 L40 518 Z M176 724 L388 724 L227 587 L99 587 L176 724 Z " />
<glyph glyph-name="rcaron" unicode="&#x159;" horiz-adv-x="418" d="M40 518 L238 518 L238 470 Q256 486 272.5 497 Q289 508 308 514.5 Q327 521 351.5 523.5 Q376 526 410 526 L410 352 Q400 353 390 353.5 Q380 354 369 354 Q318 354 289.5 336 Q261 318 250 286 Q247 277 246 263.5 Q245 250 245 241 L245 0 L40 0 L40 518 Z M25 724 L168 724 L209 658 L249 724 L391 724 L285 586 L129 586 L25 724 Z " />
<glyph glyph-name="rcommaaccent" unicode="&#x157;" horiz-adv-x="418" d="M40 518 L238 518 L238 470 Q256 486 272.5 497 Q289 508 308 514.5 Q327 521 351.5 523.5 Q376 526 410 526 L410 352 Q400 353 390 353.5 Q380 354 369 354 Q318 354 289.5 336 Q261 318 250 286 Q247 277 246 263.5 Q245 250 245 241 L245 0 L40 0 L40 518 Z M9 -138 Q60 -147 117 -147 Q159 -147 173.5 -136 Q188 -125 188 -107 Q188 -93 176 -82.5 Q164 -72 138 -72 Q103 -72 57 -81 L71 -23 Q94 -18 115.5 -15 Q137 -12 157 -12 Q199 -12 227 -19.5 Q255 -27 272.5 -40 Q290 -53 297 -70.5 Q304 -88 304 -107 Q304 -125 296 -143.5 Q288 -162 269 -177 Q250 -192 218.5 -201 Q187 -210 140 -210 Q84 -210 9 -198 L9 -138 Z " />
<glyph glyph-name="sacute" unicode="&#x15b;" horiz-adv-x="538" d="M111 190 Q122 179 137.5 167 Q153 155 173.5 144.5 Q194 134 219 127 Q244 120 275 120 Q282 120 290.5 121.5 Q299 123 306.5 127 Q314 131 319.5 137 Q325 143 325 152 Q325 164 317.5 170.5 Q310 177 299.5 180.5 Q289 184 279 185 Q269 186 263 187 Q247 190 221.5 195 Q196 200 168 208.5 Q140 217 114.5 227.5 Q89 238 73 251 Q50 270 36 298.5 Q22 327 22 362 Q22 394 32.5 417.5 Q43 441 53 455 Q81 493 130 516 Q179 539 260 539 Q323 539 375.5 525 Q428 511 454 497 Q466 491 475 485 Q484 479 504 464 L393 363 Q384 369 370.5 377.5 Q357 386 340 394 Q323 402 302.5 407.5 Q282 413 259 413 Q216 413 216 386 Q216 378 220.5 373 Q225 368 232.5 365 Q240 362 248 360 Q256 358 264 356 Q327 340 371.5 330 Q416 320 442 305 Q455 297 469 286 Q483 275 494 259 Q505 243 512 222 Q519 201 519 174 Q519 141 505.5 106.5 Q492 72 462.5 44 Q433 16 387 -2 Q341 -20 275 -20 Q237 -20 203.5 -14 Q170 -8 142 1 Q114 10 92 21 Q70 32 55 41 Q38 52 25.5 61 Q13 70 -5 84 L111 190 Z M251 724 L463 724 L302 587 L174 587 L251 724 Z " />
<glyph glyph-name="scaron" unicode="&#x161;" horiz-adv-x="538" d="M111 190 Q122 179 137.5 167 Q153 155 173.5 144.5 Q194 134 219 127 Q244 120 275 120 Q282 120 290.5 121.5 Q299 123 306.5 127 Q314 131 319.5 137 Q325 143 325 152 Q325 164 317.5 170.5 Q310 177 299.5 180.5 Q289 184 279 185 Q269 186 263 187 Q247 190 221.5 195 Q196 200 168 208.5 Q140 217 114.5 227.5 Q89 238 73 251 Q50 270 36 298.5 Q22 327 22 362 Q22 394 32.5 417.5 Q43 441 53 455 Q81 493 130 516 Q179 539 260 539 Q323 539 375.5 525 Q428 511 454 497 Q466 491 475 485 Q484 479 504 464 L393 363 Q384 369 370.5 377.5 Q357 386 340 394 Q323 402 302.5 407.5 Q282 413 259 413 Q216 413 216 386 Q216 378 220.5 373 Q225 368 232.5 365 Q240 362 248 360 Q256 358 264 356 Q327 340 371.5 330 Q416 320 442 305 Q455 297 469 286 Q483 275 494 259 Q505 243 512 222 Q519 201 519 174 Q519 141 505.5 106.5 Q492 72 462.5 44 Q433 16 387 -2 Q341 -20 275 -20 Q237 -20 203.5 -14 Q170 -8 142 1 Q114 10 92 21 Q70 32 55 41 Q38 52 25.5 61 Q13 70 -5 84 L111 190 Z M89 724 L232 724 L273 658 L313 724 L455 724 L349 586 L193 586 L89 724 Z " />
<glyph glyph-name="scedilla" unicode="&#x15f;" horiz-adv-x="538" d="M168 -156 Q171 -157 176.5 -158.5 Q182 -160 190 -160 Q207 -160 220 -154.5 Q233 -149 233 -138 Q233 -126 223.5 -123.5 Q214 -121 208 -121 Q197 -121 184 -124 Q171 -127 170 -127 L173 -92 L223 -17 Q166 -9 123 8 Q80 25 55 41 Q38 52 25.5 61 Q13 70 -5 84 L111 190 Q122 179 137.5 167 Q153 155 173.5 144.5 Q194 134 219 127 Q244 120 275 120 Q282 120 290.5 121.5 Q299 123 306.5 127 Q314 131 319.5 137 Q325 143 325 152 Q325 164 317.5 170.5 Q310 177 299.5 180.5 Q289 184 279 185 Q269 186 263 187 Q247 190 221.5 195 Q196 200 168 208.5 Q140 217 114.5 227.5 Q89 238 73 251 Q50 270 36 298.5 Q22 327 22 362 Q22 394 32.5 417.5 Q43 441 53 455 Q81 493 130 516 Q179 539 260 539 Q323 539 375.5 525 Q428 511 454 497 Q466 491 475 485 Q484 479 504 464 L393 363 Q384 369 370.5 377.5 Q357 386 340 394 Q323 402 302.5 407.5 Q282 413 259 413 Q216 413 216 386 Q216 378 220.5 373 Q225 368 232.5 365 Q240 362 248 360 Q256 358 264 356 Q327 340 371.5 330 Q416 320 442 305 Q455 297 469 286 Q483 275 494 259 Q505 243 512 222 Q519 201 519 174 Q519 141 505.5 107 Q492 73 463.5 45 Q435 17 389.5 -1 Q344 -19 280 -20 L262 -59 Q269 -58 276 -57.5 Q283 -57 290 -57 Q313 -57 329 -64.5 Q345 -72 354.5 -82.5 Q364 -93 368 -106 Q372 -119 372 -129 Q372 -134 369.5 -147.5 Q367 -161 355 -176 Q332 -205 301.5 -211.5 Q271 -218 246 -218 Q215 -218 197.5 -215.5 Q180 -213 165 -211 L168 -156 Z " />
<glyph glyph-name="scommaaccent" unicode="&#x219;" horiz-adv-x="538" d="M120 -138 Q171 -147 228 -147 Q270 -147 284.5 -136 Q299 -125 299 -107 Q299 -93 287 -82.5 Q275 -72 249 -72 Q214 -72 168 -81 L182 -23 Q191 -21 200 -19.5 Q209 -18 217 -16 Q162 -8 120.5 9 Q79 26 55 41 Q38 52 25.5 61 Q13 70 -5 84 L111 190 Q122 179 137.5 167 Q153 155 173.5 144.5 Q194 134 219 127 Q244 120 275 120 Q282 120 290.5 121.5 Q299 123 306.5 127 Q314 131 319.5 137 Q325 143 325 152 Q325 164 317.5 170.5 Q310 177 299.5 180.5 Q289 184 279 185 Q269 186 263 187 Q247 190 221.5 195 Q196 200 168 208.5 Q140 217 114.5 227.5 Q89 238 73 251 Q50 270 36 298.5 Q22 327 22 362 Q22 394 32.5 417.5 Q43 441 53 455 Q81 493 130 516 Q179 539 260 539 Q323 539 375.5 525 Q428 511 454 497 Q466 491 475 485 Q484 479 504 464 L393 363 Q384 369 370.5 377.5 Q357 386 340 394 Q323 402 302.5 407.5 Q282 413 259 413 Q216 413 216 386 Q216 378 220.5 373 Q225 368 232.5 365 Q240 362 248 360 Q256 358 264 356 Q327 340 371.5 330 Q416 320 442 305 Q455 297 469 286 Q483 275 494 259 Q505 243 512 222 Q519 201 519 174 Q519 144 508 113 Q497 82 473.5 55.5 Q450 29 413.5 9.5 Q377 -10 325 -17 Q376 -26 395.5 -50.5 Q415 -75 415 -107 Q415 -125 407 -143.5 Q399 -162 380 -177 Q361 -192 329.5 -201 Q298 -210 251 -210 Q195 -210 120 -198 L120 -138 Z " />
<glyph glyph-name="germandbls" unicode="&#xdf;" horiz-adv-x="622" d="M40 455 Q40 483 42 514 Q44 545 54 572 Q70 619 102 647 Q134 675 171.5 689.5 Q209 704 248.5 708.5 Q288 713 320 713 Q383 713 428.5 699 Q474 685 503.5 660.5 Q533 636 546.5 602.5 Q560 569 560 531 Q560 508 553.5 479 Q547 450 524 428 Q517 422 509 417 Q501 412 495 408 Q508 405 523 399.5 Q538 394 550 383 Q566 369 576 348.5 Q586 328 591.5 306.5 Q597 285 598.5 263.5 Q600 242 600 226 Q600 176 588.5 132.5 Q577 89 551 57 Q525 25 483 6 Q441 -13 380 -13 Q343 -13 323.5 -7 Q304 -1 284 8 L284 138 Q292 132 304.5 125 Q317 118 336 118 Q374 118 388.5 150 Q403 182 403 235 Q403 275 396 297 Q389 319 376 329.5 Q363 340 344 342.5 Q325 345 302 345 L302 455 Q307 454 311 453.5 Q315 453 317 453 Q340 453 356 468.5 Q372 484 372 519 Q372 541 366 555 Q360 569 351 576 Q342 583 331 585.5 Q320 588 311 588 Q287 588 274 579.5 Q261 571 254.5 558 Q248 545 246.5 529.5 Q245 514 245 500 L245 0 L40 0 L40 455 Z " />
<glyph glyph-name="tcaron" unicode="&#x165;" horiz-adv-x="420" d="M71 394 L0 394 L0 506 L73 506 L73 669 L278 669 L278 506 L368 506 L368 394 L278 394 L278 192 Q278 184 279 175.5 Q280 167 285 159 Q290 151 301 146 Q312 141 332 141 Q340 141 349 142 Q358 143 369 145 L369 4 Q337 0 305.5 -3.5 Q274 -7 239 -7 Q187 -7 154.5 4.5 Q122 16 103 36 Q84 56 77.5 82.5 Q71 109 71 139 L71 394 Z M382 524 Q441 550 441 591 L382 591 L382 706 L513 706 L513 610 Q513 557 491.5 526.5 Q470 496 416 473 L382 524 Z " />
<glyph glyph-name="tcommaaccent" unicode="&#x163;" horiz-adv-x="383" d="M131 -136 Q134 -137 139.5 -138.5 Q145 -140 153 -140 Q170 -140 183 -134.5 Q196 -129 196 -118 Q196 -106 186.5 -103.5 Q177 -101 171 -101 Q160 -101 147 -104 Q134 -107 133 -107 L136 -72 L183 -2 Q149 4 127 17.5 Q105 31 92.5 49.5 Q80 68 75.5 91 Q71 114 71 139 L71 394 L0 394 L0 506 L73 506 L73 669 L278 669 L278 506 L368 506 L368 394 L278 394 L278 192 Q278 184 279 175.5 Q280 167 285 159 Q290 151 301 146 Q312 141 332 141 Q340 141 349 142 Q358 143 369 145 L369 4 Q337 0 306 -3.5 Q275 -7 240 -7 L225 -39 Q232 -38 239 -37.5 Q246 -37 253 -37 Q276 -37 292 -44.5 Q308 -52 317.5 -62.5 Q327 -73 331 -86 Q335 -99 335 -109 Q335 -114 332.5 -127.5 Q330 -141 318 -156 Q295 -185 264.5 -191.5 Q234 -198 209 -198 Q178 -198 160.5 -195.5 Q143 -193 128 -191 L131 -136 Z " />
<glyph glyph-name="uni021B" unicode="&#x21b;" horiz-adv-x="383" d="M71 394 L0 394 L0 506 L73 506 L73 669 L278 669 L278 506 L368 506 L368 394 L278 394 L278 192 Q278 184 279 175.5 Q280 167 285 159 Q290 151 301 146 Q312 141 332 141 Q340 141 349 142 Q358 143 369 145 L369 4 Q337 0 305.5 -3.5 Q274 -7 239 -7 Q187 -7 154.5 4.5 Q122 16 103 36 Q84 56 77.5 82.5 Q71 109 71 139 L71 394 Z M69 -138 Q120 -147 177 -147 Q219 -147 233.5 -136 Q248 -125 248 -107 Q248 -93 236 -82.5 Q224 -72 198 -72 Q163 -72 117 -81 L131 -23 Q154 -18 175.5 -15 Q197 -12 217 -12 Q259 -12 287 -19.5 Q315 -27 332.5 -40 Q350 -53 357 -70.5 Q364 -88 364 -107 Q364 -125 356 -143.5 Q348 -162 329 -177 Q310 -192 278.5 -201 Q247 -210 200 -210 Q144 -210 69 -198 L69 -138 Z " />
<glyph glyph-name="ugrave" unicode="&#xf9;" horiz-adv-x="643" d="M40 518 L247 518 L247 231 Q247 221 248.5 207.5 Q250 194 257.5 181.5 Q265 169 280 160.5 Q295 152 322 152 Q346 152 360.5 159.5 Q375 167 383 179.5 Q391 192 393.5 208.5 Q396 225 396 244 L396 518 L603 518 L603 0 L407 0 L407 76 Q396 52 378 35 Q360 18 337.5 7.5 Q315 -3 289 -8 Q263 -13 236 -13 Q196 -13 169 -4.5 Q142 4 125 14 Q95 31 78 54.5 Q61 78 52.5 103.5 Q44 129 42 154.5 Q40 180 40 203 L40 518 Z M341 724 L417 587 L290 587 L128 724 L341 724 Z " />
<glyph glyph-name="uacute" unicode="&#xfa;" horiz-adv-x="643" d="M40 518 L247 518 L247 231 Q247 221 248.5 207.5 Q250 194 257.5 181.5 Q265 169 280 160.5 Q295 152 322 152 Q346 152 360.5 159.5 Q375 167 383 179.5 Q391 192 393.5 208.5 Q396 225 396 244 L396 518 L603 518 L603 0 L407 0 L407 76 Q396 52 378 35 Q360 18 337.5 7.5 Q315 -3 289 -8 Q263 -13 236 -13 Q196 -13 169 -4.5 Q142 4 125 14 Q95 31 78 54.5 Q61 78 52.5 103.5 Q44 129 42 154.5 Q40 180 40 203 L40 518 Z M305 724 L517 724 L356 587 L228 587 L305 724 Z " />
<glyph glyph-name="ucircumflex" unicode="&#xfb;" horiz-adv-x="643" d="M40 518 L247 518 L247 231 Q247 221 248.5 207.5 Q250 194 257.5 181.5 Q265 169 280 160.5 Q295 152 322 152 Q346 152 360.5 159.5 Q375 167 383 179.5 Q391 192 393.5 208.5 Q396 225 396 244 L396 518 L603 518 L603 0 L407 0 L407 76 Q396 52 378 35 Q360 18 337.5 7.5 Q315 -3 289 -8 Q263 -13 236 -13 Q196 -13 169 -4.5 Q142 4 125 14 Q95 31 78 54.5 Q61 78 52.5 103.5 Q44 129 42 154.5 Q40 180 40 203 L40 518 Z M245 724 L401 724 L505 586 L362 586 L321 652 L281 586 L139 586 L245 724 Z " />
<glyph glyph-name="udieresis" unicode="&#xfc;" horiz-adv-x="643" d="M40 518 L247 518 L247 231 Q247 221 248.5 207.5 Q250 194 257.5 181.5 Q265 169 280 160.5 Q295 152 322 152 Q346 152 360.5 159.5 Q375 167 383 179.5 Q391 192 393.5 208.5 Q396 225 396 244 L396 518 L603 518 L603 0 L407 0 L407 76 Q396 52 378 35 Q360 18 337.5 7.5 Q315 -3 289 -8 Q263 -13 236 -13 Q196 -13 169 -4.5 Q142 4 125 14 Q95 31 78 54.5 Q61 78 52.5 103.5 Q44 129 42 154.5 Q40 180 40 203 L40 518 Z M361 724 L526 724 L526 605 L361 605 L361 724 Z M116 724 L282 724 L282 605 L116 605 L116 724 Z " />
<glyph glyph-name="umacron" unicode="&#x16b;" horiz-adv-x="643" d="M40 518 L247 518 L247 231 Q247 221 248.5 207.5 Q250 194 257.5 181.5 Q265 169 280 160.5 Q295 152 322 152 Q346 152 360.5 159.5 Q375 167 383 179.5 Q391 192 393.5 208.5 Q396 225 396 244 L396 518 L603 518 L603 0 L407 0 L407 76 Q396 52 378 35 Q360 18 337.5 7.5 Q315 -3 289 -8 Q263 -13 236 -13 Q196 -13 169 -4.5 Q142 4 125 14 Q95 31 78 54.5 Q61 78 52.5 103.5 Q44 129 42 154.5 Q40 180 40 203 L40 518 Z M116 698 L526 698 L526 605 L116 605 L116 698 Z " />
<glyph glyph-name="uring" unicode="&#x16f;" horiz-adv-x="643" d="M40 518 L247 518 L247 231 Q247 221 248.5 207.5 Q250 194 257.5 181.5 Q265 169 280 160.5 Q295 152 322 152 Q346 152 360.5 159.5 Q375 167 383 179.5 Q391 192 393.5 208.5 Q396 225 396 244 L396 518 L603 518 L603 0 L407 0 L407 76 Q396 52 378 35 Q360 18 337.5 7.5 Q315 -3 289 -8 Q263 -13 236 -13 Q196 -13 169 -4.5 Q142 4 125 14 Q95 31 78 54.5 Q61 78 52.5 103.5 Q44 129 42 154.5 Q40 180 40 203 L40 518 Z M211 691 Q211 714 220 734 Q229 754 244 769 Q259 784 279 793 Q299 802 322 802 Q345 802 365 793 Q385 784 400 769 Q415 754 424 734 Q433 714 433 691 Q433 668 424 648 Q415 628 400 613 Q385 598 365 589 Q345 580 322 580 Q299 580 279 589 Q259 598 244 613 Q229 628 220 648 Q211 668 211 691 Z M322 655 Q337 655 347.5 665.5 Q358 676 358 691 Q358 706 347.5 716.5 Q337 727 322 727 Q307 727 296.5 716.5 Q286 706 286 691 Q286 676 296.5 665.5 Q307 655 322 655 Z " />
<glyph glyph-name="uhungarumlaut" unicode="&#x171;" horiz-adv-x="643" d="M40 518 L247 518 L247 231 Q247 221 248.5 207.5 Q250 194 257.5 181.5 Q265 169 280 160.5 Q295 152 322 152 Q346 152 360.5 159.5 Q375 167 383 179.5 Q391 192 393.5 208.5 Q396 225 396 244 L396 518 L603 518 L603 0 L407 0 L407 76 Q396 52 378 35 Q360 18 337.5 7.5 Q315 -3 289 -8 Q263 -13 236 -13 Q196 -13 169 -4.5 Q142 4 125 14 Q95 31 78 54.5 Q61 78 52.5 103.5 Q44 129 42 154.5 Q40 180 40 203 L40 518 Z M409 724 L622 724 L460 587 L333 587 L409 724 Z M168 724 L381 724 L219 587 L92 587 L168 724 Z " />
<glyph glyph-name="uogonek" unicode="&#x173;" horiz-adv-x="643" d="M40 518 L247 518 L247 231 Q247 221 248.5 207.5 Q250 194 257.5 181.5 Q265 169 280 160.5 Q295 152 322 152 Q346 152 360.5 159.5 Q375 167 383 179.5 Q391 192 393.5 208.5 Q396 225 396 244 L396 518 L603 518 L603 0 L540 0 Q534 -5 524.5 -12.5 Q515 -20 506 -30.5 Q497 -41 490.5 -54.5 Q484 -68 484 -84 Q484 -102 491.5 -113 Q499 -124 508.5 -130 Q518 -136 527.5 -137.5 Q537 -139 541 -139 Q552 -139 561 -135.5 Q570 -132 581 -127 L585 -175 Q568 -183 546.5 -189 Q525 -195 490 -195 Q461 -195 441 -187 Q421 -179 408.5 -166.5 Q396 -154 390 -138.5 Q384 -123 384 -109 Q384 -82 398 -62.5 Q412 -43 430 -29.5 Q448 -16 464.5 -9 Q481 -2 485 0 L407 0 L407 76 Q396 52 378 35 Q360 18 337.5 7.5 Q315 -3 289 -8 Q263 -13 236 -13 Q196 -13 169 -4.5 Q142 4 125 14 Q95 31 78 54.5 Q61 78 52.5 103.5 Q44 129 42 154.5 Q40 180 40 203 L40 518 Z " />
<glyph glyph-name="yacute" unicode="&#xfd;" horiz-adv-x="581" d="M78 -33 Q92 -34 106 -35 Q120 -36 134 -36 Q154 -36 167 -31.5 Q180 -27 180 -11 Q180 -3 175.5 10 Q171 23 164 42 L0 518 L215 518 L266 295 Q276 254 280.5 220 Q285 186 290 143 Q293 165 295 184.5 Q297 204 300 222.5 Q303 241 306.5 260 Q310 279 315 301 L367 518 L581 518 L392 -30 Q385 -50 375 -75 Q365 -100 351 -120 Q334 -144 316 -158 Q298 -172 278.5 -178.5 Q259 -185 238.5 -187 Q218 -189 196 -189 Q170 -189 140.5 -187.5 Q111 -186 78 -181 L78 -33 Z M295 724 L507 724 L346 587 L218 587 L295 724 Z " />
<glyph glyph-name="ydieresis" unicode="&#xff;" horiz-adv-x="581" d="M78 -33 Q92 -34 106 -35 Q120 -36 134 -36 Q154 -36 167 -31.5 Q180 -27 180 -11 Q180 -3 175.5 10 Q171 23 164 42 L0 518 L215 518 L266 295 Q276 254 280.5 220 Q285 186 290 143 Q293 165 295 184.5 Q297 204 300 222.5 Q303 241 306.5 260 Q310 279 315 301 L367 518 L581 518 L392 -30 Q385 -50 375 -75 Q365 -100 351 -120 Q334 -144 316 -158 Q298 -172 278.5 -178.5 Q259 -185 238.5 -187 Q218 -189 196 -189 Q170 -189 140.5 -187.5 Q111 -186 78 -181 L78 -33 Z M330 724 L495 724 L495 605 L330 605 L330 724 Z M85 724 L251 724 L251 605 L85 605 L85 724 Z " />
<glyph glyph-name="zacute" unicode="&#x17a;" horiz-adv-x="542" d="M8 114 L254 364 L39 364 L39 518 L529 518 L529 400 L288 155 L527 155 L527 0 L8 0 L8 114 Z M252 724 L464 724 L303 587 L175 587 L252 724 Z " />
<glyph glyph-name="zcaron" unicode="&#x17e;" horiz-adv-x="542" d="M8 114 L254 364 L39 364 L39 518 L529 518 L529 400 L288 155 L527 155 L527 0 L8 0 L8 114 Z M105 724 L248 724 L289 658 L329 724 L471 724 L365 586 L209 586 L105 724 Z " />
<glyph glyph-name="zdotaccent" unicode="&#x17c;" horiz-adv-x="542" d="M8 114 L254 364 L39 364 L39 518 L529 518 L529 400 L288 155 L527 155 L527 0 L8 0 L8 114 Z M188 724 L354 724 L354 605 L188 605 L188 724 Z " />
<glyph glyph-name="eth" unicode="&#xf0;" horiz-adv-x="649" d="M178 615 L320 648 Q309 661 300.5 670.5 Q292 680 281 692 L424 724 Q428 719 435 711 Q442 703 462 681 L553 701 L571 646 L502 631 Q519 609 541 575 Q563 541 582 498 Q601 455 614 403 Q627 351 627 293 Q627 280 624.5 244 Q622 208 607 167 Q594 131 570 97 Q546 63 509.5 37 Q473 11 424 -4.5 Q375 -20 312 -20 Q296 -20 264 -17 Q232 -14 194.5 -1 Q157 12 120 39 Q83 66 56 114 Q44 136 37 158 Q30 180 26.5 198.5 Q23 217 22.5 231 Q22 245 22 253 Q22 265 24.5 293.5 Q27 322 39.5 358 Q52 394 79 432.5 Q106 471 155 502 Q177 516 198.5 523.5 Q220 531 238.5 534 Q257 537 271 537.5 Q285 538 293 538 Q345 538 378 518.5 Q411 499 434 473 Q414 518 394.5 550 Q375 582 361 599 L193 561 L178 615 Z M323 125 Q354 125 373 139 Q392 153 402 173.5 Q412 194 415 217.5 Q418 241 418 261 Q418 334 392.5 364.5 Q367 395 322 395 Q285 395 261 371 Q249 359 242 343.5 Q235 328 232 312 Q229 296 228 281.5 Q227 267 227 258 Q227 238 230.5 215 Q234 192 244.5 172 Q255 152 273.5 138.5 Q292 125 323 125 Z " />
<glyph glyph-name="thorn" unicode="&#xfe;" horiz-adv-x="626" d="M40 706 L241 706 L241 478 Q251 489 254.5 493 Q258 497 265 502 Q282 514 310.5 523 Q339 532 375 532 Q440 532 484 507.5 Q528 483 554.5 443.5 Q581 404 592.5 354 Q604 304 604 253 Q604 203 592 155 Q580 107 553 69.5 Q526 32 483.5 9.5 Q441 -13 380 -13 Q351 -13 330.5 -9.5 Q310 -6 294 0.5 Q278 7 265.5 15.5 Q253 24 242 35 L242 -188 L40 -188 L40 706 Z M280 143 Q285 140 296 136 Q307 132 321 132 Q335 132 345.5 136.5 Q356 141 361 145 Q387 164 394 192.5 Q401 221 401 253 Q401 268 399.5 290.5 Q398 313 390 333 Q382 353 365.5 367.5 Q349 382 320 382 Q308 382 294 377 Q280 372 269 361 Q258 351 252 337.5 Q246 324 243.5 310 Q241 296 240.5 282.5 Q240 269 240 259 Q240 242 241 225.5 Q242 209 246 194 Q250 179 258 166 Q266 153 280 143 Z " />
<glyph glyph-name="fi" unicode="&#xfb01;" horiz-adv-x="674" d="M87 394 L10 394 L10 506 L87 506 L87 557 Q87 574 89 592.5 Q91 611 98 628 Q116 672 160.5 695 Q205 718 277 718 Q309 718 331.5 714.5 Q354 711 386 704 L386 563 Q380 565 371.5 567.5 Q363 570 350 570 Q319 570 306 556.5 Q293 543 293 513 L293 506 L386 506 L386 394 L293 394 L293 0 L87 0 L87 394 Z M429 706 L635 706 L635 569 L429 569 L429 706 Z M429 518 L635 518 L635 0 L429 0 L429 518 Z " />
<glyph glyph-name="fl" unicode="&#xfb02;" horiz-adv-x="674" d="M87 394 L10 394 L10 506 L87 506 L87 557 Q87 574 89 592.5 Q91 611 98 628 Q116 672 160.5 695 Q205 718 277 718 Q309 718 331.5 714.5 Q354 711 386 704 L386 563 Q380 565 371.5 567.5 Q363 570 350 570 Q319 570 306 556.5 Q293 543 293 513 L293 506 L386 506 L386 394 L293 394 L293 0 L87 0 L87 394 Z M429 706 L636 706 L636 0 L429 0 L429 706 Z " />
<glyph glyph-name="ampersand" unicode="&#x26;" horiz-adv-x="688" d="M675 1 Q655 -1 634 -2.5 Q613 -4 593 -4 Q568 -4 550 -1.5 Q532 1 517.5 6 Q503 11 491.5 18.5 Q480 26 467 37 Q451 28 433 18.5 Q415 9 393 1.5 Q371 -6 344 -10.5 Q317 -15 283 -15 Q260 -15 235 -12.5 Q210 -10 184.5 -2.5 Q159 5 134 18.5 Q109 32 86 54 Q58 80 45.5 103 Q33 126 29 136 Q21 160 19 181.5 Q17 203 17 210 Q17 216 18.5 241.5 Q20 267 30 292 Q43 325 65 349.5 Q87 374 110.5 391 Q134 408 153.5 417.5 Q173 427 181 431 Q166 451 150 481.5 Q134 512 134 559 Q134 589 144.5 616.5 Q155 644 178 665.5 Q201 687 237.5 700 Q274 713 327 713 Q383 713 422 700.5 Q461 688 485 666 Q509 644 520 615.5 Q531 587 531 555 Q531 524 521.5 499 Q512 474 497.5 455 Q483 436 466.5 422.5 Q450 409 436 400 Q424 392 413.5 387.5 Q403 383 391 378 Q414 349 433 326.5 Q452 304 477 277 Q483 293 486.5 303 Q490 313 492.5 322 Q495 331 497 340.5 Q499 350 502 366 L653 310 Q642 277 634 255 Q626 233 618.5 215.5 Q611 198 603 183.5 Q595 169 584 151 Q594 146 606.5 140.5 Q619 135 642 135 Q650 135 658.5 135.5 Q667 136 675 137 L675 1 Z M318 487 Q328 493 339 499.5 Q350 506 359 514 Q368 522 374 531.5 Q380 541 380 553 Q380 567 369.5 580.5 Q359 594 330 594 Q304 594 295 581.5 Q286 569 286 555 Q286 541 292.5 527 Q299 513 318 487 Z M372 150 Q355 170 340.5 188 Q326 206 312.5 224 Q299 242 285.5 260.5 Q272 279 257 300 Q243 289 232 278 Q223 269 214 254.5 Q205 240 205 218 Q205 210 208 195 Q211 180 220.5 165 Q230 150 247.5 138.5 Q265 127 294 127 Q320 127 340.5 135.5 Q361 144 372 150 Z " />
<glyph glyph-name="grave" unicode="&#x60;" horiz-adv-x="313" d="M225 724 L301 587 L174 587 L12 724 L225 724 Z " />
<glyph glyph-name="grave.cap" unicode="&#xf6ce;" horiz-adv-x="313" d="M232 874 L297 754 L165 754 L15 874 L232 874 Z " />
<glyph glyph-name="acute" unicode="&#xb4;" horiz-adv-x="313" d="M89 724 L301 724 L140 587 L12 587 L89 724 Z " />
<glyph glyph-name="acute.cap" unicode="&#xf6c9;" horiz-adv-x="313" d="M81 874 L298 874 L148 754 L16 754 L81 874 Z " />
<glyph glyph-name="circumflex" unicode="&#x2c6;" horiz-adv-x="313" d="M80 724 L236 724 L340 586 L197 586 L156 652 L116 586 L-26 586 L80 724 Z " />
<glyph glyph-name="circumflex.cap" unicode="&#xeff7;" horiz-adv-x="313" d="M74 874 L235 874 L331 751 L187 751 L153 804 L122 751 L-19 751 L74 874 Z " />
<glyph glyph-name="caron" unicode="&#x2c7;" horiz-adv-x="313" d="M-27 724 L116 724 L157 658 L197 724 L339 724 L233 586 L77 586 L-27 724 Z " />
<glyph glyph-name="caron.cap" unicode="&#xf6ca;" horiz-adv-x="313" d="M-18 874 L126 874 L160 822 L191 874 L332 874 L239 751 L78 751 L-18 874 Z " />
<glyph glyph-name="commaaccent" unicode="&#xf6c3;" horiz-adv-x="333" d="M9 -138 Q60 -147 117 -147 Q159 -147 173.5 -136 Q188 -125 188 -107 Q188 -93 176 -82.5 Q164 -72 138 -72 Q103 -72 57 -81 L71 -23 Q94 -18 115.5 -15 Q137 -12 157 -12 Q199 -12 227 -19.5 Q255 -27 272.5 -40 Q290 -53 297 -70.5 Q304 -88 304 -107 Q304 -125 296 -143.5 Q288 -162 269 -177 Q250 -192 218.5 -201 Q187 -210 140 -210 Q84 -210 9 -198 L9 -138 Z " />
<glyph glyph-name="tilde" unicode="&#x2dc;" horiz-adv-x="313" d="M-30 587 Q-28 606 -24 630.5 Q-20 655 -9.5 676.5 Q1 698 19.5 712.5 Q38 727 69 727 Q99 727 169 708 Q173 707 180.5 705 Q188 703 196 700.5 Q204 698 211.5 696.5 Q219 695 223 695 Q225 695 229.5 695.5 Q234 696 239 698.5 Q244 701 248 706.5 Q252 712 252 721 L252 723 L342 723 Q340 705 336 681.5 Q332 658 322 636 Q312 614 294 599 Q276 584 245 584 Q230 584 211.5 587 Q193 590 177 594 Q161 598 149 601.5 Q137 605 136 605 Q117 610 104 612.5 Q91 615 83 615 Q73 615 66.5 609.5 Q60 604 58 587 L-30 587 Z " />
<glyph glyph-name="tilde.cap" unicode="&#xeff5;" horiz-adv-x="313" d="M-37 756 Q-32 780 -25 801.5 Q-18 823 -5.5 840 Q7 857 27 867 Q47 877 77 877 L81 877 Q106 877 128 872.5 Q150 868 175 863 Q205 857 216 857 Q230 857 236 863 Q242 869 244 877 L351 877 Q349 866 345 845.5 Q341 825 329 805 Q317 785 294.5 770 Q272 755 232 755 Q213 755 192 759 Q171 763 133 771 Q117 774 107 776.5 Q97 779 89 779 Q72 779 69 771 Q66 763 65 756 L-37 756 Z " />
<glyph glyph-name="dieresis" unicode="&#xa8;" horiz-adv-x="313" d="M197 724 L362 724 L362 605 L197 605 L197 724 Z M-48 724 L118 724 L118 605 L-48 605 L-48 724 Z " />
<glyph glyph-name="dieresis.cap" unicode="&#xf6cb;" horiz-adv-x="313" d="M188 876 L354 876 L354 757 L188 757 L188 876 Z M-41 876 L124 876 L124 757 L-41 757 L-41 876 Z " />
<glyph glyph-name="macron" unicode="&#xaf;" horiz-adv-x="313" d="M-48 698 L362 698 L362 605 L-48 605 L-48 698 Z " />
<glyph glyph-name="breve" unicode="&#x2d8;" horiz-adv-x="313" d="M113 726 L113 717 Q113 690 126 681 Q139 672 153 672 Q173 672 183 684.5 Q193 697 193 715 L193 726 L313 726 Q310 709 302.5 683 Q295 657 278 633 Q261 609 231.5 591.5 Q202 574 153 574 Q119 574 94.5 583 Q70 592 52.5 606 Q35 620 24.5 637.5 Q14 655 8 672 Q2 689 0.5 705 Q-1 721 -1 726 L113 726 Z " />
<glyph glyph-name="ring" unicode="&#x2da;" horiz-adv-x="313" d="M45 691 Q45 714 54 734 Q63 754 78 769 Q93 784 113 793 Q133 802 156 802 Q179 802 199 793 Q219 784 234 769 Q249 754 258 734 Q267 714 267 691 Q267 668 258 648 Q249 628 234 613 Q219 598 199 589 Q179 580 156 580 Q133 580 113 589 Q93 598 78 613 Q63 628 54 648 Q45 668 45 691 Z M156 655 Q171 655 181.5 665.5 Q192 676 192 691 Q192 706 181.5 716.5 Q171 727 156 727 Q141 727 130.5 716.5 Q120 706 120 691 Q120 676 130.5 665.5 Q141 655 156 655 Z " />
<glyph glyph-name="hungarumlaut" unicode="&#x2dd;" horiz-adv-x="313" d="M209 724 L422 724 L260 587 L133 587 L209 724 Z M-32 724 L181 724 L19 587 L-108 587 L-32 724 Z " />
<glyph glyph-name="dotaccent" unicode="&#x2d9;" horiz-adv-x="313" d="M73 724 L239 724 L239 605 L73 605 L73 724 Z " />
<glyph glyph-name="cedilla" unicode="&#xb8;" horiz-adv-x="313" d="M56 -156 Q59 -157 64.5 -158.5 Q70 -160 78 -160 Q95 -160 108 -154.5 Q121 -149 121 -138 Q121 -126 111.5 -123.5 Q102 -121 96 -121 Q85 -121 72 -124 Q59 -127 58 -127 L61 -92 L127 6 L174 -9 L150 -59 Q157 -58 164 -57.5 Q171 -57 178 -57 Q201 -57 217 -64.5 Q233 -72 242.5 -82.5 Q252 -93 256 -106 Q260 -119 260 -129 Q260 -134 257.5 -147.5 Q255 -161 243 -176 Q220 -205 189.5 -211.5 Q159 -218 134 -218 Q103 -218 85.5 -215.5 Q68 -213 53 -211 L56 -156 Z " />
<glyph glyph-name="ogonek" unicode="&#x2db;" horiz-adv-x="313" d="M257 -175 Q240 -183 218.5 -189 Q197 -195 162 -195 Q133 -195 113 -187 Q93 -179 80.5 -166.5 Q68 -154 62 -138.5 Q56 -123 56 -109 Q56 -82 70 -62.5 Q84 -43 102 -29.5 Q120 -16 136.5 -9 Q153 -2 157 0 L212 0 Q206 -5 196.5 -12.5 Q187 -20 178 -30.5 Q169 -41 162.5 -54.5 Q156 -68 156 -84 Q156 -102 163.5 -113 Q171 -124 180.5 -130 Q190 -136 199.5 -137.5 Q209 -139 213 -139 Q224 -139 233 -135.5 Q242 -132 253 -127 L257 -175 Z " />
<glyph glyph-name="comma" unicode="&#x2c;" horiz-adv-x="250" d="M34 -89 Q48 -84 59.5 -78 Q71 -72 79 -62 Q87 -52 91.5 -37.5 Q96 -23 96 0 L34 0 L34 188 L216 188 L216 44 Q216 8 210.5 -32.5 Q205 -73 177 -108 Q168 -119 152 -133.5 Q136 -148 109 -159 Q92 -167 71.5 -170.5 Q51 -174 34 -177 L34 -89 Z " />
<glyph glyph-name="semicolon" unicode="&#x3b;" horiz-adv-x="292" d="M55 518 L237 518 L237 330 L55 330 L55 518 Z M55 -89 Q69 -84 80.5 -78 Q92 -72 100 -62 Q108 -52 112.5 -37.5 Q117 -23 117 0 L55 0 L55 188 L237 188 L237 44 Q237 8 231.5 -32.5 Q226 -73 198 -108 Q189 -119 173 -133.5 Q157 -148 130 -159 Q113 -167 92.5 -170.5 Q72 -174 55 -177 L55 -89 Z " />
<glyph glyph-name="colon" unicode="&#x3a;" horiz-adv-x="292" d="M55 518 L237 518 L237 330 L55 330 L55 518 Z M55 188 L237 188 L237 0 L55 0 L55 188 Z " />
<glyph glyph-name="period" unicode="&#x2e;" horiz-adv-x="250" d="M34 188 L216 188 L216 0 L34 0 L34 188 Z " />
<glyph glyph-name="ellipsis" unicode="&#x2026;" horiz-adv-x="1000" d="M754 74 Q754 107 777.5 130.5 Q801 154 834 154 Q867 154 890.5 130.5 Q914 107 914 74 Q914 41 890.5 17.5 Q867 -6 834 -6 Q801 -6 777.5 17.5 Q754 41 754 74 Z M420 74 Q420 107 443.5 130.5 Q467 154 500 154 Q533 154 556.5 130.5 Q580 107 580 74 Q580 41 556.5 17.5 Q533 -6 500 -6 Q467 -6 443.5 17.5 Q420 41 420 74 Z M87 74 Q87 107 110.5 130.5 Q134 154 167 154 Q200 154 223.5 130.5 Q247 107 247 74 Q247 41 223.5 17.5 Q200 -6 167 -6 Q134 -6 110.5 17.5 Q87 41 87 74 Z " />
<glyph glyph-name="hyphen" unicode="&#x2d;" horiz-adv-x="333" d="M38 402 L295 402 L295 231 L38 231 L38 402 Z " />
<glyph glyph-name="exclam" unicode="&#x21;" horiz-adv-x="292" d="M54 517 L54 706 L237 706 L237 515 L198 258 L97 258 L54 517 Z M54 188 L237 188 L237 0 L54 0 L54 188 Z " />
<glyph glyph-name="exclamdown" unicode="&#xa1;" horiz-adv-x="292" d="M54 706 L237 706 L237 518 L54 518 L54 706 Z M54 192 L93 448 L194 448 L237 190 L237 0 L54 0 L54 192 Z " />
<glyph glyph-name="question" unicode="&#x3f;" horiz-adv-x="592" d="M177 258 Q178 274 180 289.5 Q182 305 190 322 Q198 339 215 359.5 Q232 380 265 405 Q279 416 296.5 428 Q314 440 329 453.5 Q344 467 354.5 483 Q365 499 365 518 Q365 528 361 539.5 Q357 551 348.5 560.5 Q340 570 326 576.5 Q312 583 291 583 Q256 583 236 568 Q216 553 206.5 534 Q197 515 194 497 Q191 479 190 472 L20 529 Q21 535 24.5 547.5 Q28 560 36 576.5 Q44 593 57.5 612 Q71 631 92 650 Q117 672 143.5 685.5 Q170 699 197 706 Q224 713 250.5 715.5 Q277 718 302 718 Q326 718 355 715.5 Q384 713 414 704.5 Q444 696 473 680.5 Q502 665 526 638 Q541 621 549.5 603.5 Q558 586 561.5 570.5 Q565 555 566 542.5 Q567 530 567 524 Q567 486 554 459 Q541 432 521 411.5 Q501 391 477.5 375.5 Q454 360 432 345 Q422 338 407.5 328.5 Q393 319 378 305 Q370 297 362.5 288 Q355 279 350 258 L177 258 Z M171 188 L354 188 L354 0 L171 0 L171 188 Z " />
<glyph glyph-name="questiondown" unicode="&#xbf;" horiz-adv-x="592" d="M238 706 L421 706 L421 518 L238 518 L238 706 Z M572 177 Q570 171 567 158.5 Q564 146 556 129.5 Q548 113 534.5 94 Q521 75 500 56 Q475 34 448.5 20.5 Q422 7 395 0 Q368 -7 341.5 -9.5 Q315 -12 290 -12 Q266 -12 237 -9.5 Q208 -7 178 1.5 Q148 10 119 25.5 Q90 41 66 68 Q51 85 42.5 102.5 Q34 120 30.5 135.5 Q27 151 26 163.5 Q25 176 25 182 Q25 219 38 246.5 Q51 274 71 294.5 Q91 315 114.5 330.5 Q138 346 160 361 Q170 368 184.5 377.5 Q199 387 214 401 Q222 409 229.5 418 Q237 427 242 448 L415 448 Q413 432 411.5 416.5 Q410 401 402 384 Q394 367 377 346.5 Q360 326 327 301 Q313 290 295.5 278 Q278 266 263 252.5 Q248 239 237.5 223 Q227 207 227 188 Q227 178 231 166.5 Q235 155 243.5 145.5 Q252 136 266 129.5 Q280 123 301 123 Q336 123 356 138 Q376 153 385.5 172 Q395 191 398 209 Q401 227 402 234 L572 177 Z " />
<glyph glyph-name="quoteleft" unicode="&#x2018;" horiz-adv-x="250" d="M34 487 Q34 505 34.5 524.5 Q35 544 39 563.5 Q43 583 51 602.5 Q59 622 73 640 Q82 651 98 665 Q114 679 141 690 Q158 698 178.5 702 Q199 706 216 709 L216 620 Q187 611 171 593.5 Q155 576 154 531 L216 531 L216 343 L34 343 L34 487 Z " />
<glyph glyph-name="quoteright" unicode="&#x2019;" horiz-adv-x="250" d="M34 429 Q48 434 59.5 440 Q71 446 79 456 Q87 466 91.5 480.5 Q96 495 96 518 L34 518 L34 706 L216 706 L216 562 Q216 526 210.5 485.5 Q205 445 177 410 Q168 399 152 384.5 Q136 370 109 359 Q92 351 71.5 347.5 Q51 344 34 341 L34 429 Z " />
<glyph glyph-name="quotedblleft" unicode="&#x201c;" horiz-adv-x="521" d="M297 487 Q297 505 297.5 524.5 Q298 544 302 563.5 Q306 583 314 602.5 Q322 622 336 640 Q345 651 361 665 Q377 679 404 690 Q421 698 441.5 702 Q462 706 479 709 L479 620 Q450 611 434 593.5 Q418 576 417 531 L479 531 L479 343 L297 343 L297 487 Z M42 487 Q42 505 42.5 524.5 Q43 544 47 563.5 Q51 583 59 602.5 Q67 622 81 640 Q90 651 106 665 Q122 679 149 690 Q167 698 187 702 Q207 706 225 709 L225 620 Q196 611 180 593.5 Q164 576 163 531 L225 531 L225 343 L42 343 L42 487 Z " />
<glyph glyph-name="quotedblright" unicode="&#x201d;" horiz-adv-x="521" d="M297 429 Q311 434 322.5 440 Q334 446 342 456 Q350 466 354.5 480.5 Q359 495 359 518 L297 518 L297 706 L479 706 L479 562 Q479 526 473.5 485.5 Q468 445 440 410 Q431 399 415 384.5 Q399 370 372 359 Q355 351 334.5 347.5 Q314 344 297 341 L297 429 Z M42 429 Q56 434 67.5 440 Q79 446 87 456 Q95 466 99.5 480.5 Q104 495 104 518 L42 518 L42 706 L225 706 L225 562 Q225 526 219.5 485.5 Q214 445 186 410 Q176 399 160 384.5 Q144 370 118 359 Q100 351 79.5 347.5 Q59 344 42 341 L42 429 Z " />
<glyph glyph-name="quotesinglbase" unicode="&#x201a;" horiz-adv-x="250" d="M34 -89 Q48 -84 59.5 -78 Q71 -72 79 -62 Q87 -52 91.5 -37.5 Q96 -23 96 0 L34 0 L34 188 L216 188 L216 44 Q216 8 210.5 -32.5 Q205 -73 177 -108 Q168 -119 152 -133.5 Q136 -148 109 -159 Q92 -167 71.5 -170.5 Q51 -174 34 -177 L34 -89 Z " />
<glyph glyph-name="quotedblbase" unicode="&#x201e;" horiz-adv-x="521" d="M297 -89 Q311 -84 322.5 -78 Q334 -72 342 -62 Q350 -52 354.5 -37.5 Q359 -23 359 0 L297 0 L297 188 L479 188 L479 44 Q479 8 473.5 -32.5 Q468 -73 440 -108 Q431 -119 415 -133.5 Q399 -148 372 -159 Q355 -167 334.5 -170.5 Q314 -174 297 -177 L297 -89 Z M42 -89 Q56 -84 67.5 -78 Q79 -72 87 -62 Q95 -52 99.5 -37.5 Q104 -23 104 0 L42 0 L42 188 L225 188 L225 44 Q225 8 219.5 -32.5 Q214 -73 186 -108 Q176 -119 160 -133.5 Q144 -148 118 -159 Q100 -167 79.5 -170.5 Q59 -174 42 -177 L42 -89 Z " />
<glyph glyph-name="guilsinglleft" unicode="&#x2039;" horiz-adv-x="233" d="M33 408 L200 538 L200 380 L114 315 L200 252 L200 95 L33 225 L33 408 Z " />
<glyph glyph-name="guilsinglright" unicode="&#x203a;" horiz-adv-x="233" d="M33 252 L119 315 L33 380 L33 538 L200 408 L200 225 L33 95 L33 252 Z " />
<glyph glyph-name="guillemotleft" unicode="&#xab;" horiz-adv-x="437" d="M236 408 L404 538 L404 380 L317 315 L404 252 L404 95 L236 225 L236 408 Z M33 408 L200 538 L200 380 L114 315 L200 252 L200 95 L33 225 L33 408 Z " />
<glyph glyph-name="guillemotright" unicode="&#xbb;" horiz-adv-x="437" d="M237 252 L323 315 L237 380 L237 538 L404 408 L404 225 L237 95 L237 252 Z M33 252 L120 315 L33 380 L33 538 L201 408 L201 225 L33 95 L33 252 Z " />
<glyph glyph-name="slash" unicode="&#x2f;" horiz-adv-x="500" d="M305 706 L498 706 L197 0 L2 0 L305 706 Z " />
<glyph glyph-name="bar" unicode="&#x7c;" horiz-adv-x="229" d="M51 748 L178 748 L178 -250 L51 -250 L51 748 Z " />
<glyph glyph-name="endash" unicode="&#x2013;" horiz-adv-x="500" d="M38 402 L462 402 L462 231 L38 231 L38 402 Z " />
<glyph glyph-name="emdash" unicode="&#x2014;" horiz-adv-x="1000" d="M38 402 L962 402 L962 231 L38 231 L38 402 Z " />
<glyph glyph-name="bullet" unicode="&#x2022;" horiz-adv-x="334" d="M12 353 Q12 385 24 413.5 Q36 442 57 463 Q78 484 106.5 496 Q135 508 167 508 Q199 508 227.5 496 Q256 484 277 463 Q298 442 310 413.5 Q322 385 322 353 Q322 321 310 292.5 Q298 264 277 243 Q256 222 227.5 210 Q199 198 167 198 Q135 198 106.5 210 Q78 222 57 243 Q36 264 24 292.5 Q12 321 12 353 Z " />
<glyph glyph-name="periodcentered" unicode="&#xb7;" horiz-adv-x="250" d="M34 411 L216 411 L216 222 L34 222 L34 411 Z " />
<glyph glyph-name="parenleft" unicode="&#x28;" horiz-adv-x="354" d="M286 -165 Q255 -142 220.5 -114.5 Q186 -87 156 -55 Q118 -15 92.5 27.5 Q67 70 51.5 112.5 Q36 155 29.5 197 Q23 239 23 279 Q23 348 36.5 405 Q50 462 72 508.5 Q94 555 121.5 592.5 Q149 630 177 659 Q186 668 195 677 Q204 686 215.5 696.5 Q227 707 241 719.5 Q255 732 274 748 L342 683 Q312 648 284.5 611 Q257 574 236 529 Q215 484 202 428 Q189 372 189 299 Q189 241 197.5 192.5 Q206 144 219.5 104 Q233 64 250.5 32 Q268 0 286 -24 Q305 -48 321.5 -64 Q338 -80 348 -88 L286 -165 Z " />
<glyph glyph-name="parenright" unicode="&#x29;" horiz-adv-x="354" d="M11 -100 Q41 -65 69 -28 Q97 9 118 54 Q139 99 152 155 Q165 211 165 284 Q165 342 156.5 390.5 Q148 439 134.5 479 Q121 519 103.5 551 Q86 583 68 607 Q49 631 32.5 647 Q16 663 6 671 L68 748 Q99 725 133.5 697.5 Q168 670 198 638 Q236 597 261.5 555 Q287 513 302 470.5 Q317 428 324 386 Q331 344 331 304 L331 300 Q331 232 317.5 175.5 Q304 119 282 73 Q260 27 232.5 -10 Q205 -47 177 -76 Q160 -94 139 -113.5 Q118 -133 80 -165 L11 -100 Z " />
<glyph glyph-name="bracketleft" unicode="&#x5b;" horiz-adv-x="354" d="M41 706 L341 706 L341 593 L207 593 L207 -9 L341 -9 L341 -122 L41 -122 L41 706 Z " />
<glyph glyph-name="bracketright" unicode="&#x5d;" horiz-adv-x="354" d="M13 -9 L147 -9 L147 593 L13 593 L13 706 L313 706 L313 -122 L13 -122 L13 -9 Z " />
<glyph glyph-name="braceleft" unicode="&#x7b;" horiz-adv-x="379" d="M91 96 Q91 116 89 137 Q87 158 79 177.5 Q71 197 55 213 Q39 229 12 239 L12 308 Q39 318 55 334 Q71 350 79 369.5 Q87 389 89 410.5 Q91 432 91 452 L91 589 Q91 640 99 670.5 Q107 701 131 724 Q146 739 165 747 Q184 755 208 759 Q232 763 261 764 Q290 765 325 765 L367 765 L367 697 Q339 689 319 680.5 Q299 672 285.5 656 Q272 640 265.5 614 Q259 588 259 545 L259 455 Q259 411 254 381 Q249 351 237 330.5 Q225 310 204.5 296.5 Q184 283 153 273 Q154 273 160 271 Q166 269 174.5 266 Q183 263 192 258.5 Q201 254 209 248 Q242 222 250.5 186 Q259 150 259 92 L259 2 Q259 -41 266 -67 Q273 -93 286.5 -109 Q300 -125 320 -133.5 Q340 -142 367 -149 L367 -218 L333 -218 Q262 -218 213 -212 Q164 -206 132 -177 Q107 -154 99 -123 Q91 -92 91 -41 L91 96 Z " />
<glyph glyph-name="braceright" unicode="&#x7d;" horiz-adv-x="379" d="M12 -149 Q39 -141 59 -132.5 Q79 -124 92.5 -108.5 Q106 -93 113 -67 Q120 -41 120 2 L120 92 Q120 122 121.5 146 Q123 170 129 189 Q135 208 146 223 Q157 238 175 251 Q182 256 190.5 260 Q199 264 206.5 267 Q214 270 219.5 271.5 Q225 273 226 273 Q194 283 173.5 296.5 Q153 310 141 330 Q129 350 124.5 380 Q120 410 120 455 L120 545 Q120 595 111 624.5 Q102 654 73 674 Q62 682 42.5 687.5 Q23 693 12 697 L12 765 L54 765 Q97 765 133 763 Q169 761 197 752.5 Q225 744 245 727 Q265 710 277 679 Q285 659 286.5 634 Q288 609 288 589 L288 451 Q288 431 290 409.5 Q292 388 300 368.5 Q308 349 324 333 Q340 317 367 308 L367 239 Q340 230 324 213.5 Q308 197 300 177.5 Q292 158 290 136.5 Q288 115 288 95 L288 -41 Q288 -92 279.5 -123.5 Q271 -155 246 -178 Q230 -192 210.5 -200 Q191 -208 167 -212 Q143 -216 114.5 -217 Q86 -218 53 -218 L12 -218 L12 -149 Z " />
<glyph glyph-name="asterisk" unicode="&#x2a;" horiz-adv-x="354" d="M102 531 L15 560 L43 645 L129 615 L129 710 L218 710 L218 620 L306 654 L338 570 L243 533 L307 456 L236 402 L174 479 L121 403 L49 455 L102 531 Z " />
<glyph glyph-name="dagger" unicode="&#x2020;" horiz-adv-x="589" d="M197 335 L20 335 L20 493 L197 493 L197 706 L391 706 L391 493 L569 493 L569 335 L391 335 L391 -153 L197 -153 L197 335 Z " />
<glyph glyph-name="daggerdbl" unicode="&#x2021;" horiz-adv-x="608" d="M213 42 L30 42 L30 196 L213 196 L213 391 L30 391 L30 544 L213 544 L213 706 L395 706 L395 544 L578 544 L578 391 L395 391 L395 196 L577 196 L577 42 L395 42 L395 -151 L213 -151 L213 42 Z " />
<glyph glyph-name="section" unicode="&#xa7;" horiz-adv-x="639" d="M161 38 Q169 33 188 22 Q207 11 232 0 Q257 -11 286 -20 Q315 -29 343 -29 Q361 -29 373 -23.5 Q385 -18 385 -5 Q385 4 379 10.5 Q373 17 370 20 Q364 25 344.5 34.5 Q325 44 298 55.5 Q271 67 240.5 80 Q210 93 183 106 Q181 107 173.5 110.5 Q166 114 155.5 119 Q145 124 133.5 130.5 Q122 137 112 144 Q104 150 88 162.5 Q72 175 57 195 Q46 210 35.5 233.5 Q25 257 25 295 Q25 328 33.5 352.5 Q42 377 56 395.5 Q70 414 87.5 428 Q105 442 123 453 Q113 466 101 486.5 Q89 507 89 541 Q89 568 100.5 597 Q112 626 137.5 650 Q163 674 203.5 689.5 Q244 705 301 705 Q320 705 344 702 Q368 699 393 693.5 Q418 688 443 680 Q468 672 490 662 Q510 653 529.5 642 Q549 631 569 620 L477 515 Q465 521 446.5 531 Q428 541 405 550 Q382 559 354 565.5 Q326 572 295 572 Q292 572 285 571.5 Q278 571 271 569 Q264 567 259 562.5 Q254 558 254 550 Q254 542 258.5 537.5 Q263 533 266 530 Q271 525 290.5 516 Q310 507 336.5 496 Q363 485 393.5 472 Q424 459 451 446 Q486 429 516 411 Q546 393 567.5 370 Q589 347 601.5 317.5 Q614 288 614 249 Q614 217 603.5 192.5 Q593 168 578 148.5 Q563 129 545.5 114.5 Q528 100 513 90 Q526 79 533 65 Q540 51 543.5 38 Q547 25 547.5 15 Q548 5 548 2 L548 1 Q548 -29 535 -58 Q522 -87 495.5 -109.5 Q469 -132 429.5 -145.5 Q390 -159 338 -159 Q289 -159 247 -149 Q205 -139 170.5 -124.5 Q136 -110 108.5 -94 Q81 -78 62 -67 L161 38 Z M422 170 Q425 173 431 178.5 Q437 184 442.5 192 Q448 200 452.5 209.5 Q457 219 457 229 Q457 244 447.5 256 Q438 268 422 278.5 Q406 289 384.5 299 Q363 309 340 320 Q305 337 277.5 350.5 Q250 364 215 381 Q207 373 200.5 365.5 Q194 358 189 349 Q186 343 183.5 336 Q181 329 181 321 Q181 304 191.5 291.5 Q202 279 208 274 Q215 268 231 259 Q247 250 264.5 242 Q282 234 297.5 226.5 Q313 219 321 216 Q349 204 371 193.5 Q393 183 422 170 Z " />
<glyph glyph-name="paragraph" unicode="&#xb6;" horiz-adv-x="522" d="M181 292 Q175 294 150 301.5 Q125 309 100 329 Q71 352 49 391.5 Q27 431 27 491 Q27 536 39.5 570 Q52 604 71 628.5 Q90 653 113 669 Q136 685 158 693 Q182 702 205.5 704 Q229 706 243 706 L503 706 L503 628 L467 628 L467 -167 L383 -167 L383 628 L266 628 L266 -167 L181 -167 L181 292 Z " />
<glyph glyph-name="asciicircum" unicode="&#x5e;" horiz-adv-x="541" d="M223 706 L327 706 L521 311 L383 311 L273 542 L157 311 L20 311 L223 706 Z " />
<glyph glyph-name="asciitilde" unicode="&#x7e;" horiz-adv-x="563" d="M20 301 Q30 316 44 332.5 Q58 349 77 363 Q96 377 120 386 Q144 395 175 395 Q203 395 226 386.5 Q249 378 279 364 L315 348 Q334 340 353 333 Q372 326 390 326 Q409 326 434 337.5 Q459 349 491 387 L543 282 Q519 255 496 239 Q473 223 452 214 Q431 205 414 202 Q397 199 386 199 Q361 199 336 207.5 Q311 216 283 230 L252 245 Q223 259 208 263.5 Q193 268 179 268 Q149 268 130.5 254 Q112 240 87 211 L75 197 L20 301 Z " />
<glyph glyph-name="brokenbar" unicode="&#xa6;" horiz-adv-x="229" d="M51 689 L178 689 L178 308 L51 308 L51 689 Z M51 190 L178 190 L178 -191 L51 -191 L51 190 Z " />
<glyph glyph-name="backslash" unicode="&#x5c;" horiz-adv-x="500" d="M2 706 L197 706 L498 0 L305 0 L2 706 Z " />
<glyph glyph-name="underscore" unicode="&#x5f;" horiz-adv-x="500" d="M-10 -113 L510 -113 L510 -240 L-10 -240 L-10 -113 Z " />
<glyph glyph-name="quotesingle" unicode="&#x27;" horiz-adv-x="257" d="M40 706 L217 706 L199 341 L59 341 L40 706 Z " />
<glyph glyph-name="quotedbl" unicode="&#x22;" horiz-adv-x="500" d="M282 706 L460 706 L441 341 L301 341 L282 706 Z M40 706 L217 706 L199 341 L59 341 L40 706 Z " />
<glyph glyph-name="at" unicode="&#x40;" horiz-adv-x="896" d="M844 46 Q760 -35 661 -79.5 Q562 -124 455 -124 Q372 -124 287 -94 Q230 -74 190.5 -45 Q151 -16 125 16.5 Q99 49 84.5 83 Q70 117 63 147 Q56 177 54.5 201 Q53 225 53 238 Q53 329 87 414.5 Q121 500 183.5 566 Q246 632 334 672 Q422 712 530 712 Q592 712 648.5 694 Q705 676 748.5 639 Q792 602 817.5 546.5 Q843 491 843 416 Q843 385 838.5 358 Q834 331 831 317 Q817 256 791 208.5 Q765 161 732.5 128.5 Q700 96 664.5 79 Q629 62 596 62 Q584 62 570 64 Q556 66 542.5 72 Q529 78 517 89 Q505 100 498 119 Q478 99 447 80.5 Q416 62 371 62 Q344 62 317 71.5 Q290 81 268.5 102 Q247 123 233.5 156 Q220 189 220 236 Q220 243 221.5 266 Q223 289 231.5 321 Q240 353 257 390 Q274 427 306 460 Q328 483 350 496.5 Q372 510 391.5 516.5 Q411 523 426.5 525 Q442 527 451 527 Q481 527 507.5 516 Q534 505 554 481 L560 507 L672 507 Q670 497 666 480 Q662 463 657 441 Q652 419 646.5 394 Q641 369 635 343 Q629 317 624 291.5 Q619 266 615.5 244 Q612 222 609.5 206 Q607 190 607 182 Q607 169 609.5 165 Q612 161 616 161 Q620 161 629.5 165.5 Q639 170 656 187 Q669 200 684 223 Q699 246 711.5 275.5 Q724 305 732 340 Q740 375 740 414 Q740 461 727 494 Q714 527 694 549.5 Q674 572 649.5 585.5 Q625 599 601.5 605.5 Q578 612 558.5 614 Q539 616 529 616 Q462 616 418.5 600.5 Q375 585 354 573 Q299 543 261 501.5 Q223 460 199 415 Q175 370 164.5 324.5 Q154 279 154 239 Q154 172 177.5 122 Q201 72 241.5 39 Q282 6 336.5 -11 Q391 -28 453 -28 Q507 -28 556 -15 Q605 -2 647 19.5 Q689 41 723.5 67.5 Q758 94 784 120 L844 46 Z M363 182 Q368 177 378 172 Q388 167 399 167 Q419 167 436.5 179.5 Q454 192 462 200 Q476 214 486 233 Q496 252 503 272.5 Q510 293 513 312.5 Q516 332 516 347 Q516 362 513 376 Q506 400 491 411.5 Q476 423 458 423 Q430 423 406 402 Q389 388 377 367.5 Q365 347 357.5 324.5 Q350 302 346.5 280 Q343 258 343 241 Q343 201 363 182 Z " />
<glyph glyph-name="copyright" unicode="&#xa9;" horiz-adv-x="789" d="M20 353 Q20 431 49.5 499 Q79 567 130 617.5 Q181 668 249 697.5 Q317 727 395 727 Q472 727 540 697.5 Q608 668 659 617.5 Q710 567 739.5 499 Q769 431 769 353 Q769 275 739.5 207 Q710 139 659 88.5 Q608 38 540 8.5 Q472 -21 395 -21 Q317 -21 249 8.5 Q181 38 130 88.5 Q79 139 49.5 207 Q20 275 20 353 Z M395 66 Q454 66 506 88.5 Q558 111 597 150 Q636 189 658.5 241.5 Q681 294 681 353 Q681 412 658.5 464.5 Q636 517 597 556 Q558 595 506 617.5 Q454 640 395 640 Q335 640 283 617.5 Q231 595 192 556 Q153 517 130.5 464.5 Q108 412 108 353 Q108 294 130.5 241.5 Q153 189 192 150 Q231 111 283 88.5 Q335 66 395 66 Z M588 242 Q584 237 583 235.5 Q582 234 580 232 Q571 216 556 198 Q522 158 478.5 142 Q435 126 399 126 Q390 126 365 129 Q340 132 310.5 145.5 Q281 159 252 186.5 Q223 214 207 263 Q197 293 195 318 Q193 343 193 353 Q193 393 202 422 Q211 451 219 467 Q228 484 243 504 Q258 524 280.5 541 Q303 558 332.5 569.5 Q362 581 401 581 Q407 581 423 580 Q439 579 461 572 Q483 565 507.5 551 Q532 537 554 511 Q561 503 567.5 493.5 Q574 484 585 464 L492 417 Q488 425 484.5 432 Q481 439 476 446 Q468 458 450 470.5 Q432 483 405 483 Q378 483 359 470.5 Q340 458 329 439.5 Q318 421 313 398.5 Q308 376 308 356 Q308 322 316.5 297.5 Q325 273 338.5 257 Q352 241 369.5 233.5 Q387 226 405 226 Q424 226 437.5 231.5 Q451 237 461.5 246 Q472 255 479.5 266.5 Q487 278 494 289 L588 242 Z " />
<glyph glyph-name="registered" unicode="&#xae;" horiz-adv-x="789" d="M20 353 Q20 431 49.5 499 Q79 567 130 618 Q181 669 249 698.5 Q317 728 394 728 Q472 728 540 698.5 Q608 669 659 618 Q710 567 739.5 499 Q769 431 769 353 Q769 275 739.5 207 Q710 139 659 88.5 Q608 38 540 8.5 Q472 -21 395 -21 Q317 -21 249 8.5 Q181 38 130 88.5 Q79 139 49.5 207 Q20 275 20 353 Z M394 66 Q454 66 506 88.5 Q558 111 597 150 Q636 189 658.5 241.5 Q681 294 681 353 Q681 412 658.5 464.5 Q636 517 597 556 Q558 595 506 617.5 Q454 640 394 640 Q335 640 283 617.5 Q231 595 192 556 Q153 517 130.5 464.5 Q108 412 108 353 Q108 294 130.5 241.5 Q153 189 192 150 Q231 111 283 88.5 Q335 66 394 66 Z M224 567 L406 567 Q428 567 449.5 565.5 Q471 564 491 558 Q514 551 533.5 536 Q553 521 567 493 Q578 471 579.5 452.5 Q581 434 581 430 L581 429 Q581 399 573 378 Q565 357 552 343.5 Q539 330 524 322 Q509 314 495 309 L584 139 L461 139 L387 290 L336 290 L336 139 L224 139 L224 567 Z M409 374 Q415 374 425.5 375 Q436 376 445.5 381.5 Q455 387 462.5 398 Q470 409 470 429 Q470 448 463.5 459 Q457 470 448 475.5 Q439 481 429 482 Q419 483 412 483 L335 483 L335 374 L409 374 Z " />
<glyph glyph-name="trademark" unicode="&#x2122;" horiz-adv-x="688" d="M309 706 L415 706 L491 467 L562 706 L669 706 L669 374 L587 374 L591 551 Q591 560 592 571.5 Q593 583 594 593 Q595 603 596 610.5 Q597 618 597 619 Q593 604 590.5 592 Q588 580 583 565 L527 374 L452 374 L393 566 Q388 580 385.5 591.5 Q383 603 379 617 Q384 595 385 576.5 Q386 558 386 551 L391 374 L309 374 L309 706 Z M97 639 L-5 639 L-5 706 L282 706 L282 639 L182 639 L182 374 L97 374 L97 639 Z " />
<glyph glyph-name="currency" unicode="&#xa4;" horiz-adv-x="668" d="M125 212 Q111 232 98 269.5 Q85 307 85 348 Q84 390 97.5 427 Q111 464 125 483 L65 540 L143 616 L200 560 Q218 575 256 587 Q294 599 336 599 Q377 599 413.5 587 Q450 575 469 560 L527 616 L603 541 L545 483 Q561 464 574 427 Q587 390 587 348 Q587 308 574.5 270 Q562 232 545 212 L603 154 L528 79 L469 139 Q446 118 411.5 107.5 Q377 97 336 97 Q294 97 258.5 107 Q223 117 200 137 L140 79 L65 154 L125 212 Z M336 241 Q355 241 374 247.5 Q393 254 408.5 267.5 Q424 281 433.5 301 Q443 321 443 348 Q443 375 433.5 395 Q424 415 408.5 428.5 Q393 442 374 448.5 Q355 455 336 455 Q317 455 298 448.5 Q279 442 263.5 428.5 Q248 415 238.5 395 Q229 375 229 348 Q229 321 238.5 301 Q248 281 263.5 267.5 Q279 254 298 247.5 Q317 241 336 241 Z " />
<glyph glyph-name="Euro" unicode="&#x20ac;" horiz-adv-x="616" d="M57 311 L94 311 Q93 320 93 329.5 Q93 339 93 349 Q93 358 93 367.5 Q93 377 94 387 L15 387 L57 487 L113 487 Q135 558 176.5 602 Q218 646 265.5 670.5 Q313 695 359 703.5 Q405 712 435 712 Q477 712 506.5 708.5 Q536 705 557 700 Q578 695 593 689 Q608 683 620 678 L559 549 Q533 559 511.5 563 Q490 567 461 567 Q370 567 326 487 L538 487 L496 387 L301 387 Q298 369 298 349 Q298 339 298.5 329.5 Q299 320 300 311 L466 311 L424 211 L322 211 Q336 183 354 167 Q372 151 391.5 143.5 Q411 136 430 134.5 Q449 133 464 133 Q495 133 532 143 Q569 153 599 176 L599 15 Q571 2 526 -6 Q481 -14 427 -14 Q392 -14 346.5 -6.5 Q301 1 256 25 Q211 49 172 93 Q133 137 112 211 L15 211 L57 311 Z " />
<glyph glyph-name="dollar" unicode="&#x24;" horiz-adv-x="667" d="M125 198 Q149 182 168.5 171.5 Q188 161 207 154 Q226 147 245 143 Q264 139 288 136 L288 268 Q243 278 207 287.5 Q171 297 142.5 309 Q114 321 92 339 Q70 357 54 384 Q45 399 40.5 414 Q36 429 33.5 441.5 Q31 454 30.5 463.5 Q30 473 30 477 Q30 551 74.5 607 Q119 663 200 685 Q215 690 235 693 Q255 696 288 698 L288 763 L384 763 L384 695 Q427 690 457.5 682.5 Q488 675 512.5 665.5 Q537 656 557.5 644 Q578 632 601 618 L498 496 Q480 509 467 517.5 Q454 526 441 531 Q428 536 415 539 Q402 542 384 544 L384 432 Q385 432 404.5 429.5 Q424 427 452.5 419 Q481 411 514.5 397 Q548 383 576 359.5 Q604 336 623 301.5 Q642 267 642 219 L642 218 Q642 181 632.5 153 Q623 125 615 111 Q594 73 566 50.5 Q538 28 506.5 15 Q475 2 443.5 -3.5 Q412 -9 384 -13 L384 -114 L288 -114 L288 -13 Q233 -7 195.5 0 Q158 7 129 17 Q100 27 74.5 40 Q49 53 19 72 L125 198 Z M220 494 Q220 480 228 472 Q236 464 247 459.5 Q258 455 269 452.5 Q280 450 288 449 L288 547 Q274 545 257 540.5 Q240 536 228 519 Q223 511 221.5 505.5 Q220 500 220 495 L220 494 Z M384 138 Q421 146 436 163.5 Q451 181 451 201 Q451 216 444 225 Q437 234 426.5 239.5 Q416 245 404.5 248 Q393 251 384 253 L384 138 Z " />
<glyph glyph-name="cent" unicode="&#xa2;" horiz-adv-x="583" d="M256 -19 L249 -19 Q190 -11 147.5 13.5 Q105 38 77.5 73.5 Q50 109 36.5 153.5 Q23 198 23 248 Q23 296 36.5 343.5 Q50 391 78.5 430.5 Q107 470 151 497.5 Q195 525 256 531 L256 647 L357 647 L357 532 Q400 527 432.5 514 Q465 501 490 482.5 Q515 464 532.5 442.5 Q550 421 562 400 L407 312 Q404 320 399 333 Q394 346 384 358.5 Q374 371 358.5 380 Q343 389 318 389 Q274 389 251 353.5 Q228 318 228 252 Q228 234 230.5 213 Q233 192 241.5 174 Q250 156 267 144 Q284 132 313 132 Q338 132 355 143 Q372 154 383 168 Q394 182 399.5 196.5 Q405 211 408 217 L566 131 Q561 120 555 109 Q549 98 541 87 Q517 52 488 32 Q459 12 432 1 Q405 -10 384.5 -14 Q364 -18 357 -19 L357 -147 L256 -147 L256 -19 Z " />
<glyph glyph-name="sterling" unicode="&#xa3;" horiz-adv-x="729" d="M63 400 L133 400 Q117 420 103 446 Q89 472 89 515 Q89 520 89.5 531 Q90 542 94 556.5 Q98 571 105 588 Q112 605 126 622 Q150 652 182 670 Q214 688 247.5 697.5 Q281 707 313.5 709.5 Q346 712 371 712 Q459 712 521.5 692 Q584 672 618 635 Q649 600 657.5 557.5 Q666 515 666 479 Q666 474 665.5 468 Q665 462 665 456 L487 456 Q488 461 488 465 Q488 469 488 474 Q488 508 475.5 526.5 Q463 545 445.5 554 Q428 563 410.5 565 Q393 567 384 567 Q334 567 309.5 546 Q285 525 285 491 Q285 477 290.5 463 Q296 449 303.5 436.5 Q311 424 318.5 414.5 Q326 405 330 400 L486 400 L486 299 L396 299 Q402 288 412 264 Q422 240 422 213 Q422 199 420.5 188.5 Q419 178 417 168 Q436 156 458.5 143 Q481 130 501 130 Q515 130 522.5 136.5 Q530 143 534 152.5 Q538 162 538.5 172.5 Q539 183 539 191 Q539 205 538.5 212 Q538 219 535 233 L707 233 L707 184 Q707 104 686 60.5 Q665 17 612 -4 Q600 -9 582.5 -13 Q565 -17 541 -17 Q508 -17 479 -9 Q450 -1 426.5 10.5 Q403 22 385 34 Q367 46 355 54 Q345 45 335.5 37 Q326 29 317 23 Q285 2 247 -6.5 Q209 -15 177 -15 Q153 -15 124.5 -9 Q96 -3 71.5 11.5 Q47 26 31 50 Q15 74 15 111 Q15 145 31 170 Q47 195 71.5 211 Q96 227 125 234.5 Q154 242 180 242 Q194 242 207.5 240.5 Q221 239 235 237 Q232 244 229 250 Q226 256 222 262.5 Q218 269 212 277.5 Q206 286 197 299 L63 299 L63 400 Z M247 127 Q237 133 227 137 Q206 145 186 145 Q163 145 150.5 135.5 Q138 126 138 112 Q138 101 147 91 Q156 81 176 81 Q190 81 201 86 Q212 91 221 98 Q230 105 236 113 Q242 121 247 127 Z " />
<glyph glyph-name="florin" unicode="&#x192;" horiz-adv-x="437" d="M-28 -41 Q-20 -44 -13.5 -46 Q-7 -48 7 -48 Q21 -48 35 -44.5 Q49 -41 59 -28 Q69 -16 71.5 10.5 Q74 37 78 69 L112 376 L35 376 L47 489 L125 489 L130 540 Q132 559 138 581.5 Q144 604 156 623 Q172 648 195.5 663 Q219 678 244.5 686.5 Q270 695 294.5 697.5 Q319 700 338 700 Q370 700 392 697 Q414 694 446 687 L430 545 Q422 548 415.5 550.5 Q409 553 395 553 Q372 553 359.5 546 Q347 539 341 529 Q335 519 333 508 Q331 497 330 489 L423 489 L411 376 L318 376 L284 69 Q279 24 275.5 -11.5 Q272 -47 264 -75.5 Q256 -104 240.5 -126 Q225 -148 196 -165 Q165 -184 130 -189.5 Q95 -195 64 -195 Q32 -195 10 -192 Q-12 -189 -44 -182 L-28 -41 Z " />
<glyph glyph-name="yen" unicode="&#xa5;" horiz-adv-x="791" d="M85 286 L283 286 L283 293 L239 356 L85 356 L85 478 L154 478 L0 698 L258 698 L396 460 L533 698 L791 698 L637 478 L713 478 L713 356 L551 356 L507 293 L507 286 L713 286 L713 164 L507 164 L507 0 L283 0 L283 164 L85 164 L85 286 Z " />
<glyph glyph-name="ordfeminine" unicode="&#xaa;" horiz-adv-x="396" d="M245 400 Q229 386 204 376 Q179 366 142 366 Q106 366 82 376.5 Q58 387 44 403 Q30 419 24.5 438 Q19 457 19 474 Q19 480 22 499.5 Q25 519 42 539 Q55 554 71 562.5 Q87 571 104.5 576 Q122 581 139 583.5 Q156 586 170 588 Q189 591 204 594 Q219 597 239 601 Q238 618 231 627.5 Q224 637 197 637 Q180 637 169 632.5 Q158 628 154 606 L30 604 Q33 623 36 632 Q39 641 46 651 Q86 715 198 715 Q260 715 300.5 700.5 Q341 686 357 648 Q362 635 363.5 624.5 Q365 614 365 602 L365 401 Q365 392 366.5 387 Q368 382 376 374 L245 374 L245 400 Z M238 526 Q229 523 220 520 Q211 517 201 514 Q178 508 160 501.5 Q142 495 142 478 Q142 464 153 458 Q164 452 174 452 Q182 452 191.5 455.5 Q201 459 209 464 Q231 480 234 494.5 Q237 509 238 526 Z " />
<glyph glyph-name="ordmasculine" unicode="&#xba;" horiz-adv-x="417" d="M17 536 Q17 622 69 669.5 Q121 717 206 717 Q270 717 308.5 696.5 Q347 676 367.5 647.5 Q388 619 394 589 Q400 559 400 540 Q400 475 373.5 438.5 Q347 402 313 385 Q279 368 247 364.5 Q215 361 203 361 Q164 361 130.5 372.5 Q97 384 71.5 406 Q46 428 31.5 461 Q17 494 17 536 Z M148 532 Q148 525 149.5 512 Q151 499 157 486 Q163 473 175 463.5 Q187 454 208 454 Q239 454 253 476.5 Q267 499 267 540 Q267 623 211 623 Q191 623 178 615 Q168 609 162 598.5 Q156 588 153 577 Q150 566 149 555 Q148 544 148 537 L148 532 Z " />
<glyph glyph-name="numbersign" unicode="&#x23;" horiz-adv-x="667" d="M136 186 L42 186 L42 310 L154 310 L167 405 L67 405 L67 529 L184 529 L209 706 L333 706 L308 529 L408 529 L432 706 L557 706 L533 529 L624 529 L624 405 L515 405 L503 310 L601 310 L601 186 L485 186 L459 0 L333 0 L360 186 L261 186 L235 0 L111 0 L136 186 Z M377 310 L391 405 L291 405 L278 310 L377 310 Z " />
<glyph glyph-name="zero" unicode="0" horiz-adv-x="646" d="M318 -23 Q245 -23 189.5 3.5 Q134 30 96.5 79 Q59 128 40 196.5 Q21 265 21 348 Q21 414 37 483 Q53 552 89.5 608.5 Q126 665 184.5 700.5 Q243 736 328 736 Q402 736 457.5 710.5 Q513 685 550 637 Q587 589 605.5 520 Q624 451 624 365 Q624 301 608 232.5 Q592 164 555.5 107 Q519 50 460.5 13.5 Q402 -23 318 -23 Z M322 118 Q358 118 377.5 140 Q397 162 407 195.5 Q417 229 419 270 Q421 311 421 350 Q421 388 419.5 431.5 Q418 475 409 512.5 Q400 550 380.5 575 Q361 600 325 600 Q287 600 267 573 Q247 546 237.5 506 Q228 466 226.5 420.5 Q225 375 225 338 Q225 301 227.5 262 Q230 223 239.5 191 Q249 159 268.5 138.5 Q288 118 322 118 Z " />
<glyph glyph-name="one" unicode="1" horiz-adv-x="646" d="M257 475 Q241 469 227 466 Q213 463 197 461.5 Q181 460 160 459.5 Q139 459 110 458 L110 613 L133 613 Q148 613 166.5 615 Q185 617 203 623.5 Q221 630 238.5 642 Q256 654 270 674 Q280 689 285 706 L463 706 L463 0 L257 0 L257 475 Z " />
<glyph glyph-name="two" unicode="2" horiz-adv-x="646" d="M27 130 Q91 173 157 221 Q223 269 276.5 318.5 Q330 368 364 417.5 Q398 467 398 512 Q398 522 395.5 536 Q393 550 384 562.5 Q375 575 359 583.5 Q343 592 316 592 Q300 592 284.5 587.5 Q269 583 256.5 572 Q244 561 236 541 Q228 521 228 491 Q228 471 230 460.5 Q232 450 235 440 L32 464 Q33 489 34.5 516 Q36 543 43 568 Q65 649 134 692.5 Q203 736 331 736 Q356 736 386.5 734 Q417 732 448.5 723 Q480 714 509.5 697 Q539 680 563 650 Q579 630 587.5 609.5 Q596 589 600 570 Q604 551 605 536 Q606 521 606 514 Q606 454 580 401.5 Q554 349 513 304.5 Q472 260 420.5 223 Q369 186 317 157 Q347 158 370.5 159 Q394 160 424 160 L597 160 L597 0 L27 0 L27 130 Z " />
<glyph glyph-name="three" unicode="3" horiz-adv-x="646" d="M194 234 Q195 220 199 200 Q203 180 214.5 162 Q226 144 248.5 131 Q271 118 311 118 Q316 118 332.5 119.5 Q349 121 366.5 129 Q384 137 398 154.5 Q412 172 412 204 Q412 221 405.5 237 Q399 253 385 265 Q371 277 349.5 284.5 Q328 292 298 292 Q278 292 265.5 290.5 Q253 289 246 287 L246 423 Q257 422 269 421 Q281 420 292 420 Q344 420 374 444.5 Q404 469 404 523 Q404 536 399.5 549.5 Q395 563 384 574 Q373 585 355.5 591.5 Q338 598 313 598 Q280 598 261 586 Q242 574 232 557.5 Q222 541 219 524 Q216 507 215 496 L26 508 Q31 535 37 563 Q43 591 58 618 Q89 673 152.5 704.5 Q216 736 322 736 Q456 736 526.5 682.5 Q597 629 597 540 Q597 530 593 507 Q589 484 577 457.5 Q565 431 542.5 405 Q520 379 482 364 Q497 360 520 349.5 Q543 339 565 319 Q587 299 603 268.5 Q619 238 619 195 Q619 134 596.5 92.5 Q574 51 533 25.5 Q492 0 435 -11.5 Q378 -23 308 -23 Q271 -23 221 -15 Q171 -7 124 17 Q77 41 42.5 84 Q8 127 3 197 L194 234 Z " />
<glyph glyph-name="four" unicode="4" horiz-adv-x="646" d="M19 285 L331 706 L535 706 L535 284 L622 284 L622 148 L535 148 L535 0 L339 0 L339 148 L19 148 L19 285 Z M339 284 L341 454 Q341 473 341.5 487.5 Q342 502 344 521 Q332 502 323 487.5 Q314 473 300 455 L183 284 L339 284 Z " />
<glyph glyph-name="five" unicode="5" horiz-adv-x="646" d="M219 223 Q219 208 219.5 196 Q220 184 222 177 Q228 154 241 141.5 Q254 129 267.5 123 Q281 117 293 116 Q305 115 310 115 Q335 115 354.5 124.5 Q374 134 387 149 Q400 164 406.5 184 Q413 204 413 225 Q413 288 384.5 315.5 Q356 343 309 343 Q274 343 255 331 Q236 319 224 299 L52 320 L91 706 L600 706 L586 563 L236 563 L226 453 Q249 464 279.5 473.5 Q310 483 360 483 Q406 483 453 470 Q500 457 537 428 Q574 399 597.5 353.5 Q621 308 621 244 Q621 174 598 123.5 Q575 73 534 40.5 Q493 8 437 -7.5 Q381 -23 315 -23 Q274 -23 225 -14 Q176 -5 132 19.5 Q88 44 55.5 88 Q23 132 15 202 L219 223 Z " />
<glyph glyph-name="six" unicode="6" horiz-adv-x="646" d="M418 529 Q418 547 410.5 560.5 Q403 574 391 583 Q379 592 364.5 596.5 Q350 601 337 601 Q296 601 271 580 Q246 559 233 529 Q220 499 215.5 465 Q211 431 211 404 Q226 421 243 434.5 Q260 448 281 457 Q302 466 328.5 471 Q355 476 390 476 Q439 476 482.5 457 Q526 438 559 404.5 Q592 371 611 325 Q630 279 630 226 Q630 162 607.5 115 Q585 68 545.5 37.5 Q506 7 453 -8 Q400 -23 340 -23 Q188 -23 104.5 69.5 Q21 162 21 345 Q21 443 46 516.5 Q71 590 115.5 638.5 Q160 687 221 711.5 Q282 736 354 736 Q469 736 530 688.5 Q591 641 613 558 L418 529 Z M334 110 Q346 110 362.5 115 Q379 120 395 133 Q411 146 422 167 Q433 188 433 221 Q433 244 426.5 266.5 Q420 289 407 306.5 Q394 324 376 335 Q358 346 334 346 Q280 346 254.5 312.5 Q229 279 229 222 Q229 200 236.5 179.5 Q244 159 258 143.5 Q272 128 291.5 119 Q311 110 334 110 Z " />
<glyph glyph-name="seven" unicode="7" horiz-adv-x="646" d="M120 0 Q127 44 148.5 113.5 Q170 183 203 260 Q236 337 279.5 414 Q323 491 374 550 L43 550 L43 706 L594 706 L594 575 Q543 526 499 460.5 Q455 395 421.5 319.5 Q388 244 366 162.5 Q344 81 335 0 L120 0 Z " />
<glyph glyph-name="eight" unicode="8" horiz-adv-x="646" d="M138 374 Q115 384 99 402 Q83 420 73 441.5 Q63 463 58.5 486 Q54 509 54 529 Q54 586 78 625 Q102 664 141 689 Q180 714 229.5 725 Q279 736 330 736 Q375 736 422.5 725 Q470 714 509 689 Q548 664 573 624 Q598 584 598 526 Q598 508 593.5 486 Q589 464 579 443 Q569 422 553.5 403.5 Q538 385 517 375 Q551 364 572.5 343.5 Q594 323 606 298.5 Q618 274 622.5 247 Q627 220 627 196 Q627 134 596 92 Q565 50 519 24.5 Q473 -1 419 -12 Q365 -23 320 -23 Q292 -23 257.5 -20.5 Q223 -18 188 -8 Q153 2 119.5 20 Q86 38 60 70 Q45 89 32 120.5 Q19 152 19 191 Q19 229 28.5 259 Q38 289 54.5 311.5 Q71 334 92.5 349.5 Q114 365 138 374 Z M235 521 Q235 508 240.5 493 Q246 478 257 465.5 Q268 453 285 444.5 Q302 436 325 436 Q349 436 366 444.5 Q383 453 393 466 Q403 479 407.5 493.5 Q412 508 412 520 Q412 534 407 549 Q402 564 391.5 576.5 Q381 589 363.5 597 Q346 605 321 605 Q283 605 259 584 Q235 563 235 521 Z M220 198 Q220 183 225 167 Q230 151 241.5 137.5 Q253 124 272 115 Q291 106 319 106 Q349 106 369.5 115 Q390 124 402.5 137.5 Q415 151 421 167.5 Q427 184 427 200 Q427 214 422 231.5 Q417 249 405 265 Q393 281 373.5 291.5 Q354 302 325 302 Q274 302 247 275.5 Q220 249 220 198 Z " />
<glyph glyph-name="nine" unicode="9" horiz-adv-x="646" d="M229 183 Q231 170 233 162 Q235 154 238 149 Q251 127 270 118.5 Q289 110 307 110 Q350 110 375.5 132.5 Q401 155 414.5 187 Q428 219 432 255.5 Q436 292 436 321 Q425 308 409 295.5 Q393 283 371 273 Q349 263 320.5 256.5 Q292 250 257 250 Q207 250 163.5 266 Q120 282 87.5 311.5 Q55 341 36 383.5 Q17 426 17 479 Q17 526 31 564 Q45 602 68.5 630.5 Q92 659 122 679 Q152 699 184 711.5 Q216 724 248 730 Q280 736 307 736 Q358 736 396 726.5 Q434 717 454 709 Q535 675 580.5 594.5 Q626 514 626 380 Q626 286 602.5 211.5 Q579 137 535.5 85 Q492 33 430.5 5 Q369 -23 293 -23 Q235 -23 191 -10.5 Q147 2 115 25 Q83 48 63 80.5 Q43 113 34 153 L229 183 Z M313 380 Q363 380 390 408.5 Q417 437 417 488 Q417 540 395 571.5 Q373 603 318 603 Q273 603 243.5 572 Q214 541 214 483 Q214 440 239.5 410 Q265 380 313 380 Z " />
<glyph glyph-name="one.superior" unicode="&#xb9;" horiz-adv-x="437" d="M153 525 Q139 521 126 519.5 Q113 518 87 518 L60 518 L60 627 L71 627 Q95 627 112 630 Q129 633 140.5 640 Q152 647 159 658 Q166 669 172 685 L295 685 L295 243 L153 243 L153 525 Z " />
<glyph glyph-name="two.superior" unicode="&#xb2;" horiz-adv-x="437" d="M20 334 Q44 347 62 357.5 Q80 368 97.5 378.5 Q115 389 134 402 Q153 415 177 434 Q212 461 238 487.5 Q264 514 264 543 Q264 569 247 579.5 Q230 590 210 590 Q189 590 173.5 578.5 Q158 567 158 530 Q158 519 160 508 Q162 497 162 492 L23 509 Q24 542 30 574.5 Q36 607 56 633 Q76 659 115 675 Q154 691 220 691 Q239 691 262.5 689.5 Q286 688 309.5 681 Q333 674 354.5 659 Q376 644 391 618 Q396 608 402 590 Q408 572 408 548 Q408 510 394 482 Q380 454 357 431 Q334 408 305.5 390.5 Q277 373 249 356 L402 356 L402 243 L20 243 L20 334 Z " />
<glyph glyph-name="three.superior" unicode="&#xb3;" horiz-adv-x="437" d="M149 398 Q151 387 154.5 376.5 Q158 366 166 357.5 Q174 349 186.5 343.5 Q199 338 219 338 Q251 338 263.5 351.5 Q276 365 276 384 Q276 397 269.5 404.5 Q263 412 253.5 416 Q244 420 233.5 421 Q223 422 215 422 Q207 422 202.5 421.5 Q198 421 190 421 L190 518 L212 518 Q222 518 232.5 518.5 Q243 519 251 523 Q259 527 264.5 534.5 Q270 542 270 556 Q270 572 258.5 583.5 Q247 595 219 595 Q191 595 179 582.5 Q167 570 162 550 L33 557 Q35 574 38.5 586 Q42 598 50 613 Q71 655 114 674.5 Q157 694 226 694 Q317 694 361.5 659 Q406 624 406 566 Q406 528 388 507.5 Q370 487 351 475 Q375 466 389 452.5 Q403 439 409.5 425.5 Q416 412 417.5 399.5 Q419 387 419 380 Q419 350 409 327 Q399 304 390 293 Q342 235 223 235 Q188 235 156 240 Q124 245 98 258.5 Q72 272 52.5 295.5 Q33 319 23 355 Q21 361 20.5 365.5 Q20 370 19 373 L149 398 Z " />
<glyph glyph-name="uni00A0" unicode="&#xa0;" horiz-adv-x="313" d="" />
<glyph glyph-name="fraction" unicode="&#x2044;" horiz-adv-x="169" d="M169 706 L301 706 L-1 0 L-132 0 L169 706 Z " />
<glyph glyph-name="onequarter" unicode="&#xbc;" horiz-adv-x="1040" d="M584 178 L786 443 L924 443 L924 188 L987 188 L987 89 L924 89 L924 0 L791 0 L791 88 L584 88 L584 178 Z M577 706 L709 706 L407 0 L276 0 L577 706 Z M138 525 Q124 521 111 519.5 Q98 518 72 518 L45 518 L45 627 L56 627 Q80 627 97 630 Q114 633 125.5 640 Q137 647 144 658 Q151 669 157 685 L280 685 L280 243 L138 243 L138 525 Z M797 188 Q798 222 798.5 256.5 Q799 291 801 324 Q779 290 755.5 255 Q732 220 707 188 L797 188 Z " />
<glyph glyph-name="onehalf" unicode="&#xbd;" horiz-adv-x="1040" d="M592 91 Q616 104 634 114.5 Q652 125 669.5 135.5 Q687 146 706 159 Q725 172 749 191 Q784 218 810 244.5 Q836 271 836 300 Q836 326 819 336.5 Q802 347 782 347 Q761 347 745.5 335.5 Q730 324 730 287 Q730 276 732 265 Q734 254 734 249 L595 266 Q596 299 602 331.5 Q608 364 628 390 Q648 416 687 432 Q726 448 792 448 Q811 448 834.5 446.5 Q858 445 881.5 438 Q905 431 926.5 416 Q948 401 963 375 Q968 365 974 347 Q980 329 980 305 Q980 267 966 239 Q952 211 929 188 Q906 165 877.5 147.5 Q849 130 821 113 L974 113 L974 0 L592 0 L592 91 Z M553 706 L685 706 L384 0 L252 0 L553 706 Z M138 525 Q124 521 111 519.5 Q98 518 72 518 L45 518 L45 627 L56 627 Q80 627 97 630 Q114 633 125.5 640 Q137 647 144 658 Q151 669 157 685 L280 685 L280 243 L138 243 L138 525 Z " />
<glyph glyph-name="threequarters" unicode="&#xbe;" horiz-adv-x="1040" d="M149 398 Q151 387 154.5 376.5 Q158 366 166 357.5 Q174 349 186.5 343.5 Q199 338 219 338 Q251 338 263.5 351.5 Q276 365 276 384 Q276 397 269.5 404.5 Q263 412 253.5 416 Q244 420 233.5 421 Q223 422 215 422 Q207 422 202.5 421.5 Q198 421 190 421 L190 518 L212 518 Q222 518 232.5 518.5 Q243 519 251 523 Q259 527 264.5 534.5 Q270 542 270 556 Q270 572 258.5 583.5 Q247 595 219 595 Q191 595 179 582.5 Q167 570 162 550 L33 557 Q35 574 38.5 586 Q42 598 50 613 Q71 655 114 674.5 Q157 694 226 694 Q317 694 361.5 659 Q406 624 406 566 Q406 528 388 507.5 Q370 487 351 475 Q375 466 389 452.5 Q403 439 409.5 425.5 Q416 412 417.5 399.5 Q419 387 419 380 Q419 350 409 327 Q399 304 390 293 Q342 235 223 235 Q188 235 156 240 Q124 245 98 258.5 Q72 272 52.5 295.5 Q33 319 23 355 Q21 361 20.5 365.5 Q20 370 19 373 L149 398 Z M624 178 L826 443 L964 443 L964 188 L1027 188 L1027 89 L964 89 L964 0 L831 0 L831 88 L624 88 L624 178 Z M627 706 L759 706 L457 0 L326 0 L627 706 Z M837 188 Q838 222 838.5 256.5 Q839 291 841 324 Q819 290 795.5 255 Q772 220 747 188 L837 188 Z " />
<glyph glyph-name="percent" unicode="&#x25;" horiz-adv-x="1040" d="M816 -10 Q762 -10 725.5 9.5 Q689 29 666 61 Q643 93 633 133.5 Q623 174 623 216 L623 219 Q623 265 633.5 302 Q644 339 662 367 Q680 395 704 413.5 Q728 432 755 441 Q767 445 783 447.5 Q799 450 824 450 Q844 450 863.5 448 Q883 446 901 439 Q952 419 985.5 364.5 Q1019 310 1019 225 Q1019 182 1008 140 Q997 98 972.5 64.5 Q948 31 909.5 10.5 Q871 -10 816 -10 Z M609 706 L741 706 L439 0 L308 0 L609 706 Z M215 234 Q161 234 124.5 253.5 Q88 273 65 305 Q42 337 32 377.5 Q22 418 22 460 L22 463 Q22 509 32.5 546 Q43 583 61 611 Q79 639 103 657.5 Q127 676 154 685 Q166 689 182 691.5 Q198 694 223 694 Q243 694 262.5 692 Q282 690 300 683 Q351 663 384.5 608.5 Q418 554 418 469 Q418 426 407 384 Q396 342 371.5 308.5 Q347 275 308.5 254.5 Q270 234 215 234 Z M821 92 Q839 92 850.5 102 Q862 112 868 129.5 Q874 147 876 170.5 Q878 194 878 221 Q878 246 876 270 Q874 294 868 312 Q862 330 851 341 Q840 352 822 352 Q806 352 791 339 Q773 323 768.5 291 Q764 259 764 214 Q764 188 765.5 166 Q767 144 773 127.5 Q779 111 790 101.5 Q801 92 821 92 Z M220 336 Q238 336 249.5 346 Q261 356 267 373.5 Q273 391 275 414.5 Q277 438 277 465 Q277 490 275 514 Q273 538 267 556 Q261 574 250 585 Q239 596 221 596 Q205 596 190 583 Q172 567 167.5 535 Q163 503 163 458 Q163 432 164.5 410 Q166 388 172 371.5 Q178 355 189 345.5 Q200 336 220 336 Z " />
<glyph glyph-name="perthousand" unicode="&#x2030;" horiz-adv-x="1478" d="M1253 -10 Q1199 -10 1162.5 9.5 Q1126 29 1103 61 Q1080 93 1070 133.5 Q1060 174 1060 216 L1060 219 Q1060 265 1070.5 302 Q1081 339 1099 367 Q1117 395 1141 413.5 Q1165 432 1192 441 Q1204 445 1220 447.5 Q1236 450 1261 450 Q1281 450 1300.5 448 Q1320 446 1338 439 Q1389 419 1422.5 364.5 Q1456 310 1456 225 Q1456 182 1445 140 Q1434 98 1409.5 64.5 Q1385 31 1346.5 10.5 Q1308 -10 1253 -10 Z M816 -10 Q762 -10 725.5 9.5 Q689 29 666 61 Q643 93 633 133.5 Q623 174 623 216 L623 219 Q623 265 633.5 302 Q644 339 662 367 Q680 395 704 413.5 Q728 432 755 441 Q767 445 783 447.5 Q799 450 824 450 Q844 450 863.5 448 Q883 446 901 439 Q952 419 985.5 364.5 Q1019 310 1019 225 Q1019 182 1008 140 Q997 98 972.5 64.5 Q948 31 909.5 10.5 Q871 -10 816 -10 Z M609 706 L741 706 L439 0 L308 0 L609 706 Z M215 234 Q161 234 124.5 253.5 Q88 273 65 305 Q42 337 32 377.5 Q22 418 22 460 L22 463 Q22 509 32.5 546 Q43 583 61 611 Q79 639 103 657.5 Q127 676 154 685 Q166 689 182 691.5 Q198 694 223 694 Q243 694 262.5 692 Q282 690 300 683 Q351 663 384.5 608.5 Q418 554 418 469 Q418 426 407 384 Q396 342 371.5 308.5 Q347 275 308.5 254.5 Q270 234 215 234 Z M1258 92 Q1276 92 1287.5 102 Q1299 112 1305 129.5 Q1311 147 1313 170.5 Q1315 194 1315 221 Q1315 246 1313 270 Q1311 294 1305 312 Q1299 330 1288 341 Q1277 352 1259 352 Q1243 352 1228 339 Q1210 323 1205.5 291 Q1201 259 1201 214 Q1201 188 1202.5 166 Q1204 144 1210 127.5 Q1216 111 1227 101.5 Q1238 92 1258 92 Z M821 92 Q839 92 850.5 102 Q862 112 868 129.5 Q874 147 876 170.5 Q878 194 878 221 Q878 246 876 270 Q874 294 868 312 Q862 330 851 341 Q840 352 822 352 Q806 352 791 339 Q773 323 768.5 291 Q764 259 764 214 Q764 188 765.5 166 Q767 144 773 127.5 Q779 111 790 101.5 Q801 92 821 92 Z M220 336 Q238 336 249.5 346 Q261 356 267 373.5 Q273 391 275 414.5 Q277 438 277 465 Q277 490 275 514 Q273 538 267 556 Q261 574 250 585 Q239 596 221 596 Q205 596 190 583 Q172 567 167.5 535 Q163 503 163 458 Q163 432 164.5 410 Q166 388 172 371.5 Q178 355 189 345.5 Q200 336 220 336 Z " />
<glyph glyph-name="plus" unicode="&#x2b;" horiz-adv-x="646" d="M48 340 L258 340 L258 549 L389 549 L389 340 L598 340 L598 210 L389 210 L389 0 L258 0 L258 210 L48 210 L48 340 Z " />
<glyph glyph-name="minus" unicode="&#x2212;" horiz-adv-x="646" d="M47 340 L598 340 L598 210 L47 210 L47 340 Z " />
<glyph glyph-name="plusminus" unicode="&#xb1;" horiz-adv-x="646" d="M48 132 L259 132 L259 318 L48 318 L48 450 L259 450 L259 646 L389 646 L389 450 L598 450 L598 318 L389 318 L389 132 L598 132 L598 0 L48 0 L48 132 Z " />
<glyph glyph-name="multiply" unicode="&#xd7;" horiz-adv-x="646" d="M233 280 L66 445 L157 536 L323 370 L491 536 L580 445 L414 280 L580 113 L490 23 L323 189 L157 23 L66 112 L233 280 Z " />
<glyph glyph-name="divide" unicode="&#xf7;" horiz-adv-x="646" d="M245 444 Q245 474 268 495.5 Q291 517 323 517 Q355 517 378 495.5 Q401 474 401 444 Q401 414 378 392.5 Q355 371 323 371 Q291 371 268 392.5 Q245 414 245 444 Z M47 340 L598 340 L598 210 L47 210 L47 340 Z M245 106 Q245 136 268 157.5 Q291 179 323 179 Q355 179 378 157.5 Q401 136 401 106 Q401 76 378 54.5 Q355 33 323 33 Q291 33 268 54.5 Q245 76 245 106 Z " />
<glyph glyph-name="equal" unicode="&#x3d;" horiz-adv-x="646" d="M48 434 L598 434 L598 312 L48 312 L48 434 Z M48 247 L598 247 L598 125 L48 125 L48 247 Z " />
<glyph glyph-name="notequal" unicode="&#x2260;" horiz-adv-x="621" d="M52 212 L236 212 L297 345 L52 345 L52 433 L335 433 L389 552 L461 520 L421 433 L569 433 L569 345 L383 345 L322 212 L569 212 L569 124 L284 124 L228 1 L157 34 L198 124 L52 124 L52 212 Z " />
<glyph glyph-name="approxequal" unicode="&#x2248;" horiz-adv-x="621" d="M35 360 Q48 381 66.5 400.5 Q85 420 107.5 434 Q130 448 155 456.5 Q180 465 206 465 Q245 465 272.5 454 Q300 443 323 429 Q354 409 374 400 Q394 391 420 391 Q451 391 475.5 410.5 Q500 430 525 465 L581 408 Q548 356 507 329 Q466 302 423 302 Q387 302 360 312.5 Q333 323 297 343 Q274 356 252 366 Q230 376 203 376 Q166 376 140 354 Q114 332 91 303 L35 360 Z M35 158 Q48 179 66.5 198.5 Q85 218 107.5 232 Q130 246 155.5 254.5 Q181 263 207 263 Q245 263 272 251.5 Q299 240 322 228 Q347 214 368.5 201.5 Q390 189 419 189 Q451 189 475 208 Q499 227 525 263 L581 206 Q549 155 508 127.5 Q467 100 422 100 Q387 100 359 111 Q331 122 297 141 Q273 155 251 164.5 Q229 174 203 174 Q165 174 139.5 152 Q114 130 91 101 L35 158 Z " />
<glyph glyph-name="less" unicode="&#x3c;" horiz-adv-x="646" d="M48 326 L598 572 L598 429 L252 275 L598 119 L598 -23 L48 224 L48 326 Z " />
<glyph glyph-name="greater" unicode="&#x3e;" horiz-adv-x="646" d="M48 119 L394 275 L48 429 L48 572 L598 326 L598 224 L48 -23 L48 119 Z " />
<glyph glyph-name="lessequal" unicode="&#x2264;" horiz-adv-x="621" d="M56 436 L566 663 L566 565 L150 390 L150 388 L567 212 L567 114 L56 342 L56 436 Z M53 78 L569 78 L569 -12 L53 -12 L53 78 Z " />
<glyph glyph-name="greaterequal" unicode="&#x2265;" horiz-adv-x="621" d="M57 212 L473 388 L473 390 L56 565 L56 663 L568 436 L568 341 L57 114 L57 212 Z M54 78 L564 78 L564 -12 L54 -12 L54 78 Z " />
<glyph glyph-name="logicalnot" unicode="&#xac;" horiz-adv-x="646" d="M48 434 L598 434 L598 126 L468 126 L468 312 L48 312 L48 434 Z " />
<glyph glyph-name="uni00AD" unicode="&#xad;" horiz-adv-x="333" d="M38 402 L295 402 L295 231 L38 231 L38 402 Z " />
<glyph glyph-name="Delta" unicode="&#x2206;" horiz-adv-x="772" d="M25 83 L287 701 L489 701 L746 83 L746 0 L25 0 L25 83 Z M556 124 L437 411 Q431 428 423.5 448.5 Q416 469 408 490 Q400 511 393 531 Q386 551 381 567 L376 567 Q373 555 366.5 538 Q360 521 353 501 Q346 481 338.5 461 Q331 441 325 423 L204 124 L556 124 Z " />
<glyph glyph-name="uni0394" unicode="&#x394;" horiz-adv-x="772" d="M25 83 L287 701 L489 701 L746 83 L746 0 L25 0 L25 83 Z M556 124 L437 411 Q431 428 423.5 448.5 Q416 469 408 490 Q400 511 393 531 Q386 551 381 567 L376 567 Q373 555 366.5 538 Q360 521 353 501 Q346 481 338.5 461 Q331 441 325 423 L204 124 L556 124 Z " />
<glyph glyph-name="Omega" unicode="&#x2126;" horiz-adv-x="856" d="M44 122 L203 122 L203 126 Q177 143 151 167.5 Q125 192 104.5 224.5 Q84 257 71 297 Q58 337 58 385 Q58 449 84.5 505.5 Q111 562 159.5 604.5 Q208 647 276.5 672 Q345 697 429 697 Q516 697 584.5 671 Q653 645 700 601.5 Q747 558 772 502.5 Q797 447 797 387 Q797 340 785 300.5 Q773 261 752.5 229 Q732 197 705 171.5 Q678 146 648 126 L648 122 L811 122 L811 0 L476 0 L476 94 Q507 112 535 136 Q563 160 583.5 191.5 Q604 223 616 263.5 Q628 304 628 357 Q628 400 614.5 439.5 Q601 479 575.5 509 Q550 539 513 557 Q476 575 430 575 Q386 575 349 559 Q312 543 285 513.5 Q258 484 243 443 Q228 402 228 352 Q228 305 239.5 265 Q251 225 271.5 192 Q292 159 320 134 Q348 109 380 94 L380 0 L44 0 L44 122 Z " />
<glyph glyph-name="uni03A9" unicode="&#x3a9;" horiz-adv-x="856" d="M44 122 L203 122 L203 126 Q177 143 151 167.5 Q125 192 104.5 224.5 Q84 257 71 297 Q58 337 58 385 Q58 449 84.5 505.5 Q111 562 159.5 604.5 Q208 647 276.5 672 Q345 697 429 697 Q516 697 584.5 671 Q653 645 700 601.5 Q747 558 772 502.5 Q797 447 797 387 Q797 340 785 300.5 Q773 261 752.5 229 Q732 197 705 171.5 Q678 146 648 126 L648 122 L811 122 L811 0 L476 0 L476 94 Q507 112 535 136 Q563 160 583.5 191.5 Q604 223 616 263.5 Q628 304 628 357 Q628 400 614.5 439.5 Q601 479 575.5 509 Q550 539 513 557 Q476 575 430 575 Q386 575 349 559 Q312 543 285 513.5 Q258 484 243 443 Q228 402 228 352 Q228 305 239.5 265 Q251 225 271.5 192 Q292 159 320 134 Q348 109 380 94 L380 0 L44 0 L44 122 Z " />
<glyph glyph-name="mu" unicode="&#xb5;" horiz-adv-x="643" d="M40 518 L247 518 L247 230 Q247 220 248.5 206.5 Q250 193 257 181 Q264 169 279 160.5 Q294 152 320 152 Q344 152 359 159.5 Q374 167 382.5 179.5 Q391 192 393.5 208.5 Q396 225 396 244 L396 518 L603 518 L603 0 L407 0 L407 76 Q401 59 393.5 44.5 Q386 30 376.5 18.5 Q367 7 353 0.5 Q339 -6 320 -6 Q291 -6 274.5 7 Q258 20 247 35 L247 -188 L40 -188 L40 518 Z " />
<glyph glyph-name="uni03BC" unicode="&#x3bc;" horiz-adv-x="643" d="M40 518 L247 518 L247 230 Q247 220 248.5 206.5 Q250 193 257 181 Q264 169 279 160.5 Q294 152 320 152 Q344 152 359 159.5 Q374 167 382.5 179.5 Q391 192 393.5 208.5 Q396 225 396 244 L396 518 L603 518 L603 0 L407 0 L407 76 Q401 59 393.5 44.5 Q386 30 376.5 18.5 Q367 7 353 0.5 Q339 -6 320 -6 Q291 -6 274.5 7 Q258 20 247 35 L247 -188 L40 -188 L40 518 Z " />
<glyph glyph-name="pi" unicode="&#x3c0;" horiz-adv-x="713" d="M65 0 Q78 38 89.5 89 Q101 140 110 193.5 Q119 247 124.5 298.5 Q130 350 130 390 Q96 390 68 388 Q40 386 18 380 L1 479 Q21 496 69 506 Q117 516 199 516 L699 516 L685 390 L607 390 L607 165 Q607 109 611.5 67 Q616 25 621 0 L458 0 Q452 7 448.5 22 Q445 37 442.5 57.5 Q440 78 439 102.5 Q438 127 438 153 L438 390 L296 390 Q295 346 289.5 291 Q284 236 275 181.5 Q266 127 254 78.5 Q242 30 229 0 L65 0 Z " />
<glyph glyph-name="degree" unicode="&#xb0;" horiz-adv-x="384" d="M20 534 Q20 570 33.5 601 Q47 632 70.5 655.5 Q94 679 125 692.5 Q156 706 192 706 Q228 706 259 692.5 Q290 679 313.5 655.5 Q337 632 350.5 601 Q364 570 364 534 Q364 498 350.5 467 Q337 436 313.5 412.5 Q290 389 259 375.5 Q228 362 192 362 Q156 362 125 375.5 Q94 389 70.5 412.5 Q47 436 33.5 467 Q20 498 20 534 Z M192 469 Q219 469 238 488 Q257 507 257 534 Q257 561 238 580 Q219 599 192 599 Q165 599 146 580 Q127 561 127 534 Q127 507 146 488 Q165 469 192 469 Z " />
<glyph glyph-name="infinity" unicode="&#x221e;" horiz-adv-x="827" d="M777 283 Q777 239 762.5 204.5 Q748 170 723.5 146 Q699 122 667.5 109.5 Q636 97 603 97 Q582 97 559.5 102 Q537 107 513 120 Q489 133 464 155.5 Q439 178 413 214 Q393 189 372 167.5 Q351 146 327.5 130.5 Q304 115 277.5 106 Q251 97 219 97 Q186 97 155 110 Q124 123 100 146.5 Q76 170 62 203.5 Q48 237 48 278 Q48 319 62 353 Q76 387 100.5 411 Q125 435 158 448.5 Q191 462 229 462 Q289 462 334 431.5 Q379 401 419 348 Q435 366 453 386 Q471 406 493.5 423 Q516 440 544.5 451 Q573 462 609 462 Q644 462 674.5 449 Q705 436 728 413 Q751 390 764 357 Q777 324 777 284 L777 283 Z M231 179 Q252 179 271 187.5 Q290 196 307 210 Q324 224 339 240.5 Q354 257 368 274 Q353 295 338 314.5 Q323 334 306.5 349 Q290 364 270.5 373 Q251 382 226 382 Q185 382 159 353.5 Q133 325 133 277 Q133 257 140.5 239.5 Q148 222 160.5 208.5 Q173 195 190.5 187 Q208 179 229 179 L231 179 Z M599 382 Q576 382 556.5 371.5 Q537 361 520 346 Q503 331 488 313.5 Q473 296 461 281 Q484 251 503 231.5 Q522 212 538.5 200.5 Q555 189 571 184 Q587 179 605 179 Q626 179 642 188 Q658 197 669.5 211.5 Q681 226 686.5 243 Q692 260 692 277 Q692 323 667 352.5 Q642 382 600 382 L599 382 Z " />
<glyph glyph-name="partialdiff" unicode="&#x2202;" horiz-adv-x="674" d="M64 715 Q76 723 96.5 733.5 Q117 744 145.5 754 Q174 764 210 770.5 Q246 777 291 777 Q362 777 423.5 750.5 Q485 724 530 674.5 Q575 625 601 554.5 Q627 484 627 396 Q627 307 602.5 233 Q578 159 533 106 Q488 53 425.5 24 Q363 -5 287 -5 Q221 -5 173.5 18.5 Q126 42 95 77.5 Q64 113 49 155 Q34 197 34 234 Q34 289 52.5 335.5 Q71 382 104.5 416.5 Q138 451 184.5 470.5 Q231 490 287 490 Q324 490 353.5 480 Q383 470 405 456 Q427 442 442 426.5 Q457 411 464 401 L465 401 L465 427 Q465 472 452 513 Q439 554 414 585 Q389 616 352.5 634.5 Q316 653 270 653 Q212 653 172 637 Q132 621 112 608 L64 715 Z M305 118 Q334 118 358.5 133 Q383 148 401.5 171.5 Q420 195 431.5 224.5 Q443 254 448 283 Q445 295 435 310 Q425 325 409 338.5 Q393 352 372 361.5 Q351 371 325 371 Q297 371 274 360 Q251 349 234.5 330.5 Q218 312 208.5 286.5 Q199 261 199 232 Q199 208 207 187 Q215 166 229 151 Q243 136 262 127 Q281 118 304 118 L305 118 Z " />
<glyph glyph-name="integral" unicode="&#x222b;" horiz-adv-x="429" d="M29 -54 Q38 -58 51 -61.5 Q64 -65 79 -65 Q111 -65 131 -44 Q147 -25 154.5 7 Q162 39 162 102 Q162 170 159 229 Q156 288 152.5 344.5 Q149 401 146 457.5 Q143 514 143 577 Q143 663 160 716 Q177 769 214 804 Q238 829 274.5 840 Q311 851 349 851 Q370 851 389.5 847 Q409 843 419 838 L403 740 Q394 743 383 745.5 Q372 748 361 748 Q343 748 327.5 741 Q312 734 303 720 Q286 699 280.5 660 Q275 621 275 561 Q275 501 278 446.5 Q281 392 284 337.5 Q287 283 290 225 Q293 167 293 100 Q293 33 282 -15.5 Q271 -64 254 -93 Q229 -137 188 -155.5 Q147 -174 103 -174 Q78 -174 51.5 -169.5 Q25 -165 11 -158 L29 -54 Z " />
<glyph glyph-name="radical" unicode="&#x221a;" horiz-adv-x="689" d="M139 281 L57 247 L30 326 L234 410 L355 91 Q363 69 369.5 48.5 Q376 28 381 9 L383 8 Q387 25 392 48 Q397 71 402 96 L596 819 L712 819 L444 -145 L316 -145 L139 281 Z " />
<glyph glyph-name="summation" unicode="&#x2211;" horiz-adv-x="655" d="M22 -5 L291 292 L36 581 L36 685 L615 685 L615 553 L263 553 L263 549 L478 310 L241 45 L241 41 L637 41 L637 -94 L22 -94 L22 -5 Z " />
<glyph glyph-name="product" unicode="&#x220f;" horiz-adv-x="832" d="M140 550 L21 550 L21 685 L810 685 L810 550 L691 550 L691 -94 L530 -94 L530 550 L301 550 L301 -94 L140 -94 L140 550 Z " />
<glyph glyph-name="lozenge" unicode="&#x25ca;" horiz-adv-x="689" d="M51 341 L282 733 L407 733 L637 341 L405 -49 L280 -49 L51 341 Z M346 65 Q349 73 354.5 86.5 Q360 100 365 108 L496 338 L363 572 Q358 583 352 595.5 Q346 608 344 618 L341 618 Q337 608 331.5 595.5 Q326 583 321 572 L191 344 L324 108 Q330 97 335.5 85 Q341 73 343 65 L346 65 Z " />
<glyph glyph-name="one.fitted" unicode="&#xf6dc;" horiz-adv-x="479" d="M175 456 Q159 450 145 447 Q131 444 115 442.5 Q99 441 78 440.5 Q57 440 28 439 L28 594 L51 594 Q66 594 84.5 596 Q103 598 121 604.5 Q139 611 156.5 623 Q174 635 188 655 Q198 670 203 687 L381 687 L381 0 L175 0 L175 456 Z " />
<glyph glyph-name="uni2113" unicode="&#x2113;" horiz-adv-x="626" d="M29 199 Q52 215 76.5 231 Q101 247 124 263 L124 480 Q124 553 139.5 605.5 Q155 658 183.5 691.5 Q212 725 251.5 741 Q291 757 339 757 Q385 757 419 742 Q453 727 475.5 702 Q498 677 508.5 644 Q519 611 519 575 Q519 529 503 486.5 Q487 444 456.5 402 Q426 360 382 318.5 Q338 277 283 232 L284 210 Q287 170 313.5 147 Q340 124 379 124 Q402 124 424 131.5 Q446 139 465.5 152 Q485 165 501.5 181 Q518 197 531 215 L601 145 Q576 103 545 74.5 Q514 46 480 28.5 Q446 11 410 3 Q374 -5 338 -5 Q247 -5 197 35 Q147 75 128 145 Q128 150 127 153 Q113 144 100.5 135 Q88 126 73 117 L29 199 Z M283 368 Q337 420 370 474 Q403 528 403 576 Q403 611 390 631.5 Q377 652 348 652 Q336 652 324.5 645.5 Q313 639 304 623 Q295 607 289 581 Q283 555 283 516 L283 368 Z " />
<glyph glyph-name="estimated" unicode="&#x212e;" horiz-adv-x="858" d="M179 140 Q179 128 187 118 Q234 70 295.5 41.5 Q357 13 429 13 Q506 13 571.5 45 Q637 77 684 131 L741 131 Q687 68 606 30.5 Q525 -7 428 -7 Q346 -7 274 21 Q202 49 148.5 97 Q95 145 64 209.5 Q33 274 33 348 Q33 421 64 486 Q95 551 148.5 599.5 Q202 648 274 676 Q346 704 428 704 Q510 704 582 676 Q654 648 708 599.5 Q762 551 793 486 Q824 421 824 348 L824 338 L184 338 Q179 338 179 334 L179 140 Z M675 357 Q677 357 678 359 Q679 361 679 363 L679 558 Q679 572 669 581 Q622 627 561 654.5 Q500 682 429 682 Q358 682 296.5 654 Q235 626 188 578 Q179 569 179 554 L179 363 Q179 361 180.5 359 Q182 357 184 357 L675 357 Z " />
<glyph glyph-name="uni2219" unicode="&#x2219;" horiz-adv-x="250" d="M34 411 L216 411 L216 222 L34 222 L34 411 Z " />
<glyph glyph-name="uni02C9" unicode="&#x2c9;" horiz-adv-x="313" d="M-48 698 L362 698 L362 605 L-48 605 L-48 698 Z " />
<glyph glyph-name="uni2215" unicode="&#x2215;" horiz-adv-x="169" d="M169 706 L301 706 L-1 0 L-132 0 L169 706 Z " />
<glyph glyph-name="commaaccentalt" unicode="&#xe001;" horiz-adv-x="333" d="M106 670 Q106 723 127.5 753.5 Q149 784 203 807 L237 756 Q178 730 178 689 L237 689 L237 574 L106 574 L106 670 Z " />
<glyph glyph-name="caronalt" unicode="&#xe000;" horiz-adv-x="333" d="M101 524 Q160 550 160 591 L101 591 L101 706 L232 706 L232 610 Q232 557 210.5 526.5 Q189 496 135 473 L101 524 Z " />
</font>
</svg>
